<svg width="32" height="32" viewBox="0 0 32 32" fill="none" xmlns="http://www.w3.org/2000/svg">
<path d="M5 31L2.31467 27.644C1.46364 26.5802 1 25.2584 1 23.896V17C1 16.4696 1.21071 15.9609 1.58579 15.5858C1.96086 15.2107 2.46957 15 3 15V15C3.53043 15 4.03914 15.2107 4.41421 15.5858C4.78929 15.9609 5 16.4696 5 17V22" stroke="#6E2DFA" stroke-width="2" stroke-linecap="round" stroke-linejoin="round"/>
<path d="M11 31V26.8187C11.001 25.6322 10.6497 24.472 9.99069 23.4854L8.46802 21.2C8.34199 20.9897 8.17575 20.8063 7.97881 20.6602C7.78186 20.5141 7.55807 20.4083 7.32022 20.3487C7.08236 20.2892 6.8351 20.2771 6.59256 20.3131C6.35003 20.3491 6.11696 20.4326 5.90669 20.5587L5.83202 20.6067C5.45086 20.8598 5.17591 21.244 5.05941 21.6865C4.9429 22.1289 4.99293 22.5987 5.20002 23.0067L7.00002 26" stroke="#6E2DFA" stroke-width="2" stroke-linecap="round" stroke-linejoin="round"/>
<path d="M27 31L29.6853 27.644C30.5364 26.5802 31 25.2584 31 23.896V17C31 16.4696 30.7893 15.9609 30.4142 15.5858C30.0391 15.2107 29.5304 15 29 15C28.4696 15 27.9609 15.2107 27.5858 15.5858C27.2107 15.9609 27 16.4696 27 17V22" stroke="#6E2DFA" stroke-width="2" stroke-linecap="round" stroke-linejoin="round"/>
<path d="M21 31V26.8187C20.999 25.6322 21.3503 24.472 22.0093 23.4854L23.532 21.2C23.658 20.9897 23.8243 20.8063 24.0212 20.6602C24.2182 20.5141 24.442 20.4083 24.6798 20.3487C24.9177 20.2892 25.1649 20.2771 25.4075 20.3131C25.65 20.3491 25.8831 20.4326 26.0933 20.5587L26.168 20.6067C26.5492 20.8598 26.8241 21.244 26.9406 21.6865C27.0571 22.1289 27.0071 22.5987 26.8 23.0067L25 26" stroke="#6E2DFA" stroke-width="2" stroke-linecap="round" stroke-linejoin="round"/>
<path d="M15.9413 14.0627C14.4813 15.788 8.81201 17.0587 8.06268 15.8227C8.53915 14.2836 9.44817 12.9141 10.6813 11.8773C6.57868 9.68933 6.26668 7.74933 6.21735 6.98C7.36896 6.63837 8.5784 6.53653 9.77093 6.68078C10.9635 6.82503 12.1137 7.2123 13.1507 7.81867C13.0842 6.54122 13.3057 5.26516 13.7989 4.08489C14.2921 2.90461 15.0444 1.85032 16 1C16.9564 1.84994 17.7094 2.90406 18.2033 4.08436C18.6972 5.26465 18.9194 6.5409 18.8533 7.81867C19.8903 7.2123 21.0406 6.82503 22.2331 6.68078C23.4256 6.53653 24.6351 6.63837 25.7867 6.98C25.744 7.74933 25.4253 9.68933 21.3227 11.8773C22.5559 12.9141 23.4649 14.2836 23.9413 15.8227C23.192 17.0587 17.408 15.788 15.9413 14.0627" stroke="#6E2DFA" stroke-width="2" stroke-linecap="round" stroke-linejoin="round"/>
<path d="M15.9413 14.0626V21" stroke="#6E2DFA" stroke-width="2" stroke-linecap="round" stroke-linejoin="round"/>
</svg>
