<svg width="145" height="48" viewBox="0 0 145 48" fill="none" xmlns="http://www.w3.org/2000/svg">
<path d="M132.874 0.000155999H11.815C11.3738 0.000155999 10.9378 0.000155999 10.4977 0.00255599C10.1293 0.00495598 9.76379 0.011928 9.39184 0.0177959C8.5838 0.0272781 7.77765 0.0981672 6.98041 0.229847C6.18429 0.364394 5.41311 0.618053 4.69296 0.982245C3.97368 1.34952 3.31645 1.82675 2.74512 2.39663C2.17079 2.96491 1.69205 3.62176 1.32729 4.34193C0.961525 5.06067 0.707903 5.83086 0.575183 6.62591C0.441201 7.41995 0.369104 8.22315 0.35954 9.0283C0.348372 9.39622 0.347193 9.76536 0.341309 10.1333V37.8704C0.347193 38.243 0.348372 38.6039 0.35954 38.9766C0.369107 39.7817 0.441204 40.5849 0.575183 41.3789C0.707537 42.1744 0.961174 42.945 1.32729 43.6641C1.69188 44.3819 2.17069 45.0361 2.74512 45.6012C3.31429 46.1736 3.97194 46.6512 4.69296 47.0156C5.41311 47.3808 6.18421 47.636 6.98041 47.7726C7.77779 47.9032 8.58385 47.9741 9.39184 47.9848C9.76379 47.9929 10.1293 47.9976 10.4977 47.9976C10.9378 48 11.3738 48 11.815 48H132.874C133.307 48 133.746 48 134.179 47.9976C134.545 47.9976 134.921 47.9929 135.288 47.9848C136.094 47.9747 136.899 47.9038 137.695 47.7726C138.493 47.635 139.267 47.3799 139.991 47.0156C140.711 46.651 141.368 46.1734 141.937 45.6012C142.51 45.0339 142.99 44.3802 143.359 43.6641C143.722 42.9445 143.973 42.174 144.104 41.3789C144.238 40.5848 144.313 39.7818 144.327 38.9766C144.332 38.6039 144.332 38.243 144.332 37.8704C144.341 37.4344 144.341 37.0008 144.341 36.5578V11.4435C144.341 11.004 144.341 10.5681 144.332 10.1333C144.332 9.76536 144.332 9.39622 144.327 9.02825C144.313 8.22304 144.238 7.42001 144.104 6.62586C143.973 5.83128 143.722 5.06114 143.359 4.34189C142.616 2.89838 141.438 1.72338 139.991 0.982137C139.267 0.618835 138.493 0.365243 137.695 0.229739C136.899 0.097479 136.094 0.0265652 135.288 0.0176279C134.921 0.011772 134.545 0.00473998 134.179 0.00239999C133.746 0 133.307 0 132.874 0V0.000155999Z" fill="#A6A6A6"/>
<path d="M10.5038 46.9506C10.1371 46.9506 9.77935 46.946 9.41559 46.9378C8.66202 46.928 7.91021 46.8626 7.16632 46.7421C6.47269 46.6229 5.80074 46.4014 5.17265 46.0846C4.55032 45.7705 3.9827 45.3586 3.49155 44.8647C2.99328 44.3766 2.57845 43.8105 2.2635 43.1889C1.94507 42.5632 1.7247 41.8925 1.61007 41.2003C1.48627 40.4564 1.41929 39.7042 1.40971 38.9503C1.40208 38.6972 1.39209 37.8545 1.39209 37.8545V10.134C1.39209 10.134 1.40273 9.30427 1.40977 9.06052C1.41894 8.30774 1.48553 7.55674 1.60896 6.81404C1.72381 6.11986 1.94435 5.44727 2.26294 4.81953C2.57674 4.1983 2.98927 3.63181 3.48453 3.14199C3.97924 2.64752 4.54867 2.2335 5.17206 1.91503C5.79871 1.59929 6.46939 1.37926 7.16162 1.2623C7.90794 1.14058 8.66236 1.07478 9.41855 1.06543L10.5044 1.05078H134.173L135.272 1.06602C136.021 1.0749 136.769 1.14012 137.508 1.26113C138.207 1.37955 138.885 1.60112 139.519 1.91855C140.768 2.56036 141.784 3.57577 142.425 4.82245C142.738 5.44586 142.955 6.11297 143.069 6.80115C143.194 7.54995 143.264 8.30684 143.278 9.0658C143.281 9.40563 143.281 9.77067 143.281 10.134C143.291 10.584 143.291 11.0123 143.291 11.4441V36.5584C143.291 36.9944 143.291 37.4198 143.281 37.8487C143.281 38.2389 143.281 38.5964 143.277 38.9643C143.263 39.7097 143.194 40.4531 143.071 41.1885C142.959 41.8858 142.74 42.5617 142.421 43.1925C142.104 43.8074 141.692 44.3686 141.199 44.8553C140.708 45.3519 140.139 45.7662 139.515 46.0823C138.883 46.4015 138.206 46.6239 137.508 46.7421C136.764 46.8632 136.012 46.9286 135.259 46.9378C134.906 46.946 134.537 46.9506 134.179 46.9506L132.874 46.953L10.5038 46.9506Z" fill="black"/>
<path fill-rule="evenodd" clip-rule="evenodd" d="M90.2085 34.8914C88.2413 34.8914 86.8017 33.9211 86.636 32.4434L84.3468 32.4433C84.4913 35.1386 86.7288 36.8437 90.0428 36.8437C93.5847 36.8437 95.8117 35.0976 95.8117 32.3097C95.8117 30.13 94.5378 28.9019 91.4718 28.1789L89.8254 27.7757C87.8993 27.3012 87.1119 26.6812 87.1119 25.6277C87.1119 24.3059 88.3447 23.3977 90.1462 23.3977C91.9477 23.3977 93.1805 24.2953 93.3156 25.7824H95.5731C95.5003 23.2113 93.3356 21.4453 90.178 21.4453C86.9874 21.4453 84.7405 23.2113 84.7405 25.7824C84.7405 27.859 86.0144 29.1387 88.7584 29.7996L90.695 30.2648C92.6317 30.7395 93.4496 31.432 93.4496 32.5886C93.4496 33.9211 92.0935 34.8914 90.2085 34.8914ZM51.2469 32.5672H45.5509L44.183 36.5949H41.7704L47.1656 21.6934H49.6722L55.0674 36.5949H52.6136L51.2469 32.5672ZM46.141 30.7086H50.6561L48.4303 24.1719H48.368L46.141 30.7086ZM62.1727 36.709C64.9073 36.709 66.7194 34.5399 66.7194 31.1637C66.7194 27.7969 64.8967 25.6173 62.1316 25.6172C60.7087 25.5715 59.3759 26.3094 58.6625 27.5379H58.6214V25.7309H56.4567V40.1895H58.693V34.8082H58.7448C59.4278 36.0445 60.7592 36.7827 62.1727 36.709ZM64.4207 31.1633C64.4207 28.9637 63.2807 27.5176 61.5415 27.5176C59.8328 27.5176 58.6835 28.9941 58.6835 31.1633C58.6835 33.3523 59.8328 34.8183 61.5415 34.8183C63.2807 34.8183 64.4207 33.3828 64.4207 31.1633ZM74.1637 36.709C76.8983 36.709 78.7104 34.5399 78.7104 31.1637C78.7104 27.7969 76.8877 25.6172 74.1225 25.6172C72.6997 25.5715 71.3668 26.3094 70.6534 27.5379H70.6123V25.7309H68.4477V40.1894H70.684V34.8082H70.7357C71.4188 36.0445 72.7502 36.7827 74.1637 36.709ZM76.4119 31.1633C76.4119 28.9637 75.2719 27.5176 73.5327 27.5176C71.824 27.5176 70.6747 28.9941 70.6747 31.1633C70.6747 33.3523 71.824 34.8183 73.5327 34.8183C75.272 34.8183 76.4119 33.3828 76.4119 31.1633ZM100.638 23.1602V25.7312H102.71V27.4973H100.638V33.4867C100.638 34.4172 101.053 34.8507 101.963 34.8507C102.209 34.8465 102.455 34.8292 102.699 34.7991V36.5546C102.29 36.6309 101.873 36.6655 101.457 36.6577C99.2511 36.6577 98.3909 35.8316 98.3909 33.7245V27.4973H96.8068V25.7312H98.3909V23.1602H100.638ZM109.077 25.5977C105.928 25.5977 103.909 27.7457 103.909 31.164C103.909 34.5918 105.908 36.7304 109.077 36.7304C112.246 36.7304 114.245 34.5918 114.245 31.164C114.245 27.7456 112.235 25.5977 109.077 25.5977ZM111.966 31.1635C111.966 28.8185 110.889 27.4346 109.077 27.4346C107.265 27.4346 106.188 28.8291 106.188 31.1635C106.188 33.5177 107.265 34.8912 109.077 34.8912C110.889 34.8912 111.966 33.5177 111.966 31.1635ZM118.222 25.7308H116.089L116.089 36.5952H118.325V30.1511C118.251 29.4992 118.466 28.8473 118.914 28.3668C119.362 27.8862 119.998 27.6249 120.656 27.6515C120.996 27.6416 121.335 27.6871 121.661 27.7863V25.7003C121.409 25.6442 121.152 25.6162 120.894 25.6171C119.665 25.5703 118.571 26.3896 118.274 27.58H118.222V25.7308ZM131.972 33.4047C131.671 35.3769 129.745 36.7304 127.28 36.7304C124.111 36.7304 122.144 34.6129 122.144 31.2156C122.144 27.8078 124.121 25.5977 127.186 25.5977C130.201 25.5977 132.096 27.6625 132.096 30.9566V31.7207H124.401V31.8554C124.329 32.6643 124.609 33.4649 125.17 34.0537C125.731 34.6425 126.518 34.9626 127.332 34.9328C128.417 35.0342 129.44 34.4127 129.848 33.4047L131.972 33.4047ZM129.859 30.1623H124.412C124.41 29.4288 124.702 28.7249 125.223 28.2071C125.744 27.6893 126.451 27.4005 127.186 27.4049C127.916 27.3893 128.619 27.6779 129.127 28.2014C129.634 28.7248 129.899 29.4355 129.859 30.1623Z" fill="white"/>
<path fill-rule="evenodd" clip-rule="evenodd" d="M71.4532 10.125H72.5226V17.6379H71.4532V10.125ZM48.3942 11.4591C47.7397 10.7699 46.8098 10.4097 45.8604 10.4777H43.2668V17.6379H45.8604C47.9992 17.6379 49.239 16.323 49.239 14.0355C49.3587 13.0938 49.0487 12.1483 48.3942 11.4591ZM45.7361 16.6255H44.3823V11.4898H45.7361C46.411 11.4525 47.0673 11.7178 47.5255 12.2133C47.9837 12.7088 48.1959 13.3826 48.1041 14.0503C48.2032 14.7209 47.994 15.4003 47.5346 15.8998C47.0752 16.3994 46.4146 16.666 45.7361 16.6255ZM50.4994 14.9335C50.4065 13.965 50.8722 13.0277 51.7013 12.5146C52.5303 12.0016 53.5793 12.0016 54.4084 12.5146C55.2374 13.0277 55.7031 13.965 55.6102 14.9335C55.7049 15.9031 55.2396 16.8423 54.4098 17.3564C53.5801 17.8705 52.5296 17.8705 51.6998 17.3564C50.87 16.8423 50.4047 15.9031 50.4994 14.9335ZM53.0562 13.0771C53.9822 13.0771 54.5099 13.7621 54.5099 14.9334H54.5099C54.5099 16.1094 53.9823 16.7937 53.0562 16.7937C52.1267 16.7937 51.6038 16.1141 51.6038 14.9334C51.6038 13.7621 52.1267 13.0771 53.0562 13.0771ZM62.4032 17.6379H61.2939L60.1739 13.6582H60.0893L58.9741 17.6379H57.8753L56.3817 12.2344H57.4664L58.4371 16.3576H58.517L59.631 12.2344H60.6569L61.771 16.3576H61.8556L62.8216 12.2344H63.891L62.4032 17.6379ZM66.1764 12.2347H65.147L65.147 17.6382H66.2164V14.477C66.178 14.1174 66.299 13.759 66.5477 13.4958C66.7964 13.2326 67.148 13.0909 67.5102 13.1077C68.3011 13.1077 68.6795 13.5395 68.6795 14.4079V17.6381H69.7489V14.1401C69.8273 13.6118 69.6605 13.0766 69.2957 12.6856C68.9308 12.2946 68.4074 12.0903 67.8734 12.1303C67.1836 12.0744 66.5342 12.461 66.2563 13.093H66.1764V12.2347ZM75.2115 12.5147C74.3824 13.0277 73.9166 13.965 74.0094 14.9336C73.9148 15.9032 74.3802 16.8424 75.21 17.3565C76.0399 17.8706 77.0903 17.8706 77.9202 17.3565C78.75 16.8424 79.2154 15.9032 79.1208 14.9336C79.2136 13.965 78.7478 13.0277 77.9187 12.5147C77.0896 12.0016 76.0406 12.0016 75.2115 12.5147ZM78.0201 14.9334C78.0201 13.7621 77.4925 13.0771 76.5665 13.0771C75.6369 13.0771 75.114 13.7621 75.114 14.9334C75.114 16.1141 75.637 16.7937 76.5665 16.7937C77.4925 16.7937 78.0202 16.1094 78.0201 14.9334ZM82.2615 14.4965C80.9724 14.5762 80.2461 15.1369 80.2461 16.1095C80.2479 16.5707 80.4453 17.0096 80.7894 17.3177C81.1335 17.6259 81.5923 17.7744 82.0523 17.7267C82.7085 17.757 83.3303 17.4329 83.6799 16.8783H83.7645V17.6377H84.794V13.9457C84.794 12.8043 84.0278 12.1299 82.6693 12.1299C81.4401 12.1299 80.5646 12.7252 80.4553 13.6533H81.4906C81.6093 13.2713 82.023 13.0527 82.6199 13.0527C83.3509 13.0527 83.7293 13.375 83.7293 13.9457V14.4121L82.2615 14.4965ZM83.7292 15.648V15.1963L82.4059 15.2807C81.6597 15.3305 81.3213 15.5836 81.3213 16.06C81.3213 16.5463 81.7443 16.8293 82.3261 16.8293C82.6705 16.864 83.0142 16.7579 83.2787 16.5353C83.5432 16.3126 83.7058 15.9924 83.7292 15.648ZM88.4484 12.1447C87.0793 12.1447 86.1991 13.2264 86.1991 14.9338C86.1991 16.6453 87.07 17.727 88.4484 17.7269C89.1473 17.7526 89.8027 17.3895 90.1501 16.7842H90.2347V17.6379H91.2594V10.125H90.19V13.0927H90.1101C89.7872 12.4824 89.1397 12.113 88.4484 12.1447ZM87.3037 14.9336C87.3037 16.0797 87.8455 16.7693 88.7516 16.7693C89.6529 16.7693 90.2099 16.0697 90.2099 14.9383C90.2099 13.8121 89.647 13.1025 88.7516 13.1025C87.8513 13.1025 87.3037 13.7969 87.3037 14.9336H87.3037ZM96.8861 12.5146C96.0571 13.0277 95.5913 13.965 95.6842 14.9335C95.5896 15.9031 96.0549 16.8423 96.8846 17.3564C97.7144 17.8705 98.7649 17.8705 99.5947 17.3564C100.424 16.8423 100.89 15.9031 100.795 14.9335C100.888 13.965 100.422 13.0277 99.5932 12.5146C98.7642 12.0016 97.7151 12.0016 96.8861 12.5146ZM99.6959 14.9334C99.6959 13.7621 99.1683 13.0771 98.2423 13.0771C97.3127 13.0771 96.7898 13.7621 96.7898 14.9334C96.7898 16.1141 97.3127 16.7937 98.2423 16.7937C99.1683 16.7937 99.6959 16.1094 99.6959 14.9334ZM103.259 12.2347H102.229V17.6382H103.299V14.477C103.261 14.1174 103.382 13.759 103.63 13.4958C103.879 13.2326 104.23 13.0909 104.593 13.1077C105.384 13.1077 105.762 13.5395 105.762 14.4079V17.6381H106.831V14.1401C106.91 13.6118 106.743 13.0766 106.378 12.6856C106.013 12.2946 105.49 12.0903 104.956 12.1303C104.266 12.0744 103.617 12.461 103.339 13.093H103.259V12.2347ZM112.876 10.8887V12.2586H114.05V13.1568H112.876V15.9353C112.876 16.5014 113.109 16.7492 113.642 16.7492C113.778 16.7488 113.914 16.7405 114.05 16.7246V17.6129C113.858 17.6471 113.663 17.6653 113.468 17.6674C112.279 17.6674 111.805 17.2502 111.805 16.2084V13.1568H110.945V12.2585H111.805V10.8887H112.876ZM116.57 10.125H115.51L115.51 17.6379H116.58V14.482C116.547 14.1112 116.679 13.7448 116.943 13.4807C117.206 13.2165 117.572 13.0817 117.944 13.1121C118.7 13.1121 119.103 13.5492 119.103 14.4123V17.6379H120.173V14.1492C120.244 13.6236 120.076 13.0939 119.715 12.7043C119.354 12.3148 118.838 12.106 118.307 12.1348C117.607 12.0781 116.946 12.4652 116.655 13.1027H116.57V10.125ZM126.408 16.1788C126.108 17.198 125.119 17.8566 124.06 17.7421C123.338 17.7611 122.643 17.4624 122.161 16.9253C121.679 16.3882 121.458 15.667 121.557 14.953C121.461 14.237 121.681 13.5146 122.16 12.973C122.64 12.4314 123.331 12.1238 124.055 12.13C125.563 12.13 126.473 13.1572 126.473 14.854V15.2261H122.646V15.2858C122.613 15.6868 122.75 16.0834 123.025 16.3781C123.299 16.6728 123.686 16.8383 124.09 16.8338C124.613 16.8965 125.122 16.6377 125.379 16.1787L126.408 16.1788ZM125.383 14.4372H122.646C122.641 14.0646 122.787 13.7059 123.051 13.4423C123.315 13.1788 123.675 13.0328 124.049 13.0375C124.417 13.029 124.773 13.1762 125.027 13.4428C125.281 13.7094 125.41 14.0705 125.383 14.4372Z" fill="white"/>
<path fill-rule="evenodd" clip-rule="evenodd" d="M28.2021 10.4648C28.3186 11.9819 27.8374 13.4845 26.8609 14.6536C25.9134 15.8287 24.4778 16.5055 22.9658 16.49C22.8697 15.0166 23.3648 13.5655 24.3422 12.4564C25.3319 11.3322 26.7101 10.6211 28.2021 10.4648ZM32.9837 19.3791C31.2445 20.4453 30.1742 22.3258 30.1479 24.3615C30.1504 26.6647 31.5336 28.7433 33.6609 29.6405C33.2517 30.9658 32.6351 32.2183 31.8336 33.3515C30.7574 34.957 29.6289 36.5255 27.8378 36.5545C26.986 36.5741 26.411 36.3298 25.8119 36.0753C25.1869 35.8098 24.5356 35.5331 23.5165 35.5331C22.4357 35.5331 21.7553 35.8187 21.0991 36.0941C20.532 36.3321 19.983 36.5625 19.2092 36.5945C17.5035 36.6575 16.1999 34.881 15.0845 33.2906C12.8551 30.0427 11.1192 24.1374 13.4465 20.1193C14.5393 18.161 16.5827 16.9183 18.829 16.8459C19.7965 16.826 20.7248 17.1979 21.5386 17.5238C22.161 17.7732 22.7165 17.9957 23.1714 17.9957C23.5713 17.9957 24.1112 17.7819 24.7406 17.5329C25.7319 17.1405 26.9448 16.6605 28.1809 16.7899C30.1016 16.8498 31.8815 17.8093 32.9837 19.3791Z" fill="white"/>
</svg>
