<svg width="32" height="32" viewBox="0 0 32 32" fill="none" xmlns="http://www.w3.org/2000/svg">
<path d="M8.98 1.496C7.87207 1.00108 6.61493 0.957188 5.47518 1.37361C4.33543 1.79004 3.4027 2.63404 2.87478 3.72663C2.34687 4.81922 2.2653 6.07448 2.64736 7.22621C3.02942 8.37793 3.84507 9.33556 4.92133 9.896L10.324 12.5093L14.384 4.10933L8.98 1.496Z" stroke="#6E2DFA" stroke-width="2" stroke-linecap="round" stroke-linejoin="round"/>
<path d="M23.02 1.496C24.1279 1.00108 25.3851 0.957188 26.5248 1.37361C27.6646 1.79004 28.5973 2.63404 29.1252 3.72663C29.6531 4.81922 29.7347 6.07448 29.3526 7.22621C28.9706 8.37793 28.1549 9.33556 27.0787 9.896L21.676 12.5093L17.616 4.10933L23.02 1.496Z" stroke="#6E2DFA" stroke-width="2" stroke-linecap="round" stroke-linejoin="round"/>
<path d="M16.2107 26.2774C14.7507 28.0001 9.51466 29.2734 8.76666 28.0361C9.24336 26.4975 10.1524 25.1285 11.3853 24.0921C7.28266 21.9041 6.96399 19.9587 6.92133 19.1947C7.9974 18.838 9.13998 18.7281 10.2643 18.8733C11.3886 19.0185 12.4658 19.415 13.416 20.0334C13.3497 18.7558 13.5714 17.4797 14.0648 16.2994C14.5583 15.1192 15.3108 14.0649 16.2667 13.2147C17.223 14.0647 17.976 15.1188 18.4699 16.2991C18.9638 17.4794 19.186 18.7556 19.12 20.0334C19.9806 19.4004 20.9855 18.9923 22.0437 18.8458C23.1019 18.6994 24.1799 18.8193 25.18 19.1947C25.1373 19.9641 24.8187 21.9041 20.716 24.0921C21.9485 25.1286 22.857 26.4977 23.3333 28.0361C22.584 29.2734 17.6667 28.0014 16.2067 26.2774" stroke="#6E2DFA" stroke-width="2" stroke-linecap="round" stroke-linejoin="round"/>
<path d="M16.2107 26.2773V30.9693" stroke="#6E2DFA" stroke-width="2" stroke-linecap="round" stroke-linejoin="round"/>
</svg>
