<svg width="32" height="32" viewBox="0 0 32 32" fill="none" xmlns="http://www.w3.org/2000/svg">
<path d="M14.6667 28.3333C22.2146 28.3333 28.3333 22.2146 28.3333 14.6667C28.3333 7.11878 22.2146 1 14.6667 1C7.11878 1 1 7.11878 1 14.6667C1 22.2146 7.11878 28.3333 14.6667 28.3333Z" stroke="#6E2DFA" stroke-width="2" stroke-linecap="round" stroke-linejoin="round"/>
<path d="M24.3307 24.3307L31 31" stroke="#6E2DFA" stroke-width="2" stroke-linecap="round" stroke-linejoin="round"/>
<path d="M14.8253 18.4546C13.3587 20.1799 8.12934 21.4506 7.38134 20.2146C7.85736 18.6746 8.76641 17.3041 10 16.2666C5.89734 14.0799 5.57868 12.1333 5.53601 11.3706C6.61195 11.0135 7.75452 10.9033 8.87888 11.0483C10.0032 11.1932 11.0805 11.5896 12.0307 12.2079C11.9647 10.9302 12.1868 9.65393 12.6807 8.47364C13.1746 7.29335 13.9276 6.23922 14.884 5.38928C15.84 6.23989 16.5925 7.29462 17.0857 8.47538C17.5789 9.65615 17.8003 10.9327 17.7333 12.2106C18.5937 11.5777 19.5984 11.1696 20.6565 11.0234C21.7145 10.8771 22.7923 10.9974 23.792 11.3733C23.7493 12.1426 23.4307 14.0826 19.328 16.2693C20.5612 17.3061 21.4702 18.6756 21.9467 20.2146C21.1987 21.4506 16.28 20.1799 14.82 18.4546" stroke="#6E2DFA" stroke-width="2" stroke-linecap="round" stroke-linejoin="round"/>
<path d="M14.8253 18.4547V23.148" stroke="#6E2DFA" stroke-width="2" stroke-linecap="round" stroke-linejoin="round"/>
</svg>
