<svg width="17" height="16" viewBox="0 0 17 16" fill="none" xmlns="http://www.w3.org/2000/svg">
<path d="M8.97463 11.8998L12.3994 8.25413C12.4311 8.22109 12.4563 8.18169 12.4735 8.13822C12.4908 8.09474 12.4998 8.04805 12.5 8.00086C12.5002 7.95391 12.4918 7.90737 12.4751 7.86391C12.4584 7.82045 12.4338 7.78092 12.4027 7.74759L8.97463 4.10552C8.94345 4.07208 8.90635 4.04554 8.86547 4.02743C8.8246 4.00932 8.78076 4 8.73648 4C8.69219 4 8.64835 4.00932 8.60748 4.02743C8.5666 4.04554 8.5295 4.07208 8.49832 4.10552L7.57589 5.08649C7.51543 5.153 7.48164 5.24189 7.48164 5.3344C7.48164 5.42691 7.51543 5.51581 7.57589 5.58232L8.6023 6.73808C8.6106 6.7526 8.61498 6.76926 8.61498 6.78624C8.61498 6.80322 8.6106 6.81988 8.6023 6.8344C8.59576 6.85035 8.58496 6.86391 8.57125 6.87342C8.55755 6.88293 8.54152 6.88796 8.52515 6.8879L4.83543 6.8879C4.74647 6.8879 4.66115 6.92549 4.59825 6.99238C4.53534 7.05928 4.5 7.15001 4.5 7.24462L4.5 8.67148C4.5 8.76609 4.53534 8.85682 4.59825 8.92372C4.66115 8.99062 4.74647 9.0282 4.83543 9.0282L8.52515 9.0282C8.54152 9.02814 8.55755 9.03317 8.57125 9.04268C8.58496 9.05219 8.59576 9.06576 8.6023 9.08171C8.61025 9.09635 8.61444 9.11296 8.61444 9.12986C8.61444 9.14677 8.61025 9.16338 8.6023 9.17802L7.5457 10.423C7.48721 10.4891 7.45465 10.5765 7.45465 10.6673C7.45465 10.7581 7.48721 10.8455 7.5457 10.9117L8.50838 11.8998C8.57093 11.9641 8.65452 12 8.74151 12C8.8285 12 8.91208 11.9641 8.97463 11.8998Z" fill="white"/>
</svg>
