<svg width="31" height="31" viewBox="0 0 31 31" fill="none" xmlns="http://www.w3.org/2000/svg">
<path d="M14.1426 1.60693C14.7367 1.60677 15.3251 1.72365 15.874 1.95091C16.423 2.17816 16.9218 2.51133 17.342 2.93139C17.7622 3.35145 18.0955 3.85017 18.3229 4.39907C18.5503 4.94796 18.6673 5.53628 18.6673 6.13042C18.6673 8.12095 15.8059 11.9565 14.6315 13.4406C14.5733 13.5144 14.4991 13.5741 14.4145 13.615C14.33 13.656 14.2372 13.6773 14.1432 13.6773C14.0492 13.6773 13.9565 13.656 13.8719 13.615C13.7873 13.5741 13.7131 13.5144 13.6549 13.4406C12.4842 11.9565 9.62036 8.11846 9.62036 6.13042C9.6202 5.53645 9.73705 4.94826 9.96424 4.39945C10.1914 3.85064 10.5245 3.35197 10.9445 2.93191C11.3644 2.51185 11.863 2.17863 12.4117 1.95129C12.9605 1.72395 13.5486 1.60693 14.1426 1.60693V1.60693Z" stroke="#6E2DFA" stroke-width="2" stroke-linecap="round" stroke-linejoin="round"/>
<path d="M15.9056 5.84111C15.9059 6.18957 15.8028 6.53027 15.6094 6.82015C15.416 7.11002 15.141 7.33604 14.8192 7.46963C14.4974 7.60321 14.1432 7.63836 13.8013 7.57063C13.4595 7.5029 13.1455 7.33533 12.8989 7.08912C12.6523 6.8429 12.4843 6.5291 12.4161 6.18738C12.3478 5.84567 12.3825 5.4914 12.5156 5.16937C12.6487 4.84734 12.8743 4.57201 13.1639 4.37821C13.4535 4.1844 13.794 4.08082 14.1425 4.08057C14.6097 4.08057 15.0577 4.26597 15.3883 4.59606C15.7189 4.92615 15.9049 5.37395 15.9056 5.84111V5.84111Z" stroke="#6E2DFA" stroke-width="1.14286" stroke-linecap="round" stroke-linejoin="round"/>
<path d="M25.7675 10.187C26.3228 10.1868 26.8727 10.2961 27.3858 10.5084C27.8988 10.7208 28.365 11.0322 28.7578 11.4248C29.1505 11.8174 29.462 12.2835 29.6745 12.7965C29.8871 13.3095 29.9964 13.8593 29.9964 14.4146C29.9964 16.2449 27.4002 19.7492 26.2764 21.1804C26.216 21.2575 26.1389 21.3198 26.0508 21.3626C25.9628 21.4055 25.8661 21.4278 25.7682 21.4278C25.6702 21.4278 25.5736 21.4055 25.4855 21.3626C25.3975 21.3198 25.3203 21.2575 25.2599 21.1804C24.1362 19.7492 21.5412 16.2449 21.5412 14.4146C21.541 13.8595 21.6502 13.3098 21.8625 12.7969C22.0749 12.284 22.3861 11.8179 22.7786 11.4253C23.1711 11.0327 23.637 10.7213 24.1499 10.5088C24.6627 10.2964 25.2124 10.187 25.7675 10.187V10.187Z" stroke="#6E2DFA" stroke-width="2" stroke-linecap="round" stroke-linejoin="round"/>
<path d="M27.3537 14.4145C27.3537 14.7279 27.2608 15.0342 27.0867 15.2948C26.9126 15.5554 26.6652 15.7586 26.3756 15.8786C26.0861 15.9986 25.7675 16.03 25.4601 15.969C25.1527 15.9079 24.8703 15.7571 24.6486 15.5356C24.4269 15.3141 24.2759 15.0318 24.2146 14.7245C24.1533 14.4171 24.1845 14.0985 24.3042 13.8089C24.424 13.5192 24.6269 13.2716 24.8874 13.0973C25.1478 12.923 25.4541 12.8298 25.7675 12.8296C25.9758 12.8294 26.182 12.8703 26.3744 12.9499C26.5669 13.0294 26.7417 13.1461 26.8891 13.2933C27.0364 13.4405 27.1532 13.6153 27.2329 13.8077C27.3127 14 27.3537 14.2062 27.3537 14.4145Z" stroke="#6E2DFA" stroke-width="1.14286" stroke-linecap="round" stroke-linejoin="round"/>
<path d="M11.3554 19.9092C10.9087 22.5794 6.39005 27.1309 6.39005 29.8387C6.39005 27.1309 1.99394 23.0163 1.42713 19.9092C1.25372 19.1826 1.25386 18.4254 1.42755 17.6989C1.60124 16.9724 1.94359 16.2971 2.42688 15.7275C2.91017 15.1579 3.52081 14.7102 4.20934 14.4205C4.89787 14.1309 5.64494 14.0075 6.39005 14.0603C7.13557 14.0063 7.88331 14.1288 8.57256 14.4181C9.26181 14.7073 9.87313 15.155 10.3569 15.7248C10.8406 16.2946 11.1831 16.9705 11.3566 17.6976C11.5301 18.4246 11.5297 19.1824 11.3554 19.9092Z" stroke="#6E2DFA" stroke-width="2" stroke-linecap="round" stroke-linejoin="round"/>
<path d="M8.80923 19.1084C8.80948 19.587 8.66781 20.0548 8.40213 20.4529C8.13645 20.8509 7.7587 21.1612 7.31665 21.3445C6.87461 21.5278 6.38813 21.5759 5.91875 21.4827C5.44936 21.3895 5.01817 21.1592 4.67969 20.8209C4.34122 20.4826 4.11068 20.0515 4.01722 19.5822C3.92377 19.1128 3.9716 18.6263 4.15468 18.1842C4.33775 17.7421 4.64784 17.3641 5.04571 17.0982C5.44359 16.8324 5.91139 16.6904 6.38993 16.6904C6.70758 16.6903 7.02215 16.7527 7.31566 16.8741C7.60917 16.9956 7.87588 17.1736 8.10055 17.3982C8.32522 17.6227 8.50345 17.8894 8.62504 18.1828C8.74664 18.4763 8.80923 18.7908 8.80923 19.1084Z" stroke="#6E2DFA" stroke-width="1.14286" stroke-linecap="round" stroke-linejoin="round"/>
<path d="M15.3282 15.9995L21.6665 20.2233" stroke="#01D9B1" stroke-width="2" stroke-linecap="round" stroke-linejoin="round"/>
<path d="M9.69012 29.3165L22.5383 23.3193" stroke="#01D9B1" stroke-width="2" stroke-linecap="round" stroke-linejoin="round"/>
</svg>
