<svg width="31" height="32" viewBox="0 0 31 32" fill="none" xmlns="http://www.w3.org/2000/svg">
<g clip-path="url(#clip0_599_2566)">
<path d="M15.5065 22.7812H8.72525C8.46832 22.7812 8.22192 22.8833 8.04024 23.065C7.85856 23.2467 7.7565 23.4931 7.7565 23.75V29.5625C7.7565 29.8194 7.85856 30.0658 8.04024 30.2475C8.22192 30.4292 8.46832 30.5312 8.72525 30.5312H15.5065V22.7812Z" stroke="#01D9B1" stroke-width="2" stroke-linecap="round" stroke-linejoin="round"/>
<path d="M22.2877 22.7812H15.5065V30.5312H22.2877C22.5447 30.5312 22.7911 30.4292 22.9728 30.2475C23.1544 30.0658 23.2565 29.8194 23.2565 29.5625V23.75C23.2565 23.4931 23.1544 23.2467 22.9728 23.065C22.7911 22.8833 22.5447 22.7812 22.2877 22.7812Z" stroke="#01D9B1" stroke-width="2" stroke-linecap="round" stroke-linejoin="round"/>
<path d="M18.4127 15.0312H12.6003C12.3433 15.0312 12.0969 15.1333 11.9152 15.315C11.7336 15.4967 11.6315 15.7431 11.6315 16V22.7812H19.3815V16C19.3815 15.7431 19.2794 15.4967 19.0978 15.315C18.9161 15.1333 18.6697 15.0312 18.4127 15.0312Z" stroke="#01D9B1" stroke-width="2" stroke-linecap="round" stroke-linejoin="round"/>
<path d="M0.97525 9.21875H30.0377V29.2396C30.0377 29.5822 29.9017 29.9107 29.6594 30.1529C29.4172 30.3952 29.0887 30.5312 28.7461 30.5312H2.26692C1.92435 30.5312 1.59581 30.3952 1.35357 30.1529C1.11134 29.9107 0.97525 29.5822 0.97525 29.2396V9.21875V9.21875Z" stroke="#6E2DFA" stroke-width="2" stroke-linecap="round" stroke-linejoin="round"/>
<path d="M0.97525 9.21875C0.97525 4.93817 7.48138 1.46875 15.5065 1.46875C23.5316 1.46875 30.0377 4.93817 30.0377 9.21875" stroke="#6E2DFA" stroke-width="2" stroke-linecap="round" stroke-linejoin="round"/>
</g>
<defs>
<clipPath id="clip0_599_2566">
<rect width="31" height="31" fill="white" transform="translate(0 0.5)"/>
</clipPath>
</defs>
</svg>
