<svg width="31" height="32" viewBox="0 0 31 32" fill="none" xmlns="http://www.w3.org/2000/svg">
<g clip-path="url(#clip0_599_2063)">
<path d="M5.16663 5.98926H25.8333" stroke="#01D9B1" stroke-width="2" stroke-linecap="round" stroke-linejoin="round"/>
<path d="M5.16663 10.5107H25.8333" stroke="#6E2DFA" stroke-width="2" stroke-linecap="round" stroke-linejoin="round"/>
<path d="M6.45835 1.46875H24.5417C24.8843 1.46875 25.2128 1.60484 25.455 1.84707C25.6973 2.0893 25.8334 2.41785 25.8334 2.76042V26.0104H5.16669V2.76042C5.16669 2.41785 5.30277 2.0893 5.54501 1.84707C5.78724 1.60484 6.11578 1.46875 6.45835 1.46875Z" stroke="#6E2DFA" stroke-width="2" stroke-linecap="round" stroke-linejoin="round"/>
<path d="M15.5 20.1982H10.6562C10.4004 20.2016 10.1559 20.3047 9.97494 20.4857C9.79398 20.6666 9.69085 20.9111 9.6875 21.167V25.042C9.69085 25.2979 9.79398 25.5423 9.97494 25.7233C10.1559 25.9043 10.4004 26.0074 10.6562 26.0107H15.5V20.1982Z" stroke="#01D9B1" stroke-width="2" stroke-linecap="round" stroke-linejoin="round"/>
<path d="M17.4375 14.3857H13.5625C13.0275 14.3857 12.5938 14.8195 12.5938 15.3545V19.2295C12.5938 19.7645 13.0275 20.1982 13.5625 20.1982H17.4375C17.9725 20.1982 18.4062 19.7645 18.4062 19.2295V15.3545C18.4062 14.8195 17.9725 14.3857 17.4375 14.3857Z" stroke="#01D9B1" stroke-width="2" stroke-linecap="round" stroke-linejoin="round"/>
<path d="M15.5 20.1982H20.3437C20.5996 20.2016 20.8441 20.3047 21.0251 20.4857C21.206 20.6666 21.3092 20.9111 21.3125 21.167V25.042C21.3092 25.2979 21.206 25.5423 21.0251 25.7233C20.8441 25.9043 20.5996 26.0074 20.3437 26.0107H15.5V20.1982Z" stroke="#01D9B1" stroke-width="2" stroke-linecap="round" stroke-linejoin="round"/>
<path d="M2.58331 26.0107H28.4166" stroke="#6E2DFA" stroke-width="2" stroke-linecap="round" stroke-linejoin="round"/>
<path d="M5.16667 13.0937H1.9375C1.68161 13.0904 1.43715 12.9873 1.25619 12.8063C1.07523 12.6254 0.972095 12.3809 0.96875 12.125V9.21875C0.972095 8.96286 1.07523 8.7184 1.25619 8.53744C1.43715 8.35648 1.68161 8.25335 1.9375 8.25H5.16667" stroke="#6E2DFA" stroke-width="2" stroke-linecap="round" stroke-linejoin="round"/>
<path d="M25.8333 13.0937H29.0625C29.3184 13.0904 29.5628 12.9873 29.7438 12.8063C29.9247 12.6254 30.0279 12.3809 30.0312 12.125V9.21875C30.0279 8.96286 29.9247 8.7184 29.7438 8.53744C29.5628 8.35648 29.3184 8.25335 29.0625 8.25H25.8333" stroke="#6E2DFA" stroke-width="2" stroke-linecap="round" stroke-linejoin="round"/>
<path d="M20.6667 26.0107V27.9482C20.6667 28.6334 20.9389 29.2905 21.4233 29.7749C21.9078 30.2594 22.5649 30.5316 23.25 30.5316C23.9352 30.5316 24.5922 30.2594 25.0767 29.7749C25.5612 29.2905 25.8334 28.6334 25.8334 27.9482V26.0107" stroke="#6E2DFA" stroke-width="2" stroke-linecap="round" stroke-linejoin="round"/>
<path d="M5.16669 26.0107V27.9482C5.16669 28.6334 5.43886 29.2905 5.92333 29.7749C6.4078 30.2594 7.06488 30.5316 7.75002 30.5316C8.43516 30.5316 9.09224 30.2594 9.57671 29.7749C10.0612 29.2905 10.3334 28.6334 10.3334 27.9482V26.0107" stroke="#6E2DFA" stroke-width="2" stroke-linecap="round" stroke-linejoin="round"/>
</g>
<defs>
<clipPath id="clip0_599_2063">
<rect width="31" height="31" fill="white" transform="translate(0 0.5)"/>
</clipPath>
</defs>
</svg>
