<svg width="31" height="32" viewBox="0 0 31 32" fill="none" xmlns="http://www.w3.org/2000/svg">
<g clip-path="url(#clip0_599_1508)">
<path d="M17.4375 14.1232C19.116 14.2925 20.8059 13.9393 22.2761 13.1118C22.358 13.0656 22.4287 13.0021 22.4835 12.9256C22.5383 12.8492 22.5757 12.7618 22.5932 12.6694C22.6106 12.577 22.6077 12.4819 22.5846 12.3908C22.5615 12.2997 22.5188 12.2147 22.4595 12.1418C21.9002 11.4856 21.5127 10.6202 21.3422 8.09497C21.0154 3.29514 17.7785 1.60693 14.9975 1.60693C12.2166 1.60693 8.97838 3.29514 8.65417 8.09497C8.48367 10.6202 8.09617 11.4856 7.53688 12.1418C7.47754 12.2147 7.43483 12.2997 7.41174 12.3908C7.38866 12.4819 7.38575 12.577 7.40321 12.6694C7.42068 12.7618 7.4581 12.8492 7.51287 12.9256C7.56764 13.0021 7.63843 13.0656 7.72029 13.1118C9.19059 13.939 10.8804 14.2922 12.5589 14.1232" stroke="#6E2DFA" stroke-width="2" stroke-linecap="round" stroke-linejoin="round"/>
<path d="M21.8977 16.9243C20.7959 16.4696 19.4926 15.9995 18.0834 15.4828C17.8951 15.4143 17.7324 15.2898 17.6169 15.1261C17.5015 14.9624 17.4389 14.7673 17.4375 14.567V12.7806C17.4376 12.6446 17.4662 12.5101 17.5213 12.3857C17.5765 12.2614 17.6571 12.15 17.7579 12.0586C18.1214 11.7267 18.4111 11.3221 18.6083 10.8711C18.8054 10.4201 18.9056 9.93263 18.9023 9.4404V8.01956C18.9023 7.74591 18.8145 7.47947 18.6517 7.25949C18.4889 7.03951 18.2598 6.87761 17.9981 6.79765C17.0342 6.49943 16.1556 5.97507 15.4354 5.26831C15.317 5.15622 15.16 5.09375 14.9969 5.09375C14.8338 5.09375 14.6769 5.15622 14.5584 5.26831C13.8372 5.97402 12.9576 6.49705 11.9932 6.79377C11.7314 6.87374 11.5023 7.03563 11.3396 7.25561C11.1768 7.4756 11.0889 7.74203 11.089 8.01569V9.43652C11.0858 9.92873 11.1861 10.4161 11.3832 10.8671C11.5804 11.3181 11.87 11.7227 12.2334 12.0547C12.3342 12.1461 12.4148 12.2575 12.47 12.3819C12.5251 12.5062 12.5537 12.6407 12.5537 12.7768V14.5593C12.5524 14.7596 12.4898 14.9547 12.3743 15.1184C12.2589 15.2821 12.0961 15.4065 11.9079 15.4751C10.4871 15.9995 9.18895 16.4658 8.08716 16.9204" stroke="#01D9B1" stroke-width="2" stroke-linecap="round" stroke-linejoin="round"/>
<path d="M4.52081 30.853L1.9194 27.6019C1.09469 26.571 0.645524 25.29 0.645813 23.9697V17.2905C0.645813 16.7767 0.849942 16.2839 1.21329 15.9205C1.57665 15.5572 2.06946 15.353 2.58331 15.353V15.353C3.09717 15.353 3.58998 15.5572 3.95333 15.9205C4.31668 16.2839 4.52081 16.7767 4.52081 17.2905V22.2957" stroke="#6E2DFA" stroke-width="2" stroke-linecap="round" stroke-linejoin="round"/>
<path d="M10.9792 30.6771V26.8021C10.9802 25.6526 10.6399 24.5287 10.0014 23.5729C7.56269 21.0361 6.8019 19.8051 5.32682 20.7894C4.95999 21.0338 4.69507 21.4038 4.58185 21.8298C4.46863 22.2558 4.51491 22.7085 4.71198 23.1028L6.45832 26.009" stroke="#6E2DFA" stroke-width="2" stroke-linecap="round" stroke-linejoin="round"/>
<path d="M26.4791 30.853L29.0805 27.6019C29.9052 26.571 30.3544 25.29 30.3541 23.9697V17.2905C30.3541 16.7767 30.15 16.2839 29.7866 15.9205C29.4233 15.5572 28.9305 15.353 28.4166 15.353C27.9028 15.353 27.41 15.5572 27.0466 15.9205C26.6833 16.2839 26.4791 16.7767 26.4791 17.2905V22.2957" stroke="#6E2DFA" stroke-width="2" stroke-linecap="round" stroke-linejoin="round"/>
<path d="M20.0208 30.678V26.803C20.0198 25.6536 20.3601 24.5297 20.9986 23.5739C23.4373 21.0319 24.1981 19.8035 25.6731 20.7877C26.04 21.0321 26.3049 21.4021 26.4181 21.8281C26.5313 22.2541 26.4851 22.7068 26.288 23.1011L24.5416 26.0099" stroke="#6E2DFA" stroke-width="2" stroke-linecap="round" stroke-linejoin="round"/>
</g>
<defs>
<clipPath id="clip0_599_1508">
<rect width="31" height="31" fill="white" transform="translate(0 0.5)"/>
</clipPath>
</defs>
</svg>
