<svg width="32" height="31" viewBox="0 0 32 31" fill="none" xmlns="http://www.w3.org/2000/svg">
<g clip-path="url(#clip0_599_1012)">
<path d="M5.34375 0.964844H3.40625C2.3362 0.964844 1.46875 1.83229 1.46875 2.90234V4.83984C1.46875 5.9099 2.3362 6.77734 3.40625 6.77734H5.34375C6.4138 6.77734 7.28125 5.9099 7.28125 4.83984V2.90234C7.28125 1.83229 6.4138 0.964844 5.34375 0.964844Z" stroke="#6E2DFA" stroke-width="2" stroke-linecap="round" stroke-linejoin="round"/>
<path d="M16.9688 0.964844H15.0312C13.9612 0.964844 13.0938 1.83229 13.0938 2.90234V4.83984C13.0938 5.9099 13.9612 6.77734 15.0312 6.77734H16.9688C18.0388 6.77734 18.9062 5.9099 18.9062 4.83984V2.90234C18.9062 1.83229 18.0388 0.964844 16.9688 0.964844Z" stroke="#6E2DFA" stroke-width="2" stroke-linecap="round" stroke-linejoin="round"/>
<path d="M28.5938 0.964844H26.6562C25.5862 0.964844 24.7188 1.83229 24.7188 2.90234V4.83984C24.7188 5.9099 25.5862 6.77734 26.6562 6.77734H28.5938C29.6638 6.77734 30.5312 5.9099 30.5312 4.83984V2.90234C30.5312 1.83229 29.6638 0.964844 28.5938 0.964844Z" stroke="#6E2DFA" stroke-width="2" stroke-linecap="round" stroke-linejoin="round"/>
<path d="M5.34375 12.5898H3.40625C2.3362 12.5898 1.46875 13.4573 1.46875 14.5273V16.4648C1.46875 17.5349 2.3362 18.4023 3.40625 18.4023H5.34375C6.4138 18.4023 7.28125 17.5349 7.28125 16.4648V14.5273C7.28125 13.4573 6.4138 12.5898 5.34375 12.5898Z" stroke="#6E2DFA" stroke-width="2" stroke-linecap="round" stroke-linejoin="round"/>
<path d="M16.9688 12.5898H15.0312C13.9612 12.5898 13.0938 13.4573 13.0938 14.5273V16.4648C13.0938 17.5349 13.9612 18.4023 15.0312 18.4023H16.9688C18.0388 18.4023 18.9062 17.5349 18.9062 16.4648V14.5273C18.9062 13.4573 18.0388 12.5898 16.9688 12.5898Z" stroke="#01D9B1" stroke-width="2" stroke-linecap="round" stroke-linejoin="round"/>
<path d="M28.5938 12.5898H26.6562C25.5862 12.5898 24.7188 13.4573 24.7188 14.5273V16.4648C24.7188 17.5349 25.5862 18.4023 26.6562 18.4023H28.5938C29.6638 18.4023 30.5312 17.5349 30.5312 16.4648V14.5273C30.5312 13.4573 29.6638 12.5898 28.5938 12.5898Z" stroke="#6E2DFA" stroke-width="2" stroke-linecap="round" stroke-linejoin="round"/>
<path d="M5.34375 24.2148H3.40625C2.3362 24.2148 1.46875 25.0823 1.46875 26.1523V28.0898C1.46875 29.1599 2.3362 30.0273 3.40625 30.0273H5.34375C6.4138 30.0273 7.28125 29.1599 7.28125 28.0898V26.1523C7.28125 25.0823 6.4138 24.2148 5.34375 24.2148Z" stroke="#6E2DFA" stroke-width="2" stroke-linecap="round" stroke-linejoin="round"/>
<path d="M16.9688 24.2148H15.0312C13.9612 24.2148 13.0938 25.0823 13.0938 26.1523V28.0898C13.0938 29.1599 13.9612 30.0273 15.0312 30.0273H16.9688C18.0388 30.0273 18.9062 29.1599 18.9062 28.0898V26.1523C18.9062 25.0823 18.0388 24.2148 16.9688 24.2148Z" stroke="#6E2DFA" stroke-width="2" stroke-linecap="round" stroke-linejoin="round"/>
<path d="M28.5938 24.2148H26.6562C25.5862 24.2148 24.7188 25.0823 24.7188 26.1523V28.0898C24.7188 29.1599 25.5862 30.0273 26.6562 30.0273H28.5938C29.6638 30.0273 30.5312 29.1599 30.5312 28.0898V26.1523C30.5312 25.0823 29.6638 24.2148 28.5938 24.2148Z" stroke="#6E2DFA" stroke-width="2" stroke-linecap="round" stroke-linejoin="round"/>
</g>
<defs>
<clipPath id="clip0_599_1012">
<rect width="31" height="31" fill="white" transform="translate(0.5)"/>
</clipPath>
</defs>
</svg>
