<svg width="32" height="31" viewBox="0 0 32 31" fill="none" xmlns="http://www.w3.org/2000/svg">
<g clip-path="url(#clip0_599_1170)">
<path d="M24.7995 16.9546L26.6815 20.3427H29.8861C30.0613 20.3396 30.2334 20.3891 30.3802 20.4848C30.5271 20.5804 30.6419 20.7179 30.7098 20.8794C30.7778 21.0409 30.7958 21.2191 30.7616 21.3909C30.7273 21.5628 30.6424 21.7204 30.5177 21.8436L27.5753 25.0585L29.2054 28.8044C29.2771 28.9759 29.2931 29.1655 29.2513 29.3466C29.2094 29.5277 29.1117 29.6911 28.972 29.8137C28.8322 29.9363 28.6576 30.0119 28.4726 30.0299C28.2876 30.0479 28.1016 30.0073 27.9409 29.9139L24 27.6935L20.0604 29.91C19.8996 30.003 19.7137 30.0433 19.5288 30.0252C19.344 30.0071 19.1694 29.9315 19.0297 29.809C18.8901 29.6866 18.7923 29.5235 18.7501 29.3426C18.7079 29.1617 18.7235 28.9721 18.7946 28.8005L20.4259 25.0547L17.4835 21.8423C17.3589 21.7191 17.2739 21.5615 17.2397 21.3896C17.2054 21.2178 17.2235 21.0396 17.2914 20.8781C17.3594 20.7166 17.4742 20.5791 17.621 20.4835C17.7678 20.3878 17.9399 20.3383 18.1152 20.3414H21.3198L23.2004 16.9533C23.2755 16.8057 23.3899 16.6817 23.5311 16.5951C23.6723 16.5085 23.8348 16.4628 24.0004 16.4629C24.166 16.463 24.3284 16.509 24.4694 16.5958C24.6105 16.6826 24.7248 16.8068 24.7995 16.9546V16.9546Z" stroke="#6E2DFA" stroke-width="2" stroke-linecap="round" stroke-linejoin="round"/>
<path d="M9.29954 16.954L11.1802 20.342H14.3848C14.5599 20.3393 14.7317 20.389 14.8783 20.4847C15.0249 20.5804 15.1396 20.7177 15.2076 20.879C15.2756 21.0403 15.2939 21.2182 15.2601 21.39C15.2262 21.5617 15.1419 21.7195 15.0177 21.8429L12.074 25.0579L13.7054 28.8037C13.7765 28.9753 13.7921 29.1649 13.7499 29.3458C13.7077 29.5267 13.6099 29.6898 13.4702 29.8123C13.3305 29.9347 13.156 30.0103 12.9711 30.0284C12.7863 30.0465 12.6004 30.0063 12.4396 29.9133L8.5 27.6929L4.55912 29.9094C4.39874 30.002 4.21341 30.0421 4.02909 30.0241C3.84477 30.0061 3.67071 29.9309 3.53129 29.809C3.39187 29.6871 3.29409 29.5246 3.25164 29.3443C3.20919 29.1641 3.22421 28.975 3.29458 28.8037L4.92466 25.0579L1.98225 21.8429C1.85757 21.7198 1.77264 21.5621 1.7384 21.3903C1.70416 21.2184 1.72219 21.0402 1.79016 20.8787C1.85813 20.7172 1.97292 20.5798 2.11974 20.4841C2.26656 20.3884 2.43867 20.3389 2.61387 20.342H5.8185L7.70046 16.954C7.77535 16.8062 7.88971 16.6821 8.03084 16.5955C8.17198 16.5088 8.33437 16.4629 8.5 16.4629C8.66563 16.4629 8.82802 16.5088 8.96915 16.5955C9.11029 16.6821 9.22465 16.8062 9.29954 16.954V16.954Z" stroke="#6E2DFA" stroke-width="2" stroke-linecap="round" stroke-linejoin="round"/>
<path d="M17.0496 1.46051L18.9289 4.84468H22.1323C22.3075 4.84162 22.4796 4.89111 22.6264 4.98677C22.7732 5.08244 22.888 5.21989 22.956 5.3814C23.024 5.54292 23.042 5.72109 23.0078 5.89295C22.9735 6.0648 22.8886 6.22246 22.7639 6.3456L19.8228 9.55797L21.4529 13.3038C21.5246 13.4753 21.5406 13.665 21.4987 13.8461C21.4568 14.0272 21.3591 14.1905 21.2194 14.3131C21.0797 14.4357 20.905 14.5113 20.72 14.5293C20.535 14.5473 20.349 14.5067 20.1883 14.4133L16.25 12.1943L12.3117 14.4095C12.151 14.5029 11.965 14.5434 11.78 14.5254C11.595 14.5075 11.4204 14.4318 11.2806 14.3092C11.1409 14.1867 11.0432 14.0233 11.0013 13.8422C10.9595 13.6611 10.9755 13.4714 11.0472 13.2999L12.6773 9.55797L9.73615 6.3456C9.61148 6.22246 9.52654 6.0648 9.49231 5.89295C9.45807 5.72109 9.4761 5.54292 9.54407 5.3814C9.61204 5.21989 9.72683 5.08244 9.87365 4.98677C10.0205 4.89111 10.1926 4.84162 10.3678 4.84468H13.5698L15.4518 1.46051C15.5268 1.31312 15.6411 1.18935 15.7821 1.1029C15.9231 1.01646 16.0853 0.970703 16.2507 0.970703C16.4161 0.970703 16.5782 1.01646 16.7192 1.1029C16.8602 1.18935 16.9746 1.31312 17.0496 1.46051V1.46051Z" stroke="#01D9B1" stroke-width="2" stroke-linecap="round" stroke-linejoin="round"/>
</g>
<defs>
<clipPath id="clip0_599_1170">
<rect width="31" height="31" fill="white" transform="translate(0.75)"/>
</clipPath>
</defs>
</svg>
