<svg width="32" height="32" viewBox="0 0 32 32" fill="none" xmlns="http://www.w3.org/2000/svg">
<path d="M15.6667 14.3333V7.66667L8.33333 1L1 7.66667V19C1 19.3536 1.14048 19.6928 1.39052 19.9428C1.64057 20.1929 1.97971 20.3333 2.33333 20.3333H8.33333" stroke="#FF9644" stroke-width="2" stroke-linecap="round" stroke-linejoin="round"/>
<path d="M31 12.3333V7.66667L23.6667 1H8.33334" stroke="#FF9644" stroke-width="2" stroke-linecap="round" stroke-linejoin="round"/>
<path d="M23.6667 10.3333V7.66667L16.3333 1" stroke="#FF9644" stroke-width="2" stroke-linecap="round" stroke-linejoin="round"/>
<path d="M10.3333 15.6667V13H5V20.3333" stroke="#FF9644" stroke-width="2" stroke-linecap="round" stroke-linejoin="round"/>
<path d="M31 7.6665H15.6667" stroke="#FF9644" stroke-width="2" stroke-linecap="round" stroke-linejoin="round"/>
<path d="M22.028 26.3065C20.5693 28.0318 15.3333 29.3038 14.584 28.0664C15.0597 26.5277 15.9678 25.1582 17.2 24.1211C13.0987 21.9345 12.7787 19.9878 12.7373 19.2251C13.8132 18.8685 14.9556 18.7587 16.0796 18.9039C17.2037 19.0491 18.2807 19.4455 19.2307 20.0638C19.1648 18.7859 19.3872 17.5096 19.8813 16.3293C20.3755 15.149 21.1287 14.0949 22.0853 13.2451C23.0417 14.0951 23.7947 15.1492 24.2886 16.3295C24.7825 17.5098 25.0047 18.786 24.9387 20.0638C25.799 19.4308 26.8037 19.0227 27.8617 18.8762C28.9196 18.7298 29.9974 18.8497 30.9973 19.2251C30.956 19.9945 30.636 21.9345 26.5333 24.1211C27.7665 25.1579 28.6755 26.5274 29.152 28.0664C28.404 29.3038 23.4853 28.0318 22.0253 26.3065" stroke="#FF9644" stroke-width="2" stroke-linecap="round" stroke-linejoin="round"/>
<path d="M22.028 26.3066V31" stroke="#FF9644" stroke-width="2" stroke-linecap="round" stroke-linejoin="round"/>
</svg>
