<svg width="33" height="32" viewBox="0 0 33 32" fill="none" xmlns="http://www.w3.org/2000/svg">
<g clip-path="url(#clip0_706_3475)">
<path d="M19.0134 11.9678C18.0465 11.931 17.1336 11.5122 16.475 10.8034C15.8164 10.0945 15.4658 9.15343 15.5 8.18644C15.5343 9.15343 15.1836 10.0945 14.525 10.8034C13.8664 11.5122 12.9536 11.931 11.9867 11.9678C11.0196 11.9313 10.1064 11.5127 9.44749 10.8038C8.7886 10.0949 8.43779 9.15365 8.47202 8.18644C8.50626 9.15343 8.15563 10.0945 7.49702 10.8034C6.83841 11.5122 5.92558 11.931 4.95869 11.9678C4.21412 11.9518 3.49355 11.7014 2.89944 11.2524C2.30532 10.8033 1.86789 10.1784 1.64935 9.46644C1.44246 8.84573 1.44903 8.17366 1.66802 7.55711L3.68669 1.85311C3.76965 1.59898 3.92987 1.37709 4.14499 1.21838C4.3601 1.05967 4.61939 0.972061 4.88669 0.967773H26.12C26.3862 0.973239 26.6441 1.06141 26.8579 1.22005C27.0718 1.37868 27.2309 1.59993 27.3134 1.85311L29.332 7.55711C29.551 8.17366 29.5576 8.84573 29.3507 9.46644C29.2 9.93094 28.9589 10.361 28.6413 10.732C28.3236 11.1029 27.9358 11.4074 27.5 11.6278" stroke="#FF9644" stroke-width="2" stroke-linecap="round" stroke-linejoin="round"/>
<path d="M27.5 13.6346V11.6279" stroke="#FF9644" stroke-width="2" stroke-linecap="round" stroke-linejoin="round"/>
<path d="M3.5 11.6279V25.9679C3.5 26.4984 3.71071 27.0071 4.08579 27.3821C4.46086 27.7572 4.96957 27.9679 5.5 27.9679H11.5" stroke="#FF9644" stroke-width="2" stroke-linecap="round" stroke-linejoin="round"/>
<path d="M22.528 26.3385C21.0693 28.0639 15.8333 29.3332 15.084 28.0985C15.5597 26.5598 16.4678 25.1903 17.7 24.1532C13.5986 21.9665 13.2786 20.0265 13.2373 19.2572C14.3131 18.9002 15.4555 18.7902 16.5797 18.9354C17.7039 19.0806 18.7808 19.4773 19.7306 20.0959C19.6646 18.8178 19.8869 17.5412 20.381 16.3607C20.8752 15.1801 21.6285 14.1258 22.5853 13.2759C23.5419 14.126 24.295 15.1803 24.7889 16.3608C25.2828 17.5414 25.5048 18.8179 25.4386 20.0959C26.2988 19.4626 27.3035 19.0542 28.3616 18.9078C29.4196 18.7613 30.4975 18.8814 31.4973 19.2572C31.456 20.0265 31.136 21.9665 27.0333 24.1532C28.2665 25.19 29.1755 26.5595 29.652 28.0985C28.904 29.3359 23.9853 28.0639 22.5253 26.3385" stroke="#FF9644" stroke-width="2" stroke-linecap="round" stroke-linejoin="round"/>
<path d="M22.528 26.3389V31.0322" stroke="#FF9644" stroke-width="2" stroke-linecap="round" stroke-linejoin="round"/>
</g>
<defs>
<clipPath id="clip0_706_3475">
<rect width="32" height="32" fill="white" transform="translate(0.5)"/>
</clipPath>
</defs>
</svg>
