<svg width="17" height="16" viewBox="0 0 17 16" fill="none" xmlns="http://www.w3.org/2000/svg">
<g clip-path="url(#clip0_706_7772)">
<path d="M8.28759 5.3664C8.36393 5.44064 8.45452 5.49949 8.5542 5.53957C8.65388 5.57965 8.76068 5.60019 8.8685 5.6C8.97609 5.60025 9.08264 5.57959 9.18193 5.5392C9.33198 5.47873 9.46025 5.37621 9.55051 5.24463C9.64078 5.11304 9.68897 4.9583 9.689 4.8V0.800001C9.689 0.587828 9.60255 0.384345 9.44868 0.234316C9.29481 0.0842868 9.08611 1.28104e-06 8.8685 1.28104e-06H4.76602C4.60353 -0.000282183 4.44461 0.0464833 4.30941 0.134369C4.17421 0.222255 4.06882 0.347303 4.0066 0.49366C3.94437 0.640017 3.92812 0.801093 3.9599 0.956466C3.99169 1.11184 4.07007 1.25451 4.18511 1.3664L5.51267 2.6592L0.348471 7.6928C0.156105 7.88036 0.0480347 8.13475 0.0480347 8.4C0.0480347 8.66525 0.156105 8.91964 0.348471 9.1072C0.540838 9.29476 0.801743 9.40013 1.07379 9.40013C1.34584 9.40013 1.60674 9.29476 1.79911 9.1072L6.96167 4.072L8.28759 5.3664Z" fill="#736B8E"/>
<path d="M15.7475 6.8928C15.6523 6.79991 15.5392 6.72623 15.4148 6.67596C15.2903 6.62569 15.1569 6.59981 15.0222 6.59981C14.8875 6.59981 14.7541 6.62569 14.6297 6.67596C14.5052 6.72623 14.3921 6.79991 14.2969 6.8928L9.13434 11.928L7.80842 10.6336C7.69367 10.5214 7.54734 10.445 7.38798 10.414C7.22863 10.383 7.06343 10.3989 6.91332 10.4595C6.76321 10.5202 6.63496 10.623 6.54482 10.7548C6.45469 10.8866 6.40672 11.0416 6.40701 11.2V15.2C6.40701 15.4122 6.49346 15.6157 6.64733 15.7657C6.80121 15.9157 7.0099 16 7.22751 16H11.33C11.4925 16.0003 11.6514 15.9535 11.7866 15.8656C11.9218 15.7777 12.0272 15.6527 12.0894 15.5063C12.1516 15.36 12.1679 15.1989 12.1361 15.0435C12.1043 14.8882 12.0259 14.7455 11.9109 14.6336L10.5833 13.3408L15.7475 8.3072C15.8428 8.21434 15.9184 8.10409 15.9699 7.98275C16.0215 7.8614 16.048 7.73134 16.048 7.6C16.048 7.46866 16.0215 7.3386 15.9699 7.21726C15.9184 7.09591 15.8428 6.98566 15.7475 6.8928Z" fill="#736B8E"/>
</g>
<defs>
<clipPath id="clip0_706_7772">
<rect width="16" height="16" fill="white" transform="translate(0.0480347)"/>
</clipPath>
</defs>
</svg>
