<svg width="163" height="48" viewBox="0 0 163 48" fill="none" xmlns="http://www.w3.org/2000/svg">
<rect x="0.341309" width="162" height="48" rx="5" fill="black"/>
<path fill-rule="evenodd" clip-rule="evenodd" d="M6.34131 0H156.341C159.655 0 162.341 2.68629 162.341 6V42C162.341 45.3137 159.655 48 156.341 48H6.34131C3.0276 48 0.341309 45.3137 0.341309 42V6C0.341309 2.68629 3.0276 0 6.34131 0ZM161.381 5.99978C161.381 3.21626 159.125 0.959778 156.341 0.959778H6.34127C3.55775 0.959778 1.30127 3.21626 1.30127 5.99978V41.9998C1.30127 44.7833 3.55775 47.0398 6.34127 47.0398H156.341C159.125 47.0398 161.381 44.7833 161.381 41.9998V5.99978Z" fill="#A6A6A6"/>
<path fill-rule="evenodd" clip-rule="evenodd" d="M57.6296 27.6726V29.8326H62.8136C62.7323 30.8499 62.3094 31.8099 61.6136 32.5566C60.5648 33.6248 59.1135 34.2001 57.6176 34.1406C54.4365 34.1406 51.8576 31.5617 51.8576 28.3806C51.8576 25.1994 54.4365 22.6206 57.6176 22.6206C59.079 22.5967 60.4901 23.1534 61.5416 24.1686L63.0656 22.6446C61.6315 21.1924 59.6705 20.3829 57.6296 20.4006C54.7244 20.2875 51.9901 21.773 50.5038 24.2718C49.0176 26.7707 49.0176 29.8824 50.5038 32.3813C51.9901 34.8801 54.7244 36.3656 57.6296 36.2526C59.7077 36.3465 61.7249 35.537 63.1616 34.0326C64.4188 32.6513 65.0901 30.8355 65.0336 28.9686C65.0375 28.5137 64.9973 28.0596 64.9136 27.6126L57.6296 27.6726ZM70.9371 26.1005C68.122 26.1072 65.8447 28.3934 65.8491 31.2085C65.8535 34.0236 68.138 36.3027 70.9531 36.3005C73.7682 36.2983 76.0491 34.0156 76.0491 31.2005C76.0689 29.8378 75.5346 28.5254 74.5686 27.5639C73.6027 26.6025 72.2878 26.0744 70.9251 26.1005H70.9371ZM77.0337 31.2165C77.0249 28.403 79.2962 26.1138 82.1097 26.1005C83.4723 26.0744 84.7872 26.6025 85.7532 27.5639C86.7192 28.5254 87.2535 29.8378 87.2337 31.2005C87.2337 34.0141 84.9552 36.2961 82.1417 36.3005C79.3281 36.3049 77.0425 34.03 77.0337 31.2165ZM79.0998 32.543C79.6478 33.6901 80.8413 34.3856 82.1094 34.2969C82.9054 34.2784 83.6601 33.9392 84.2024 33.3563C84.7447 32.7733 85.0285 31.9961 84.9894 31.2009C84.9863 29.9297 84.2065 28.7895 83.0228 28.3258C81.8392 27.862 80.4924 28.1689 79.6266 29.0997C78.7607 30.0305 78.5519 31.396 79.0998 32.543ZM67.9193 32.5522C68.4711 33.6985 69.6681 34.3906 70.9368 34.2969H70.9248C71.7208 34.2784 72.4755 33.9392 73.0178 33.3563C73.5601 32.7734 73.8439 31.9961 73.8048 31.2009C73.8014 29.9287 73.02 28.788 71.8349 28.3253C70.6498 27.8626 69.3022 28.172 68.4376 29.1053C67.573 30.0386 67.3674 31.4059 67.9193 32.5522ZM107.634 26.1005C109.623 26.1738 111.361 27.4675 112.002 29.3525L112.254 29.8925L105.426 32.7125C105.853 33.6871 106.834 34.301 107.898 34.2605C108.925 34.2631 109.877 33.7252 110.406 32.8445L112.146 34.0445C111.198 35.4622 109.603 36.3097 107.898 36.3005C106.542 36.3204 105.237 35.7882 104.282 34.8264C103.327 33.8645 102.804 32.5557 102.834 31.2005C102.751 29.8763 103.219 28.5769 104.129 27.6107C105.038 26.6446 106.307 26.0979 107.634 26.1005ZM105.042 31.0565C104.992 30.3067 105.247 29.5687 105.748 29.0088C106.25 28.4489 106.955 28.1143 107.706 28.0805C108.497 28.0283 109.243 28.4533 109.602 29.1605L105.042 31.0565ZM101.741 36H99.4971V21H101.741V36ZM95.8249 27.241H95.7409C95.0568 26.4762 94.0789 26.0397 93.0529 26.041C90.329 26.1731 88.1885 28.42 88.1885 31.147C88.1885 33.874 90.329 36.1209 93.0529 36.253C94.0823 36.2703 95.0665 35.8309 95.7409 35.053H95.8129V35.785C95.8129 37.741 94.7689 38.785 93.0889 38.785C91.9444 38.7582 90.9297 38.0423 90.5209 36.973L88.5649 37.789C89.3181 39.6212 91.1079 40.8128 93.0889 40.801C95.7169 40.801 97.8889 39.253 97.8889 35.485V26.401H95.8249V27.241ZM93.2538 34.2962L93.2575 34.2965H93.2455L93.2538 34.2962ZM95.2759 33.3338C94.7609 33.9166 94.0306 34.264 93.2538 34.2962C91.6511 34.153 90.4224 32.81 90.4224 31.2005C90.4224 29.5897 91.653 28.2459 93.2575 28.1045C94.0329 28.1443 94.7593 28.4954 95.2721 29.0783C95.785 29.6612 96.0408 30.4264 95.9815 31.2005C96.0477 31.9782 95.7927 32.749 95.2759 33.3338ZM122.513 21.0003H117.149V36.0003H119.393V30.3123H122.525C124.268 30.4376 125.935 29.5785 126.845 28.0863C127.755 26.594 127.755 24.7186 126.845 23.2264C125.935 21.7341 124.268 20.8751 122.525 21.0003H122.513ZM119.381 28.2009H122.513L122.561 28.2369C123.983 28.2369 125.135 27.0844 125.135 25.6629C125.135 24.2413 123.983 23.0889 122.561 23.0889H119.381V28.2009ZM136.349 26.0407C134.68 25.9409 133.11 26.8412 132.353 28.3327L134.345 29.1607C134.747 28.4211 135.547 27.9881 136.385 28.0567C136.961 27.9895 137.539 28.1563 137.991 28.5196C138.442 28.8829 138.728 29.4122 138.785 29.9887V30.1447C138.065 29.7631 137.261 29.5653 136.445 29.5687C134.297 29.5687 132.125 30.7687 132.125 32.9407C132.168 33.8764 132.588 34.7549 133.288 35.3765C133.989 35.998 134.911 36.3098 135.845 36.2407C136.997 36.3234 138.101 35.7712 138.725 34.8007H138.797V36.0007H140.957V30.2287C140.957 27.6007 138.965 26.0767 136.409 26.0767L136.349 26.0407ZM134.322 32.9887C134.322 33.8887 135.342 34.2607 136.074 34.2607L136.134 34.2967C137.486 34.2638 138.607 33.24 138.762 31.8967C138.139 31.5492 137.435 31.3751 136.722 31.3927C135.594 31.3927 134.322 31.7887 134.322 32.9887ZM148.829 26.4004L146.261 32.9044H146.189L143.525 26.4004H141.125L145.121 35.4964L142.841 40.5484H145.181L151.325 26.4004H148.829ZM130.901 36H128.657V21H130.901V36Z" fill="white"/>
<path fill-rule="evenodd" clip-rule="evenodd" d="M83.3939 9.32377C81.9782 10.8223 81.9782 13.1652 83.3939 14.6638C84.8543 16.116 87.2135 16.116 88.6739 14.6638C90.0956 13.1677 90.0956 10.8199 88.6739 9.32377C87.9755 8.62027 87.0252 8.22461 86.0339 8.22461C85.0426 8.22461 84.0923 8.62027 83.3939 9.32377ZM56.3461 14.6883C56.962 14.0453 57.2873 13.1778 57.2461 12.2883C57.2462 12.1073 57.2301 11.9266 57.1981 11.7483H53.7061V12.6123H56.3101C56.2923 13.1565 56.0793 13.6762 55.7101 14.0763C54.8876 14.8714 53.6676 15.0936 52.6176 14.6394C51.5677 14.1853 50.894 13.1442 50.9101 12.0003C50.884 11.2434 51.1674 10.5085 51.6949 9.96507C52.2225 9.42165 52.9487 9.11662 53.7061 9.12034C54.4596 9.07917 55.1885 9.39475 55.6741 9.97234L56.3101 9.33634C56.0029 8.98301 55.6163 8.70748 55.1821 8.53234C54.7157 8.33274 54.2134 8.23065 53.7061 8.23234C52.7108 8.21016 51.7507 8.60113 51.0541 9.31234C49.9819 10.3915 49.6612 12.0083 50.2401 13.415C50.8191 14.8218 52.1849 15.7444 53.7061 15.7563C54.6979 15.7917 55.6578 15.4033 56.3461 14.6883ZM59.502 9.28741H62.742V8.39941H58.542V15.5994H62.742V14.7114H59.502V12.4314H62.454V11.5674H59.502V9.28741ZM66.6778 15.6004H65.7538V9.28839H63.7378V8.40039H68.7418V9.28839H66.6778V15.6004ZM72.2705 8.39941V15.5994H73.1945V8.39941H72.2705ZM77.2974 15.5994H76.3734V9.28741H74.3574V8.39941H79.3014V9.28741H77.2974V15.5994ZM84.078 14.0639C85.1596 15.141 86.9084 15.141 87.99 14.0639C89.0523 12.8929 89.0523 11.1069 87.99 9.93593C86.9084 8.85886 85.1596 8.85886 84.078 9.93593C83.0158 11.1069 83.0158 12.8929 84.078 14.0639ZM91.0381 8.39941V15.5994H91.9741V9.73141L95.6341 15.5994H96.5941V8.39941H95.6701V14.0034L92.1661 8.39941H91.0381Z" fill="white"/>
<path d="M83.3939 14.6638L83.3212 14.7325L83.3234 14.7347L83.3939 14.6638ZM83.3939 9.32377L83.3229 9.2533L83.3212 9.2551L83.3939 9.32377ZM88.6739 14.6638L88.7444 14.7347L88.7464 14.7327L88.6739 14.6638ZM88.6739 9.32377L88.7464 9.25487L88.7449 9.25332L88.6739 9.32377ZM57.2461 12.2883L57.146 12.2883L57.1462 12.293L57.2461 12.2883ZM56.3461 14.6883L56.4181 14.7577L56.4183 14.7575L56.3461 14.6883ZM57.1981 11.7483L57.2965 11.7307L57.2817 11.6483H57.1981V11.7483ZM53.7061 11.7483V11.6483H53.6061V11.7483H53.7061ZM53.7061 12.6123H53.6061V12.7123H53.7061V12.6123ZM56.3101 12.6123L56.41 12.6156L56.4134 12.5123H56.3101V12.6123ZM55.7101 14.0763L55.7797 14.1484L55.7836 14.1442L55.7101 14.0763ZM52.6176 14.6394L52.6573 14.5477L52.6176 14.6394ZM50.9101 12.0003L51.0102 12.0017L51.01 11.9969L50.9101 12.0003ZM53.7061 9.12034L53.7056 9.22052L53.7115 9.22019L53.7061 9.12034ZM55.6741 9.97234L55.5975 10.0367L55.6677 10.1201L55.7448 10.0431L55.6741 9.97234ZM56.3101 9.33634L56.3808 9.40705L56.4467 9.3411L56.3856 9.27073L56.3101 9.33634ZM55.1821 8.53234L55.1427 8.6243L55.1447 8.62508L55.1821 8.53234ZM53.7061 8.23234L53.7039 8.33235L53.7064 8.33234L53.7061 8.23234ZM51.0541 9.31234L51.125 9.38282L51.1255 9.38232L51.0541 9.31234ZM50.2401 13.415L50.3326 13.377H50.3326L50.2401 13.415ZM53.7061 15.7563L53.7097 15.6564L53.7069 15.6563L53.7061 15.7563ZM62.742 9.28741V9.38741H62.842V9.28741H62.742ZM59.502 9.28741V9.18741H59.402V9.28741H59.502ZM62.742 8.39941H62.842V8.29941H62.742V8.39941ZM58.542 8.39941V8.29941H58.442V8.39941H58.542ZM58.542 15.5994H58.442V15.6994H58.542V15.5994ZM62.742 15.5994V15.6994H62.842V15.5994H62.742ZM62.742 14.7114H62.842V14.6114H62.742V14.7114ZM59.502 14.7114H59.402V14.8114H59.502V14.7114ZM59.502 12.4314V12.3314H59.402V12.4314H59.502ZM62.454 12.4314V12.5314H62.554V12.4314H62.454ZM62.454 11.5674H62.554V11.4674H62.454V11.5674ZM59.502 11.5674H59.402V11.6674H59.502V11.5674ZM65.7538 15.6004H65.6538V15.7004H65.7538V15.6004ZM66.6778 15.6004V15.7004H66.7778V15.6004H66.6778ZM65.7538 9.28839H65.8538V9.18839H65.7538V9.28839ZM63.7378 9.28839H63.6378V9.38839H63.7378V9.28839ZM63.7378 8.40039V8.30039H63.6378V8.40039H63.7378ZM68.7418 8.40039H68.8418V8.30039H68.7418V8.40039ZM68.7418 9.28839V9.38839H68.8418V9.28839H68.7418ZM66.6778 9.28839V9.18839H66.5778V9.28839H66.6778ZM72.2705 15.5994H72.1705V15.6994H72.2705V15.5994ZM72.2705 8.39941V8.29941H72.1705V8.39941H72.2705ZM73.1945 15.5994V15.6994H73.2945V15.5994H73.1945ZM73.1945 8.39941H73.2945V8.29941H73.1945V8.39941ZM76.3734 15.5994H76.2734V15.6994H76.3734V15.5994ZM77.2974 15.5994V15.6994H77.3974V15.5994H77.2974ZM76.3734 9.28741H76.4734V9.18741H76.3734V9.28741ZM74.3574 9.28741H74.2574V9.38741H74.3574V9.28741ZM74.3574 8.39941V8.29941H74.2574V8.39941H74.3574ZM79.3014 8.39941H79.4014V8.29941H79.3014V8.39941ZM79.3014 9.28741V9.38741H79.4014V9.28741H79.3014ZM77.2974 9.28741V9.18741H77.1974V9.28741H77.2974ZM87.99 14.0639L88.0607 14.1349L88.0641 14.1311L87.99 14.0639ZM84.078 14.0639L84.0039 14.1312L84.0075 14.1348L84.078 14.0639ZM87.99 9.93593L88.0642 9.86866L88.0606 9.86508L87.99 9.93593ZM84.078 9.93593L84.0074 9.86498L84.004 9.86875L84.078 9.93593ZM91.0381 15.5994H90.9381V15.6994H91.0381V15.5994ZM91.0381 8.39941V8.29941H90.9381V8.39941H91.0381ZM91.9741 15.5994V15.6994H92.0741V15.5994H91.9741ZM91.9741 9.73141L92.0589 9.67849L91.8741 9.38213V9.73141H91.9741ZM95.6341 15.5994L95.5492 15.6523L95.5786 15.6994H95.6341V15.5994ZM96.5941 15.5994V15.6994H96.6941V15.5994H96.5941ZM96.5941 8.39941H96.6941V8.29941H96.5941V8.39941ZM95.6701 8.39941V8.29941H95.5701V8.39941H95.6701ZM95.6701 14.0034L95.5853 14.0564L95.7701 14.352V14.0034H95.6701ZM92.1661 8.39941L92.2509 8.3464L92.2215 8.29941H92.1661V8.39941ZM83.4666 14.5951C82.0873 13.1351 82.0873 10.8524 83.4666 9.39244L83.3212 9.2551C81.8691 10.7922 81.8691 13.1954 83.3212 14.7324L83.4666 14.5951ZM88.6034 14.5929C87.182 16.0063 84.8858 16.0063 83.4644 14.5929L83.3234 14.7347C84.8228 16.2257 87.245 16.2257 88.7444 14.7347L88.6034 14.5929ZM88.6014 9.39266C89.9864 10.8502 89.9864 13.1374 88.6014 14.5949L88.7464 14.7327C90.2048 13.1979 90.2048 10.7896 88.7464 9.25488L88.6014 9.39266ZM86.0339 8.32461C86.9985 8.32461 87.9233 8.70963 88.6029 9.39422L88.7449 9.25332C88.0277 8.5309 87.0518 8.12461 86.0339 8.12461V8.32461ZM83.4649 9.39422C84.1445 8.70963 85.0692 8.32461 86.0339 8.32461V8.12461C85.0159 8.12461 84.0401 8.5309 83.3229 9.25332L83.4649 9.39422ZM57.1462 12.293C57.1862 13.1551 56.8709 13.9959 56.2739 14.6192L56.4183 14.7575C57.0532 14.0947 57.3885 13.2005 57.346 12.2837L57.1462 12.293ZM57.0997 11.766C57.1306 11.9384 57.1462 12.1132 57.1461 12.2883L57.3461 12.2884C57.3462 12.1014 57.3296 11.9147 57.2965 11.7307L57.0997 11.766ZM53.7061 11.8483H57.1981V11.6483H53.7061V11.8483ZM53.8061 12.6123V11.7483H53.6061V12.6123H53.8061ZM56.3101 12.5123H53.7061V12.7123H56.3101V12.5123ZM55.7836 14.1442C56.1691 13.7264 56.3915 13.1838 56.41 12.6156L56.2101 12.6091C56.1931 13.1293 55.9896 13.626 55.6366 14.0085L55.7836 14.1442ZM52.5779 14.7312C53.6649 15.2014 54.9281 14.9714 55.7796 14.1482L55.6406 14.0044C54.8471 14.7714 53.6702 14.9857 52.6573 14.5477L52.5779 14.7312ZM50.8101 11.9989C50.7935 13.1832 51.4909 14.2611 52.5779 14.7312L52.6573 14.5477C51.6444 14.1096 50.9946 13.1052 51.0101 12.0017L50.8101 11.9989ZM51.6232 9.89541C51.0767 10.4584 50.7831 11.2197 50.8102 12.0038L51.01 11.9969C50.9848 11.2671 51.2581 10.5586 51.7667 10.0347L51.6232 9.89541ZM53.7066 9.02034C52.922 9.01649 52.1697 9.33247 51.6232 9.89541L51.7667 10.0347C52.2753 9.51082 52.9754 9.21676 53.7056 9.22034L53.7066 9.02034ZM55.7506 9.90799C55.2448 9.30633 54.4855 8.9776 53.7006 9.02049L53.7115 9.22019C54.4336 9.18073 55.1322 9.48317 55.5975 10.0367L55.7506 9.90799ZM56.2394 9.26563L55.6034 9.90163L55.7448 10.0431L56.3808 9.40705L56.2394 9.26563ZM55.1447 8.62508C55.5643 8.79432 55.9378 9.06054 56.2346 9.40195L56.3856 9.27073C56.068 8.90547 55.6684 8.62065 55.2195 8.4396L55.1447 8.62508ZM53.7064 8.33234C54.2001 8.33069 54.6889 8.43004 55.1427 8.62428L55.2214 8.44041C54.7425 8.23544 54.2267 8.13061 53.7058 8.13234L53.7064 8.33234ZM51.1255 9.38232C51.8028 8.69086 52.7362 8.31075 53.7039 8.33232L53.7083 8.13237C52.6854 8.10957 51.6986 8.5114 50.9827 9.24237L51.1255 9.38232ZM50.3326 13.377C49.769 12.0074 50.0812 10.4335 51.125 9.38282L50.9831 9.24186C49.8826 10.3496 49.5534 12.0091 50.1476 13.4531L50.3326 13.377ZM53.7069 15.6563C52.2259 15.6448 50.8962 14.7465 50.3326 13.377L50.1476 13.4531C50.7419 14.8971 52.1439 15.8441 53.7053 15.8563L53.7069 15.6563ZM56.274 14.619C55.6055 15.3135 54.673 15.6907 53.7096 15.6564L53.7025 15.8563C54.7227 15.8926 55.7102 15.4931 56.4181 14.7577L56.274 14.619ZM62.742 9.18741H59.502V9.38741H62.742V9.18741ZM62.642 8.39941V9.28741H62.842V8.39941H62.642ZM58.542 8.49941H62.742V8.29941H58.542V8.49941ZM58.642 15.5994V8.39941H58.442V15.5994H58.642ZM62.742 15.4994H58.542V15.6994H62.742V15.4994ZM62.642 14.7114V15.5994H62.842V14.7114H62.642ZM59.502 14.8114H62.742V14.6114H59.502V14.8114ZM59.402 12.4314V14.7114H59.602V12.4314H59.402ZM62.454 12.3314H59.502V12.5314H62.454V12.3314ZM62.354 11.5674V12.4314H62.554V11.5674H62.354ZM59.502 11.6674H62.454V11.4674H59.502V11.6674ZM59.402 9.28741V11.5674H59.602V9.28741H59.402ZM65.7538 15.7004H66.6778V15.5004H65.7538V15.7004ZM65.6538 9.28839V15.6004H65.8538V9.28839H65.6538ZM63.7378 9.38839H65.7538V9.18839H63.7378V9.38839ZM63.6378 8.40039V9.28839H63.8378V8.40039H63.6378ZM68.7418 8.30039H63.7378V8.50039H68.7418V8.30039ZM68.8418 9.28839V8.40039H68.6418V9.28839H68.8418ZM66.6778 9.38839H68.7418V9.18839H66.6778V9.38839ZM66.7778 15.6004V9.28839H66.5778V15.6004H66.7778ZM72.3705 15.5994V8.39941H72.1705V15.5994H72.3705ZM73.1945 15.4994H72.2705V15.6994H73.1945V15.4994ZM73.0945 8.39941V15.5994H73.2945V8.39941H73.0945ZM72.2705 8.49941H73.1945V8.29941H72.2705V8.49941ZM76.3734 15.6994H77.2974V15.4994H76.3734V15.6994ZM76.2734 9.28741V15.5994H76.4734V9.28741H76.2734ZM74.3574 9.38741H76.3734V9.18741H74.3574V9.38741ZM74.2574 8.39941V9.28741H74.4574V8.39941H74.2574ZM79.3014 8.29941H74.3574V8.49941H79.3014V8.29941ZM79.4014 9.28741V8.39941H79.2014V9.28741H79.4014ZM77.2974 9.38741H79.3014V9.18741H77.2974V9.38741ZM77.3974 15.5994V9.28741H77.1974V15.5994H77.3974ZM87.9195 13.9931C86.8769 15.0313 85.1912 15.0313 84.1486 13.9931L84.0075 14.1348C85.1281 15.2507 86.94 15.2507 88.0606 14.1348L87.9195 13.9931ZM87.916 10.0031C88.9436 11.136 88.9436 12.8639 87.916 13.9967L88.0641 14.1311C89.1609 12.922 89.1609 11.0779 88.0641 9.86875L87.916 10.0031ZM84.1486 10.0068C85.1912 8.96857 86.8769 8.96857 87.9195 10.0068L88.0606 9.86508C86.94 8.74914 85.1281 8.74914 84.0075 9.86508L84.1486 10.0068ZM84.1521 13.9967C83.1244 12.8639 83.1244 11.136 84.1521 10.0031L84.004 9.86875C82.9071 11.0779 82.9071 12.922 84.004 14.1311L84.1521 13.9967ZM91.1381 15.5994V8.39941H90.9381V15.5994H91.1381ZM91.9741 15.4994H91.0381V15.6994H91.9741V15.4994ZM91.8741 9.73141V15.5994H92.0741V9.73141H91.8741ZM95.7189 15.5465L92.0589 9.67849L91.8892 9.78434L95.5492 15.6523L95.7189 15.5465ZM96.5941 15.4994H95.6341V15.6994H96.5941V15.4994ZM96.4941 8.39941V15.5994H96.6941V8.39941H96.4941ZM95.6701 8.49941H96.5941V8.29941H95.6701V8.49941ZM95.7701 14.0034V8.39941H95.5701V14.0034H95.7701ZM92.0813 8.45243L95.5853 14.0564L95.7549 13.9504L92.2509 8.3464L92.0813 8.45243ZM91.0381 8.49941H92.1661V8.29941H91.0381V8.49941Z" fill="white"/>
<path d="M12.8692 9.04884C12.4781 9.51817 12.2807 10.119 12.3172 10.7288V37.2728C12.2807 37.8827 12.4781 38.4835 12.8692 38.9528L12.9532 39.0368L27.8212 24.1808V23.8328L12.9532 8.96484L12.8692 9.04884Z" fill="url(#paint0_linear_577_7823)"/>
<path d="M32.7403 29.1372L27.8203 24.1812V23.8332L32.7403 18.8652L32.8483 18.9252L38.7403 22.2732C40.4203 23.2212 40.4203 24.7812 38.7403 25.7412L32.8723 29.0772L32.7403 29.1372Z" fill="url(#paint1_linear_577_7823)"/>
<path d="M32.8842 29.064L27.8202 24L12.8682 38.952C13.5746 39.573 14.6231 39.6033 15.3642 39.024L32.8962 29.064" fill="url(#paint2_linear_577_7823)"/>
<path d="M32.8844 18.9374L15.3524 8.97743C14.6114 8.39816 13.5629 8.4284 12.8564 9.04943L27.8204 24.0014L32.8844 18.9374Z" fill="url(#paint3_linear_577_7823)"/>
<path opacity="0.2" d="M32.7402 28.957L15.3522 38.857C14.6406 39.389 13.6637 39.389 12.9522 38.857L12.8682 38.941L12.9522 39.025C13.6624 39.561 14.6419 39.561 15.3522 39.025L32.8842 29.065L32.7402 28.957Z" fill="black"/>
<path opacity="0.12" fill-rule="evenodd" clip-rule="evenodd" d="M32.7411 28.956L38.7411 25.56C39.3612 25.254 39.8043 24.6778 39.9411 24C39.8793 24.7493 39.4216 25.4083 38.7411 25.728L32.8491 29.064L32.7411 28.956ZM12.3147 37.3371C12.3345 37.8651 12.5283 38.3743 12.8693 38.7835L12.9533 38.8795L12.8693 38.9635C12.4896 38.5079 12.2925 37.9285 12.3147 37.3371ZM12.3147 37.3371C12.3153 37.3193 12.3162 37.3014 12.3173 37.2835V37.1035C12.3126 37.1816 12.3118 37.2596 12.3147 37.3371Z" fill="black"/>
<path opacity="0.25" d="M15.3527 9.1449L38.7407 22.4409C39.3607 22.747 39.8039 23.3231 39.9407 24.0009C39.8789 23.2516 39.4212 22.5926 38.7407 22.2729L15.3527 8.9769C13.6727 8.0289 12.3047 8.8209 12.3047 10.7409V10.9209C12.3407 8.9889 13.6847 8.1969 15.3527 9.1449Z" fill="white"/>
<defs>
<linearGradient id="paint0_linear_577_7823" x1="21.3091" y1="-9.06992" x2="-2.49824" y2="-2.73831" gradientUnits="userSpaceOnUse">
<stop stop-color="#00A0FF"/>
<stop offset="0.01" stop-color="#00A1FF"/>
<stop offset="0.26" stop-color="#00BEFF"/>
<stop offset="0.51" stop-color="#00D2FF"/>
<stop offset="0.76" stop-color="#00DFFF"/>
<stop offset="1" stop-color="#00E3FF"/>
</linearGradient>
<linearGradient id="paint1_linear_577_7823" x1="40.9363" y1="11.7609" x2="11.9083" y2="11.7609" gradientUnits="userSpaceOnUse">
<stop stop-color="#FFE000"/>
<stop offset="0.41" stop-color="#FFBD00"/>
<stop offset="0.78" stop-color="#FFA500"/>
<stop offset="1" stop-color="#FF9C00"/>
</linearGradient>
<linearGradient id="paint2_linear_577_7823" x1="12.4288" y1="16.233" x2="-6.6949" y2="48.4009" gradientUnits="userSpaceOnUse">
<stop stop-color="#FF3A44"/>
<stop offset="1" stop-color="#C31162"/>
</linearGradient>
<linearGradient id="paint3_linear_577_7823" x1="1.19247" y1="4.91663" x2="9.72841" y2="19.2812" gradientUnits="userSpaceOnUse">
<stop stop-color="#32A071"/>
<stop offset="0.07" stop-color="#2DA771"/>
<stop offset="0.48" stop-color="#15CF74"/>
<stop offset="0.8" stop-color="#06E775"/>
<stop offset="1" stop-color="#00F076"/>
</linearGradient>
</defs>
</svg>
