<svg width="9" height="8" viewBox="0 0 9 8" fill="none" xmlns="http://www.w3.org/2000/svg">
<path d="M7.9478 3.52537L4.30216 0.100634C4.26912 0.0689403 4.22973 0.0437261 4.18625 0.0264526C4.14278 0.00917912 4.09609 0.000189841 4.04889 5.60647e-06C4.00195 -0.00024962 3.95541 0.00821161 3.91195 0.0249041C3.86849 0.0415966 3.82896 0.0661921 3.79562 0.0972802L0.153551 3.52537C0.120116 3.55655 0.0935786 3.59365 0.0754686 3.63453C0.0573586 3.6754 0.0480347 3.71924 0.0480347 3.76352C0.0480347 3.80781 0.0573586 3.85165 0.0754686 3.89252C0.0935786 3.9334 0.120116 3.9705 0.153551 4.00168L1.13452 4.92411C1.20104 4.98457 1.28993 5.01836 1.38244 5.01836C1.47495 5.01836 1.56384 4.98457 1.63036 4.92411L2.78612 3.8977C2.80063 3.8894 2.81729 3.88502 2.83427 3.88502C2.85126 3.88502 2.86791 3.8894 2.88243 3.8977C2.89838 3.90424 2.91195 3.91504 2.92146 3.92875C2.93096 3.94245 2.936 3.95848 2.93594 3.97485V7.66457C2.93594 7.75353 2.97352 7.83885 3.04042 7.90175C3.10731 7.96466 3.19805 8 3.29265 8H4.71952C4.81413 8 4.90486 7.96466 4.97176 7.90175C5.03865 7.83885 5.07624 7.75353 5.07624 7.66457V3.97485C5.07617 3.95848 5.08121 3.94245 5.09072 3.92875C5.10022 3.91504 5.11379 3.90424 5.12974 3.8977C5.14438 3.88975 5.16099 3.88556 5.1779 3.88556C5.19481 3.88556 5.21141 3.88975 5.22606 3.8977L6.471 4.9543C6.53715 5.01279 6.62454 5.04535 6.71535 5.04535C6.80615 5.04535 6.89354 5.01279 6.9597 4.9543L7.9478 3.99162C8.01209 3.92907 8.04803 3.84548 8.04803 3.75849C8.04803 3.6715 8.01209 3.58792 7.9478 3.52537Z" fill="#00B493"/>
</svg>
