<svg width="32" height="32" viewBox="0 0 32 32" fill="none" xmlns="http://www.w3.org/2000/svg">
<g clip-path="url(#clip0_706_3204)">
<path d="M16.9687 24.6002C17.7395 24.6002 18.4788 24.294 19.0238 23.7489C19.5688 23.2039 19.875 22.4647 19.875 21.6939C19.875 20.9231 19.5688 20.1839 19.0238 19.6389C18.4788 19.0939 17.7395 18.7877 16.9687 18.7877C17.7395 18.7877 18.4788 18.4815 19.0238 17.9364C19.5688 17.3914 19.875 16.6522 19.875 15.8814C19.875 15.1106 19.5688 14.3714 19.0238 13.8264C18.4788 13.2814 17.7395 12.9752 16.9687 12.9752H13.0938V24.6002H16.9687Z" stroke="#6E2DFA" stroke-width="2" stroke-linecap="round" stroke-linejoin="round"/>
<path d="M13.0938 18.7877H17.2103" stroke="#6E2DFA" stroke-width="2" stroke-linecap="round" stroke-linejoin="round"/>
<path d="M16 12.9752V11.0377" stroke="#6E2DFA" stroke-width="2" stroke-linecap="round" stroke-linejoin="round"/>
<path d="M16 26.5377V24.6002" stroke="#6E2DFA" stroke-width="2" stroke-linecap="round" stroke-linejoin="round"/>
<path d="M29.2396 7.16266H2.76042C2.04705 7.16266 1.46875 7.74096 1.46875 8.45433V29.121C1.46875 29.8344 2.04705 30.4127 2.76042 30.4127H29.2396C29.9529 30.4127 30.5312 29.8344 30.5312 29.121V8.45433C30.5312 7.74096 29.9529 7.16266 29.2396 7.16266Z" stroke="#6E2DFA" stroke-width="2" stroke-linecap="round" stroke-linejoin="round"/>
<path d="M26.6562 7.16266V3.52532C26.6564 3.25204 26.5988 2.98182 26.4871 2.7324C26.3754 2.48298 26.2122 2.26 26.0083 2.07812C25.8043 1.89623 25.5642 1.75956 25.3036 1.67706C25.0431 1.59456 24.7681 1.56811 24.4966 1.59945L4.89942 3.85857C3.95452 3.96764 3.08274 4.42043 2.45011 5.13072C1.81748 5.841 1.46818 6.75915 1.46875 7.71032V9.10016" stroke="#6E2DFA" stroke-width="2" stroke-linecap="round" stroke-linejoin="round"/>
</g>
<defs>
<clipPath id="clip0_706_3204">
<rect width="31" height="31" fill="white" transform="translate(0.5 0.5)"/>
</clipPath>
</defs>
</svg>
