<svg width="31" height="32" viewBox="0 0 31 32" fill="none" xmlns="http://www.w3.org/2000/svg">
<g clip-path="url(#clip0_706_894)">
<path d="M30.0314 16.0001C30.0312 15.1565 29.7557 14.336 29.2468 13.6632C28.7379 12.9905 28.0234 12.5021 27.2117 12.2724C27.6124 11.8837 27.8926 11.3879 28.0189 10.8441C28.1452 10.3004 28.1121 9.73177 27.9236 9.20633C27.7352 8.68089 27.3993 8.22087 26.9562 7.88132C26.5132 7.54177 25.9816 7.33707 25.4253 7.2917C25.2677 7.11471 25.0895 6.95729 24.8944 6.82283C25.2806 5.89369 25.2902 4.85076 24.9213 3.91464C24.5523 2.97853 23.8337 2.22264 22.9174 1.80686C22.0011 1.39109 20.959 1.34803 20.0115 1.6868C19.0641 2.02557 18.2856 2.71959 17.8406 3.62208C17.5707 3.25495 17.2182 2.95647 16.8116 2.75075C16.4051 2.54502 15.9558 2.43783 15.5001 2.43783C15.0444 2.43783 14.5952 2.54502 14.1886 2.75075C13.782 2.95647 13.4295 3.25495 13.1596 3.62208C12.7147 2.71959 11.9361 2.02557 10.9887 1.6868C10.0412 1.34803 8.99913 1.39109 8.08285 1.80686C7.16656 2.22264 6.44794 2.97853 6.07897 3.91464C5.71 4.85076 5.71963 5.89369 6.10582 6.82283C5.91072 6.95729 5.73249 7.11471 5.57495 7.2917C5.01858 7.33707 4.48706 7.54177 4.04399 7.88132C3.60092 8.22087 3.26506 8.68089 3.0766 9.20633C2.88815 9.73177 2.85507 10.3004 2.98134 10.8441C3.1076 11.3879 3.38786 11.8837 3.78857 12.2724C2.97685 12.5022 2.26233 12.9907 1.7535 13.6636C1.24468 14.3365 0.96936 15.1571 0.96936 16.0008C0.96936 16.8444 1.24468 17.665 1.7535 18.3379C2.26233 19.0108 2.97685 19.4993 3.78857 19.7292C3.38772 20.1176 3.10733 20.6134 2.98098 21.1571C2.85464 21.7008 2.88769 22.2694 3.07618 22.7949C3.26468 23.3203 3.60062 23.7802 4.04379 24.1196C4.48696 24.459 5.01856 24.6635 5.57495 24.7085C5.73249 24.8855 5.91072 25.0429 6.10582 25.1774C5.71963 26.1066 5.71 27.1495 6.07897 28.0856C6.44794 29.0217 7.16656 29.7776 8.08285 30.1934C8.99913 30.6092 10.0412 30.6522 10.9887 30.3134C11.9361 29.9747 12.7147 29.2806 13.1596 28.3782C13.4295 28.7453 13.782 29.0438 14.1886 29.2495C14.5952 29.4552 15.0444 29.5624 15.5001 29.5624C15.9558 29.5624 16.4051 29.4552 16.8116 29.2495C17.2182 29.0438 17.5707 28.7453 17.8406 28.3782C18.2856 29.2806 19.0641 29.9747 20.0115 30.3134C20.959 30.6522 22.0011 30.6092 22.9174 30.1934C23.8337 29.7776 24.5523 29.0217 24.9213 28.0856C25.2902 27.1495 25.2806 26.1066 24.8944 25.1774C25.0895 25.0429 25.2677 24.8855 25.4253 24.7085C25.9817 24.6635 26.5133 24.459 26.9564 24.1196C27.3996 23.7802 27.7355 23.3203 27.924 22.7949C28.1125 22.2694 28.1456 21.7008 28.0192 21.1571C27.8929 20.6134 27.6125 20.1176 27.2117 19.7292C28.0236 19.4994 28.7383 19.0108 29.2472 18.3378C29.7561 17.6647 30.0315 16.8439 30.0314 16.0001Z" stroke="#6E2DFA" stroke-width="2" stroke-linecap="round" stroke-linejoin="round"/>
<path d="M15.5 29.5625V11.1562" stroke="#6E2DFA" stroke-width="2" stroke-linecap="round" stroke-linejoin="round"/>
<path d="M15.5 11.1562C16.5701 11.1562 17.4375 10.2888 17.4375 9.21875C17.4375 8.1487 16.5701 7.28125 15.5 7.28125C14.4299 7.28125 13.5625 8.1487 13.5625 9.21875C13.5625 10.2888 14.4299 11.1562 15.5 11.1562Z" stroke="#6E2DFA" stroke-width="2" stroke-linecap="round" stroke-linejoin="round"/>
<path d="M11.625 24.7187V20.8437L8.71875 18.9062V16" stroke="#6E2DFA" stroke-width="2" stroke-linecap="round" stroke-linejoin="round"/>
<path d="M8.71875 16C9.7888 16 10.6562 15.1326 10.6562 14.0625C10.6562 12.9924 9.7888 12.125 8.71875 12.125C7.6487 12.125 6.78125 12.9924 6.78125 14.0625C6.78125 15.1326 7.6487 16 8.71875 16Z" stroke="#6E2DFA" stroke-width="2" stroke-linecap="round" stroke-linejoin="round"/>
<path d="M19.375 24.7187V20.8437L22.2812 18.9062V16" stroke="#6E2DFA" stroke-width="2" stroke-linecap="round" stroke-linejoin="round"/>
<path d="M22.2812 16C23.3513 16 24.2188 15.1326 24.2188 14.0625C24.2188 12.9924 23.3513 12.125 22.2812 12.125C21.2112 12.125 20.3438 12.9924 20.3438 14.0625C20.3438 15.1326 21.2112 16 22.2812 16Z" stroke="#6E2DFA" stroke-width="2" stroke-linecap="round" stroke-linejoin="round"/>
</g>
<defs>
<clipPath id="clip0_706_894">
<rect width="31" height="31" fill="white" transform="translate(0 0.5)"/>
</clipPath>
</defs>
</svg>
