<svg width="31" height="31" viewBox="0 0 31 31" fill="none" xmlns="http://www.w3.org/2000/svg">
<g clip-path="url(#clip0_706_1070)">
<path d="M26.1562 6.78125C26.6701 6.78125 27.163 6.98539 27.5263 7.34873C27.8897 7.71208 28.0937 8.2049 28.0937 8.71875V22.2812" stroke="#30C6FF" stroke-width="2" stroke-linecap="round" stroke-linejoin="round"/>
<path d="M2.90625 22.2812V8.71875C2.90625 8.2049 3.11039 7.71208 3.47373 7.34873C3.83708 6.98539 4.3299 6.78125 4.84375 6.78125" stroke="#30C6FF" stroke-width="2" stroke-linecap="round" stroke-linejoin="round"/>
<path d="M18.8377 22.2812C18.5014 22.8697 18.0156 23.3588 17.4295 23.699C16.8433 24.0392 16.1777 24.2184 15.5 24.2184C14.8223 24.2184 14.1567 24.0392 13.5705 23.699C12.9843 23.3588 12.4985 22.8697 12.1623 22.2812H0.96875V24.2187C0.96875 25.2464 1.37701 26.2321 2.10371 26.9588C2.83042 27.6855 3.81604 28.0937 4.84375 28.0937H26.1562C27.1839 28.0937 28.1696 27.6855 28.8963 26.9588C29.623 26.2321 30.0312 25.2464 30.0312 24.2187V22.2812H18.8377Z" stroke="#30C6FF" stroke-width="2" stroke-linecap="round" stroke-linejoin="round"/>
<path d="M15.5 13.0781C15.2325 13.0781 15.0156 12.8613 15.0156 12.5937C15.0156 12.3262 15.2325 12.1094 15.5 12.1094" stroke="#30C6FF" stroke-width="2"/>
<path d="M15.5 13.0781C15.7675 13.0781 15.9844 12.8613 15.9844 12.5937C15.9844 12.3262 15.7675 12.1094 15.5 12.1094" stroke="#30C6FF" stroke-width="2"/>
<path d="M20.8281 8.71875H10.1719C9.90436 8.71875 9.6875 8.93561 9.6875 9.20312V15.9844C9.6875 16.2519 9.90436 16.4687 10.1719 16.4687H20.8281C21.0956 16.4687 21.3125 16.2519 21.3125 15.9844V9.20312C21.3125 8.93561 21.0956 8.71875 20.8281 8.71875Z" stroke="#30C6FF" stroke-width="2" stroke-linecap="round" stroke-linejoin="round"/>
<path d="M11.625 8.71875V6.78125C11.625 5.75354 12.0333 4.76792 12.76 4.04121C13.4867 3.31451 14.4723 2.90625 15.5 2.90625C16.5276 2.90625 17.5133 3.31451 18.24 4.04121C18.9667 4.76792 19.375 5.75354 19.375 6.78125V8.71875" stroke="#30C6FF" stroke-width="2" stroke-linecap="round" stroke-linejoin="round"/>
</g>
<defs>
<clipPath id="clip0_706_1070">
<rect width="31" height="31" fill="white"/>
</clipPath>
</defs>
</svg>
