<svg width="31" height="31" viewBox="0 0 31 31" fill="none" xmlns="http://www.w3.org/2000/svg">
<g clip-path="url(#clip0_706_546)">
<path d="M8.71875 17.4375C12.999 17.4375 16.4688 13.9677 16.4688 9.6875C16.4688 5.40729 12.999 1.9375 8.71875 1.9375C4.43854 1.9375 0.96875 5.40729 0.96875 9.6875C0.96875 13.9677 4.43854 17.4375 8.71875 17.4375Z" stroke="#30C6FF" stroke-width="2" stroke-linecap="round" stroke-linejoin="round"/>
<path d="M5.29327 9.68771H8.71877V6.26221" stroke="#30C6FF" stroke-width="2" stroke-linecap="round" stroke-linejoin="round"/>
<path d="M18.4062 15.5H20.3437C20.8576 15.5 21.3504 15.7041 21.7138 16.0675C22.0771 16.4308 22.2812 16.9236 22.2812 17.4375V24.2678" stroke="#30C6FF" stroke-width="2" stroke-linecap="round" stroke-linejoin="round"/>
<path d="M9.6875 27.125H8.71875C8.20489 27.125 7.71208 26.9209 7.34873 26.5575C6.98538 26.1942 6.78125 25.7014 6.78125 25.1875V21.3125" stroke="#30C6FF" stroke-width="2" stroke-linecap="round" stroke-linejoin="round"/>
<path d="M22.2812 17.4375H26.1562C27.184 17.4375 28.1696 17.8458 28.8963 18.5725C29.623 19.2992 30.0312 20.2848 30.0312 21.3125V25.1875C30.0312 25.7014 29.8271 26.1942 29.4638 26.5575C29.1004 26.9209 28.6076 27.125 28.0937 27.125H25.1384" stroke="#30C6FF" stroke-width="2" stroke-linecap="round" stroke-linejoin="round"/>
<path d="M22.7656 29.0625C24.1032 29.0625 25.1875 27.9782 25.1875 26.6406C25.1875 25.3031 24.1032 24.2188 22.7656 24.2188C21.4281 24.2188 20.3438 25.3031 20.3438 26.6406C20.3438 27.9782 21.4281 29.0625 22.7656 29.0625Z" stroke="#30C6FF" stroke-width="2" stroke-linecap="round" stroke-linejoin="round"/>
<path d="M12.1094 29.0625C13.4469 29.0625 14.5312 27.9782 14.5312 26.6406C14.5312 25.3031 13.4469 24.2188 12.1094 24.2188C10.7718 24.2188 9.6875 25.3031 9.6875 26.6406C9.6875 27.9782 10.7718 29.0625 12.1094 29.0625Z" stroke="#30C6FF" stroke-width="2" stroke-linecap="round" stroke-linejoin="round"/>
<path d="M20.3928 27.125H14.5312" stroke="#30C6FF" stroke-width="2" stroke-linecap="round" stroke-linejoin="round"/>
<path d="M30.0312 21.3125H26.1562" stroke="#30C6FF" stroke-width="2" stroke-linecap="round" stroke-linejoin="round"/>
</g>
<defs>
<clipPath id="clip0_706_546">
<rect width="31" height="31" fill="white"/>
</clipPath>
</defs>
</svg>
