<svg width="31" height="31" viewBox="0 0 31 31" fill="none" xmlns="http://www.w3.org/2000/svg">
<path d="M10.6619 29.1362C8.08582 28.2224 5.82138 26.5974 4.13099 24.4495C2.44059 22.3016 1.39345 19.7185 1.11088 16.9998C0.828324 14.2811 1.32192 11.538 2.53446 9.08837C3.74701 6.6387 5.62888 4.58277 7.962 3.1588C10.2951 1.73482 12.984 1.00112 15.717 1.04269C18.45 1.08426 21.1154 1.89941 23.4041 3.39369C25.6928 4.88795 27.5112 7.00017 28.6488 9.48559C29.7862 11.971 30.1962 14.7279 29.831 17.4366" stroke="#30C6FF" stroke-width="2" stroke-linecap="round" stroke-linejoin="round"/>
<path d="M6.49644 26.809L7.7821 20.3165H9.1706C9.46383 20.3175 9.75334 20.2507 10.0165 20.1214C10.2797 19.992 10.5094 19.8035 10.6877 19.5708C10.8714 19.3434 10.9986 19.0757 11.0589 18.7897C11.1192 18.5036 11.111 18.2074 11.0348 17.9252L10.0706 14.0681C9.96952 13.65 9.73068 13.2782 9.39251 13.0122C9.05434 12.7464 8.63654 12.602 8.20636 12.6025H1.35382" stroke="#30C6FF" stroke-width="2" stroke-linecap="round" stroke-linejoin="round"/>
<path d="M27.0669 6.8169H21.8214C21.3912 6.8164 20.9734 6.96072 20.6353 7.22659C20.2971 7.49246 20.0583 7.86441 19.9571 8.28254L19.3529 10.7382" stroke="#30C6FF" stroke-width="2" stroke-linecap="round" stroke-linejoin="round"/>
<path d="M22.2456 23.2091V19.3521" stroke="#30C6FF" stroke-width="2" stroke-linecap="round" stroke-linejoin="round"/>
<path d="M29.7153 26.6547C29.8928 27.0014 29.9788 27.3876 29.9654 27.7769C29.9518 28.1661 29.8392 28.5454 29.6382 28.879C29.4311 29.2073 29.1448 29.4784 28.8056 29.6671C28.4663 29.8558 28.0851 29.9562 27.6968 29.9589H16.7816C16.3934 29.9562 16.0121 29.8558 15.6729 29.6671C15.3336 29.4784 15.0473 29.2073 14.8403 28.879C14.6372 28.5465 14.5223 28.1678 14.5066 27.7786C14.4908 27.3893 14.5748 27.0026 14.7503 26.6547L20.1757 15.791C20.3663 15.4122 20.6584 15.0939 21.0194 14.8715C21.3803 14.6491 21.796 14.5312 22.2199 14.5312C22.6439 14.5312 23.0596 14.6491 23.4205 14.8715C23.7815 15.0939 24.0736 15.4122 24.2641 15.791L29.7153 26.6547Z" stroke="#30C6FF" stroke-width="2" stroke-linecap="round" stroke-linejoin="round"/>
<path d="M22.2457 27.0663C21.9795 27.0663 21.7635 26.8504 21.7635 26.5842C21.7635 26.3179 21.9795 26.1021 22.2457 26.1021" stroke="#30C6FF" stroke-width="2"/>
<path d="M22.2456 27.0663C22.5119 27.0663 22.7278 26.8504 22.7278 26.5842C22.7278 26.3179 22.5119 26.1021 22.2456 26.1021" stroke="#30C6FF" stroke-width="2"/>
</svg>
