<svg width="32" height="32" viewBox="0 0 32 32" fill="none" xmlns="http://www.w3.org/2000/svg">
<g clip-path="url(#clip0_706_1827)">
<path d="M18.4219 19.875V27.0024C18.4219 27.4659 18.3306 27.9249 18.1531 28.3531C17.9757 28.7814 17.7157 29.1704 17.3878 29.4981C17.06 29.8258 16.6709 30.0857 16.2426 30.263C15.8143 30.4403 15.3553 30.5314 14.8917 30.5312H6.452C5.98848 30.5314 5.52946 30.4403 5.10118 30.263C4.67289 30.0857 4.28372 29.8258 3.9559 29.4981C3.62808 29.1704 3.36804 28.7814 3.19061 28.3531C3.01319 27.9249 2.92187 27.4659 2.92188 27.0024V6.93637C2.92188 6.00013 3.2938 5.10223 3.95582 4.4402C4.61785 3.77817 5.51575 3.40625 6.452 3.40625H9.70312" stroke="#6E2DFA" stroke-width="2" stroke-linecap="round" stroke-linejoin="round"/>
<path d="M2.92188 24.7188H18.4219" stroke="#6E2DFA" stroke-width="2" stroke-linecap="round" stroke-linejoin="round"/>
<path d="M22.2412 2.0242L24.3957 6.25829H28.0589C28.2588 6.25539 28.4551 6.31231 28.6225 6.42173C28.7899 6.53116 28.9208 6.68811 28.9984 6.87243C29.076 7.05676 29.0967 7.26007 29.058 7.45627C29.0192 7.65248 28.9227 7.83263 28.7809 7.97362L25.4226 11.2842L27.2864 15.5635C27.3678 15.7594 27.3857 15.976 27.3376 16.1827C27.2895 16.3894 27.1779 16.5758 27.0184 16.7158C26.8589 16.8557 26.6596 16.9422 26.4484 16.963C26.2372 16.9839 26.0248 16.938 25.8411 16.8319L21.337 14.2989L16.833 16.8319C16.6492 16.938 16.4368 16.9839 16.2256 16.963C16.0145 16.9422 15.8151 16.8557 15.6556 16.7158C15.4961 16.5758 15.3845 16.3894 15.3364 16.1827C15.2884 15.976 15.3063 15.7594 15.3876 15.5635L17.2515 11.2842L13.8932 7.97362C13.7513 7.83263 13.6548 7.65248 13.6161 7.45627C13.5773 7.26007 13.5981 7.05676 13.6757 6.87243C13.7532 6.68811 13.8841 6.53116 14.0515 6.42173C14.2189 6.31231 14.4152 6.25539 14.6152 6.25829H18.2784L20.4148 2.0242C20.5027 1.85823 20.6341 1.71934 20.795 1.62248C20.9559 1.52561 21.1402 1.47443 21.328 1.47443C21.5158 1.47443 21.7 1.52561 21.8609 1.62248C22.0218 1.71934 22.1533 1.85823 22.2412 2.0242Z" stroke="#6E2DFA" stroke-width="2" stroke-linecap="round" stroke-linejoin="round"/>
</g>
<defs>
<clipPath id="clip0_706_1827">
<rect width="31" height="31" fill="white" transform="translate(0.5 0.5)"/>
</clipPath>
</defs>
</svg>
