<svg width="31" height="32" viewBox="0 0 31 32" fill="none" xmlns="http://www.w3.org/2000/svg">
<g clip-path="url(#clip0_706_1735)">
<path d="M4.84375 1.46497H2.90625C1.8362 1.46497 0.96875 2.33241 0.96875 3.40247V5.33997C0.96875 6.41002 1.8362 7.27747 2.90625 7.27747H4.84375C5.9138 7.27747 6.78125 6.41002 6.78125 5.33997V3.40247C6.78125 2.33241 5.9138 1.46497 4.84375 1.46497Z" stroke="#6E2DFA" stroke-width="2" stroke-linecap="round" stroke-linejoin="round"/>
<path d="M16.4688 1.46497H14.5312C13.4612 1.46497 12.5938 2.33241 12.5938 3.40247V5.33997C12.5938 6.41002 13.4612 7.27747 14.5312 7.27747H16.4688C17.5388 7.27747 18.4062 6.41002 18.4062 5.33997V3.40247C18.4062 2.33241 17.5388 1.46497 16.4688 1.46497Z" stroke="#6E2DFA" stroke-width="2" stroke-linecap="round" stroke-linejoin="round"/>
<path d="M28.0938 1.46497H26.1562C25.0862 1.46497 24.2188 2.33241 24.2188 3.40247V5.33997C24.2188 6.41002 25.0862 7.27747 26.1562 7.27747H28.0938C29.1638 7.27747 30.0312 6.41002 30.0312 5.33997V3.40247C30.0312 2.33241 29.1638 1.46497 28.0938 1.46497Z" stroke="#6E2DFA" stroke-width="2" stroke-linecap="round" stroke-linejoin="round"/>
<path d="M4.84375 13.09H2.90625C1.8362 13.09 0.96875 13.9574 0.96875 15.0275V16.965C0.96875 18.035 1.8362 18.9025 2.90625 18.9025H4.84375C5.9138 18.9025 6.78125 18.035 6.78125 16.965V15.0275C6.78125 13.9574 5.9138 13.09 4.84375 13.09Z" stroke="#6E2DFA" stroke-width="2" stroke-linecap="round" stroke-linejoin="round"/>
<path d="M16.4688 13.09H14.5312C13.4612 13.09 12.5938 13.9574 12.5938 15.0275V16.965C12.5938 18.035 13.4612 18.9025 14.5312 18.9025H16.4688C17.5388 18.9025 18.4062 18.035 18.4062 16.965V15.0275C18.4062 13.9574 17.5388 13.09 16.4688 13.09Z" stroke="#6E2DFA" stroke-width="2" stroke-linecap="round" stroke-linejoin="round"/>
<path d="M28.0938 13.09H26.1562C25.0862 13.09 24.2188 13.9574 24.2188 15.0275V16.965C24.2188 18.035 25.0862 18.9025 26.1562 18.9025H28.0938C29.1638 18.9025 30.0312 18.035 30.0312 16.965V15.0275C30.0312 13.9574 29.1638 13.09 28.0938 13.09Z" stroke="#6E2DFA" stroke-width="2" stroke-linecap="round" stroke-linejoin="round"/>
<path d="M4.84375 24.715H2.90625C1.8362 24.715 0.96875 25.5824 0.96875 26.6525V28.59C0.96875 29.66 1.8362 30.5275 2.90625 30.5275H4.84375C5.9138 30.5275 6.78125 29.66 6.78125 28.59V26.6525C6.78125 25.5824 5.9138 24.715 4.84375 24.715Z" stroke="#6E2DFA" stroke-width="2" stroke-linecap="round" stroke-linejoin="round"/>
<path d="M16.4688 24.715H14.5312C13.4612 24.715 12.5938 25.5824 12.5938 26.6525V28.59C12.5938 29.66 13.4612 30.5275 14.5312 30.5275H16.4688C17.5388 30.5275 18.4062 29.66 18.4062 28.59V26.6525C18.4062 25.5824 17.5388 24.715 16.4688 24.715Z" stroke="#6E2DFA" stroke-width="2" stroke-linecap="round" stroke-linejoin="round"/>
<path d="M28.0938 24.715H26.1562C25.0862 24.715 24.2188 25.5824 24.2188 26.6525V28.59C24.2188 29.66 25.0862 30.5275 26.1562 30.5275H28.0938C29.1638 30.5275 30.0312 29.66 30.0312 28.59V26.6525C30.0312 25.5824 29.1638 24.715 28.0938 24.715Z" stroke="#6E2DFA" stroke-width="2" stroke-linecap="round" stroke-linejoin="round"/>
</g>
<defs>
<clipPath id="clip0_706_1735">
<rect width="31" height="31" fill="white" transform="translate(0 0.5)"/>
</clipPath>
</defs>
</svg>
