<svg width="32" height="31" viewBox="0 0 32 31" fill="none" xmlns="http://www.w3.org/2000/svg">
<g clip-path="url(#clip0_706_648)">
<path d="M14.6282 6.32129C15.4652 7.31907 15.9758 8.54959 16.0913 9.84678C16.2068 11.144 15.9216 12.4453 15.2741 13.5753C14.7005 13.6192 14.1316 13.4435 13.6827 13.0838C13.2337 12.724 12.9383 12.2072 12.8561 11.6378C11.9979 12.1065 11.2916 12.8108 10.8204 13.6676C10.3492 14.5244 10.1328 15.498 10.1965 16.4738C10.1962 17.2362 10.346 17.9912 10.6375 18.6957C10.929 19.4001 11.3564 20.0403 11.8953 20.5796C12.4342 21.1189 13.0741 21.5467 13.7784 21.8386C14.4827 22.1306 15.2376 22.281 16 22.2811C17.5327 22.2604 18.9968 21.6423 20.0807 20.5584C21.1646 19.4745 21.7827 18.0104 21.8034 16.4777C21.9975 14.2104 21.3839 11.9475 20.0709 10.089C18.7578 8.23042 16.8301 6.8959 14.6282 6.32129V6.32129Z" stroke="#30C6FF" stroke-width="2" stroke-linecap="round" stroke-linejoin="round"/>
<path d="M3.40626 5.06739V14.9021C3.40629 18.0107 4.3483 21.0463 6.10812 23.6088C7.86794 26.1713 10.3629 28.1403 13.2643 29.2564L14.6089 29.7731C15.5043 30.1175 16.4957 30.1175 17.3911 29.7731L18.7358 29.2564C21.6371 28.1403 24.1321 26.1713 25.8919 23.6088C27.6517 21.0463 28.5937 18.0107 28.5938 14.9021V5.06739C28.5962 4.6973 28.4917 4.33438 28.2928 4.02228C28.0939 3.71018 27.8091 3.46219 27.4726 3.30814C23.8555 1.73019 19.9462 0.933101 16 0.96893C12.0539 0.933101 8.14454 1.73019 4.52743 3.30814C4.19092 3.46219 3.90609 3.71018 3.70719 4.02228C3.50828 4.33438 3.40379 4.6973 3.40626 5.06739V5.06739Z" stroke="#30C6FF" stroke-width="2" stroke-linecap="round" stroke-linejoin="round"/>
</g>
<defs>
<clipPath id="clip0_706_648">
<rect width="31" height="31" fill="white" transform="translate(0.5)"/>
</clipPath>
</defs>
</svg>
