<svg width="32" height="31" viewBox="0 0 32 31" fill="none" xmlns="http://www.w3.org/2000/svg">
<g clip-path="url(#clip0_706_1141)">
<path d="M16 30.0312V18.4062" stroke="#30C6FF" stroke-width="2" stroke-linecap="round" stroke-linejoin="round"/>
<path d="M11.1562 23.25L16 18.4062L20.8437 23.25" stroke="#30C6FF" stroke-width="2" stroke-linecap="round" stroke-linejoin="round"/>
<path d="M22.7812 20.3439H24.2344C25.2223 20.3456 26.1968 20.1148 27.079 19.6702C27.9612 19.2256 28.7264 18.5796 29.3128 17.7845C29.8992 16.9894 30.2902 16.0675 30.4544 15.0933C30.6185 14.1191 30.5512 13.12 30.2577 12.1766C29.9642 11.2333 29.4529 10.3722 28.7651 9.66306C28.0773 8.9539 27.2323 8.41652 26.2983 8.09438C25.3644 7.77223 24.3678 7.67435 23.389 7.80866C22.4103 7.94296 21.4768 8.30567 20.6642 8.86748C20.3398 7.14049 19.5518 5.53424 18.3846 4.22074C17.2174 2.90723 15.7149 1.93594 14.0379 1.41087C12.361 0.885795 10.5729 0.826717 8.86497 1.23996C7.15706 1.6532 5.59371 2.5232 4.34232 3.75679C3.09093 4.99039 2.19863 6.54112 1.76098 8.24294C1.32332 9.94475 1.35678 11.7336 1.85779 13.4178C2.35879 15.1021 3.30847 16.6184 4.60512 17.8043C5.90177 18.9902 7.49657 19.8011 9.21874 20.1502" stroke="#30C6FF" stroke-width="2" stroke-linecap="round" stroke-linejoin="round"/>
</g>
<defs>
<clipPath id="clip0_706_1141">
<rect width="31" height="31" fill="white" transform="translate(0.5)"/>
</clipPath>
</defs>
</svg>
