<svg width="33" height="32" viewBox="0 0 33 32" fill="none" xmlns="http://www.w3.org/2000/svg">
<rect x="0.980713" y="0.5" width="31" height="31" rx="7.5" fill="white" stroke="#E0DBED"/>
<g clip-path="url(#clip0_577_7739)">
<path d="M16.4807 9.442C18.6167 9.442 18.87 9.45 19.714 9.48867C21.882 9.58733 22.8947 10.616 22.9934 12.768C23.032 13.6113 23.0394 13.8647 23.0394 16.0007C23.0394 18.1373 23.0314 18.39 22.9934 19.2333C22.894 21.3833 21.884 22.414 19.714 22.5127C18.87 22.5513 18.618 22.5593 16.4807 22.5593C14.3447 22.5593 14.0914 22.5513 13.248 22.5127C11.0747 22.4133 10.0674 21.38 9.96871 19.2327C9.93005 18.3893 9.92205 18.1367 9.92205 16C9.92205 13.864 9.93071 13.6113 9.96871 12.7673C10.068 10.616 11.078 9.58667 13.248 9.488C14.092 9.45 14.3447 9.442 16.4807 9.442ZM16.4807 8C14.308 8 14.036 8.00933 13.1827 8.048C10.2774 8.18133 8.66271 9.79333 8.52938 12.7013C8.49005 13.5553 8.48071 13.8273 8.48071 16C8.48071 18.1727 8.49005 18.4453 8.52871 19.2987C8.66205 22.204 10.274 23.8187 13.182 23.952C14.036 23.9907 14.308 24 16.4807 24C18.6534 24 18.926 23.9907 19.7794 23.952C22.682 23.8187 24.3007 22.2067 24.432 19.2987C24.4714 18.4453 24.4807 18.1727 24.4807 16C24.4807 13.8273 24.4714 13.5553 24.4327 12.702C24.302 9.79933 22.688 8.182 19.78 8.04867C18.926 8.00933 18.6534 8 16.4807 8V8ZM16.4807 11.892C14.212 11.892 12.3727 13.7313 12.3727 16C12.3727 18.2687 14.212 20.1087 16.4807 20.1087C18.7494 20.1087 20.5887 18.2693 20.5887 16C20.5887 13.7313 18.7494 11.892 16.4807 11.892ZM16.4807 18.6667C15.008 18.6667 13.814 17.4733 13.814 16C13.814 14.5273 15.008 13.3333 16.4807 13.3333C17.9534 13.3333 19.1474 14.5273 19.1474 16C19.1474 17.4733 17.9534 18.6667 16.4807 18.6667ZM20.7514 10.77C20.2207 10.77 19.7907 11.2 19.7907 11.73C19.7907 12.26 20.2207 12.69 20.7514 12.69C21.2814 12.69 21.7107 12.26 21.7107 11.73C21.7107 11.2 21.2814 10.77 20.7514 10.77Z" fill="#736B8E"/>
</g>
<defs>
<clipPath id="clip0_577_7739">
<rect width="16" height="16" fill="white" transform="translate(8.48071 8)"/>
</clipPath>
</defs>
</svg>
