<svg width="13" height="12" viewBox="0 0 13 12" fill="none" xmlns="http://www.w3.org/2000/svg">
<path d="M12.7091 0.17542C12.6267 0.0931246 12.5221 0.0365958 12.4081 0.0127307C12.2941 -0.0111344 12.1756 -0.00130386 12.0671 0.0410229L1.2673 4.24094C1.15408 4.28494 1.05688 4.36227 0.988558 4.4627C0.920234 4.56313 0.884002 4.68193 0.884652 4.8034C0.885302 4.92486 0.922804 5.04327 0.992199 5.14296C1.06159 5.24266 1.15961 5.31894 1.2733 5.36172L5.81881 7.06569L7.52278 11.6112C7.56574 11.7254 7.64251 11.8238 7.74285 11.8933C7.84319 11.9628 7.96233 12 8.08437 12C8.2053 12 8.32339 11.9634 8.42318 11.8951C8.52297 11.8268 8.59978 11.7299 8.64356 11.6172L12.8435 0.817408C12.8858 0.708902 12.8956 0.590422 12.8718 0.476424C12.8479 0.362425 12.7914 0.257837 12.7091 0.17542Z" fill="#736B8E"/>
</svg>
