<svg width="135" height="48" viewBox="0 0 135 48" fill="none" xmlns="http://www.w3.org/2000/svg">
<path fill-rule="evenodd" clip-rule="evenodd" d="M25.4807 46.3536C12.6229 46.3536 2.15995 36.3245 2.15995 24C2.15995 11.6755 12.6203 1.64644 25.4807 1.64644C38.3385 1.64644 48.8015 11.673 48.8015 24C48.8015 36.3245 38.3385 46.3536 25.4807 46.3536ZM24.8376 28.9068C23.7447 23.2557 23.1434 22.6443 21.7996 21.0354C21.5878 21.8148 21.41 22.1932 20.4035 21.8072C19.0544 21.2885 17.24 19.4541 17.0439 19.1108C16.989 19.7674 16.9864 20.5167 17.3341 21.1732C16.3982 20.6545 14.7432 19.5318 14.0399 18.3039C13.8962 18.9654 13.7863 19.6621 13.8935 20.3237C13.2216 19.7649 11.2896 18.4642 10.7797 17.2639C10.6203 17.9756 10.5314 18.4943 10.7693 19.0907C8.3457 17.2563 7.73392 14.8431 7.48555 12.525C5.99271 23.777 14.0504 21.3812 20.0375 24.2255C21.58 24.9623 23.1486 26.2805 24.8376 28.9068ZM26.1239 28.9068C27.2167 23.2557 27.818 22.6443 29.1618 21.0354C29.3736 21.8148 29.5514 22.1932 30.558 21.8072C31.907 21.2885 33.7214 19.4541 33.9175 19.1108C33.9724 19.7674 33.975 20.5167 33.6273 21.1732C34.5633 20.6545 36.2182 19.5318 36.9215 18.3039C37.0653 18.9654 37.1751 19.6621 37.0679 20.3237C37.7398 19.7649 39.6719 18.4642 40.1817 17.2639C40.3412 17.9756 40.4301 18.4943 40.1922 19.0907C42.6157 17.2563 43.2275 14.8431 43.4759 12.525C44.9687 23.777 36.911 21.3812 30.924 24.2255C29.3788 24.9623 27.8128 26.2805 26.1239 28.9068ZM30.707 15.5021L32.6443 4.07226C28.0376 2.55111 22.929 2.55111 18.3198 4.07226L20.2545 15.5021C22.1264 15.9332 23.8519 18.369 25.4807 22.1656C27.1095 18.3665 28.835 15.9307 30.707 15.5021ZM39.7033 16.0234L41.7765 9.85361C41.5334 9.59549 41.2824 9.34489 41.0262 9.0993C38.9242 7.08447 36.3986 5.47562 33.5881 4.40555L31.8443 15.1087C34.5345 14.6526 37.1333 15.1989 39.7033 16.0234ZM42.0667 21.8699L47.0969 20.1382C46.7492 18.3314 46.1583 16.6073 45.3635 14.9934C45.2145 17.4242 44.404 19.7573 42.0667 21.8699ZM45.3138 27.8918L47.076 27.957C47.2511 27.0699 47.3688 26.1627 47.4263 25.238L45.9047 25.1277C45.9073 25.9221 45.5779 26.9771 45.3138 27.8918ZM47.2459 21.0179L41.2484 24.4837L47.4655 24.0175V23.9975C47.4655 22.9876 47.3897 21.9927 47.2459 21.0179ZM40.2 34.7533L42.9608 36.7781C44.872 34.3774 46.2603 31.5731 46.9557 28.5208L45.1387 28.2953C44.0249 31.0419 42.3804 33.1745 40.2 34.7533ZM34.4613 37.3846L38.9843 40.6298C39.7006 40.0936 40.383 39.5172 41.0262 38.9007C41.468 38.4772 41.8889 38.0361 42.2916 37.58L42.2942 37.5725L39.4653 35.252C38.0117 36.1767 36.3437 36.8809 34.4613 37.3846ZM31.1227 38.0361C30.2285 41.1887 28.5344 43.5017 25.7526 44.3889V45.0705C30.3671 45.0179 34.6391 43.5995 38.1529 41.2213L33.324 37.6577C32.6181 37.8106 31.8835 37.9359 31.1227 38.0361ZM30.524 25.3557L29.2063 30.6259C36.3698 31.1045 38.8745 28.2326 39.2483 23.8321L35.1071 24.5563C35.2979 24.8571 35.4077 25.2079 35.4077 25.5863C35.4077 26.6814 34.4822 27.5686 33.3397 27.5686C32.1972 27.5686 31.2717 26.6814 31.2717 25.5863C31.2717 25.461 31.2848 25.3382 31.3083 25.2204L30.524 25.3557ZM43.2667 25.2229L40.9399 25.2104C39.8627 31.1421 35.5306 32.5029 30.5135 32.6382L28.537 37.4547C37.949 37.0412 42.9504 31.4128 43.2667 25.2229ZM28.639 29.3278L25.4807 31.1546L22.3225 29.3278L21.5983 32.8186L25.4807 40.1487L29.3632 32.8186L28.639 29.3278ZM19.1198 15.1087L17.376 4.40555C14.5654 5.47562 12.0399 7.08447 9.93789 9.0993C9.68168 9.34489 9.43069 9.59799 9.18755 9.85361L11.2608 16.0234C13.8282 15.1989 16.4269 14.6526 19.1198 15.1087ZM5.59793 14.9959C4.80053 16.6098 4.21228 18.3339 3.86456 20.1408L8.89474 21.8724C6.55743 19.7573 5.74695 17.4242 5.59793 14.9959ZM5.05674 25.1277L3.53514 25.238C3.59004 26.1627 3.70769 27.0699 3.88547 27.957L5.6476 27.8918C5.38093 26.9771 5.05413 25.9221 5.05674 25.1277ZM3.71554 21.0179C3.57174 21.9927 3.49592 22.9876 3.49592 24V24.02L9.71305 24.4862L3.71554 21.0179ZM5.82016 28.2978L4.00312 28.5233C4.69856 31.5756 6.08683 34.3799 7.99798 36.7806L10.7588 34.7558C8.581 33.1745 6.93652 31.0419 5.82016 28.2978ZM11.4961 35.2545L8.66728 37.575L8.66989 37.5825C9.07252 38.0386 9.49344 38.4797 9.93528 38.9032C10.5784 39.5197 11.2582 40.0961 11.9745 40.6323L16.4975 37.3871C14.6177 36.8809 12.9497 36.1767 11.4961 35.2545ZM19.8388 38.0361C19.078 37.9359 18.3433 37.8081 17.6374 37.6577L12.8085 41.2213C16.3223 43.5995 20.5943 45.0179 25.2088 45.0705V44.3889C22.4271 43.5042 20.7329 41.1887 19.8388 38.0361ZM20.4375 25.3557L19.6531 25.2179C19.6767 25.3357 19.6897 25.4585 19.6897 25.5838C19.6897 26.6789 18.7642 27.566 17.6217 27.566C16.4792 27.566 15.5537 26.6789 15.5537 25.5838C15.5537 25.2054 15.6635 24.8545 15.8544 24.5538L11.7131 23.8296C12.087 28.2301 14.5916 31.102 21.7551 30.6234L20.4375 25.3557ZM10.0189 25.2129L7.69209 25.2254C8.01105 31.4128 13.0125 37.0412 22.4218 37.4572L20.4453 32.6407C15.4282 32.5054 11.0961 31.1421 10.0189 25.2129ZM25.4807 0C11.6739 0 0.442261 10.7658 0.442261 24C0.442261 37.2342 11.6739 48 25.4807 48C39.2876 48 50.5192 37.2342 50.5192 24C50.5192 10.7658 39.2876 0 25.4807 0Z" fill="#6E2DFA"/>
<path d="M71.0654 21.925C72.5987 22.8083 73.3654 24.1417 73.3654 25.925C73.3654 27.4083 72.8404 28.625 71.7904 29.575C70.7404 30.525 69.4487 31 67.9154 31H60.4904V13.5H67.3904C68.8737 13.5 70.132 13.9667 71.1654 14.9C72.1987 15.8333 72.7154 17.0083 72.7154 18.425C72.7154 19.875 72.1654 21.0417 71.0654 21.925ZM67.3904 16.725H63.9404V20.575H67.3904C67.9237 20.575 68.3654 20.3917 68.7154 20.025C69.082 19.6583 69.2654 19.2 69.2654 18.65C69.2654 18.1 69.0904 17.6417 68.7404 17.275C68.3904 16.9083 67.9404 16.725 67.3904 16.725ZM63.9404 27.775H67.9154C68.4987 27.775 68.982 27.5833 69.3654 27.2C69.7487 26.8 69.9404 26.3 69.9404 25.7C69.9404 25.1167 69.7487 24.6333 69.3654 24.25C68.982 23.85 68.4987 23.65 67.9154 23.65H63.9404V27.775ZM83.9956 25.25V18.5H87.2206V31H83.9956V29.6C83.229 30.7667 81.9873 31.35 80.2706 31.35C78.904 31.35 77.7706 30.8917 76.8706 29.975C75.9873 29.0417 75.5456 27.775 75.5456 26.175V18.5H78.7706V25.775C78.7706 26.5917 78.9873 27.225 79.4206 27.675C79.8706 28.125 80.479 28.35 81.2456 28.35C82.0956 28.35 82.7623 28.0917 83.2456 27.575C83.7456 27.0417 83.9956 26.2667 83.9956 25.25ZM99.6493 19.975V13.5H102.874V31H99.6493V29.525C98.6993 30.7417 97.3493 31.35 95.5993 31.35C93.916 31.35 92.4743 30.7167 91.2743 29.45C90.091 28.1667 89.4993 26.6 89.4993 24.75C89.4993 22.9167 90.091 21.3583 91.2743 20.075C92.4743 18.7917 93.916 18.15 95.5993 18.15C97.3493 18.15 98.6993 18.7583 99.6493 19.975ZM93.6993 27.3C94.3827 27.95 95.216 28.275 96.1993 28.275C97.1993 28.275 98.0243 27.95 98.6743 27.3C99.3243 26.6333 99.6493 25.7833 99.6493 24.75C99.6493 23.7167 99.3243 22.875 98.6743 22.225C98.0243 21.5583 97.1993 21.225 96.1993 21.225C95.1993 21.225 94.366 21.5583 93.6993 22.225C93.0493 22.875 92.7243 23.7167 92.7243 24.75C92.7243 25.7833 93.0493 26.6333 93.6993 27.3ZM113.099 18.15C114.782 18.15 116.215 18.7917 117.399 20.075C118.599 21.3583 119.199 22.9167 119.199 24.75C119.199 26.6167 118.599 28.1833 117.399 29.45C116.232 30.7167 114.799 31.35 113.099 31.35C111.349 31.35 109.999 30.7417 109.049 29.525V31H105.824V13.5H109.049V19.975C109.999 18.7583 111.349 18.15 113.099 18.15ZM110.024 27.3C110.674 27.95 111.499 28.275 112.499 28.275C113.499 28.275 114.324 27.95 114.974 27.3C115.64 26.6333 115.974 25.7833 115.974 24.75C115.974 23.7167 115.64 22.875 114.974 22.225C114.324 21.5583 113.499 21.225 112.499 21.225C111.499 21.225 110.674 21.5583 110.024 22.225C109.374 22.875 109.049 23.7167 109.049 24.75C109.049 25.7833 109.374 26.6333 110.024 27.3ZM132.123 29.45C130.857 30.7167 129.29 31.35 127.423 31.35C125.557 31.35 123.99 30.7167 122.723 29.45C121.457 28.1833 120.823 26.6167 120.823 24.75C120.823 22.9 121.457 21.3417 122.723 20.075C124.007 18.7917 125.573 18.15 127.423 18.15C129.273 18.15 130.84 18.7917 132.123 20.075C133.407 21.3583 134.048 22.9167 134.048 24.75C134.048 26.6 133.407 28.1667 132.123 29.45ZM124.998 27.225C125.648 27.875 126.457 28.2 127.423 28.2C128.39 28.2 129.198 27.875 129.848 27.225C130.498 26.575 130.823 25.75 130.823 24.75C130.823 23.75 130.498 22.925 129.848 22.275C129.198 21.625 128.39 21.3 127.423 21.3C126.457 21.3 125.648 21.625 124.998 22.275C124.365 22.9417 124.048 23.7667 124.048 24.75C124.048 25.7333 124.365 26.5583 124.998 27.225Z" fill="black"/>
</svg>
