<svg width="32" height="32" viewBox="0 0 32 32" fill="none" xmlns="http://www.w3.org/2000/svg">
<g clip-path="url(#clip0_706_1492)">
<path d="M2.43738 20.8437V13.0937C2.43738 12.5799 2.64151 12.0871 3.00486 11.7237C3.36821 11.3604 3.86102 11.1563 4.37488 11.1562H6.31238" stroke="#FF9644" stroke-width="2" stroke-linecap="round" stroke-linejoin="round"/>
<path d="M2.43738 16.9688H5.34363" stroke="#FF9644" stroke-width="2" stroke-linecap="round" stroke-linejoin="round"/>
<path d="M10.1874 20.8437V11.1562" stroke="#FF9644" stroke-width="2" stroke-linecap="round" stroke-linejoin="round"/>
<path d="M10.1874 11.1562H11.6405C12.2828 11.1562 12.8988 11.4114 13.353 11.8656C13.8072 12.3198 14.0624 12.9358 14.0624 13.5781C14.0624 14.2204 13.8072 14.8365 13.353 15.2906C12.8988 15.7448 12.2828 16 11.6405 16H10.1874" stroke="#FF9644" stroke-width="2" stroke-linecap="round" stroke-linejoin="round"/>
<path d="M14.0624 20.8437L11.1561 16" stroke="#FF9644" stroke-width="2" stroke-linecap="round" stroke-linejoin="round"/>
<path d="M21.8124 20.8437H19.8749C19.361 20.8437 18.8682 20.6396 18.5049 20.2763C18.1415 19.9129 17.9374 19.4201 17.9374 18.9062V13.0937C17.9374 12.5799 18.1415 12.0871 18.5049 11.7237C18.8682 11.3604 19.361 11.1563 19.8749 11.1562H21.8124" stroke="#FF9644" stroke-width="2" stroke-linecap="round" stroke-linejoin="round"/>
<path d="M17.9374 16.9688H21.8124" stroke="#FF9644" stroke-width="2" stroke-linecap="round" stroke-linejoin="round"/>
<path d="M29.5624 20.8437H27.6249C27.111 20.8437 26.6182 20.6396 26.2549 20.2763C25.8915 19.9129 25.6874 19.4201 25.6874 18.9062V13.0937C25.6874 12.5799 25.8915 12.0871 26.2549 11.7237C26.6182 11.3604 27.111 11.1563 27.6249 11.1562H29.5624" stroke="#FF9644" stroke-width="2" stroke-linecap="round" stroke-linejoin="round"/>
<path d="M25.6874 16.9688H29.5624" stroke="#FF9644" stroke-width="2" stroke-linecap="round" stroke-linejoin="round"/>
<path d="M30.5311 24.7188V28.5937C30.5311 29.1076 30.327 29.6004 29.9636 29.9638C29.6003 30.3271 29.1075 30.5312 28.5936 30.5312H3.40613C2.89227 30.5312 2.39946 30.3271 2.03611 29.9638C1.67276 29.6004 1.46863 29.1076 1.46863 28.5937V24.7188" stroke="#FF9644" stroke-width="2" stroke-linecap="round" stroke-linejoin="round"/>
<path d="M1.46863 7.28125V3.40625C1.46863 2.89239 1.67276 2.39958 2.03611 2.03623C2.39946 1.67288 2.89227 1.46875 3.40613 1.46875H28.5936C29.1075 1.46875 29.6003 1.67288 29.9636 2.03623C30.327 2.39958 30.5311 2.89239 30.5311 3.40625V7.28125" stroke="#FF9644" stroke-width="2" stroke-linecap="round" stroke-linejoin="round"/>
</g>
<defs>
<clipPath id="clip0_706_1492">
<rect width="31" height="31" fill="white" transform="translate(0.499878 0.5)"/>
</clipPath>
</defs>
</svg>
