<svg width="25" height="24" viewBox="0 0 25 24" fill="none" xmlns="http://www.w3.org/2000/svg">
<g clip-path="url(#clip0_126_47096)">
<path d="M12.5 10.1429C13.9201 10.1429 15.0714 8.99159 15.0714 7.57143C15.0714 6.15127 13.9201 5 12.5 5C11.0798 5 9.92853 6.15127 9.92853 7.57143C9.92853 8.99159 11.0798 10.1429 12.5 10.1429Z" stroke="#6E2DFA" stroke-width="1.71429" stroke-linecap="round" stroke-linejoin="round"/>
<path d="M1.35712 7.57153H9.92854" stroke="#6E2DFA" stroke-width="1.71429" stroke-linecap="round" stroke-linejoin="round"/>
<path d="M15.0714 7.57153H23.6428" stroke="#6E2DFA" stroke-width="1.71429" stroke-linecap="round" stroke-linejoin="round"/>
<path d="M21.0714 18.7144C22.4916 18.7144 23.6429 17.5631 23.6429 16.143C23.6429 14.7228 22.4916 13.5715 21.0714 13.5715C19.6513 13.5715 18.5 14.7228 18.5 16.143C18.5 17.5631 19.6513 18.7144 21.0714 18.7144Z" stroke="#6E2DFA" stroke-width="1.71429" stroke-linecap="round" stroke-linejoin="round"/>
<path d="M18.5 16.1428H1.35712" stroke="#6E2DFA" stroke-width="1.71429" stroke-linecap="round" stroke-linejoin="round"/>
</g>
<defs>
<clipPath id="clip0_126_47096">
<rect width="24" height="24" fill="white" transform="translate(0.5)"/>
</clipPath>
</defs>
</svg>
