<svg width="56" height="56" viewBox="0 0 56 56" fill="none" xmlns="http://www.w3.org/2000/svg">
<path d="M21.0327 13.9478C23.9733 12.491 27.2969 11.993 30.5354 12.5243C33.7738 13.0555 36.764 14.589 39.0852 16.909" stroke="#01D9B1" stroke-width="3.5" stroke-linecap="round" stroke-linejoin="round"/>
<path d="M35.1995 41.9288C32.4067 43.3699 29.2453 43.939 26.1252 43.5619C23.005 43.1848 20.0701 41.8793 17.7008 39.8143C15.3315 37.7493 13.6371 35.0205 12.8373 31.9811C12.0376 28.9417 12.1692 25.7322 13.2152 22.7686" stroke="#01D9B1" stroke-width="3.5" stroke-linecap="round" stroke-linejoin="round"/>
<path d="M43.6769 27.9941C43.6773 29.1662 43.5474 30.3345 43.2891 31.4778" stroke="#01D9B1" stroke-width="3.5" stroke-linecap="round" stroke-linejoin="round"/>
<path d="M54.1278 27.9942C54.1304 34.0387 52.0372 39.8972 48.2047 44.5716C44.3722 49.2457 39.0377 52.4466 33.1099 53.6286C27.182 54.8109 21.0276 53.9009 15.6954 51.0543C10.3631 48.2076 6.18281 43.6002 3.8667 38.017C1.5506 32.4338 1.24198 26.2201 2.99342 20.435C4.74487 14.6497 8.44803 9.6507 13.472 6.28963C18.4959 2.92856 24.5297 1.41339 30.5455 2.00225C36.5613 2.59111 42.187 5.24759 46.4638 9.51908" stroke="#6E2DFA" stroke-width="3.5" stroke-linecap="round" stroke-linejoin="round"/>
<path d="M1.87256 27.9941H54.1278" stroke="#6E2DFA" stroke-width="3.5" stroke-linecap="round" stroke-linejoin="round"/>
<path d="M28 1.86621V54.1216" stroke="#6E2DFA" stroke-width="3.5" stroke-linecap="round" stroke-linejoin="round"/>
<path d="M28 27.9939L48.902 7.0918" stroke="#6E2DFA" stroke-width="3.5" stroke-linecap="round" stroke-linejoin="round"/>
<path d="M14.9362 17.5436C14.4552 17.5436 14.0652 17.1537 14.0652 16.6727C14.0652 16.1917 14.4552 15.8018 14.9362 15.8018" stroke="#01D9B1" stroke-width="3.5"/>
<path d="M14.9364 17.5436C15.4174 17.5436 15.8073 17.1537 15.8073 16.6727C15.8073 16.1917 15.4174 15.8018 14.9364 15.8018" stroke="#01D9B1" stroke-width="3.5"/>
<path d="M41.0639 38.4459C40.583 38.4459 40.1931 38.056 40.1931 37.5751C40.1931 37.094 40.583 36.7041 41.0639 36.7041" stroke="#01D9B1" stroke-width="3.5"/>
<path d="M41.0637 38.4459C41.5446 38.4459 41.9345 38.056 41.9345 37.5751C41.9345 37.094 41.5446 36.7041 41.0637 36.7041" stroke="#01D9B1" stroke-width="3.5"/>
</svg>
