<svg width="8" height="8" viewBox="0 0 8 8" fill="none" xmlns="http://www.w3.org/2000/svg">
<path d="M4.47463 7.89977L7.89937 4.25413C7.93106 4.22109 7.95627 4.18169 7.97355 4.13822C7.99082 4.09474 7.99981 4.04805 7.99999 4.00086C8.00025 3.95391 7.99179 3.90737 7.9751 3.86391C7.9584 3.82045 7.93381 3.78092 7.90272 3.74759L4.47463 0.105516C4.44345 0.0720818 4.40635 0.0455441 4.36547 0.0274341C4.3246 0.00932408 4.28076 1.45163e-07 4.23648 1.46891e-07C4.19219 1.4862e-07 4.14835 0.00932409 4.10748 0.0274341C4.0666 0.0455441 4.0295 0.0720818 3.99832 0.105516L3.07589 1.08649C3.01543 1.153 2.98164 1.24189 2.98164 1.3344C2.98164 1.42691 3.01543 1.51581 3.07589 1.58232L4.1023 2.73808C4.1106 2.7526 4.11498 2.76926 4.11498 2.78624C4.11498 2.80322 4.1106 2.81988 4.1023 2.8344C4.09576 2.85035 4.08496 2.86391 4.07125 2.87342C4.05755 2.88293 4.04152 2.88796 4.02515 2.8879L0.335429 2.8879C0.246467 2.8879 0.161151 2.92549 0.0982455 2.99238C0.0353402 3.05928 -1.56074e-07 3.15001 -1.60761e-07 3.24462L-2.31458e-07 4.67148C-2.36146e-07 4.76609 0.0353401 4.85682 0.0982454 4.92372C0.161151 4.99062 0.246467 5.0282 0.335429 5.0282L4.02515 5.0282C4.04152 5.02814 4.05755 5.03317 4.07125 5.04268C4.08496 5.05219 4.09576 5.06576 4.1023 5.08171C4.11025 5.09635 4.11444 5.11296 4.11444 5.12986C4.11444 5.14677 4.11025 5.16338 4.1023 5.17802L3.0457 6.42296C2.98721 6.48912 2.95465 6.57651 2.95465 6.66731C2.95465 6.75812 2.98721 6.84551 3.0457 6.91166L4.00838 7.89977C4.07093 7.96406 4.15452 8 4.24151 8C4.3285 8 4.41208 7.96406 4.47463 7.89977Z" fill="#6E2DFA"/>
</svg>
