<svg width="32" height="31" viewBox="0 0 32 31" fill="none" xmlns="http://www.w3.org/2000/svg">
<g clip-path="url(#clip0_599_763)">
<path d="M4.85937 25.1875C6.73197 25.1875 8.25 23.6694 8.25 21.7969C8.25 19.9243 6.73197 18.4062 4.85937 18.4062C2.98678 18.4062 1.46875 19.9243 1.46875 21.7969C1.46875 23.6694 2.98678 25.1875 4.85937 25.1875Z" stroke="#6E2DFA" stroke-width="2" stroke-linecap="round" stroke-linejoin="round"/>
<path d="M10.2056 29.6866C9.86305 28.8863 9.34511 28.1731 8.69003 27.5998C8.03494 27.0264 7.25943 26.6075 6.42078 26.3741C5.58211 26.1406 4.70173 26.0985 3.84462 26.2509C2.9875 26.4032 2.17556 26.7461 1.46875 27.2544" stroke="#6E2DFA" stroke-width="2" stroke-linecap="round" stroke-linejoin="round"/>
<path d="M27.1406 25.1875C29.0132 25.1875 30.5312 23.6694 30.5312 21.7969C30.5312 19.9243 29.0132 18.4062 27.1406 18.4062C25.2681 18.4062 23.75 19.9243 23.75 21.7969C23.75 23.6694 25.2681 25.1875 27.1406 25.1875Z" stroke="#6E2DFA" stroke-width="2" stroke-linecap="round" stroke-linejoin="round"/>
<path d="M21.7944 29.6866C22.137 28.8863 22.6548 28.1731 23.3099 27.5998C23.965 27.0264 24.7404 26.6075 25.5791 26.3741C26.4178 26.1406 27.2982 26.0985 28.1553 26.2509C29.0125 26.4032 29.8244 26.7461 30.5312 27.2544" stroke="#6E2DFA" stroke-width="2" stroke-linecap="round" stroke-linejoin="round"/>
<path d="M12.7702 17.8994C12.0679 18.6733 11.64 19.7006 11.64 20.828C11.64 23.2357 13.5918 25.1874 15.9993 25.1874C18.407 25.1874 20.3587 23.2357 20.3587 20.828C20.3587 19.7006 19.9308 18.6733 19.2285 17.8994" stroke="#6E2DFA" stroke-width="2" stroke-linecap="round" stroke-linejoin="round"/>
<path d="M22.0889 30.03C21.3545 29.1227 20.4264 28.391 19.3729 27.8884C18.3193 27.3858 17.1668 27.125 15.9993 27.125C14.8321 27.125 13.6795 27.3858 12.6259 27.8884C11.5723 28.391 10.6444 29.1227 9.90982 30.03" stroke="#6E2DFA" stroke-width="2" stroke-linecap="round" stroke-linejoin="round"/>
<path d="M21.4844 14.902C22.3838 14.4241 23.2117 13.8224 23.9437 13.1143C25.7961 11.3316 26.9038 8.91298 27.0438 6.34596C24.4627 6.48141 22.0262 7.57918 20.2147 9.42271C19.4978 10.1331 18.3082 11.6263 18.3082 11.6263C18.9154 10.4026 19.2319 9.05531 19.233 7.68929C19.232 6.41763 18.9604 5.16073 18.4364 4.00205C17.9124 2.84336 17.1479 1.80938 16.1937 0.96875C14.677 2.29649 13.6556 4.09957 13.2966 6.08314C12.9377 8.06671 13.2623 10.1134 14.2175 11.8885C13.5821 11.0294 12.8995 10.2062 12.1728 9.42271C10.3613 7.57918 7.92477 6.48141 5.34375 6.34596C5.4837 8.91298 6.59144 11.3316 8.44375 13.1143C9.1744 13.8218 10.0005 14.4235 10.8979 14.902" stroke="#01D9B1" stroke-width="2" stroke-linecap="round" stroke-linejoin="round"/>
</g>
<defs>
<clipPath id="clip0_599_763">
<rect width="31" height="31" fill="white" transform="translate(0.5)"/>
</clipPath>
</defs>
</svg>
