<svg width="31" height="32" viewBox="0 0 31 32" fill="none" xmlns="http://www.w3.org/2000/svg">
<g clip-path="url(#clip0_706_1539)">
<path d="M24.3981 13.175C24.3979 15.3707 23.7802 17.5221 22.6156 19.3834C21.4509 21.2448 19.7863 22.741 17.8117 23.7014C15.8372 24.6617 13.6324 25.0473 11.4491 24.8143C9.26588 24.5812 7.19216 23.7388 5.46484 22.3833" stroke="#FF9644" stroke-width="2" stroke-linecap="round" stroke-linejoin="round"/>
<path d="M1.03307 14.2317C1.00207 13.8873 0.986572 13.5351 0.986572 13.1751C0.986222 10.8723 1.66517 8.62047 2.93842 6.70162C4.21167 4.78276 6.02265 3.28212 8.14465 2.38754C10.2667 1.49296 12.6054 1.2442 14.8681 1.67239C17.1308 2.10058 19.2169 3.18671 20.8653 4.7948" stroke="#FF9644" stroke-width="2" stroke-linecap="round" stroke-linejoin="round"/>
<path d="M20.9702 21.4521L30.0313 30.5313" stroke="#FF9644" stroke-width="2" stroke-linecap="round" stroke-linejoin="round"/>
<path d="M30.0313 8.66462V2.4375H23.8223" stroke="#FF9644" stroke-width="2" stroke-linecap="round" stroke-linejoin="round"/>
<path d="M0.968628 21.8125L11.7153 11.0697C11.9448 10.8407 12.2558 10.7121 12.5801 10.7121C12.9043 10.7121 13.2153 10.8407 13.4448 11.0697L16.6043 14.2304C16.7177 14.3441 16.8525 14.4343 17.0009 14.4958C17.1493 14.5574 17.3084 14.5891 17.469 14.5891C17.6297 14.5891 17.7887 14.5574 17.9371 14.4958C18.0855 14.4343 18.2203 14.3441 18.3338 14.2304L30.0311 2.4375" stroke="#FF9644" stroke-width="2" stroke-linecap="round" stroke-linejoin="round"/>
</g>
<defs>
<clipPath id="clip0_706_1539">
<rect width="31" height="31" fill="white" transform="translate(-0.00012207 0.5)"/>
</clipPath>
</defs>
</svg>
