<svg width="141" height="133" viewBox="0 0 141 133" fill="none" xmlns="http://www.w3.org/2000/svg">
<path d="M60.8659 16.5141C84.5698 21.6375 109.249 46.9498 115.995 73.044C120.41 90.1319 116.042 103.318 105.842 108.944C100.468 111.913 93.47 112.783 85.2858 111.011C61.5858 105.887 36.9055 80.5793 30.1589 54.4849C26.2712 39.4447 29.1928 27.4277 36.9055 20.9242C42.5695 16.1428 50.8229 14.3417 60.8659 16.5141Z" fill="#FFE8CC"/>
<path d="M27.2805 16.4892C27.2645 16.5091 27.2508 16.5243 27.2371 16.5446C27.0924 16.7184 26.9484 16.9 26.8098 17.0777C26.6754 17.2472 26.546 17.4151 26.422 17.5895C26.4088 17.6022 26.3937 17.6184 26.383 17.6356C26.2664 17.792 26.1535 17.948 26.0455 18.1077C26.018 18.1433 25.9911 18.1816 25.9691 18.2184C25.8411 18.3957 25.7191 18.577 25.6024 18.7608C25.4699 18.9528 25.3452 19.1465 25.2266 19.3442C25.1033 19.5421 24.9811 19.7403 24.8638 19.9421C24.6211 20.3622 24.3856 20.7865 24.1628 21.2214C24.0857 21.367 24.0138 21.5099 23.9433 21.657C23.9016 21.7363 23.8605 21.8183 23.8243 21.8988C23.7337 22.0792 23.6482 22.2633 23.5656 22.4494C23.5596 22.461 23.5538 22.4715 23.5508 22.4851C23.4601 22.6824 23.371 22.8826 23.2849 23.0848C23.0623 23.5978 22.8527 24.1253 22.6636 24.6599C22.5792 24.8859 22.4985 25.1114 22.4241 25.3395C22.3461 25.5734 22.2665 25.8096 22.1932 26.0484C22.1451 26.2043 22.098 26.3604 22.0513 26.5205C22.0311 26.5811 22.0147 26.6399 21.9975 26.7025C21.9461 26.8733 21.8985 27.0475 21.8527 27.2247C21.8041 27.3988 21.7585 27.5747 21.7151 27.7564C21.5961 28.2141 21.4909 28.6826 21.3937 29.1515C20.7995 31.9733 20.5132 35.0162 20.5623 38.2602C20.6148 41.942 21.1006 45.8801 22.047 50.0339C22.2196 50.8027 22.4106 51.5769 22.6166 52.3621L16.8653 59.285C16.6945 58.6401 16.535 57.9964 16.3854 57.3601C15.4188 53.2292 14.9055 49.3006 14.8158 45.6302C14.742 42.546 14.9642 39.6372 15.4654 36.9277C16.4555 31.5917 18.526 27.0274 21.5273 23.4155L27.2805 16.4892Z" fill="#FFB80D"/>
<path d="M101.932 106.346L107.687 99.4211C102.598 105.544 94.0646 108.158 83.263 105.821C61.5223 101.12 38.8326 78.1426 32.5829 54.498L26.8277 61.4226C33.0786 85.0674 55.7672 108.044 77.5067 112.746C88.3094 115.083 96.8447 112.467 101.932 106.346Z" fill="url(#paint0_linear_126_46942)"/>
<path d="M112.597 71.8216C118.846 95.4646 106.289 110.823 84.5458 106.117C62.2504 101.296 38.5181 77.0432 33.2139 52.0495C28.616 29.9785 41.0254 15.9771 61.9117 20.4948C83.8544 25.2406 106.45 48.4467 112.597 71.8216ZM22.6637 24.6631C18.1445 36.7998 20.7893 51.9599 27.9112 66.5685C40.728 92.8555 68.004 117.356 93.8336 119.279C93.8587 119.28 94.9019 119.368 94.9278 119.36C119.549 121.041 131.522 100.093 123.276 72.2301C114.514 42.5559 86.0142 14.1776 58.6816 8.26383C37.5507 3.69504 26.4561 13.9756 22.6637 24.6631Z" fill="url(#paint1_linear_126_46942)"/>
<path d="M22.5011 52.2855C23.7562 57.0363 25.527 61.7625 27.7332 66.388C28.1188 67.1932 28.5143 67.9953 28.93 68.7954C30.8677 72.5777 33.0934 76.2814 35.5526 79.8492C36.9609 81.8895 38.4421 83.8872 39.996 85.8334C40.2426 86.1385 40.4889 86.4449 40.7364 86.7464C41.0101 87.0861 41.2846 87.4169 41.5633 87.7499C54.3057 102.993 71.1979 114.712 87.6618 118.272C101.551 121.275 112.523 117.916 119.062 110.046L113.31 116.969C106.769 124.839 95.7949 128.202 81.9094 125.2C65.3266 121.612 48.3162 109.757 35.5439 94.355C35.2414 93.9933 34.9422 93.6272 34.648 93.2596C34.4089 92.9677 34.1697 92.6707 33.9358 92.3709C32.2515 90.2388 30.6473 88.0475 29.1381 85.803C27.0148 82.6498 25.0767 79.3968 23.356 76.0757C22.9134 75.219 22.4813 74.362 22.0674 73.496C19.8263 68.8134 18.0211 64.0224 16.7498 59.2082L22.5011 52.2855Z" fill="#FFB80D"/>
<path d="M119.053 110.093L113.301 117.016C106.76 124.885 95.7858 128.249 81.8993 125.247C81.2548 125.109 80.607 124.955 79.9608 124.789L84.0251 117.406C85.2331 117.754 86.4463 118.058 87.6527 118.319C101.542 121.322 112.515 117.962 119.053 110.093Z" fill="#EDA700"/>
<path d="M55.4794 102.697C56.1195 103.209 56.7655 103.714 57.4148 104.21" stroke="url(#paint2_linear_126_46942)" stroke-width="0.00393672" stroke-miterlimit="10" stroke-linecap="round" stroke-linejoin="round"/>
<path d="M48.6916 95.6008C50.8378 97.7202 53.0575 99.7516 55.3359 101.672" stroke="url(#paint3_linear_126_46942)" stroke-width="0.00393672" stroke-miterlimit="10" stroke-linecap="round" stroke-linejoin="round"/>
<path d="M45.3486 91.5684C45.5177 91.7519 45.6844 91.9363 45.8527 92.1207" stroke="url(#paint4_linear_126_46942)" stroke-width="0.00393672" stroke-miterlimit="10" stroke-linecap="round"/>
<path d="M29.7822 69.1942C33.7509 76.7107 38.8578 84.0422 44.7235 90.6865" stroke="url(#paint5_linear_126_46942)" stroke-width="0.00393672" stroke-miterlimit="10" stroke-linecap="round"/>
<path d="M21.3152 29.3112C21.2316 29.6921 21.1483 30.0712 21.0648 30.4512" stroke="url(#paint6_linear_126_46942)" stroke-width="0.00393672" stroke-miterlimit="10" stroke-linecap="round"/>
<path d="M26.0615 64.9099C26.1697 65.1389 26.2769 65.3687 26.3871 65.5993" stroke="url(#paint7_linear_126_46942)" stroke-width="0.00393672" stroke-miterlimit="10" stroke-linecap="round"/>
<path d="M21.9778 34.5015C21.0136 43.8413 23.3492 54.1418 28.0413 64.2268" stroke="url(#paint8_linear_126_46942)" stroke-width="0.00393672" stroke-miterlimit="10" stroke-linecap="round"/>
<path d="M106.556 118.002C107.884 117.59 109.149 117.093 110.353 116.517" stroke="url(#paint9_linear_126_46942)" stroke-width="0.00393672" stroke-miterlimit="10" stroke-linecap="round"/>
<path d="M59.2506 104.604C70.0912 112.856 82.1258 118.395 93.8654 119.269C93.8916 119.271 94.9351 119.357 94.9597 119.351C96.1502 119.431 97.3116 119.46 98.4416 119.437" stroke="url(#paint10_linear_126_46942)" stroke-width="0.00393672" stroke-miterlimit="10" stroke-linecap="round"/>
<g opacity="0.4">
<g opacity="0.4">
<path opacity="0.4" d="M29.7016 86.4922L33.9214 81.8745C34.8782 80.827 36.3977 80.8694 37.2122 81.9664L39.4238 84.944C39.8302 85.491 39.7726 86.312 39.2932 86.8297L34.0826 92.4497L29.7016 86.4922Z" fill="white"/>
</g>
</g>
<g opacity="0.4">
<g opacity="0.4">
<path opacity="0.4" d="M25.7364 65.9958C25.9436 66.4276 26.1519 66.8596 26.3674 67.2906C26.7031 67.9651 26.6135 68.8208 26.143 69.4353L21.3592 75.6836C20.9166 74.8268 20.4845 73.9698 20.0705 73.1038L25.7364 65.9958Z" fill="white"/>
</g>
</g>
<g opacity="0.4">
<g opacity="0.4">
<path opacity="0.4" d="M21.3748 29.1463C20.8694 31.548 20.5859 34.109 20.5428 36.819C20.528 37.7613 20.2103 38.6812 19.6415 39.4108L14.7961 45.6234C14.7231 42.5407 14.9455 39.6307 15.4468 36.9212L21.3748 29.1463Z" fill="white"/>
</g>
</g>
<g opacity="0.4">
<g opacity="0.4">
<path opacity="0.4" d="M39.1218 86.9596C39.2195 87.0786 39.3185 87.1966 39.4173 87.3158L33.3981 93.9197C33.0954 93.5593 32.7965 93.1919 32.502 92.8255L37.9899 86.9543C38.3181 86.6036 38.8281 86.6051 39.1218 86.9596Z" fill="white"/>
</g>
</g>
<path fill-rule="evenodd" clip-rule="evenodd" d="M69.9315 23.8273C48.5602 15.0884 32.8724 25.6361 34.9606 47.3398C37.0489 69.0436 56.1346 93.8102 77.5059 102.549C98.8768 111.288 114.565 100.74 112.477 79.0365C110.388 57.333 91.3024 32.566 69.9315 23.8273ZM49.9775 55.3904L46.3776 53.9372C47.8463 64.2866 56.477 76.6835 71.109 83.3224L67.2897 74.1729C59.5026 70.7768 52.5814 65.7991 49.9775 55.3904ZM66.1251 62.2188L64.8875 61.4963C64.9421 61.7057 64.9804 61.9143 65.0001 62.1194C65.1727 63.9147 63.8798 64.784 62.1125 64.0613C60.3448 63.3385 58.7721 61.2974 58.5991 59.5021C58.5399 58.8835 58.6543 58.3748 58.9022 58.0032L52.3792 54.1962C53.6546 61.6527 57.9845 67.9465 68.9967 71.6966L66.1251 62.2188ZM67.2007 82.6389C66.0064 81.9916 64.8505 81.3204 63.7336 80.6246L56.8193 83.4101C62.6323 89.5358 69.4696 94.5638 76.622 97.5734L76.5145 96.456C72.0691 93.2428 69.081 88.3732 67.2007 82.6389ZM53.8483 72.7937L49.8348 74.8068L49.8383 74.8184C50.5334 75.8231 51.2568 76.8135 52.0063 77.7862C53.0973 79.2017 54.2434 80.5799 55.4378 81.9119L61.9268 79.4542C58.935 77.4395 56.2435 75.2279 53.8483 72.7937ZM43.9644 57.7919L41.1868 57.0099C42.7462 62.4567 45.3352 67.9346 48.6736 73.0802L52.629 71.5086C49.0069 67.5382 46.1238 63.0003 43.9644 57.7919ZM39.5556 44.5204C39.4865 46.0271 39.5279 47.6124 39.6877 49.2727L39.6911 49.305L49.3872 54.0022L39.5556 44.5204ZM42.2798 52.1113L39.9418 51.3281C40.1739 52.8781 40.4992 54.441 40.9118 56.0088L43.6301 57.018C43.0772 55.3515 42.4034 53.4132 42.2798 52.1113ZM41.5214 35.8371C40.5433 37.9782 39.9041 40.4346 39.6489 43.1757L47.7086 49.1983C43.7577 44.2528 42.1341 39.9133 41.5214 35.8371ZM62.468 44.5801L58.0784 25.9227C53.8964 25.8971 50.2399 26.9364 47.3038 28.9106C46.9458 29.1514 46.5986 29.4062 46.2623 29.6745L50.4433 41.1041C54.2935 41.3806 58.2281 42.1291 62.468 44.5801ZM79.4489 73.9278L74.8479 74.9243L69.6702 69.9294L69.1018 75.196L76.2669 89.6732L81.1189 80.11L79.4489 73.9278ZM101.446 76.4551L97.8423 74.9628C97.1101 84.0073 90.619 83.5005 82.8743 80.5456L80.575 87.193C95.076 92.4669 101.93 86.4021 101.446 76.4551ZM81.7397 68.6037L80.5316 76.4134C91.6945 81.7306 95.1187 78.6076 95.0046 71.6261L88.7097 70.1917C89.0525 70.8048 89.2785 71.4527 89.3382 72.0715C89.5109 73.8668 88.2178 74.736 86.4503 74.0132C84.6828 73.2903 83.1099 71.2494 82.9373 69.4541C82.9175 69.2488 82.9169 69.0557 82.9342 68.8757L81.7397 68.6037ZM84.6665 89.7808C83.7809 94.384 81.5234 97.1086 77.3579 96.801L77.4653 97.9182C84.6003 100.751 90.9909 101.132 96.0529 99.453L88.0141 90.5532C86.9452 90.355 85.8292 90.0973 84.6665 89.7808ZM89.7346 90.825L97.2472 99.0081C98.2728 98.5837 99.2368 98.0685 100.134 97.4658C100.749 97.0513 101.334 96.5956 101.885 96.1007L101.886 96.091L97.1405 90.4962C95.0369 91.0908 92.5678 91.1921 89.7346 90.825ZM98.2022 90.1437L102.797 95.2116C105.378 92.4863 107.081 88.7638 107.677 84.1983L104.829 82.6799C103.536 86.4765 101.326 88.9317 98.2022 90.1437ZM106.941 72.0746L98.2026 73.9631L107.752 77.1355L107.749 77.1035C107.59 75.4432 107.317 73.7633 106.941 72.0746ZM105.036 82.1271L107.774 83.3495C107.907 82.0044 107.946 80.5904 107.886 79.1111L105.514 77.9681C105.641 79.2714 105.3 80.7948 105.036 82.1271ZM99.0567 70.1949L106.57 70.5403C105.745 67.3575 104.561 64.1555 103.075 61.0066C103.228 64.8949 102.341 68.2079 99.0567 70.1949ZM94.4766 59.1097L96.7104 50.303C96.2929 49.7264 95.8663 49.1554 95.4308 48.59C91.8588 43.9549 87.6946 39.7174 83.1749 36.1847L82.1635 52.6338C86.2593 53.5911 90.3668 56.1313 94.4766 59.1097ZM80.4666 52.5574L81.6599 35.0373C74.2884 29.6263 66.3792 26.3922 59.4878 25.9708L64.2882 45.942C67.2519 47.8312 70.3093 52.9193 73.4291 60.1793C75.3505 54.9806 77.6385 52.0783 80.4666 52.5574ZM75.4895 71.6425C76.2879 63.066 77.1229 62.444 78.9491 60.6554C79.4008 62.07 79.7349 62.8025 81.2327 62.8047C83.2381 62.8071 85.7576 60.9483 86.0064 60.5077C86.194 61.621 86.3177 62.8499 85.8832 63.7085C87.2497 63.4515 89.6344 62.6581 90.5305 61.0885C90.8586 62.2647 91.1387 63.478 91.0773 64.4948C92.0274 64.0017 94.8147 63.0935 95.4156 61.4475C95.7747 62.7166 95.9929 63.6209 95.7217 64.4521C99.1839 62.9794 99.752 59.4076 99.7683 55.7635C103.854 75.1631 91.0038 66.1324 82.1846 67.0098C79.9061 67.2365 77.688 68.4059 75.4895 71.6425ZM73.4963 70.8275C70.914 60.8685 69.8861 59.4848 67.5523 55.9952C67.3469 57.1411 67.1322 57.6491 65.512 56.3762C63.3429 54.672 60.2447 50.5159 59.8873 49.8276C59.9072 50.872 60.0196 52.0964 60.6617 53.3954C59.1318 51.9541 56.3929 49.0654 55.109 46.6045C54.9897 47.5975 54.9295 48.6719 55.1998 49.8242C54.073 48.482 50.8755 45.1265 49.8954 42.8342C49.7612 43.9013 49.7065 44.6941 50.1663 45.8243C46.1254 41.2835 44.7954 36.9356 44.0476 32.9791C43.5136 50.4897 55.6074 51.6588 65.3248 60.1157C67.8351 62.3003 70.4691 65.4541 73.4963 70.8275ZM77.2461 99.8494C57.3409 91.71 39.5642 68.6416 37.6191 48.4269C35.6742 28.2119 50.2861 18.3878 70.1913 26.5273C90.0962 34.6667 107.873 57.7344 109.818 77.9494C111.763 98.1643 97.1511 107.989 77.2461 99.8494Z" fill="#FFBA15"/>
<defs>
<linearGradient id="paint0_linear_126_46942" x1="23.4752" y1="76.6893" x2="108.575" y2="95.377" gradientUnits="userSpaceOnUse">
<stop stop-color="#FFF1E1"/>
<stop offset="1" stop-color="#FFDAAC"/>
</linearGradient>
<linearGradient id="paint1_linear_126_46942" x1="16.5656" y1="50.9052" x2="129.775" y2="75.7658" gradientUnits="userSpaceOnUse">
<stop stop-color="#FFF1E1"/>
<stop offset="1" stop-color="#FFDAAC"/>
</linearGradient>
<linearGradient id="paint2_linear_126_46942" x1="56.4433" y1="103.46" x2="56.4476" y2="103.454" gradientUnits="userSpaceOnUse">
<stop stop-color="#FDEFB0"/>
<stop offset="1" stop-color="#FFC56F"/>
</linearGradient>
<linearGradient id="paint3_linear_126_46942" x1="51.9603" y1="98.7075" x2="52.02" y2="98.6422" gradientUnits="userSpaceOnUse">
<stop stop-color="#FDEFB0"/>
<stop offset="1" stop-color="#FFC56F"/>
</linearGradient>
<linearGradient id="paint4_linear_126_46942" x1="45.6006" y1="91.8445" x2="45.601" y2="91.8442" gradientUnits="userSpaceOnUse">
<stop stop-color="#FDEFB0"/>
<stop offset="1" stop-color="#FFC56F"/>
</linearGradient>
<linearGradient id="paint5_linear_126_46942" x1="36.6706" y1="80.4532" x2="37.3035" y2="80.0132" gradientUnits="userSpaceOnUse">
<stop stop-color="#FDEFB0"/>
<stop offset="1" stop-color="#FFC56F"/>
</linearGradient>
<linearGradient id="paint6_linear_126_46942" x1="21.1897" y1="29.8825" x2="21.1898" y2="29.8825" gradientUnits="userSpaceOnUse">
<stop stop-color="#FDEFB0"/>
<stop offset="1" stop-color="#FFC56F"/>
</linearGradient>
<linearGradient id="paint7_linear_126_46942" x1="26.2239" y1="65.2549" x2="26.2243" y2="65.2546" gradientUnits="userSpaceOnUse">
<stop stop-color="#FDEFB0"/>
<stop offset="1" stop-color="#FFC56F"/>
</linearGradient>
<linearGradient id="paint8_linear_126_46942" x1="23.0669" y1="49.9642" x2="25.0495" y2="49.5598" gradientUnits="userSpaceOnUse">
<stop stop-color="#FDEFB0"/>
<stop offset="1" stop-color="#FFC56F"/>
</linearGradient>
<linearGradient id="paint9_linear_126_46942" x1="108.474" y1="117.332" x2="108.447" y2="117.263" gradientUnits="userSpaceOnUse">
<stop stop-color="#FDEFB0"/>
<stop offset="1" stop-color="#FFC56F"/>
</linearGradient>
<linearGradient id="paint10_linear_126_46942" x1="58.46" y1="108.205" x2="98.9553" y2="117.097" gradientUnits="userSpaceOnUse">
<stop stop-color="#FDEFB0"/>
<stop offset="1" stop-color="#FFC56F"/>
</linearGradient>
</defs>
</svg>
