<svg width="120" height="110" viewBox="0 0 120 110" fill="none" xmlns="http://www.w3.org/2000/svg">
<path d="M80.0152 7.59079C55.7641 7.51077 26.2299 26.9405 14.0446 50.9806C6.06644 66.7237 7.50458 80.5393 16.2603 88.2228C20.873 92.2758 27.5214 94.6259 35.8951 94.6511C60.1426 94.7297 89.6768 75.3042 101.863 51.2642C108.886 37.4078 108.61 25.0439 102.472 17.0375C97.9654 11.1524 90.2905 7.62308 80.0152 7.59079Z" fill="#FFE8CC"/>
<path d="M112.824 14.77C112.836 14.7929 112.846 14.8106 112.855 14.8335C112.959 15.0342 113.061 15.2425 113.158 15.4458C113.253 15.6401 113.343 15.832 113.427 16.0289C113.437 16.0441 113.448 16.0632 113.455 16.0822C113.535 16.2601 113.612 16.4366 113.683 16.6157C113.703 16.6564 113.721 16.6996 113.734 16.7402C113.821 16.9409 113.902 17.1442 113.976 17.3487C114.064 17.5646 114.145 17.7806 114.218 17.9991C114.296 18.2189 114.373 18.4386 114.444 18.6609C114.591 19.1233 114.73 19.5882 114.854 20.0608C114.899 20.2196 114.938 20.3746 114.975 20.5333C114.999 20.6197 115.022 20.7086 115.04 20.795C115.09 20.9907 115.134 21.1888 115.174 21.3883C115.178 21.401 115.181 21.4124 115.181 21.4264C115.227 21.6385 115.272 21.8532 115.312 22.0691C115.42 22.6179 115.511 23.1781 115.581 23.7409C115.615 23.9797 115.646 24.2172 115.669 24.456C115.695 24.7012 115.723 24.9489 115.743 25.1979C115.756 25.3605 115.769 25.5231 115.78 25.6895C115.787 25.753 115.79 25.814 115.794 25.8788C115.807 26.0566 115.816 26.237 115.823 26.4199C115.833 26.6003 115.84 26.782 115.844 26.9687C115.862 27.4412 115.864 27.9214 115.858 28.4003C115.833 31.2839 115.46 34.3174 114.717 37.4754C113.876 41.0601 112.556 44.8025 110.741 48.6565C110.408 49.3705 110.055 50.0856 109.685 50.8084L113.818 58.8037C114.123 58.2105 114.417 57.616 114.7 57.0266C116.53 53.1991 117.874 49.4721 118.749 45.9063C119.482 42.9097 119.889 40.021 119.981 37.267C120.158 31.8428 119.115 26.9407 116.958 22.7691L112.824 14.77Z" fill="#FFB80D"/>
<path d="M20.6364 86.5246L16.5005 78.5268C20.1572 85.5986 27.9317 89.9824 38.9832 90.0167C61.2262 90.0878 88.3162 72.512 99.492 50.7582L103.628 58.756C92.451 80.5098 65.3622 98.0856 43.1202 98.0144C32.0677 97.9801 24.292 93.5951 20.6364 86.5246Z" fill="url(#paint0_linear_706_3425)"/>
<path d="M17.6252 50.5157C6.45052 72.2682 15.421 89.9621 37.6674 90.0294C60.4779 90.1031 88.8598 71.5048 99.4015 48.2305C108.626 27.6594 99.5089 11.3222 78.1396 11.2548C55.6897 11.1837 28.6427 29.0033 17.6252 50.5157ZM115.58 23.7443C117.391 36.5679 111.556 50.8079 101.467 63.5489C83.3098 86.4751 51.4136 104.555 25.7727 100.893C25.7479 100.889 24.7102 100.751 24.6865 100.738C0.277664 97.0986 -6.92379 74.0695 7.10725 48.6243C22.0301 21.5201 55.9531 -0.0850525 83.9179 0.00132751C105.537 0.0711975 114.168 12.4921 115.58 23.7443Z" fill="url(#paint1_linear_706_3425)"/>
<path d="M109.814 50.7579C107.569 55.129 104.826 59.3654 101.679 63.41C101.13 64.1137 100.571 64.8124 99.9937 65.5047C97.2899 68.7833 94.3216 71.9235 91.1544 74.8807C89.3413 76.5715 87.466 78.205 85.5309 79.7726C85.2245 80.0177 84.9182 80.2642 84.6119 80.5055C84.2717 80.7787 83.9326 81.0429 83.5889 81.3084C67.8736 93.4638 48.8611 101.286 32.0166 101.233C17.807 101.187 7.81017 95.5521 3.1113 86.4632L7.24499 94.4584C11.9461 103.549 21.9429 109.187 36.1492 109.233C53.1158 109.285 72.273 101.355 88.0516 89.0508C88.4246 88.7624 88.7953 88.469 89.1616 88.173C89.4577 87.9393 89.755 87.7005 90.0478 87.4578C92.1502 85.7366 94.1871 83.9404 96.1426 82.0718C98.8928 79.4474 101.484 76.6858 103.876 73.8111C104.493 73.0693 105.098 72.3249 105.688 71.5678C108.882 67.4749 111.673 63.1826 113.947 58.7531L109.814 50.7579Z" fill="#FFB80D"/>
<path d="M3.10987 86.5115L7.24357 94.5067C11.9447 103.596 21.9415 109.236 36.1489 109.282C36.8079 109.285 37.4737 109.274 38.1406 109.25L35.7545 101.167C34.4998 101.248 33.2496 101.285 32.0152 101.281C17.8056 101.235 7.80875 95.5992 3.10987 86.5115Z" fill="#EDA700"/>
<path d="M66.791 92.9232C66.056 93.2861 65.3166 93.6408 64.5761 93.9859" stroke="url(#paint2_linear_706_3425)" stroke-width="0.00393672" stroke-miterlimit="10" stroke-linecap="round" stroke-linejoin="round"/>
<path d="M74.943 87.4475C72.3922 89.0572 69.7885 90.5652 67.1512 91.9523" stroke="url(#paint3_linear_706_3425)" stroke-width="0.00393672" stroke-miterlimit="10" stroke-linecap="round" stroke-linejoin="round"/>
<path d="M79.0728 84.2256C78.8683 84.3686 78.6659 84.5129 78.462 84.6569" stroke="url(#paint4_linear_706_3425)" stroke-width="0.00393672" stroke-miterlimit="10" stroke-linecap="round"/>
<path d="M99.0764 65.7112C93.5879 72.2015 87.0273 78.267 79.873 83.4985" stroke="url(#paint5_linear_706_3425)" stroke-width="0.00393672" stroke-miterlimit="10" stroke-linecap="round"/>
<path d="M115.9 28.5739C115.9 28.9638 115.9 29.352 115.9 29.741" stroke="url(#paint6_linear_706_3425)" stroke-width="0.00393672" stroke-miterlimit="10" stroke-linecap="round"/>
<path d="M103.629 62.3248C103.474 62.5254 103.32 62.7267 103.163 62.9283" stroke="url(#paint7_linear_706_3425)" stroke-width="0.00393672" stroke-miterlimit="10" stroke-linecap="round"/>
<path d="M114.14 33.5011C113.078 42.8303 108.588 52.3901 101.842 61.2341" stroke="url(#paint8_linear_706_3425)" stroke-width="0.00393672" stroke-miterlimit="10" stroke-linecap="round"/>
<path d="M13.6208 96.9165C12.4117 96.2291 11.2828 95.4721 10.2309 94.6516" stroke="url(#paint9_linear_706_3425)" stroke-width="0.00393672" stroke-miterlimit="10" stroke-linecap="round"/>
<path d="M62.6982 93.9768C50.3401 99.7109 37.3975 102.54 25.7436 100.876C25.7176 100.872 24.6799 100.732 24.6573 100.721C23.4773 100.544 22.3367 100.323 21.238 100.058" stroke="url(#paint10_linear_706_3425)" stroke-width="0.00393672" stroke-miterlimit="10" stroke-linecap="round"/>
<g opacity="0.4">
<g opacity="0.4">
<path opacity="0.4" d="M95.4443 82.6247L92.3132 77.2095C91.6034 75.9811 90.1102 75.6966 89.0793 76.5934L86.2805 79.0273C85.7662 79.4744 85.6464 80.2887 86.0035 80.8971L89.8875 87.5039L95.4443 82.6247Z" fill="white"/>
</g>
</g>
<g opacity="0.4">
<g opacity="0.4">
<path opacity="0.4" d="M103.713 63.4572C103.418 63.8345 103.122 64.2118 102.819 64.5865C102.347 65.1734 102.251 66.0283 102.579 66.7295L105.911 73.8584C106.527 73.1165 107.133 72.3722 107.723 71.6151L103.713 63.4572Z" fill="white"/>
</g>
</g>
<g opacity="0.4">
<g opacity="0.4">
<path opacity="0.4" d="M115.878 28.3987C115.856 30.8529 115.584 33.4151 115.044 36.0712C114.857 36.9947 114.97 37.9614 115.369 38.796L118.769 45.9033C119.502 42.908 119.908 40.018 120 37.264L115.878 28.3987Z" fill="white"/>
</g>
</g>
<g opacity="0.4">
<g opacity="0.4">
<path opacity="0.4" d="M86.143 81.0611C86.0221 81.1564 85.9 81.2504 85.7779 81.3457L90.2406 89.0869C90.6136 88.7998 90.9843 88.5051 91.3506 88.2104L87.2496 81.2987C87.0043 80.8858 86.5059 80.7779 86.143 81.0611Z" fill="white"/>
</g>
</g>
<path fill-rule="evenodd" clip-rule="evenodd" d="M69.5912 12.7906C92.3395 8.83902 105.4 22.506 98.7051 43.2568C92.0102 64.0075 68.0565 84.104 45.3082 88.0558C22.5603 92.0074 9.49978 78.3403 16.1945 57.5895C22.8894 36.839 46.8433 16.7422 69.5912 12.7906ZM82.3109 47.899L86.1387 47.2518C82.4844 57.0453 71.3956 67.3025 55.6801 70.6485L61.373 62.5312C69.7073 60.8843 77.535 57.5069 82.3109 47.899ZM65.0745 51.1051L66.4382 50.6648C66.34 50.8576 66.2579 51.0532 66.1946 51.2493C65.6409 52.9658 66.7173 54.0921 68.5985 53.7653C70.4801 53.4384 72.454 51.7822 73.008 50.0658C73.1986 49.4743 73.1959 48.9529 73.0335 48.5368L80.2213 46.2175C77.3762 53.2269 71.7971 58.4455 60.2368 59.7463L65.0745 51.1051ZM59.6441 70.8192C60.9494 70.4432 62.2223 70.0355 63.4625 69.5955L69.6184 73.7991C62.6268 78.5354 54.8702 81.9799 47.2388 83.3853L47.5835 82.317C52.6146 80.1321 56.5776 76.0168 59.6441 70.8192ZM74.7974 64.0671L78.2857 66.8942L78.2797 66.9047C77.3854 67.737 76.4664 68.5492 75.5256 69.3385C74.1565 70.487 72.7414 71.5873 71.2891 72.6322L65.4782 68.8398C68.8326 67.5137 71.9358 65.9309 74.7974 64.0671ZM87.669 51.5344L90.5496 51.3663C87.8583 56.3519 84.1546 61.147 79.7902 65.4568L76.264 63.0733C80.6533 59.9723 84.4427 56.1584 87.669 51.5344ZM94.8217 39.5174C94.566 41.0038 94.1856 42.5433 93.6734 44.1307L93.6631 44.1615L83.1852 46.6698L94.8217 39.5174ZM90.5327 46.3473L92.9844 46.0838C92.4252 47.5479 91.7722 49.0047 91.033 50.4475L88.1614 50.8502C89.059 49.3411 90.1328 47.5924 90.5327 46.3473ZM94.7641 30.6145C95.2602 32.9156 95.3577 35.452 95.019 38.1839L85.8551 42.3377C90.7748 38.3548 93.2914 34.4644 94.7641 30.6145ZM72.4298 34.6612L80.719 17.3796C84.8092 18.2516 88.1577 20.051 90.602 22.609C90.9 22.9209 91.1844 23.2443 91.4553 23.5785L84.9202 33.8453C81.1003 33.2896 77.0967 33.1767 72.4298 34.6612ZM49.5494 59.6837L53.8296 61.6439L59.9581 57.8758L59.3836 63.1418L49.2801 75.7452L46.5922 65.3639L49.5494 59.6837ZM27.5222 57.4341L31.362 56.7495C30.1373 65.7405 36.5859 66.6378 44.7842 65.4128L45.6043 72.3986C30.3096 74.4395 24.9154 67.0457 27.5222 57.4341ZM48.4538 53.9922L47.9587 61.8792C35.9152 64.6784 33.2404 60.8936 34.8494 54.0991L41.3054 54.0483C40.8391 54.5736 40.4794 55.1579 40.2884 55.7495C39.7346 57.4659 40.8112 58.5923 42.6926 58.2654C44.574 57.9385 46.548 56.2825 47.1017 54.566C47.165 54.3697 47.2071 54.1812 47.2287 54.0017L48.4538 53.9922ZM41.0529 74.0487C40.9305 78.7347 42.5511 81.8801 46.6857 82.4731L46.3411 83.5412C38.7646 84.7776 32.441 83.7791 27.8569 81.0536L37.6176 74.0851C38.7041 74.1208 39.8493 74.1084 41.0529 74.0487ZM35.8787 73.9815L26.7858 80.3629C25.8751 79.7283 25.044 79.0183 24.2975 78.2373C23.7848 77.7004 23.312 77.13 22.8799 76.5284L22.8804 76.5186L28.7157 72.0719C30.6429 73.1039 33.0328 73.7324 35.8787 73.9815ZM27.7544 71.4999L22.1797 75.4644C20.2434 72.2489 19.378 68.2476 19.7749 63.6606L22.8826 62.7884C23.3312 66.774 24.9635 69.6461 27.7544 71.4999ZM23.095 51.977L31.2245 55.6958L21.2166 56.7461L21.2263 56.7154C21.7385 55.1281 22.3651 53.5457 23.095 51.977ZM22.7995 62.2042L19.8622 62.8107C20.0215 61.4686 20.2869 60.0791 20.6621 58.647L23.2247 58.0395C22.8209 59.2851 22.827 60.8462 22.7995 62.2042ZM31.1986 51.8321L23.7859 50.5579C25.2744 47.6261 27.1174 44.7525 29.245 41.9958C28.2614 45.7608 28.417 49.1869 31.1986 51.8321ZM38.0497 41.9872L37.7568 32.9064C38.2883 32.4328 38.8274 31.9665 39.374 31.5077C43.8571 27.7466 48.8333 24.501 54.0055 22.0198L51.4652 38.3031C47.2595 38.3596 42.7027 39.9596 38.0497 41.9872ZM53.1391 38.5924L55.7313 21.2241C64.0919 17.5202 72.5106 16.0577 79.3321 17.1243L70.3598 35.6011C67.0598 36.8106 62.9823 41.1245 58.3779 47.5464C57.6163 42.0566 56.004 38.7311 53.1391 38.5924ZM53.9068 58.3009C54.9665 49.7527 54.2843 48.9661 52.8843 46.8275C52.1397 48.1122 51.6562 48.7561 50.1928 48.4369C48.2336 48.0091 46.1714 45.6532 46.0229 45.1695C45.6008 46.2166 45.2165 47.3904 45.4567 48.3222C44.1771 47.7781 42.0181 46.4917 41.4795 44.7664C40.9068 45.8448 40.373 46.9698 40.2148 47.9761C39.3926 47.2907 36.865 45.8058 36.6311 44.0693C36.0081 45.2317 35.6011 46.0683 35.6877 46.9382C32.622 44.7572 32.8331 41.1467 33.5988 37.584C25.4474 55.6557 39.9354 49.5914 48.3611 52.34C50.538 53.0501 52.4536 54.6681 53.9068 58.3009ZM56.0284 57.9323C60.6867 48.759 61.9874 47.628 65.0154 44.7202C64.9703 45.8834 65.071 46.4257 66.9265 45.5299C69.4106 44.3306 73.3281 40.9358 73.8249 40.3402C73.5814 41.356 73.209 42.5278 72.3032 43.6588C74.1066 42.5792 77.4015 40.3452 79.1832 38.217C79.0869 39.2124 78.9152 40.2747 78.404 41.3423C79.7924 40.273 83.6352 37.6814 85.0842 35.6526C84.9865 36.7237 84.8698 37.5098 84.1783 38.5151C89.0991 34.9467 91.3308 30.9853 92.9097 27.2812C89.6755 44.4988 77.6124 43.0467 66.3073 49.2225C63.3869 50.8179 60.1377 53.3333 56.0284 57.9323ZM46.141 85.4745C67.3288 81.794 89.6396 63.0754 95.8752 43.7483C102.111 24.4209 89.9461 11.6914 68.7583 15.3721C47.5708 19.0527 25.26 37.7706 19.0244 57.098C12.7887 76.4251 24.9534 89.1551 46.141 85.4745Z" fill="#FFBA15"/>
<defs>
<linearGradient id="paint0_linear_706_3425" x1="103.628" y1="74.3864" x2="16.5005" y2="74.3864" gradientUnits="userSpaceOnUse">
<stop stop-color="#FFF1E1"/>
<stop offset="1" stop-color="#FFDAAC"/>
</linearGradient>
<linearGradient id="paint1_linear_706_3425" x1="115.908" y1="50.6836" x2="0.000686646" y2="50.6836" gradientUnits="userSpaceOnUse">
<stop stop-color="#FFF1E1"/>
<stop offset="1" stop-color="#FFDAAC"/>
</linearGradient>
<linearGradient id="paint2_linear_706_3425" x1="65.686" y1="93.461" x2="65.683" y2="93.4548" gradientUnits="userSpaceOnUse">
<stop stop-color="#FDEFB0"/>
<stop offset="1" stop-color="#FFC56F"/>
</linearGradient>
<linearGradient id="paint3_linear_706_3425" x1="71.0841" y1="89.7807" x2="71.0398" y2="89.7041" gradientUnits="userSpaceOnUse">
<stop stop-color="#FDEFB0"/>
<stop offset="1" stop-color="#FFC56F"/>
</linearGradient>
<linearGradient id="paint4_linear_706_3425" x1="78.7674" y1="84.4413" x2="78.7671" y2="84.4408" gradientUnits="userSpaceOnUse">
<stop stop-color="#FDEFB0"/>
<stop offset="1" stop-color="#FFC56F"/>
</linearGradient>
<linearGradient id="paint5_linear_706_3425" x1="89.9334" y1="75.2306" x2="89.4097" y2="74.6651" gradientUnits="userSpaceOnUse">
<stop stop-color="#FDEFB0"/>
<stop offset="1" stop-color="#FFC56F"/>
</linearGradient>
<linearGradient id="paint6_linear_706_3425" x1="115.9" y1="29.1587" x2="115.9" y2="29.1587" gradientUnits="userSpaceOnUse">
<stop stop-color="#FDEFB0"/>
<stop offset="1" stop-color="#FFC56F"/>
</linearGradient>
<linearGradient id="paint7_linear_706_3425" x1="103.396" y1="62.627" x2="103.396" y2="62.6266" gradientUnits="userSpaceOnUse">
<stop stop-color="#FDEFB0"/>
<stop offset="1" stop-color="#FFC56F"/>
</linearGradient>
<linearGradient id="paint8_linear_706_3425" x1="109.76" y1="48.3704" x2="107.91" y2="47.5502" gradientUnits="userSpaceOnUse">
<stop stop-color="#FDEFB0"/>
<stop offset="1" stop-color="#FFC56F"/>
</linearGradient>
<linearGradient id="paint9_linear_706_3425" x1="11.891" y1="95.85" x2="11.9322" y2="95.7883" gradientUnits="userSpaceOnUse">
<stop stop-color="#FDEFB0"/>
<stop offset="1" stop-color="#FFC56F"/>
</linearGradient>
<linearGradient id="paint10_linear_706_3425" x1="62.6982" y1="97.6627" x2="21.238" y2="97.6627" gradientUnits="userSpaceOnUse">
<stop stop-color="#FDEFB0"/>
<stop offset="1" stop-color="#FFC56F"/>
</linearGradient>
</defs>
</svg>
