<svg width="32" height="32" viewBox="0 0 32 32" fill="none" xmlns="http://www.w3.org/2000/svg">
<path d="M20.008 24.7333C21.0068 25.4665 22.2297 25.829 23.4667 25.7587C23.509 25.0193 23.3934 24.2794 23.1276 23.5881C22.8619 22.8968 22.452 22.27 21.9253 21.7493C21.42 21.248 20.356 20.208 20.356 20.208C21.9449 20.9952 23.7478 21.2406 25.4893 20.9067C27.2308 20.5727 28.815 19.6778 30 18.3587C29.2342 17.5094 28.2983 16.8306 27.2532 16.3663C26.208 15.9021 25.0769 15.6628 23.9333 15.664C23.0921 15.6766 22.2581 15.8206 21.4613 16.0907C22.3898 15.5974 23.2443 14.9763 24 14.2453C25.9121 12.4051 27.0555 9.90851 27.2 7.25867C24.5357 7.3985 22.0206 8.53167 20.1507 10.4347C19.4107 11.168 18.1827 12.7093 18.1827 12.7093C18.8094 11.4462 19.1361 10.0554 19.1373 8.64534C19.1362 7.33265 18.8559 6.03522 18.315 4.83915C17.7741 3.64309 16.985 2.57576 16 1.70801C14.4343 3.07858 13.38 4.93982 13.0094 6.98738C12.6389 9.03493 12.974 11.1476 13.96 12.98C13.3041 12.0931 12.5995 11.2434 11.8493 10.4347C9.97944 8.53167 7.46428 7.3985 4.8 7.25867C4.94446 9.90851 6.08794 12.4051 8 14.2453C8.75422 14.9756 9.60694 15.5968 10.5333 16.0907C9.73708 15.8204 8.90344 15.6765 8.06267 15.664C6.91973 15.6634 5.78942 15.9029 4.74501 16.3671C3.70059 16.8314 2.76538 17.5099 2 18.3587C2.76611 19.2076 3.70205 19.886 4.74716 20.35C5.79226 20.8139 6.9232 21.0531 8.06667 21.052C9.28957 20.9205 10.4913 20.637 11.644 20.208C11.644 20.208 10.5773 21.2427 10.08 21.7413C9.55221 22.2614 9.14128 22.888 8.87459 23.5793C8.6079 24.2707 8.49156 25.0109 8.53333 25.7507C9.76234 25.8197 10.9775 25.4622 11.9733 24.7387" stroke="#30C6FF" stroke-width="2" stroke-linecap="round" stroke-linejoin="round"/>
<path d="M16 23.3335V30.3335" stroke="#30C6FF" stroke-width="2" stroke-linecap="round" stroke-linejoin="round"/>
</svg>
