<svg width="33" height="32" viewBox="0 0 33 32" fill="none" xmlns="http://www.w3.org/2000/svg">
<g clip-path="url(#clip0_706_3508)">
<path d="M16.5 31C24.7843 31 31.5 24.2843 31.5 16C31.5 7.71573 24.7843 1 16.5 1C8.21573 1 1.5 7.71573 1.5 16C1.5 24.2843 8.21573 31 16.5 31Z" stroke="#30C6FF" stroke-width="2" stroke-linecap="round" stroke-linejoin="round"/>
<path d="M16.5 27C22.5751 27 27.5 22.0751 27.5 16C27.5 9.92487 22.5751 5 16.5 5C10.4249 5 5.5 9.92487 5.5 16C5.5 22.0751 10.4249 27 16.5 27Z" stroke="#30C6FF" stroke-width="2" stroke-linecap="round" stroke-linejoin="round"/>
<path d="M27.3 13.9253C23.8313 12.6903 20.1817 12.0397 16.5 12C12.8182 12.0393 9.16857 12.69 5.70001 13.9253" stroke="#30C6FF" stroke-width="2" stroke-linecap="round" stroke-linejoin="round"/>
<path d="M5.67462 17.9666C10.4973 17.0879 14.3413 19.9666 13.552 26.5999" stroke="#30C6FF" stroke-width="2" stroke-linecap="round" stroke-linejoin="round"/>
<path d="M27.3254 17.9666C22.5027 17.0879 18.6587 19.9666 19.448 26.5999" stroke="#30C6FF" stroke-width="2" stroke-linecap="round" stroke-linejoin="round"/>
<path d="M16.5 17C16.2239 17 16 16.7761 16 16.5C16 16.2239 16.2239 16 16.5 16" stroke="#30C6FF" stroke-width="2"/>
<path d="M16.5 17C16.7761 17 17 16.7761 17 16.5C17 16.2239 16.7761 16 16.5 16" stroke="#30C6FF" stroke-width="2"/>
</g>
<defs>
<clipPath id="clip0_706_3508">
<rect width="32" height="32" fill="white" transform="translate(0.5)"/>
</clipPath>
</defs>
</svg>
