<svg width="32" height="32" viewBox="0 0 32 32" fill="none" xmlns="http://www.w3.org/2000/svg">
<path d="M31 18V8C31 7.46957 30.7893 6.96086 30.4142 6.58579C30.0391 6.21071 29.5304 6 29 6H13C12.4696 6 11.9609 6.21071 11.5858 6.58579C11.2107 6.96086 11 7.46957 11 8V16" stroke="#30C6FF" stroke-width="2" stroke-linecap="round" stroke-linejoin="round"/>
<path d="M11 16V8H7C5.4087 8 3.88258 8.63214 2.75736 9.75736C1.63214 10.8826 1 12.4087 1 14V22C1 22.5304 1.21071 23.0391 1.58579 23.4142C1.96086 23.7893 2.46957 24 3 24H4" stroke="#30C6FF" stroke-width="2" stroke-linecap="round" stroke-linejoin="round"/>
<path d="M1 16H5C5.53043 16 6.03914 15.7893 6.41421 15.4142C6.78929 15.0391 7 14.5304 7 14V8" stroke="#30C6FF" stroke-width="2" stroke-linecap="round" stroke-linejoin="round"/>
<path d="M7 23C7 23.7956 7.31607 24.5587 7.87868 25.1213C8.44129 25.6839 9.20435 26 10 26C10.7956 26 11.5587 25.6839 12.1213 25.1213C12.6839 24.5587 13 23.7956 13 23C13 22.2044 12.6839 21.4413 12.1213 20.8787C11.5587 20.3161 10.7956 20 10 20C9.20435 20 8.44129 20.3161 7.87868 20.8787C7.31607 21.4413 7 22.2044 7 23V23Z" stroke="#30C6FF" stroke-width="2" stroke-linecap="round" stroke-linejoin="round"/>
<path d="M23 23C23 23.7956 23.3161 24.5587 23.8787 25.1213C24.4413 25.6839 25.2044 26 26 26C26.7956 26 27.5587 25.6839 28.1213 25.1213C28.6839 24.5587 29 23.7956 29 23C29 22.2044 28.6839 21.4413 28.1213 20.8787C27.5587 20.3161 26.7956 20 26 20C25.2044 20 24.4413 20.3161 23.8787 20.8787C23.3161 21.4413 23 22.2044 23 23Z" stroke="#30C6FF" stroke-width="2" stroke-linecap="round" stroke-linejoin="round"/>
<path d="M16 24H20" stroke="#30C6FF" stroke-width="2" stroke-linecap="round" stroke-linejoin="round"/>
</svg>
