<svg width="32" height="32" viewBox="0 0 32 32" fill="none" xmlns="http://www.w3.org/2000/svg">
<g clip-path="url(#clip0_706_3489)">
<path d="M25.3067 8.93311C26.1782 8.0616 26.6678 6.87959 26.6678 5.64711C26.6678 4.41462 26.1782 3.23261 25.3067 2.36111C24.4352 1.4896 23.2532 1 22.0207 1C20.7882 1 19.6062 1.4896 18.7347 2.36111L8.88267 12.2158C8.02919 13.0683 7.47565 14.1749 7.30534 15.3691L6.90534 18.1291L4.94001 20.0998C4.76698 20.2745 4.66992 20.5105 4.66992 20.7564C4.66992 21.0024 4.76698 21.2383 4.94001 21.4131L6.25467 22.7278C6.42943 22.9008 6.66542 22.9979 6.91134 22.9979C7.15726 22.9979 7.39325 22.9008 7.56801 22.7278L8.98801 21.3038" stroke="#30C6FF" stroke-width="2" stroke-linecap="round" stroke-linejoin="round"/>
<path d="M13.4813 2.36133L18.364 7.244" stroke="#30C6FF" stroke-width="2" stroke-linecap="round" stroke-linejoin="round"/>
<path d="M3.00131 24.5332L1.21198 28.1052C1.0241 28.4807 0.959179 28.9059 1.02643 29.3204C1.09367 29.7349 1.28967 30.1177 1.58665 30.4145V30.4145C1.9617 30.7895 2.47032 31.0001 3.00065 31.0001C3.53098 31.0001 4.03959 30.7895 4.41465 30.4145C4.71162 30.1177 4.90762 29.7349 4.97487 29.3204C5.04212 28.9059 4.9772 28.4807 4.78931 28.1052L3.00131 24.5332Z" stroke="#30C6FF" stroke-width="2" stroke-linecap="round" stroke-linejoin="round"/>
<path d="M21.1586 24.0265C19.692 25.7519 14.0293 27.0239 13.28 25.7865C13.7565 24.2475 14.6655 22.878 15.8986 21.8412C11.7973 19.6545 11.4773 17.7079 11.436 16.9452C12.5875 16.6031 13.797 16.501 14.9896 16.6453C16.1822 16.7895 17.3325 17.1771 18.3693 17.7839C18.3031 16.5059 18.5252 15.2294 19.0191 14.0488C19.513 12.8683 20.2661 11.814 21.2226 10.9639C22.1794 11.8138 22.9328 12.8681 23.4269 14.0487C23.9211 15.2292 24.1434 16.5058 24.0773 17.7839C25.114 17.177 26.2643 16.7894 27.457 16.6451C28.6496 16.5009 29.8591 16.603 31.0106 16.9452C30.9693 17.7145 30.6493 19.6545 26.5466 21.8412C27.7798 22.878 28.6888 24.2475 29.1653 25.7865C28.4173 27.0239 22.632 25.7519 21.1653 24.0265" stroke="#30C6FF" stroke-width="2" stroke-linecap="round" stroke-linejoin="round"/>
<path d="M21.1587 24.0269V30.9642" stroke="#30C6FF" stroke-width="2" stroke-linecap="round" stroke-linejoin="round"/>
</g>
<defs>
<clipPath id="clip0_706_3489">
<rect width="32" height="32" fill="white"/>
</clipPath>
</defs>
</svg>
