<svg width="33" height="32" viewBox="0 0 33 32" fill="none" xmlns="http://www.w3.org/2000/svg">
<path d="M19.008 3L27.008 6" stroke="#30C6FF" stroke-width="2" stroke-linecap="round" stroke-linejoin="round"/>
<path d="M13.0134 10.2425L19.764 13.6918C20.1405 13.8869 20.4558 14.182 20.6753 14.5448C20.8948 14.9076 21.0099 15.3238 21.008 15.7478V23.2518C21.0099 23.6758 20.8948 24.0921 20.6753 24.4549C20.4558 24.8176 20.1405 25.1128 19.764 25.3078L13.0134 28.7572C12.7021 28.9169 12.3572 29.0001 12.0074 29.0001C11.6575 29.0001 11.3126 28.9169 11.0014 28.7572L4.25069 25.3078C3.87458 25.1125 3.5596 24.8172 3.34037 24.4545C3.12114 24.0918 3.00615 23.6756 3.00802 23.2518V15.7478C3.00612 15.3238 3.12126 14.9076 3.34074 14.5448C3.56023 14.182 3.87556 13.8869 4.25202 13.6918L11.0014 10.2425C11.3126 10.0828 11.6575 9.99951 12.0074 9.99951C12.3572 9.99951 12.7021 10.0828 13.0134 10.2425V10.2425Z" stroke="#30C6FF" stroke-width="2" stroke-linecap="round" stroke-linejoin="round"/>
<path d="M3.36267 14.5078L12.008 18.9251L20.652 14.5078" stroke="#30C6FF" stroke-width="2" stroke-linecap="round" stroke-linejoin="round"/>
<path d="M12.008 18.9253V29" stroke="#30C6FF" stroke-width="2" stroke-linecap="round" stroke-linejoin="round"/>
<path d="M18.008 31L24.9507 27.1427C25.5741 26.7963 26.0936 26.2895 26.4554 25.6748C26.8171 25.0601 27.0079 24.3599 27.008 23.6467V6L30.008 4" stroke="#30C6FF" stroke-width="2" stroke-linecap="round" stroke-linejoin="round"/>
<path d="M19.008 9V3L22.008 1" stroke="#30C6FF" stroke-width="2" stroke-linecap="round" stroke-linejoin="round"/>
</svg>
