<svg width="33" height="32" viewBox="0 0 33 32" fill="none" xmlns="http://www.w3.org/2000/svg">
<rect x="0.980713" y="0.5" width="31" height="31" rx="7.5" fill="white" stroke="#E0DBED"/>
<g clip-path="url(#clip0_577_7731)">
<path d="M24.4807 11.0374C23.892 11.2987 23.2594 11.4747 22.5954 11.554C23.2734 11.148 23.794 10.5047 24.0387 9.73805C23.4047 10.114 22.702 10.3874 21.954 10.5347C21.356 9.89671 20.502 9.49805 19.558 9.49805C17.4387 9.49805 15.8814 11.4754 16.36 13.528C13.6327 13.3914 11.214 12.0847 9.59471 10.0987C8.73471 11.574 9.14871 13.504 10.61 14.4814C10.0727 14.464 9.56605 14.3167 9.12405 14.0707C9.08805 15.5914 10.178 17.014 11.7567 17.3307C11.2947 17.456 10.7887 17.4854 10.274 17.3867C10.6914 18.6907 11.9034 19.6394 13.3407 19.666C11.9607 20.748 10.222 21.2314 8.48071 21.026C9.93338 21.9574 11.6594 22.5007 13.5127 22.5007C19.6074 22.5007 23.0507 17.3534 22.8427 12.7367C23.484 12.2734 24.0407 11.6954 24.4807 11.0374Z" fill="#736B8E"/>
</g>
<defs>
<clipPath id="clip0_577_7731">
<rect width="16" height="16" fill="white" transform="translate(8.48071 8)"/>
</clipPath>
</defs>
</svg>
