<svg width="31" height="32" viewBox="0 0 31 32" fill="none" xmlns="http://www.w3.org/2000/svg">
<g clip-path="url(#clip0_706_1548)">
<path d="M3.87488 5.34375C3.87488 6.37146 4.28314 7.35709 5.00984 8.08379C5.73654 8.81049 6.72216 9.21875 7.74988 9.21875C8.77759 9.21875 9.76321 8.81049 10.4899 8.08379C11.2166 7.35709 11.6249 6.37146 11.6249 5.34375C11.6249 4.31604 11.2166 3.33041 10.4899 2.60371C9.76321 1.87701 8.77759 1.46875 7.74988 1.46875C6.72216 1.46875 5.73654 1.87701 5.00984 2.60371C4.28314 3.33041 3.87488 4.31604 3.87488 5.34375V5.34375Z" stroke="#FF9644" stroke-width="2" stroke-linecap="round" stroke-linejoin="round"/>
<path d="M13.875 15.0249C13.2134 13.6356 12.0991 12.5124 10.7149 11.84C9.33078 11.1676 7.75911 10.9858 6.25803 11.3246C4.75695 11.6634 3.41568 12.5025 2.4545 13.7042C1.49331 14.9059 0.969335 16.3988 0.968628 17.9376V20.8439H3.87488L4.84363 30.5314H10.6561L11.3291 23.7941" stroke="#FF9644" stroke-width="2" stroke-linecap="round" stroke-linejoin="round"/>
<path d="M22.2812 30.5312L15.6756 23.6402C15.0956 23.0603 14.7128 22.3127 14.5813 21.5031C14.4499 20.6936 14.5765 19.8632 14.9433 19.1297V19.1297C15.2202 18.5757 15.6247 18.0955 16.1236 17.7286C16.6225 17.3617 17.2015 17.1186 17.8128 17.0193C18.4241 16.9201 19.0502 16.9675 19.6396 17.1576C20.2289 17.3478 20.7647 17.6753 21.2027 18.1131L22.2812 19.1917L23.3598 18.1131C23.7976 17.6753 24.3333 17.3478 24.9225 17.1576C25.5118 16.9674 26.1379 16.92 26.7491 17.0193C27.3603 17.1186 27.9391 17.3617 28.4379 17.7286C28.9367 18.0955 29.3411 18.5757 29.6179 19.1297V19.1297C29.9844 19.8632 30.111 20.6934 29.9798 21.5028C29.8486 22.3123 29.4662 23.06 28.8868 23.6402L22.2812 30.5312Z" stroke="#FF9644" stroke-width="2" stroke-linecap="round" stroke-linejoin="round"/>
<path d="M7.74988 11.1562V18.9062" stroke="#FF9644" stroke-width="2" stroke-linecap="round" stroke-linejoin="round"/>
</g>
<defs>
<clipPath id="clip0_706_1548">
<rect width="31" height="31" fill="white" transform="translate(-0.00012207 0.5)"/>
</clipPath>
</defs>
</svg>
