<svg xmlns="http://www.w3.org/2000/svg" width="162.767" height="48.703"><g data-name="Сгруппировать 1" fill="#bf9f5d"><path data-name="Контур 1" d="M30.646 24.636h6.843v6.843h-6.843v-6.843zm-17.233 2.007a8.864 8.864 0 01-2.411-.319 6.275 6.275 0 01-2.023-.988 4.837 4.837 0 01-1.429-1.673 5.831 5.831 0 01-.616-2.4H0a11.184 11.184 0 00.73 4.045 9.314 9.314 0 001.947 3.079 10.719 10.719 0 002.9 2.152 14.438 14.438 0 003.574 1.262 19.127 19.127 0 003.992.41 20.746 20.746 0 003.771-.342 15.461 15.461 0 003.5-1.072 10.471 10.471 0 002.9-1.909 8.413 8.413 0 001.97-2.828 9.683 9.683 0 00.73-3.84 8.559 8.559 0 00-.768-3.741 7.31 7.31 0 00-2.03-2.555 11.439 11.439 0 00-2.874-1.673 25.3 25.3 0 00-3.293-1.08c-1.133-.281-2.228-.54-3.292-.783a27.592 27.592 0 01-2.874-.783 5.919 5.919 0 01-2.03-1.08 2.167 2.167 0 01-.768-1.672 2.6 2.6 0 01.449-1.491 3.4 3.4 0 011.14-1 5.6 5.6 0 011.491-.57 7.3 7.3 0 011.528-.175 9.04 9.04 0 012.9.388 3.79 3.79 0 011.886 1.346 5.337 5.337 0 01.867 2.555h6.615a10.673 10.673 0 00-.76-3.749 8.688 8.688 0 00-1.848-2.79 9.967 9.967 0 00-2.707-1.916 13.806 13.806 0 00-3.33-1.1 19.174 19.174 0 00-3.719-.35 15.718 15.718 0 00-3.376.365 13.433 13.433 0 00-3.148 1.1 10.4 10.4 0 00-2.615 1.863 8.132 8.132 0 00-1.787 2.638 8.752 8.752 0 00-.662 3.43 8.192 8.192 0 00.768 3.627 7.185 7.185 0 002.038 2.479 12.035 12.035 0 002.867 1.643 27.853 27.853 0 003.292 1.087c1.133.3 2.228.57 3.293.829a24.921 24.921 0 012.874.874 5.929 5.929 0 012.031 1.217 2.476 2.476 0 01.768 1.84 2.79 2.79 0 01-.563 1.741 3.767 3.767 0 01-1.392 1.125 7.409 7.409 0 01-1.8.608 9.225 9.225 0 01-1.764.175zm36.239 4.836h9.215L46.504 15.967 58.411.455h-8.759l-12.131 15.8 12.131 15.22zm73.339 0V.456h-6.843v31.023zm-16.6 0V.456h-6.844V19.8L88.872.456h-6.845v31.023h6.844V12.135l10.675 19.344zm-34.118 0V.456h-6.846v31.023zm82.874-10.539a7.307 7.307 0 01-1.825 2.411 8.722 8.722 0 01-5.748 2.2 8.565 8.565 0 01-3.528-.753 9.122 9.122 0 01-2.874-2.053 9.656 9.656 0 01-1.924-3.049 10.128 10.128 0 010-7.436 9.745 9.745 0 011.924-3.049 9.153 9.153 0 012.874-2.06 8.442 8.442 0 013.528-.76 8.747 8.747 0 013.064.555 8.394 8.394 0 012.646 1.551 7.157 7.157 0 011.817 2.41h7.619A15.92 15.92 0 00152.627.81a15.941 15.941 0 1010.14 20.13zM30.647.456h6.843V7.3h-6.843V.456z"/><path data-name="Контур 2" d="M16.158 48.561h2.74a3.853 3.853 0 100-7.7h-2.74v7.7zm1.056-.958v-5.789h1.618a2.895 2.895 0 110 5.789zm13.871.958h1.145l.792-1.838h3.984l.781 1.838h1.167l-3.39-7.7h-1.079l-3.4 7.7zm2.289-2.762l1.64-3.808 1.629 3.808zm14.673 2.762h1.012v-6.042l4.358 6.042h1.013v-7.7h-1.013v6.03l-4.358-6.03h-1.016v7.7zm25.952 0h1.056v-7.7h-1.056v7.7zm10.661-.539a5.915 5.915 0 002.861.682c1.948 0 2.993-.825 2.993-2.2 0-1.221-.627-1.882-2.124-2.2l-1.167-.242c-1.068-.22-1.442-.55-1.442-1.255s.627-1.123 1.761-1.123a4.342 4.342 0 012.5.671l.231-.979a5.43 5.43 0 00-2.751-.66c-1.816 0-2.806.825-2.806 2.135 0 1.222.583 1.86 2.047 2.168l1.233.265c1.09.231 1.442.583 1.442 1.276 0 .781-.627 1.178-1.882 1.178a5.356 5.356 0 01-2.663-.683l-.231.968zm15.433.539h5.283v-.979h-4.226v-2.444h3.742v-.979h-3.742v-2.321h4.127v-.979h-5.183v7.7zm14.714 0h5.183v-.979h-4.127v-6.724h-1.056v7.7zm14.33 0h1.056v-7.7h-1.05v7.7zm11.087 0h1.012v-6.042l4.358 6.042h1.012v-7.7h-1.012v6.03l-4.358-6.03h-1.012v7.7z"/></g></svg>