<svg xmlns="http://www.w3.org/2000/svg" width="111.378" height="33.327"><g data-name="Сгруппировать 13" fill="#4e4e4e"><path data-name="Контур 1" d="M20.971 16.858h4.683v4.683h-4.683v-4.683zM9.179 18.231a6.065 6.065 0 01-1.649-.218 4.294 4.294 0 01-1.384-.676 3.31 3.31 0 01-.978-1.145 3.99 3.99 0 01-.422-1.644H0a7.653 7.653 0 00.5 2.768 6.374 6.374 0 001.332 2.107 7.335 7.335 0 001.982 1.473 9.88 9.88 0 002.445.864 13.089 13.089 0 002.732.281 14.2 14.2 0 002.58-.234 10.581 10.581 0 002.393-.734 7.165 7.165 0 001.983-1.306 5.757 5.757 0 001.348-1.935 6.626 6.626 0 00.5-2.627 5.857 5.857 0 00-.525-2.56 5 5 0 00-1.389-1.748 7.826 7.826 0 00-1.967-1.145 17.312 17.312 0 00-2.253-.739c-.775-.192-1.524-.369-2.253-.536a18.88 18.88 0 01-1.967-.536 4.05 4.05 0 01-1.389-.739 1.483 1.483 0 01-.526-1.144 1.779 1.779 0 01.307-1.02 2.327 2.327 0 01.78-.687 3.831 3.831 0 011.02-.39 5 5 0 011.046-.12 6.185 6.185 0 011.988.265 2.594 2.594 0 011.291.921 3.652 3.652 0 01.593 1.748h4.527a7.3 7.3 0 00-.52-2.565 5.945 5.945 0 00-1.264-1.909A6.82 6.82 0 0013.441.99a9.448 9.448 0 00-2.279-.749A13.118 13.118 0 008.617.002a10.754 10.754 0 00-2.31.25 9.191 9.191 0 00-2.154.754 7.116 7.116 0 00-1.789 1.275 5.565 5.565 0 00-1.223 1.805 5.989 5.989 0 00-.453 2.347 5.606 5.606 0 00.525 2.482 4.917 4.917 0 001.394 1.7 8.234 8.234 0 001.962 1.124 19.059 19.059 0 002.253.744c.775.2 1.525.39 2.253.567a17.049 17.049 0 011.967.6 4.057 4.057 0 011.39.833 1.694 1.694 0 01.525 1.259 1.909 1.909 0 01-.385 1.192 2.578 2.578 0 01-.952.77 5.069 5.069 0 01-1.233.416 6.313 6.313 0 01-1.207.12zm24.8 3.309h6.306l-8.46-10.614L39.973.312h-5.994l-8.3 10.814 8.3 10.415zm50.184 0V.31H79.48v21.229zm-11.358 0V.31h-4.683v13.237L60.822.31h-4.695v21.229h4.683V8.304l7.3 13.237zm-23.346 0V.31h-4.683v21.229zm56.709-7.212a5 5 0 01-1.249 1.65 5.968 5.968 0 01-3.933 1.5 5.861 5.861 0 01-2.414-.515 6.242 6.242 0 01-1.967-1.4 6.607 6.607 0 01-1.316-2.086 6.93 6.93 0 010-5.089 6.668 6.668 0 011.316-2.087 6.263 6.263 0 011.967-1.41 5.776 5.776 0 012.414-.52 5.986 5.986 0 012.1.38 5.744 5.744 0 011.811 1.062 4.9 4.9 0 011.243 1.649h5.213a10.894 10.894 0 00-6.9-6.9 10.908 10.908 0 106.936 13.772zM20.971.31h4.683v4.683h-4.683V.31z"/><path data-name="Контур 2" d="M11.057 33.228h1.875a2.637 2.637 0 100-5.271h-1.875v5.271zm.723-.655v-3.961h1.107a1.981 1.981 0 110 3.961zm9.492.655h.783l.542-1.258h2.726l.535 1.258h.8l-2.319-5.271h-.738l-2.327 5.271zm1.566-1.89l1.122-2.606 1.115 2.606zm10.041 1.89h.693v-4.134l2.982 4.134h.693v-5.271h-.693v4.126l-2.982-4.127h-.693v5.271zm17.758 0h.723v-5.271h-.723v5.271zm7.295-.369a4.048 4.048 0 001.958.467c1.333 0 2.048-.565 2.048-1.506 0-.836-.429-1.288-1.453-1.506l-.8-.166c-.73-.151-.987-.377-.987-.858s.429-.768 1.2-.768a2.971 2.971 0 011.709.459l.158-.67a3.715 3.715 0 00-1.883-.452c-1.243 0-1.92.565-1.92 1.461 0 .836.4 1.273 1.4 1.483l.843.181c.746.158.987.4.987.873 0 .535-.429.806-1.288.806a3.665 3.665 0 01-1.822-.467l-.158.663zm10.561.369h3.615v-.67h-2.892v-1.675h2.56v-.67h-2.56v-1.589h2.826v-.67h-3.547v5.271zm10.068 0h3.547v-.67h-2.824v-4.6h-.723v5.271zm9.806 0h.723v-5.271h-.723v5.271zm7.587 0h.693v-4.134l2.982 4.134h.693v-5.271h-.693v4.126l-2.982-4.127h-.693v5.271z"/></g></svg>