<svg xmlns="http://www.w3.org/2000/svg" width="67" height="28" viewBox="0 0 67 28">
  <defs>
    <style>
      .cls-1 {
        fill: #FFA700;
        fill-rule: evenodd;
      }
    </style>
  </defs>
  <path id="Logo" class="cls-1" d="M44.015,57.558V39H40V61.021H53.97V57.558H44.015Zm26.21-8.436a8.176,8.176,0,0,0-1.643-2.748,7.132,7.132,0,0,0-2.536-1.764,8.32,8.32,0,0,0-3.238-.62,8.2,8.2,0,0,0-3.222.62,7.322,7.322,0,0,0-2.536,1.764,8.024,8.024,0,0,0-1.659,2.748A10.285,10.285,0,0,0,54.8,52.7a10.417,10.417,0,0,0,.59,3.59,8.135,8.135,0,0,0,1.643,2.764,7.345,7.345,0,0,0,2.52,1.779,8.1,8.1,0,0,0,3.254.636,8.22,8.22,0,0,0,3.27-.636,7.309,7.309,0,0,0,2.537-1.779,7.94,7.94,0,0,0,1.627-2.764,10.685,10.685,0,0,0,.574-3.59A10.3,10.3,0,0,0,70.225,49.122ZM65.79,56.668a3.775,3.775,0,0,1-5.966,0A6.6,6.6,0,0,1,58.755,52.7a6.464,6.464,0,0,1,1.069-3.924,3.8,3.8,0,0,1,5.966,0A6.466,6.466,0,0,1,66.859,52.7,6.6,6.6,0,0,1,65.79,56.668Zm12.363-8.023a3.9,3.9,0,0,1,3.222-1.382,12.242,12.242,0,0,1,1.531.08q0.606,0.08,1.021.175v8.611a4.971,4.971,0,0,1-1.324.6,5.789,5.789,0,0,1-1.739.254,3.631,3.631,0,0,1-2.76-1.128,5.062,5.062,0,0,1-1.069-3.575A5.61,5.61,0,0,1,78.153,48.646Zm9.635-3.7q-1.181-.317-2.871-0.6a21.439,21.439,0,0,0-3.573-.286,9.423,9.423,0,0,0-3.478.6,7.445,7.445,0,0,0-2.6,1.684,7.131,7.131,0,0,0-1.627,2.605,9.632,9.632,0,0,0-.558,3.336,10.158,10.158,0,0,0,.526,3.416,6.819,6.819,0,0,0,1.468,2.462,6.114,6.114,0,0,0,2.265,1.493,8.078,8.078,0,0,0,2.919.508,7.419,7.419,0,0,0,2.154-.286,10.1,10.1,0,0,0,1.516-.572v0.636a3.755,3.755,0,0,1-.989,2.828,4.7,4.7,0,0,1-3.318.953,13.817,13.817,0,0,1-2.728-.254,12.03,12.03,0,0,1-2.249-.667l-0.7,3.272a16.769,16.769,0,0,0,2.632.667,17.29,17.29,0,0,0,2.983.254q4.179,0,6.206-1.843t2.026-5.814V44.944Zm18.617,4.178a8.175,8.175,0,0,0-1.643-2.748,7.137,7.137,0,0,0-2.537-1.764,8.317,8.317,0,0,0-3.238-.62,8.2,8.2,0,0,0-3.222.62,7.323,7.323,0,0,0-2.537,1.764,8.026,8.026,0,0,0-1.659,2.748,10.285,10.285,0,0,0-.59,3.574,10.417,10.417,0,0,0,.59,3.59,8.135,8.135,0,0,0,1.643,2.764,7.345,7.345,0,0,0,2.52,1.779,8.1,8.1,0,0,0,3.254.636,8.219,8.219,0,0,0,3.27-.636,7.313,7.313,0,0,0,2.537-1.779,7.94,7.94,0,0,0,1.627-2.764A10.683,10.683,0,0,0,107,52.7,10.3,10.3,0,0,0,106.405,49.122Zm-4.435,7.546a3.775,3.775,0,0,1-5.966,0A6.6,6.6,0,0,1,94.935,52.7,6.464,6.464,0,0,1,96,48.773a3.8,3.8,0,0,1,5.966,0,6.469,6.469,0,0,1,1.069,3.924A6.6,6.6,0,0,1,101.97,56.668Z" transform="translate(-40 -39)"/>
</svg>
