<svg xmlns="http://www.w3.org/2000/svg" width="96" height="92"><g data-name="Group 231" transform="translate(-318 -852)"><rect data-name="Rectangle 15" width="96" height="92" rx="10" transform="translate(318 852)" fill="#fff"/><path data-name="Icon awesome-layer-group" d="M340.212 887.456l22.748 10.319a2.5 2.5 0 002.079 0l22.748-10.319a2.182 2.182 0 000-3.909l-10.387-4.713-12.36-5.607a2.5 2.5 0 00-2.079 0l-22.749 10.319a2.183 2.183 0 000 3.91zm47.576 8.621l-5.673-2.576-15.785 7.16a5.629 5.629 0 01-4.66 0l-15.784-7.16-5.674 2.576a2.18 2.18 0 000 3.906l22.748 10.312a2.508 2.508 0 002.079 0l22.749-10.312a2.18 2.18 0 000-3.906zm0 12.48l-5.651-2.561-15.807 7.165a5.629 5.629 0 01-4.66 0l-15.806-7.165-5.652 2.561a2.18 2.18 0 000 3.906l22.748 10.312a2.508 2.508 0 002.079 0l22.749-10.311a2.18 2.18 0 000-3.906z"/></g></svg>