<svg xmlns="http://www.w3.org/2000/svg" width="419.623" height="341"><g data-name="Group 235"><g data-name="Group 67" fill="#f5f5f5"><path data-name="Path 45" d="M149.581 197.827c0 3.12 2.921 5.653 6.518 5.653s6.511-2.533 6.511-5.653-2.913-5.653-6.511-5.653-6.518 2.527-6.518 5.653z"/><path data-name="Path 46" d="M74.837 197.821c0 3.464 3.237 6.265 7.224 6.265s7.224-2.8 7.224-6.265-3.237-6.259-7.224-6.259-7.224 2.807-7.224 6.259z"/><path data-name="Path 47" d="M-.004 197.821c0 3.841 3.582 6.948 8 6.948s8-3.107 8-6.948-3.582-6.935-8-6.935-8 3.107-8 6.935z"/><path data-name="Path 48" d="M251.698 197.826c0 2.813 2.633 5.1 5.878 5.1s5.885-2.284 5.885-5.1-2.634-5.1-5.885-5.1-5.878 2.281-5.878 5.1z"/><path data-name="Path 50" d="M149.581 143.186c0 3.12 2.921 5.653 6.518 5.653s6.511-2.533 6.511-5.653-2.913-5.659-6.511-5.659-6.518 2.533-6.518 5.659z"/><path data-name="Path 51" d="M251.698 143.186c0 2.814 2.633 5.1 5.878 5.1s5.885-2.284 5.885-5.1-2.634-5.1-5.885-5.1-5.878 2.28-5.878 5.1z"/><path data-name="Path 52" d="M74.837 143.186c0 3.458 3.237 6.259 7.224 6.259s7.224-2.8 7.224-6.259-3.237-6.265-7.224-6.265-7.224 2.807-7.224 6.265z"/><path data-name="Path 53" d="M-.004 143.187c0 3.828 3.582 6.935 8 6.935s8-3.107 8-6.935-3.582-6.948-8-6.948-8 3.113-8 6.948z"/><path data-name="Path 66" d="M113.389 167.176a6.277 6.277 0 00-.633 1.015 5.261 5.261 0 00-.537 2.316 5.407 5.407 0 001.17 3.324 7.2 7.2 0 005.694 2.622 8.227 8.227 0 001.383-.121 7.239 7.239 0 003.465-1.62 6.759 6.759 0 00.839-.881 5.526 5.526 0 001.03-2.131 5.184 5.184 0 000-2.393 5 5 0 00-.4-1.117 6.252 6.252 0 00-.633-1.015 6.75 6.75 0 00-.839-.88 7.181 7.181 0 00-3.465-1.621 7.631 7.631 0 00-1.383-.121 7.4 7.4 0 00-4.855 1.742 6.718 6.718 0 00-.836.881z"/><path data-name="Path 67" d="M136.187 168.413a4.81 4.81 0 00-.485 2.093c0 2.96 2.773 5.366 6.194 5.366s6.187-2.406 6.187-5.366a4.705 4.705 0 00-.486-2.093 5.307 5.307 0 00-1.324-1.7 6.877 6.877 0 00-8.762 0 5.416 5.416 0 00-1.324 1.7z"/><path data-name="Path 69" d="M38.03 167.935a5.879 5.879 0 00-.6 2.571c0 3.637 3.4 6.591 7.6 6.591s7.606-2.954 7.606-6.591a5.88 5.88 0 00-.6-2.571 6.751 6.751 0 00-1.629-2.089 8.446 8.446 0 00-10.755 0 6.716 6.716 0 00-1.622 2.089z"/><path data-name="Path 88" d="M283.603 278.799a4.32 4.32 0 00-.111.976 4.709 4.709 0 002.457 4.019 6.2 6.2 0 003.126.823 6.442 6.442 0 001.126-.1 5.081 5.081 0 004.465-4.747 4.349 4.349 0 00-.118-.976 5.262 5.262 0 00-4.348-3.771 6.465 6.465 0 00-1.126-.1 6.2 6.2 0 00-3.126.829 4.877 4.877 0 00-2.345 3.047z"/><path data-name="Path 89" d="M135.826 278.697a4.732 4.732 0 00-.125 1.079c0 2.966 2.773 5.372 6.194 5.372s6.187-2.405 6.187-5.372a4.367 4.367 0 00-.125-1.079 6.431 6.431 0 00-12.131 0z"/><path data-name="Path 90" d="M347.133 278.895a3.894 3.894 0 00-.1.881c0 2.418 2.251 4.37 5.039 4.37s5.046-1.952 5.046-4.37a3.9 3.9 0 00-.1-.881 5.243 5.243 0 00-9.887 0z"/><path data-name="Path 91" d="M113.389 276.452a5.544 5.544 0 00-1.03 2.125 5.286 5.286 0 001.03 4.524 7.2 7.2 0 005.694 2.622 7.6 7.6 0 001.383-.121 7.18 7.18 0 003.465-1.621 6.382 6.382 0 00.839-.88 5.545 5.545 0 001.03-2.125 5.211 5.211 0 000-2.4 5.542 5.542 0 00-1.03-2.125 6.349 6.349 0 00-.839-.88 7.243 7.243 0 00-3.465-1.627 8.234 8.234 0 00-1.383-.121 7.205 7.205 0 00-5.694 2.629z"/><path data-name="Path 92" d="M37.588 278.448a5.68 5.68 0 00-.155 1.327c0 3.643 3.4 6.591 7.6 6.591s7.606-2.947 7.606-6.591a5.676 5.676 0 00-.154-1.327c-.714-3.005-3.774-5.264-7.452-5.264s-6.739 2.259-7.445 5.264z"/><path data-name="Path 94" d="M283.492 225.135a4.693 4.693 0 002.457 4.019 6.2 6.2 0 003.126.829 5.9 5.9 0 001.126-.1 4.756 4.756 0 000-9.494 6.466 6.466 0 00-1.126-.1 6.2 6.2 0 00-3.126.829 4.7 4.7 0 00-2.457 4.017z"/><path data-name="Path 95" d="M135.701 225.135c0 2.967 2.773 5.372 6.194 5.372s6.187-2.405 6.187-5.372-2.773-5.366-6.187-5.366-6.194 2.405-6.194 5.366z"/><path data-name="Path 101" d="M37.433 225.141c0 3.637 3.4 6.584 7.6 6.584s7.606-2.948 7.606-6.584-3.406-6.6-7.606-6.6-7.6 2.957-7.6 6.6z"/><path data-name="Path 103" d="M113.389 221.81a5.318 5.318 0 000 6.655 7.2 7.2 0 005.694 2.622 8.231 8.231 0 001.383-.121 7.3 7.3 0 003.465-1.62 7.2 7.2 0 00.839-.88 5.525 5.525 0 001.03-2.131 5.183 5.183 0 000-2.392 5.527 5.527 0 00-1.03-2.131 6.737 6.737 0 00-.839-.88 7.237 7.237 0 00-3.465-1.621 7.606 7.606 0 00-1.383-.121 7.2 7.2 0 00-5.694 2.62z"/><path data-name="Path 104" d="M251.698 252.455c0 2.82 2.633 5.1 5.878 5.1s5.885-2.284 5.885-5.1-2.634-5.1-5.885-5.1-5.878 2.286-5.878 5.1z"/><path data-name="Path 107" d="M74.837 252.455c0 3.458 3.237 6.265 7.224 6.265s7.224-2.807 7.224-6.265-3.237-6.265-7.224-6.265-7.224 2.807-7.224 6.265z"/><path data-name="Path 109" d="M-.004 252.455c0 3.835 3.582 6.942 8 6.942s8-3.107 8-6.942-3.582-6.942-8-6.942-8 3.114-8 6.942z"/><path data-name="Path 110" d="M149.581 252.455c0 3.127 2.921 5.653 6.518 5.653s6.511-2.527 6.511-5.653-2.913-5.653-6.511-5.653-6.518 2.533-6.518 5.653z"/><path data-name="Path 111" d="M315.264 252.454c0 2.546 2.384 4.607 5.311 4.607s5.311-2.061 5.311-4.607-2.376-4.607-5.311-4.607-5.311 2.068-5.311 4.607z"/><path data-name="Path 121" d="M283.492 6.598a4.7 4.7 0 002.457 4.013 6.2 6.2 0 003.126.829 6.462 6.462 0 001.126-.1 4.756 4.756 0 000-9.494 6.453 6.453 0 00-1.126-.1 6.2 6.2 0 00-3.126.83 4.7 4.7 0 00-2.457 4.022z"/><path data-name="Path 122" d="M347.037 6.591c0 2.418 2.251 4.377 5.039 4.377s5.046-1.959 5.046-4.377-2.258-4.37-5.046-4.37-5.039 1.959-5.039 4.37z"/><path data-name="Path 124" d="M113.389 3.267a5.318 5.318 0 000 6.655 7.2 7.2 0 005.694 2.622 8.218 8.218 0 001.383-.121 7.3 7.3 0 003.465-1.62 7.191 7.191 0 00.839-.88 5.572 5.572 0 001.03-2.131 5.184 5.184 0 000-2.393 5.569 5.569 0 00-1.03-2.131 6.749 6.749 0 00-.839-.88 7.237 7.237 0 00-3.465-1.621 7.612 7.612 0 00-1.383-.121 7.2 7.2 0 00-5.694 2.621z"/><path data-name="Path 125" d="M135.701 6.594c0 2.96 2.773 5.366 6.194 5.366s6.187-2.405 6.187-5.366-2.773-5.372-6.187-5.372-6.194 2.409-6.194 5.372z"/><path data-name="Path 126" d="M251.698 33.907c0 2.82 2.633 5.1 5.878 5.1s5.885-2.284 5.885-5.1-2.634-5.1-5.885-5.1-5.878 2.285-5.878 5.1z"/><path data-name="Path 127" d="M315.264 33.912c0 2.546 2.384 4.606 5.311 4.606s5.311-2.061 5.311-4.606-2.376-4.607-5.311-4.607-5.311 2.067-5.311 4.607z"/><path data-name="Path 129" d="M378.78 33.912c0 2.3 2.148 4.153 4.8 4.153s4.789-1.857 4.789-4.153-2.148-4.154-4.789-4.154-4.8 1.856-4.8 4.154z"/><path data-name="Path 133" d="M37.433 6.597c0 3.637 3.4 6.591 7.6 6.591s7.606-2.954 7.606-6.591-3.406-6.6-7.606-6.6-7.6 2.957-7.6 6.6z"/><path data-name="Path 134" d="M149.581 33.911c0 3.12 2.921 5.653 6.518 5.653s6.511-2.533 6.511-5.653-2.913-5.653-6.511-5.653-6.518 2.533-6.518 5.653z"/><path data-name="Path 135" d="M74.837 33.912c0 3.458 3.237 6.265 7.224 6.265s7.224-2.807 7.224-6.265-3.237-6.265-7.224-6.265-7.224 2.807-7.224 6.265z"/><path data-name="Path 136" d="M-.004 33.911c0 3.834 3.582 6.942 8 6.942s8-3.107 8-6.942-3.582-6.942-8-6.942-8 3.108-8 6.942z"/><path data-name="Path 148" d="M149.581 88.552c0 3.126 2.921 5.653 6.518 5.653s6.511-2.527 6.511-5.653-2.913-5.653-6.511-5.653-6.518 2.533-6.518 5.653z"/><path data-name="Path 152" d="M315.264 88.552c0 2.546 2.384 4.607 5.311 4.607s5.311-2.061 5.311-4.607-2.376-4.6-5.311-4.6-5.311 2.061-5.311 4.6z"/><path data-name="Path 153" d="M251.698 88.552c0 2.82 2.633 5.1 5.878 5.1s5.885-2.284 5.885-5.1-2.634-5.1-5.885-5.1-5.878 2.286-5.878 5.1z"/><path data-name="Path 157" d="M37.433 115.87c0 3.637 3.4 6.591 7.6 6.591s7.606-2.954 7.606-6.591-3.406-6.591-7.606-6.591-7.6 2.951-7.6 6.591z"/><path data-name="Path 160" d="M283.492 115.866a4.71 4.71 0 002.457 4.02 6.2 6.2 0 003.126.823 6.433 6.433 0 001.126-.1 4.756 4.756 0 000-9.494 6.447 6.447 0 00-1.126-.1 6.2 6.2 0 00-3.126.829 4.709 4.709 0 00-2.457 4.022z"/><path data-name="Path 162" d="M135.701 115.866c0 2.967 2.773 5.366 6.194 5.366s6.187-2.4 6.187-5.366-2.773-5.372-6.187-5.372-6.194 2.405-6.194 5.372z"/><path data-name="Path 163" d="M113.389 112.542a5.308 5.308 0 000 6.648 7.2 7.2 0 005.694 2.622 7.609 7.609 0 001.383-.121 7.181 7.181 0 003.465-1.62 6.387 6.387 0 00.839-.881 5.542 5.542 0 001.03-2.125 5.213 5.213 0 000-2.4 5.545 5.545 0 00-1.03-2.124 6.375 6.375 0 00-.839-.88 7.245 7.245 0 00-3.465-1.627 8.256 8.256 0 00-1.383-.121 7.206 7.206 0 00-5.694 2.629z"/><path data-name="Path 164" d="M74.837 88.552c0 3.458 3.237 6.265 7.224 6.265s7.224-2.807 7.224-6.265-3.237-6.259-7.224-6.259-7.224 2.801-7.224 6.259z"/><path data-name="Path 165" d="M38.03 58.666a5.873 5.873 0 00-.6 2.565c0 3.643 3.4 6.591 7.6 6.591s7.606-2.948 7.606-6.591a5.874 5.874 0 00-.6-2.565 6.7 6.7 0 00-1.633-2.1 8.446 8.446 0 00-10.755 0 6.67 6.67 0 00-1.618 2.1z"/><path data-name="Path 167" d="M136.187 59.146a4.782 4.782 0 00-.485 2.086c0 2.967 2.773 5.366 6.194 5.366s6.187-2.4 6.187-5.366a4.677 4.677 0 00-.486-2.086 5.331 5.331 0 00-1.324-1.71 6.877 6.877 0 00-8.762 0 5.441 5.441 0 00-1.324 1.71z"/><path data-name="Path 168" d="M285.126 57.805a4.937 4.937 0 00-1.2 1.544 4.287 4.287 0 00-.434 1.882 4.709 4.709 0 002.457 4.02 6.2 6.2 0 003.126.823 6.451 6.451 0 001.126-.1 5.082 5.082 0 004.465-4.747 4.292 4.292 0 00-.441-1.882 4.835 4.835 0 00-1.2-1.544 5.869 5.869 0 00-2.825-1.321 6.444 6.444 0 00-1.126-.1 6.2 6.2 0 00-3.126.83 5.093 5.093 0 00-.822.595z"/><path data-name="Path 170" d="M347.427 59.526a3.929 3.929 0 00-.39 1.7c0 2.412 2.251 4.371 5.039 4.371s5.046-1.959 5.046-4.371a3.834 3.834 0 00-.4-1.7 4.446 4.446 0 00-1.081-1.391 5.6 5.6 0 00-7.136 0 4.446 4.446 0 00-1.078 1.391z"/><path data-name="Path 178" d="M113.389 57.908a5.948 5.948 0 00-.633 1.008 5.281 5.281 0 00-.537 2.316 5.393 5.393 0 001.17 3.324 7.2 7.2 0 005.694 2.622 7.633 7.633 0 001.383-.121 7.183 7.183 0 003.465-1.621 6.368 6.368 0 00.839-.881 5.545 5.545 0 001.03-2.125 5.277 5.277 0 00-.4-3.515 5.925 5.925 0 00-.633-1.008 6.378 6.378 0 00-.839-.881 7.248 7.248 0 00-3.465-1.627 8.208 8.208 0 00-1.383-.121 7.4 7.4 0 00-4.855 1.748 6.348 6.348 0 00-.836.882z"/><path data-name="Path 183" d="M-.004 88.552c0 3.835 3.582 6.942 8 6.942s8-3.107 8-6.942-3.582-6.935-8-6.935-8 3.101-8 6.935z"/><path data-name="Path 190" d="M315.264 307.095c0 2.546 2.384 4.607 5.311 4.607s5.311-2.061 5.311-4.607-2.376-4.6-5.311-4.6-5.311 2.059-5.311 4.6z"/><path data-name="Path 191" d="M378.78 307.095c0 2.3 2.148 4.16 4.8 4.16s4.789-1.863 4.789-4.16-2.148-4.154-4.789-4.154-4.8 1.864-4.8 4.154z"/><path data-name="Path 192" d="M-.004 307.095c0 3.835 3.582 6.942 8 6.942s8-3.107 8-6.942-3.582-6.935-8-6.935-8 3.107-8 6.935z"/><path data-name="Path 197" d="M149.581 307.095c0 3.126 2.921 5.653 6.518 5.653s6.511-2.527 6.511-5.653-2.913-5.653-6.511-5.653-6.518 2.533-6.518 5.653z"/><path data-name="Path 198" d="M251.698 307.096c0 2.82 2.633 5.1 5.878 5.1s5.885-2.284 5.885-5.1-2.634-5.1-5.885-5.1-5.878 2.286-5.878 5.1z"/><path data-name="Path 199" d="M74.837 307.096c0 3.464 3.237 6.265 7.224 6.265s7.224-2.8 7.224-6.265-3.237-6.259-7.224-6.259-7.224 2.8-7.224 6.259z"/><path data-name="Path 201" d="M135.701 334.409c0 2.967 2.773 5.366 6.194 5.366s6.187-2.4 6.187-5.366-2.773-5.372-6.187-5.372-6.194 2.412-6.194 5.372z"/><path data-name="Path 202" d="M37.433 334.409c0 3.637 3.4 6.591 7.6 6.591s7.606-2.954 7.606-6.591-3.406-6.591-7.606-6.591-7.6 2.954-7.6 6.591z"/><path data-name="Path 204" d="M113.389 331.086a5.308 5.308 0 000 6.648 7.2 7.2 0 005.694 2.622 7.6 7.6 0 001.383-.121 7.179 7.179 0 003.465-1.621 6.375 6.375 0 00.839-.88 5.543 5.543 0 001.03-2.125 5.211 5.211 0 000-2.4 5.542 5.542 0 00-1.03-2.125 6.366 6.366 0 00-.839-.881 7.246 7.246 0 00-3.465-1.627 8.224 8.224 0 00-1.383-.121 7.205 7.205 0 00-5.694 2.631z"/><path data-name="Path 205" d="M283.492 334.409a4.709 4.709 0 002.457 4.02 6.266 6.266 0 003.126.823 6.448 6.448 0 001.126-.1 4.756 4.756 0 000-9.494 6.441 6.441 0 00-1.126-.1 6.205 6.205 0 00-3.126.829 4.709 4.709 0 00-2.457 4.022z"/><path data-name="Path 206" d="M411.303 332.201a3.515 3.515 0 000 4.415 4.767 4.767 0 003.774 1.735 5.364 5.364 0 00.912-.077 4.8 4.8 0 002.3-1.078 4.492 4.492 0 00.559-.581 3.8 3.8 0 00.684-1.41 3.644 3.644 0 000-1.6 3.8 3.8 0 00-.684-1.41 4.49 4.49 0 00-.559-.581 4.689 4.689 0 00-2.3-1.078 5.357 5.357 0 00-.912-.083 4.752 4.752 0 00-3.774 1.748z"/><path data-name="Path 207" d="M411.303 4.394a3.507 3.507 0 000 4.409 5.007 5.007 0 006.989.587 4.563 4.563 0 00.559-.587 3.756 3.756 0 00.684-1.41 3.615 3.615 0 000-1.589 3.707 3.707 0 00-.684-1.41 4.521 4.521 0 00-.559-.587 4.8 4.8 0 00-2.3-1.078 5.4 5.4 0 00-.912-.077 4.753 4.753 0 00-3.777 1.742z"/><path data-name="Path 208" d="M347.037 334.41c0 2.412 2.251 4.37 5.039 4.37s5.046-1.959 5.046-4.37-2.258-4.377-5.046-4.377-5.039 1.965-5.039 4.377z"/></g></g></svg>