<svg version="1.0" xmlns="http://www.w3.org/2000/svg" width="1706.667" height="1670.667" viewBox="0 0 1280 1253"><path d="M1200 1c-19.2 2.7-39.5 9.8-65.5 23-44.6 22.5-96.1 59-162 114.9-92.6 78.5-215.8 200-346.6 341.6-66.1 71.7-138.9 153.7-191.3 215.7-8.7 10.4-15.9 18.8-16 18.8-.1 0-6.7-3.4-14.6-7.6-25.5-13.4-87.5-44.2-107.8-53.6-84.9-39.1-144.1-59.5-191.2-65.9-13.4-1.8-36.8-1.3-47.9 1-22.4 4.8-40.5 18.1-49.5 36.6-5.2 10.4-6.9 18.3-7 31-.1 10.5.1 11.3 3.2 17.7 2.9 5.9 5.5 8.7 23.5 25.4 43.8 40.7 91.9 90.4 127.3 131.5 79.2 92.1 162.5 216.7 257.9 385.8 16.8 29.7 23.4 35.5 40.5 35.5 6.6 0 9.6-.5 13.2-2.1 11.3-5.1 15.8-11.1 23.8-31.3 13.5-34.1 39.8-96.4 56.5-133.5C675 798.9 828.5 556 1011.9 349c52-58.7 97.1-104.9 182.1-186.6 66.5-64 79-78.8 84.4-100.5 8.1-32.8-18.7-60.1-60.4-61.4-6.3-.2-14.4 0-18 .5z" fill="#ffa700"/></svg>