<svg xmlns="http://www.w3.org/2000/svg" width="92" height="92"><g data-name="Group 93" transform="translate(-783 -852)"><rect data-name="Rectangle 18" width="92" height="92" rx="10" transform="translate(783 852)" fill="#fff"/><g data-name="Group 14" fill="#1b1b1b"><path data-name="Path 2" d="M814.741 912.24a13.1 13.1 0 01-2.753-4.629.946.946 0 00-1.592-.283l-4.087 4.69a.476.476 0 00.301.783l2.194.3a.482.482 0 01.405.577l-.999 4.526a.478.478 0 00.566.565l4.526-.998a.482.482 0 01.577.404l.3 2.194a.476.476 0 00.784.302l4.69-4.087a.942.942 0 00-.284-1.592 13.159 13.159 0 01-4.628-2.752z"/><path data-name="Path 3" d="M837.99 913.375l.095-8.355c13.595-13.595 11.599-27.638 11.599-27.638s-14.123-2.074-27.718 11.52l-8.352.097a1.012 1.012 0 00-.8.421l-8.034 11.2a.931.931 0 00.551 1.48l9.68 1.867a9.289 9.289 0 002.331 5.774 8.784 8.784 0 005.688 2.246l1.867 9.68a.936.936 0 001.48.55l11.214-8.03a1.081 1.081 0 00.4-.812zm-3.452-20.847a3.9 3.9 0 115.395-.112 3.812 3.812 0 01-5.393.11z"/></g></g></svg>