<svg width="1440" height="831" viewBox="0 0 1440 831" fill="none" xmlns="http://www.w3.org/2000/svg">
<path fill-rule="evenodd" clip-rule="evenodd" d="M1142.81 213.858L1248.9 30.0194C1256.6 16.6808 1275.85 16.6808 1283.54 30.0193L1389.63 213.858L1142.81 213.858ZM1100.77 286.829C1104.35 280.643 1110.95 276.832 1118.09 276.832L1414.6 276.832C1421.75 276.832 1428.35 280.645 1431.92 286.834L1746 831L1600.68 831L1513.29 679.611L1431.42 821.021C1427.85 827.197 1421.25 831 1414.11 831L1118.4 831C1111.23 831 1104.6 827.159 1101.04 820.933L953.089 562.384C949.553 556.205 949.568 548.613 953.129 542.448L1100.77 286.829ZM1179.33 705.053L1352.86 705.053L1440.25 553.664L1353.11 402.779L1179.08 402.779L1091.94 553.664L1179.33 705.053ZM918.163 614.623L794 829.992L939.318 829.992L990.444 741.577L918.163 614.623Z" fill="#F3F3F3" fill-opacity="0.2"/>
<path fill-rule="evenodd" clip-rule="evenodd" d="M42.8148 213.858L148.899 30.0194C156.596 16.6808 175.848 16.6808 183.545 30.0193L289.63 213.858L42.8148 213.858ZM0.774032 286.829C4.34718 280.643 10.9487 276.832 18.0927 276.832L314.599 276.832C321.746 276.832 328.349 280.645 331.921 286.834L646 831L500.681 831L413.289 679.611L331.422 821.021C327.846 827.197 321.25 831 314.113 831L18.3982 831C11.2254 831 4.60188 827.159 1.0394 820.933L-146.911 562.384C-150.447 556.205 -150.432 548.613 -146.871 542.448L0.774032 286.829ZM79.3333 705.053L252.859 705.053L340.252 553.664L253.111 402.779L79.0814 402.779L-8.05932 553.664L79.3333 705.053ZM-181.837 614.623L-306 829.992L-160.682 829.992L-109.556 741.577L-181.837 614.623Z" fill="#F3F3F3" fill-opacity="0.2"/>
<path fill-rule="evenodd" clip-rule="evenodd" d="M842.185 617.141L736.1 800.981C728.403 814.319 709.152 814.319 701.455 800.981L595.37 617.141L842.185 617.141ZM884.226 544.171C880.653 550.357 874.051 554.168 866.907 554.168L570.4 554.168C563.254 554.168 556.651 550.355 553.079 544.166L239 -8.86297e-05L384.318 -0.000114038L471.711 151.388L553.578 9.97927C557.154 3.80285 563.75 -0.000145411 570.886 -0.000146659L866.601 -0.000198363C873.774 -0.000199617 880.398 3.84091 883.96 10.0665L1031.91 268.615C1035.45 274.794 1035.43 282.387 1031.87 288.552L884.226 544.171ZM805.666 125.947L632.14 125.947L544.748 277.336L631.889 428.221L805.918 428.22L893.059 277.336L805.666 125.947ZM1066.84 216.377L1191 1.00738L1045.68 1.00741L994.555 89.4224L1066.84 216.377Z" fill="#F3F3F3" fill-opacity="0.2"/>
</svg>
