<svg xmlns="http://www.w3.org/2000/svg" width="49" height="49"><defs><linearGradient id="a" x1=".094" y1=".774" x2=".902" y2=".287" gradientUnits="objectBoundingBox"><stop offset="0" stop-color="#d5b168"/><stop offset=".969" stop-color="#fee0a3"/><stop offset="1" stop-color="#ffe2a5"/></linearGradient></defs><g data-name="Сгруппировать 161792"><path data-name="Контур 83329" d="M24.5 0a24.592 24.592 0 0124.033 19.716A23.838 23.838 0 0149 24.5 24.5 24.5 0 1124.5 0z" fill="url(#a)"/><g data-name="Сгруппировать 161789"><g data-name="Сгруппировать 161791"><g data-name="Сгруппировать 161788"><g data-name="Сгруппировать 161787"><g data-name="Сгруппировать 161786"><g fill="none" stroke="#fff" stroke-linecap="round" stroke-linejoin="round" stroke-width="2" data-name="Сгруппировать 161784"><path data-name="Контур 83167" d="M33 25v10H17V25"/><path data-name="Прямоугольник 147607" d="M15 20h20v5H15z"/><path data-name="Линия 232" d="M25 35V20"/><path data-name="Контур 83168" d="M25 20h-4.5a2.5 2.5 0 010-5c3.5 0 4.5 5 4.5 5z"/><path data-name="Контур 83169" d="M25 20h4.5a2.5 2.5 0 000-5C26 15 25 20 25 20z"/></g></g></g></g></g></g></g></svg>