<svg xmlns="http://www.w3.org/2000/svg" width="20" height="20"><defs><clipPath id="a"><path fill="none" d="M0 0h20v20H0z"/></clipPath></defs><g data-name="Сгруппировать 161778"><g data-name="Icon Suggest" clip-path="url(#a)"><g data-name="Сгруппировать 84"><g data-name="Сгруппировать 83"><path data-name="Контур 40" d="M17.354 11.637a.808.808 0 00-.808.808v4.908a1.032 1.032 0 01-1.031 1.031H2.646a1.032 1.032 0 01-1.03-1.031V4.484a1.032 1.032 0 011.031-1.031h4.908a.808.808 0 100-1.616H2.646A2.649 2.649 0 000 4.484v12.869a2.649 2.649 0 002.646 2.646h12.869a2.649 2.649 0 002.646-2.646v-4.908a.808.808 0 00-.807-.808z" fill="#bf9f5d"/></g></g><g data-name="Сгруппировать 86"><g data-name="Сгруппировать 85"><path data-name="Контур 41" d="M19.763 3.914L16.086.237a.808.808 0 00-1.143 0L5.751 9.429a.808.808 0 00-.237.571v3.677a.808.808 0 00.808.808h3.677a.808.808 0 00.571-.237l9.192-9.192a.808.808 0 000-1.143zm-10.1 8.955H7.129v-2.534l8.384-8.384 2.534 2.534z" fill="#bf9f5d"/></g></g></g></g></svg>