<svg xmlns="http://www.w3.org/2000/svg" viewBox="0 0 70 55.969"><path d="M30.054 33.292A28.13 28.13 0 0041.832 21.2c2.358-4.98 2.42-9.935.17-13.948C39.418 2.645 34.176 0 27.62 0a28.942 28.942 0 00-14.054 3.876C2.433 10.12-2.928 21.803 1.62 29.916c2.583 4.61 7.825 7.252 14.382 7.252a28.923 28.923 0 0014.053-3.876zm.256-18.456c1.176-.668 2.494-.552 2.943.256s-.14 2.006-1.318 2.672-2.5.553-2.943-.255.14-2.01 1.318-2.674zM22.227 26.1a1.534 1.534 0 01-2.1-.226c-.25-.78.146-1.623.908-1.928a1.53 1.53 0 012.1.223 1.564 1.564 0 01-.908 1.93zM20.244 9.745c1.31-.74 2.7-.757 3.1-.03s-.332 1.92-1.643 2.66-2.7.755-3.1.03.332-1.92 1.643-2.662zM13.38 21.588c-1.2.685-2.52.65-2.926-.08s.248-1.88 1.458-2.564 2.523-.652 2.93.08-.25 1.874-1.46 2.56zm42.992 30.54c-6.032 0-12.63-2.49-18.1-6.835a26.277 26.277 0 01-.94-.778q-.345.207-.684.4a34.001 34.001 0 01-4.892 2.267 30.247 30.247 0 002.947 2.7c10.122 8.033 23.38 8.11 30.08.337a18.432 18.432 0 01-8.41 1.914zm3.33-34.37a28.755 28.755 0 00-11.668-5.67 21.456 21.456 0 01-2.165 11.06 32.666 32.666 0 01-13.64 14.09A33.37 33.37 0 0116 41.684c-4.088.068-8.12-.95-11.686-2.954 3.6 4.72 9.582 7.48 16.5 7.48a29.325 29.325 0 0014.377-3.924 32 32 0 002.458-1.563 33.69 33.69 0 002.463 2.2c9.692 7.692 21.934 8.3 27.342 1.35s1.934-18.818-7.754-26.514zm-1.8 21.07c-.568.728-1.887.635-2.947-.206s-1.462-2.117-.894-2.846 1.886-.637 2.947.206 1.462 2.12.894 2.846zm1.12-11.306c-.51.656-1.88.426-3.063-.512s-1.725-2.23-1.216-2.884 1.88-.426 3.063.512 1.725 2.227 1.216 2.883z" fill="#ffc013" fill-rule="evenodd"/></svg>