<svg xmlns="http://www.w3.org/2000/svg" width="37.629" height="43.744"><defs><linearGradient id="a" x1=".5" x2=".5" y2="1" gradientUnits="objectBoundingBox"><stop offset="0" stop-color="#e9204f"/><stop offset=".485" stop-color="#e6587a"/><stop offset="1" stop-color="#ac0029"/></linearGradient></defs><g data-name="Group 226" fill="url(#a)"><path data-name="Path 530" d="M23.67.001h-6.4a5.545 5.545 0 00-.562.028c-.074.008-.146.023-.22.033-.109.016-.219.028-.326.05a5.509 5.509 0 00-4.4 5.391v5.506h5.529-.024 6.4a2.953 2.953 0 012.949 2.953 2.95 2.95 0 01-2.949 2.954H5.504a5.481 5.481 0 00-3.833 1.562l-.057.051c-.019.018-.033.039-.051.057a5.481 5.481 0 00-1.561 3.833v5.507h23.67a13.964 13.964 0 0013.957-13.963A13.963 13.963 0 0023.67.001z"/><path data-name="Path 531" d="M11.771 38.241a5.506 5.506 0 005.5 5.5 5.507 5.507 0 005.507-5.5v-5.507h-11.01z"/></g></svg>