<svg xmlns="http://www.w3.org/2000/svg" width="67" height="28"><path d="M4.015 18.558V0H0v22.021h13.97v-3.463H4.015zm26.21-8.436a8.176 8.176 0 00-1.643-2.748 7.132 7.132 0 00-2.536-1.764 8.32 8.32 0 00-3.238-.62 8.2 8.2 0 00-3.222.62 7.322 7.322 0 00-2.536 1.764 8.024 8.024 0 00-1.659 2.748A10.285 10.285 0 0014.8 13.7a10.417 10.417 0 00.59 3.59 8.135 8.135 0 001.643 2.764 7.345 7.345 0 002.52 1.779 8.1 8.1 0 003.254.636 8.22 8.22 0 003.27-.636 7.309 7.309 0 002.537-1.779 7.94 7.94 0 001.627-2.764 10.685 10.685 0 00.574-3.59 10.3 10.3 0 00-.59-3.578zm-4.435 7.546a3.775 3.775 0 01-5.966 0 6.6 6.6 0 01-1.069-3.968 6.464 6.464 0 011.069-3.924 3.8 3.8 0 015.966 0 6.466 6.466 0 011.069 3.924 6.6 6.6 0 01-1.069 3.968zm12.363-8.023a3.9 3.9 0 013.222-1.382 12.242 12.242 0 011.531.08q.606.08 1.021.175v8.611a4.971 4.971 0 01-1.324.6 5.789 5.789 0 01-1.739.254 3.631 3.631 0 01-2.76-1.128 5.062 5.062 0 01-1.069-3.575 5.61 5.61 0 011.118-3.634zm9.635-3.7q-1.181-.317-2.871-.6a21.439 21.439 0 00-3.573-.286 9.423 9.423 0 00-3.478.6 7.445 7.445 0 00-2.6 1.684 7.131 7.131 0 00-1.627 2.605 9.632 9.632 0 00-.558 3.336 10.158 10.158 0 00.526 3.416 6.819 6.819 0 001.468 2.462 6.114 6.114 0 002.265 1.493 8.078 8.078 0 002.919.508 7.419 7.419 0 002.154-.286 10.1 10.1 0 001.516-.572v.636a3.755 3.755 0 01-.989 2.828 4.7 4.7 0 01-3.318.953 13.817 13.817 0 01-2.728-.254 12.03 12.03 0 01-2.249-.667l-.7 3.272a16.769 16.769 0 002.632.667 17.29 17.29 0 002.983.254q4.179 0 6.206-1.843t2.026-5.814V5.944zm18.617 4.178a8.175 8.175 0 00-1.643-2.748 7.137 7.137 0 00-2.537-1.764 8.317 8.317 0 00-3.238-.62 8.2 8.2 0 00-3.222.62 7.323 7.323 0 00-2.537 1.764 8.026 8.026 0 00-1.659 2.748 10.285 10.285 0 00-.59 3.574 10.417 10.417 0 00.59 3.59 8.135 8.135 0 001.643 2.764 7.345 7.345 0 002.52 1.779 8.1 8.1 0 003.254.636 8.219 8.219 0 003.27-.636 7.313 7.313 0 002.537-1.779 7.94 7.94 0 001.627-2.764A10.683 10.683 0 0067 13.7a10.3 10.3 0 00-.595-3.578zm-4.435 7.546a3.775 3.775 0 01-5.966 0 6.6 6.6 0 01-1.069-3.969A6.464 6.464 0 0156 9.773a3.8 3.8 0 015.966 0 6.469 6.469 0 011.069 3.924 6.6 6.6 0 01-1.065 3.971z" fill="#ffa700" fill-rule="evenodd"/></svg>