<svg xmlns="http://www.w3.org/2000/svg" width="20" height="22" viewBox="0 0 20 22">
  <g id="Group_163789" data-name="Group 163789" transform="translate(-553 -292)">
    <path id="Path_84147" data-name="Path 84147" d="M12,4.594a1.386,1.386,0,0,0,1.386-1.387C13.386,2.1,12,0,12,0s-1.386,2.1-1.386,3.207A1.386,1.386,0,0,0,12,4.594ZM18,9H13V6H11V9H6a4,4,0,0,0-4,4v9H22V13a4,4,0,0,0-4-4Zm2.1,11.1H3.9V16.45h.406a4,4,0,0,0,2.518-.964,1.875,1.875,0,0,1,2.658,0,3.788,3.788,0,0,0,5.037,0,1.875,1.875,0,0,1,2.658,0,4,4,0,0,0,2.517.963H20.1Zm0-5.55h-.406A2.125,2.125,0,0,1,18.365,14a3.785,3.785,0,0,0-5.035,0,1.878,1.878,0,0,1-2.659,0,3.785,3.785,0,0,0-5.035,0,2.128,2.128,0,0,1-1.33.547H3.9V13A2.1,2.1,0,0,1,6,10.9H18A2.1,2.1,0,0,1,20.1,13Z" transform="translate(551 292)"/>
  </g>
</svg>
