<svg xmlns="http://www.w3.org/2000/svg" width="11.917" height="11.321" viewBox="0 0 11.917 11.321">
  <g id="Group_163788" data-name="Group 163788" transform="translate(-638.391 -164.422)">
    <path id="Path_84150" data-name="Path 84150" d="M6.171,6.767H4.979V7.958H6.171Zm2.383,0H7.362V7.958H8.554Zm2.383,0H9.746V7.958h1.192ZM6.171,9.15H4.979v1.192H6.171Zm2.383,0H7.362v1.192H8.554Zm2.383,0H9.746v1.192h1.192Zm.6-5.362V2.6a.6.6,0,0,0-1.192,0V3.787H5.575V2.6a.6.6,0,0,0-1.192,0V3.787H2v9.533H13.917V3.787Zm1.192,8.342H3.192V4.979h9.533Z" transform="translate(636.391 162.422)" fill="#efefef" opacity="0.6"/>
  </g>
</svg>
