<svg width="166" height="39" viewBox="0 0 166 39" fill="none" xmlns="http://www.w3.org/2000/svg">
<g clip-path="url(#clip0_1032_11789)">
<path d="M0 19.4783C0 16.3838 1.16606 13.7519 3.49818 11.5829C5.8303 9.38487 8.65994 8.28588 11.9871 8.28588C15.3142 8.28588 18.1439 9.38487 20.476 11.5829C22.8392 13.7519 24.0208 16.3838 24.0208 19.4783C24.0208 22.5729 22.8392 25.2191 20.476 27.4171C18.1439 29.5862 15.3142 30.6707 11.9871 30.6707C9.71716 30.6707 7.75818 30.1213 6.11015 29.0223V39H0V19.4783ZM7.74264 23.5562C8.89315 24.6263 10.3235 25.1613 12.0337 25.1613C13.744 25.1613 15.1588 24.6263 16.2782 23.5562C17.3976 22.4572 17.9573 21.0979 17.9573 19.4783C17.9573 17.8587 17.3976 16.5139 16.2782 15.4438C15.1588 14.3448 13.744 13.7953 12.0337 13.7953C10.3235 13.7953 8.89315 14.3448 7.74264 15.4438C6.59212 16.5139 6.01687 17.8587 6.01687 19.4783C6.01687 21.0979 6.59212 22.4572 7.74264 23.5562Z" fill="white"/>
<path d="M29.8657 11.5829C32.2289 9.38487 35.0741 8.28588 38.4013 8.28588C41.7284 8.28588 44.5581 9.38487 46.8902 11.5829C49.2534 13.7519 50.435 16.3838 50.435 19.4783C50.435 22.5729 49.2534 25.2191 46.8902 27.4171C44.5581 29.5862 41.7284 30.6707 38.4013 30.6707C35.0741 30.6707 32.2289 29.5862 29.8657 27.4171C27.5336 25.2191 26.3675 22.5729 26.3675 19.4783C26.3675 16.3838 27.5336 13.7519 29.8657 11.5829ZM42.6924 15.4438C41.5729 14.3448 40.1581 13.7953 38.4479 13.7953C36.7377 13.7953 35.3073 14.3448 34.1568 15.4438C33.0063 16.5139 32.431 17.8587 32.431 19.4783C32.431 21.0979 33.0063 22.4572 34.1568 23.5562C35.3073 24.6263 36.7377 25.1613 38.4479 25.1613C40.1581 25.1613 41.5729 24.6263 42.6924 23.5562C43.8118 22.4572 44.3715 21.0979 44.3715 19.4783C44.3715 17.8587 43.8118 16.5139 42.6924 15.4438Z" fill="white"/>
<path d="M62.581 30.6707C59.7824 30.6707 57.4037 30.02 55.4447 28.7186C53.5168 27.4171 52.5528 25.6096 52.5528 23.2959H58.3365C58.3365 23.99 58.7407 24.554 59.5492 24.9878C60.3888 25.4216 61.446 25.6385 62.7209 25.6385C63.9336 25.6385 64.8664 25.4505 65.5194 25.0745C66.2035 24.6696 66.5456 24.1635 66.5456 23.5562C66.5456 23.0067 66.2035 22.5729 65.5194 22.2547C64.8353 21.9366 63.9802 21.7197 62.9541 21.604C61.9591 21.4883 60.8552 21.3148 59.6425 21.0834C58.4609 20.8231 57.357 20.505 56.3309 20.129C55.3358 19.7531 54.4963 19.1168 53.8122 18.2202C53.1281 17.3237 52.7861 16.1958 52.7861 14.8365C52.7861 12.9566 53.7034 11.3949 55.538 10.1513C57.4037 8.90768 59.7047 8.28588 62.441 8.28588C65.2396 8.28588 67.5251 8.92214 69.2975 10.1947C71.0699 11.4383 71.9561 13.1735 71.9561 15.4004H66.1724C66.1724 14.7931 65.7837 14.287 65.0064 13.8821C64.2601 13.4772 63.3739 13.2748 62.3478 13.2748C61.3527 13.2748 60.5131 13.4627 59.8291 13.8387C59.1761 14.2147 58.8496 14.6919 58.8496 15.2703C58.8496 15.8198 59.316 16.2392 60.2488 16.5284C61.1817 16.8176 62.3167 17.0634 63.6537 17.2659C65.0219 17.4394 66.3745 17.6997 67.7116 18.0467C69.0487 18.3938 70.1837 19.0445 71.1165 19.9989C72.0805 20.9244 72.578 22.1535 72.6091 23.6863C72.6402 26 71.7229 27.7497 69.8572 28.9355C68.0226 30.0923 65.5972 30.6707 62.581 30.6707Z" fill="white"/>
<path d="M87.0773 14.1424H82.8795V20.0857C82.8795 21.8209 83.206 23.0645 83.859 23.8165C84.512 24.5684 85.5848 24.9444 87.0773 24.9444V30.4538C83.9367 30.4538 81.4336 29.6007 79.5679 27.8943C77.7333 26.188 76.816 23.5851 76.816 20.0857V14.1424H73.3645V8.63293H76.816V0H82.8795V8.63293H87.0773V14.1424Z" fill="white"/>
<path d="M100.758 30.6707C97.431 30.6707 94.5858 29.5862 92.2226 27.4171C89.8904 25.2191 88.7244 22.5729 88.7244 19.4783C88.7244 16.3838 89.8904 13.7519 92.2226 11.5829C94.5858 9.38487 97.431 8.28588 100.758 8.28588C104.085 8.28588 106.915 9.38487 109.247 11.5829C111.579 13.7519 112.745 16.3838 112.745 19.4783V30.3237H106.682V28.0245C106.34 28.7475 105.593 29.3693 104.443 29.8899C103.292 30.4105 102.064 30.6707 100.758 30.6707ZM96.5137 23.5562C97.6642 24.6263 99.0945 25.1613 100.805 25.1613C102.515 25.1613 103.93 24.6263 105.049 23.5562C106.169 22.4572 106.728 21.0979 106.728 19.4783C106.728 17.8587 106.169 16.5139 105.049 15.4438C103.93 14.3448 102.515 13.7953 100.805 13.7953C99.0945 13.7953 97.6642 14.3448 96.5137 15.4438C95.3632 16.5139 94.7879 17.8587 94.7879 19.4783C94.7879 21.0979 95.3632 22.4572 96.5137 23.5562Z" fill="white"/>
<path d="M127.359 39C124.933 39 122.726 38.3782 120.736 37.1346C118.746 35.9199 117.284 34.3003 116.351 32.2759H123.721C124.84 33.0857 126.053 33.4905 127.359 33.4905C128.976 33.4905 130.344 33.1146 131.463 32.3626C132.614 31.6107 133.189 30.584 133.189 29.2825V29.2392C131.386 30.1936 129.442 30.6707 127.359 30.6707C124.032 30.6707 121.187 29.5862 118.823 27.4171C116.491 25.2191 115.325 22.5729 115.325 19.4783C115.325 16.3838 116.491 13.7519 118.823 11.5829C121.187 9.38487 124.032 8.28588 127.359 8.28588C130.686 8.28588 133.516 9.38487 135.848 11.5829C138.211 13.7519 139.393 16.3838 139.393 19.4783V27.8076C139.393 30.9021 138.211 33.5339 135.848 35.703C133.516 37.901 130.686 39 127.359 39ZM123.114 23.5562C124.265 24.6263 125.695 25.1613 127.405 25.1613C129.116 25.1613 130.531 24.6263 131.65 23.5562C132.769 22.4572 133.329 21.0979 133.329 19.4783C133.329 17.8587 132.769 16.5139 131.65 15.4438C130.531 14.3448 129.116 13.7953 127.405 13.7953C125.695 13.7953 124.265 14.3448 123.114 15.4438C121.964 16.5139 121.389 17.8587 121.389 19.4783C121.389 21.0979 121.964 22.4572 123.114 23.5562Z" fill="white"/>
<path d="M141.971 19.5217C141.971 16.4561 143.106 13.8243 145.376 11.6263C147.677 9.39933 150.491 8.28588 153.819 8.28588C156.928 8.28588 159.696 9.25473 162.121 11.1924C164.577 13.1301 165.868 15.733 165.992 19.0011C166.023 19.9266 165.961 20.8231 165.806 21.6908H148.501C148.781 22.7608 149.388 23.614 150.32 24.2503C151.284 24.8576 152.45 25.1613 153.819 25.1613C155.373 25.1613 156.71 24.7419 157.83 23.9032L165.059 23.9466C164.095 25.9422 162.618 27.5617 160.628 28.8053C158.638 30.0489 156.431 30.6707 154.005 30.6707C150.647 30.6707 147.802 29.5862 145.47 27.4171C143.137 25.2481 141.971 22.6162 141.971 19.5217ZM148.501 17.1791H159.509C159.043 16.1669 158.296 15.3571 157.27 14.7497C156.275 14.1135 155.187 13.7953 154.005 13.7953C151.362 13.7953 149.527 14.9233 148.501 17.1791Z" fill="white"/>
</g>
<defs>
<clipPath id="clip0_1032_11789">
<rect width="166" height="39" fill="white"/>
</clipPath>
</defs>
</svg>
