<svg width="62" height="50" viewBox="0 0 62 50" fill="none" xmlns="http://www.w3.org/2000/svg">
<path fill-rule="evenodd" clip-rule="evenodd" d="M39.2831 10.095L34.5005 1.86618C33.0543 -0.622059 29.4378 -0.622058 27.9916 1.86618L23.209 10.095H39.2831ZM42.7299 16.0318C42.0585 14.8778 40.8183 14.1669 39.4762 14.1669H23.0003C21.6577 14.1669 20.4172 14.8782 19.746 16.0328L0 50H9.46402L15.1556 40.2111L19.778 48.1384C20.4498 49.2906 21.689 50 23.0298 50H39.4497C40.7972 50 42.0415 49.2835 42.7109 48.1221L50.9379 33.8479C51.6023 32.695 51.5995 31.2782 50.9303 30.1279L42.7299 16.0318ZM36.9048 41.8561H25.6037L19.9122 32.0672L25.5873 22.3108H36.9212L42.5963 32.0672L36.9048 41.8561ZM53.9138 36.0088L62 49.9348H52.536L49.2063 44.2178L53.9138 36.0088Z" fill="#F3F3F3"/>
</svg>
