<svg width="744" height="93" viewBox="0 0 744 93" fill="none" xmlns="http://www.w3.org/2000/svg">
<mask id="mask0_955_10608" style="mask-type:alpha" maskUnits="userSpaceOnUse" x="0" y="0" width="744" height="93">
<path fill-rule="evenodd" clip-rule="evenodd" d="M694.995 76.3928L685.461 59.8758L709.414 59.8758L699.88 76.3928C698.794 78.2743 696.081 78.2743 694.995 76.3928ZM683.568 53.766C682.561 53.766 681.63 53.2285 681.126 52.3558L667.306 28.4369C666.803 27.5657 666.801 26.4923 667.301 25.6191L681.152 1.42002C681.655 0.541755 682.589 5.36872e-06 683.6 5.28032e-06L711.284 2.86014e-06C712.29 2.77218e-06 713.22 0.536371 713.725 1.40769L721.415 14.6879L729.897 1.23295e-06L744 0L713.773 52.3551C713.269 53.2282 712.338 53.766 711.33 53.766L683.568 53.766ZM705.845 12.2195L689.005 12.2195L680.523 26.9074L688.98 41.5464H705.87L714.327 26.9074L705.845 12.2195ZM651.608 0.0977717L663.658 20.9932L670.673 8.67588L665.711 0.0977705L651.608 0.0977717ZM112.57 33.0567L103.036 16.5397C101.95 14.6582 99.2366 14.6582 98.1505 16.5397L88.6165 33.0567H112.57ZM116.904 40.5766C116.4 39.7039 115.469 39.1665 114.462 39.1665H86.7003C85.6928 39.1665 84.7618 39.7043 84.2577 40.5774L54.0305 92.9325H68.1338L76.6153 78.2446L84.306 91.5248C84.8106 92.3961 85.7406 92.9325 86.7467 92.9325H114.43C115.441 92.9325 116.375 92.3907 116.878 91.5125L130.73 67.3134C131.23 66.4402 131.228 65.3668 130.724 64.4956L116.904 40.5766ZM109.026 80.713H92.1851L83.7035 66.0251L92.1606 51.386H109.05L117.507 66.0251L109.026 80.713ZM134.373 71.9393L146.423 92.8347H132.319L127.358 84.2566L134.373 71.9393ZM221.171 33.0567L211.637 16.5397C210.551 14.6582 207.838 14.6582 206.752 16.5397L197.218 33.0567H221.171ZM225.506 40.5766C225.002 39.7039 224.071 39.1665 223.064 39.1665H195.302C194.294 39.1665 193.363 39.7043 192.859 40.5774L162.632 92.9325H176.735L185.217 78.2446L192.907 91.5248C193.412 92.3961 194.342 92.9325 195.348 92.9325H223.032C224.043 92.9325 224.977 92.3907 225.479 91.5125L239.331 67.3134C239.831 66.4402 239.829 65.3668 239.326 64.4956L225.506 40.5766ZM217.627 80.713H200.786L192.305 66.0251L200.762 51.386H217.652L226.109 66.0251L217.627 80.713ZM242.974 71.9393L255.024 92.8347H240.921L235.959 84.2566L242.974 71.9393ZM320.239 16.5397L329.773 33.0567H305.819L315.353 16.5397C316.439 14.6582 319.152 14.6582 320.239 16.5397ZM331.665 39.1665C332.672 39.1665 333.603 39.7039 334.107 40.5766L347.927 64.4956C348.43 65.3668 348.432 66.4402 347.932 67.3134L334.081 91.5125C333.578 92.3907 332.644 92.9325 331.633 92.9325H303.949C302.943 92.9325 302.013 92.3961 301.509 91.5248L293.818 78.2446L285.336 92.9325H271.233L301.46 40.5774C301.964 39.7043 302.895 39.1665 303.903 39.1665H331.665ZM309.388 80.713H326.228L334.71 66.0251L326.253 51.386H309.363L300.906 66.0251L309.388 80.713ZM363.625 92.8347L351.575 71.9393L344.56 84.2566L349.522 92.8347H363.625ZM438.374 33.0567L428.84 16.5397C427.754 14.6582 425.041 14.6582 423.954 16.5397L414.42 33.0567H438.374ZM442.708 40.5766C442.204 39.7039 441.273 39.1665 440.266 39.1665H412.504C411.497 39.1665 410.566 39.7043 410.062 40.5774L379.834 92.9325H393.938L402.419 78.2446L410.11 91.5248C410.615 92.3961 411.544 92.9325 412.551 92.9325H440.234C441.245 92.9325 442.179 92.3907 442.682 91.5125L456.534 67.3134C457.034 66.4402 457.031 65.3668 456.528 64.4956L442.708 40.5766ZM434.83 80.713H417.989L409.507 66.0251L417.965 51.386H434.854L443.311 66.0251L434.83 80.713ZM460.177 71.9393L472.227 92.8347H458.123L453.162 84.2566L460.177 71.9393ZM537.441 16.5397L546.975 33.0567H523.022L532.556 16.5397C533.642 14.6582 536.355 14.6582 537.441 16.5397ZM548.868 39.1665C549.875 39.1665 550.805 39.7039 551.31 40.5766L565.129 64.4956C565.633 65.3668 565.635 66.4402 565.135 67.3134L551.283 91.5125C550.781 92.3907 549.847 92.9325 548.836 92.9325H521.152C520.146 92.9325 519.216 92.3961 518.711 91.5248L511.02 78.2446L502.539 92.9325H488.436L518.663 40.5774C519.167 39.7043 520.098 39.1665 521.105 39.1665H548.868ZM526.59 80.713H543.431L551.913 66.0251L543.456 51.386H526.566L518.109 66.0251L526.59 80.713ZM580.828 92.8347L568.778 71.9393L561.763 84.2566L566.725 92.8347H580.828ZM655.577 33.0567L646.042 16.5397C644.956 14.6582 642.243 14.6582 641.157 16.5397L631.623 33.0567H655.577ZM659.911 40.5766C659.407 39.7039 658.476 39.1665 657.469 39.1665H629.707C628.699 39.1665 627.768 39.7043 627.264 40.5774L597.037 92.9325H611.14L619.622 78.2446L627.312 91.5248C627.817 92.3961 628.747 92.9325 629.753 92.9325H657.437C658.448 92.9325 659.382 92.3907 659.885 91.5125L673.736 67.3134C674.236 66.4402 674.234 65.3668 673.731 64.4956L659.911 40.5766ZM652.032 80.713H635.192L626.71 66.0251L635.167 51.386H652.057L660.514 66.0251L652.032 80.713ZM677.379 71.9393L689.429 92.8347H675.326L670.364 84.2566L677.379 71.9393ZM576.859 59.8758L586.393 76.3928C587.479 78.2743 590.193 78.2743 591.279 76.3928L600.813 59.8758L576.859 59.8758ZM572.525 52.3558C573.029 53.2285 573.96 53.766 574.967 53.766L602.729 53.766C603.736 53.766 604.667 53.2282 605.172 52.3551L635.399 0L621.295 1.23295e-06L612.814 14.6879L605.123 1.40769C604.619 0.536371 603.689 2.77218e-06 602.683 2.86014e-06L574.999 5.28032e-06C573.988 5.36872e-06 573.054 0.541755 572.551 1.42002L558.699 25.6191C558.2 26.4923 558.202 27.5657 558.705 28.4369L572.525 52.3558ZM580.403 12.2195L597.244 12.2195L605.726 26.9074L597.269 41.5464H580.379L571.922 26.9074L580.403 12.2195ZM555.057 20.9932L543.007 0.0977717L557.11 0.0977705L562.072 8.67588L555.057 20.9932ZM477.792 76.3928L468.258 59.8758L492.211 59.8758L482.677 76.3928C481.591 78.2743 478.878 78.2743 477.792 76.3928ZM466.366 53.766C465.358 53.766 464.428 53.2286 463.923 52.3559L450.104 28.4369C449.6 27.5658 449.598 26.4923 450.098 25.6191L463.95 1.42003C464.453 0.541772 465.386 2.18575e-05 466.398 2.17691e-05L494.081 1.93489e-05C495.087 1.9261e-05 496.017 0.536388 496.522 1.40771L504.213 14.6879L512.694 1.77217e-05L526.797 1.64888e-05L496.57 52.3551C496.066 53.2282 495.135 53.766 494.128 53.766L466.366 53.766ZM488.643 12.2196L471.802 12.2196L463.321 26.9075L471.778 41.5465H488.667L497.124 26.9074L488.643 12.2196ZM434.405 0.0977882L446.455 20.9932L453.47 8.6759L448.508 0.097787L434.405 0.0977882ZM359.657 59.8758L369.191 76.3928C370.277 78.2743 372.99 78.2743 374.076 76.3928L383.61 59.8758L359.657 59.8758ZM355.322 52.3559C355.826 53.2286 356.757 53.766 357.764 53.766L385.526 53.766C386.534 53.766 387.465 53.2282 387.969 52.3551L418.196 3.29776e-05L404.093 3.42105e-05L395.611 14.6879L387.921 1.40772C387.416 0.536404 386.486 3.57498e-05 385.48 3.58377e-05L357.796 3.82579e-05C356.785 3.83463e-05 355.851 0.541788 355.349 1.42005L341.497 25.6191C340.997 26.4923 340.999 27.5658 341.502 28.4369L355.322 52.3559ZM363.201 12.2196L380.042 12.2196L388.523 26.9075L380.066 41.5465H363.176L354.719 26.9075L363.201 12.2196ZM337.854 20.9932L325.804 0.0978047L339.907 0.0978035L344.869 8.67592L337.854 20.9932ZM260.589 76.3928L251.055 59.8758L275.009 59.8758L265.475 76.3928C264.389 78.2743 261.675 78.2743 260.589 76.3928ZM249.163 53.766C248.156 53.766 247.225 53.2286 246.721 52.3559L232.901 28.4369C232.398 27.5658 232.396 26.4923 232.895 25.6191L246.747 1.42005C247.25 0.541788 248.184 3.83463e-05 249.195 3.82579e-05L276.879 3.58377e-05C277.885 3.57498e-05 278.815 0.536404 279.319 1.40772L287.01 14.6879L295.492 3.42105e-05L309.595 3.29776e-05L279.368 52.3551C278.863 53.2282 277.932 53.766 276.925 53.766L249.163 53.766ZM271.44 12.2196L254.599 12.2196L246.118 26.9075L254.575 41.5465H271.465L279.922 26.9075L271.44 12.2196ZM217.203 0.0978047L229.253 20.9932L236.268 8.67592L231.306 0.0978035L217.203 0.0978047ZM142.454 59.8758L151.988 76.3928C153.074 78.2744 155.787 78.2744 156.873 76.3928L166.408 59.8758L142.454 59.8758ZM138.12 52.3559C138.624 53.2286 139.555 53.766 140.562 53.766L168.324 53.766C169.331 53.766 170.262 53.2282 170.766 52.3551L200.993 4.94664e-05L186.89 5.06993e-05L178.409 14.6879L170.718 1.40774C170.213 0.536421 169.283 5.22386e-05 168.277 5.23265e-05L140.594 5.47467e-05C139.582 5.48351e-05 138.649 0.541805 138.146 1.42007L124.294 25.6192C123.794 26.4923 123.796 27.5658 124.3 28.4369L138.12 52.3559ZM145.998 12.2196L162.839 12.2196L171.32 26.9075L162.863 41.5465H145.974L137.517 26.9075L145.998 12.2196ZM120.651 20.9932L108.601 0.0978212L122.705 0.09782L127.666 8.67593L120.651 20.9932ZM43.3868 76.3928L33.8527 59.8758L57.8062 59.8758L48.2721 76.3928C47.1861 78.2744 44.4728 78.2744 43.3868 76.3928ZM31.9604 53.766C30.9532 53.766 30.0225 53.2286 29.5182 52.3559L15.6985 28.4369C15.1952 27.5658 15.193 26.4923 15.6928 25.6192L29.5446 1.42007C30.0473 0.541805 30.9812 5.48351e-05 31.9924 5.47467e-05L59.676 5.23265e-05C60.6821 5.22386e-05 61.6121 0.536421 62.1167 1.40774L69.8074 14.6879L78.2889 5.06993e-05L92.3922 4.94664e-05L62.165 52.3551C61.6608 53.2282 60.7298 53.766 59.7224 53.766L31.9604 53.766ZM54.2376 12.2196L37.3968 12.2196L28.9153 26.9075L37.3724 41.5465H54.2621L62.7191 26.9075L54.2376 12.2196ZM0 0.0978212L12.0501 20.9932L19.0651 8.67593L14.1033 0.09782L0 0.0978212Z" fill="black"/>
</mask>
<g mask="url(#mask0_955_10608)">
<g filter="url(#filter0_f_955_10608)">
<circle cx="353" cy="46" r="196" fill="#C8CDC9"/>
</g>
</g>
<defs>
<filter id="filter0_f_955_10608" x="-243" y="-550" width="1192" height="1192" filterUnits="userSpaceOnUse" color-interpolation-filters="sRGB">
<feFlood flood-opacity="0" result="BackgroundImageFix"/>
<feBlend mode="normal" in="SourceGraphic" in2="BackgroundImageFix" result="shape"/>
<feGaussianBlur stdDeviation="200" result="effect1_foregroundBlur_955_10608"/>
</filter>
</defs>
</svg>
