<svg width="1377" height="172" viewBox="0 0 1377 172" fill="none" xmlns="http://www.w3.org/2000/svg">
<mask id="mask0_911_11242" style="mask-type:alpha" maskUnits="userSpaceOnUse" x="0" y="0" width="1377" height="172">
<path fill-rule="evenodd" clip-rule="evenodd" d="M1286.3 141.388L1268.65 110.818L1312.99 110.818L1295.34 141.388C1293.33 144.871 1288.31 144.871 1286.3 141.388ZM1265.15 99.5104C1263.29 99.5104 1261.57 98.5157 1260.63 96.9005L1235.05 52.6312C1234.12 51.0188 1234.12 49.0321 1235.04 47.416L1260.68 2.62818C1261.61 1.00268 1263.34 9.93646e-06 1265.21 9.77284e-06L1316.45 5.29356e-06C1318.31 5.13077e-06 1320.03 0.99272 1320.97 2.60536L1335.2 27.1844L1350.9 2.28194e-06L1377 0L1321.06 96.8991C1320.12 98.5151 1318.4 99.5104 1316.53 99.5104L1265.15 99.5104ZM1306.38 22.616L1275.21 22.616L1259.52 49.8005L1275.17 76.8944H1306.43L1322.08 49.8004L1306.38 22.616ZM1206 0.180957L1228.3 38.8543L1241.29 16.0574L1232.1 0.180954L1206 0.180957ZM208.345 61.1816L190.7 30.6118C188.689 27.1295 183.668 27.1294 181.658 30.6118L164.012 61.1816H208.345ZM216.367 75.0995C215.434 73.4843 213.712 72.4896 211.848 72.4896H160.465C158.601 72.4896 156.878 73.485 155.945 75.101L100 172H126.102L141.8 144.816L156.034 169.395C156.968 171.007 158.689 172 160.551 172H211.788C213.66 172 215.388 170.997 216.319 169.372L241.956 124.584C242.881 122.968 242.877 120.981 241.945 119.369L216.367 75.0995ZM201.786 149.384H170.617L154.919 122.2L170.571 95.1056H201.831L217.483 122.2L201.786 149.384ZM248.698 133.146L271 171.819H244.898L235.714 155.943L248.698 133.146ZM409.345 61.1816L391.7 30.6118C389.689 27.1295 384.668 27.1294 382.658 30.6118L365.012 61.1816H409.345ZM417.367 75.0995C416.434 73.4843 414.712 72.4896 412.848 72.4896H361.465C359.601 72.4896 357.878 73.485 356.945 75.101L301 172H327.102L342.8 144.816L357.034 169.395C357.968 171.007 359.689 172 361.551 172H412.788C414.66 172 416.388 170.997 417.319 169.372L442.956 124.584C443.881 122.968 443.877 120.981 442.945 119.369L417.367 75.0995ZM402.786 149.384H371.617L355.919 122.2L371.571 95.1056H402.831L418.483 122.2L402.786 149.384ZM449.698 133.146L472 171.819H445.898L436.714 155.943L449.698 133.146ZM592.7 30.6118L610.345 61.1816H566.012L583.658 30.6118C585.668 27.1294 590.689 27.1295 592.7 30.6118ZM613.848 72.4896C615.712 72.4896 617.434 73.4843 618.367 75.0995L643.945 119.369C644.877 120.981 644.881 122.968 643.956 124.584L618.319 169.372C617.388 170.997 615.66 172 613.788 172H562.551C560.689 172 558.968 171.007 558.034 169.395L543.8 144.816L528.102 172H502L557.945 75.101C558.878 73.485 560.601 72.4896 562.465 72.4896H613.848ZM572.617 149.384H603.786L619.483 122.2L603.831 95.1056H572.571L556.919 122.2L572.617 149.384ZM673 171.819L650.698 133.146L637.714 155.943L646.898 171.819H673ZM811.345 61.1816L793.7 30.6118C791.689 27.1295 786.668 27.1294 784.658 30.6118L767.012 61.1816H811.345ZM819.367 75.0995C818.434 73.4843 816.712 72.4896 814.848 72.4896H763.465C761.601 72.4896 759.878 73.485 758.945 75.101L703 172H729.102L744.8 144.816L759.034 169.395C759.968 171.007 761.689 172 763.551 172H814.788C816.66 172 818.388 170.997 819.319 169.372L844.956 124.584C845.881 122.968 845.877 120.981 844.945 119.369L819.367 75.0995ZM804.786 149.384H773.617L757.919 122.2L773.571 95.1056H804.831L820.483 122.2L804.786 149.384ZM851.698 133.146L874 171.819H847.898L838.714 155.943L851.698 133.146ZM994.7 30.6118L1012.35 61.1816H968.012L985.658 30.6118C987.668 27.1294 992.689 27.1295 994.7 30.6118ZM1015.85 72.4896C1017.71 72.4896 1019.43 73.4843 1020.37 75.0995L1045.95 119.369C1046.88 120.981 1046.88 122.968 1045.96 124.584L1020.32 169.372C1019.39 170.997 1017.66 172 1015.79 172H964.551C962.689 172 960.968 171.007 960.034 169.395L945.8 144.816L930.102 172H904L959.945 75.101C960.878 73.485 962.601 72.4896 964.465 72.4896H1015.85ZM974.617 149.384H1005.79L1021.48 122.2L1005.83 95.1056H974.571L958.919 122.2L974.617 149.384ZM1075 171.819L1052.7 133.146L1039.71 155.943L1048.9 171.819H1075ZM1213.35 61.1816L1195.7 30.6118C1193.69 27.1295 1188.67 27.1294 1186.66 30.6118L1169.01 61.1816H1213.35ZM1221.37 75.0995C1220.43 73.4843 1218.71 72.4896 1216.85 72.4896H1165.47C1163.6 72.4896 1161.88 73.485 1160.94 75.101L1105 172H1131.1L1146.8 144.816L1161.03 169.395C1161.97 171.007 1163.69 172 1165.55 172H1216.79C1218.66 172 1220.39 170.997 1221.32 169.372L1246.96 124.584C1247.88 122.968 1247.88 120.981 1246.95 119.369L1221.37 75.0995ZM1206.79 149.384H1175.62L1159.92 122.2L1175.57 95.1056H1206.83L1222.48 122.2L1206.79 149.384ZM1253.7 133.146L1276 171.819H1249.9L1240.71 155.943L1253.7 133.146ZM1067.65 110.818L1085.3 141.388C1087.31 144.871 1092.33 144.871 1094.34 141.388L1111.99 110.818L1067.65 110.818ZM1059.63 96.9005C1060.57 98.5157 1062.29 99.5104 1064.15 99.5104L1115.53 99.5104C1117.4 99.5104 1119.12 98.5151 1120.06 96.8991L1176 0L1149.9 2.28194e-06L1134.2 27.1844L1119.97 2.60536C1119.03 0.99272 1117.31 5.13077e-06 1115.45 5.29356e-06L1064.21 9.77284e-06C1062.34 9.93646e-06 1060.61 1.00268 1059.68 2.62818L1034.04 47.416C1033.12 49.0321 1033.12 51.0188 1034.05 52.6312L1059.63 96.9005ZM1074.21 22.616L1105.38 22.616L1121.08 49.8004L1105.43 76.8944H1074.17L1058.52 49.8005L1074.21 22.616ZM1027.3 38.8543L1005 0.180957L1031.1 0.180954L1040.29 16.0574L1027.3 38.8543ZM884.3 141.388L866.655 110.818L910.988 110.818L893.342 141.388C891.332 144.871 886.311 144.871 884.3 141.388ZM863.152 99.5105C861.288 99.5105 859.566 98.5158 858.633 96.9006L833.055 52.6312C832.123 51.0189 832.119 49.0321 833.044 47.416L858.681 2.62821C859.612 1.00271 861.34 4.0454e-05 863.212 4.02904e-05L914.449 3.58111e-05C916.311 3.56484e-05 918.032 0.99275 918.966 2.60539L933.2 27.1845L948.898 3.27995e-05L975 3.05176e-05L919.055 96.8991C918.122 98.5151 916.399 99.5105 914.535 99.5105L863.152 99.5105ZM904.383 22.616L873.214 22.616L857.517 49.8005L873.169 76.8945H904.429L920.081 49.8005L904.383 22.616ZM804 0.180987L826.302 38.8544L839.286 16.0574L830.102 0.180985L804 0.180987ZM665.655 110.819L683.3 141.388C685.311 144.871 690.332 144.871 692.342 141.388L709.988 110.819L665.655 110.819ZM657.633 96.9006C658.566 98.5158 660.288 99.5105 662.152 99.5105L713.535 99.5105C715.399 99.5105 717.122 98.5152 718.055 96.8991L774 6.10352e-05L747.898 6.33171e-05L732.2 27.1845L717.966 2.60542C717.032 0.992781 715.311 6.61659e-05 713.449 6.63287e-05L662.212 7.0808e-05C660.34 7.09716e-05 658.612 1.00275 657.681 2.62824L632.044 47.4161C631.119 49.0321 631.123 51.0189 632.055 52.6312L657.633 96.9006ZM672.214 22.6161L703.383 22.6161L719.081 49.8005L703.429 76.8945H672.169L656.517 49.8005L672.214 22.6161ZM625.302 38.8544L603 0.181018L629.102 0.181015L638.286 16.0574L625.302 38.8544ZM482.301 141.388L464.655 110.819L508.988 110.819L491.342 141.388C489.332 144.871 484.311 144.871 482.301 141.388ZM461.152 99.5105C459.288 99.5105 457.566 98.5158 456.633 96.9006L431.055 52.6312C430.123 51.0189 430.119 49.0321 431.044 47.4161L456.681 2.62824C457.612 1.00275 459.34 7.09716e-05 461.212 7.0808e-05L512.449 6.63287e-05C514.311 6.61659e-05 516.032 0.992781 516.966 2.60542L531.2 27.1845L546.898 6.33171e-05L573 6.10352e-05L517.055 96.8991C516.122 98.5152 514.399 99.5105 512.535 99.5105L461.152 99.5105ZM502.383 22.6161L471.214 22.6161L455.517 49.8005L471.169 76.8945H502.429L518.081 49.8005L502.383 22.6161ZM402 0.181018L424.302 38.8544L437.286 16.0574L428.102 0.181015L402 0.181018ZM263.655 110.819L281.301 141.388C283.311 144.871 288.332 144.871 290.342 141.388L307.988 110.819L263.655 110.819ZM255.633 96.9006C256.566 98.5158 258.288 99.5105 260.152 99.5105L311.535 99.5105C313.399 99.5105 315.122 98.5152 316.055 96.8992L372 9.15527e-05L345.898 9.38347e-05L330.2 27.1845L315.966 2.60545C315.032 0.992811 313.311 9.66835e-05 311.449 9.68463e-05L260.212 0.000101326C258.34 0.000101489 256.612 1.00278 255.681 2.62827L230.044 47.4161C229.119 49.0322 229.123 51.0189 230.055 52.6313L255.633 96.9006ZM270.214 22.6161L301.383 22.6161L317.081 49.8005L301.429 76.8945H270.169L254.517 49.8005L270.214 22.6161ZM223.302 38.8544L201 0.181048L227.102 0.181046L236.286 16.0575L223.302 38.8544ZM80.3005 141.388L62.6548 110.819L106.988 110.819L89.3424 141.388C87.3323 144.871 82.3106 144.871 80.3005 141.388ZM59.1524 99.5105C57.2884 99.5105 55.5658 98.5158 54.6326 96.9006L29.0549 52.6313C28.1233 51.0189 28.1193 49.0322 29.0443 47.4161L54.6813 2.62827C55.6118 1.00278 57.3402 0.000101489 59.2117 0.000101326L110.449 9.68463e-05C112.311 9.66835e-05 114.032 0.992811 114.966 2.60545L129.2 27.1845L144.898 9.38347e-05L171 9.15527e-05L115.055 96.8992C114.122 98.5152 112.399 99.5105 110.535 99.5105L59.1524 99.5105ZM100.383 22.6161L69.2143 22.6161L53.5167 49.8005L69.1691 76.8945H100.429L116.081 49.8005L100.383 22.6161ZM0 0.181048L22.3024 38.8544L35.2857 16.0575L26.1024 0.181046L0 0.181048Z" fill="black"/>
</mask>
<g mask="url(#mask0_911_11242)">
<g filter="url(#filter0_f_911_11242)">
<circle cx="688.5" cy="110.5" r="337.5" fill="#C8CDC9"/>
</g>
</g>
<defs>
<filter id="filter0_f_911_11242" x="-49" y="-627" width="1475" height="1475" filterUnits="userSpaceOnUse" color-interpolation-filters="sRGB">
<feFlood flood-opacity="0" result="BackgroundImageFix"/>
<feBlend mode="normal" in="SourceGraphic" in2="BackgroundImageFix" result="shape"/>
<feGaussianBlur stdDeviation="200" result="effect1_foregroundBlur_911_11242"/>
</filter>
</defs>
</svg>
