<svg width="32" height="32" viewBox="0 0 32 32" xmlns="http://www.w3.org/2000/svg" xmlns:xlink="http://www.w3.org/1999/xlink">
    <defs>
        <path id="a" d="M0 0h32v32H0z"/>
    </defs>
    <g fill="none" fill-rule="evenodd">
        <g>
            <mask id="b" fill="#fff">
                <use xlink:href="#a"/>
            </mask>
            <path d="M16 0c8.836 0 16 7.163 16 16 0 8.836-7.164 16-16 16-8.837 0-16-7.164-16-16C0 7.163 7.163 0 16 0" fill="silver" mask="url(#b)"/>
        </g>
        <path d="M19.48 16.629h-2.505v9.178h-3.796V16.63h-1.805v-3.226h1.805v-2.087c0-1.493.71-3.83 3.83-3.83l2.811.011v3.132h-2.04c-.334 0-.805.167-.805.879v1.898h2.837l-.332 3.223z" fill="#FFF"/>
    </g>
</svg>
