<svg width="24" height="24" viewBox="0 0 24 24" xmlns="http://www.w3.org/2000/svg">
    <path d="M15.179 21.474c1.088-2.096 1.699-5.24 1.804-8.474h4.967c-.396 3.962-3.116 7.244-6.771 8.474zM2.05 13h4.967c.104 3.234.716 6.378 1.804 8.474C5.166 20.244 2.447 16.962 2.05 13zM8.82 2.527C7.735 4.622 7.122 7.767 7.019 11H2.05c.396-3.962 3.115-7.243 6.77-8.473zM9.02 11c.185-5.45 1.854-9 2.98-9 1.128 0 2.797 3.55 2.983 9H9.019zm2.98 11c-1.126 0-2.795-3.55-2.98-9h5.963c-.186 5.45-1.855 9-2.982 9zm9.95-11h-4.966c-.105-3.233-.716-6.378-1.804-8.473 3.655 1.23 6.375 4.51 6.77 8.473zM12 0C5.384 0 0 5.383 0 12c0 6.618 5.384 12 12 12 6.618 0 12-5.382 12-12 0-6.617-5.382-12-12-12z" fill="#B3B3B3" fill-rule="evenodd"/>
</svg>
