<svg width="121" height="36" viewBox="0 0 121 36" xmlns="http://www.w3.org/2000/svg" xmlns:xlink="http://www.w3.org/1999/xlink">
    <defs>
        <path id="a" d="M0 0h35.912v35.912H0z"/>
    </defs>
    <g fill="none" fill-rule="evenodd">
        <g>
            <mask id="b" fill="#fff">
                <use xlink:href="#a"/>
            </mask>
            <path d="M35.912 17.956c0 9.917-8.04 17.956-17.956 17.956C8.039 35.912 0 27.872 0 17.956 0 8.039 8.04 0 17.956 0s17.956 8.039 17.956 17.956" fill="#32FF14" mask="url(#b)"/>
        </g>
        <path d="M16.975 26.164a1.383 1.383 0 0 1 0-1.954l.977-.977.977.977a1.383 1.383 0 0 1 0 1.954 1.383 1.383 0 0 1-1.954 0zm.977-14.941 4.957 4.957-4.957 3.287-4.956-3.287 4.956-4.957zM8.97 20.205l1.965-1.964 4.79 3.178-.77.77a4.244 4.244 0 0 0 0 5.995 4.244 4.244 0 0 0 5.995 0 4.244 4.244 0 0 0 0-5.995l-.771-.77 4.791-3.178 1.971 1.971 2.02-2.02-11.009-11.01L6.95 18.186l2.02 2.02zM114 19.233c-.65-1.272-1.679-2.041-3.086-2.308-.18-1.354-.6-2.554-1.259-3.6a6.576 6.576 0 0 0-2.61-2.4h6.954v8.308zm-53.043 0c-.65-1.272-1.678-2.041-3.085-2.308-.181-1.354-.6-2.554-1.259-3.6a6.576 6.576 0 0 0-2.61-2.4h6.954v8.308zm22.327 4.4-4.845-3.97c1.66-1.558 3.275-2.635 4.845-3.23v7.2zm20.131-16.154H48.914v.01c-.985.023-1.862.22-2.624.605-.812.41-1.471.97-1.976 1.677-.506.708-.912 1.585-1.218 2.631a18.232 18.232 0 0 0-.636 3.308 34.642 34.642 0 0 0-.149 3.892c.036 2.749.55 4.908 1.543 6.477.992 1.57 2.4 2.354 4.222 2.354.36 0 .685-.03.974-.093v-3.722c-.127.02-.334.03-.622.03-1.642 0-2.464-1.682-2.464-5.046 0-1.025.014-1.882.042-2.569a21.08 21.08 0 0 1 .23-2.293c.125-.84.297-1.512.513-2.015.217-.502.532-.928.948-1.277.414-.348.92-.523 1.515-.523h1.353v3.23c1.082 0 1.926.237 2.53.709.605.472 1.006 1.251 1.205 2.338-1.065.39-1.908 1.041-2.53 1.954-.623.913-.935 2.046-.935 3.4 0 1.784.483 3.16 1.449 4.123.964.965 2.196 1.446 3.694 1.446.703 0 1.307-.061 1.813-.184v-3.539a9.029 9.029 0 0 1-1.029.062c-.595 0-1.087-.154-1.475-.462-.388-.308-.581-.78-.581-1.415 0-.636.212-1.134.636-1.493.423-.358 1.014-.538 1.772-.538 1.208 0 2.152.451 2.828 1.354.677.902 1.015 2.103 1.015 3.6v2.615h3.789v-17.2H67.1c.578 0 .961.118 1.15.354.19.236.285.754.285 1.554v15.292h3.788v-17.2h10.96v1.631a11.937 11.937 0 0 0-4.113 1.738c-1.245.831-2.607 1.923-4.087 3.277v4.123l8.173 6.431.028-.03v.03h3.653V16.31c1.173.082 2.079.451 2.72 1.107.64.657.96 1.488.96 2.493 0 1.497-.595 2.246-1.786 2.246h-.27v3.877c.126.02.315.03.568.03 1.605 0 2.864-.543 3.775-1.63.91-1.087 1.367-2.595 1.367-4.523 0-2.195-.74-3.954-2.22-5.277-1.479-1.323-3.184-2.016-5.114-2.077v-1.63h8.578c.578 0 .962.117 1.15.353.19.236.285.754.285 1.554v15.292h3.788v-17.2h2.869v3.23c1.082 0 1.926.237 2.53.709.605.472 1.006 1.251 1.205 2.338-1.065.39-1.908 1.041-2.53 1.954-.623.913-.934 2.046-.934 3.4 0 1.784.482 3.16 1.448 4.123.964.965 2.196 1.446 3.694 1.446.703 0 1.307-.061 1.813-.184v-3.539c-.361.042-.704.062-1.029.062-.595 0-1.087-.154-1.475-.462-.387-.308-.582-.78-.582-1.415 0-.636.213-1.134.637-1.493.423-.358 1.014-.538 1.772-.538 1.209 0 2.152.451 2.828 1.354.677.902 1.015 2.103 1.015 3.6v2.615h3.789v-17.2h3.112V7.48h-17.485z" fill="#15499B"/>
    </g>
</svg>
