<svg width="21" height="21" viewBox="0 0 21 21" fill="none" xmlns="http://www.w3.org/2000/svg">
<path fill-rule="evenodd" clip-rule="evenodd" d="M15.1973 4.30458C18.1295 7.23676 18.1295 11.9908 15.1973 14.923C12.2651 17.8551 7.51113 17.8551 4.57895 14.923C1.64676 11.9908 1.64676 7.23676 4.57895 4.30458C7.51113 1.37239 12.2651 1.37239 15.1973 4.30458ZM16.7664 15.4317C19.7669 11.8924 19.5974 6.58336 16.258 3.24392C12.74 -0.274054 7.03626 -0.274054 3.51829 3.24392C0.000317105 6.76189 0.000317106 12.4656 3.51829 15.9836C6.85762 19.3229 12.1664 19.4925 15.7057 16.4923L19.1572 19.9438C19.4501 20.2367 19.925 20.2367 20.2179 19.9438C20.5107 19.6509 20.5107 19.176 20.2179 18.8831L16.7664 15.4317Z" fill="#F3F3F3"/>
</svg>
