<svg width="16" height="16" viewBox="0 0 16 16" fill="none" xmlns="http://www.w3.org/2000/svg">
<path fill-rule="evenodd" clip-rule="evenodd" d="M15.9594 4.70404C15.9219 3.8539 15.7844 3.26944 15.5874 2.76299C15.3842 2.22541 15.0716 1.74412 14.662 1.34401C14.2618 0.937683 13.7773 0.621948 13.2458 0.421957C12.7363 0.22502 12.1548 0.0875415 11.3045 0.0500586C10.4478 0.00940124 10.1759 0 8.00315 0C5.83042 0 5.55846 0.00940124 4.70498 0.0468842C3.85467 0.0843671 3.27008 0.221967 2.76366 0.418783C2.22585 0.621948 1.74446 0.934509 1.34428 1.34401C0.937869 1.74412 0.622193 2.22858 0.422041 2.75994C0.225064 3.26944 0.0875588 3.85073 0.0500685 4.70087C0.0094031 5.55736 0 5.82926 0 8.00156C0 10.1739 0.0094031 10.4458 0.0468934 11.2991C0.0843838 12.1492 0.222011 12.7337 0.418988 13.2401C0.622193 13.7777 0.937869 14.259 1.34428 14.6591C1.74446 15.0654 2.22903 15.3812 2.76048 15.5812C3.27008 15.7781 3.85149 15.9156 4.70192 15.9531C5.55528 15.9907 5.82736 16 8.00009 16C10.1728 16 10.4448 15.9907 11.2983 15.9531C12.1486 15.9156 12.7332 15.7781 13.2396 15.5812C14.3151 15.1654 15.1654 14.3153 15.5812 13.2401C15.7781 12.7306 15.9157 12.1492 15.9532 11.2991C15.9907 10.4458 16.0001 10.1739 16.0001 8.00156C16.0001 5.82926 15.9969 5.55736 15.9594 4.70404ZM14.5183 11.2366C14.4838 12.018 14.3526 12.4399 14.2431 12.7212C13.9742 13.4183 13.4209 13.9715 12.7238 14.2403C12.4424 14.3497 12.0173 14.481 11.2388 14.5153C10.3947 14.5529 10.1416 14.5622 8.00632 14.5622C5.87108 14.5622 5.61476 14.5529 4.77373 14.5153C3.99217 14.481 3.57013 14.3497 3.28877 14.2403C2.94183 14.1121 2.62603 13.909 2.36971 13.6433C2.10398 13.3838 1.90077 13.0713 1.77255 12.7244C1.66313 12.4431 1.53185 12.018 1.49754 11.2397C1.45992 10.3958 1.45064 10.1426 1.45064 8.00779C1.45064 5.87297 1.45992 5.6167 1.49754 4.77596C1.53185 3.99455 1.66313 3.5726 1.77255 3.29129C1.90077 2.9443 2.10398 2.62869 2.37288 2.37229C2.63226 2.10661 2.94488 1.90345 3.29194 1.77537C3.5733 1.66597 3.99852 1.53472 4.7769 1.50029C5.62098 1.46281 5.87426 1.45341 8.00938 1.45341C10.1478 1.45341 10.4009 1.46281 11.242 1.50029C12.0235 1.53472 12.4456 1.66597 12.7269 1.77537C13.0739 1.90345 13.3897 2.10661 13.646 2.37229C13.9117 2.63174 14.1149 2.9443 14.2431 3.29129C14.3526 3.5726 14.4838 3.99761 14.5183 4.77596C14.5558 5.61987 14.5652 5.87297 14.5652 8.00779C14.5652 10.1426 14.5558 10.3927 14.5183 11.2366ZM8.00162 3.8916C5.73205 3.8916 3.89062 5.73254 3.89062 8.00178C3.89062 10.271 5.73205 12.112 8.00162 12.112C10.2713 12.112 12.1126 10.271 12.1126 8.00178C12.1126 5.73254 10.2713 3.8916 8.00162 3.8916ZM8.00162 10.6679C6.52924 10.6679 5.33492 9.47399 5.33492 8.00178C5.33492 6.52957 6.52924 5.33561 8.00162 5.33561C9.47412 5.33561 10.6683 6.52957 10.6683 8.00178C10.6683 9.47399 9.47412 10.6679 8.00162 10.6679ZM12.2761 4.68861C12.8063 4.68861 13.236 4.25896 13.236 3.72907C13.236 3.19906 12.8063 2.76953 12.2761 2.76953C11.7461 2.76953 11.3164 3.19906 11.3164 3.72907C11.3164 4.25896 11.7461 4.68861 12.2761 4.68861Z" fill="#07060F"/>
</svg>
