<svg width="261" height="53" viewBox="0 0 261 53" fill="none" xmlns="http://www.w3.org/2000/svg">
<path fill-rule="evenodd" clip-rule="evenodd" d="M40.7516 11.5719L35.7902 3.17852C34.29 0.640524 30.5382 0.640525 29.038 3.17852L24.0766 11.5719H40.7516ZM44.3272 17.6274C43.6308 16.4503 42.3442 15.7253 40.9519 15.7253H23.8601C22.4674 15.7253 21.1805 16.4508 20.4842 17.6285L0 52.275H9.81782L15.7221 42.2903L20.5174 50.3762C21.2143 51.5514 22.4998 52.275 23.8907 52.275H40.9244C42.3223 52.275 43.6132 51.5442 44.3076 50.3596L52.8421 35.7999C53.5314 34.6239 53.5284 33.1787 52.8342 32.0055L44.3272 17.6274ZM38.2844 43.9683H26.5609L20.6565 33.9835L26.5438 24.0321H38.3014L44.1887 33.9835L38.2844 43.9683ZM55.9292 38.004L64.3178 52.2086H54.4999L51.0458 46.3772L55.9292 38.004Z" fill="white"/>
<path fill-rule="evenodd" clip-rule="evenodd" d="M40.7516 11.5719L35.7902 3.17852C34.29 0.640524 30.5382 0.640525 29.038 3.17852L24.0766 11.5719H40.7516ZM44.3272 17.6274C43.6308 16.4503 42.3442 15.7253 40.9519 15.7253H23.8601C22.4674 15.7253 21.1805 16.4508 20.4842 17.6285L0 52.275H9.81782L15.7221 42.2903L20.5174 50.3762C21.2143 51.5514 22.4998 52.275 23.8907 52.275H40.9244C42.3223 52.275 43.6132 51.5442 44.3076 50.3596L52.8421 35.7999C53.5314 34.6239 53.5284 33.1787 52.8342 32.0055L44.3272 17.6274ZM38.2844 43.9683H26.5609L20.6565 33.9835L26.5438 24.0321H38.3014L44.1887 33.9835L38.2844 43.9683ZM55.9292 38.004L64.3178 52.2086H54.4999L51.0458 46.3772L55.9292 38.004Z" fill="url(#paint0_linear_770_9211)"/>
<path d="M81.1628 32.1733C81.1628 29.0875 82.2829 26.4631 84.5233 24.3002C86.7636 22.1084 89.4819 21.0125 92.6781 21.0125C95.8743 21.0125 98.5925 22.1084 100.833 24.3002C103.103 26.4631 104.238 29.0875 104.238 32.1733C104.238 35.2591 103.103 37.8978 100.833 40.0896C98.5925 42.2525 95.8743 43.334 92.6781 43.334C90.4975 43.334 88.6156 42.7861 87.0324 41.6902V51.6397H81.1628V32.1733ZM88.6007 36.2396C89.7059 37.3066 91.08 37.8402 92.7229 37.8402C94.3658 37.8402 95.7249 37.3066 96.8003 36.2396C97.8756 35.1437 98.4133 33.7883 98.4133 32.1733C98.4133 30.5583 97.8756 29.2173 96.8003 28.1502C95.7249 27.0543 94.3658 26.5064 92.7229 26.5064C91.08 26.5064 89.7059 27.0543 88.6007 28.1502C87.4954 29.2173 86.9428 30.5583 86.9428 32.1733C86.9428 33.7883 87.4954 35.1437 88.6007 36.2396Z" fill="#111720"/>
<path d="M109.853 24.3002C112.123 22.1084 114.856 21.0125 118.053 21.0125C121.249 21.0125 123.967 22.1084 126.207 24.3002C128.478 26.4631 129.613 29.0875 129.613 32.1733C129.613 35.2591 128.478 37.8978 126.207 40.0896C123.967 42.2525 121.249 43.334 118.053 43.334C114.856 43.334 112.123 42.2525 109.853 40.0896C107.613 37.8978 106.493 35.2591 106.493 32.1733C106.493 29.0875 107.613 26.4631 109.853 24.3002ZM122.175 28.1502C121.099 27.0543 119.74 26.5064 118.097 26.5064C116.454 26.5064 115.08 27.0543 113.975 28.1502C112.87 29.2173 112.317 30.5583 112.317 32.1733C112.317 33.7883 112.87 35.1437 113.975 36.2396C115.08 37.3066 116.454 37.8402 118.097 37.8402C119.74 37.8402 121.099 37.3066 122.175 36.2396C123.25 35.1437 123.788 33.7883 123.788 32.1733C123.788 30.5583 123.25 29.2173 122.175 28.1502Z" fill="#111720"/>
<path d="M141.281 43.334C138.592 43.334 136.307 42.6851 134.425 41.3874C132.573 40.0896 131.647 38.2872 131.647 35.98H137.203C137.203 36.6722 137.592 37.2345 138.368 37.6671C139.175 38.0997 140.19 38.316 141.415 38.316C142.58 38.316 143.476 38.1285 144.103 37.7536C144.761 37.3499 145.089 36.8452 145.089 36.2396C145.089 35.6916 144.761 35.2591 144.103 34.9418C143.446 34.6246 142.625 34.4083 141.639 34.2929C140.683 34.1776 139.623 34.0046 138.458 33.7738C137.323 33.5143 136.262 33.1971 135.277 32.8221C134.321 32.4472 133.514 31.8128 132.857 30.9188C132.2 30.0248 131.871 28.9 131.871 27.5446C131.871 25.67 132.752 24.1127 134.515 22.8727C136.307 21.6326 138.518 21.0125 141.146 21.0125C143.835 21.0125 146.03 21.647 147.733 22.9159C149.435 24.156 150.287 25.8863 150.287 28.107H144.731C144.731 27.5013 144.357 26.9966 143.611 26.5929C142.894 26.1892 142.042 25.9873 141.057 25.9873C140.101 25.9873 139.294 26.1747 138.637 26.5496C138.01 26.9245 137.696 27.4004 137.696 27.9772C137.696 28.5251 138.144 28.9433 139.04 29.2317C139.936 29.5201 141.027 29.7652 142.311 29.9671C143.625 30.1401 144.925 30.3997 146.209 30.7457C147.494 31.0918 148.584 31.7407 149.48 32.6924C150.406 33.6152 150.884 34.8409 150.914 36.3694C150.944 38.6765 150.063 40.4213 148.27 41.6037C146.508 42.7572 144.178 43.334 141.281 43.334Z" fill="#111720"/>
<path d="M164.813 26.8524H160.78V32.7789C160.78 34.5092 161.094 35.7493 161.721 36.4991C162.348 37.249 163.379 37.6239 164.813 37.6239V43.1177C161.796 43.1177 159.391 42.267 157.599 40.5654C155.837 38.8639 154.955 36.2684 154.955 32.7789V26.8524H151.64V21.3586H154.955V12.7501H160.78V21.3586H164.813V26.8524Z" fill="#111720"/>
<path d="M177.955 43.334C174.759 43.334 172.026 42.2525 169.756 40.0896C167.515 37.8978 166.395 35.2591 166.395 32.1733C166.395 29.0875 167.515 26.4631 169.756 24.3002C172.026 22.1084 174.759 21.0125 177.955 21.0125C181.151 21.0125 183.87 22.1084 186.11 24.3002C188.35 26.4631 189.47 29.0875 189.47 32.1733V42.9879H183.646V40.6952C183.317 41.4162 182.6 42.0362 181.495 42.5553C180.39 43.0745 179.21 43.334 177.955 43.334ZM173.878 36.2396C174.983 37.3066 176.357 37.8402 178 37.8402C179.643 37.8402 181.002 37.3066 182.077 36.2396C183.153 35.1437 183.69 33.7883 183.69 32.1733C183.69 30.5583 183.153 29.2173 182.077 28.1502C181.002 27.0543 179.643 26.5064 178 26.5064C176.357 26.5064 174.983 27.0543 173.878 28.1502C172.773 29.2173 172.22 30.5583 172.22 32.1733C172.22 33.7883 172.773 35.1437 173.878 36.2396Z" fill="#111720"/>
<path d="M203.509 51.6397C201.179 51.6397 199.058 51.0196 197.146 49.7795C195.235 48.5683 193.831 46.9533 192.935 44.9346H200.014C201.089 45.7421 202.254 46.1458 203.509 46.1458C205.062 46.1458 206.377 45.7709 207.452 45.0211C208.557 44.2713 209.11 43.2475 209.11 41.9497V41.9065C207.377 42.8582 205.51 43.334 203.509 43.334C200.313 43.334 197.579 42.2525 195.309 40.0896C193.069 37.8978 191.949 35.2591 191.949 32.1733C191.949 29.0875 193.069 26.4631 195.309 24.3002C197.579 22.1084 200.313 21.0125 203.509 21.0125C206.705 21.0125 209.423 22.1084 211.664 24.3002C213.934 26.4631 215.069 29.0875 215.069 32.1733V40.4789C215.069 43.5647 213.934 46.1891 211.664 48.352C209.423 50.5438 206.705 51.6397 203.509 51.6397ZM199.432 36.2396C200.537 37.3066 201.911 37.8402 203.554 37.8402C205.197 37.8402 206.556 37.3066 207.631 36.2396C208.706 35.1437 209.244 33.7883 209.244 32.1733C209.244 30.5583 208.706 29.2173 207.631 28.1502C206.556 27.0543 205.197 26.5064 203.554 26.5064C201.911 26.5064 200.537 27.0543 199.432 28.1502C198.326 29.2173 197.774 30.5583 197.774 32.1733C197.774 33.7883 198.326 35.1437 199.432 36.2396Z" fill="#111720"/>
<path d="M217.546 32.2165C217.546 29.1596 218.637 26.5352 220.817 24.3434C223.028 22.1228 225.731 21.0125 228.927 21.0125C231.914 21.0125 234.573 21.9786 236.903 23.9109C239.263 25.8431 240.502 28.4386 240.622 31.6974C240.652 32.6203 240.592 33.5143 240.442 34.3795H223.819C224.088 35.4465 224.671 36.2973 225.567 36.9317C226.493 37.5373 227.613 37.8402 228.927 37.8402C230.421 37.8402 231.705 37.422 232.781 36.5856L239.726 36.6289C238.8 38.6188 237.381 40.2338 235.469 41.4739C233.557 42.714 231.436 43.334 229.106 43.334C225.88 43.334 223.147 42.2525 220.907 40.0896C218.666 37.9267 217.546 35.3023 217.546 32.2165ZM223.819 29.8806H234.394C233.946 28.8712 233.229 28.0637 232.243 27.4581C231.287 26.8236 230.242 26.5064 229.106 26.5064C226.567 26.5064 224.805 27.6311 223.819 29.8806Z" fill="#111720"/>
<defs>
<linearGradient id="paint0_linear_770_9211" x1="32.1589" y1="1.27502" x2="32.1589" y2="52.275" gradientUnits="userSpaceOnUse">
<stop stop-color="#738579"/>
<stop offset="1" stop-color="#3C423E"/>
</linearGradient>
</defs>
</svg>
