<svg xmlns="http://www.w3.org/2000/svg" width="93.057" height="19.75" viewBox="0 0 93.057 19.75">
  <g id="Group_163771" data-name="Group 163771" transform="translate(0 0)">
    <path id="Path_83915" data-name="Path 83915" d="M-666.078-576.371a1.893,1.893,0,0,1,.191-.019h4.066c.063,0,.126.008.185.012.043.262.066.514.128.757a2.469,2.469,0,0,0,1.647,1.807,4.612,4.612,0,0,0,3.219-.028,1.764,1.764,0,0,0,1.154-2.105,1.236,1.236,0,0,0-.669-.886,13.93,13.93,0,0,0-1.639-.67c-1.288-.428-2.592-.808-3.879-1.238a6.635,6.635,0,0,1-2.247-1.253,4.764,4.764,0,0,1-1.609-4.2,5.142,5.142,0,0,1,3.449-4.57,9.171,9.171,0,0,1,6.9-.119,5.68,5.68,0,0,1,3.73,4.3c.1.427.144.866.217,1.317h-4.548c-.037-.237-.056-.476-.113-.705a2.1,2.1,0,0,0-1.579-1.619,3.955,3.955,0,0,0-2.531.1,1.621,1.621,0,0,0-1.122,1.937,1.3,1.3,0,0,0,.714.953,10.661,10.661,0,0,0,1.431.56c1.309.411,2.632.777,3.937,1.2a7.143,7.143,0,0,1,2.292,1.222,4.406,4.406,0,0,1,1.707,3.126,6.167,6.167,0,0,1-.672,3.638,5.372,5.372,0,0,1-3.269,2.575,10.65,10.65,0,0,1-7.2-.206,5.831,5.831,0,0,1-3.756-4.7c-.051-.283-.086-.568-.128-.853Z" transform="translate(666.078 589.496)" fill="#fff"/>
    <path id="Path_83916" data-name="Path 83916" d="M397.7-569.98v-10.529h4.117v17.14h-.2c-1.255,0-2.51,0-3.764,0a.336.336,0,0,1-.32-.164Q394-568.6,390.46-573.671c-.041-.059-.084-.116-.155-.212v10.5h-4.128v-17.139h.221c1.226,0,2.452,0,3.678,0a.386.386,0,0,1,.373.182q3.532,5.094,7.076,10.183l.134.191Z" transform="translate(-340.9 581.824)" fill="#fff"/>
    <path id="Path_83917" data-name="Path 83917" d="M1046-581.22h-.231c-1.413,0-2.825,0-4.238,0a.27.27,0,0,1-.3-.21,5.248,5.248,0,0,0-2.788-3.054,5.482,5.482,0,0,0-7.793,3.622,5.969,5.969,0,0,0,.914,5.215,5.183,5.183,0,0,0,4.588,2.142,5.8,5.8,0,0,0,2.79-.739,5.173,5.173,0,0,0,2.45-3.145.331.331,0,0,1,.39-.287c1.341.012,2.682.006,4.023.006h.275c-.058.294-.094.569-.167.835a9.422,9.422,0,0,1-7.664,7.177,10.76,10.76,0,0,1-6.072-.425,9.154,9.154,0,0,1-5.965-6.48,9.673,9.673,0,0,1,1.726-8.817,9.214,9.214,0,0,1,5.314-3.351,11.175,11.175,0,0,1,7.076.52,9.283,9.283,0,0,1,5.547,6.349c.051.182.088.368.13.552A.512.512,0,0,1,1046-581.22Z" transform="translate(-953.02 589.132)" fill="#fff"/>
    <path id="Path_83918" data-name="Path 83918" d="M-125.24-580.51l-7.326,8.247,7.426,8.893h0l-5.225.015-6.938-8.908,7.2-8.251Z" transform="translate(160.057 581.813)" fill="#fff"/>
    <path id="Path_83919" data-name="Path 83919" d="M184.22-580.254h4.35v17.061h-4.35Z" transform="translate(-147.634 581.592)" fill="#fff"/>
    <path id="Path_83920" data-name="Path 83920" d="M850.08-563.068v-17.043h4.357v17.043Z" transform="translate(-784.844 581.47)" fill="#fff"/>
    <rect id="Rectangle_147748" data-name="Rectangle 147748" width="4.357" height="4.272" transform="translate(18.428 1.373)" fill="#fff"/>
    <rect id="Rectangle_147749" data-name="Rectangle 147749" width="4.357" height="4.272" transform="translate(18.428 14.187)" fill="#fff"/>
  </g>
</svg>
