<svg width="121" height="37" viewBox="0 0 121 37" xmlns="http://www.w3.org/2000/svg">
    <g fill-rule="nonzero" fill="none">
        <g>
            <ellipse fill="#32FF14" cx="18.938" cy="18.44" rx="18.938" ry="18.44"/>
            <path d="m9.459 20.752 2.065-2.01 5.06 3.257-.806.784a4.288 4.288 0 0 0 0 6.153c1.735 1.69 4.585 1.69 6.32 0a4.288 4.288 0 0 0 0-6.153L21.292 22l5.06-3.258 2.086 2.031 2.127-2.07L18.917 7.36 7.311 18.66l2.148 2.092zm9.458-9.23 5.225 5.088-5.225 3.378-5.225-3.378 5.225-5.088zm-1.012 15.343a1.382 1.382 0 0 1 0-2.01l1.033-1.006 1.033 1.005a1.382 1.382 0 0 1 0 2.011c-.579.543-1.508.543-2.066 0z" fill="#14499C"/>
        </g>
        <g fill="#0046A0">
            <path d="M47.572 25.336h-2.675v-8.283c0-3.414 1.766-5.133 5.27-5.133 1.896 0 3.195.635 3.895 1.932.701-1.297 2-1.932 3.896-1.932 3.635 0 5.245 1.745 5.245 5.133v8.283H60.53v-8.283c0-1.8-.57-2.593-2.571-2.593-2 0-2.623.794-2.623 2.593v8.283H52.74v-8.283c0-1.8-.57-2.593-2.571-2.593-2 0-2.597.794-2.597 2.593l.001 8.283zM64.868 20.081v-2.324c0-3.785 1.907-5.837 5.85-5.837 4.044 0 5.8 1.946 5.8 5.837v2.325c0 3.758-1.909 5.838-5.8 5.838-4.07.002-5.85-1.945-5.85-5.839zm8.875-2.382c0-2.412-.677-3.446-3.027-3.446s-3.075 1.034-3.075 3.446v2.47c0 2.383.678 3.417 3.075 3.417 2.349 0 3.027-1.005 3.027-3.417v-2.47zM78.181 25.336V11.92h2.774v13.416h-2.774zm8.308-12.833h3.374l-4.607 5.122c-.339.335-.523.647-.523.932 0 .232.157.543.497.906l5.156 5.873H87.01l-3.9-4.476c-.707-.801-1.046-1.578-1.046-2.38 0-.828.209-1.294 1.046-2.2l3.378-3.777zM100.926 21.596c0 3-1.647 4.324-5.398 4.324-3.42 0-5.142-1.379-5.142-4.162 0-2.892 1.824-4.085 5.169-4.085h2.787v-1.321c0-1.594-.985-2.054-2.99-2.054-1.547 0-2.736.162-3.6.514v-2.433c.862-.297 2.003-.46 3.447-.46 3.674 0 5.727 1.217 5.727 4.435v5.242zm-2.774-2.093H95.26c-1.816 0-2.654.583-2.654 2.07 0 1.544.998 2.013 2.576 2.013 1.971 0 2.97-.437 2.97-2.273l.001-1.81zM104.794 25.336h-2.759v-8.283c0-3.414 1.82-5.133 5.43-5.133 1.954 0 3.292.635 4.014 1.932.722-1.297 2.06-1.932 4.013-1.932 3.746 0 5.405 1.745 5.405 5.133v8.283h-2.751v-8.283c0-1.8-.588-2.593-2.65-2.593-2.06 0-2.701.794-2.701 2.593v8.283h-2.673v-8.283c0-1.8-.588-2.593-2.649-2.593-2.06 0-2.675.794-2.675 2.593l-.004 8.283z"/>
        </g>
    </g>
</svg>
