<svg xmlns="http://www.w3.org/2000/svg" width="29.243" height="29.242"><g data-name="Сгруппировать 1333"><g data-name="Сгруппировать 557" transform="translate(0 .001)"><rect data-name="Прямоугольник 171" width="29.242" height="29.243" rx="8" transform="rotate(90 14.622 14.621)" fill="#8f7f72"/><g data-name="Сгруппировать 555" fill="#fff"><path data-name="Контур 744" d="M19.16 9.109a1.006 1.006 0 101.005 1.005 1.005 1.005 0 00-1.005-1.005z"/><path data-name="Контур 745" d="M14.691 10.396a4.222 4.222 0 104.222 4.222 4.227 4.227 0 00-4.222-4.222zm0 6.927a2.7 2.7 0 112.7-2.705 2.707 2.707 0 01-2.7 2.707z"/><path data-name="Контур 746" d="M18.043 23.196h-6.844a5.155 5.155 0 01-5.15-5.153v-6.847a5.155 5.155 0 015.15-5.15h6.844a5.155 5.155 0 015.15 5.15v6.845a5.155 5.155 0 01-5.15 5.155zM11.199 7.661a3.541 3.541 0 00-3.537 3.537v6.845a3.54 3.54 0 003.537 3.536h6.844a3.541 3.541 0 003.537-3.536v-6.847a3.541 3.541 0 00-3.537-3.537z"/></g></g></g></svg>