<svg xmlns="http://www.w3.org/2000/svg" width="29.243" height="29.242"><g data-name="Сгруппировать 1394" transform="translate(-35)"><rect data-name="Прямоугольник 169" width="29.242" height="29.243" rx="8" transform="rotate(90 32.121 32.122)" fill="#8f7f72"/><path data-name="Контур 85127" d="M58.219 9.91a4.941 4.941 0 01-2.985-1 4.952 4.952 0 01-1.879-2.984 4.979 4.979 0 01-.1-.927h-3.2V18.54a2.9 2.9 0 11-1.991-2.75v-3.25a6.3 6.3 0 00-.923-.068 6.14 6.14 0 00-4.616 2.063 6.017 6.017 0 00.272 8.3 6.246 6.246 0 00.578.505 6.14 6.14 0 003.763 1.272 6.3 6.3 0 00.923-.068 6.119 6.119 0 003.419-1.71 5.994 5.994 0 001.8-4.266l-.016-7.156a8.113 8.113 0 004.961 1.684V9.909h-.009z" fill="#fff"/></g></svg>