<svg xmlns="http://www.w3.org/2000/svg" width="29.243" height="29.241"><g data-name="Сгруппировать 1331"><g data-name="Сгруппировать 559"><path data-name="Контур 741" d="M0 21.597V7.649A7.671 7.671 0 017.648-.003h13.944a7.672 7.672 0 017.65 7.649v13.951a7.672 7.672 0 01-7.65 7.649h-4.687l-2.455-.6-2.114.6H7.648A7.671 7.671 0 010 21.597z" fill="#8f7f72"/><g data-name="Сгруппировать 552"><path data-name="Контур 742" d="M20.313 19.327l.648-4.227h-4.055v-2.742a2.113 2.113 0 012.383-2.284h1.844v-3.6a22.466 22.466 0 00-3.273-.286c-3.34 0-5.523 2.025-5.523 5.689v3.219H8.624v4.227h3.713v9.914h4.569v-9.91z" fill="#fff"/></g></g></g></svg>