<svg xmlns="http://www.w3.org/2000/svg" width="29.243" height="29.242"><g data-name="Сгруппировать 1332"><g data-name="Сгруппировать 558"><rect data-name="Прямоугольник 170" width="29.242" height="29.243" rx="8" transform="rotate(90 14.621 14.622)" fill="#8f7f72"/><path data-name="Контур 743" d="M22.7 9.61a6.611 6.611 0 01-1.613.46c.259-.043.64-.513.793-.7a2.966 2.966 0 00.535-.974c.014-.028.024-.063 0-.084a.092.092 0 00-.086.007 8.236 8.236 0 01-1.912.732.128.128 0 01-.132-.035 1.508 1.508 0 00-.167-.171 3.382 3.382 0 00-.926-.567 3.225 3.225 0 00-1.421-.229 3.39 3.39 0 00-1.348.381 3.468 3.468 0 00-1.087.888 3.332 3.332 0 00-.649 1.3 3.506 3.506 0 00-.034 1.373c.01.077 0 .087-.066.077a10.218 10.218 0 01-6.571-3.344c-.076-.088-.118-.088-.181.006a3.333 3.333 0 00.568 3.937c.129.122.261.244.4.355a3.348 3.348 0 01-1.268-.355c-.077-.049-.115-.021-.122.066a2.024 2.024 0 00.021.376 3.369 3.369 0 002.076 2.686 1.942 1.942 0 00.422.129 3.755 3.755 0 01-1.244.038c-.091-.017-.125.028-.091.115a3.5 3.5 0 002.613 2.188c.118.021.237.021.356.049-.007.01-.015.01-.021.021a4.14 4.14 0 01-1.785.945 6.384 6.384 0 01-2.709.347c-.146-.021-.177-.02-.216 0s-.005.06.042.1c.184.122.372.23.564.335a8.967 8.967 0 001.811.725 9.65 9.65 0 009.367-2.19 9.833 9.833 0 002.592-7.171c0-.1.122-.16.194-.214a6.364 6.364 0 001.275-1.326.407.407 0 00.084-.254v-.014c.001-.05.001-.037-.064-.008z" fill="#fff"/></g></g></svg>