<svg width="283" height="610" viewBox="0 0 283 610" fill="none" xmlns="http://www.w3.org/2000/svg">
<path fill-rule="evenodd" clip-rule="evenodd" d="M302.263 12.6241C359.123 28.074 384.24 92.647 434.723 123.031C493.261 158.264 597.486 137.586 618.11 202.722C638.79 268.036 532.215 308.115 514.26 374.229C494.59 446.661 567.959 543.979 511.888 593.871C457.794 642.003 374.67 563.114 302.263 562.863C230.284 562.614 157.25 626.205 93.6918 592.421C30.1535 558.647 11.7048 474.284 1.5913 403.041C-7.37986 339.846 23.7446 281.905 40.8828 220.42C59.0157 155.366 51.7762 75.3688 104.64 33.3424C157.788 -8.90995 236.742 -5.17905 302.263 12.6241Z" fill="#FFF7F9"/>
</svg>
