<svg width="147" height="99" viewBox="0 0 147 99" fill="none" xmlns="http://www.w3.org/2000/svg">
<path d="M38.656 21.5455C38.016 21.3855 37.496 21.0495 37.096 20.5375C36.712 20.0415 36.4 19.4415 36.16 18.7375C36.144 18.5295 36.136 18.2415 36.136 17.8735C36.152 17.5055 36.176 17.1615 36.208 16.8415C36.24 16.5215 36.272 16.3375 36.304 16.2895C36.352 16.2575 36.376 16.1615 36.376 16.0015C36.36 15.9375 36.368 15.8335 36.4 15.6895C36.448 15.5295 36.496 15.3695 36.544 15.2095C36.624 15.0175 36.664 14.8655 36.664 14.7535C36.664 14.6255 36.656 14.5295 36.64 14.4655C36.64 14.4655 36.664 14.4175 36.712 14.3215C36.76 14.2095 36.816 14.1215 36.88 14.0575C36.976 13.9615 37.016 13.8655 37 13.7695C37 13.6735 37 13.6255 37 13.6255C36.984 13.5615 37 13.4735 37.048 13.3615C37.096 13.2495 37.144 13.1615 37.192 13.0975C37.224 13.0655 37.264 13.0015 37.312 12.9055C37.376 12.7935 37.408 12.7375 37.408 12.7375C37.408 12.6895 37.44 12.5615 37.504 12.3535C37.584 12.1455 37.672 11.9215 37.768 11.6815C37.864 11.4255 37.952 11.1935 38.032 10.9855C38.128 10.7775 38.2 10.6415 38.248 10.5775V10.5295C38.312 10.3695 38.4 10.2015 38.512 10.0255C38.528 9.94554 38.568 9.81754 38.632 9.64154C38.696 9.44954 38.768 9.26554 38.848 9.08954C39.024 8.70554 39.24 8.27354 39.496 7.79354C39.768 7.29754 40.056 6.80954 40.36 6.32954C40.664 5.83354 40.952 5.39354 41.224 5.00954C41.512 4.60954 41.76 4.31354 41.968 4.12154C42.24 3.81754 42.512 3.60154 42.784 3.47354C43.072 3.32954 43.336 3.37754 43.576 3.61754C43.688 3.72954 43.784 3.89754 43.864 4.12154C43.944 4.32954 43.976 4.52954 43.96 4.72154C43.96 4.89754 43.896 4.99354 43.768 5.00954C43.656 5.07354 43.504 5.25754 43.312 5.56154C43.12 5.84954 42.904 6.19354 42.664 6.59354C42.44 6.99354 42.216 7.40954 41.992 7.84154C41.768 8.25754 41.56 8.63354 41.368 8.96954C41.16 9.43354 40.968 9.84154 40.792 10.1935C40.616 10.5295 40.528 10.6975 40.528 10.6975C40.512 10.7455 40.496 10.7855 40.48 10.8175C40.464 10.8495 40.448 10.8815 40.432 10.9135C40.192 11.4095 39.992 11.8655 39.832 12.2815C39.672 12.6815 39.512 13.1055 39.352 13.5535C39.256 13.6655 39.2 13.7775 39.184 13.8895C39.168 14.0015 39.16 14.0575 39.16 14.0575C39.128 14.0415 39.104 14.0815 39.088 14.1775C39.072 14.2575 39.04 14.3535 38.992 14.4655C38.912 14.5295 38.864 14.6335 38.848 14.7775C38.832 14.9055 38.824 15.0335 38.824 15.1615C38.712 15.4495 38.608 15.8015 38.512 16.2175C38.416 16.6175 38.344 17.0095 38.296 17.3935C38.264 17.7615 38.256 18.0495 38.272 18.2575C38.304 18.5295 38.376 18.7615 38.488 18.9535C38.616 19.1295 38.792 19.2735 39.016 19.3855C39.192 19.4655 39.352 19.5375 39.496 19.6015C39.64 19.6495 39.768 19.6735 39.88 19.6735C40.008 19.6895 40.168 19.6895 40.36 19.6735C40.568 19.6415 40.848 19.5935 41.2 19.5295H41.176C41.384 19.4975 41.6 19.4575 41.824 19.4095C42.064 19.3455 42.288 19.2895 42.496 19.2415C42.688 19.2095 42.872 19.1775 43.048 19.1455C43.224 19.0975 43.36 19.0575 43.456 19.0255C43.808 18.9295 44.088 18.8495 44.296 18.7855C44.52 18.7215 44.672 18.7215 44.752 18.7855C44.832 18.8495 44.92 18.9695 45.016 19.1455C45.112 19.3215 45.136 19.4815 45.088 19.6255C45.056 19.7055 44.896 19.8655 44.608 20.1055C44.32 20.3615 43.992 20.6095 43.624 20.8495C43.256 21.1055 42.92 21.2815 42.616 21.3775C42.296 21.5215 41.864 21.6175 41.32 21.6655C40.792 21.7295 40.28 21.7455 39.784 21.7135C39.288 21.6815 38.912 21.6255 38.656 21.5455ZM48.2508 19.9135C48.0428 19.9135 47.8748 19.8735 47.7467 19.7935C47.6348 19.7135 47.4908 19.6015 47.3148 19.4575C47.0108 19.1375 46.7628 18.7935 46.5708 18.4255C46.3948 18.0575 46.3308 17.7375 46.3788 17.4655C46.4268 17.3375 46.4428 17.2175 46.4268 17.1055C46.4268 16.9775 46.4268 16.9135 46.4268 16.9135C46.3468 16.8335 46.3228 16.7855 46.3548 16.7695C46.3868 16.7375 46.4188 16.6895 46.4508 16.6255C46.5468 16.6255 46.5788 16.5375 46.5468 16.3615C46.5148 16.2335 46.5628 15.9615 46.6908 15.5455C46.8348 15.1135 47.0268 14.7055 47.2668 14.3215C47.3628 14.1615 47.5068 13.9535 47.6988 13.6975C47.8908 13.4255 48.0988 13.1615 48.3228 12.9055C48.5628 12.6335 48.7788 12.4175 48.9708 12.2575C49.3708 11.9215 49.7388 11.6495 50.0748 11.4415C50.4268 11.2335 50.7788 11.0895 51.1308 11.0095C51.4828 10.9295 51.8428 10.8895 52.2108 10.8895C52.5948 10.8895 52.9068 11.0175 53.1468 11.2735C53.5148 11.4335 53.7708 11.6495 53.9148 11.9215C54.0748 12.1935 54.1788 12.5455 54.2268 12.9775C54.2748 13.4575 54.2268 14.0495 54.0828 14.7535C53.9388 15.4415 53.5468 16.2415 52.9068 17.1535C52.5068 17.7295 52.1148 18.1775 51.7308 18.4975C51.3468 18.8175 50.9228 19.1135 50.4588 19.3855C50.1228 19.6095 49.7628 19.7455 49.3788 19.7935C48.9948 19.8415 48.6188 19.8815 48.2508 19.9135ZM50.6988 16.9855C51.0508 16.6815 51.2988 16.3455 51.4428 15.9775C51.6028 15.6095 51.7708 15.1775 51.9468 14.6815C52.0108 14.5855 52.0508 14.4255 52.0668 14.2015C52.0988 13.9775 52.1068 13.7615 52.0908 13.5535C52.0748 13.3295 52.0188 13.2015 51.9228 13.1695C51.7788 13.0575 51.6348 13.0335 51.4908 13.0975C51.3468 13.1455 51.1628 13.2495 50.9388 13.4095C50.4588 13.8095 50.0108 14.2735 49.5948 14.8015C49.1948 15.3135 48.9148 15.9455 48.7548 16.6975C48.7068 17.0975 48.7468 17.4015 48.8748 17.6095C49.0188 17.8015 49.2428 17.8575 49.5468 17.7775C49.8668 17.6815 50.2508 17.4175 50.6988 16.9855ZM55.7701 19.4335C55.6261 19.3215 55.4661 19.1775 55.2901 19.0015C55.1301 18.8255 55.0741 18.5775 55.1221 18.2575C55.1701 17.8095 55.2341 17.4175 55.3141 17.0815C55.3941 16.7295 55.4901 16.3295 55.6021 15.8815C55.6341 15.6895 55.7141 15.3615 55.8421 14.8975C55.9861 14.4335 56.1541 13.9295 56.3461 13.3855C56.5381 12.8415 56.7381 12.3295 56.9461 11.8495C57.1541 11.3535 57.3381 10.9855 57.4981 10.7455C57.6741 10.5855 57.9301 10.5055 58.2661 10.5055C58.6181 10.5055 58.8581 10.5695 58.9861 10.6975C59.1621 10.8415 59.2181 11.0975 59.1541 11.4655C59.0901 11.8175 58.8661 12.3695 58.4821 13.1215C58.4021 13.3135 58.2981 13.5215 58.1701 13.7455C58.0581 13.9535 57.9781 14.1295 57.9301 14.2735C57.8821 14.4015 57.8981 14.4575 57.9781 14.4415C58.0741 14.2655 58.2501 14.0655 58.5061 13.8415C58.7621 13.6015 59.0341 13.3695 59.3221 13.1455C59.6101 12.9215 59.8821 12.7215 60.1381 12.5455C60.3941 12.3695 60.5701 12.2575 60.6661 12.2095C60.7941 12.1295 60.9381 12.0655 61.0981 12.0175C61.2741 11.9535 61.3941 11.9055 61.4581 11.8735C61.8261 11.6975 62.2261 11.6335 62.6581 11.6815C63.1061 11.7135 63.3781 11.8495 63.4741 12.0895C63.4901 12.2175 63.5381 12.3135 63.6181 12.3775C63.7141 12.4415 63.7621 12.4735 63.7621 12.4735C63.8261 12.4735 63.8581 12.4975 63.8581 12.5455C63.8741 12.5935 63.8821 12.6175 63.8821 12.6175C63.8821 12.7295 63.7701 12.8895 63.5461 13.0975C63.3381 13.3055 63.1061 13.4175 62.8501 13.4335C62.6421 13.4495 62.4581 13.4895 62.2981 13.5535C62.1381 13.6175 61.9461 13.6975 61.7221 13.7935C61.1141 14.1455 60.5621 14.4575 60.0661 14.7295C59.5861 15.0015 59.0901 15.4175 58.5781 15.9775C58.4661 16.1055 58.3461 16.2255 58.2181 16.3375C58.0901 16.4495 57.9621 16.6095 57.8341 16.8175C57.7541 16.8975 57.6741 17.0735 57.5941 17.3455C57.5141 17.6175 57.4421 17.8815 57.3781 18.1375C57.3301 18.3775 57.3061 18.5215 57.3061 18.5695C57.3061 18.5695 57.2821 18.6495 57.2341 18.8095C57.1861 18.9535 57.1061 19.0975 56.9941 19.2415C56.8021 19.4975 56.6101 19.6575 56.4181 19.7215C56.2421 19.7855 56.0261 19.6895 55.7701 19.4335ZM66.3865 20.5135C65.5065 20.5135 64.8265 20.2575 64.3465 19.7455C63.8825 19.2335 63.6505 18.4495 63.6505 17.3935C63.6505 16.8175 63.7545 16.1855 63.9625 15.4975C64.1865 14.8095 64.4745 14.1375 64.8265 13.4815C65.1945 12.8255 65.5945 12.2575 66.0265 11.7775C66.4585 11.2815 66.8905 10.9375 67.3225 10.7455C67.4825 10.6655 67.6505 10.6095 67.8265 10.5775C68.0185 10.5295 68.2025 10.5055 68.3785 10.5055C68.5705 10.5055 68.7785 10.5215 69.0025 10.5535C69.2425 10.5695 69.4665 10.6175 69.6745 10.6975C70.0425 10.8095 70.3625 11.0255 70.6345 11.3455C70.9225 11.6655 71.0665 12.1295 71.0665 12.7375C71.0665 12.8975 71.0505 13.0735 71.0185 13.2655C70.9865 13.4415 70.9305 13.6175 70.8505 13.7935C70.6425 14.3215 70.3225 14.8255 69.8905 15.3055C69.4745 15.7855 69.0345 16.1215 68.5705 16.3135C68.4425 16.3775 68.3145 16.4255 68.1865 16.4575C68.0745 16.4735 67.9545 16.4815 67.8265 16.4815C67.4905 16.4815 67.1865 16.4335 66.9145 16.3375C66.6585 16.2415 66.4185 16.1135 66.1945 15.9535L66.0025 15.7855L65.8825 16.0255C65.7705 16.3295 65.6905 16.5855 65.6425 16.7935C65.6105 17.0015 65.5945 17.1535 65.5945 17.2495C65.5945 17.4415 65.6025 17.6415 65.6185 17.8495C65.6345 18.0415 65.6825 18.2015 65.7625 18.3295C65.8265 18.4095 65.9065 18.4735 66.0025 18.5215C66.1145 18.5695 66.2505 18.5935 66.4105 18.5935C66.5065 18.5935 66.5945 18.5935 66.6745 18.5935C66.7705 18.5775 66.8505 18.5615 66.9145 18.5455C67.2025 18.4815 67.4345 18.3775 67.6105 18.2335C67.8025 18.0735 68.0025 17.9375 68.2105 17.8255L68.3065 17.7775L68.2825 17.7055C68.5545 17.5615 68.7385 17.4735 68.8345 17.4415C68.9305 17.3935 69.0025 17.3535 69.0505 17.3215C69.1145 17.2575 69.1865 17.2255 69.2665 17.2255C69.4905 17.1935 69.7065 17.2575 69.9145 17.4175C70.1385 17.5615 70.2505 17.7455 70.2505 17.9695C70.2505 18.0655 70.1785 18.2175 70.0345 18.4255C69.9065 18.6335 69.7385 18.8415 69.5305 19.0495C69.3385 19.2415 69.1385 19.3935 68.9305 19.5055C68.8825 19.5215 68.8345 19.5455 68.7865 19.5775C68.7385 19.5935 68.6905 19.6175 68.6425 19.6495H68.6665C68.5225 19.8415 68.3785 19.9375 68.2345 19.9375H68.0425C67.9785 20.0495 67.7705 20.1695 67.4185 20.2975C67.0665 20.4415 66.7225 20.5135 66.3865 20.5135ZM67.6345 14.7295C67.7785 14.7295 67.9065 14.7055 68.0185 14.6575C68.1465 14.6095 68.2665 14.5535 68.3785 14.4895C68.7625 14.2175 69.0105 13.8655 69.1225 13.4335C69.2345 13.0015 69.1945 12.6735 69.0025 12.4495C68.9705 12.4015 68.9305 12.3695 68.8825 12.3535C68.8345 12.3215 68.7785 12.3055 68.7145 12.3055C68.5385 12.3055 68.3385 12.3615 68.1145 12.4735C67.9065 12.5855 67.6985 12.7455 67.4905 12.9535C67.2825 13.1615 67.0905 13.4095 66.9145 13.6975L66.6025 14.2015C66.6345 14.1855 66.6585 14.1775 66.6745 14.1775C66.7065 14.1615 66.7305 14.1535 66.7465 14.1535C66.8905 14.1535 66.9865 14.2015 67.0345 14.2975C67.0825 14.3935 67.1385 14.4895 67.2025 14.5855C67.2825 14.6815 67.4265 14.7295 67.6345 14.7295ZM72.6501 19.1935C72.6021 19.1295 72.4981 19.0495 72.3381 18.9535C72.1781 18.8575 72.0981 18.7775 72.0981 18.7135C72.0981 18.6815 72.0901 18.6415 72.0741 18.5935C72.0741 18.5455 72.0421 18.5215 71.9781 18.5215C71.9301 18.4735 71.9541 18.2975 72.0501 17.9935C72.1621 17.6895 72.3061 17.3295 72.4821 16.9135C72.6741 16.4975 72.8741 16.0975 73.0821 15.7135C73.2901 15.3135 73.4661 14.9935 73.6101 14.7535C73.6901 14.7055 73.7381 14.6415 73.7541 14.5615C73.7861 14.4655 73.7861 14.4175 73.7541 14.4175C73.7541 14.4175 73.7941 14.3455 73.8741 14.2015C73.9701 14.0415 74.0421 13.9375 74.0901 13.8895C74.2181 13.6655 74.3141 13.4415 74.3781 13.2175C74.4421 12.9775 74.4581 12.7775 74.4261 12.6175C74.3621 12.5375 74.2901 12.5135 74.2101 12.5455C74.1301 12.5775 74.0901 12.5935 74.0901 12.5935C74.0261 12.6095 73.9301 12.6415 73.8021 12.6895C73.6901 12.7215 73.5861 12.7695 73.4901 12.8335C73.1221 13.0895 72.8501 13.2175 72.6741 13.2175C72.5141 13.2175 72.3541 13.0255 72.1941 12.6415C72.1301 12.4655 72.1061 12.2975 72.1221 12.1375C72.1381 11.9775 72.2021 11.8495 72.3141 11.7535C72.4421 11.6415 72.6021 11.5295 72.7941 11.4175C72.9861 11.2895 73.1141 11.2015 73.1781 11.1535C73.3541 11.0415 73.6021 10.9215 73.9221 10.7935C74.2421 10.6655 74.4341 10.5935 74.4981 10.5775C74.9141 10.4495 75.2661 10.4495 75.5541 10.5775C75.8421 10.6895 76.0581 10.9135 76.2021 11.2495C76.4261 11.5215 76.5381 11.8095 76.5381 12.1135C76.5381 12.4175 76.4261 12.7935 76.2021 13.2415L75.9621 13.6015C75.8821 13.7615 75.8661 13.8415 75.9141 13.8415C75.9781 13.8415 76.0501 13.7855 76.1301 13.6735C76.1781 13.6095 76.2741 13.5135 76.4181 13.3855C76.5621 13.2575 76.6581 13.1935 76.7061 13.1935C76.7061 13.1935 76.7221 13.1855 76.7541 13.1695C76.8021 13.1535 76.8261 13.0895 76.8261 12.9775C76.8741 12.9295 76.9221 12.8815 76.9701 12.8335C77.0341 12.7855 77.0661 12.7615 77.0661 12.7615C77.1301 12.7615 77.2101 12.7295 77.3061 12.6655C77.4181 12.5855 77.6021 12.4415 77.8581 12.2335C78.0341 12.1055 78.1941 12.0415 78.3381 12.0415C78.7061 11.9295 79.0021 12.0495 79.2261 12.4015C79.4661 12.7535 79.5861 13.2095 79.5861 13.7695L79.0821 15.0655L79.9461 14.0095C80.0421 13.8815 80.1381 13.7695 80.2341 13.6735C80.3461 13.5775 80.4421 13.4975 80.5221 13.4335C80.5541 13.3215 80.6021 13.2575 80.6661 13.2415C80.7301 13.2255 80.7621 13.2175 80.7621 13.2175C80.7621 13.2175 80.7781 13.2175 80.8101 13.2175C80.8421 13.2015 80.8581 13.1695 80.8581 13.1215C80.9381 13.0575 81.0261 13.0015 81.1221 12.9535C81.2181 12.8895 81.2821 12.8255 81.3141 12.7615C81.5861 12.6495 81.9141 12.6335 82.2981 12.7135C82.6821 12.7775 82.9541 12.9775 83.1141 13.3135C83.2261 13.5055 83.3301 13.6735 83.4261 13.8175C83.5221 13.9615 83.5701 14.1775 83.5701 14.4655C83.5381 14.7055 83.5061 14.8735 83.4741 14.9695C83.4581 15.0655 83.4421 15.1695 83.4261 15.2815C83.4101 15.3775 83.3861 15.5535 83.3541 15.8095C83.2901 15.9375 83.2501 16.0735 83.2341 16.2175C83.2341 16.3615 83.2341 16.4975 83.2341 16.6255C83.2341 16.8335 83.2421 16.9775 83.2581 17.0575C83.2741 17.1215 83.3381 17.1535 83.4501 17.1535C83.6741 17.1055 83.8581 17.0335 84.0021 16.9375C84.1621 16.8255 84.3381 16.6815 84.5301 16.5055C84.7701 16.2815 84.9781 16.2495 85.1541 16.4095C85.3461 16.5535 85.4661 16.7215 85.5141 16.9135C85.5461 16.9775 85.5141 17.1215 85.4181 17.3455C85.3221 17.5695 85.2101 17.7855 85.0821 17.9935C84.9541 18.2015 84.8501 18.3055 84.7701 18.3055C84.7221 18.3055 84.6261 18.3695 84.4821 18.4975C84.3381 18.6255 84.2261 18.7135 84.1461 18.7615C84.0341 18.8735 83.9221 18.9775 83.8101 19.0735C83.7141 19.1695 83.6021 19.2175 83.4741 19.2175C83.4101 19.2175 83.3301 19.2415 83.2341 19.2895C83.1541 19.3215 83.0581 19.3375 82.9461 19.3375C82.7861 19.3855 82.5381 19.3615 82.2021 19.2655C81.8821 19.1695 81.6741 18.9455 81.5781 18.5935C81.5141 18.4175 81.4181 18.1935 81.2901 17.9215C81.1781 17.6495 81.1541 17.3135 81.2181 16.9135C81.2821 16.6255 81.3221 16.3615 81.3381 16.1215C81.3541 15.8815 81.3861 15.7135 81.4341 15.6175C81.4341 15.5695 81.4341 15.4575 81.4341 15.2815C81.4341 15.0895 81.4101 14.9935 81.3621 14.9935C81.2981 14.9935 81.1781 15.0735 81.0021 15.2335C80.8261 15.3935 80.6181 15.6095 80.3781 15.8815C80.1381 16.1375 79.8901 16.4175 79.6341 16.7215C79.3941 17.0255 79.1781 17.3295 78.9861 17.6335C78.8421 17.8095 78.7141 18.0255 78.6021 18.2815C78.4901 18.5375 78.4101 18.6815 78.3621 18.7135C78.2501 18.8415 78.0581 18.8575 77.7861 18.7615C77.5301 18.6655 77.3381 18.5135 77.2101 18.3055C77.1621 18.2095 77.1061 18.1535 77.0421 18.1375C76.9781 18.1055 76.9221 18.0575 76.8741 17.9935C76.8421 17.9135 76.8421 17.7615 76.8741 17.5375C76.9221 17.3135 77.0261 16.9535 77.1861 16.4575C77.3621 15.9135 77.5141 15.4255 77.6421 14.9935C77.7861 14.5455 77.8581 14.3215 77.8581 14.3215C77.8581 14.2575 77.7381 14.3215 77.4981 14.5135C77.2581 14.6895 76.9781 14.9135 76.6581 15.1855C76.5141 15.3615 76.3221 15.5855 76.0821 15.8575C75.8581 16.1295 75.5941 16.4495 75.2901 16.8175C75.0021 17.1855 74.6741 17.6175 74.3061 18.1135C73.8421 18.7695 73.4901 19.1695 73.2501 19.3135C73.0261 19.4575 72.8261 19.4175 72.6501 19.1935ZM94.4299 21.0655C94.3179 20.8895 94.1259 20.7775 93.8539 20.7295C93.5819 20.6815 93.1659 20.6735 92.6059 20.7055C92.3819 20.7375 92.1499 20.7215 91.9099 20.6575C91.6699 20.5935 91.4779 20.4975 91.3339 20.3695C91.1899 20.2415 91.1339 20.1135 91.1659 19.9855C91.1819 19.7935 91.4059 19.5855 91.8379 19.3615C92.2699 19.1375 92.8299 19.0175 93.5179 19.0015L94.5259 18.9775L94.7659 18.4975C94.8299 18.3215 94.8779 18.1295 94.9099 17.9215C94.9579 17.7135 95.0379 17.4255 95.1499 17.0575C95.2139 16.8335 95.3099 16.5215 95.4379 16.1215C95.5659 15.7215 95.7019 15.2975 95.8459 14.8495C95.9899 14.3855 96.1179 13.9695 96.2299 13.6015C96.3419 13.2335 96.4139 12.9775 96.4459 12.8335C96.5099 12.6895 96.5979 12.4495 96.7099 12.1135C96.8219 11.7615 96.9259 11.4095 97.0219 11.0575C97.1339 10.6895 97.2059 10.4255 97.2379 10.2655C97.6539 9.00154 97.9259 8.12154 98.0539 7.62554C98.1819 7.11354 98.2139 6.84954 98.1499 6.83354C98.0859 6.83354 97.9339 6.84154 97.6939 6.85754C97.4539 6.87354 97.1899 6.89754 96.9019 6.92954C96.6139 6.94554 96.3579 6.96954 96.1339 7.00154C95.9099 7.03354 95.7739 7.06554 95.7259 7.09754C95.6459 7.20954 95.5099 7.19354 95.3179 7.04954C95.1259 6.88954 95.0059 6.72954 94.9579 6.56954C94.9419 6.42554 94.9419 6.28954 94.9579 6.16154C94.9739 6.03354 95.0219 5.94554 95.1019 5.89754C95.2139 5.80154 95.4459 5.69754 95.7979 5.58554C96.1499 5.45754 96.5419 5.34554 96.9739 5.24954C97.4219 5.15354 97.8299 5.08154 98.1979 5.03354C98.4699 5.00154 98.7419 4.94554 99.0139 4.86554C99.2859 4.76954 99.5019 4.65754 99.6619 4.52954C99.8059 4.48154 99.9419 4.44154 100.07 4.40954C100.214 4.37754 100.358 4.36954 100.502 4.38554C100.63 4.46554 100.846 4.50554 101.15 4.50554C101.47 4.50554 101.806 4.49754 102.158 4.48154C103.054 4.40154 103.678 4.43354 104.03 4.57754C104.398 4.70554 104.638 4.88154 104.75 5.10554C104.83 5.40954 104.814 5.66554 104.702 5.87354C104.59 6.06554 104.398 6.15354 104.126 6.13754C103.982 6.16954 103.782 6.20154 103.526 6.23354C103.27 6.24954 102.934 6.26554 102.518 6.28154C101.462 6.37754 100.894 6.48954 100.814 6.61754C100.75 6.68154 100.694 6.74554 100.646 6.80954C100.614 6.87354 100.566 6.94554 100.502 7.02554C100.518 7.08954 100.478 7.28154 100.382 7.60154C100.302 7.90554 100.198 8.23354 100.07 8.58554C100.006 8.79354 99.9099 9.08954 99.7819 9.47354C99.6539 9.85754 99.5179 10.2575 99.3739 10.6735C99.2459 11.0735 99.1259 11.4415 99.0139 11.7775C98.9019 12.0975 98.8219 12.3135 98.7739 12.4255C98.7099 12.5695 98.6539 12.7295 98.6059 12.9055C98.5739 13.0655 98.5499 13.1855 98.5339 13.2655C98.3099 14.0495 98.1179 14.7055 97.9579 15.2335C97.8139 15.7615 97.6859 16.2255 97.5739 16.6255C97.4619 17.0095 97.3579 17.3855 97.2619 17.7535C97.1659 18.1055 97.0539 18.5055 96.9259 18.9535C96.9259 18.9535 97.0619 18.9455 97.3339 18.9295C97.6059 18.8975 97.9499 18.8655 98.3659 18.8335C99.1179 18.7535 99.6299 18.7055 99.9019 18.6895C100.174 18.6735 100.334 18.6975 100.382 18.7615C100.43 18.8095 100.478 18.9055 100.526 19.0495C100.846 19.4815 100.822 19.8415 100.454 20.1295C100.102 20.4175 99.4779 20.5535 98.5819 20.5375C97.7499 20.5695 97.1339 20.5935 96.7339 20.6095C96.3499 20.6415 96.1019 20.6815 95.9899 20.7295C95.8779 20.7775 95.8219 20.8575 95.8219 20.9695C95.8379 21.2255 95.6779 21.3775 95.3419 21.4255C95.0219 21.4895 94.7179 21.3695 94.4299 21.0655ZM101.274 25.9135C101.162 25.8655 100.986 25.7455 100.746 25.5535C100.522 25.3615 100.314 25.1535 100.122 24.9295C99.9463 24.7215 99.8582 24.5695 99.8582 24.4735C99.8582 24.3775 99.8982 24.1215 99.9783 23.7055C100.058 23.3055 100.162 22.8095 100.29 22.2175C100.434 21.6415 100.586 21.0495 100.746 20.4415C100.922 19.8495 101.098 19.3215 101.274 18.8575C101.306 18.7775 101.41 18.5135 101.586 18.0655C101.778 17.6015 101.962 17.0415 102.138 16.3855C102.266 15.9695 102.434 15.4975 102.642 14.9695C102.85 14.4415 103.066 13.9135 103.29 13.3855C103.514 12.8415 103.698 12.3615 103.842 11.9455C103.986 11.5295 104.146 11.1135 104.322 10.6975C104.498 10.2655 104.594 10.0175 104.61 9.95354C104.642 9.85754 104.73 9.77754 104.874 9.71354C105.034 9.63354 105.194 9.56954 105.354 9.52154C105.514 9.45754 105.618 9.41754 105.666 9.40154C105.954 9.32154 106.202 9.44154 106.41 9.76154C106.49 9.90554 106.506 10.1055 106.458 10.3615C106.426 10.6015 106.346 10.8655 106.218 11.1535L106.05 11.6335L106.914 11.4415C107.058 11.4415 107.258 11.4495 107.514 11.4655C107.77 11.4815 108.018 11.4975 108.258 11.5135C108.514 11.5295 108.69 11.5535 108.786 11.5855C109.17 11.6015 109.434 11.6735 109.578 11.8015C109.738 11.9295 109.874 12.0975 109.986 12.3055C110.066 12.3855 110.162 12.4975 110.274 12.6415C110.386 12.7695 110.45 12.8975 110.466 13.0255C110.53 13.2975 110.506 13.6175 110.394 13.9855C110.298 14.3535 110.146 14.7295 109.938 15.1135C109.746 15.4815 109.514 15.8255 109.242 16.1455C108.986 16.4495 108.738 16.6815 108.498 16.8415C108.338 16.9055 108.194 16.9775 108.066 17.0575C107.938 17.1215 107.874 17.1535 107.874 17.1535C107.858 17.2335 107.69 17.3695 107.37 17.5615C107.066 17.7535 106.706 17.9375 106.29 18.1135C105.89 18.2735 105.53 18.3775 105.21 18.4255C105.098 18.4415 104.938 18.4575 104.73 18.4735C104.522 18.4895 104.362 18.4655 104.25 18.4015C104.074 18.3695 103.954 18.3535 103.89 18.3535C103.826 18.3535 103.794 18.3855 103.794 18.4495C103.778 18.4815 103.666 18.7375 103.458 19.2175C103.25 19.6975 103.034 20.3615 102.81 21.2095C102.506 22.1375 102.258 22.8975 102.066 23.4895C101.874 24.0975 101.722 24.5695 101.61 24.9055C101.514 25.2415 101.442 25.4815 101.394 25.6255C101.346 25.7855 101.306 25.8815 101.274 25.9135ZM104.37 16.3375C104.418 16.4335 104.586 16.4655 104.874 16.4335C105.162 16.3855 105.49 16.2895 105.858 16.1455C106.226 16.0015 106.554 15.8335 106.842 15.6415C107.146 15.4335 107.322 15.2175 107.37 14.9935C107.722 14.5935 107.97 14.3055 108.114 14.1295C108.258 13.9375 108.25 13.7855 108.09 13.6735C107.914 13.4175 107.658 13.2975 107.322 13.3135C107.002 13.3295 106.49 13.5295 105.786 13.9135C105.514 14.0095 105.33 14.0975 105.234 14.1775C105.138 14.2415 105.058 14.3455 104.994 14.4895C104.946 14.6335 104.85 14.8655 104.706 15.1855C104.562 15.5375 104.466 15.8015 104.418 15.9775C104.37 16.1535 104.354 16.2735 104.37 16.3375ZM112.649 20.2255C112.105 20.0015 111.705 19.7695 111.449 19.5295C111.209 19.2735 111.113 19.0495 111.161 18.8575C111.193 18.7615 111.249 18.6735 111.329 18.5935C111.409 18.5135 111.585 18.4815 111.857 18.4975C112.145 18.4975 112.585 18.5695 113.177 18.7135C113.353 18.7135 113.529 18.7055 113.705 18.6895C113.881 18.6735 114.041 18.6495 114.185 18.6175C114.345 18.5855 114.473 18.5455 114.569 18.4975C114.649 18.4655 114.673 18.4255 114.641 18.3775C114.609 18.3135 114.553 18.2495 114.473 18.1855C114.409 18.1055 114.337 18.0575 114.257 18.0415C114.177 18.0095 114.105 17.9935 114.041 17.9935C114.009 17.9135 113.937 17.8335 113.825 17.7535C113.729 17.6735 113.609 17.5855 113.465 17.4895C113.113 17.2015 112.793 16.9455 112.505 16.7215C112.217 16.4975 112.105 16.3295 112.169 16.2175C112.169 16.1535 112.169 16.1215 112.169 16.1215C112.169 16.1055 112.169 16.0975 112.169 16.0975C112.057 16.0975 111.953 15.9455 111.857 15.6415C111.761 15.3215 111.713 15.0335 111.713 14.7775C111.713 14.4575 111.777 14.1375 111.905 13.8175C112.049 13.4975 112.225 13.1935 112.433 12.9055C112.657 12.6175 112.881 12.3615 113.105 12.1375C113.409 11.8495 113.729 11.5695 114.065 11.2975C114.417 11.0095 114.793 10.7535 115.193 10.5295C115.609 10.3055 116.065 10.1295 116.561 10.0015C116.785 9.95354 117.041 9.92954 117.329 9.92954C117.617 9.92954 117.825 9.96954 117.953 10.0495C118.081 9.96954 118.241 9.99354 118.433 10.1215C118.625 10.2335 118.817 10.3935 119.009 10.6015C119.201 10.8095 119.345 11.0175 119.441 11.2255C119.441 11.4175 119.433 11.6575 119.417 11.9455C119.417 12.2175 119.401 12.4575 119.369 12.6655C119.337 12.8735 119.265 12.9775 119.153 12.9775C119.153 12.9775 119.129 12.9855 119.081 13.0015C119.049 13.0015 119.033 13.0415 119.033 13.1215C119.033 13.2815 118.913 13.4655 118.673 13.6735C118.369 13.8815 118.081 14.0495 117.809 14.1775C117.537 14.3055 117.329 14.3135 117.185 14.2015C117.089 14.1375 117.001 14.0735 116.921 14.0095C116.841 13.9455 116.769 13.8655 116.705 13.7695C116.705 13.7695 116.681 13.7375 116.633 13.6735C116.601 13.5935 116.585 13.5215 116.585 13.4575C116.585 13.3935 116.609 13.3375 116.657 13.2895C116.705 13.2255 116.729 13.1935 116.729 13.1935C116.953 12.9855 117.121 12.7935 117.233 12.6175C117.361 12.4415 117.449 12.2895 117.497 12.1615C117.545 12.0175 117.569 11.9055 117.569 11.8255C117.569 11.7295 117.545 11.6735 117.497 11.6575C117.465 11.6255 117.385 11.6095 117.257 11.6095C117.177 11.6095 117.001 11.6735 116.729 11.8015C116.473 11.9295 116.201 12.0895 115.913 12.2815C115.625 12.4575 115.401 12.6175 115.241 12.7615C115.177 12.8735 115.129 12.9455 115.097 12.9775C115.081 13.0095 115.041 13.0255 114.977 13.0255C114.977 12.9615 114.937 12.9695 114.857 13.0495C114.777 13.1295 114.681 13.2415 114.569 13.3855C114.457 13.5295 114.345 13.6815 114.233 13.8415C114.121 14.0015 114.033 14.1295 113.969 14.2255C113.953 14.3695 113.913 14.5055 113.849 14.6335C113.801 14.7455 113.785 14.8655 113.801 14.9935C113.817 15.1535 113.897 15.3055 114.041 15.4495C114.185 15.5935 114.393 15.7775 114.665 16.0015C115.225 16.4175 115.641 16.7455 115.913 16.9855C116.201 17.2255 116.401 17.4175 116.513 17.5615C116.625 17.7055 116.697 17.8495 116.729 17.9935C117.001 18.4895 117.033 18.9215 116.825 19.2895C116.617 19.6415 116.297 19.9135 115.865 20.1055C115.705 20.1855 115.425 20.2575 115.025 20.3215C114.625 20.4015 114.201 20.4335 113.753 20.4175C113.321 20.4175 112.953 20.3535 112.649 20.2255ZM121.447 19.2415C121.143 18.9695 120.879 18.6895 120.655 18.4015C120.431 18.0975 120.279 17.6335 120.199 17.0095C120.167 16.7215 120.199 16.3215 120.295 15.8095C120.391 15.2975 120.535 14.7615 120.727 14.2015C120.919 13.6255 121.127 13.0975 121.351 12.6175C121.575 12.1375 121.799 11.7855 122.023 11.5615C122.215 11.3215 122.455 11.1295 122.743 10.9855C123.047 10.8415 123.359 10.8415 123.679 10.9855C123.855 11.1935 123.943 11.4815 123.943 11.8495C123.959 12.2015 123.871 12.5295 123.679 12.8335C123.359 13.2655 123.079 13.8095 122.839 14.4655C122.615 15.1055 122.463 15.6815 122.383 16.1935C122.271 16.5615 122.223 16.8495 122.239 17.0575C122.255 17.2495 122.367 17.3695 122.575 17.4175C122.879 17.4975 123.191 17.4095 123.511 17.1535C123.847 16.8975 124.167 16.5215 124.471 16.0255C124.791 15.5295 125.071 14.9615 125.311 14.3215C125.407 14.0975 125.479 13.8335 125.527 13.5295C125.591 13.2255 125.655 13.0015 125.719 12.8575C125.799 12.5375 125.935 12.2895 126.127 12.1135C126.335 11.9215 126.551 11.8015 126.775 11.7535C126.999 11.7055 127.167 11.7295 127.279 11.8255C127.423 11.8895 127.575 11.9935 127.735 12.1375C127.895 12.2815 127.959 12.5375 127.927 12.9055C127.927 13.4975 127.799 14.0015 127.543 14.4175C127.287 14.8335 127.071 15.2735 126.895 15.7375C126.751 16.0735 126.519 16.4655 126.199 16.9135C125.879 17.3615 125.535 17.7695 125.167 18.1375C124.815 18.5055 124.487 18.7535 124.183 18.8815C123.735 19.1695 123.279 19.3455 122.815 19.4095C122.351 19.4575 121.895 19.4015 121.447 19.2415ZM129.322 19.1935C129.274 19.1295 129.17 19.0495 129.01 18.9535C128.85 18.8575 128.77 18.7775 128.77 18.7135C128.77 18.6815 128.762 18.6415 128.746 18.5935C128.746 18.5455 128.714 18.5215 128.65 18.5215C128.602 18.4735 128.626 18.2975 128.722 17.9935C128.834 17.6895 128.978 17.3295 129.154 16.9135C129.346 16.4975 129.546 16.0975 129.754 15.7135C129.962 15.3135 130.138 14.9935 130.282 14.7535C130.362 14.7055 130.41 14.6415 130.426 14.5615C130.458 14.4655 130.458 14.4175 130.426 14.4175C130.426 14.4175 130.466 14.3455 130.546 14.2015C130.642 14.0415 130.714 13.9375 130.762 13.8895C130.89 13.6655 130.986 13.4415 131.05 13.2175C131.114 12.9775 131.13 12.7775 131.098 12.6175C131.034 12.5375 130.962 12.5135 130.882 12.5455C130.802 12.5775 130.762 12.5935 130.762 12.5935C130.698 12.6095 130.602 12.6415 130.474 12.6895C130.362 12.7215 130.258 12.7695 130.162 12.8335C129.794 13.0895 129.522 13.2175 129.346 13.2175C129.186 13.2175 129.026 13.0255 128.866 12.6415C128.802 12.4655 128.778 12.2975 128.794 12.1375C128.81 11.9775 128.874 11.8495 128.986 11.7535C129.114 11.6415 129.274 11.5295 129.466 11.4175C129.658 11.2895 129.786 11.2015 129.85 11.1535C130.026 11.0415 130.274 10.9215 130.594 10.7935C130.914 10.6655 131.106 10.5935 131.17 10.5775C131.586 10.4495 131.938 10.4495 132.226 10.5775C132.514 10.6895 132.73 10.9135 132.874 11.2495C133.098 11.5215 133.21 11.8095 133.21 12.1135C133.21 12.4175 133.098 12.7935 132.874 13.2415L132.634 13.6015C132.554 13.7615 132.538 13.8415 132.586 13.8415C132.65 13.8415 132.722 13.7855 132.802 13.6735C132.85 13.6095 132.946 13.5135 133.09 13.3855C133.234 13.2575 133.33 13.1935 133.378 13.1935C133.378 13.1935 133.394 13.1855 133.426 13.1695C133.474 13.1535 133.498 13.0895 133.498 12.9775C133.546 12.9295 133.594 12.8815 133.642 12.8335C133.706 12.7855 133.738 12.7615 133.738 12.7615C133.802 12.7615 133.882 12.7295 133.978 12.6655C134.09 12.5855 134.274 12.4415 134.53 12.2335C134.706 12.1055 134.866 12.0415 135.01 12.0415C135.378 11.9295 135.674 12.0495 135.898 12.4015C136.138 12.7535 136.258 13.2095 136.258 13.7695L135.754 15.0655L136.618 14.0095C136.714 13.8815 136.81 13.7695 136.906 13.6735C137.018 13.5775 137.114 13.4975 137.194 13.4335C137.226 13.3215 137.274 13.2575 137.338 13.2415C137.402 13.2255 137.434 13.2175 137.434 13.2175C137.434 13.2175 137.45 13.2175 137.482 13.2175C137.514 13.2015 137.53 13.1695 137.53 13.1215C137.61 13.0575 137.698 13.0015 137.794 12.9535C137.89 12.8895 137.954 12.8255 137.986 12.7615C138.258 12.6495 138.586 12.6335 138.97 12.7135C139.354 12.7775 139.626 12.9775 139.786 13.3135C139.898 13.5055 140.002 13.6735 140.098 13.8175C140.194 13.9615 140.242 14.1775 140.242 14.4655C140.21 14.7055 140.178 14.8735 140.146 14.9695C140.13 15.0655 140.114 15.1695 140.098 15.2815C140.082 15.3775 140.058 15.5535 140.026 15.8095C139.962 15.9375 139.922 16.0735 139.906 16.2175C139.906 16.3615 139.906 16.4975 139.906 16.6255C139.906 16.8335 139.914 16.9775 139.93 17.0575C139.946 17.1215 140.01 17.1535 140.122 17.1535C140.346 17.1055 140.53 17.0335 140.674 16.9375C140.834 16.8255 141.01 16.6815 141.202 16.5055C141.442 16.2815 141.65 16.2495 141.826 16.4095C142.018 16.5535 142.138 16.7215 142.186 16.9135C142.218 16.9775 142.186 17.1215 142.09 17.3455C141.994 17.5695 141.882 17.7855 141.754 17.9935C141.626 18.2015 141.522 18.3055 141.442 18.3055C141.394 18.3055 141.298 18.3695 141.154 18.4975C141.01 18.6255 140.898 18.7135 140.818 18.7615C140.706 18.8735 140.594 18.9775 140.482 19.0735C140.386 19.1695 140.274 19.2175 140.146 19.2175C140.082 19.2175 140.002 19.2415 139.906 19.2895C139.826 19.3215 139.73 19.3375 139.618 19.3375C139.458 19.3855 139.21 19.3615 138.874 19.2655C138.554 19.1695 138.346 18.9455 138.25 18.5935C138.186 18.4175 138.09 18.1935 137.962 17.9215C137.85 17.6495 137.826 17.3135 137.89 16.9135C137.954 16.6255 137.994 16.3615 138.01 16.1215C138.026 15.8815 138.058 15.7135 138.106 15.6175C138.106 15.5695 138.106 15.4575 138.106 15.2815C138.106 15.0895 138.082 14.9935 138.034 14.9935C137.97 14.9935 137.85 15.0735 137.674 15.2335C137.498 15.3935 137.29 15.6095 137.05 15.8815C136.81 16.1375 136.562 16.4175 136.306 16.7215C136.066 17.0255 135.85 17.3295 135.658 17.6335C135.514 17.8095 135.386 18.0255 135.274 18.2815C135.162 18.5375 135.082 18.6815 135.034 18.7135C134.922 18.8415 134.73 18.8575 134.458 18.7615C134.202 18.6655 134.01 18.5135 133.882 18.3055C133.834 18.2095 133.778 18.1535 133.714 18.1375C133.65 18.1055 133.594 18.0575 133.546 17.9935C133.514 17.9135 133.514 17.7615 133.546 17.5375C133.594 17.3135 133.698 16.9535 133.858 16.4575C134.034 15.9135 134.186 15.4255 134.314 14.9935C134.458 14.5455 134.53 14.3215 134.53 14.3215C134.53 14.2575 134.41 14.3215 134.17 14.5135C133.93 14.6895 133.65 14.9135 133.33 15.1855C133.186 15.3615 132.994 15.5855 132.754 15.8575C132.53 16.1295 132.266 16.4495 131.962 16.8175C131.674 17.1855 131.346 17.6175 130.978 18.1135C130.514 18.7695 130.162 19.1695 129.922 19.3135C129.698 19.4575 129.498 19.4175 129.322 19.1935ZM36.472 43.6735C36.344 43.5455 36.248 43.3535 36.184 43.0975C36.136 42.8415 36.12 42.5935 36.136 42.3535C36.152 42.0975 36.192 41.9055 36.256 41.7775C36.256 41.6495 36.272 41.5535 36.304 41.4895C36.352 41.4095 36.368 41.3375 36.352 41.2735C36.336 41.2095 36.352 41.0975 36.4 40.9375C36.448 40.7775 36.496 40.6255 36.544 40.4815C36.656 40.2255 36.784 39.8975 36.928 39.4975C37.072 39.0815 37.216 38.6655 37.36 38.2495C37.504 37.8175 37.624 37.4495 37.72 37.1455C37.816 36.8255 37.872 36.6335 37.888 36.5695C37.888 36.3775 38.016 36.2735 38.272 36.2575C38.464 36.1935 38.696 36.2735 38.968 36.4975C39.24 36.7215 39.456 36.9615 39.616 37.2175C39.744 37.3455 39.792 37.5135 39.76 37.7215C39.728 37.9295 39.624 38.2255 39.448 38.6095C39.384 38.7375 39.304 38.9535 39.208 39.2575C39.128 39.5455 39.072 39.7855 39.04 39.9775C38.976 40.1055 38.896 40.2895 38.8 40.5295C38.72 40.7535 38.648 40.9695 38.584 41.1775C38.552 41.2575 38.52 41.4095 38.488 41.6335C38.456 41.8415 38.416 42.0575 38.368 42.2815C38.32 42.5055 38.256 42.6815 38.176 42.8095C38.032 43.4655 37.776 43.8495 37.408 43.9615C37.056 44.0735 36.744 43.9775 36.472 43.6735ZM39.064 34.0495C38.888 33.9215 38.752 33.7695 38.656 33.5935C38.576 33.4015 38.528 33.2335 38.512 33.0895C38.512 32.9455 38.528 32.8575 38.56 32.8255C38.72 32.6495 38.856 32.4175 38.968 32.1295C39.096 31.8415 39.232 31.5775 39.376 31.3375C39.408 31.2895 39.448 31.2255 39.496 31.1455C39.56 31.0495 39.624 30.9935 39.688 30.9775C39.88 30.8495 40.144 30.8575 40.48 31.0015C40.832 31.1455 41.088 31.3455 41.248 31.6015C41.392 31.9055 41.432 32.2175 41.368 32.5375C41.32 32.8575 41.152 33.1935 40.864 33.5455C40.624 33.8655 40.32 34.0735 39.952 34.1695C39.584 34.2495 39.288 34.2095 39.064 34.0495ZM43.4869 44.2495C42.6389 44.2495 42.0149 43.9775 41.6149 43.4335C41.5029 43.1775 41.4469 42.9215 41.4469 42.6655C41.4629 42.3935 41.5269 42.2015 41.6389 42.0895C41.7509 41.9615 41.8869 41.9855 42.0469 42.1615C42.2549 42.2895 42.5509 42.3535 42.9349 42.3535C43.1269 42.3535 43.2949 42.3535 43.4389 42.3535C43.5989 42.3375 43.7829 42.3215 43.9909 42.3055C44.3589 42.2735 44.5909 42.1615 44.6869 41.9695C44.7989 41.7775 44.7749 41.6175 44.6149 41.4895H44.6389C44.2069 41.3775 43.7829 41.2175 43.3669 41.0095C42.9509 40.8015 42.5989 40.5695 42.3109 40.3135C42.0229 40.0415 41.8549 39.7855 41.8069 39.5455C41.6789 39.0175 41.7109 38.4735 41.9029 37.9135C42.0949 37.3535 42.3749 36.8655 42.7429 36.4495C42.8869 36.3535 43.0869 36.2175 43.3429 36.0415C43.5989 35.8495 43.7829 35.7455 43.8949 35.7295V35.7535C44.1989 35.4335 44.5429 35.1775 44.9269 34.9855C45.3109 34.7775 45.7589 34.5855 46.2709 34.4095L46.6549 34.3615C46.8469 34.3295 47.0149 34.3135 47.1589 34.3135C47.1429 34.3135 47.1829 34.3295 47.2789 34.3615C47.3749 34.3935 47.4549 34.4175 47.5189 34.4335C47.6149 34.4815 47.7109 34.5055 47.8069 34.5055C48.0309 34.5375 48.2469 34.6575 48.4549 34.8655C48.6789 35.0575 48.8549 35.2895 48.9829 35.5615C49.1269 35.8175 49.1829 36.0575 49.1509 36.2815C49.1029 36.6495 48.9669 37.0175 48.7429 37.3855C48.5189 37.7375 48.2789 37.9375 48.0229 37.9855C48.0549 37.9695 48.0229 37.9375 47.9269 37.8895C47.8309 37.8415 47.7429 37.7935 47.6629 37.7455L47.5669 37.7935C47.5669 37.7935 47.5589 37.7695 47.5429 37.7215C47.5429 37.6735 47.5269 37.6175 47.4949 37.5535C47.4309 37.4415 47.3829 37.3215 47.3509 37.1935C47.3349 37.0655 47.3349 36.9215 47.3509 36.7615C47.3829 36.5855 47.3909 36.4815 47.3749 36.4495C47.3589 36.4175 47.2629 36.3935 47.0869 36.3775C46.8789 36.3295 46.6149 36.3535 46.2949 36.4495C45.9749 36.5295 45.6789 36.6735 45.4069 36.8815C45.0869 37.0895 44.8469 37.2575 44.6869 37.3855C44.5429 37.5135 44.4309 37.6415 44.3509 37.7695C44.2709 37.8815 44.1829 38.0495 44.0869 38.2735C44.0229 38.3855 43.9669 38.4895 43.9189 38.5855C43.8709 38.6655 43.8469 38.7455 43.8469 38.8255C43.8469 38.9855 43.9829 39.1535 44.2549 39.3295C44.5269 39.4895 44.9349 39.6815 45.4789 39.9055C45.9109 40.0815 46.1909 40.3215 46.3189 40.6255C46.4629 40.9295 46.5909 41.2175 46.7029 41.4895C46.7349 41.5535 46.7669 41.6735 46.7989 41.8495C46.8469 42.0095 46.8549 42.1055 46.8229 42.1375C46.8549 42.1695 46.8709 42.2015 46.8709 42.2335V42.2095C46.9989 42.4495 46.9749 42.7055 46.7989 42.9775C46.6389 43.2335 46.3829 43.4735 46.0309 43.6975C45.6789 43.9055 45.2789 44.0575 44.8309 44.1535H44.8549C44.6149 44.1855 44.3749 44.2095 44.1349 44.2255C43.9109 44.2415 43.6949 44.2495 43.4869 44.2495ZM56.5861 44.2255C56.0421 44.0015 55.6421 43.7695 55.3861 43.5295C55.1461 43.2735 55.0501 43.0495 55.0981 42.8575C55.1301 42.7615 55.1861 42.6735 55.2661 42.5935C55.3461 42.5135 55.5221 42.4815 55.7941 42.4975C56.0821 42.4975 56.5221 42.5695 57.1141 42.7135C57.2901 42.7135 57.4661 42.7055 57.6421 42.6895C57.8181 42.6735 57.9781 42.6495 58.1221 42.6175C58.2821 42.5855 58.4101 42.5455 58.5061 42.4975C58.5861 42.4655 58.6101 42.4255 58.5781 42.3775C58.5461 42.3135 58.4901 42.2495 58.4101 42.1855C58.3461 42.1055 58.2741 42.0575 58.1941 42.0415C58.1141 42.0095 58.0421 41.9935 57.9781 41.9935C57.9461 41.9135 57.8741 41.8335 57.7621 41.7535C57.6661 41.6735 57.5461 41.5855 57.4021 41.4895C57.0501 41.2015 56.7301 40.9455 56.4421 40.7215C56.1541 40.4975 56.0421 40.3295 56.1061 40.2175C56.1061 40.1535 56.1061 40.1215 56.1061 40.1215C56.1061 40.1055 56.1061 40.0975 56.1061 40.0975C55.9941 40.0975 55.8901 39.9455 55.7941 39.6415C55.6981 39.3215 55.6501 39.0335 55.6501 38.7775C55.6501 38.4575 55.7141 38.1375 55.8421 37.8175C55.9861 37.4975 56.1621 37.1935 56.3701 36.9055C56.5941 36.6175 56.8181 36.3615 57.0421 36.1375C57.3461 35.8495 57.6661 35.5695 58.0021 35.2975C58.3541 35.0095 58.7301 34.7535 59.1301 34.5295C59.5461 34.3055 60.0021 34.1295 60.4981 34.0015C60.7221 33.9535 60.9781 33.9295 61.2661 33.9295C61.5541 33.9295 61.7621 33.9695 61.8901 34.0495C62.0181 33.9695 62.1781 33.9935 62.3701 34.1215C62.5621 34.2335 62.7541 34.3935 62.9461 34.6015C63.1381 34.8095 63.2821 35.0175 63.3781 35.2255C63.3781 35.4175 63.3701 35.6575 63.3541 35.9455C63.3541 36.2175 63.3381 36.4575 63.3061 36.6655C63.2741 36.8735 63.2021 36.9775 63.0901 36.9775C63.0901 36.9775 63.0661 36.9855 63.0181 37.0015C62.9861 37.0015 62.9701 37.0415 62.9701 37.1215C62.9701 37.2815 62.8501 37.4655 62.6101 37.6735C62.3061 37.8815 62.0181 38.0495 61.7461 38.1775C61.4741 38.3055 61.2661 38.3135 61.1221 38.2015C61.0261 38.1375 60.9381 38.0735 60.8581 38.0095C60.7781 37.9455 60.7061 37.8655 60.6421 37.7695C60.6421 37.7695 60.6181 37.7375 60.5701 37.6735C60.5381 37.5935 60.5221 37.5215 60.5221 37.4575C60.5221 37.3935 60.5461 37.3375 60.5941 37.2895C60.6421 37.2255 60.6661 37.1935 60.6661 37.1935C60.8901 36.9855 61.0581 36.7935 61.1701 36.6175C61.2981 36.4415 61.3861 36.2895 61.4341 36.1615C61.4821 36.0175 61.5061 35.9055 61.5061 35.8255C61.5061 35.7295 61.4821 35.6735 61.4341 35.6575C61.4021 35.6255 61.3221 35.6095 61.1941 35.6095C61.1141 35.6095 60.9381 35.6735 60.6661 35.8015C60.4101 35.9295 60.1381 36.0895 59.8501 36.2815C59.5621 36.4575 59.3381 36.6175 59.1781 36.7615C59.1141 36.8735 59.0661 36.9455 59.0341 36.9775C59.0181 37.0095 58.9781 37.0255 58.9141 37.0255C58.9141 36.9615 58.8741 36.9695 58.7941 37.0495C58.7141 37.1295 58.6181 37.2415 58.5061 37.3855C58.3941 37.5295 58.2821 37.6815 58.1701 37.8415C58.0581 38.0015 57.9701 38.1295 57.9061 38.2255C57.8901 38.3695 57.8501 38.5055 57.7861 38.6335C57.7381 38.7455 57.7221 38.8655 57.7381 38.9935C57.7541 39.1535 57.8341 39.3055 57.9781 39.4495C58.1221 39.5935 58.3301 39.7775 58.6021 40.0015C59.1621 40.4175 59.5781 40.7455 59.8501 40.9855C60.1381 41.2255 60.3381 41.4175 60.4501 41.5615C60.5621 41.7055 60.6341 41.8495 60.6661 41.9935C60.9381 42.4895 60.9701 42.9215 60.7621 43.2895C60.5541 43.6415 60.2341 43.9135 59.8021 44.1055C59.6421 44.1855 59.3621 44.2575 58.9621 44.3215C58.5621 44.4015 58.1381 44.4335 57.6901 44.4175C57.2581 44.4175 56.8901 44.3535 56.5861 44.2255ZM65.4087 44.0575C65.0247 44.0575 64.6887 43.8575 64.4007 43.4575C64.1287 43.0415 63.9607 42.5455 63.8967 41.9695C63.9127 41.8415 63.9287 41.6575 63.9447 41.4175C63.9767 41.1775 64.0087 40.9295 64.0407 40.6735C64.1047 40.3695 64.1927 39.9775 64.3047 39.4975C64.4167 39.0175 64.5367 38.5375 64.6647 38.0575C64.7927 37.5615 64.9047 37.1375 65.0007 36.7855C65.0967 36.4175 65.1527 36.2015 65.1687 36.1375C65.2647 35.9135 65.4807 35.8575 65.8167 35.9695C66.1527 36.0815 66.4407 36.3215 66.6807 36.6895C66.7767 36.8175 66.8327 36.9695 66.8487 37.1455C66.8807 37.3215 66.8567 37.5775 66.7767 37.9135C66.7127 38.2495 66.5847 38.7455 66.3927 39.4015C66.2167 40.0415 66.0807 40.5615 65.9847 40.9615C65.9047 41.3455 65.8727 41.7535 65.8887 42.1855C65.8247 42.9215 65.7607 43.4255 65.6967 43.6975C65.6327 43.9535 65.5367 44.0735 65.4087 44.0575ZM67.6167 34.0975C67.5527 34.1455 67.4887 34.1695 67.4247 34.1695C67.3767 34.1535 67.2887 34.1055 67.1607 34.0255C67.0487 34.0095 66.9047 33.9375 66.7287 33.8095C66.5687 33.6655 66.4247 33.5215 66.2967 33.3775C66.1847 33.2335 66.1287 33.1455 66.1287 33.1135C66.1127 32.9535 66.1207 32.6975 66.1527 32.3455C66.2007 31.9935 66.2887 31.6655 66.4167 31.3615C66.5607 31.0415 66.7527 30.8735 66.9927 30.8575C67.0567 30.8575 67.1927 30.8895 67.4007 30.9535C67.6247 31.0175 67.8567 31.0975 68.0967 31.1935C68.2247 31.4335 68.3447 31.7455 68.4567 32.1295C68.5687 32.5135 68.5767 32.8895 68.4807 33.2575C68.4007 33.6095 68.1127 33.8895 67.6167 34.0975ZM69.0876 43.1935C69.0396 43.1295 68.9356 43.0495 68.7756 42.9535C68.6156 42.8575 68.5356 42.7775 68.5356 42.7135C68.5356 42.6815 68.5276 42.6415 68.5116 42.5935C68.5116 42.5455 68.4796 42.5215 68.4156 42.5215C68.3676 42.4735 68.3916 42.2975 68.4876 41.9935C68.5996 41.6895 68.7436 41.3295 68.9196 40.9135C69.1116 40.4975 69.3116 40.0975 69.5196 39.7135C69.7276 39.3135 69.9036 38.9935 70.0476 38.7535C70.1276 38.7055 70.1756 38.6415 70.1916 38.5615C70.2236 38.4655 70.2236 38.4175 70.1916 38.4175C70.1916 38.4175 70.2316 38.3455 70.3116 38.2015C70.4076 38.0415 70.4796 37.9375 70.5276 37.8895C70.6556 37.6655 70.7516 37.4415 70.8156 37.2175C70.8796 36.9775 70.8956 36.7775 70.8636 36.6175C70.7996 36.5375 70.7276 36.5135 70.6476 36.5455C70.5676 36.5775 70.5276 36.5935 70.5276 36.5935C70.4636 36.6095 70.3676 36.6415 70.2396 36.6895C70.1276 36.7215 70.0236 36.7695 69.9276 36.8335C69.5596 37.0895 69.2876 37.2175 69.1116 37.2175C68.9516 37.2175 68.7916 37.0255 68.6316 36.6415C68.5676 36.4655 68.5436 36.2975 68.5596 36.1375C68.5756 35.9775 68.6396 35.8495 68.7516 35.7535C68.8796 35.6415 69.0396 35.5295 69.2316 35.4175C69.4236 35.2895 69.5516 35.2015 69.6156 35.1535C69.7916 35.0415 70.0396 34.9215 70.3596 34.7935C70.6796 34.6655 70.8716 34.5935 70.9356 34.5775C71.3516 34.4495 71.7036 34.4495 71.9916 34.5775C72.2796 34.6895 72.4956 34.9135 72.6396 35.2495C72.8636 35.5215 72.9756 35.8095 72.9756 36.1135C72.9756 36.4175 72.8636 36.7935 72.6396 37.2415L72.3996 37.6015C72.3196 37.7615 72.3036 37.8415 72.3516 37.8415C72.4156 37.8415 72.4876 37.7855 72.5676 37.6735C72.6156 37.6095 72.7116 37.5135 72.8556 37.3855C72.9996 37.2575 73.0956 37.1935 73.1436 37.1935C73.1436 37.1935 73.1596 37.1855 73.1916 37.1695C73.2396 37.1535 73.2636 37.0895 73.2636 36.9775C73.3116 36.9295 73.3596 36.8815 73.4076 36.8335C73.4716 36.7855 73.5036 36.7615 73.5036 36.7615C73.5676 36.7615 73.6476 36.7295 73.7436 36.6655C73.8556 36.5855 74.0396 36.4415 74.2956 36.2335C74.4716 36.1055 74.6316 36.0415 74.7756 36.0415C75.1436 35.9295 75.4396 36.0495 75.6636 36.4015C75.9036 36.7535 76.0236 37.2095 76.0236 37.7695L75.5196 39.0655L76.3836 38.0095C76.4796 37.8815 76.5756 37.7695 76.6716 37.6735C76.7836 37.5775 76.8796 37.4975 76.9596 37.4335C76.9916 37.3215 77.0396 37.2575 77.1036 37.2415C77.1676 37.2255 77.1996 37.2175 77.1996 37.2175C77.1996 37.2175 77.2156 37.2175 77.2476 37.2175C77.2796 37.2015 77.2956 37.1695 77.2956 37.1215C77.3756 37.0575 77.4636 37.0015 77.5596 36.9535C77.6556 36.8895 77.7196 36.8255 77.7516 36.7615C78.0236 36.6495 78.3516 36.6335 78.7356 36.7135C79.1196 36.7775 79.3916 36.9775 79.5516 37.3135C79.6636 37.5055 79.7676 37.6735 79.8636 37.8175C79.9596 37.9615 80.0076 38.1775 80.0076 38.4655C79.9756 38.7055 79.9436 38.8735 79.9116 38.9695C79.8956 39.0655 79.8796 39.1695 79.8636 39.2815C79.8476 39.3775 79.8236 39.5535 79.7916 39.8095C79.7276 39.9375 79.6876 40.0735 79.6716 40.2175C79.6716 40.3615 79.6716 40.4975 79.6716 40.6255C79.6716 40.8335 79.6796 40.9775 79.6956 41.0575C79.7116 41.1215 79.7756 41.1535 79.8876 41.1535C80.1116 41.1055 80.2956 41.0335 80.4396 40.9375C80.5996 40.8255 80.7756 40.6815 80.9676 40.5055C81.2076 40.2815 81.4156 40.2495 81.5916 40.4095C81.7836 40.5535 81.9036 40.7215 81.9516 40.9135C81.9836 40.9775 81.9516 41.1215 81.8556 41.3455C81.7596 41.5695 81.6476 41.7855 81.5196 41.9935C81.3916 42.2015 81.2876 42.3055 81.2076 42.3055C81.1596 42.3055 81.0636 42.3695 80.9196 42.4975C80.7756 42.6255 80.6636 42.7135 80.5836 42.7615C80.4716 42.8735 80.3596 42.9775 80.2476 43.0735C80.1516 43.1695 80.0396 43.2175 79.9116 43.2175C79.8476 43.2175 79.7676 43.2415 79.6716 43.2895C79.5916 43.3215 79.4956 43.3375 79.3836 43.3375C79.2236 43.3855 78.9756 43.3615 78.6396 43.2655C78.3196 43.1695 78.1116 42.9455 78.0156 42.5935C77.9516 42.4175 77.8556 42.1935 77.7276 41.9215C77.6156 41.6495 77.5916 41.3135 77.6556 40.9135C77.7196 40.6255 77.7596 40.3615 77.7756 40.1215C77.7916 39.8815 77.8236 39.7135 77.8716 39.6175C77.8716 39.5695 77.8716 39.4575 77.8716 39.2815C77.8716 39.0895 77.8476 38.9935 77.7996 38.9935C77.7356 38.9935 77.6156 39.0735 77.4396 39.2335C77.2636 39.3935 77.0556 39.6095 76.8156 39.8815C76.5756 40.1375 76.3276 40.4175 76.0716 40.7215C75.8316 41.0255 75.6156 41.3295 75.4236 41.6335C75.2796 41.8095 75.1516 42.0255 75.0396 42.2815C74.9276 42.5375 74.8476 42.6815 74.7996 42.7135C74.6876 42.8415 74.4956 42.8575 74.2236 42.7615C73.9676 42.6655 73.7756 42.5135 73.6476 42.3055C73.5996 42.2095 73.5436 42.1535 73.4796 42.1375C73.4156 42.1055 73.3596 42.0575 73.3116 41.9935C73.2796 41.9135 73.2796 41.7615 73.3116 41.5375C73.3596 41.3135 73.4636 40.9535 73.6236 40.4575C73.7996 39.9135 73.9516 39.4255 74.0796 38.9935C74.2236 38.5455 74.2956 38.3215 74.2956 38.3215C74.2956 38.2575 74.1756 38.3215 73.9356 38.5135C73.6956 38.6895 73.4156 38.9135 73.0956 39.1855C72.9516 39.3615 72.7596 39.5855 72.5196 39.8575C72.2956 40.1295 72.0316 40.4495 71.7276 40.8175C71.4396 41.1855 71.1116 41.6175 70.7436 42.1135C70.2796 42.7695 69.9276 43.1695 69.6876 43.3135C69.4636 43.4575 69.2636 43.4175 69.0876 43.1935ZM82.0789 49.9135C81.9669 49.8655 81.7909 49.7455 81.5509 49.5535C81.3269 49.3615 81.1189 49.1535 80.9269 48.9295C80.7509 48.7215 80.6629 48.5695 80.6629 48.4735C80.6629 48.3775 80.7029 48.1215 80.7829 47.7055C80.8629 47.3055 80.9669 46.8095 81.0949 46.2175C81.2389 45.6415 81.3909 45.0495 81.5509 44.4415C81.7269 43.8495 81.9029 43.3215 82.0789 42.8575C82.1109 42.7775 82.2149 42.5135 82.3909 42.0655C82.5829 41.6015 82.7669 41.0415 82.9429 40.3855C83.0709 39.9695 83.2389 39.4975 83.4469 38.9695C83.6549 38.4415 83.8709 37.9135 84.0949 37.3855C84.3189 36.8415 84.5029 36.3615 84.6469 35.9455C84.7909 35.5295 84.9509 35.1135 85.1269 34.6975C85.3029 34.2655 85.3989 34.0175 85.4149 33.9535C85.4469 33.8575 85.5349 33.7775 85.6789 33.7135C85.8389 33.6335 85.9989 33.5695 86.1589 33.5215C86.3189 33.4575 86.4229 33.4175 86.4709 33.4015C86.7589 33.3215 87.0069 33.4415 87.2149 33.7615C87.2949 33.9055 87.3109 34.1055 87.2629 34.3615C87.2309 34.6015 87.1509 34.8655 87.0229 35.1535L86.8549 35.6335L87.7189 35.4415C87.8629 35.4415 88.0629 35.4495 88.3189 35.4655C88.5749 35.4815 88.8229 35.4975 89.0629 35.5135C89.3189 35.5295 89.4949 35.5535 89.5909 35.5855C89.9749 35.6015 90.2389 35.6735 90.3829 35.8015C90.5429 35.9295 90.6789 36.0975 90.7909 36.3055C90.8709 36.3855 90.9669 36.4975 91.0789 36.6415C91.1909 36.7695 91.2549 36.8975 91.2709 37.0255C91.3349 37.2975 91.3109 37.6175 91.1989 37.9855C91.1029 38.3535 90.9509 38.7295 90.7429 39.1135C90.5509 39.4815 90.3189 39.8255 90.0469 40.1455C89.7909 40.4495 89.5429 40.6815 89.3029 40.8415C89.1429 40.9055 88.9989 40.9775 88.8709 41.0575C88.7429 41.1215 88.6789 41.1535 88.6789 41.1535C88.6629 41.2335 88.4949 41.3695 88.1749 41.5615C87.8709 41.7535 87.5109 41.9375 87.0949 42.1135C86.6949 42.2735 86.3349 42.3775 86.0149 42.4255C85.9029 42.4415 85.7429 42.4575 85.5349 42.4735C85.3269 42.4895 85.1669 42.4655 85.0549 42.4015C84.8789 42.3695 84.7589 42.3535 84.6949 42.3535C84.6309 42.3535 84.5989 42.3855 84.5989 42.4495C84.5829 42.4815 84.4709 42.7375 84.2629 43.2175C84.0549 43.6975 83.8389 44.3615 83.6149 45.2095C83.3109 46.1375 83.0629 46.8975 82.8709 47.4895C82.6789 48.0975 82.5269 48.5695 82.4149 48.9055C82.3189 49.2415 82.2469 49.4815 82.1989 49.6255C82.1509 49.7855 82.1109 49.8815 82.0789 49.9135ZM85.1749 40.3375C85.2229 40.4335 85.3909 40.4655 85.6789 40.4335C85.9669 40.3855 86.2949 40.2895 86.6629 40.1455C87.0309 40.0015 87.3589 39.8335 87.6469 39.6415C87.9509 39.4335 88.1269 39.2175 88.1749 38.9935C88.5269 38.5935 88.7749 38.3055 88.9189 38.1295C89.0629 37.9375 89.0549 37.7855 88.8949 37.6735C88.7189 37.4175 88.4629 37.2975 88.1269 37.3135C87.8069 37.3295 87.2949 37.5295 86.5909 37.9135C86.3189 38.0095 86.1349 38.0975 86.0389 38.1775C85.9429 38.2415 85.8629 38.3455 85.7989 38.4895C85.7509 38.6335 85.6549 38.8655 85.5109 39.1855C85.3669 39.5375 85.2709 39.8015 85.2229 39.9775C85.1749 40.1535 85.1589 40.2735 85.1749 40.3375ZM93.1893 44.3455C92.8853 44.4255 92.6133 44.3375 92.3733 44.0815C92.1333 43.8415 91.9653 43.4815 91.8693 43.0015C91.7733 42.5215 91.7893 41.9855 91.9173 41.3935C91.9973 41.2015 92.0613 41.0175 92.1093 40.8415C92.1573 40.6495 92.1813 40.4975 92.1813 40.3855C92.2133 40.2255 92.2773 39.9935 92.3733 39.6895C92.4693 39.3695 92.5733 39.0415 92.6853 38.7055C92.7973 38.3695 92.9013 38.0735 92.9973 37.8175C93.1093 37.5455 93.1813 37.3775 93.2133 37.3135C93.2773 37.3135 93.3333 37.2575 93.3813 37.1455C93.4293 37.0335 93.4533 36.9215 93.4533 36.8095C93.4533 36.6815 93.4773 36.5375 93.5253 36.3775C93.5893 36.2175 93.6533 36.1055 93.7173 36.0415C93.7173 35.9615 93.7333 35.8735 93.7653 35.7775C93.8133 35.6655 93.8373 35.5775 93.8373 35.5135C93.8373 35.4495 93.8533 35.3855 93.8853 35.3215C93.9333 35.2575 93.9573 35.1935 93.9573 35.1295C94.0693 34.9215 94.2133 34.5935 94.3893 34.1455C94.5813 33.6815 94.7813 33.1695 94.9893 32.6095C95.2133 32.0495 95.4213 31.4975 95.6133 30.9535C95.8053 30.4095 95.9573 29.9535 96.0693 29.5855C96.1973 29.2015 96.2613 28.9695 96.2613 28.8895C96.2613 28.7615 96.3093 28.6415 96.4053 28.5295C96.5013 28.4175 96.6133 28.3615 96.7413 28.3615C96.7893 28.3135 96.9013 28.2815 97.0773 28.2655C97.2533 28.2335 97.3733 28.2175 97.4373 28.2175C97.4373 28.2175 97.4693 28.2495 97.5333 28.3135C97.5973 28.3775 97.6933 28.4735 97.8213 28.6015C97.9493 28.7135 98.0693 28.8415 98.1813 28.9855C98.3093 29.1295 98.3733 29.2975 98.3733 29.4895C98.3733 29.6975 98.3413 29.8975 98.2773 30.0895C98.2293 30.2815 98.1333 30.5455 97.9893 30.8815C97.8453 31.2015 97.6213 31.6815 97.3173 32.3215C97.1893 32.6415 97.0533 32.9455 96.9093 33.2335C96.7653 33.5055 96.6933 33.6735 96.6933 33.7375C96.6933 33.8015 96.6613 33.8975 96.5973 34.0255C96.5493 34.1535 96.4933 34.3135 96.4293 34.5055C96.3653 34.6335 96.2773 34.8255 96.1653 35.0815C96.0533 35.3215 95.9333 35.5855 95.8053 35.8735C95.6933 36.1455 95.5973 36.3855 95.5173 36.5935C95.4373 36.7855 95.3973 36.8975 95.3973 36.9295C95.3973 36.9935 95.3893 37.0575 95.3733 37.1215C95.3733 37.1855 95.3413 37.2495 95.2773 37.3135C95.2133 37.3135 95.1733 37.3615 95.1573 37.4575C95.1573 37.5375 95.1573 37.5775 95.1573 37.5775C95.1573 37.7375 95.0293 38.1615 94.7733 38.8495C94.5173 39.7295 94.2773 40.5375 94.0533 41.2735C93.8453 42.0095 93.7413 42.6015 93.7413 43.0495C93.7413 43.4335 93.6773 43.7295 93.5493 43.9375C93.4373 44.1455 93.3173 44.2815 93.1893 44.3455ZM95.6789 50.2495C95.3269 50.3135 95.0869 50.3215 94.9589 50.2735C94.8309 50.2255 94.6549 50.1455 94.4309 50.0335C94.2549 49.9055 94.1269 49.8095 94.0469 49.7455C93.9669 49.6815 93.9109 49.6175 93.8789 49.5535C93.7189 49.2175 93.6949 48.9695 93.8069 48.8095C93.9189 48.6495 94.0789 48.5455 94.2869 48.4975C94.5109 48.4655 94.7029 48.4495 94.8629 48.4495C94.9749 48.5135 95.1589 48.5455 95.4149 48.5455C95.6869 48.5455 95.8549 48.5135 95.9189 48.4495C95.9189 48.4495 95.9909 48.4015 96.1349 48.3055C96.2949 48.2255 96.5029 48.1615 96.7589 48.1135C97.2549 47.8735 97.6469 47.6255 97.9349 47.3695C98.2229 47.1295 98.5429 46.7135 98.8949 46.1215C99.0389 45.8975 99.1909 45.6335 99.3509 45.3295C99.5109 45.0415 99.6229 44.7535 99.6869 44.4655C99.8149 44.1455 99.9589 43.7135 100.119 43.1695C100.295 42.6255 100.447 42.0895 100.575 41.5615C100.703 41.0175 100.775 40.6095 100.791 40.3375C100.887 39.4415 101.071 38.5775 101.343 37.7455C101.615 36.8975 101.831 36.0015 101.991 35.0575C102.087 34.8335 102.159 34.7055 102.207 34.6735C102.255 34.6255 102.359 34.6015 102.519 34.6015C102.695 34.6015 102.903 34.6575 103.143 34.7695C103.383 34.8655 103.559 35.0015 103.671 35.1775C103.831 35.4815 103.903 35.8415 103.887 36.2575C103.887 36.6575 103.783 37.0095 103.575 37.3135C103.415 37.5375 103.271 37.8895 103.143 38.3695C103.031 38.8335 102.919 39.4175 102.807 40.1215C102.727 40.4735 102.639 40.8895 102.543 41.3695C102.463 41.8335 102.375 42.3535 102.279 42.9295C102.215 43.0895 102.127 43.3375 102.015 43.6735C101.903 43.9935 101.831 44.2495 101.799 44.4415C101.783 44.5055 101.735 44.6335 101.655 44.8255C101.575 45.0175 101.495 45.2015 101.415 45.3775C101.335 45.5695 101.279 45.6975 101.247 45.7615C100.479 47.3135 99.5909 48.4335 98.5829 49.1215C97.5909 49.8095 96.6229 50.1855 95.6789 50.2495ZM97.6949 43.4575C97.5189 43.4575 97.3349 43.3615 97.1429 43.1695C96.9669 42.9775 96.8469 42.8255 96.7829 42.7135C96.7189 42.5535 96.5989 42.4015 96.4229 42.2575C96.2469 42.1135 96.0949 41.9375 95.9669 41.7295C95.8389 41.5215 95.8069 41.2655 95.8709 40.9615C95.9349 40.7535 96.0309 40.4415 96.1589 40.0255C96.2869 39.5935 96.4389 39.1215 96.6149 38.6095C96.7909 38.0815 96.9669 37.5615 97.1429 37.0495C97.3349 36.5375 97.5109 36.0815 97.6709 35.6815C97.8309 35.2815 97.9669 35.0015 98.0789 34.8415C98.1749 34.7135 98.3269 34.6175 98.5349 34.5535C98.7429 34.4895 98.9509 34.4735 99.1589 34.5055C99.3669 34.5375 99.5189 34.6335 99.6149 34.7935C99.7909 35.0175 99.8869 35.2415 99.9029 35.4655C99.9349 35.6735 99.8229 36.0095 99.5669 36.4735C99.5029 36.6495 99.4229 36.8415 99.3269 37.0495C99.2309 37.2415 99.1829 37.3695 99.1829 37.4335C99.1669 37.4655 99.1349 37.5775 99.0869 37.7695C99.0549 37.9455 99.0149 38.1135 98.9669 38.2735C98.9189 38.4335 98.8709 38.5135 98.8229 38.5135C98.7589 38.5775 98.6869 38.7455 98.6069 39.0175C98.5429 39.2895 98.4789 39.5935 98.4149 39.9295C98.3669 40.2495 98.3349 40.5375 98.3189 40.7935C98.3029 41.0335 98.3269 41.1535 98.3909 41.1535C98.8869 41.1535 99.3669 41.0015 99.8309 40.6975C100.295 40.3775 100.799 39.8495 101.343 39.1135L101.559 41.3695C101.335 41.4815 101.127 41.6015 100.935 41.7295C100.743 41.8415 100.567 41.9775 100.407 42.1375C100.359 42.2015 100.247 42.2895 100.071 42.4015C99.8949 42.5135 99.7189 42.6175 99.5429 42.7135C99.3829 42.7935 99.2789 42.8335 99.2309 42.8335C99.2309 42.8335 99.2069 42.8415 99.1589 42.8575C99.1269 42.8575 99.1109 42.8895 99.1109 42.9535C99.1109 42.9855 99.0069 43.0495 98.7989 43.1455C98.5909 43.2255 98.3749 43.2975 98.1509 43.3615C97.9269 43.4255 97.7749 43.4575 97.6949 43.4575Z" fill="#EA2667"/>
<path d="M34.541 96.5813C35.3692 96.5589 36.0224 95.8695 36 95.0413L35.6356 81.5462C35.6133 80.7181 34.9238 80.0649 34.0957 80.0873C33.2676 80.1096 32.6144 80.7991 32.6367 81.6272L32.9606 93.6228L20.965 93.9467C20.1369 93.9691 19.4837 94.6585 19.506 95.4867C19.5284 96.3148 20.2178 96.968 21.046 96.9456L34.541 96.5813ZM20.4543 37.1844C12.2561 40.3869 7.46888 44.5836 5.53741 49.6143C3.60761 54.6405 4.68794 60.0864 7.27558 65.4233C12.4195 76.0324 24.0292 87.2274 33.4689 96.1707L35.5322 93.9929C25.9715 84.9349 14.8311 74.1299 9.97501 64.1144C7.56262 59.139 6.83043 54.6163 8.33808 50.6896C9.84405 46.7672 13.7442 43.0264 21.5459 39.9787L20.4543 37.1844Z" fill="#1F1A3D"/>
</svg>
