<svg width="22" height="19" viewBox="0 0 22 19" fill="none" xmlns="http://www.w3.org/2000/svg">
<path opacity="0.4" fill-rule="evenodd" clip-rule="evenodd" d="M10.7479 5.44954L10.7937 6.19778L10.0298 6.10616C7.24933 5.75494 4.82023 4.56386 2.75778 2.56346L1.74947 1.57089L1.48975 2.30386C0.939767 3.93778 1.29115 5.66332 2.43695 6.82386C3.04805 7.46521 2.91055 7.55683 1.85641 7.17508C1.48975 7.05291 1.16893 6.96129 1.13837 7.0071C1.03143 7.114 1.39809 8.50359 1.68836 9.05332C2.08557 9.81683 2.89527 10.5651 3.78136 11.0079L4.52996 11.3591L3.64387 11.3744C2.78833 11.3744 2.75778 11.3897 2.84944 11.7103C3.15499 12.7029 4.3619 13.7566 5.70632 14.2147L6.65351 14.5353L5.82853 15.024C4.60634 15.7264 3.17027 16.1235 1.73419 16.154C1.04671 16.1693 0.481445 16.2303 0.481445 16.2762C0.481445 16.4289 2.34529 17.284 3.42998 17.6199C6.68407 18.6125 10.5492 18.1849 13.452 16.4899C15.5144 15.2836 17.5769 12.8862 18.5393 10.5651C19.0588 9.32818 19.5782 7.06818 19.5782 5.984C19.5782 5.28156 19.624 5.18994 20.4796 4.35008C20.9837 3.86143 21.4573 3.32697 21.549 3.17427C21.7017 2.88413 21.6865 2.88413 20.9073 3.14373C19.6087 3.60184 19.4254 3.54075 20.0671 2.85359C20.5407 2.36494 21.1059 1.47927 21.1059 1.21967C21.1059 1.17386 20.8768 1.25021 20.6171 1.38765C20.3421 1.54035 19.731 1.7694 19.2726 1.90684L18.4477 2.16643L17.6991 1.66251C17.2866 1.38765 16.706 1.08224 16.4005 0.99062C15.6213 0.776837 14.4297 0.807377 13.7269 1.0517C11.8173 1.73886 10.6104 3.51021 10.7479 5.44954Z" fill="white"/>
</svg>
