<svg xmlns="http://www.w3.org/2000/svg" width="162.767" height="48.703" viewBox="0 0 162.767 48.703">
  <g id="Сгруппировать_1" data-name="Сгруппировать 1" transform="translate(-97.973 -358.49)">
    <path id="Контур_1" data-name="Контур 1" d="M128.619,383.126h6.843v6.843h-6.843v-6.843Zm-17.233,2.007a8.864,8.864,0,0,1-2.411-.319,6.275,6.275,0,0,1-2.023-.988,4.837,4.837,0,0,1-1.429-1.673,5.831,5.831,0,0,1-.616-2.4H97.973a11.184,11.184,0,0,0,.73,4.045,9.314,9.314,0,0,0,1.947,3.079,10.719,10.719,0,0,0,2.9,2.152,14.438,14.438,0,0,0,3.574,1.262,19.127,19.127,0,0,0,3.992.41,20.746,20.746,0,0,0,3.771-.342,15.461,15.461,0,0,0,3.5-1.072,10.471,10.471,0,0,0,2.9-1.909,8.413,8.413,0,0,0,1.97-2.828,9.683,9.683,0,0,0,.73-3.84,8.559,8.559,0,0,0-.768-3.741,7.31,7.31,0,0,0-2.03-2.555,11.439,11.439,0,0,0-2.874-1.673,25.3,25.3,0,0,0-3.293-1.08c-1.133-.281-2.228-.54-3.292-.783a27.592,27.592,0,0,1-2.874-.783,5.919,5.919,0,0,1-2.03-1.08,2.167,2.167,0,0,1-.768-1.672,2.6,2.6,0,0,1,.449-1.491,3.4,3.4,0,0,1,1.14-1,5.6,5.6,0,0,1,1.491-.57,7.3,7.3,0,0,1,1.528-.175,9.04,9.04,0,0,1,2.9.388,3.79,3.79,0,0,1,1.886,1.346,5.337,5.337,0,0,1,.867,2.555h6.615a10.673,10.673,0,0,0-.76-3.749,8.688,8.688,0,0,0-1.848-2.79,9.967,9.967,0,0,0-2.707-1.916,13.806,13.806,0,0,0-3.33-1.1,19.174,19.174,0,0,0-3.719-.35,15.718,15.718,0,0,0-3.376.365,13.433,13.433,0,0,0-3.148,1.1,10.4,10.4,0,0,0-2.615,1.863,8.132,8.132,0,0,0-1.787,2.638,8.752,8.752,0,0,0-.662,3.43,8.192,8.192,0,0,0,.768,3.627,7.185,7.185,0,0,0,2.038,2.479,12.035,12.035,0,0,0,2.867,1.643,27.853,27.853,0,0,0,3.292,1.087c1.133.3,2.228.57,3.293.829a24.921,24.921,0,0,1,2.874.874,5.929,5.929,0,0,1,2.031,1.217,2.476,2.476,0,0,1,.768,1.84,2.79,2.79,0,0,1-.563,1.741,3.767,3.767,0,0,1-1.392,1.125,7.409,7.409,0,0,1-1.8.608,9.225,9.225,0,0,1-1.764.175Zm36.239,4.836h9.215l-12.363-15.512,11.907-15.512h-8.759l-12.131,15.8,12.131,15.22Zm73.339,0V358.946h-6.843v31.023Zm-16.6,0V358.946h-6.844V378.29l-10.675-19.344H180v31.023h6.844V370.625l10.675,19.344Zm-34.118,0V358.946H163.4v31.023Zm82.874-10.539a7.307,7.307,0,0,1-1.825,2.411,8.722,8.722,0,0,1-5.748,2.2,8.565,8.565,0,0,1-3.528-.753,9.122,9.122,0,0,1-2.874-2.053,9.656,9.656,0,0,1-1.924-3.049,10.128,10.128,0,0,1,0-7.436,9.745,9.745,0,0,1,1.924-3.049,9.153,9.153,0,0,1,2.874-2.06,8.442,8.442,0,0,1,3.528-.76,8.747,8.747,0,0,1,3.064.555,8.394,8.394,0,0,1,2.646,1.551,7.157,7.157,0,0,1,1.817,2.41h7.619A15.92,15.92,0,0,0,250.6,359.3,15.941,15.941,0,1,0,260.74,379.43Zm-124.5-20.484h6.843v6.844h-6.843v-6.844Z" transform="translate(0 0)" fill="#bf9f5d"/>
    <path id="Контур_2" data-name="Контур 2" d="M137.615,466.223h2.74a3.853,3.853,0,1,0,0-7.7h-2.74v7.7Zm1.056-.958v-5.789h1.618a2.895,2.895,0,1,1,0,5.789Zm13.871.958h1.145l.792-1.838h3.984l.781,1.838h1.167l-3.39-7.7h-1.079l-3.4,7.7Zm2.289-2.762,1.64-3.808,1.629,3.808Zm14.673,2.762h1.012v-6.042l4.358,6.042h1.013v-7.7h-1.013v6.03l-4.358-6.03H169.5v7.7Zm25.952,0h1.056v-7.7h-1.056v7.7Zm10.661-.539a5.915,5.915,0,0,0,2.861.682c1.948,0,2.993-.825,2.993-2.2,0-1.221-.627-1.882-2.124-2.2l-1.167-.242c-1.068-.22-1.442-.55-1.442-1.255s.627-1.123,1.761-1.123a4.342,4.342,0,0,1,2.5.671l.231-.979a5.43,5.43,0,0,0-2.751-.66c-1.816,0-2.806.825-2.806,2.135,0,1.222.583,1.86,2.047,2.168l1.233.265c1.09.231,1.442.583,1.442,1.276,0,.781-.627,1.178-1.882,1.178a5.356,5.356,0,0,1-2.663-.683l-.231.968Zm15.433.539h5.283v-.979h-4.226V462.8h3.742v-.979h-3.742V459.5h4.127v-.979h-5.183v7.7Zm14.714,0h5.183v-.979h-4.127v-6.724h-1.056v7.7Zm14.33,0h1.056v-7.7H250.6v7.7Zm11.087,0h1.012v-6.042l4.358,6.042h1.012v-7.7h-1.012v6.03l-4.358-6.03h-1.012v7.7Z" transform="translate(-23.484 -59.172)" fill="#bf9f5d"/>
  </g>
</svg>
