<svg xmlns="http://www.w3.org/2000/svg" width="15.193" height="7.587" viewBox="0 0 15.193 7.587">
  <g id="Сгруппировать_161774" data-name="Сгруппировать 161774" transform="translate(-5.415 -9.749)">
    <path id="Fill" d="M7.585,7.585h0a1.083,1.083,0,0,1-.693-.249L.391,1.919h0A1.085,1.085,0,1,1,1.778.251h0L7.585,5.1,13.391.424h0a1.083,1.083,0,0,1,1.524.158l0,0h0a1.083,1.083,0,0,1-.088,1.53q-.031.027-.063.052L8.267,7.4h0a1.083,1.083,0,0,1-.682.184Z" transform="translate(5.415 9.749)" fill="#d5b168"/>
  </g>
</svg>
