<svg xmlns="http://www.w3.org/2000/svg" width="21" height="20" viewBox="0 0 21 20">
  <g id="Сгруппировать_1344" data-name="Сгруппировать 1344" transform="translate(-1254.5 -537.5)">
    <path id="Контур_361" data-name="Контур 361" d="M8.6,10H7v1.6H8.6Zm4.2,0H11.2v1.6h1.6ZM17,10H15.4v1.6H17ZM8.6,14.4H7V16H8.6Zm4.2,0H11.2V16h1.6Zm4.2,0H15.4V16H17ZM18,5V2.75a.75.75,0,0,0-1.5,0V5h-9V2.75a.75.75,0,0,0-1.5,0V5H2V21H22V5Zm2.5,14.5H3.5V6.5h17Z" transform="translate(1253 536)" fill="#957248" stroke="rgba(0,0,0,0)" stroke-width="1"/>
  </g>
</svg>
