<svg xmlns="http://www.w3.org/2000/svg" width="29.243" height="29.241" viewBox="0 0 29.243 29.241">
  <g id="Сгруппировать_1331" data-name="Сгруппировать 1331" transform="translate(-1011 -2637)">
    <g id="Сгруппировать_559" data-name="Сгруппировать 559" transform="translate(1011 2637)">
      <path id="Контур_741" data-name="Контур 741" d="M209.452,81.2V67.252A7.671,7.671,0,0,1,217.1,59.6h13.944a7.672,7.672,0,0,1,7.65,7.649V81.2a7.672,7.672,0,0,1-7.65,7.649h-4.687l-2.455-.6-2.114.6H217.1A7.671,7.671,0,0,1,209.452,81.2Z" transform="translate(-209.452 -59.603)" fill="#8f7f72"/>
      <g id="Сгруппировать_552" data-name="Сгруппировать 552" transform="translate(8.624 6.19)">
        <path id="Контур_742" data-name="Контур 742" d="M229.765,78.931l.648-4.227h-4.055V71.962a2.113,2.113,0,0,1,2.383-2.284h1.844v-3.6a22.466,22.466,0,0,0-3.273-.286c-3.34,0-5.523,2.025-5.523,5.689V74.7h-3.713v4.227h3.713v9.914h4.569V78.931Z" transform="translate(-218.076 -65.794)" fill="#fff"/>
      </g>
    </g>
  </g>
</svg>
