<svg xmlns="http://www.w3.org/2000/svg" width="29.243" height="29.242" viewBox="0 0 29.243 29.242">
  <g id="Сгруппировать_1330" data-name="Сгруппировать 1330" transform="translate(-968 -2637)">
    <g id="Сгруппировать_560" data-name="Сгруппировать 560" transform="translate(968 2637)">
      <rect id="Прямоугольник_169" data-name="Прямоугольник 169" width="29.242" height="29.243" rx="8" transform="translate(29.243 0) rotate(90)" fill="#8f7f72"/>
      <path id="Контур_739" data-name="Контур 739" d="M217.971,156.49H220.8v9.1h-2.832Zm1.416-4.52a1.639,1.639,0,1,1-1.641,1.638,1.639,1.639,0,0,1,1.641-1.638" transform="translate(-209.481 -144.592)" fill="#fff"/>
      <path id="Контур_740" data-name="Контур 740" d="M222.577,156.49h2.712v1.245h.037a2.975,2.975,0,0,1,2.678-1.47c2.863,0,3.391,1.883,3.391,4.333v4.989h-2.826v-4.422c0-1.056-.021-2.413-1.47-2.413-1.471,0-1.7,1.149-1.7,2.335v4.5h-2.826Z" transform="translate(-209.481 -144.592)" fill="#fff"/>
    </g>
  </g>
</svg>
