<svg xmlns="http://www.w3.org/2000/svg" width="29.243" height="29.242" viewBox="0 0 29.243 29.242">
  <g id="Сгруппировать_1333" data-name="Сгруппировать 1333" transform="translate(-1096 -2636.999)">
    <g id="Сгруппировать_557" data-name="Сгруппировать 557" transform="translate(1096 2637)">
      <rect id="Прямоугольник_171" data-name="Прямоугольник 171" width="29.242" height="29.243" rx="8" transform="translate(29.243 -0.001) rotate(90)" fill="#8f7f72"/>
      <g id="Сгруппировать_555" data-name="Сгруппировать 555" transform="translate(6.049 6.048)">
        <path id="Контур_744" data-name="Контур 744" d="M271.111,68.713a1.006,1.006,0,1,0,1.005,1.005A1.005,1.005,0,0,0,271.111,68.713Z" transform="translate(-258 -65.652)" fill="#fff"/>
        <path id="Контур_745" data-name="Контур 745" d="M266.642,70a4.222,4.222,0,1,0,4.222,4.222A4.227,4.227,0,0,0,266.642,70Zm0,6.927a2.7,2.7,0,1,1,2.7-2.705A2.707,2.707,0,0,1,266.642,76.929Z" transform="translate(-258 -65.652)" fill="#fff"/>
        <path id="Контур_746" data-name="Контур 746" d="M269.994,82.8H263.15A5.155,5.155,0,0,1,258,77.647V70.8a5.155,5.155,0,0,1,5.15-5.15h6.844a5.155,5.155,0,0,1,5.15,5.15v6.845A5.155,5.155,0,0,1,269.994,82.8ZM263.15,67.265a3.541,3.541,0,0,0-3.537,3.537v6.845a3.54,3.54,0,0,0,3.537,3.536h6.844a3.541,3.541,0,0,0,3.537-3.536V70.8a3.541,3.541,0,0,0-3.537-3.537Z" transform="translate(-258 -65.652)" fill="#fff"/>
      </g>
    </g>
  </g>
</svg>
