<svg xmlns="http://www.w3.org/2000/svg" width="29.243" height="29.242" viewBox="0 0 29.243 29.242">
  <g id="Сгруппировать_1394" data-name="Сгруппировать 1394" transform="translate(-35)">
    <rect id="Прямоугольник_169" data-name="Прямоугольник 169" width="29.242" height="29.243" rx="8" transform="translate(64.243 0) rotate(90)" fill="#8f7f72"/>
    <path id="Контур_85127" data-name="Контур 85127" d="M32.094,5.095a4.941,4.941,0,0,1-2.985-1A4.952,4.952,0,0,1,27.23,1.111a4.979,4.979,0,0,1-.1-.927h-3.2V8.933l0,4.792a2.9,2.9,0,1,1-1.991-2.75V7.725a6.3,6.3,0,0,0-.923-.068A6.14,6.14,0,0,0,16.4,9.72a6.017,6.017,0,0,0,.272,8.3,6.246,6.246,0,0,0,.578.505,6.14,6.14,0,0,0,3.763,1.272,6.3,6.3,0,0,0,.923-.068,6.119,6.119,0,0,0,3.419-1.71,5.994,5.994,0,0,0,1.8-4.266l-.016-7.156A8.113,8.113,0,0,0,32.1,8.281V5.094h-.009Z" transform="translate(26.125 4.815)" fill="#fff"/>
  </g>
</svg>
