<svg xmlns="http://www.w3.org/2000/svg" width="29.243" height="29.242" viewBox="0 0 29.243 29.242">
  <g id="Сгруппировать_1332" data-name="Сгруппировать 1332" transform="translate(-1053 -2637)">
    <g id="Сгруппировать_558" data-name="Сгруппировать 558" transform="translate(1053 2637)">
      <rect id="Прямоугольник_170" data-name="Прямоугольник 170" width="29.242" height="29.243" rx="8" transform="translate(29.243 0) rotate(90)" fill="#8f7f72"/>
      <path id="Контур_743" data-name="Контур 743" d="M317.135,69.214a6.611,6.611,0,0,1-1.613.46c.259-.043.64-.513.793-.7A2.966,2.966,0,0,0,316.85,68c.014-.028.024-.063,0-.084a.092.092,0,0,0-.086.007,8.236,8.236,0,0,1-1.912.732.128.128,0,0,1-.132-.035,1.508,1.508,0,0,0-.167-.171,3.382,3.382,0,0,0-.926-.567,3.225,3.225,0,0,0-1.421-.229,3.39,3.39,0,0,0-1.348.381,3.468,3.468,0,0,0-1.087.888,3.332,3.332,0,0,0-.649,1.3,3.506,3.506,0,0,0-.034,1.373c.01.077,0,.087-.066.077a10.218,10.218,0,0,1-6.571-3.344c-.076-.088-.118-.088-.181.006a3.333,3.333,0,0,0,.568,3.937c.129.122.261.244.4.355a3.348,3.348,0,0,1-1.268-.355c-.077-.049-.115-.021-.122.066a2.024,2.024,0,0,0,.021.376,3.369,3.369,0,0,0,2.076,2.686,1.942,1.942,0,0,0,.422.129,3.755,3.755,0,0,1-1.244.038c-.091-.017-.125.028-.091.115a3.5,3.5,0,0,0,2.613,2.188c.118.021.237.021.356.049-.007.01-.015.01-.021.021a4.14,4.14,0,0,1-1.785.945,6.384,6.384,0,0,1-2.709.347c-.146-.021-.177-.02-.216,0s-.005.06.042.1c.184.122.372.23.564.335a8.967,8.967,0,0,0,1.811.725,9.65,9.65,0,0,0,9.367-2.19,9.833,9.833,0,0,0,2.592-7.171c0-.1.122-.16.194-.214a6.364,6.364,0,0,0,1.275-1.326.407.407,0,0,0,.084-.254v-.014C317.2,69.172,317.2,69.185,317.135,69.214Z" transform="translate(-294.435 -59.604)" fill="#fff"/>
    </g>
  </g>
</svg>
