<svg width="21" height="21" fill="none" xmlns="http://www.w3.org/2000/svg"><path opacity=".4" fill-rule="evenodd" clip-rule="evenodd" d="M10.707.328C7.945.328 7.598.34 6.513.39 5.431.44 4.691.61 4.045.862a4.98 4.98 0 0 0-1.802 1.173 4.993 4.993 0 0 0-1.174 1.802C.817 4.484.645 5.223.596 6.305.548 7.39.536 7.737.536 10.5c0 2.762.011 3.108.06 4.193.05 1.082.222 1.822.473 2.468.26.67.608 1.237 1.173 1.802a4.98 4.98 0 0 0 1.801 1.174c.648.252 1.387.423 2.47.473 1.085.049 1.431.061 4.193.061 2.763 0 3.108-.012 4.193-.061 1.083-.05 1.823-.221 2.47-.473a4.977 4.977 0 0 0 1.8-1.174 4.995 4.995 0 0 0 1.175-1.802c.25-.646.421-1.386.472-2.468.05-1.085.062-1.431.062-4.193 0-2.763-.013-3.11-.062-4.194-.05-1.083-.222-1.822-.472-2.47a4.993 4.993 0 0 0-1.174-1.801A4.971 4.971 0 0 0 17.369.862C16.72.611 15.98.44 14.898.39c-1.085-.05-1.43-.062-4.194-.062h.003zm-.912 1.835h.912c2.716 0 3.038.01 4.11.058.992.046 1.53.211 1.889.35.475.185.813.405 1.169.761.356.356.576.695.761 1.17.14.358.305.896.35 1.888.049 1.072.06 1.394.06 4.109 0 2.714-.011 3.036-.06 4.109-.045.991-.21 1.53-.35 1.888a3.145 3.145 0 0 1-.761 1.168 3.145 3.145 0 0 1-1.169.76c-.358.14-.897.306-1.888.351-1.073.05-1.395.06-4.11.06-2.717 0-3.038-.01-4.11-.06-.992-.045-1.53-.211-1.89-.35a3.15 3.15 0 0 1-1.17-.761 3.152 3.152 0 0 1-.76-1.17c-.14-.357-.305-.895-.35-1.887-.05-1.072-.06-1.394-.06-4.11 0-2.717.01-3.037.06-4.11.045-.991.21-1.53.35-1.888.184-.475.405-.814.76-1.17a3.157 3.157 0 0 1 1.17-.76c.36-.14.898-.306 1.89-.352.938-.042 1.301-.055 3.197-.057v.003zm6.342 1.689a1.22 1.22 0 1 0 0 2.442 1.22 1.22 0 0 0 0-2.442zm-5.43 1.425a5.224 5.224 0 1 0 0 10.448 5.224 5.224 0 0 0 0-10.448zm0 1.832a3.39 3.39 0 1 1 0 6.781 3.39 3.39 0 0 1 0-6.78z" fill="#fff"/></svg>