<svg width="138" height="31" fill="none" xmlns="http://www.w3.org/2000/svg"><path d="M32.964 4.576c-1.782-1.781-4.204-2.724-7.006-2.724-.818.002-1.635.079-2.44.228a16.332 16.332 0 0 0-3.588 1.1 21.165 21.165 0 0 1 4.232 3.371l.175-.033a9.016 9.016 0 0 1 1.615-.155c1.593 0 2.919.487 3.837 1.403 1.233 1.232 1.667 3.162 1.233 5.455a12.748 12.748 0 0 1-1.541 4.061 16.286 16.286 0 0 1-1.85 2.562c.005-.827-.069-1.653-.218-2.466-.616-3.489-2.552-6.983-5.409-9.843-2.857-2.86-6.345-4.79-9.834-5.425a13.76 13.76 0 0 0-2.425-.221c-2.805 0-5.24.943-7.015 2.727-2.299 2.3-3.19 5.652-2.505 9.443.616 3.486 2.551 6.98 5.408 9.84 2.857 2.86 6.355 4.78 9.844 5.412h.08c.722.139 1.456.208 2.191.207h.151c.87.003 1.738-.095 2.586-.29 3.39-.687 6.78-2.58 9.554-5.363 2.863-2.863 4.789-6.364 5.42-9.862.694-3.766-.193-7.122-2.495-9.427zm-9.98 13.591c.413 2.29-.034 4.225-1.257 5.449a4.817 4.817 0 0 1-2.537 1.282 9.268 9.268 0 0 1-1.426.12h-.407c-.136 0-.351-.028-.53-.05l-.157-.018-.084-.015a4.836 4.836 0 0 1-2.66-1.304 4.418 4.418 0 0 1-.499-.616 5.018 5.018 0 0 1-.767-1.85 7.89 7.89 0 0 1 .018-3.004c.472-2.598 1.954-5.24 4.177-7.47.314-.315.637-.616.97-.904.342.293.675.598.999.925 2.216 2.219 3.692 4.866 4.16 7.458v-.003zm-18.321-4.91c-.413-2.292.033-4.228 1.257-5.451C6.845 6.88 8.167 6.4 9.763 6.4a8.935 8.935 0 0 1 1.606.151c.857.158 1.694.41 2.496.752l-.203.198c-2.654 2.656-4.503 5.855-5.261 9.094a13.65 13.65 0 0 0-.382 3.254c-1.77-2.021-2.947-4.326-3.356-6.588v-.003z" fill="#EA2667"/><path d="M55.646 7.517a8.27 8.27 0 0 0-4.389-1.195 7.594 7.594 0 0 0-3.476.77 6.164 6.164 0 0 0-1.997 1.572V6.698h-3.932V30.1h4.154v-7.935a5.796 5.796 0 0 0 1.809 1.297c1.07.49 2.235.738 3.412.724a8.408 8.408 0 0 0 4.434-1.18 8.512 8.512 0 0 0 3.082-3.224 9.187 9.187 0 0 0 1.134-4.53 9.066 9.066 0 0 0-1.134-4.518 8.63 8.63 0 0 0-3.097-3.218zm-.66 10.411a4.455 4.455 0 0 1-1.716 1.809 4.893 4.893 0 0 1-2.515.644 4.717 4.717 0 0 1-2.422-.644 4.45 4.45 0 0 1-1.714-1.809 5.643 5.643 0 0 1-.616-2.675 5.576 5.576 0 0 1 .616-2.641 4.562 4.562 0 0 1 4.105-2.494c.89-.02 1.769.214 2.53.675a4.885 4.885 0 0 1 1.717 1.825c.425.809.637 1.712.617 2.626a5.68 5.68 0 0 1-.602 2.684zM66.932 7.25a3.753 3.753 0 0 0-1.51 1.753V6.698h-3.93v17.114h4.152v-9.533c0-1.3.361-2.307 1.084-3.02a3.844 3.844 0 0 1 2.814-1.07h1.48V6.51h-1.005a6.105 6.105 0 0 0-3.085.74zM86.031 8.806a7.336 7.336 0 0 0-2.595-1.824 8.938 8.938 0 0 0-3.553-.66 8.32 8.32 0 0 0-4.315 1.147 8.404 8.404 0 0 0-3.082 3.162 9.204 9.204 0 0 0-1.13 4.592 9.403 9.403 0 0 0 1.1 4.53 8.32 8.32 0 0 0 3.081 3.239c1.4.818 3.001 1.232 4.623 1.196a9.437 9.437 0 0 0 3.239-.537 7.852 7.852 0 0 0 2.564-1.491 5.647 5.647 0 0 0 1.556-2.157l-3.334-1.637a4.368 4.368 0 0 1-3.963 2.2 4.623 4.623 0 0 1-2.5-.674 4.24 4.24 0 0 1-1.636-1.871 4.957 4.957 0 0 1-.413-1.575H88c.072-.268.125-.54.157-.817.044-.312.065-.627.065-.943a9.07 9.07 0 0 0-.567-3.226c-.369-.98-.92-1.88-1.624-2.654zm-8.444 1.587a4.077 4.077 0 0 1 2.296-.644 4.006 4.006 0 0 1 2.296.663 3.661 3.661 0 0 1 1.399 1.775c.13.348.207.714.23 1.085h-8.027a5.09 5.09 0 0 1 .308-1.005c.3-.76.821-1.414 1.498-1.874zM98.839 20.383a3.698 3.698 0 0 1-1.603-.308 2.01 2.01 0 0 1-.961-.897 3.249 3.249 0 0 1-.309-1.495V10.38h3.964V6.7h-3.954V2.801h-4.152v1.288c0 .86-.23 1.511-.69 1.95a2.715 2.715 0 0 1-1.95.66h-.309v3.68h2.956v7.55c0 1.91.535 3.398 1.605 4.466 1.07 1.069 2.567 1.6 4.49 1.594.309 0 .666-.016 1.055-.05.388-.034.718-.067.992-.108v-3.54l-.583.064a5.186 5.186 0 0 1-.551.028zM115.731 10.065V6.699h-13.81v3.68h8.296l-8.768 10.065v3.366h14.312v-3.68h-8.555l8.525-10.065z" fill="#fff"/><path d="M130.307 8.806a7.328 7.328 0 0 0-2.595-1.824 8.935 8.935 0 0 0-3.547-.66 8.295 8.295 0 0 0-7.397 4.315 9.215 9.215 0 0 0-1.134 4.592 9.41 9.41 0 0 0 1.1 4.53 8.328 8.328 0 0 0 3.082 3.239 8.754 8.754 0 0 0 4.623 1.196 9.436 9.436 0 0 0 3.239-.536 7.848 7.848 0 0 0 2.564-1.492 5.64 5.64 0 0 0 1.541-2.157l-3.303-1.64a4.367 4.367 0 0 1-3.964 2.2 4.623 4.623 0 0 1-2.499-.674 4.246 4.246 0 0 1-1.637-1.871 4.973 4.973 0 0 1-.413-1.575h12.328c.072-.268.124-.541.157-.817a6.92 6.92 0 0 0 .065-.943 8.996 8.996 0 0 0-.567-3.226 8.303 8.303 0 0 0-1.643-2.657zm-8.444 1.587a4.076 4.076 0 0 1 2.302-.644 4.006 4.006 0 0 1 2.296.663 3.657 3.657 0 0 1 1.399 1.775c.13.348.208.714.231 1.085h-8.013c.071-.344.174-.68.309-1.005a4.079 4.079 0 0 1 1.476-1.874zM138 0h-4.151v23.81H138V0z" fill="#fff"/></svg>