<svg width="311" height="588" viewBox="0 0 311 588" fill="none" xmlns="http://www.w3.org/2000/svg">
<path fill-rule="evenodd" clip-rule="evenodd" d="M104.542 20.5441C167.874 30.3875 251.406 17.1341 284.996 71.7184C320.092 128.75 251.06 198.59 255.237 265.425C258.672 320.401 326.196 366.715 306.648 418.213C287.33 469.106 214.554 468.43 167.675 496.1C117.113 525.945 79.9419 580.405 21.5454 586.496C-44.1528 593.349 -114.163 574.539 -163.526 530.647C-213.938 485.823 -239.708 417.697 -244.008 350.377C-248.046 287.135 -213.413 231.401 -186.295 174.126C-158.606 115.647 -142.064 44.4478 -84.8493 14.2343C-27.5921 -16.0013 40.5604 10.5995 104.542 20.5441Z" fill="#FFF7F9"/>
</svg>
