<svg width="399" height="561" viewBox="0 0 399 561" fill="none" xmlns="http://www.w3.org/2000/svg">
<path fill-rule="evenodd" clip-rule="evenodd" d="M345.202 188.688C367.697 248.703 420.228 314.988 389.145 371.038C356.668 429.6 261.943 403.713 205.754 440.143C159.535 470.109 152.307 551.67 97.842 559.903C44.0177 568.039 8.9009 504.292 -38.2099 477.019C-89.0226 447.603 -154.715 441.932 -188.673 394.035C-226.877 340.15 -244.835 269.917 -230.808 205.368C-216.482 139.45 -169.763 83.5696 -113.211 46.7945C-60.0856 12.2473 5.47165 15.0812 68.6845 10.6114C133.226 6.0477 203.382 -14.4705 257.781 20.5618C312.219 55.6199 322.477 128.057 345.202 188.688Z" fill="#FFF7F9"/>
</svg>
