<svg width="177" height="51" viewBox="0 0 177 51" fill="none" xmlns="http://www.w3.org/2000/svg">
<path d="M84.032 19.6015C83.552 19.8735 83.04 20.0335 82.496 20.0815C81.968 20.1135 81.472 20.0415 81.008 19.8655C80.544 19.6735 80.168 19.3935 79.88 19.0255C79.72 18.8175 79.568 18.4895 79.424 18.0415C79.28 17.5775 79.256 16.9535 79.352 16.1695C79.448 15.4335 79.672 14.6895 80.024 13.9375C80.392 13.1855 80.84 12.5215 81.368 11.9455C81.896 11.3695 82.472 10.9775 83.096 10.7695C83.32 10.6895 83.544 10.6335 83.768 10.6015C84.008 10.5535 84.32 10.5455 84.704 10.5775C85.072 10.6255 85.4 10.7215 85.688 10.8655C85.976 10.9935 86.184 11.1375 86.312 11.2975C86.568 11.5535 86.736 11.8015 86.816 12.0415C86.896 12.2815 86.928 12.5135 86.912 12.7375C86.832 13.2495 86.6 13.8015 86.216 14.3935C85.848 14.9855 85.328 15.4255 84.656 15.7135C84.384 15.8255 84.064 15.8975 83.696 15.9295C83.328 15.9615 82.824 15.9135 82.184 15.7855C81.8 15.7055 81.544 15.7455 81.416 15.9055C81.304 16.0655 81.256 16.3775 81.272 16.8415C81.304 17.1295 81.368 17.3855 81.464 17.6095C81.576 17.8175 81.776 17.9615 82.064 18.0415C82.432 18.1055 82.696 18.1135 82.856 18.0655C83.016 18.0015 83.216 17.9135 83.456 17.8015C83.584 17.7215 83.704 17.6335 83.816 17.5375C83.944 17.4415 84.064 17.3455 84.176 17.2495C84.304 17.1535 84.408 17.0815 84.488 17.0335C84.568 16.9695 84.648 16.9295 84.728 16.9135C84.808 16.8975 84.888 16.8895 84.968 16.8895C85.144 16.9055 85.312 17.0015 85.472 17.1775C85.632 17.3535 85.736 17.5215 85.784 17.6815C85.784 17.8095 85.704 17.9935 85.544 18.2335C85.384 18.4575 85.168 18.6975 84.896 18.9535C84.64 19.1935 84.352 19.4095 84.032 19.6015ZM83.72 14.2495C83.832 14.2015 83.992 14.0895 84.2 13.9135C84.424 13.7375 84.624 13.5535 84.8 13.3615C84.976 13.1535 85.064 12.9935 85.064 12.8815C85.064 12.7055 84.944 12.5535 84.704 12.4255C84.48 12.2975 84.184 12.2735 83.816 12.3535C83.688 12.3855 83.536 12.4735 83.36 12.6175C83.184 12.7615 83.008 12.9295 82.832 13.1215C82.656 13.2975 82.504 13.4735 82.376 13.6495C82.248 13.8095 82.16 13.9375 82.112 14.0335C82.176 14.1135 82.304 14.1775 82.496 14.2255C82.688 14.2735 82.896 14.2975 83.12 14.2975C83.36 14.2975 83.56 14.2815 83.72 14.2495ZM88.6876 20.2255C88.1436 20.0015 87.7436 19.7695 87.4876 19.5295C87.2476 19.2735 87.1516 19.0495 87.1996 18.8575C87.2316 18.7615 87.2876 18.6735 87.3676 18.5935C87.4476 18.5135 87.6236 18.4815 87.8956 18.4975C88.1836 18.4975 88.6236 18.5695 89.2156 18.7135C89.3916 18.7135 89.5676 18.7055 89.7436 18.6895C89.9196 18.6735 90.0796 18.6495 90.2236 18.6175C90.3836 18.5855 90.5116 18.5455 90.6076 18.4975C90.6876 18.4655 90.7116 18.4255 90.6796 18.3775C90.6476 18.3135 90.5916 18.2495 90.5116 18.1855C90.4476 18.1055 90.3756 18.0575 90.2956 18.0415C90.2156 18.0095 90.1436 17.9935 90.0796 17.9935C90.0476 17.9135 89.9756 17.8335 89.8636 17.7535C89.7676 17.6735 89.6476 17.5855 89.5036 17.4895C89.1516 17.2015 88.8316 16.9455 88.5436 16.7215C88.2556 16.4975 88.1436 16.3295 88.2076 16.2175C88.2076 16.1535 88.2076 16.1215 88.2076 16.1215C88.2076 16.1055 88.2076 16.0975 88.2076 16.0975C88.0956 16.0975 87.9916 15.9455 87.8956 15.6415C87.7996 15.3215 87.7516 15.0335 87.7516 14.7775C87.7516 14.4575 87.8156 14.1375 87.9436 13.8175C88.0876 13.4975 88.2636 13.1935 88.4716 12.9055C88.6956 12.6175 88.9196 12.3615 89.1436 12.1375C89.4476 11.8495 89.7676 11.5695 90.1036 11.2975C90.4556 11.0095 90.8316 10.7535 91.2316 10.5295C91.6476 10.3055 92.1036 10.1295 92.5996 10.0015C92.8236 9.95354 93.0796 9.92954 93.3676 9.92954C93.6556 9.92954 93.8636 9.96954 93.9916 10.0495C94.1196 9.96954 94.2796 9.99354 94.4716 10.1215C94.6636 10.2335 94.8556 10.3935 95.0476 10.6015C95.2396 10.8095 95.3836 11.0175 95.4796 11.2255C95.4796 11.4175 95.4716 11.6575 95.4556 11.9455C95.4556 12.2175 95.4396 12.4575 95.4076 12.6655C95.3756 12.8735 95.3036 12.9775 95.1916 12.9775C95.1916 12.9775 95.1676 12.9855 95.1196 13.0015C95.0876 13.0015 95.0716 13.0415 95.0716 13.1215C95.0716 13.2815 94.9516 13.4655 94.7116 13.6735C94.4076 13.8815 94.1196 14.0495 93.8476 14.1775C93.5756 14.3055 93.3676 14.3135 93.2236 14.2015C93.1276 14.1375 93.0396 14.0735 92.9596 14.0095C92.8796 13.9455 92.8076 13.8655 92.7436 13.7695C92.7436 13.7695 92.7196 13.7375 92.6716 13.6735C92.6396 13.5935 92.6236 13.5215 92.6236 13.4575C92.6236 13.3935 92.6476 13.3375 92.6956 13.2895C92.7436 13.2255 92.7676 13.1935 92.7676 13.1935C92.9916 12.9855 93.1596 12.7935 93.2716 12.6175C93.3996 12.4415 93.4876 12.2895 93.5356 12.1615C93.5836 12.0175 93.6076 11.9055 93.6076 11.8255C93.6076 11.7295 93.5836 11.6735 93.5356 11.6575C93.5036 11.6255 93.4236 11.6095 93.2956 11.6095C93.2156 11.6095 93.0396 11.6735 92.7676 11.8015C92.5116 11.9295 92.2396 12.0895 91.9516 12.2815C91.6636 12.4575 91.4396 12.6175 91.2796 12.7615C91.2156 12.8735 91.1676 12.9455 91.1356 12.9775C91.1196 13.0095 91.0796 13.0255 91.0156 13.0255C91.0156 12.9615 90.9756 12.9695 90.8956 13.0495C90.8156 13.1295 90.7196 13.2415 90.6076 13.3855C90.4956 13.5295 90.3836 13.6815 90.2716 13.8415C90.1596 14.0015 90.0716 14.1295 90.0076 14.2255C89.9916 14.3695 89.9516 14.5055 89.8876 14.6335C89.8396 14.7455 89.8236 14.8655 89.8396 14.9935C89.8556 15.1535 89.9356 15.3055 90.0796 15.4495C90.2236 15.5935 90.4316 15.7775 90.7036 16.0015C91.2636 16.4175 91.6796 16.7455 91.9516 16.9855C92.2396 17.2255 92.4396 17.4175 92.5516 17.5615C92.6636 17.7055 92.7356 17.8495 92.7676 17.9935C93.0396 18.4895 93.0716 18.9215 92.8636 19.2895C92.6556 19.6415 92.3356 19.9135 91.9036 20.1055C91.7436 20.1855 91.4636 20.2575 91.0636 20.3215C90.6636 20.4015 90.2396 20.4335 89.7916 20.4175C89.3596 20.4175 88.9916 20.3535 88.6876 20.2255ZM95.5903 24.5215C95.3663 24.5855 95.1343 24.5295 94.8943 24.3535C94.6703 24.1775 94.4943 23.9375 94.3663 23.6335C94.2543 23.3295 94.2543 23.0175 94.3663 22.6975C94.3983 22.6015 94.4463 22.4415 94.5103 22.2175C94.5743 22.0095 94.6143 21.8255 94.6303 21.6655C94.6463 21.5535 94.6943 21.3615 94.7743 21.0895C94.8543 20.8335 94.9423 20.5775 95.0383 20.3215C95.1503 20.0655 95.2383 19.8815 95.3023 19.7695C95.3983 19.6095 95.4623 19.4255 95.4943 19.2175C95.5423 19.0095 95.5663 18.8495 95.5663 18.7375C95.5983 18.6255 95.6383 18.4975 95.6863 18.3535C95.7503 18.2095 95.8143 18.0975 95.8783 18.0175C95.9103 17.8895 95.9583 17.7535 96.0223 17.6095C96.0863 17.4495 96.1583 17.3135 96.2383 17.2015C96.2703 17.0895 96.2943 16.9535 96.3103 16.7935C96.3423 16.6335 96.3903 16.5455 96.4543 16.5295C96.4703 16.4655 96.4783 16.4015 96.4783 16.3375C96.4943 16.2735 96.5263 16.1855 96.5742 16.0735C96.6063 15.8975 96.6783 15.6415 96.7903 15.3055C96.9023 14.9695 97.0383 14.6015 97.1983 14.2015C97.3743 13.7375 97.4943 13.3375 97.5583 13.0015C97.6223 12.6495 97.5343 12.4255 97.2943 12.3295C97.1663 12.2655 97.0863 12.1215 97.0543 11.8975C97.0223 11.6575 97.0383 11.4175 97.1023 11.1775C97.1663 10.9375 97.2623 10.7935 97.3903 10.7455C97.5343 10.6815 97.7103 10.6415 97.9183 10.6255C98.1263 10.6095 98.3103 10.6095 98.4703 10.6255C98.6463 10.6255 98.7263 10.6415 98.7103 10.6735C98.7103 10.7535 98.7503 10.8015 98.8303 10.8175C98.8623 10.7695 98.9263 10.8415 99.0223 11.0335C99.1343 11.2095 99.2383 11.4095 99.3343 11.6335C99.4303 11.8575 99.4783 12.0095 99.4783 12.0895C99.4463 12.1535 99.4303 12.1935 99.4303 12.2095C99.4303 12.2095 99.4623 12.2095 99.5263 12.2095C99.5263 12.2095 99.6143 12.1695 99.7903 12.0895C99.9663 11.9935 100.15 11.8895 100.342 11.7775C100.55 11.6495 100.686 11.5535 100.75 11.4895C100.75 11.4895 100.79 11.4735 100.87 11.4415C100.966 11.3935 101.046 11.3375 101.11 11.2735C101.43 11.1455 101.774 11.1215 102.142 11.2015C102.526 11.2815 102.83 11.4255 103.054 11.6335C103.374 12.0335 103.614 12.5295 103.774 13.1215C103.95 13.7135 103.926 14.2895 103.702 14.8495C103.67 14.9295 103.598 15.0655 103.486 15.2575C103.39 15.4335 103.294 15.6015 103.198 15.7615C103.102 15.9055 103.054 15.9775 103.054 15.9775C102.686 16.5535 102.278 17.0335 101.83 17.4175C101.398 17.8015 100.926 18.1375 100.414 18.4255C100.254 18.5375 100.03 18.6415 99.7422 18.7375C99.4703 18.8335 99.2143 18.9055 98.9743 18.9535C98.7503 19.0015 98.6143 19.0095 98.5663 18.9775C98.3903 18.8495 98.2303 18.5775 98.0863 18.1615C98.0063 18.3695 97.9263 18.5775 97.8463 18.7855C97.7823 18.9775 97.7423 19.1055 97.7263 19.1695C97.7103 19.2815 97.6943 19.3775 97.6783 19.4575C97.6623 19.5215 97.6223 19.5775 97.5583 19.6255C97.5583 19.6255 97.5503 19.6575 97.5343 19.7215C97.5183 19.7855 97.4623 19.8815 97.3663 20.0095C97.2063 20.4735 97.0783 20.8335 96.9823 21.0895C96.8863 21.3615 96.8063 21.5775 96.7423 21.7375C96.6943 21.9135 96.6463 22.0975 96.5983 22.2895C96.5663 22.7215 96.4623 23.1775 96.2863 23.6575C96.1263 24.1375 95.8943 24.4255 95.5903 24.5215ZM99.1663 16.7215C99.2303 16.6895 99.3423 16.6335 99.5023 16.5535C99.6783 16.4735 99.8703 16.3775 100.078 16.2655C100.286 16.1375 100.478 16.0175 100.654 15.9055C100.846 15.7775 100.982 15.6655 101.062 15.5695C101.19 15.4255 101.262 15.3135 101.278 15.2335C101.294 15.1375 101.334 14.9855 101.398 14.7775C101.446 14.6495 101.502 14.5055 101.566 14.3455C101.63 14.1855 101.686 14.0335 101.734 13.8895C101.798 13.7615 101.822 13.6335 101.806 13.5055C101.806 13.3615 101.758 13.2415 101.662 13.1455C101.598 13.1295 101.446 13.1535 101.206 13.2175C100.982 13.2815 100.718 13.4095 100.414 13.6015C100.126 13.7935 99.8383 14.0735 99.5503 14.4415C99.2143 14.8735 98.9903 15.2655 98.8783 15.6175C98.7663 15.9535 98.7423 16.2255 98.8063 16.4335C98.8703 16.6255 98.9903 16.7215 99.1663 16.7215ZM107.301 20.5135C106.421 20.5135 105.741 20.2575 105.261 19.7455C104.797 19.2335 104.565 18.4495 104.565 17.3935C104.565 16.8175 104.669 16.1855 104.877 15.4975C105.101 14.8095 105.389 14.1375 105.741 13.4815C106.109 12.8255 106.509 12.2575 106.941 11.7775C107.373 11.2815 107.805 10.9375 108.237 10.7455C108.397 10.6655 108.565 10.6095 108.741 10.5775C108.933 10.5295 109.117 10.5055 109.293 10.5055C109.485 10.5055 109.693 10.5215 109.917 10.5535C110.157 10.5695 110.381 10.6175 110.589 10.6975C110.957 10.8095 111.277 11.0255 111.549 11.3455C111.837 11.6655 111.981 12.1295 111.981 12.7375C111.981 12.8975 111.965 13.0735 111.933 13.2655C111.901 13.4415 111.845 13.6175 111.765 13.7935C111.557 14.3215 111.237 14.8255 110.805 15.3055C110.389 15.7855 109.949 16.1215 109.485 16.3135C109.357 16.3775 109.229 16.4255 109.101 16.4575C108.989 16.4735 108.869 16.4815 108.741 16.4815C108.405 16.4815 108.101 16.4335 107.829 16.3375C107.573 16.2415 107.333 16.1135 107.109 15.9535L106.917 15.7855L106.797 16.0255C106.685 16.3295 106.605 16.5855 106.557 16.7935C106.525 17.0015 106.509 17.1535 106.509 17.2495C106.509 17.4415 106.517 17.6415 106.533 17.8495C106.549 18.0415 106.597 18.2015 106.677 18.3295C106.741 18.4095 106.821 18.4735 106.917 18.5215C107.029 18.5695 107.165 18.5935 107.325 18.5935C107.421 18.5935 107.509 18.5935 107.589 18.5935C107.685 18.5775 107.765 18.5615 107.829 18.5455C108.117 18.4815 108.349 18.3775 108.525 18.2335C108.717 18.0735 108.917 17.9375 109.125 17.8255L109.221 17.7775L109.197 17.7055C109.469 17.5615 109.653 17.4735 109.749 17.4415C109.845 17.3935 109.917 17.3535 109.965 17.3215C110.029 17.2575 110.101 17.2255 110.181 17.2255C110.405 17.1935 110.621 17.2575 110.829 17.4175C111.053 17.5615 111.165 17.7455 111.165 17.9695C111.165 18.0655 111.093 18.2175 110.949 18.4255C110.821 18.6335 110.653 18.8415 110.445 19.0495C110.253 19.2415 110.053 19.3935 109.845 19.5055C109.797 19.5215 109.749 19.5455 109.701 19.5775C109.653 19.5935 109.605 19.6175 109.557 19.6495H109.581C109.437 19.8415 109.293 19.9375 109.149 19.9375H108.957C108.893 20.0495 108.685 20.1695 108.333 20.2975C107.981 20.4415 107.637 20.5135 107.301 20.5135ZM108.549 14.7295C108.693 14.7295 108.821 14.7055 108.933 14.6575C109.061 14.6095 109.181 14.5535 109.293 14.4895C109.677 14.2175 109.925 13.8655 110.037 13.4335C110.149 13.0015 110.109 12.6735 109.917 12.4495C109.885 12.4015 109.845 12.3695 109.797 12.3535C109.749 12.3215 109.693 12.3055 109.629 12.3055C109.453 12.3055 109.253 12.3615 109.029 12.4735C108.821 12.5855 108.613 12.7455 108.405 12.9535C108.197 13.1615 108.005 13.4095 107.829 13.6975L107.517 14.2015C107.549 14.1855 107.573 14.1775 107.589 14.1775C107.621 14.1615 107.645 14.1535 107.661 14.1535C107.805 14.1535 107.901 14.2015 107.949 14.2975C107.997 14.3935 108.053 14.4895 108.117 14.5855C108.197 14.6815 108.341 14.7295 108.549 14.7295ZM116.444 19.8655C116.236 19.9615 115.996 20.0015 115.724 19.9855C115.452 19.9695 115.084 19.8815 114.62 19.7215C114.588 19.7215 114.476 19.6495 114.284 19.5055C114.092 19.3615 113.9 19.1935 113.708 19.0015C113.516 18.8095 113.388 18.6495 113.324 18.5215C113.068 18.1535 112.988 17.6095 113.084 16.8895C113.196 16.1695 113.452 15.3055 113.852 14.2975C113.964 14.0575 114.132 13.7535 114.356 13.3855C114.596 13.0175 114.828 12.6815 115.052 12.3775C115.292 12.0575 115.46 11.8735 115.556 11.8255C115.556 11.8255 115.644 11.7935 115.82 11.7295C115.996 11.6655 116.22 11.5615 116.492 11.4175C116.572 11.3855 116.708 11.3455 116.9 11.2975C117.108 11.2495 117.316 11.2095 117.524 11.1775C117.748 11.1295 117.9 11.1135 117.98 11.1295C118.3 11.1455 118.628 11.2655 118.964 11.4895C119.316 11.6975 119.604 11.9455 119.828 12.2335C120.052 12.5055 120.124 12.7455 120.044 12.9535C120.044 12.9855 119.996 13.0895 119.9 13.2655C119.82 13.4255 119.732 13.5935 119.636 13.7695C119.54 13.9295 119.46 14.0495 119.396 14.1295C119.316 14.2255 119.172 14.2655 118.964 14.2495C118.772 14.2335 118.596 14.1695 118.436 14.0575C118.276 13.9455 118.188 13.7935 118.172 13.6015C118.14 13.4735 118.02 13.3535 117.812 13.2415C117.62 13.1295 117.524 13.0735 117.524 13.0735C117.396 13.0735 117.228 13.2015 117.02 13.4575C116.812 13.7135 116.596 14.0015 116.372 14.3215C116.084 14.6095 115.876 14.9215 115.748 15.2575C115.636 15.5775 115.556 15.8815 115.508 16.1695C115.476 16.4415 115.436 16.6495 115.388 16.7935C115.324 16.9535 115.324 17.1535 115.388 17.3935C115.452 17.6335 115.532 17.7695 115.628 17.8015C115.772 17.8175 115.964 17.8095 116.204 17.7775C116.46 17.7295 116.724 17.6735 116.996 17.6095C117.284 17.5295 117.572 17.4495 117.86 17.3695C118.148 17.2735 118.404 17.1775 118.628 17.0815C118.932 16.8895 119.196 16.8175 119.42 16.8655C119.644 16.8975 119.812 16.9295 119.924 16.9615C120.1 17.0255 120.188 17.1615 120.188 17.3695C120.188 17.5775 120.116 17.8015 119.972 18.0415C119.828 18.2655 119.62 18.4495 119.348 18.5935C119.092 18.7215 118.86 18.8655 118.652 19.0255C118.46 19.1695 118.364 19.2815 118.364 19.3615C118.3 19.3615 118.228 19.3855 118.148 19.4335C118.084 19.4655 118.028 19.4735 117.98 19.4575C117.948 19.4575 117.82 19.4815 117.596 19.5295C117.372 19.5775 117.14 19.6335 116.9 19.6975C116.676 19.7615 116.524 19.8175 116.444 19.8655ZM122.8 19.2895C122.736 19.2895 122.6 19.2415 122.392 19.1455C122.184 19.0495 122.08 19.0015 122.08 19.0015C122.08 18.9375 122.056 18.8575 122.008 18.7615C121.976 18.6655 121.96 18.5855 121.96 18.5215C121.848 18.4575 121.736 18.3535 121.624 18.2095C121.512 18.0655 121.488 17.9055 121.552 17.7295C121.648 17.5535 121.776 17.2895 121.936 16.9375C122.112 16.5695 122.296 16.1615 122.488 15.7135C122.696 15.2495 122.888 14.8015 123.064 14.3695C123.24 13.9375 123.392 13.5695 123.52 13.2655C123.648 12.9455 123.72 12.7535 123.736 12.6895C123.736 12.6255 123.744 12.5135 123.76 12.3535C123.792 12.1935 123.896 12.0575 124.072 11.9455C124.28 11.8015 124.496 11.7935 124.72 11.9215C124.944 12.0495 125.136 12.2735 125.296 12.5935C125.456 12.8975 125.536 13.2575 125.536 13.6735C125.536 13.7855 125.456 14.0735 125.296 14.5375C125.136 14.9855 124.92 15.5215 124.648 16.1455C124.392 16.7695 124.104 17.4015 123.784 18.0415C123.544 18.5055 123.36 18.8335 123.232 19.0255C123.12 19.2015 122.976 19.2895 122.8 19.2895ZM126.064 10.0975C125.872 10.0975 125.64 10.0095 125.368 9.83354C125.112 9.65754 124.88 9.43354 124.672 9.16154C124.464 8.88954 124.36 8.60154 124.36 8.29754C124.36 8.21754 124.432 8.07354 124.576 7.86554C124.72 7.64154 124.856 7.42554 124.984 7.21754C125.128 7.00954 125.2 6.88954 125.2 6.85754C125.328 6.85754 125.48 6.88154 125.656 6.92954C125.832 6.97754 125.976 7.03354 126.088 7.09754C126.264 7.49754 126.496 7.84154 126.784 8.12954C127.072 8.40154 127.216 8.71354 127.216 9.06554C127.216 9.41754 127.128 9.68154 126.952 9.85754C126.776 10.0175 126.48 10.0975 126.064 10.0975ZM127.343 19.5775C127.279 19.4495 127.135 19.3215 126.911 19.1935C126.703 19.0655 126.599 18.9695 126.599 18.9055C126.599 18.8415 126.559 18.7455 126.479 18.6175C126.415 18.4735 126.351 18.3695 126.287 18.3055C126.207 18.2095 126.231 17.9775 126.359 17.6095C126.487 17.2255 126.679 16.7615 126.935 16.2175C127.191 15.6735 127.471 15.1215 127.775 14.5615C127.903 14.4335 128.031 14.2655 128.159 14.0575C128.287 13.8495 128.383 13.7135 128.447 13.6495C128.447 13.5855 128.471 13.5295 128.519 13.4815C128.567 13.4175 128.623 13.3855 128.687 13.3855L128.879 13.0015C128.911 12.9375 129.007 12.8095 129.167 12.6175C129.343 12.4255 129.551 12.2175 129.791 11.9935C130.031 11.7535 130.271 11.5295 130.511 11.3215C130.767 11.1135 130.975 10.9615 131.135 10.8655C131.471 10.6415 131.815 10.5375 132.167 10.5535C132.535 10.5695 132.847 10.6815 133.103 10.8895C133.151 10.9375 133.255 11.0335 133.415 11.1775C133.591 11.3215 133.783 11.4815 133.991 11.6575C134.215 11.8335 134.407 11.9935 134.567 12.1375L135.455 12.9295L135.047 14.1295C134.839 14.7695 134.783 15.3295 134.879 15.8095C134.975 16.2895 135.127 16.7055 135.335 17.0575C135.415 17.2335 135.519 17.3695 135.647 17.4655C135.791 17.5615 135.975 17.6255 136.199 17.6575C136.327 17.6735 136.447 17.7215 136.559 17.8015C136.671 17.8815 136.727 18.0095 136.727 18.1855C136.727 18.5695 136.655 18.8495 136.511 19.0255C136.383 19.1855 136.239 19.2815 136.079 19.3135C135.551 19.3775 135.047 19.3215 134.567 19.1455C134.087 18.9695 133.655 18.5135 133.271 17.7775C133.207 17.6815 133.119 17.5055 133.007 17.2495C132.911 16.9775 132.855 16.8015 132.839 16.7215C132.775 16.8015 132.687 16.9055 132.575 17.0335C132.479 17.1455 132.383 17.2495 132.287 17.3455C131.151 18.4975 130.175 19.2495 129.359 19.6015C128.559 19.9375 127.887 19.9295 127.343 19.5775ZM128.663 17.5855C128.775 17.6015 128.951 17.5455 129.191 17.4175C129.431 17.2735 129.751 17.0415 130.151 16.7215C130.695 16.2575 131.143 15.8735 131.495 15.5695C131.847 15.2655 132.191 14.8735 132.527 14.3935L133.055 13.5295C132.895 13.1615 132.751 12.9215 132.623 12.8095C132.495 12.6975 132.367 12.6415 132.239 12.6415C132.031 12.6415 131.783 12.7775 131.495 13.0495C131.207 13.3055 130.879 13.6895 130.511 14.2015C130.159 14.6975 129.759 15.3215 129.311 16.0735C129.103 16.4255 128.943 16.7695 128.831 17.1055C128.719 17.4255 128.663 17.5855 128.663 17.5855ZM138.486 20.3455C138.182 20.4255 137.91 20.3375 137.67 20.0815C137.43 19.8415 137.262 19.4815 137.166 19.0015C137.07 18.5215 137.086 17.9855 137.214 17.3935C137.294 17.2015 137.358 17.0175 137.406 16.8415C137.454 16.6495 137.478 16.4975 137.478 16.3855C137.51 16.2255 137.574 15.9935 137.67 15.6895C137.766 15.3695 137.87 15.0415 137.982 14.7055C138.094 14.3695 138.198 14.0735 138.294 13.8175C138.406 13.5455 138.478 13.3775 138.51 13.3135C138.574 13.3135 138.63 13.2575 138.678 13.1455C138.726 13.0335 138.75 12.9215 138.75 12.8095C138.75 12.6815 138.774 12.5375 138.822 12.3775C138.886 12.2175 138.95 12.1055 139.014 12.0415C139.014 11.9615 139.03 11.8735 139.062 11.7775C139.11 11.6655 139.134 11.5775 139.134 11.5135C139.134 11.4495 139.15 11.3855 139.182 11.3215C139.23 11.2575 139.254 11.1935 139.254 11.1295C139.366 10.9215 139.51 10.5935 139.686 10.1455C139.878 9.68154 140.078 9.16954 140.286 8.60954C140.51 8.04954 140.718 7.49754 140.91 6.95354C141.102 6.40954 141.254 5.95354 141.366 5.58554C141.494 5.20154 141.558 4.96954 141.558 4.88954C141.558 4.76154 141.606 4.64154 141.702 4.52954C141.798 4.41754 141.91 4.36154 142.038 4.36154C142.086 4.31354 142.198 4.28154 142.374 4.26554C142.55 4.23354 142.67 4.21754 142.734 4.21754C142.734 4.21754 142.766 4.24954 142.83 4.31354C142.894 4.37754 142.99 4.47354 143.118 4.60154C143.246 4.71354 143.366 4.84154 143.478 4.98554C143.606 5.12954 143.67 5.29754 143.67 5.48954C143.67 5.69754 143.638 5.89754 143.574 6.08954C143.526 6.28154 143.43 6.54554 143.286 6.88154C143.142 7.20154 142.918 7.68154 142.614 8.32154C142.486 8.64154 142.35 8.94554 142.206 9.23354C142.062 9.50554 141.99 9.67354 141.99 9.73754C141.99 9.80154 141.958 9.89754 141.894 10.0255C141.846 10.1535 141.79 10.3135 141.726 10.5055C141.662 10.6335 141.574 10.8255 141.462 11.0815C141.35 11.3215 141.23 11.5855 141.102 11.8735C140.99 12.1455 140.894 12.3855 140.814 12.5935C140.734 12.7855 140.694 12.8975 140.694 12.9295C140.694 12.9935 140.686 13.0575 140.67 13.1215C140.67 13.1855 140.638 13.2495 140.574 13.3135C140.51 13.3135 140.47 13.3615 140.454 13.4575C140.454 13.5375 140.454 13.5775 140.454 13.5775C140.454 13.7375 140.326 14.1615 140.07 14.8495C139.814 15.7295 139.574 16.5375 139.35 17.2735C139.142 18.0095 139.038 18.6015 139.038 19.0495C139.038 19.4335 138.974 19.7295 138.846 19.9375C138.734 20.1455 138.614 20.2815 138.486 20.3455ZM142.368 19.5055C142.208 19.4095 142.032 19.2735 141.84 19.0975C141.648 18.9055 141.552 18.7215 141.552 18.5455C141.552 18.3055 141.584 18.0095 141.648 17.6575C141.712 17.2895 141.776 16.9775 141.84 16.7215C141.872 16.4335 141.912 16.1455 141.96 15.8575C142.024 15.5535 142.136 15.2735 142.296 15.0175C142.472 14.4095 142.656 13.8095 142.848 13.2175C143.04 12.6095 143.208 11.9855 143.352 11.3455C143.56 10.7535 143.744 10.2335 143.904 9.78554C144.08 9.32154 144.296 8.73754 144.552 8.03354C144.696 7.63354 144.816 7.20954 144.912 6.76154C145.024 6.29754 145.192 5.88154 145.416 5.51354C145.512 5.36954 145.584 5.24954 145.632 5.15354C145.696 5.04154 145.76 4.93754 145.824 4.84154C145.84 4.77754 145.92 4.72154 146.064 4.67354C146.224 4.62554 146.384 4.60154 146.544 4.60154C146.72 4.58554 146.84 4.61754 146.904 4.69754C146.952 4.68154 147.032 4.74554 147.144 4.88954C147.256 5.01754 147.36 5.16954 147.456 5.34554C147.568 5.50554 147.616 5.63354 147.6 5.72954C147.6 5.79354 147.584 5.88154 147.552 5.99354C147.536 6.10554 147.496 6.20954 147.432 6.30554C147.368 6.36954 147.304 6.46554 147.24 6.59354C147.192 6.70554 147.112 6.86554 147 7.07354C146.936 7.28154 146.88 7.49754 146.832 7.72154C146.784 7.92954 146.72 8.12154 146.64 8.29754C146.576 8.48954 146.496 8.67354 146.4 8.84954C146.32 9.02554 146.264 9.16954 146.232 9.28154C146.12 9.64954 145.984 10.0095 145.824 10.3615C145.68 10.7135 145.552 11.0895 145.44 11.4895C145.328 11.8735 145.216 12.2735 145.104 12.6895C144.992 13.0895 144.832 13.4735 144.624 13.8415C144.512 14.0175 144.432 14.2415 144.384 14.5135C144.336 14.7855 144.288 15.0575 144.24 15.3295C144.144 15.6175 144.056 15.8895 143.976 16.1455C143.912 16.3855 143.88 16.5375 143.88 16.6015C143.784 16.9535 143.712 17.3055 143.664 17.6575C143.632 17.9935 143.552 18.2895 143.424 18.5455C143.408 18.7055 143.352 18.8815 143.256 19.0735C143.16 19.2655 143.032 19.4095 142.872 19.5055C142.728 19.6015 142.56 19.6015 142.368 19.5055ZM147.353 25.7935C147.289 25.8095 147.193 25.7855 147.065 25.7215C146.953 25.6575 146.857 25.5455 146.777 25.3855C146.697 25.2255 146.673 25.0175 146.705 24.7615C146.641 24.5375 146.649 24.2575 146.729 23.9215C146.825 23.6015 147.025 23.1215 147.329 22.4815C147.489 22.2255 147.633 21.9215 147.761 21.5695C147.905 21.2175 148.065 20.8655 148.241 20.5135C148.321 20.3695 148.457 20.1215 148.649 19.7695C148.857 19.4175 149.081 19.0015 149.321 18.5215C149.577 18.0255 149.809 17.5135 150.017 16.9855C149.601 17.4175 149.241 17.8255 148.937 18.2095C148.649 18.5775 148.385 18.8735 148.145 19.0975C147.921 19.3055 147.681 19.4015 147.425 19.3855C147.217 19.3375 146.969 19.2015 146.681 18.9775C146.393 18.7535 146.209 18.5055 146.129 18.2335C146.065 17.8815 146.041 17.4335 146.057 16.8895C146.089 16.3455 146.193 15.5215 146.369 14.4175C146.497 13.8735 146.553 13.4575 146.537 13.1695C146.537 12.8655 146.497 12.6415 146.417 12.4975C146.337 12.3535 146.233 12.2255 146.105 12.1135C145.897 11.9215 145.881 11.7135 146.057 11.4895C146.233 11.2655 146.433 11.0975 146.657 10.9855C146.993 10.9055 147.257 10.8895 147.449 10.9375C147.657 10.9695 147.865 11.1055 148.073 11.3455C148.201 11.5535 148.329 11.7775 148.457 12.0175C148.585 12.2575 148.649 12.6015 148.649 13.0495C148.649 13.2415 148.641 13.4575 148.625 13.6975C148.609 13.9215 148.593 14.1295 148.577 14.3215C148.561 14.5135 148.545 14.6655 148.529 14.7775C148.369 15.3695 148.225 15.8815 148.097 16.3135C147.969 16.7455 147.945 16.9615 148.025 16.9615C148.345 16.7055 148.617 16.4575 148.841 16.2175C149.081 15.9775 149.337 15.6895 149.609 15.3535C149.881 15.0175 150.217 14.5775 150.617 14.0335C150.761 13.7615 150.905 13.4975 151.049 13.2415C151.193 12.9855 151.313 12.7215 151.409 12.4495C151.505 12.2415 151.633 12.0255 151.793 11.8015C151.953 11.5615 152.065 11.4335 152.129 11.4175C152.209 11.3855 152.321 11.3935 152.465 11.4415C152.609 11.4895 152.745 11.5455 152.873 11.6095C153.017 11.6575 153.089 11.6975 153.089 11.7295C153.105 11.7455 153.185 11.7615 153.329 11.7775C153.473 11.7935 153.617 11.8095 153.761 11.8255C153.905 11.8255 153.977 11.8495 153.977 11.8975C153.977 11.9295 153.929 12.0495 153.833 12.2575C153.753 12.4655 153.657 12.6975 153.545 12.9535C153.433 13.2095 153.329 13.4415 153.233 13.6495C153.153 13.8415 153.121 13.9535 153.137 13.9855C153.169 14.0175 153.145 14.1375 153.065 14.3455C152.985 14.5375 152.889 14.7535 152.777 14.9935C152.681 15.2335 152.593 15.4495 152.513 15.6415C152.353 16.1695 152.169 16.6975 151.961 17.2255C151.753 17.7375 151.505 18.2495 151.217 18.7615C151.121 18.9535 150.977 19.2495 150.785 19.6495C150.609 20.0495 150.433 20.4415 150.257 20.8255C150.097 21.2255 149.969 21.5295 149.873 21.7375C149.809 21.8655 149.713 22.0655 149.585 22.3375C149.473 22.6255 149.345 22.9375 149.201 23.2735C149.073 23.6095 148.945 23.9215 148.817 24.2095C148.689 24.5135 148.593 24.7455 148.529 24.9055C148.497 25.2095 148.425 25.4335 148.313 25.5775C148.169 25.7215 147.969 25.7935 147.713 25.7935C147.473 25.7935 147.353 25.7935 147.353 25.7935ZM79.856 43.4335C79.712 43.3215 79.552 43.1775 79.376 43.0015C79.216 42.8255 79.16 42.5775 79.208 42.2575C79.256 41.8095 79.32 41.4175 79.4 41.0815C79.48 40.7295 79.576 40.3295 79.688 39.8815C79.72 39.6895 79.8 39.3615 79.928 38.8975C80.072 38.4335 80.24 37.9295 80.432 37.3855C80.624 36.8415 80.824 36.3295 81.032 35.8495C81.24 35.3535 81.424 34.9855 81.584 34.7455C81.76 34.5855 82.016 34.5055 82.352 34.5055C82.704 34.5055 82.944 34.5695 83.072 34.6975C83.248 34.8415 83.304 35.0975 83.24 35.4655C83.176 35.8175 82.952 36.3695 82.568 37.1215C82.488 37.3135 82.384 37.5215 82.256 37.7455C82.144 37.9535 82.064 38.1295 82.016 38.2735C81.968 38.4015 81.984 38.4575 82.064 38.4415C82.16 38.2655 82.336 38.0655 82.592 37.8415C82.848 37.6015 83.12 37.3695 83.408 37.1455C83.696 36.9215 83.968 36.7215 84.224 36.5455C84.48 36.3695 84.656 36.2575 84.752 36.2095C84.88 36.1295 85.024 36.0655 85.184 36.0175C85.36 35.9535 85.48 35.9055 85.544 35.8735C85.912 35.6975 86.312 35.6335 86.744 35.6815C87.192 35.7135 87.464 35.8495 87.56 36.0895C87.576 36.2175 87.624 36.3135 87.704 36.3775C87.8 36.4415 87.848 36.4735 87.848 36.4735C87.912 36.4735 87.944 36.4975 87.944 36.5455C87.96 36.5935 87.968 36.6175 87.968 36.6175C87.968 36.7295 87.856 36.8895 87.632 37.0975C87.424 37.3055 87.192 37.4175 86.936 37.4335C86.728 37.4495 86.544 37.4895 86.384 37.5535C86.224 37.6175 86.032 37.6975 85.808 37.7935C85.2 38.1455 84.648 38.4575 84.152 38.7295C83.672 39.0015 83.176 39.4175 82.664 39.9775C82.552 40.1055 82.432 40.2255 82.304 40.3375C82.176 40.4495 82.048 40.6095 81.92 40.8175C81.84 40.8975 81.76 41.0735 81.68 41.3455C81.6 41.6175 81.528 41.8815 81.464 42.1375C81.416 42.3775 81.392 42.5215 81.392 42.5695C81.392 42.5695 81.368 42.6495 81.32 42.8095C81.272 42.9535 81.192 43.0975 81.08 43.2415C80.888 43.4975 80.696 43.6575 80.504 43.7215C80.328 43.7855 80.112 43.6895 79.856 43.4335ZM90.3284 43.8895C89.9924 43.9535 89.7364 43.9375 89.5604 43.8415C89.4004 43.7295 89.2324 43.5935 89.0564 43.4335C88.8004 43.3055 88.5684 43.1295 88.3604 42.9055C88.1524 42.6655 87.9924 42.4175 87.8804 42.1615C87.7684 41.9055 87.7204 41.7055 87.7364 41.5615C87.7844 41.0015 87.9124 40.3935 88.1204 39.7375C88.3444 39.0815 88.6244 38.4415 88.9604 37.8175C89.3124 37.1935 89.7044 36.6415 90.1364 36.1615C90.5844 35.6655 91.0644 35.3055 91.5764 35.0815C91.8964 34.9535 92.2404 34.9055 92.6084 34.9375C92.9764 34.9695 93.2244 35.1215 93.3524 35.3935C93.5924 35.8575 93.5364 36.1535 93.1844 36.2815C93.1364 36.2815 93.0804 36.3055 93.0164 36.3535C92.9524 36.3855 92.9204 36.4335 92.9204 36.4975C92.9844 36.5295 93.1604 36.5375 93.4484 36.5215C93.7364 36.4895 94.0244 36.4415 94.3124 36.3775C94.6164 36.2975 94.8164 36.2175 94.9124 36.1375C95.0084 36.0895 95.0804 36.0655 95.1284 36.0655C95.1764 36.0655 95.2964 36.0815 95.4884 36.1135C95.7604 36.1935 95.8964 36.2895 95.8964 36.4015C95.8964 36.4655 95.9204 36.5695 95.9684 36.7135C96.0164 36.8415 96.0724 36.9055 96.1364 36.9055C96.2484 36.9215 96.2724 37.0335 96.2084 37.2415C96.1604 37.4495 95.9764 37.6655 95.6564 37.8895C95.3524 38.0815 95.1604 38.2095 95.0804 38.2735C95.0164 38.3215 95.0084 38.4335 95.0564 38.6095C95.1844 38.9135 95.1764 39.2815 95.0324 39.7135C94.8884 40.1455 94.6484 40.5935 94.3124 41.0575C93.9764 41.5215 93.5764 41.9615 93.1124 42.3775C92.6644 42.7775 92.1924 43.1215 91.6964 43.4095C91.2164 43.6815 90.7604 43.8415 90.3284 43.8895ZM90.4004 41.8735C90.4644 41.8735 90.5764 41.8415 90.7364 41.7775C90.8964 41.6975 91.0244 41.6335 91.1204 41.5855C91.1844 41.5215 91.2644 41.4495 91.3604 41.3695C91.4724 41.2735 91.5604 41.2175 91.6244 41.2015C91.6884 41.2015 91.7284 41.1775 91.7444 41.1295C91.7604 41.0655 91.8164 40.9455 91.9124 40.7695C92.0084 40.5775 92.2004 40.2975 92.4884 39.9295C92.8084 39.5775 93.0164 39.2975 93.1124 39.0895C93.2084 38.8655 93.2164 38.6255 93.1364 38.3695C93.1204 38.3055 93.0724 38.2655 92.9924 38.2495C92.9284 38.2335 92.8404 38.1935 92.7284 38.1295C92.5684 38.1295 92.4564 38.1695 92.3924 38.2495C92.3444 38.3135 92.2324 38.2735 92.0564 38.1295L91.6724 37.6495L91.2644 38.0575C91.0084 38.3135 90.7764 38.6335 90.5684 39.0175C90.3764 39.4015 90.2244 39.7935 90.1124 40.1935C90.0004 40.5935 89.9284 40.9455 89.8964 41.2495C89.8804 41.4895 89.9204 41.6495 90.0164 41.7295C90.1124 41.8095 90.2404 41.8575 90.4004 41.8735ZM99.0238 43.7455C98.8158 43.7935 98.5438 43.7615 98.2078 43.6495C97.8718 43.5215 97.5438 43.3695 97.2238 43.1935C96.9198 43.0015 96.7118 42.8495 96.5998 42.7375C96.4878 42.6095 96.4558 42.4975 96.5038 42.4015C96.5518 42.2895 96.6318 42.2335 96.7438 42.2335C96.8078 42.2335 96.9118 42.1695 97.0558 42.0415C97.1998 41.8975 97.2878 41.6415 97.3198 41.2735C97.3518 41.0495 97.3918 40.8575 97.4398 40.6975C97.5038 40.5215 97.5358 40.4015 97.5358 40.3375C97.5518 40.2895 97.5678 40.1615 97.5838 39.9535C97.6158 39.7295 97.6638 39.5375 97.7278 39.3775C97.7918 39.0895 97.8878 38.7215 98.0158 38.2735C98.1438 37.8095 98.2718 37.3615 98.3998 36.9295C98.5438 36.4815 98.6558 36.1375 98.7358 35.8975C98.7678 35.7215 98.8398 35.4975 98.9518 35.2255C99.0638 34.9535 99.1598 34.7375 99.2398 34.5775C99.3998 34.1295 99.6158 33.5855 99.8878 32.9455C100.176 32.3055 100.472 31.6655 100.776 31.0255C101.08 30.3695 101.344 29.8175 101.568 29.3695C101.808 28.9055 101.96 28.6255 102.024 28.5295C102.152 28.4015 102.36 28.3535 102.648 28.3855C102.936 28.4175 103.168 28.5215 103.344 28.6975C103.488 28.8735 103.624 29.0575 103.752 29.2495C103.88 29.4415 103.848 29.6495 103.656 29.8735C103.592 29.9855 103.488 30.1615 103.344 30.4015C103.2 30.6255 103.088 30.7935 103.008 30.9055C102.88 31.2895 102.72 31.6655 102.528 32.0335C102.352 32.4015 102.16 32.8175 101.952 33.2815C101.744 33.7295 101.52 34.2895 101.28 34.9615C101.136 35.2655 101.016 35.5695 100.92 35.8735C100.824 36.1615 100.744 36.3455 100.68 36.4255C100.584 36.7775 100.48 37.0415 100.368 37.2175C100.272 37.3935 100.192 37.6735 100.128 38.0575C100.128 38.0575 100.208 37.9775 100.368 37.8175C100.544 37.6575 100.752 37.4575 100.992 37.2175C101.616 36.5455 102.176 36.0335 102.672 35.6815C103.168 35.3295 103.624 35.1455 104.04 35.1295C104.264 35.1135 104.504 35.1695 104.76 35.2975C105.032 35.4255 105.28 35.5855 105.504 35.7775C105.728 35.9535 105.88 36.1455 105.96 36.3535C106.088 36.6415 106.152 37.0175 106.152 37.4815C106.152 37.9295 106.08 38.3935 105.936 38.8735C105.808 39.3535 105.6 39.7775 105.312 40.1455C105.136 40.4495 104.92 40.7455 104.664 41.0335C104.424 41.3055 104.216 41.5055 104.04 41.6335C103.88 41.7775 103.72 41.9215 103.56 42.0655C103.416 42.1935 103.296 42.2975 103.2 42.3775C102.992 42.5215 102.824 42.6335 102.696 42.7135C102.568 42.7775 102.392 42.8495 102.168 42.9295C101.832 43.1695 101.368 43.3455 100.776 43.4575C100.184 43.5695 99.5998 43.6655 99.0238 43.7455ZM99.6238 41.9215C99.7358 41.9215 99.9358 41.8975 100.224 41.8495C100.528 41.8015 100.808 41.6815 101.064 41.4895C101.816 41.1055 102.416 40.6815 102.864 40.2175C103.328 39.7535 103.656 39.2895 103.848 38.8255C104.04 38.3615 104.12 37.9455 104.088 37.5775C104.056 37.2095 103.856 37.0975 103.488 37.2415C103.136 37.3695 102.584 37.8095 101.832 38.5615C101.48 38.8815 101.176 39.1855 100.92 39.4735C100.664 39.7615 100.4 40.0655 100.128 40.3855C100.016 40.5615 99.9038 40.7055 99.7918 40.8175C99.6958 40.9135 99.6398 41.0255 99.6238 41.1535C99.5118 41.6655 99.5118 41.9215 99.6238 41.9215ZM109.76 44.2975C109.552 44.3135 109.384 44.2895 109.256 44.2255C109.128 44.1775 108.968 44.0975 108.776 43.9855C108.424 43.7135 108.128 43.3775 107.888 42.9775C107.664 42.5775 107.56 42.2415 107.576 41.9695C107.608 41.8255 107.608 41.6975 107.576 41.5855C107.56 41.4735 107.552 41.4175 107.552 41.4175C107.456 41.3375 107.424 41.2895 107.456 41.2735C107.488 41.2415 107.512 41.1935 107.528 41.1295C107.656 41.0975 107.672 41.0095 107.576 40.8655C107.528 40.7375 107.552 40.4495 107.648 40.0015C107.76 39.5375 107.904 39.1055 108.08 38.7055C108.16 38.5295 108.272 38.2975 108.416 38.0095C108.576 37.7215 108.752 37.4335 108.944 37.1455C109.136 36.8415 109.312 36.6015 109.472 36.4255C109.824 36.0255 110.136 35.6975 110.408 35.4415C110.696 35.1855 111.016 34.9935 111.368 34.8655C111.688 34.7375 112.008 34.6815 112.328 34.6975C112.664 34.7135 112.96 34.8255 113.216 35.0335C113.6 35.1455 113.944 35.3215 114.248 35.5615C114.552 35.7855 114.76 36.1055 114.872 36.5215C115 36.9855 115.04 37.5375 114.992 38.1775C114.96 38.8015 114.688 39.6095 114.176 40.6015C113.872 41.2255 113.568 41.7295 113.264 42.1135C112.976 42.4975 112.624 42.8655 112.208 43.2175C111.904 43.4735 111.512 43.6975 111.032 43.8895C110.552 44.0815 110.128 44.2175 109.76 44.2975ZM111.848 40.6735C112.056 40.3855 112.216 40.1055 112.328 39.8335C112.456 39.5615 112.576 39.1855 112.688 38.7055C112.736 38.5295 112.76 38.3135 112.76 38.0575C112.776 37.8015 112.768 37.5695 112.736 37.3615C112.72 37.1375 112.664 37.0175 112.568 37.0015C112.36 36.9215 112.144 36.9215 111.92 37.0015C111.712 37.0655 111.464 37.2575 111.176 37.5775C110.92 37.8655 110.712 38.1375 110.552 38.3935C110.408 38.6335 110.272 38.9295 110.144 39.2815C110.032 39.6175 109.904 40.0575 109.76 40.6015C109.632 41.1295 109.624 41.5535 109.736 41.8735C109.864 42.1935 110.104 42.2815 110.456 42.1375C110.808 41.9935 111.272 41.5055 111.848 40.6735ZM125.468 43.8655C125.26 43.9615 125.02 44.0015 124.748 43.9855C124.476 43.9695 124.108 43.8815 123.644 43.7215C123.612 43.7215 123.5 43.6495 123.308 43.5055C123.116 43.3615 122.924 43.1935 122.732 43.0015C122.54 42.8095 122.412 42.6495 122.348 42.5215C122.092 42.1535 122.012 41.6095 122.108 40.8895C122.22 40.1695 122.476 39.3055 122.876 38.2975C122.988 38.0575 123.156 37.7535 123.38 37.3855C123.62 37.0175 123.852 36.6815 124.076 36.3775C124.316 36.0575 124.484 35.8735 124.58 35.8255C124.58 35.8255 124.668 35.7935 124.844 35.7295C125.02 35.6655 125.244 35.5615 125.516 35.4175C125.596 35.3855 125.732 35.3455 125.924 35.2975C126.132 35.2495 126.34 35.2095 126.548 35.1775C126.772 35.1295 126.924 35.1135 127.004 35.1295C127.324 35.1455 127.652 35.2655 127.988 35.4895C128.34 35.6975 128.628 35.9455 128.852 36.2335C129.076 36.5055 129.148 36.7455 129.068 36.9535C129.068 36.9855 129.02 37.0895 128.924 37.2655C128.844 37.4255 128.756 37.5935 128.66 37.7695C128.564 37.9295 128.484 38.0495 128.42 38.1295C128.34 38.2255 128.196 38.2655 127.988 38.2495C127.796 38.2335 127.62 38.1695 127.46 38.0575C127.3 37.9455 127.212 37.7935 127.196 37.6015C127.164 37.4735 127.044 37.3535 126.836 37.2415C126.644 37.1295 126.548 37.0735 126.548 37.0735C126.42 37.0735 126.252 37.2015 126.044 37.4575C125.836 37.7135 125.62 38.0015 125.396 38.3215C125.108 38.6095 124.9 38.9215 124.772 39.2575C124.66 39.5775 124.58 39.8815 124.532 40.1695C124.5 40.4415 124.46 40.6495 124.412 40.7935C124.348 40.9535 124.348 41.1535 124.412 41.3935C124.476 41.6335 124.556 41.7695 124.652 41.8015C124.796 41.8175 124.988 41.8095 125.228 41.7775C125.484 41.7295 125.748 41.6735 126.02 41.6095C126.308 41.5295 126.596 41.4495 126.884 41.3695C127.172 41.2735 127.428 41.1775 127.652 41.0815C127.956 40.8895 128.22 40.8175 128.444 40.8655C128.668 40.8975 128.836 40.9295 128.948 40.9615C129.124 41.0255 129.212 41.1615 129.212 41.3695C129.212 41.5775 129.14 41.8015 128.996 42.0415C128.852 42.2655 128.644 42.4495 128.372 42.5935C128.116 42.7215 127.884 42.8655 127.676 43.0255C127.484 43.1695 127.388 43.2815 127.388 43.3615C127.324 43.3615 127.252 43.3855 127.172 43.4335C127.108 43.4655 127.052 43.4735 127.004 43.4575C126.972 43.4575 126.844 43.4815 126.62 43.5295C126.396 43.5775 126.164 43.6335 125.924 43.6975C125.7 43.7615 125.548 43.8175 125.468 43.8655ZM131.656 43.5775C131.592 43.4495 131.448 43.3215 131.224 43.1935C131.016 43.0655 130.912 42.9695 130.912 42.9055C130.912 42.8415 130.872 42.7455 130.792 42.6175C130.728 42.4735 130.664 42.3695 130.6 42.3055C130.52 42.2095 130.544 41.9775 130.672 41.6095C130.8 41.2255 130.992 40.7615 131.248 40.2175C131.504 39.6735 131.784 39.1215 132.088 38.5615C132.216 38.4335 132.344 38.2655 132.472 38.0575C132.6 37.8495 132.696 37.7135 132.76 37.6495C132.76 37.5855 132.784 37.5295 132.832 37.4815C132.88 37.4175 132.936 37.3855 133 37.3855L133.192 37.0015C133.224 36.9375 133.32 36.8095 133.48 36.6175C133.656 36.4255 133.864 36.2175 134.104 35.9935C134.344 35.7535 134.584 35.5295 134.824 35.3215C135.08 35.1135 135.288 34.9615 135.448 34.8655C135.784 34.6415 136.128 34.5375 136.48 34.5535C136.848 34.5695 137.16 34.6815 137.416 34.8895C137.464 34.9375 137.568 35.0335 137.728 35.1775C137.904 35.3215 138.096 35.4815 138.304 35.6575C138.528 35.8335 138.72 35.9935 138.88 36.1375L139.768 36.9295L139.36 38.1295C139.152 38.7695 139.096 39.3295 139.192 39.8095C139.288 40.2895 139.44 40.7055 139.648 41.0575C139.728 41.2335 139.832 41.3695 139.96 41.4655C140.104 41.5615 140.288 41.6255 140.512 41.6575C140.64 41.6735 140.76 41.7215 140.872 41.8015C140.984 41.8815 141.04 42.0095 141.04 42.1855C141.04 42.5695 140.968 42.8495 140.824 43.0255C140.696 43.1855 140.552 43.2815 140.392 43.3135C139.864 43.3775 139.36 43.3215 138.88 43.1455C138.4 42.9695 137.968 42.5135 137.584 41.7775C137.52 41.6815 137.432 41.5055 137.32 41.2495C137.224 40.9775 137.168 40.8015 137.152 40.7215C137.088 40.8015 137 40.9055 136.888 41.0335C136.792 41.1455 136.696 41.2495 136.6 41.3455C135.464 42.4975 134.488 43.2495 133.672 43.6015C132.872 43.9375 132.2 43.9295 131.656 43.5775ZM132.976 41.5855C133.088 41.6015 133.264 41.5455 133.504 41.4175C133.744 41.2735 134.064 41.0415 134.464 40.7215C135.008 40.2575 135.456 39.8735 135.808 39.5695C136.16 39.2655 136.504 38.8735 136.84 38.3935L137.368 37.5295C137.208 37.1615 137.064 36.9215 136.936 36.8095C136.808 36.6975 136.68 36.6415 136.552 36.6415C136.344 36.6415 136.096 36.7775 135.808 37.0495C135.52 37.3055 135.192 37.6895 134.824 38.2015C134.472 38.6975 134.072 39.3215 133.624 40.0735C133.416 40.4255 133.256 40.7695 133.144 41.1055C133.032 41.4255 132.976 41.5855 132.976 41.5855ZM142.799 44.3455C142.495 44.4255 142.223 44.3375 141.983 44.0815C141.743 43.8415 141.575 43.4815 141.479 43.0015C141.383 42.5215 141.399 41.9855 141.527 41.3935C141.607 41.2015 141.671 41.0175 141.719 40.8415C141.767 40.6495 141.791 40.4975 141.791 40.3855C141.823 40.2255 141.887 39.9935 141.983 39.6895C142.079 39.3695 142.183 39.0415 142.295 38.7055C142.407 38.3695 142.511 38.0735 142.607 37.8175C142.719 37.5455 142.791 37.3775 142.823 37.3135C142.887 37.3135 142.943 37.2575 142.991 37.1455C143.039 37.0335 143.063 36.9215 143.063 36.8095C143.063 36.6815 143.087 36.5375 143.135 36.3775C143.199 36.2175 143.263 36.1055 143.327 36.0415C143.327 35.9615 143.343 35.8735 143.375 35.7775C143.423 35.6655 143.447 35.5775 143.447 35.5135C143.447 35.4495 143.463 35.3855 143.495 35.3215C143.543 35.2575 143.567 35.1935 143.567 35.1295C143.679 34.9215 143.823 34.5935 143.999 34.1455C144.191 33.6815 144.391 33.1695 144.599 32.6095C144.823 32.0495 145.031 31.4975 145.223 30.9535C145.415 30.4095 145.567 29.9535 145.679 29.5855C145.807 29.2015 145.871 28.9695 145.871 28.8895C145.871 28.7615 145.919 28.6415 146.015 28.5295C146.111 28.4175 146.223 28.3615 146.351 28.3615C146.399 28.3135 146.511 28.2815 146.687 28.2655C146.863 28.2335 146.983 28.2175 147.047 28.2175C147.047 28.2175 147.079 28.2495 147.143 28.3135C147.207 28.3775 147.303 28.4735 147.431 28.6015C147.559 28.7135 147.679 28.8415 147.791 28.9855C147.919 29.1295 147.983 29.2975 147.983 29.4895C147.983 29.6975 147.951 29.8975 147.887 30.0895C147.839 30.2815 147.743 30.5455 147.599 30.8815C147.455 31.2015 147.231 31.6815 146.927 32.3215C146.799 32.6415 146.663 32.9455 146.519 33.2335C146.375 33.5055 146.303 33.6735 146.303 33.7375C146.303 33.8015 146.271 33.8975 146.207 34.0255C146.159 34.1535 146.103 34.3135 146.039 34.5055C145.975 34.6335 145.887 34.8255 145.775 35.0815C145.663 35.3215 145.543 35.5855 145.415 35.8735C145.303 36.1455 145.207 36.3855 145.127 36.5935C145.047 36.7855 145.007 36.8975 145.007 36.9295C145.007 36.9935 144.999 37.0575 144.983 37.1215C144.983 37.1855 144.951 37.2495 144.887 37.3135C144.823 37.3135 144.783 37.3615 144.767 37.4575C144.767 37.5375 144.767 37.5775 144.767 37.5775C144.767 37.7375 144.639 38.1615 144.383 38.8495C144.127 39.7295 143.887 40.5375 143.663 41.2735C143.455 42.0095 143.351 42.6015 143.351 43.0495C143.351 43.4335 143.287 43.7295 143.159 43.9375C143.047 44.1455 142.927 44.2815 142.799 44.3455ZM146.68 43.5055C146.52 43.4095 146.344 43.2735 146.152 43.0975C145.96 42.9055 145.864 42.7215 145.864 42.5455C145.864 42.3055 145.896 42.0095 145.96 41.6575C146.024 41.2895 146.088 40.9775 146.152 40.7215C146.184 40.4335 146.224 40.1455 146.272 39.8575C146.336 39.5535 146.448 39.2735 146.608 39.0175C146.784 38.4095 146.968 37.8095 147.16 37.2175C147.352 36.6095 147.52 35.9855 147.664 35.3455C147.872 34.7535 148.056 34.2335 148.216 33.7855C148.392 33.3215 148.608 32.7375 148.864 32.0335C149.008 31.6335 149.128 31.2095 149.224 30.7615C149.336 30.2975 149.504 29.8815 149.728 29.5135C149.824 29.3695 149.896 29.2495 149.944 29.1535C150.008 29.0415 150.072 28.9375 150.136 28.8415C150.152 28.7775 150.232 28.7215 150.376 28.6735C150.536 28.6255 150.696 28.6015 150.856 28.6015C151.032 28.5855 151.152 28.6175 151.216 28.6975C151.264 28.6815 151.344 28.7455 151.456 28.8895C151.568 29.0175 151.672 29.1695 151.768 29.3455C151.88 29.5055 151.928 29.6335 151.912 29.7295C151.912 29.7935 151.896 29.8815 151.864 29.9935C151.848 30.1055 151.808 30.2095 151.744 30.3055C151.68 30.3695 151.616 30.4655 151.552 30.5935C151.504 30.7055 151.424 30.8655 151.312 31.0735C151.248 31.2815 151.192 31.4975 151.144 31.7215C151.096 31.9295 151.032 32.1215 150.952 32.2975C150.888 32.4895 150.808 32.6735 150.712 32.8495C150.632 33.0255 150.576 33.1695 150.544 33.2815C150.432 33.6495 150.296 34.0095 150.136 34.3615C149.992 34.7135 149.864 35.0895 149.752 35.4895C149.64 35.8735 149.528 36.2735 149.416 36.6895C149.304 37.0895 149.144 37.4735 148.936 37.8415C148.824 38.0175 148.744 38.2415 148.696 38.5135C148.648 38.7855 148.6 39.0575 148.552 39.3295C148.456 39.6175 148.368 39.8895 148.288 40.1455C148.224 40.3855 148.192 40.5375 148.192 40.6015C148.096 40.9535 148.024 41.3055 147.976 41.6575C147.944 41.9935 147.864 42.2895 147.736 42.5455C147.72 42.7055 147.664 42.8815 147.568 43.0735C147.472 43.2655 147.344 43.4095 147.184 43.5055C147.04 43.6015 146.872 43.6015 146.68 43.5055ZM152.026 44.0575C151.642 44.0575 151.306 43.8575 151.018 43.4575C150.746 43.0415 150.578 42.5455 150.514 41.9695C150.53 41.8415 150.546 41.6575 150.562 41.4175C150.594 41.1775 150.626 40.9295 150.658 40.6735C150.722 40.3695 150.81 39.9775 150.922 39.4975C151.034 39.0175 151.154 38.5375 151.282 38.0575C151.41 37.5615 151.522 37.1375 151.618 36.7855C151.714 36.4175 151.77 36.2015 151.786 36.1375C151.882 35.9135 152.098 35.8575 152.434 35.9695C152.77 36.0815 153.058 36.3215 153.298 36.6895C153.394 36.8175 153.45 36.9695 153.466 37.1455C153.498 37.3215 153.474 37.5775 153.394 37.9135C153.33 38.2495 153.202 38.7455 153.01 39.4015C152.834 40.0415 152.698 40.5615 152.602 40.9615C152.522 41.3455 152.49 41.7535 152.506 42.1855C152.442 42.9215 152.378 43.4255 152.314 43.6975C152.25 43.9535 152.154 44.0735 152.026 44.0575ZM154.234 34.0975C154.17 34.1455 154.106 34.1695 154.042 34.1695C153.994 34.1535 153.906 34.1055 153.778 34.0255C153.666 34.0095 153.522 33.9375 153.346 33.8095C153.186 33.6655 153.042 33.5215 152.914 33.3775C152.802 33.2335 152.746 33.1455 152.746 33.1135C152.73 32.9535 152.738 32.6975 152.77 32.3455C152.818 31.9935 152.906 31.6655 153.034 31.3615C153.178 31.0415 153.37 30.8735 153.61 30.8575C153.674 30.8575 153.81 30.8895 154.018 30.9535C154.242 31.0175 154.474 31.0975 154.714 31.1935C154.842 31.4335 154.962 31.7455 155.074 32.1295C155.186 32.5135 155.194 32.8895 155.098 33.2575C155.018 33.6095 154.73 33.8895 154.234 34.0975ZM156.281 43.2655C156.217 43.2655 156.065 43.2095 155.825 43.0975C155.585 42.9695 155.433 42.8735 155.369 42.8095C155.257 42.6815 155.185 42.5455 155.153 42.4015C155.121 42.2415 155.105 41.9375 155.105 41.4895C155.105 40.9775 155.209 40.4015 155.417 39.7615C155.625 39.1055 155.977 38.2335 156.473 37.1455L157.457 35.1535C157.537 35.0415 157.609 34.9455 157.673 34.8655C157.737 34.7695 157.809 34.6815 157.889 34.6015C157.921 34.6015 157.961 34.6015 158.009 34.6015C158.073 34.6015 158.121 34.6095 158.153 34.6255C158.297 34.6415 158.521 34.7295 158.825 34.8895C159.145 35.0495 159.337 35.2895 159.401 35.6095C159.401 35.8175 159.369 36.0655 159.305 36.3535C159.241 36.6255 159.049 36.9855 158.729 37.4335C158.601 37.5935 158.473 37.8255 158.345 38.1295C158.233 38.4335 158.129 38.7215 158.033 38.9935C158.017 39.0255 157.969 39.1055 157.889 39.2335C157.825 39.3455 157.761 39.4655 157.697 39.5935C157.633 39.7055 157.601 39.7775 157.601 39.8095L157.505 40.0255L158.537 39.0175C159.257 38.2975 159.865 37.7855 160.361 37.4815C160.857 37.1775 161.273 37.0495 161.609 37.0975C161.961 37.1455 162.241 37.3455 162.449 37.6975C162.561 37.8575 162.641 38.0335 162.689 38.2255C162.737 38.4015 162.769 38.6095 162.785 38.8495C162.801 39.0895 162.793 39.3935 162.761 39.7615V41.1295C163.065 41.0495 163.297 40.9855 163.457 40.9375C163.617 40.8735 163.777 40.8175 163.937 40.7695C164.065 40.7375 164.193 40.7055 164.321 40.6735C164.465 40.6415 164.641 40.6175 164.849 40.6015C164.833 40.8095 164.745 41.0655 164.585 41.3695C164.425 41.6735 164.225 41.9775 163.985 42.2815C163.761 42.5855 163.513 42.8415 163.241 43.0495C162.985 43.2575 162.745 43.3615 162.521 43.3615C162.313 43.3615 162.073 43.2975 161.801 43.1695C161.529 43.0255 161.297 42.7535 161.105 42.3535C161.041 42.1455 160.977 41.9055 160.913 41.6335C160.849 41.3615 160.817 41.0735 160.817 40.7695V39.7135C160.817 39.6175 160.809 39.5535 160.793 39.5215C160.793 39.4735 160.785 39.4495 160.769 39.4495C160.705 39.4495 160.497 39.6175 160.145 39.9535C159.809 40.2895 159.465 40.6415 159.113 41.0095C158.377 41.7775 157.761 42.3455 157.265 42.7135C156.785 43.0815 156.457 43.2655 156.281 43.2655ZM168.784 48.8815C168.336 49.0575 167.864 49.0255 167.368 48.7855C166.888 48.5615 166.472 48.2015 166.12 47.7055C166.056 47.6095 165.96 47.4335 165.832 47.1775C165.704 46.9375 165.576 46.6735 165.448 46.3855C165.336 46.0975 165.248 45.8495 165.184 45.6415C165.136 45.4335 165.136 45.3135 165.184 45.2815C165.248 45.1055 165.392 45.0015 165.616 44.9695C165.84 44.9375 166.064 44.9455 166.288 44.9935C166.512 45.0575 166.64 45.1375 166.672 45.2335C166.72 45.3455 166.768 45.4575 166.816 45.5695C166.864 45.6975 166.92 45.8095 166.984 45.9055C167.064 46.0175 167.136 46.1135 167.2 46.1935C167.376 46.4655 167.568 46.6495 167.776 46.7455C167.984 46.8575 168.144 46.8735 168.256 46.7935C168.528 46.5855 168.728 46.3375 168.856 46.0495C169 45.7775 169.184 45.2895 169.408 44.5855C169.584 43.9935 169.736 43.4815 169.864 43.0495C169.992 42.6175 170.128 42.2175 170.272 41.8495C170.32 41.6575 170.376 41.4975 170.44 41.3695C170.52 41.2255 170.592 41.1215 170.656 41.0575H170.8C170.448 41.2815 170.152 41.5055 169.912 41.7295C169.672 41.9535 169.344 42.1535 168.928 42.3295C168.832 42.4415 168.592 42.5135 168.208 42.5455C167.84 42.5615 167.48 42.5135 167.128 42.4015C166.904 42.2735 166.72 42.1455 166.576 42.0175C166.448 41.8735 166.336 41.7135 166.24 41.5375C166.16 41.3615 166.072 41.1535 165.976 40.9135C165.864 40.6735 165.848 40.2815 165.928 39.7375C166.008 39.1935 166.152 38.6495 166.36 38.1055C166.552 37.7055 166.832 37.2735 167.2 36.8095C167.568 36.3455 167.96 35.9295 168.376 35.5615C168.792 35.1775 169.168 34.9375 169.504 34.8415C169.632 34.7775 169.856 34.7055 170.176 34.6255C170.496 34.5295 170.8 34.5215 171.088 34.6015C171.36 34.6335 171.568 34.6975 171.712 34.7935C171.856 34.8735 172.088 35.0495 172.408 35.3215C172.616 35.5295 172.872 35.8015 173.176 36.1375C173.48 36.4575 173.672 36.7295 173.752 36.9535C173.864 37.1935 173.888 37.4575 173.824 37.7455C173.76 38.0175 173.648 38.2575 173.488 38.4655C173.344 38.6735 173.192 38.8815 173.032 39.0895C172.872 39.2975 172.752 39.5855 172.672 39.9535C172.592 40.4335 172.44 40.9775 172.216 41.5855C171.992 42.1775 171.816 42.7295 171.688 43.2415L171.304 44.7295C170.904 46.0895 170.464 47.0735 169.984 47.6815C169.504 48.3055 169.104 48.7055 168.784 48.8815ZM168.28 40.6255C168.6 40.6095 168.872 40.5775 169.096 40.5295C169.336 40.4655 169.56 40.3375 169.768 40.1455C169.976 39.9375 170.216 39.6255 170.488 39.2095C170.76 38.8255 170.952 38.4735 171.064 38.1535C171.176 37.8335 171.216 37.4735 171.184 37.0735C171.168 36.8175 171.096 36.6495 170.968 36.5695C170.84 36.4895 170.672 36.4655 170.464 36.4975C170.16 36.5455 169.888 36.6735 169.648 36.8815C169.408 37.0735 169.128 37.3775 168.808 37.7935C168.568 38.1135 168.368 38.4975 168.208 38.9455C168.048 39.4255 167.976 39.8095 167.992 40.0975C168.024 40.3855 168.12 40.5615 168.28 40.6255Z" fill="#EA2667"/>
<path d="M5.62366 49.1775C5.95305 49.9376 6.83628 50.2868 7.5964 49.9574L19.9834 44.5897C20.7436 44.2604 21.0927 43.3771 20.7634 42.617C20.434 41.8569 19.5507 41.5077 18.7906 41.8371L7.77993 46.6083L3.00869 35.5976C2.67931 34.8375 1.79608 34.4883 1.03595 34.8177C0.275817 35.1471 -0.0733648 36.0303 0.256019 36.7904L5.62366 49.1775ZM64.8436 23.6214C38.9214 17.522 14.4793 25.5833 5.60506 48.0296L8.39494 49.1325C16.5207 28.5794 39.0786 20.6409 64.1564 26.5416L64.8436 23.6214Z" fill="#1F1A3D"/>
</svg>
