<svg width="170" height="125" viewBox="0 0 170 125" fill="none" xmlns="http://www.w3.org/2000/svg">
<path d="M45.7966 21.5455C45.1566 21.3855 44.6366 21.0495 44.2366 20.5375C43.8526 20.0415 43.5406 19.4415 43.3006 18.7375C43.2846 18.5295 43.2766 18.2415 43.2766 17.8735C43.2926 17.5055 43.3166 17.1615 43.3486 16.8415C43.3806 16.5215 43.4126 16.3375 43.4446 16.2895C43.4926 16.2575 43.5166 16.1615 43.5166 16.0015C43.5006 15.9375 43.5086 15.8335 43.5406 15.6895C43.5886 15.5295 43.6366 15.3695 43.6846 15.2095C43.7646 15.0175 43.8046 14.8655 43.8046 14.7535C43.8046 14.6255 43.7966 14.5295 43.7806 14.4655C43.7806 14.4655 43.8046 14.4175 43.8526 14.3215C43.9006 14.2095 43.9566 14.1215 44.0206 14.0575C44.1166 13.9615 44.1566 13.8655 44.1406 13.7695C44.1406 13.6735 44.1406 13.6255 44.1406 13.6255C44.1246 13.5615 44.1406 13.4735 44.1886 13.3615C44.2366 13.2495 44.2846 13.1615 44.3326 13.0975C44.3646 13.0655 44.4046 13.0015 44.4526 12.9055C44.5166 12.7935 44.5486 12.7375 44.5486 12.7375C44.5486 12.6895 44.5806 12.5615 44.6446 12.3535C44.7246 12.1455 44.8126 11.9215 44.9086 11.6815C45.0046 11.4255 45.0926 11.1935 45.1726 10.9855C45.2686 10.7775 45.3406 10.6415 45.3886 10.5775V10.5295C45.4526 10.3695 45.5406 10.2015 45.6526 10.0255C45.6686 9.94554 45.7086 9.81754 45.7726 9.64154C45.8366 9.44954 45.9086 9.26554 45.9886 9.08954C46.1646 8.70554 46.3806 8.27354 46.6366 7.79354C46.9086 7.29754 47.1966 6.80954 47.5006 6.32954C47.8046 5.83354 48.0926 5.39354 48.3646 5.00954C48.6526 4.60954 48.9006 4.31354 49.1086 4.12154C49.3806 3.81754 49.6526 3.60154 49.9246 3.47354C50.2126 3.32954 50.4766 3.37754 50.7166 3.61754C50.8286 3.72954 50.9246 3.89754 51.0046 4.12154C51.0846 4.32954 51.1166 4.52954 51.1006 4.72154C51.1006 4.89754 51.0366 4.99354 50.9086 5.00954C50.7966 5.07354 50.6446 5.25754 50.4526 5.56154C50.2606 5.84954 50.0446 6.19354 49.8046 6.59354C49.5806 6.99354 49.3566 7.40954 49.1326 7.84154C48.9086 8.25754 48.7006 8.63354 48.5086 8.96954C48.3006 9.43354 48.1086 9.84154 47.9326 10.1935C47.7566 10.5295 47.6686 10.6975 47.6686 10.6975C47.6526 10.7455 47.6366 10.7855 47.6206 10.8175C47.6046 10.8495 47.5886 10.8815 47.5726 10.9135C47.3326 11.4095 47.1326 11.8655 46.9726 12.2815C46.8126 12.6815 46.6526 13.1055 46.4926 13.5535C46.3966 13.6655 46.3406 13.7775 46.3246 13.8895C46.3086 14.0015 46.3006 14.0575 46.3006 14.0575C46.2686 14.0415 46.2446 14.0815 46.2286 14.1775C46.2126 14.2575 46.1806 14.3535 46.1326 14.4655C46.0526 14.5295 46.0046 14.6335 45.9886 14.7775C45.9726 14.9055 45.9646 15.0335 45.9646 15.1615C45.8526 15.4495 45.7486 15.8015 45.6526 16.2175C45.5566 16.6175 45.4846 17.0095 45.4366 17.3935C45.4046 17.7615 45.3966 18.0495 45.4126 18.2575C45.4446 18.5295 45.5166 18.7615 45.6286 18.9535C45.7566 19.1295 45.9326 19.2735 46.1566 19.3855C46.3326 19.4655 46.4926 19.5375 46.6366 19.6015C46.7806 19.6495 46.9086 19.6735 47.0206 19.6735C47.1486 19.6895 47.3086 19.6895 47.5006 19.6735C47.7086 19.6415 47.9886 19.5935 48.3406 19.5295H48.3166C48.5246 19.4975 48.7406 19.4575 48.9646 19.4095C49.2046 19.3455 49.4286 19.2895 49.6366 19.2415C49.8286 19.2095 50.0126 19.1775 50.1886 19.1455C50.3646 19.0975 50.5006 19.0575 50.5966 19.0255C50.9486 18.9295 51.2286 18.8495 51.4366 18.7855C51.6606 18.7215 51.8126 18.7215 51.8926 18.7855C51.9726 18.8495 52.0606 18.9695 52.1566 19.1455C52.2526 19.3215 52.2766 19.4815 52.2286 19.6255C52.1966 19.7055 52.0366 19.8655 51.7486 20.1055C51.4606 20.3615 51.1326 20.6095 50.7646 20.8495C50.3966 21.1055 50.0606 21.2815 49.7566 21.3775C49.4366 21.5215 49.0046 21.6175 48.4606 21.6655C47.9326 21.7295 47.4206 21.7455 46.9246 21.7135C46.4286 21.6815 46.0526 21.6255 45.7966 21.5455ZM55.3914 19.9135C55.1834 19.9135 55.0154 19.8735 54.8874 19.7935C54.7754 19.7135 54.6314 19.6015 54.4554 19.4575C54.1514 19.1375 53.9034 18.7935 53.7114 18.4255C53.5354 18.0575 53.4714 17.7375 53.5194 17.4655C53.5674 17.3375 53.5834 17.2175 53.5674 17.1055C53.5674 16.9775 53.5674 16.9135 53.5674 16.9135C53.4874 16.8335 53.4634 16.7855 53.4954 16.7695C53.5274 16.7375 53.5594 16.6895 53.5914 16.6255C53.6874 16.6255 53.7194 16.5375 53.6874 16.3615C53.6554 16.2335 53.7034 15.9615 53.8314 15.5455C53.9754 15.1135 54.1674 14.7055 54.4074 14.3215C54.5034 14.1615 54.6474 13.9535 54.8394 13.6975C55.0314 13.4255 55.2394 13.1615 55.4634 12.9055C55.7034 12.6335 55.9194 12.4175 56.1114 12.2575C56.5114 11.9215 56.8794 11.6495 57.2154 11.4415C57.5674 11.2335 57.9194 11.0895 58.2714 11.0095C58.6234 10.9295 58.9834 10.8895 59.3514 10.8895C59.7354 10.8895 60.0474 11.0175 60.2874 11.2735C60.6554 11.4335 60.9114 11.6495 61.0554 11.9215C61.2154 12.1935 61.3194 12.5455 61.3674 12.9775C61.4154 13.4575 61.3674 14.0495 61.2234 14.7535C61.0794 15.4415 60.6874 16.2415 60.0474 17.1535C59.6474 17.7295 59.2554 18.1775 58.8714 18.4975C58.4874 18.8175 58.0634 19.1135 57.5994 19.3855C57.2634 19.6095 56.9034 19.7455 56.5194 19.7935C56.1354 19.8415 55.7594 19.8815 55.3914 19.9135ZM57.8394 16.9855C58.1914 16.6815 58.4394 16.3455 58.5834 15.9775C58.7434 15.6095 58.9114 15.1775 59.0874 14.6815C59.1514 14.5855 59.1914 14.4255 59.2074 14.2015C59.2394 13.9775 59.2474 13.7615 59.2314 13.5535C59.2154 13.3295 59.1594 13.2015 59.0634 13.1695C58.9194 13.0575 58.7754 13.0335 58.6314 13.0975C58.4874 13.1455 58.3034 13.2495 58.0794 13.4095C57.5994 13.8095 57.1514 14.2735 56.7354 14.8015C56.3354 15.3135 56.0554 15.9455 55.8954 16.6975C55.8474 17.0975 55.8874 17.4015 56.0154 17.6095C56.1594 17.8015 56.3834 17.8575 56.6874 17.7775C57.0074 17.6815 57.3914 17.4175 57.8394 16.9855ZM62.9107 19.4335C62.7667 19.3215 62.6067 19.1775 62.4307 19.0015C62.2707 18.8255 62.2147 18.5775 62.2627 18.2575C62.3107 17.8095 62.3747 17.4175 62.4547 17.0815C62.5347 16.7295 62.6307 16.3295 62.7427 15.8815C62.7747 15.6895 62.8547 15.3615 62.9827 14.8975C63.1267 14.4335 63.2947 13.9295 63.4867 13.3855C63.6787 12.8415 63.8787 12.3295 64.0867 11.8495C64.2947 11.3535 64.4787 10.9855 64.6387 10.7455C64.8147 10.5855 65.0707 10.5055 65.4067 10.5055C65.7587 10.5055 65.9987 10.5695 66.1267 10.6975C66.3027 10.8415 66.3587 11.0975 66.2947 11.4655C66.2307 11.8175 66.0067 12.3695 65.6227 13.1215C65.5427 13.3135 65.4387 13.5215 65.3107 13.7455C65.1987 13.9535 65.1187 14.1295 65.0707 14.2735C65.0227 14.4015 65.0387 14.4575 65.1187 14.4415C65.2147 14.2655 65.3907 14.0655 65.6467 13.8415C65.9027 13.6015 66.1747 13.3695 66.4627 13.1455C66.7507 12.9215 67.0227 12.7215 67.2787 12.5455C67.5347 12.3695 67.7107 12.2575 67.8067 12.2095C67.9347 12.1295 68.0787 12.0655 68.2387 12.0175C68.4147 11.9535 68.5347 11.9055 68.5987 11.8735C68.9667 11.6975 69.3667 11.6335 69.7987 11.6815C70.2467 11.7135 70.5187 11.8495 70.6147 12.0895C70.6307 12.2175 70.6787 12.3135 70.7587 12.3775C70.8547 12.4415 70.9027 12.4735 70.9027 12.4735C70.9667 12.4735 70.9987 12.4975 70.9987 12.5455C71.0147 12.5935 71.0227 12.6175 71.0227 12.6175C71.0227 12.7295 70.9107 12.8895 70.6867 13.0975C70.4787 13.3055 70.2467 13.4175 69.9907 13.4335C69.7827 13.4495 69.5987 13.4895 69.4387 13.5535C69.2787 13.6175 69.0867 13.6975 68.8627 13.7935C68.2547 14.1455 67.7027 14.4575 67.2067 14.7295C66.7267 15.0015 66.2307 15.4175 65.7187 15.9775C65.6067 16.1055 65.4867 16.2255 65.3587 16.3375C65.2307 16.4495 65.1027 16.6095 64.9747 16.8175C64.8947 16.8975 64.8147 17.0735 64.7347 17.3455C64.6547 17.6175 64.5827 17.8815 64.5187 18.1375C64.4707 18.3775 64.4467 18.5215 64.4467 18.5695C64.4467 18.5695 64.4227 18.6495 64.3747 18.8095C64.3267 18.9535 64.2467 19.0975 64.1347 19.2415C63.9427 19.4975 63.7507 19.6575 63.5587 19.7215C63.3827 19.7855 63.1667 19.6895 62.9107 19.4335ZM73.5271 20.5135C72.6471 20.5135 71.9671 20.2575 71.4871 19.7455C71.0231 19.2335 70.7911 18.4495 70.7911 17.3935C70.7911 16.8175 70.8951 16.1855 71.1031 15.4975C71.3271 14.8095 71.6151 14.1375 71.9671 13.4815C72.3351 12.8255 72.7351 12.2575 73.1671 11.7775C73.5991 11.2815 74.0311 10.9375 74.4631 10.7455C74.6231 10.6655 74.7911 10.6095 74.9671 10.5775C75.1591 10.5295 75.3431 10.5055 75.5191 10.5055C75.7111 10.5055 75.9191 10.5215 76.1431 10.5535C76.3831 10.5695 76.6071 10.6175 76.8151 10.6975C77.1831 10.8095 77.5031 11.0255 77.7751 11.3455C78.0631 11.6655 78.2071 12.1295 78.2071 12.7375C78.2071 12.8975 78.1911 13.0735 78.1591 13.2655C78.1271 13.4415 78.0711 13.6175 77.9911 13.7935C77.7831 14.3215 77.4631 14.8255 77.0311 15.3055C76.6151 15.7855 76.1751 16.1215 75.7111 16.3135C75.5831 16.3775 75.4551 16.4255 75.3271 16.4575C75.2151 16.4735 75.0951 16.4815 74.9671 16.4815C74.6311 16.4815 74.3271 16.4335 74.0551 16.3375C73.7991 16.2415 73.5591 16.1135 73.3351 15.9535L73.1431 15.7855L73.0231 16.0255C72.9111 16.3295 72.8311 16.5855 72.7831 16.7935C72.7511 17.0015 72.7351 17.1535 72.7351 17.2495C72.7351 17.4415 72.7431 17.6415 72.7591 17.8495C72.7751 18.0415 72.8231 18.2015 72.9031 18.3295C72.9671 18.4095 73.0471 18.4735 73.1431 18.5215C73.2551 18.5695 73.3911 18.5935 73.5511 18.5935C73.6471 18.5935 73.7351 18.5935 73.8151 18.5935C73.9111 18.5775 73.9911 18.5615 74.0551 18.5455C74.3431 18.4815 74.5751 18.3775 74.7511 18.2335C74.9431 18.0735 75.1431 17.9375 75.3511 17.8255L75.4471 17.7775L75.4231 17.7055C75.6951 17.5615 75.8791 17.4735 75.9751 17.4415C76.0711 17.3935 76.1431 17.3535 76.1911 17.3215C76.2551 17.2575 76.3271 17.2255 76.4071 17.2255C76.6311 17.1935 76.8471 17.2575 77.0551 17.4175C77.2791 17.5615 77.3911 17.7455 77.3911 17.9695C77.3911 18.0655 77.3191 18.2175 77.1751 18.4255C77.0471 18.6335 76.8791 18.8415 76.6711 19.0495C76.4791 19.2415 76.2791 19.3935 76.0711 19.5055C76.0231 19.5215 75.9751 19.5455 75.9271 19.5775C75.8791 19.5935 75.8311 19.6175 75.7831 19.6495H75.8071C75.6631 19.8415 75.5191 19.9375 75.3751 19.9375H75.1831C75.1191 20.0495 74.9111 20.1695 74.5591 20.2975C74.2071 20.4415 73.8631 20.5135 73.5271 20.5135ZM74.7751 14.7295C74.9191 14.7295 75.0471 14.7055 75.1591 14.6575C75.2871 14.6095 75.4071 14.5535 75.5191 14.4895C75.9031 14.2175 76.1511 13.8655 76.2631 13.4335C76.3751 13.0015 76.3351 12.6735 76.1431 12.4495C76.1111 12.4015 76.0711 12.3695 76.0231 12.3535C75.9751 12.3215 75.9191 12.3055 75.8551 12.3055C75.6791 12.3055 75.4791 12.3615 75.2551 12.4735C75.0471 12.5855 74.8391 12.7455 74.6311 12.9535C74.4231 13.1615 74.2311 13.4095 74.0551 13.6975L73.7431 14.2015C73.7751 14.1855 73.7991 14.1775 73.8151 14.1775C73.8471 14.1615 73.8711 14.1535 73.8871 14.1535C74.0311 14.1535 74.1271 14.2015 74.1751 14.2975C74.2231 14.3935 74.2791 14.4895 74.3431 14.5855C74.4231 14.6815 74.5671 14.7295 74.7751 14.7295ZM79.7908 19.1935C79.7428 19.1295 79.6388 19.0495 79.4788 18.9535C79.3188 18.8575 79.2388 18.7775 79.2388 18.7135C79.2388 18.6815 79.2308 18.6415 79.2148 18.5935C79.2148 18.5455 79.1828 18.5215 79.1188 18.5215C79.0708 18.4735 79.0948 18.2975 79.1908 17.9935C79.3028 17.6895 79.4468 17.3295 79.6228 16.9135C79.8148 16.4975 80.0148 16.0975 80.2228 15.7135C80.4308 15.3135 80.6068 14.9935 80.7508 14.7535C80.8308 14.7055 80.8788 14.6415 80.8948 14.5615C80.9268 14.4655 80.9268 14.4175 80.8948 14.4175C80.8948 14.4175 80.9348 14.3455 81.0148 14.2015C81.1108 14.0415 81.1828 13.9375 81.2308 13.8895C81.3588 13.6655 81.4548 13.4415 81.5188 13.2175C81.5828 12.9775 81.5988 12.7775 81.5668 12.6175C81.5028 12.5375 81.4308 12.5135 81.3508 12.5455C81.2708 12.5775 81.2308 12.5935 81.2308 12.5935C81.1668 12.6095 81.0708 12.6415 80.9428 12.6895C80.8308 12.7215 80.7268 12.7695 80.6308 12.8335C80.2628 13.0895 79.9908 13.2175 79.8148 13.2175C79.6548 13.2175 79.4948 13.0255 79.3348 12.6415C79.2708 12.4655 79.2468 12.2975 79.2628 12.1375C79.2788 11.9775 79.3428 11.8495 79.4548 11.7535C79.5828 11.6415 79.7428 11.5295 79.9348 11.4175C80.1268 11.2895 80.2548 11.2015 80.3188 11.1535C80.4948 11.0415 80.7428 10.9215 81.0628 10.7935C81.3828 10.6655 81.5748 10.5935 81.6388 10.5775C82.0548 10.4495 82.4068 10.4495 82.6948 10.5775C82.9828 10.6895 83.1988 10.9135 83.3428 11.2495C83.5668 11.5215 83.6788 11.8095 83.6788 12.1135C83.6788 12.4175 83.5668 12.7935 83.3428 13.2415L83.1028 13.6015C83.0228 13.7615 83.0068 13.8415 83.0547 13.8415C83.1188 13.8415 83.1908 13.7855 83.2708 13.6735C83.3188 13.6095 83.4148 13.5135 83.5588 13.3855C83.7028 13.2575 83.7988 13.1935 83.8468 13.1935C83.8468 13.1935 83.8628 13.1855 83.8948 13.1695C83.9428 13.1535 83.9668 13.0895 83.9668 12.9775C84.0148 12.9295 84.0628 12.8815 84.1108 12.8335C84.1748 12.7855 84.2068 12.7615 84.2068 12.7615C84.2708 12.7615 84.3508 12.7295 84.4468 12.6655C84.5588 12.5855 84.7428 12.4415 84.9988 12.2335C85.1748 12.1055 85.3348 12.0415 85.4788 12.0415C85.8468 11.9295 86.1428 12.0495 86.3668 12.4015C86.6068 12.7535 86.7268 13.2095 86.7268 13.7695L86.2228 15.0655L87.0868 14.0095C87.1828 13.8815 87.2788 13.7695 87.3748 13.6735C87.4868 13.5775 87.5828 13.4975 87.6628 13.4335C87.6948 13.3215 87.7428 13.2575 87.8068 13.2415C87.8708 13.2255 87.9028 13.2175 87.9028 13.2175C87.9028 13.2175 87.9188 13.2175 87.9508 13.2175C87.9828 13.2015 87.9988 13.1695 87.9988 13.1215C88.0788 13.0575 88.1668 13.0015 88.2628 12.9535C88.3588 12.8895 88.4228 12.8255 88.4548 12.7615C88.7268 12.6495 89.0548 12.6335 89.4388 12.7135C89.8228 12.7775 90.0948 12.9775 90.2548 13.3135C90.3668 13.5055 90.4708 13.6735 90.5668 13.8175C90.6628 13.9615 90.7108 14.1775 90.7108 14.4655C90.6788 14.7055 90.6468 14.8735 90.6148 14.9695C90.5988 15.0655 90.5828 15.1695 90.5668 15.2815C90.5508 15.3775 90.5268 15.5535 90.4948 15.8095C90.4308 15.9375 90.3908 16.0735 90.3748 16.2175C90.3748 16.3615 90.3748 16.4975 90.3748 16.6255C90.3748 16.8335 90.3828 16.9775 90.3988 17.0575C90.4148 17.1215 90.4788 17.1535 90.5908 17.1535C90.8148 17.1055 90.9988 17.0335 91.1428 16.9375C91.3028 16.8255 91.4788 16.6815 91.6708 16.5055C91.9108 16.2815 92.1188 16.2495 92.2948 16.4095C92.4868 16.5535 92.6068 16.7215 92.6548 16.9135C92.6868 16.9775 92.6548 17.1215 92.5588 17.3455C92.4628 17.5695 92.3508 17.7855 92.2228 17.9935C92.0948 18.2015 91.9908 18.3055 91.9108 18.3055C91.8628 18.3055 91.7668 18.3695 91.6228 18.4975C91.4788 18.6255 91.3668 18.7135 91.2868 18.7615C91.1748 18.8735 91.0628 18.9775 90.9508 19.0735C90.8548 19.1695 90.7428 19.2175 90.6148 19.2175C90.5508 19.2175 90.4708 19.2415 90.3748 19.2895C90.2948 19.3215 90.1988 19.3375 90.0868 19.3375C89.9268 19.3855 89.6788 19.3615 89.3428 19.2655C89.0228 19.1695 88.8148 18.9455 88.7188 18.5935C88.6548 18.4175 88.5588 18.1935 88.4308 17.9215C88.3188 17.6495 88.2948 17.3135 88.3588 16.9135C88.4228 16.6255 88.4628 16.3615 88.4788 16.1215C88.4948 15.8815 88.5268 15.7135 88.5748 15.6175C88.5748 15.5695 88.5748 15.4575 88.5748 15.2815C88.5748 15.0895 88.5508 14.9935 88.5028 14.9935C88.4388 14.9935 88.3188 15.0735 88.1428 15.2335C87.9668 15.3935 87.7588 15.6095 87.5188 15.8815C87.2788 16.1375 87.0308 16.4175 86.7748 16.7215C86.5348 17.0255 86.3188 17.3295 86.1268 17.6335C85.9828 17.8095 85.8548 18.0255 85.7428 18.2815C85.6308 18.5375 85.5508 18.6815 85.5028 18.7135C85.3908 18.8415 85.1988 18.8575 84.9268 18.7615C84.6708 18.6655 84.4788 18.5135 84.3508 18.3055C84.3028 18.2095 84.2468 18.1535 84.1828 18.1375C84.1188 18.1055 84.0628 18.0575 84.0148 17.9935C83.9828 17.9135 83.9828 17.7615 84.0148 17.5375C84.0628 17.3135 84.1668 16.9535 84.3268 16.4575C84.5028 15.9135 84.6548 15.4255 84.7828 14.9935C84.9268 14.5455 84.9988 14.3215 84.9988 14.3215C84.9988 14.2575 84.8788 14.3215 84.6388 14.5135C84.3988 14.6895 84.1188 14.9135 83.7988 15.1855C83.6548 15.3615 83.4628 15.5855 83.2228 15.8575C82.9988 16.1295 82.7348 16.4495 82.4308 16.8175C82.1428 17.1855 81.8148 17.6175 81.4468 18.1135C80.9828 18.7695 80.6308 19.1695 80.3908 19.3135C80.1668 19.4575 79.9668 19.4175 79.7908 19.1935ZM101.571 21.0655C101.459 20.8895 101.267 20.7775 100.995 20.7295C100.723 20.6815 100.307 20.6735 99.7466 20.7055C99.5226 20.7375 99.2906 20.7215 99.0506 20.6575C98.8106 20.5935 98.6186 20.4975 98.4746 20.3695C98.3306 20.2415 98.2746 20.1135 98.3066 19.9855C98.3226 19.7935 98.5466 19.5855 98.9786 19.3615C99.4106 19.1375 99.9706 19.0175 100.659 19.0015L101.667 18.9775L101.907 18.4975C101.971 18.3215 102.019 18.1295 102.051 17.9215C102.099 17.7135 102.179 17.4255 102.291 17.0575C102.355 16.8335 102.451 16.5215 102.579 16.1215C102.707 15.7215 102.843 15.2975 102.987 14.8495C103.131 14.3855 103.259 13.9695 103.371 13.6015C103.483 13.2335 103.555 12.9775 103.587 12.8335C103.651 12.6895 103.739 12.4495 103.851 12.1135C103.963 11.7615 104.067 11.4095 104.163 11.0575C104.275 10.6895 104.347 10.4255 104.379 10.2655C104.795 9.00154 105.067 8.12154 105.195 7.62554C105.323 7.11354 105.355 6.84954 105.291 6.83354C105.227 6.83354 105.075 6.84154 104.835 6.85754C104.595 6.87354 104.331 6.89754 104.043 6.92954C103.755 6.94554 103.499 6.96954 103.275 7.00154C103.051 7.03354 102.915 7.06554 102.867 7.09754C102.787 7.20954 102.651 7.19354 102.459 7.04954C102.267 6.88954 102.147 6.72954 102.099 6.56954C102.083 6.42554 102.083 6.28954 102.099 6.16154C102.115 6.03354 102.163 5.94554 102.243 5.89754C102.355 5.80154 102.587 5.69754 102.939 5.58554C103.291 5.45754 103.683 5.34554 104.115 5.24954C104.563 5.15354 104.971 5.08154 105.339 5.03354C105.611 5.00154 105.883 4.94554 106.155 4.86554C106.427 4.76954 106.643 4.65754 106.803 4.52954C106.947 4.48154 107.083 4.44154 107.211 4.40954C107.355 4.37754 107.499 4.36954 107.643 4.38554C107.771 4.46554 107.987 4.50554 108.291 4.50554C108.611 4.50554 108.947 4.49754 109.299 4.48154C110.195 4.40154 110.819 4.43354 111.171 4.57754C111.539 4.70554 111.779 4.88154 111.891 5.10554C111.971 5.40954 111.955 5.66554 111.843 5.87354C111.731 6.06554 111.539 6.15354 111.267 6.13754C111.123 6.16954 110.923 6.20154 110.667 6.23354C110.411 6.24954 110.075 6.26554 109.659 6.28154C108.603 6.37754 108.035 6.48954 107.955 6.61754C107.891 6.68154 107.835 6.74554 107.787 6.80954C107.755 6.87354 107.707 6.94554 107.643 7.02554C107.659 7.08954 107.619 7.28154 107.523 7.60154C107.443 7.90554 107.339 8.23354 107.211 8.58554C107.147 8.79354 107.051 9.08954 106.923 9.47354C106.795 9.85754 106.659 10.2575 106.515 10.6735C106.387 11.0735 106.267 11.4415 106.155 11.7775C106.043 12.0975 105.963 12.3135 105.915 12.4255C105.851 12.5695 105.795 12.7295 105.747 12.9055C105.715 13.0655 105.691 13.1855 105.675 13.2655C105.451 14.0495 105.259 14.7055 105.099 15.2335C104.955 15.7615 104.827 16.2255 104.715 16.6255C104.603 17.0095 104.499 17.3855 104.403 17.7535C104.307 18.1055 104.195 18.5055 104.067 18.9535C104.067 18.9535 104.203 18.9455 104.475 18.9295C104.747 18.8975 105.091 18.8655 105.507 18.8335C106.259 18.7535 106.771 18.7055 107.043 18.6895C107.315 18.6735 107.475 18.6975 107.523 18.7615C107.571 18.8095 107.619 18.9055 107.667 19.0495C107.987 19.4815 107.963 19.8415 107.595 20.1295C107.243 20.4175 106.619 20.5535 105.723 20.5375C104.891 20.5695 104.275 20.5935 103.875 20.6095C103.491 20.6415 103.243 20.6815 103.131 20.7295C103.019 20.7775 102.963 20.8575 102.963 20.9695C102.979 21.2255 102.819 21.3775 102.483 21.4255C102.163 21.4895 101.859 21.3695 101.571 21.0655ZM108.415 25.9135C108.303 25.8655 108.127 25.7455 107.887 25.5535C107.663 25.3615 107.455 25.1535 107.263 24.9295C107.087 24.7215 106.999 24.5695 106.999 24.4735C106.999 24.3775 107.039 24.1215 107.119 23.7055C107.199 23.3055 107.303 22.8095 107.431 22.2175C107.575 21.6415 107.727 21.0495 107.887 20.4415C108.063 19.8495 108.239 19.3215 108.415 18.8575C108.447 18.7775 108.551 18.5135 108.727 18.0655C108.919 17.6015 109.103 17.0415 109.279 16.3855C109.407 15.9695 109.575 15.4975 109.783 14.9695C109.991 14.4415 110.207 13.9135 110.431 13.3855C110.655 12.8415 110.839 12.3615 110.983 11.9455C111.127 11.5295 111.287 11.1135 111.463 10.6975C111.639 10.2655 111.735 10.0175 111.751 9.95354C111.783 9.85754 111.871 9.77754 112.015 9.71354C112.175 9.63354 112.335 9.56954 112.495 9.52154C112.655 9.45754 112.759 9.41754 112.807 9.40154C113.095 9.32154 113.343 9.44154 113.551 9.76154C113.631 9.90554 113.647 10.1055 113.599 10.3615C113.567 10.6015 113.487 10.8655 113.359 11.1535L113.191 11.6335L114.055 11.4415C114.199 11.4415 114.399 11.4495 114.655 11.4655C114.911 11.4815 115.159 11.4975 115.399 11.5135C115.655 11.5295 115.831 11.5535 115.927 11.5855C116.311 11.6015 116.575 11.6735 116.719 11.8015C116.879 11.9295 117.015 12.0975 117.127 12.3055C117.207 12.3855 117.303 12.4975 117.415 12.6415C117.527 12.7695 117.591 12.8975 117.607 13.0255C117.671 13.2975 117.647 13.6175 117.535 13.9855C117.439 14.3535 117.287 14.7295 117.079 15.1135C116.887 15.4815 116.655 15.8255 116.383 16.1455C116.127 16.4495 115.879 16.6815 115.639 16.8415C115.479 16.9055 115.335 16.9775 115.207 17.0575C115.079 17.1215 115.015 17.1535 115.015 17.1535C114.999 17.2335 114.831 17.3695 114.511 17.5615C114.207 17.7535 113.847 17.9375 113.431 18.1135C113.031 18.2735 112.671 18.3775 112.351 18.4255C112.239 18.4415 112.079 18.4575 111.871 18.4735C111.663 18.4895 111.503 18.4655 111.391 18.4015C111.215 18.3695 111.095 18.3535 111.031 18.3535C110.967 18.3535 110.935 18.3855 110.935 18.4495C110.919 18.4815 110.807 18.7375 110.599 19.2175C110.391 19.6975 110.175 20.3615 109.951 21.2095C109.647 22.1375 109.399 22.8975 109.207 23.4895C109.015 24.0975 108.863 24.5695 108.751 24.9055C108.655 25.2415 108.583 25.4815 108.535 25.6255C108.487 25.7855 108.447 25.8815 108.415 25.9135ZM111.511 16.3375C111.559 16.4335 111.727 16.4655 112.015 16.4335C112.303 16.3855 112.631 16.2895 112.999 16.1455C113.367 16.0015 113.695 15.8335 113.983 15.6415C114.287 15.4335 114.463 15.2175 114.511 14.9935C114.863 14.5935 115.111 14.3055 115.255 14.1295C115.399 13.9375 115.391 13.7855 115.231 13.6735C115.055 13.4175 114.799 13.2975 114.463 13.3135C114.143 13.3295 113.631 13.5295 112.927 13.9135C112.655 14.0095 112.471 14.0975 112.375 14.1775C112.279 14.2415 112.199 14.3455 112.135 14.4895C112.087 14.6335 111.991 14.8655 111.847 15.1855C111.703 15.5375 111.607 15.8015 111.559 15.9775C111.511 16.1535 111.495 16.2735 111.511 16.3375ZM119.789 20.2255C119.245 20.0015 118.845 19.7695 118.589 19.5295C118.349 19.2735 118.253 19.0495 118.301 18.8575C118.333 18.7615 118.389 18.6735 118.469 18.5935C118.549 18.5135 118.725 18.4815 118.997 18.4975C119.285 18.4975 119.725 18.5695 120.317 18.7135C120.493 18.7135 120.669 18.7055 120.845 18.6895C121.021 18.6735 121.181 18.6495 121.325 18.6175C121.485 18.5855 121.613 18.5455 121.709 18.4975C121.789 18.4655 121.813 18.4255 121.781 18.3775C121.749 18.3135 121.693 18.2495 121.613 18.1855C121.549 18.1055 121.477 18.0575 121.397 18.0415C121.317 18.0095 121.245 17.9935 121.181 17.9935C121.149 17.9135 121.077 17.8335 120.965 17.7535C120.869 17.6735 120.749 17.5855 120.605 17.4895C120.253 17.2015 119.933 16.9455 119.645 16.7215C119.357 16.4975 119.245 16.3295 119.309 16.2175C119.309 16.1535 119.309 16.1215 119.309 16.1215C119.309 16.1055 119.309 16.0975 119.309 16.0975C119.197 16.0975 119.093 15.9455 118.997 15.6415C118.901 15.3215 118.853 15.0335 118.853 14.7775C118.853 14.4575 118.917 14.1375 119.045 13.8175C119.189 13.4975 119.365 13.1935 119.573 12.9055C119.797 12.6175 120.021 12.3615 120.245 12.1375C120.549 11.8495 120.869 11.5695 121.205 11.2975C121.557 11.0095 121.933 10.7535 122.333 10.5295C122.749 10.3055 123.205 10.1295 123.701 10.0015C123.925 9.95354 124.181 9.92954 124.469 9.92954C124.757 9.92954 124.965 9.96954 125.093 10.0495C125.221 9.96954 125.381 9.99354 125.573 10.1215C125.765 10.2335 125.957 10.3935 126.149 10.6015C126.341 10.8095 126.485 11.0175 126.581 11.2255C126.581 11.4175 126.573 11.6575 126.557 11.9455C126.557 12.2175 126.541 12.4575 126.509 12.6655C126.477 12.8735 126.405 12.9775 126.293 12.9775C126.293 12.9775 126.269 12.9855 126.221 13.0015C126.189 13.0015 126.173 13.0415 126.173 13.1215C126.173 13.2815 126.053 13.4655 125.813 13.6735C125.509 13.8815 125.221 14.0495 124.949 14.1775C124.677 14.3055 124.469 14.3135 124.325 14.2015C124.229 14.1375 124.141 14.0735 124.061 14.0095C123.981 13.9455 123.909 13.8655 123.845 13.7695C123.845 13.7695 123.821 13.7375 123.773 13.6735C123.741 13.5935 123.725 13.5215 123.725 13.4575C123.725 13.3935 123.749 13.3375 123.797 13.2895C123.845 13.2255 123.869 13.1935 123.869 13.1935C124.093 12.9855 124.261 12.7935 124.373 12.6175C124.501 12.4415 124.589 12.2895 124.637 12.1615C124.685 12.0175 124.709 11.9055 124.709 11.8255C124.709 11.7295 124.685 11.6735 124.637 11.6575C124.605 11.6255 124.525 11.6095 124.397 11.6095C124.317 11.6095 124.141 11.6735 123.869 11.8015C123.613 11.9295 123.341 12.0895 123.053 12.2815C122.765 12.4575 122.541 12.6175 122.381 12.7615C122.317 12.8735 122.269 12.9455 122.237 12.9775C122.221 13.0095 122.181 13.0255 122.117 13.0255C122.117 12.9615 122.077 12.9695 121.997 13.0495C121.917 13.1295 121.821 13.2415 121.709 13.3855C121.597 13.5295 121.485 13.6815 121.373 13.8415C121.261 14.0015 121.173 14.1295 121.109 14.2255C121.093 14.3695 121.053 14.5055 120.989 14.6335C120.941 14.7455 120.925 14.8655 120.941 14.9935C120.957 15.1535 121.037 15.3055 121.181 15.4495C121.325 15.5935 121.533 15.7775 121.805 16.0015C122.365 16.4175 122.781 16.7455 123.053 16.9855C123.341 17.2255 123.541 17.4175 123.653 17.5615C123.765 17.7055 123.837 17.8495 123.869 17.9935C124.141 18.4895 124.173 18.9215 123.965 19.2895C123.757 19.6415 123.437 19.9135 123.005 20.1055C122.845 20.1855 122.565 20.2575 122.165 20.3215C121.765 20.4015 121.341 20.4335 120.893 20.4175C120.461 20.4175 120.093 20.3535 119.789 20.2255ZM128.588 19.2415C128.284 18.9695 128.02 18.6895 127.796 18.4015C127.572 18.0975 127.42 17.6335 127.34 17.0095C127.308 16.7215 127.34 16.3215 127.436 15.8095C127.532 15.2975 127.676 14.7615 127.868 14.2015C128.06 13.6255 128.268 13.0975 128.492 12.6175C128.716 12.1375 128.94 11.7855 129.164 11.5615C129.356 11.3215 129.596 11.1295 129.884 10.9855C130.188 10.8415 130.5 10.8415 130.82 10.9855C130.996 11.1935 131.084 11.4815 131.084 11.8495C131.1 12.2015 131.012 12.5295 130.82 12.8335C130.5 13.2655 130.22 13.8095 129.98 14.4655C129.756 15.1055 129.604 15.6815 129.524 16.1935C129.412 16.5615 129.364 16.8495 129.38 17.0575C129.396 17.2495 129.508 17.3695 129.716 17.4175C130.02 17.4975 130.332 17.4095 130.652 17.1535C130.988 16.8975 131.308 16.5215 131.612 16.0255C131.932 15.5295 132.212 14.9615 132.452 14.3215C132.548 14.0975 132.62 13.8335 132.668 13.5295C132.732 13.2255 132.796 13.0015 132.86 12.8575C132.94 12.5375 133.076 12.2895 133.268 12.1135C133.476 11.9215 133.692 11.8015 133.916 11.7535C134.14 11.7055 134.308 11.7295 134.42 11.8255C134.564 11.8895 134.716 11.9935 134.876 12.1375C135.036 12.2815 135.1 12.5375 135.068 12.9055C135.068 13.4975 134.94 14.0015 134.684 14.4175C134.428 14.8335 134.212 15.2735 134.036 15.7375C133.892 16.0735 133.66 16.4655 133.34 16.9135C133.02 17.3615 132.676 17.7695 132.308 18.1375C131.956 18.5055 131.628 18.7535 131.324 18.8815C130.876 19.1695 130.42 19.3455 129.956 19.4095C129.492 19.4575 129.036 19.4015 128.588 19.2415ZM136.463 19.1935C136.415 19.1295 136.311 19.0495 136.151 18.9535C135.991 18.8575 135.911 18.7775 135.911 18.7135C135.911 18.6815 135.903 18.6415 135.887 18.5935C135.887 18.5455 135.855 18.5215 135.791 18.5215C135.743 18.4735 135.767 18.2975 135.863 17.9935C135.975 17.6895 136.119 17.3295 136.295 16.9135C136.487 16.4975 136.687 16.0975 136.895 15.7135C137.103 15.3135 137.279 14.9935 137.423 14.7535C137.503 14.7055 137.551 14.6415 137.567 14.5615C137.599 14.4655 137.599 14.4175 137.567 14.4175C137.567 14.4175 137.607 14.3455 137.687 14.2015C137.783 14.0415 137.855 13.9375 137.903 13.8895C138.031 13.6655 138.127 13.4415 138.191 13.2175C138.255 12.9775 138.271 12.7775 138.239 12.6175C138.175 12.5375 138.103 12.5135 138.023 12.5455C137.943 12.5775 137.903 12.5935 137.903 12.5935C137.839 12.6095 137.743 12.6415 137.615 12.6895C137.503 12.7215 137.399 12.7695 137.303 12.8335C136.935 13.0895 136.663 13.2175 136.487 13.2175C136.327 13.2175 136.167 13.0255 136.007 12.6415C135.943 12.4655 135.919 12.2975 135.935 12.1375C135.951 11.9775 136.015 11.8495 136.127 11.7535C136.255 11.6415 136.415 11.5295 136.607 11.4175C136.799 11.2895 136.927 11.2015 136.991 11.1535C137.167 11.0415 137.415 10.9215 137.735 10.7935C138.055 10.6655 138.247 10.5935 138.311 10.5775C138.727 10.4495 139.079 10.4495 139.367 10.5775C139.655 10.6895 139.871 10.9135 140.015 11.2495C140.239 11.5215 140.351 11.8095 140.351 12.1135C140.351 12.4175 140.239 12.7935 140.015 13.2415L139.775 13.6015C139.695 13.7615 139.679 13.8415 139.727 13.8415C139.791 13.8415 139.863 13.7855 139.943 13.6735C139.991 13.6095 140.087 13.5135 140.231 13.3855C140.375 13.2575 140.471 13.1935 140.519 13.1935C140.519 13.1935 140.535 13.1855 140.567 13.1695C140.615 13.1535 140.639 13.0895 140.639 12.9775C140.687 12.9295 140.735 12.8815 140.783 12.8335C140.847 12.7855 140.879 12.7615 140.879 12.7615C140.943 12.7615 141.023 12.7295 141.119 12.6655C141.231 12.5855 141.415 12.4415 141.671 12.2335C141.847 12.1055 142.007 12.0415 142.151 12.0415C142.519 11.9295 142.815 12.0495 143.039 12.4015C143.279 12.7535 143.399 13.2095 143.399 13.7695L142.895 15.0655L143.759 14.0095C143.855 13.8815 143.951 13.7695 144.047 13.6735C144.159 13.5775 144.255 13.4975 144.335 13.4335C144.367 13.3215 144.415 13.2575 144.479 13.2415C144.543 13.2255 144.575 13.2175 144.575 13.2175C144.575 13.2175 144.591 13.2175 144.623 13.2175C144.655 13.2015 144.671 13.1695 144.671 13.1215C144.751 13.0575 144.839 13.0015 144.935 12.9535C145.031 12.8895 145.095 12.8255 145.127 12.7615C145.399 12.6495 145.727 12.6335 146.111 12.7135C146.495 12.7775 146.767 12.9775 146.927 13.3135C147.039 13.5055 147.143 13.6735 147.239 13.8175C147.335 13.9615 147.383 14.1775 147.383 14.4655C147.351 14.7055 147.319 14.8735 147.287 14.9695C147.271 15.0655 147.255 15.1695 147.239 15.2815C147.223 15.3775 147.199 15.5535 147.167 15.8095C147.103 15.9375 147.063 16.0735 147.047 16.2175C147.047 16.3615 147.047 16.4975 147.047 16.6255C147.047 16.8335 147.055 16.9775 147.071 17.0575C147.087 17.1215 147.151 17.1535 147.263 17.1535C147.487 17.1055 147.671 17.0335 147.815 16.9375C147.975 16.8255 148.151 16.6815 148.343 16.5055C148.583 16.2815 148.791 16.2495 148.967 16.4095C149.159 16.5535 149.279 16.7215 149.327 16.9135C149.359 16.9775 149.327 17.1215 149.231 17.3455C149.135 17.5695 149.023 17.7855 148.895 17.9935C148.767 18.2015 148.663 18.3055 148.583 18.3055C148.535 18.3055 148.439 18.3695 148.295 18.4975C148.151 18.6255 148.039 18.7135 147.959 18.7615C147.847 18.8735 147.735 18.9775 147.623 19.0735C147.527 19.1695 147.415 19.2175 147.287 19.2175C147.223 19.2175 147.143 19.2415 147.047 19.2895C146.967 19.3215 146.871 19.3375 146.759 19.3375C146.599 19.3855 146.351 19.3615 146.015 19.2655C145.695 19.1695 145.487 18.9455 145.391 18.5935C145.327 18.4175 145.231 18.1935 145.103 17.9215C144.991 17.6495 144.967 17.3135 145.031 16.9135C145.095 16.6255 145.135 16.3615 145.151 16.1215C145.167 15.8815 145.199 15.7135 145.247 15.6175C145.247 15.5695 145.247 15.4575 145.247 15.2815C145.247 15.0895 145.223 14.9935 145.175 14.9935C145.111 14.9935 144.991 15.0735 144.815 15.2335C144.639 15.3935 144.431 15.6095 144.191 15.8815C143.951 16.1375 143.703 16.4175 143.447 16.7215C143.207 17.0255 142.991 17.3295 142.799 17.6335C142.655 17.8095 142.527 18.0255 142.415 18.2815C142.303 18.5375 142.223 18.6815 142.175 18.7135C142.063 18.8415 141.871 18.8575 141.599 18.7615C141.343 18.6655 141.151 18.5135 141.023 18.3055C140.975 18.2095 140.919 18.1535 140.855 18.1375C140.791 18.1055 140.735 18.0575 140.687 17.9935C140.655 17.9135 140.655 17.7615 140.687 17.5375C140.735 17.3135 140.839 16.9535 140.999 16.4575C141.175 15.9135 141.327 15.4255 141.455 14.9935C141.599 14.5455 141.671 14.3215 141.671 14.3215C141.671 14.2575 141.551 14.3215 141.311 14.5135C141.071 14.6895 140.791 14.9135 140.471 15.1855C140.327 15.3615 140.135 15.5855 139.895 15.8575C139.671 16.1295 139.407 16.4495 139.103 16.8175C138.815 17.1855 138.487 17.6175 138.119 18.1135C137.655 18.7695 137.303 19.1695 137.063 19.3135C136.839 19.4575 136.639 19.4175 136.463 19.1935ZM156.37 19.6735C156.242 19.5455 156.146 19.3535 156.082 19.0975C156.034 18.8415 156.018 18.5935 156.034 18.3535C156.05 18.0975 156.09 17.9055 156.154 17.7775C156.154 17.6495 156.17 17.5535 156.202 17.4895C156.25 17.4095 156.266 17.3375 156.25 17.2735C156.234 17.2095 156.25 17.0975 156.298 16.9375C156.346 16.7775 156.394 16.6255 156.442 16.4815C156.554 16.2255 156.682 15.8975 156.826 15.4975C156.97 15.0815 157.114 14.6655 157.258 14.2495C157.402 13.8175 157.522 13.4495 157.618 13.1455C157.714 12.8255 157.77 12.6335 157.786 12.5695C157.786 12.3775 157.914 12.2735 158.17 12.2575C158.362 12.1935 158.594 12.2735 158.866 12.4975C159.138 12.7215 159.354 12.9615 159.514 13.2175C159.642 13.3455 159.69 13.5135 159.658 13.7215C159.626 13.9295 159.522 14.2255 159.346 14.6095C159.282 14.7375 159.202 14.9535 159.106 15.2575C159.026 15.5455 158.97 15.7855 158.938 15.9775C158.874 16.1055 158.794 16.2895 158.698 16.5295C158.618 16.7535 158.546 16.9695 158.482 17.1775C158.45 17.2575 158.418 17.4095 158.386 17.6335C158.354 17.8415 158.314 18.0575 158.266 18.2815C158.218 18.5055 158.154 18.6815 158.074 18.8095C157.93 19.4655 157.674 19.8495 157.306 19.9615C156.954 20.0735 156.642 19.9775 156.37 19.6735ZM158.962 10.0495C158.786 9.92154 158.65 9.76954 158.554 9.59354C158.474 9.40154 158.426 9.23354 158.41 9.08954C158.41 8.94554 158.426 8.85754 158.458 8.82554C158.618 8.64954 158.754 8.41754 158.866 8.12954C158.994 7.84154 159.13 7.57754 159.274 7.33754C159.306 7.28954 159.346 7.22554 159.394 7.14554C159.458 7.04954 159.522 6.99354 159.586 6.97754C159.778 6.84954 160.042 6.85754 160.378 7.00154C160.73 7.14554 160.986 7.34554 161.146 7.60154C161.29 7.90554 161.33 8.21754 161.266 8.53754C161.218 8.85754 161.05 9.19354 160.762 9.54554C160.522 9.86554 160.218 10.0735 159.85 10.1695C159.482 10.2495 159.186 10.2095 158.962 10.0495ZM163.385 20.2495C162.537 20.2495 161.913 19.9775 161.513 19.4335C161.401 19.1775 161.345 18.9215 161.345 18.6655C161.361 18.3935 161.425 18.2015 161.537 18.0895C161.649 17.9615 161.785 17.9855 161.945 18.1615C162.153 18.2895 162.449 18.3535 162.833 18.3535C163.025 18.3535 163.193 18.3535 163.337 18.3535C163.497 18.3375 163.681 18.3215 163.889 18.3055C164.257 18.2735 164.489 18.1615 164.585 17.9695C164.697 17.7775 164.673 17.6175 164.513 17.4895H164.537C164.105 17.3775 163.681 17.2175 163.265 17.0095C162.849 16.8015 162.497 16.5695 162.209 16.3135C161.921 16.0415 161.753 15.7855 161.705 15.5455C161.577 15.0175 161.609 14.4735 161.801 13.9135C161.993 13.3535 162.273 12.8655 162.641 12.4495C162.785 12.3535 162.985 12.2175 163.241 12.0415C163.497 11.8495 163.681 11.7455 163.793 11.7295V11.7535C164.097 11.4335 164.441 11.1775 164.825 10.9855C165.209 10.7775 165.657 10.5855 166.169 10.4095L166.553 10.3615C166.745 10.3295 166.913 10.3135 167.057 10.3135C167.041 10.3135 167.081 10.3295 167.177 10.3615C167.273 10.3935 167.353 10.4175 167.417 10.4335C167.513 10.4815 167.609 10.5055 167.705 10.5055C167.929 10.5375 168.145 10.6575 168.353 10.8655C168.577 11.0575 168.753 11.2895 168.881 11.5615C169.025 11.8175 169.081 12.0575 169.049 12.2815C169.001 12.6495 168.865 13.0175 168.641 13.3855C168.417 13.7375 168.177 13.9375 167.921 13.9855C167.953 13.9695 167.921 13.9375 167.825 13.8895C167.729 13.8415 167.641 13.7935 167.561 13.7455L167.465 13.7935C167.465 13.7935 167.457 13.7695 167.441 13.7215C167.441 13.6735 167.425 13.6175 167.393 13.5535C167.329 13.4415 167.281 13.3215 167.249 13.1935C167.233 13.0655 167.233 12.9215 167.249 12.7615C167.281 12.5855 167.289 12.4815 167.273 12.4495C167.257 12.4175 167.161 12.3935 166.985 12.3775C166.777 12.3295 166.513 12.3535 166.193 12.4495C165.873 12.5295 165.577 12.6735 165.305 12.8815C164.985 13.0895 164.745 13.2575 164.585 13.3855C164.441 13.5135 164.329 13.6415 164.249 13.7695C164.169 13.8815 164.081 14.0495 163.985 14.2735C163.921 14.3855 163.865 14.4895 163.817 14.5855C163.769 14.6655 163.745 14.7455 163.745 14.8255C163.745 14.9855 163.881 15.1535 164.153 15.3295C164.425 15.4895 164.833 15.6815 165.377 15.9055C165.809 16.0815 166.089 16.3215 166.217 16.6255C166.361 16.9295 166.489 17.2175 166.601 17.4895C166.633 17.5535 166.665 17.6735 166.697 17.8495C166.745 18.0095 166.753 18.1055 166.721 18.1375C166.753 18.1695 166.769 18.2015 166.769 18.2335V18.2095C166.897 18.4495 166.873 18.7055 166.697 18.9775C166.537 19.2335 166.281 19.4735 165.929 19.6975C165.577 19.9055 165.177 20.0575 164.729 20.1535H164.753C164.513 20.1855 164.273 20.2095 164.033 20.2255C163.809 20.2415 163.593 20.2495 163.385 20.2495ZM54.6564 44.2255C54.1124 44.0015 53.7124 43.7695 53.4564 43.5295C53.2164 43.2735 53.1204 43.0495 53.1684 42.8575C53.2004 42.7615 53.2564 42.6735 53.3364 42.5935C53.4164 42.5135 53.5924 42.4815 53.8644 42.4975C54.1524 42.4975 54.5924 42.5695 55.1844 42.7135C55.3604 42.7135 55.5364 42.7055 55.7124 42.6895C55.8884 42.6735 56.0484 42.6495 56.1924 42.6175C56.3524 42.5855 56.4804 42.5455 56.5764 42.4975C56.6564 42.4655 56.6804 42.4255 56.6484 42.3775C56.6164 42.3135 56.5604 42.2495 56.4804 42.1855C56.4164 42.1055 56.3444 42.0575 56.2644 42.0415C56.1844 42.0095 56.1124 41.9935 56.0484 41.9935C56.0164 41.9135 55.9444 41.8335 55.8324 41.7535C55.7364 41.6735 55.6164 41.5855 55.4724 41.4895C55.1204 41.2015 54.8004 40.9455 54.5124 40.7215C54.2244 40.4975 54.1124 40.3295 54.1764 40.2175C54.1764 40.1535 54.1764 40.1215 54.1764 40.1215C54.1764 40.1055 54.1764 40.0975 54.1764 40.0975C54.0644 40.0975 53.9604 39.9455 53.8644 39.6415C53.7684 39.3215 53.7204 39.0335 53.7204 38.7775C53.7204 38.4575 53.7844 38.1375 53.9124 37.8175C54.0564 37.4975 54.2324 37.1935 54.4404 36.9055C54.6644 36.6175 54.8884 36.3615 55.1124 36.1375C55.4164 35.8495 55.7364 35.5695 56.0724 35.2975C56.4244 35.0095 56.8004 34.7535 57.2004 34.5295C57.6164 34.3055 58.0724 34.1295 58.5684 34.0015C58.7924 33.9535 59.0484 33.9295 59.3364 33.9295C59.6244 33.9295 59.8324 33.9695 59.9604 34.0495C60.0884 33.9695 60.2484 33.9935 60.4404 34.1215C60.6324 34.2335 60.8244 34.3935 61.0164 34.6015C61.2084 34.8095 61.3524 35.0175 61.4484 35.2255C61.4484 35.4175 61.4404 35.6575 61.4244 35.9455C61.4244 36.2175 61.4084 36.4575 61.3764 36.6655C61.3444 36.8735 61.2724 36.9775 61.1604 36.9775C61.1604 36.9775 61.1364 36.9855 61.0884 37.0015C61.0564 37.0015 61.0404 37.0415 61.0404 37.1215C61.0404 37.2815 60.9204 37.4655 60.6804 37.6735C60.3764 37.8815 60.0884 38.0495 59.8164 38.1775C59.5444 38.3055 59.3364 38.3135 59.1924 38.2015C59.0964 38.1375 59.0084 38.0735 58.9284 38.0095C58.8484 37.9455 58.7764 37.8655 58.7124 37.7695C58.7124 37.7695 58.6884 37.7375 58.6404 37.6735C58.6084 37.5935 58.5924 37.5215 58.5924 37.4575C58.5924 37.3935 58.6164 37.3375 58.6644 37.2895C58.7124 37.2255 58.7364 37.1935 58.7364 37.1935C58.9604 36.9855 59.1284 36.7935 59.2404 36.6175C59.3684 36.4415 59.4564 36.2895 59.5044 36.1615C59.5524 36.0175 59.5764 35.9055 59.5764 35.8255C59.5764 35.7295 59.5524 35.6735 59.5044 35.6575C59.4724 35.6255 59.3924 35.6095 59.2644 35.6095C59.1844 35.6095 59.0084 35.6735 58.7364 35.8015C58.4804 35.9295 58.2084 36.0895 57.9204 36.2815C57.6324 36.4575 57.4084 36.6175 57.2484 36.7615C57.1844 36.8735 57.1364 36.9455 57.1044 36.9775C57.0884 37.0095 57.0484 37.0255 56.9844 37.0255C56.9844 36.9615 56.9444 36.9695 56.8644 37.0495C56.7844 37.1295 56.6884 37.2415 56.5764 37.3855C56.4644 37.5295 56.3524 37.6815 56.2404 37.8415C56.1284 38.0015 56.0404 38.1295 55.9764 38.2255C55.9604 38.3695 55.9204 38.5055 55.8564 38.6335C55.8084 38.7455 55.7924 38.8655 55.8084 38.9935C55.8244 39.1535 55.9044 39.3055 56.0484 39.4495C56.1924 39.5935 56.4004 39.7775 56.6724 40.0015C57.2324 40.4175 57.6484 40.7455 57.9204 40.9855C58.2084 41.2255 58.4084 41.4175 58.5204 41.5615C58.6324 41.7055 58.7044 41.8495 58.7364 41.9935C59.0084 42.4895 59.0404 42.9215 58.8324 43.2895C58.6244 43.6415 58.3044 43.9135 57.8724 44.1055C57.7124 44.1855 57.4324 44.2575 57.0324 44.3215C56.6324 44.4015 56.2084 44.4335 55.7604 44.4175C55.3284 44.4175 54.9604 44.3535 54.6564 44.2255ZM63.479 44.0575C63.095 44.0575 62.759 43.8575 62.471 43.4575C62.199 43.0415 62.031 42.5455 61.967 41.9695C61.983 41.8415 61.999 41.6575 62.015 41.4175C62.047 41.1775 62.079 40.9295 62.111 40.6735C62.175 40.3695 62.263 39.9775 62.375 39.4975C62.487 39.0175 62.607 38.5375 62.735 38.0575C62.863 37.5615 62.975 37.1375 63.071 36.7855C63.167 36.4175 63.223 36.2015 63.239 36.1375C63.335 35.9135 63.551 35.8575 63.887 35.9695C64.223 36.0815 64.511 36.3215 64.751 36.6895C64.847 36.8175 64.903 36.9695 64.919 37.1455C64.951 37.3215 64.927 37.5775 64.847 37.9135C64.783 38.2495 64.655 38.7455 64.463 39.4015C64.287 40.0415 64.151 40.5615 64.055 40.9615C63.975 41.3455 63.943 41.7535 63.959 42.1855C63.895 42.9215 63.831 43.4255 63.767 43.6975C63.703 43.9535 63.607 44.0735 63.479 44.0575ZM65.687 34.0975C65.623 34.1455 65.559 34.1695 65.495 34.1695C65.447 34.1535 65.359 34.1055 65.231 34.0255C65.119 34.0095 64.975 33.9375 64.799 33.8095C64.639 33.6655 64.495 33.5215 64.367 33.3775C64.255 33.2335 64.199 33.1455 64.199 33.1135C64.183 32.9535 64.191 32.6975 64.223 32.3455C64.271 31.9935 64.359 31.6655 64.487 31.3615C64.631 31.0415 64.823 30.8735 65.063 30.8575C65.127 30.8575 65.263 30.8895 65.471 30.9535C65.695 31.0175 65.927 31.0975 66.167 31.1935C66.295 31.4335 66.415 31.7455 66.527 32.1295C66.639 32.5135 66.647 32.8895 66.551 33.2575C66.471 33.6095 66.183 33.8895 65.687 34.0975ZM67.1579 43.1935C67.1099 43.1295 67.0059 43.0495 66.8459 42.9535C66.6859 42.8575 66.6059 42.7775 66.6059 42.7135C66.6059 42.6815 66.5979 42.6415 66.5819 42.5935C66.5819 42.5455 66.5499 42.5215 66.4859 42.5215C66.4379 42.4735 66.4619 42.2975 66.5579 41.9935C66.6699 41.6895 66.8139 41.3295 66.9899 40.9135C67.1819 40.4975 67.3819 40.0975 67.5899 39.7135C67.7979 39.3135 67.9739 38.9935 68.1179 38.7535C68.1979 38.7055 68.2459 38.6415 68.2619 38.5615C68.2939 38.4655 68.2939 38.4175 68.2619 38.4175C68.2619 38.4175 68.3019 38.3455 68.3819 38.2015C68.4779 38.0415 68.5499 37.9375 68.5979 37.8895C68.7259 37.6655 68.8219 37.4415 68.8859 37.2175C68.9499 36.9775 68.9659 36.7775 68.9339 36.6175C68.8699 36.5375 68.7979 36.5135 68.7179 36.5455C68.6379 36.5775 68.5979 36.5935 68.5979 36.5935C68.5339 36.6095 68.4379 36.6415 68.3099 36.6895C68.1979 36.7215 68.0939 36.7695 67.9979 36.8335C67.6299 37.0895 67.3579 37.2175 67.1819 37.2175C67.0219 37.2175 66.8619 37.0255 66.7019 36.6415C66.6379 36.4655 66.6139 36.2975 66.6299 36.1375C66.6459 35.9775 66.7099 35.8495 66.8219 35.7535C66.9499 35.6415 67.1099 35.5295 67.3019 35.4175C67.4939 35.2895 67.6219 35.2015 67.6859 35.1535C67.8619 35.0415 68.1099 34.9215 68.4299 34.7935C68.7499 34.6655 68.9419 34.5935 69.0059 34.5775C69.4219 34.4495 69.7739 34.4495 70.0619 34.5775C70.3499 34.6895 70.5659 34.9135 70.7099 35.2495C70.9339 35.5215 71.0459 35.8095 71.0459 36.1135C71.0459 36.4175 70.9339 36.7935 70.7099 37.2415L70.4699 37.6015C70.3899 37.7615 70.3739 37.8415 70.4219 37.8415C70.4859 37.8415 70.5579 37.7855 70.6379 37.6735C70.6859 37.6095 70.7819 37.5135 70.9259 37.3855C71.0699 37.2575 71.1659 37.1935 71.2139 37.1935C71.2139 37.1935 71.2299 37.1855 71.2619 37.1695C71.3099 37.1535 71.3339 37.0895 71.3339 36.9775C71.3819 36.9295 71.4299 36.8815 71.4779 36.8335C71.5419 36.7855 71.5739 36.7615 71.5739 36.7615C71.6379 36.7615 71.7179 36.7295 71.8139 36.6655C71.9259 36.5855 72.1099 36.4415 72.3659 36.2335C72.5419 36.1055 72.7019 36.0415 72.8459 36.0415C73.2139 35.9295 73.5099 36.0495 73.7339 36.4015C73.9739 36.7535 74.0939 37.2095 74.0939 37.7695L73.5899 39.0655L74.4539 38.0095C74.5499 37.8815 74.6459 37.7695 74.7419 37.6735C74.8539 37.5775 74.9499 37.4975 75.0299 37.4335C75.0619 37.3215 75.1099 37.2575 75.1739 37.2415C75.2379 37.2255 75.2699 37.2175 75.2699 37.2175C75.2699 37.2175 75.2859 37.2175 75.3179 37.2175C75.3499 37.2015 75.3659 37.1695 75.3659 37.1215C75.4459 37.0575 75.5339 37.0015 75.6299 36.9535C75.7259 36.8895 75.7899 36.8255 75.8219 36.7615C76.0939 36.6495 76.4219 36.6335 76.8059 36.7135C77.1899 36.7775 77.4619 36.9775 77.6219 37.3135C77.7339 37.5055 77.8379 37.6735 77.9339 37.8175C78.0299 37.9615 78.0779 38.1775 78.0779 38.4655C78.0459 38.7055 78.0139 38.8735 77.9819 38.9695C77.9659 39.0655 77.9499 39.1695 77.9339 39.2815C77.9179 39.3775 77.8939 39.5535 77.8619 39.8095C77.7979 39.9375 77.7579 40.0735 77.7419 40.2175C77.7419 40.3615 77.7419 40.4975 77.7419 40.6255C77.7419 40.8335 77.7499 40.9775 77.7659 41.0575C77.7819 41.1215 77.8459 41.1535 77.9579 41.1535C78.1819 41.1055 78.3659 41.0335 78.5099 40.9375C78.6699 40.8255 78.8459 40.6815 79.0379 40.5055C79.2779 40.2815 79.4859 40.2495 79.6619 40.4095C79.8539 40.5535 79.9739 40.7215 80.0219 40.9135C80.0539 40.9775 80.0219 41.1215 79.9259 41.3455C79.8299 41.5695 79.7179 41.7855 79.5899 41.9935C79.4619 42.2015 79.3579 42.3055 79.2779 42.3055C79.2299 42.3055 79.1339 42.3695 78.9899 42.4975C78.8459 42.6255 78.7339 42.7135 78.6539 42.7615C78.5419 42.8735 78.4299 42.9775 78.3179 43.0735C78.2219 43.1695 78.1099 43.2175 77.9819 43.2175C77.9179 43.2175 77.8379 43.2415 77.7419 43.2895C77.6619 43.3215 77.5659 43.3375 77.4539 43.3375C77.2939 43.3855 77.0459 43.3615 76.7099 43.2655C76.3899 43.1695 76.1819 42.9455 76.0859 42.5935C76.0219 42.4175 75.9259 42.1935 75.7979 41.9215C75.6859 41.6495 75.6619 41.3135 75.7259 40.9135C75.7899 40.6255 75.8299 40.3615 75.8459 40.1215C75.8619 39.8815 75.8939 39.7135 75.9419 39.6175C75.9419 39.5695 75.9419 39.4575 75.9419 39.2815C75.9419 39.0895 75.9179 38.9935 75.8699 38.9935C75.8059 38.9935 75.6859 39.0735 75.5099 39.2335C75.3339 39.3935 75.1259 39.6095 74.8859 39.8815C74.6459 40.1375 74.3979 40.4175 74.1419 40.7215C73.9019 41.0255 73.6859 41.3295 73.4939 41.6335C73.3499 41.8095 73.2219 42.0255 73.1099 42.2815C72.9979 42.5375 72.9179 42.6815 72.8699 42.7135C72.7579 42.8415 72.5659 42.8575 72.2939 42.7615C72.0379 42.6655 71.8459 42.5135 71.7179 42.3055C71.6699 42.2095 71.6139 42.1535 71.5499 42.1375C71.4859 42.1055 71.4299 42.0575 71.3819 41.9935C71.3499 41.9135 71.3499 41.7615 71.3819 41.5375C71.4299 41.3135 71.5339 40.9535 71.6939 40.4575C71.8699 39.9135 72.0219 39.4255 72.1499 38.9935C72.2939 38.5455 72.3659 38.3215 72.3659 38.3215C72.3659 38.2575 72.2459 38.3215 72.0059 38.5135C71.7659 38.6895 71.4859 38.9135 71.1659 39.1855C71.0219 39.3615 70.8299 39.5855 70.5899 39.8575C70.3659 40.1295 70.1019 40.4495 69.7979 40.8175C69.5099 41.1855 69.1819 41.6175 68.8139 42.1135C68.3499 42.7695 67.9979 43.1695 67.7579 43.3135C67.5339 43.4575 67.3339 43.4175 67.1579 43.1935ZM80.1493 49.9135C80.0373 49.8655 79.8613 49.7455 79.6213 49.5535C79.3973 49.3615 79.1893 49.1535 78.9973 48.9295C78.8213 48.7215 78.7332 48.5695 78.7332 48.4735C78.7332 48.3775 78.7732 48.1215 78.8533 47.7055C78.9333 47.3055 79.0373 46.8095 79.1653 46.2175C79.3093 45.6415 79.4613 45.0495 79.6213 44.4415C79.7973 43.8495 79.9733 43.3215 80.1493 42.8575C80.1813 42.7775 80.2853 42.5135 80.4613 42.0655C80.6533 41.6015 80.8373 41.0415 81.0133 40.3855C81.1413 39.9695 81.3093 39.4975 81.5173 38.9695C81.7253 38.4415 81.9413 37.9135 82.1653 37.3855C82.3893 36.8415 82.5733 36.3615 82.7173 35.9455C82.8613 35.5295 83.0213 35.1135 83.1973 34.6975C83.3733 34.2655 83.4693 34.0175 83.4853 33.9535C83.5173 33.8575 83.6053 33.7775 83.7493 33.7135C83.9093 33.6335 84.0693 33.5695 84.2293 33.5215C84.3893 33.4575 84.4933 33.4175 84.5413 33.4015C84.8293 33.3215 85.0773 33.4415 85.2853 33.7615C85.3653 33.9055 85.3813 34.1055 85.3333 34.3615C85.3013 34.6015 85.2213 34.8655 85.0933 35.1535L84.9253 35.6335L85.7893 35.4415C85.9333 35.4415 86.1333 35.4495 86.3893 35.4655C86.6453 35.4815 86.8933 35.4975 87.1333 35.5135C87.3893 35.5295 87.5653 35.5535 87.6613 35.5855C88.0453 35.6015 88.3093 35.6735 88.4533 35.8015C88.6133 35.9295 88.7493 36.0975 88.8613 36.3055C88.9413 36.3855 89.0373 36.4975 89.1493 36.6415C89.2613 36.7695 89.3253 36.8975 89.3413 37.0255C89.4053 37.2975 89.3813 37.6175 89.2693 37.9855C89.1733 38.3535 89.0213 38.7295 88.8133 39.1135C88.6213 39.4815 88.3893 39.8255 88.1173 40.1455C87.8613 40.4495 87.6133 40.6815 87.3733 40.8415C87.2133 40.9055 87.0693 40.9775 86.9413 41.0575C86.8133 41.1215 86.7493 41.1535 86.7493 41.1535C86.7333 41.2335 86.5653 41.3695 86.2453 41.5615C85.9413 41.7535 85.5813 41.9375 85.1653 42.1135C84.7653 42.2735 84.4053 42.3775 84.0853 42.4255C83.9733 42.4415 83.8133 42.4575 83.6053 42.4735C83.3973 42.4895 83.2373 42.4655 83.1253 42.4015C82.9493 42.3695 82.8293 42.3535 82.7653 42.3535C82.7013 42.3535 82.6693 42.3855 82.6693 42.4495C82.6533 42.4815 82.5413 42.7375 82.3333 43.2175C82.1253 43.6975 81.9093 44.3615 81.6853 45.2095C81.3813 46.1375 81.1333 46.8975 80.9413 47.4895C80.7493 48.0975 80.5973 48.5695 80.4853 48.9055C80.3893 49.2415 80.3173 49.4815 80.2693 49.6255C80.2213 49.7855 80.1813 49.8815 80.1493 49.9135ZM83.2453 40.3375C83.2933 40.4335 83.4613 40.4655 83.7493 40.4335C84.0373 40.3855 84.3653 40.2895 84.7333 40.1455C85.1013 40.0015 85.4293 39.8335 85.7173 39.6415C86.0213 39.4335 86.1973 39.2175 86.2453 38.9935C86.5973 38.5935 86.8453 38.3055 86.9893 38.1295C87.1333 37.9375 87.1253 37.7855 86.9653 37.6735C86.7893 37.4175 86.5333 37.2975 86.1973 37.3135C85.8773 37.3295 85.3653 37.5295 84.6613 37.9135C84.3893 38.0095 84.2053 38.0975 84.1093 38.1775C84.0133 38.2415 83.9333 38.3455 83.8693 38.4895C83.8213 38.6335 83.7253 38.8655 83.5813 39.1855C83.4373 39.5375 83.3413 39.8015 83.2933 39.9775C83.2453 40.1535 83.2293 40.2735 83.2453 40.3375ZM91.2596 44.3455C90.9556 44.4255 90.6836 44.3375 90.4436 44.0815C90.2036 43.8415 90.0356 43.4815 89.9396 43.0015C89.8436 42.5215 89.8596 41.9855 89.9876 41.3935C90.0676 41.2015 90.1316 41.0175 90.1796 40.8415C90.2276 40.6495 90.2516 40.4975 90.2516 40.3855C90.2836 40.2255 90.3476 39.9935 90.4436 39.6895C90.5396 39.3695 90.6436 39.0415 90.7556 38.7055C90.8676 38.3695 90.9716 38.0735 91.0676 37.8175C91.1796 37.5455 91.2516 37.3775 91.2836 37.3135C91.3476 37.3135 91.4036 37.2575 91.4516 37.1455C91.4996 37.0335 91.5236 36.9215 91.5236 36.8095C91.5236 36.6815 91.5476 36.5375 91.5956 36.3775C91.6596 36.2175 91.7236 36.1055 91.7876 36.0415C91.7876 35.9615 91.8036 35.8735 91.8356 35.7775C91.8836 35.6655 91.9076 35.5775 91.9076 35.5135C91.9076 35.4495 91.9236 35.3855 91.9556 35.3215C92.0036 35.2575 92.0276 35.1935 92.0276 35.1295C92.1396 34.9215 92.2836 34.5935 92.4596 34.1455C92.6516 33.6815 92.8516 33.1695 93.0596 32.6095C93.2836 32.0495 93.4916 31.4975 93.6836 30.9535C93.8756 30.4095 94.0276 29.9535 94.1396 29.5855C94.2676 29.2015 94.3316 28.9695 94.3316 28.8895C94.3316 28.7615 94.3796 28.6415 94.4756 28.5295C94.5716 28.4175 94.6836 28.3615 94.8116 28.3615C94.8596 28.3135 94.9716 28.2815 95.1476 28.2655C95.3236 28.2335 95.4436 28.2175 95.5076 28.2175C95.5076 28.2175 95.5396 28.2495 95.6036 28.3135C95.6676 28.3775 95.7636 28.4735 95.8916 28.6015C96.0196 28.7135 96.1396 28.8415 96.2516 28.9855C96.3796 29.1295 96.4436 29.2975 96.4436 29.4895C96.4436 29.6975 96.4116 29.8975 96.3476 30.0895C96.2996 30.2815 96.2036 30.5455 96.0596 30.8815C95.9156 31.2015 95.6916 31.6815 95.3876 32.3215C95.2596 32.6415 95.1236 32.9455 94.9796 33.2335C94.8356 33.5055 94.7636 33.6735 94.7636 33.7375C94.7636 33.8015 94.7316 33.8975 94.6676 34.0255C94.6196 34.1535 94.5636 34.3135 94.4996 34.5055C94.4356 34.6335 94.3476 34.8255 94.2356 35.0815C94.1236 35.3215 94.0036 35.5855 93.8756 35.8735C93.7636 36.1455 93.6676 36.3855 93.5876 36.5935C93.5076 36.7855 93.4676 36.8975 93.4676 36.9295C93.4676 36.9935 93.4596 37.0575 93.4436 37.1215C93.4436 37.1855 93.4116 37.2495 93.3476 37.3135C93.2836 37.3135 93.2436 37.3615 93.2276 37.4575C93.2276 37.5375 93.2276 37.5775 93.2276 37.5775C93.2276 37.7375 93.0996 38.1615 92.8436 38.8495C92.5876 39.7295 92.3476 40.5375 92.1236 41.2735C91.9156 42.0095 91.8116 42.6015 91.8116 43.0495C91.8116 43.4335 91.7476 43.7295 91.6196 43.9375C91.5076 44.1455 91.3876 44.2815 91.2596 44.3455ZM93.7492 50.2495C93.3972 50.3135 93.1572 50.3215 93.0292 50.2735C92.9012 50.2255 92.7252 50.1455 92.5012 50.0335C92.3252 49.9055 92.1972 49.8095 92.1172 49.7455C92.0372 49.6815 91.9812 49.6175 91.9492 49.5535C91.7892 49.2175 91.7652 48.9695 91.8772 48.8095C91.9892 48.6495 92.1492 48.5455 92.3572 48.4975C92.5812 48.4655 92.7732 48.4495 92.9332 48.4495C93.0452 48.5135 93.2292 48.5455 93.4852 48.5455C93.7572 48.5455 93.9252 48.5135 93.9892 48.4495C93.9892 48.4495 94.0612 48.4015 94.2052 48.3055C94.3652 48.2255 94.5732 48.1615 94.8292 48.1135C95.3252 47.8735 95.7172 47.6255 96.0052 47.3695C96.2932 47.1295 96.6132 46.7135 96.9652 46.1215C97.1092 45.8975 97.2612 45.6335 97.4212 45.3295C97.5812 45.0415 97.6932 44.7535 97.7572 44.4655C97.8852 44.1455 98.0292 43.7135 98.1892 43.1695C98.3652 42.6255 98.5172 42.0895 98.6452 41.5615C98.7732 41.0175 98.8452 40.6095 98.8612 40.3375C98.9572 39.4415 99.1412 38.5775 99.4132 37.7455C99.6852 36.8975 99.9012 36.0015 100.061 35.0575C100.157 34.8335 100.229 34.7055 100.277 34.6735C100.325 34.6255 100.429 34.6015 100.589 34.6015C100.765 34.6015 100.973 34.6575 101.213 34.7695C101.453 34.8655 101.629 35.0015 101.741 35.1775C101.901 35.4815 101.973 35.8415 101.957 36.2575C101.957 36.6575 101.853 37.0095 101.645 37.3135C101.485 37.5375 101.341 37.8895 101.213 38.3695C101.101 38.8335 100.989 39.4175 100.877 40.1215C100.797 40.4735 100.709 40.8895 100.613 41.3695C100.533 41.8335 100.445 42.3535 100.349 42.9295C100.285 43.0895 100.197 43.3375 100.085 43.6735C99.9732 43.9935 99.9012 44.2495 99.8692 44.4415C99.8532 44.5055 99.8052 44.6335 99.7252 44.8255C99.6452 45.0175 99.5652 45.2015 99.4852 45.3775C99.4052 45.5695 99.3492 45.6975 99.3172 45.7615C98.5492 47.3135 97.6612 48.4335 96.6532 49.1215C95.6612 49.8095 94.6932 50.1855 93.7492 50.2495ZM95.7652 43.4575C95.5892 43.4575 95.4052 43.3615 95.2132 43.1695C95.0372 42.9775 94.9172 42.8255 94.8532 42.7135C94.7892 42.5535 94.6692 42.4015 94.4932 42.2575C94.3172 42.1135 94.1652 41.9375 94.0372 41.7295C93.9092 41.5215 93.8772 41.2655 93.9412 40.9615C94.0052 40.7535 94.1012 40.4415 94.2292 40.0255C94.3572 39.5935 94.5092 39.1215 94.6852 38.6095C94.8612 38.0815 95.0372 37.5615 95.2132 37.0495C95.4052 36.5375 95.5812 36.0815 95.7412 35.6815C95.9012 35.2815 96.0372 35.0015 96.1492 34.8415C96.2452 34.7135 96.3972 34.6175 96.6052 34.5535C96.8132 34.4895 97.0212 34.4735 97.2292 34.5055C97.4372 34.5375 97.5892 34.6335 97.6852 34.7935C97.8612 35.0175 97.9572 35.2415 97.9732 35.4655C98.0052 35.6735 97.8932 36.0095 97.6372 36.4735C97.5732 36.6495 97.4932 36.8415 97.3972 37.0495C97.3012 37.2415 97.2532 37.3695 97.2532 37.4335C97.2372 37.4655 97.2052 37.5775 97.1572 37.7695C97.1252 37.9455 97.0852 38.1135 97.0372 38.2735C96.9892 38.4335 96.9412 38.5135 96.8932 38.5135C96.8292 38.5775 96.7572 38.7455 96.6772 39.0175C96.6132 39.2895 96.5492 39.5935 96.4852 39.9295C96.4372 40.2495 96.4052 40.5375 96.3892 40.7935C96.3732 41.0335 96.3972 41.1535 96.4612 41.1535C96.9572 41.1535 97.4372 41.0015 97.9012 40.6975C98.3652 40.3775 98.8692 39.8495 99.4132 39.1135L99.6292 41.3695C99.4052 41.4815 99.1972 41.6015 99.0052 41.7295C98.8132 41.8415 98.6372 41.9775 98.4772 42.1375C98.4292 42.2015 98.3172 42.2895 98.1412 42.4015C97.9652 42.5135 97.7892 42.6175 97.6132 42.7135C97.4532 42.7935 97.3492 42.8335 97.3012 42.8335C97.3012 42.8335 97.2772 42.8415 97.2292 42.8575C97.1972 42.8575 97.1812 42.8895 97.1812 42.9535C97.1812 42.9855 97.0772 43.0495 96.8692 43.1455C96.6612 43.2255 96.4452 43.2975 96.2212 43.3615C95.9972 43.4255 95.8452 43.4575 95.7652 43.4575ZM120.49 44.3695C120.314 44.4335 120.114 44.4655 119.89 44.4655C119.682 44.4815 119.442 44.3855 119.17 44.1775C119.01 44.0015 118.898 43.8175 118.834 43.6255C118.786 43.4335 118.762 43.1375 118.762 42.7375C118.794 42.4975 118.858 42.1535 118.954 41.7055C119.05 41.2415 119.154 40.7615 119.266 40.2655C119.394 39.7535 119.506 39.2975 119.602 38.8975C119.714 38.4815 119.802 38.2015 119.866 38.0575C119.978 37.6735 120.002 37.4335 119.938 37.3375C119.874 37.2415 119.682 37.1855 119.362 37.1695C118.994 37.1535 118.61 37.3295 118.21 37.6975C117.81 38.0655 117.354 38.6495 116.842 39.4495C116.458 40.0415 116.226 40.5295 116.146 40.9135C116.066 41.2815 116.058 41.5375 116.122 41.6815C116.154 41.7455 116.21 41.7855 116.29 41.8015C116.386 41.8015 116.498 41.7775 116.626 41.7295C116.77 41.6815 116.922 41.6175 117.082 41.5375C117.194 41.4735 117.33 41.4095 117.49 41.3455C117.666 41.2655 117.834 41.1935 117.994 41.1295C118.09 41.1295 118.154 41.1855 118.186 41.2975C118.234 41.4095 118.258 41.5455 118.258 41.7055C118.258 41.7695 118.274 41.8895 118.306 42.0655C118.354 42.2415 118.434 42.3615 118.546 42.4255C118.61 42.4895 118.474 42.6255 118.138 42.8335C117.818 43.0255 117.402 43.2655 116.89 43.5535C116.41 43.6655 116.05 43.7215 115.81 43.7215C115.586 43.7215 115.338 43.6175 115.066 43.4095C114.618 43.1375 114.33 42.6335 114.202 41.8975C114.09 41.1615 114.186 40.3455 114.49 39.4495C114.794 38.7295 115.13 38.1135 115.498 37.6015C115.882 37.0735 116.282 36.5935 116.698 36.1615C116.762 36.0975 116.962 35.9695 117.298 35.7775C117.634 35.5855 117.978 35.4335 118.33 35.3215C118.73 35.1935 119.066 35.1455 119.338 35.1775C119.626 35.1935 119.898 35.2895 120.154 35.4655C120.442 35.5295 120.634 35.5215 120.73 35.4415C120.842 35.3615 120.97 35.1375 121.114 34.7695C121.402 33.9695 121.706 33.1615 122.026 32.3455C122.346 31.5135 122.682 30.6735 123.034 29.8255C123.194 29.5215 123.29 29.2895 123.322 29.1295C123.37 28.9535 123.426 28.8335 123.49 28.7695L124.162 28.5535C124.338 28.5055 124.538 28.5855 124.762 28.7935C125.002 29.0015 125.154 29.2015 125.218 29.3935C125.218 29.5375 125.154 29.8575 125.026 30.3535C124.898 30.8335 124.69 31.4095 124.402 32.0815C124.146 32.6735 123.89 33.2735 123.634 33.8815C123.394 34.4735 123.162 35.1055 122.938 35.7775C122.762 36.2735 122.602 36.6735 122.458 36.9775C122.314 37.2815 122.218 37.5455 122.17 37.7695C122.074 38.1855 121.954 38.5615 121.81 38.8975C121.682 39.2175 121.594 39.4415 121.546 39.5695C121.338 40.1775 121.178 40.6815 121.066 41.0815C120.954 41.4655 120.882 41.8015 120.85 42.0895C120.818 42.3615 120.81 42.6335 120.826 42.9055C120.842 43.1615 120.874 43.4575 120.922 43.7935C120.922 43.8575 120.874 43.9535 120.778 44.0815C120.698 44.1935 120.602 44.2895 120.49 44.3695ZM129.642 44.0335C129.482 43.8735 129.354 43.6575 129.258 43.3855C129.162 43.0975 129.066 42.7695 128.97 42.4015C128.938 42.2735 128.922 42.1295 128.922 41.9695C128.938 41.8095 128.938 41.6815 128.922 41.5855C128.874 41.6975 128.794 41.8415 128.682 42.0175C128.586 42.1935 128.49 42.3215 128.394 42.4015C128.33 42.4655 128.186 42.5935 127.962 42.7855C127.738 42.9615 127.514 43.1055 127.29 43.2175C126.762 43.5535 126.29 43.7135 125.874 43.6975C125.474 43.6655 125.122 43.4575 124.818 43.0735C124.562 42.8655 124.354 42.6015 124.194 42.2815C124.034 41.9615 124.002 41.5775 124.098 41.1295C124.13 40.5695 124.21 40.0255 124.338 39.4975C124.466 38.9535 124.73 38.2335 125.13 37.3375C125.466 36.6815 125.722 36.1695 125.898 35.8015C126.074 35.4335 126.186 35.2175 126.234 35.1535C126.474 35.0735 126.77 35.0815 127.122 35.1775C127.474 35.2575 127.666 35.4095 127.698 35.6335C127.794 35.7935 127.794 36.0975 127.698 36.5455C127.602 36.9775 127.41 37.4735 127.122 38.0335C126.898 38.5775 126.682 39.1055 126.474 39.6175C126.282 40.1295 126.162 40.5615 126.114 40.9135C126.082 41.2655 126.178 41.4815 126.402 41.5615C126.546 41.6415 126.754 41.6335 127.026 41.5375C127.314 41.4415 127.65 41.1535 128.034 40.6735C128.418 40.1935 128.826 39.4335 129.258 38.3935C129.386 38.0735 129.482 37.7935 129.546 37.5535C129.61 37.2975 129.65 37.0175 129.666 36.7135C129.634 36.5215 129.682 36.3215 129.81 36.1135C129.954 35.9055 130.122 35.7455 130.314 35.6335C130.378 35.5535 130.466 35.4815 130.578 35.4175C130.69 35.3375 130.762 35.3375 130.794 35.4175L131.178 35.3935C131.242 35.3775 131.314 35.4415 131.394 35.5855C131.474 35.7295 131.554 35.8335 131.634 35.8975C131.81 36.0415 131.89 36.3535 131.874 36.8335C131.858 37.3135 131.666 37.9855 131.298 38.8495C130.994 39.5055 130.786 40.0015 130.674 40.3375C130.578 40.6735 130.522 41.0015 130.506 41.3215C130.506 41.6095 130.53 41.8575 130.578 42.0655C130.626 42.2575 130.77 42.4575 131.01 42.6655C131.186 42.7775 131.282 42.9695 131.298 43.2415C131.33 43.4975 131.338 43.7215 131.322 43.9135C131.29 44.0575 131.162 44.1535 130.938 44.2015C130.73 44.2655 130.498 44.2815 130.242 44.2495C130.002 44.2175 129.802 44.1455 129.642 44.0335ZM144.045 43.5055C143.933 43.4735 143.757 43.3695 143.517 43.1935C143.277 43.0175 143.061 42.7535 142.869 42.4015C142.693 42.0495 142.613 41.5935 142.629 41.0335C142.645 40.5535 142.677 40.2175 142.725 40.0255C142.789 39.8175 142.765 39.7055 142.653 39.6895C142.573 39.6735 142.413 39.7455 142.173 39.9055C141.933 40.0655 141.621 40.3215 141.237 40.6735C140.853 41.0255 140.389 41.4895 139.845 42.0655C139.653 42.2255 139.437 42.4255 139.197 42.6655C138.973 42.8895 138.741 43.0575 138.501 43.1695C138.277 43.2815 138.077 43.2575 137.901 43.0975L137.661 42.8815C137.549 42.7855 137.453 42.6575 137.373 42.4975C137.293 42.3375 137.269 42.2015 137.301 42.0895L137.973 40.2175C138.165 39.8015 138.293 39.4975 138.357 39.3055C138.437 39.1135 138.469 38.9935 138.453 38.9455C138.453 38.8975 138.413 38.8815 138.333 38.8975C138.237 38.9135 138.101 39.0015 137.925 39.1615C137.749 39.3055 137.629 39.4255 137.565 39.5215C137.501 39.5215 137.413 39.5855 137.301 39.7135C137.205 39.8415 137.109 39.9535 137.013 40.0495C136.917 40.1455 136.749 40.3295 136.509 40.6015C136.269 40.8575 136.013 41.1295 135.741 41.4175C135.533 41.6095 135.293 41.8655 135.021 42.1855C134.749 42.5055 134.509 42.7935 134.301 43.0495C134.093 43.3055 133.965 43.4335 133.917 43.4335C133.629 43.4175 133.365 43.3215 133.125 43.1455C132.901 42.9695 132.749 42.7535 132.669 42.4975C132.573 42.3215 132.565 42.0015 132.645 41.5375C132.725 41.0575 132.877 40.2975 133.101 39.2575C133.165 39.0175 133.221 38.8095 133.269 38.6335C133.333 38.4575 133.397 38.2815 133.461 38.1055C133.525 37.9295 133.597 37.7295 133.677 37.5055C133.773 37.2815 133.893 37.0095 134.037 36.6895C134.117 36.4655 134.149 36.2575 134.133 36.0655C134.117 35.8575 134.101 35.6895 134.085 35.5615C134.085 35.3215 134.157 35.1295 134.301 34.9855C134.461 34.8415 134.637 34.7455 134.829 34.6975C135.021 34.6335 135.173 34.6175 135.285 34.6495C135.733 34.6975 136.037 34.8575 136.197 35.1295C136.357 35.4015 136.445 35.6655 136.461 35.9215C136.477 36.1615 136.445 36.3775 136.365 36.5695C136.285 36.7615 136.221 36.9215 136.173 37.0495L135.909 37.6975C135.749 38.0655 135.629 38.3375 135.549 38.5135C135.485 38.6735 135.445 38.7855 135.429 38.8495C135.429 38.8975 135.429 38.9455 135.429 38.9935C135.445 39.0415 135.517 39.0175 135.645 38.9215C135.773 38.8255 135.925 38.6975 136.101 38.5375C136.293 38.3615 136.469 38.2095 136.629 38.0815C136.917 37.8415 137.221 37.6015 137.541 37.3615C137.877 37.1055 138.205 36.8815 138.525 36.6895C138.845 36.4975 139.109 36.3695 139.317 36.3055C139.589 36.3535 139.837 36.4895 140.061 36.7135C140.301 36.9375 140.453 37.1295 140.517 37.2895C140.597 37.5295 140.605 37.7455 140.541 37.9375C140.493 38.1295 140.453 38.3055 140.421 38.4655C140.405 38.5295 140.373 38.6495 140.325 38.8255C140.277 39.0015 140.229 39.1695 140.181 39.3295C140.133 39.4735 140.109 39.5455 140.109 39.5455C140.109 39.5455 140.157 39.4975 140.253 39.4015C140.349 39.3055 140.477 39.1935 140.637 39.0655C140.797 38.9215 140.957 38.7935 141.117 38.6815C141.917 38.0735 142.549 37.6895 143.013 37.5295C143.493 37.3535 143.901 37.4895 144.237 37.9375C144.429 38.1135 144.549 38.3535 144.597 38.6575C144.661 38.9615 144.693 39.3695 144.693 39.8815C144.709 40.0895 144.725 40.3215 144.741 40.5775C144.773 40.8335 144.805 41.0575 144.837 41.2495C144.885 41.4415 144.925 41.5615 144.957 41.6095C145.005 41.6735 145.093 41.7375 145.221 41.8015C145.349 41.8495 145.469 41.8895 145.581 41.9215C145.805 42.0335 145.925 42.2415 145.941 42.5455C145.973 42.8335 145.861 43.0575 145.605 43.2175C145.365 43.3615 145.109 43.4495 144.837 43.4815C144.581 43.5135 144.317 43.5215 144.045 43.5055ZM147.197 43.1935C147.149 43.1295 147.045 43.0495 146.885 42.9535C146.725 42.8575 146.645 42.7775 146.645 42.7135C146.645 42.6815 146.637 42.6415 146.621 42.5935C146.621 42.5455 146.589 42.5215 146.525 42.5215C146.477 42.4735 146.501 42.2975 146.597 41.9935C146.709 41.6895 146.853 41.3295 147.029 40.9135C147.221 40.4975 147.421 40.0975 147.629 39.7135C147.837 39.3135 148.013 38.9935 148.157 38.7535C148.237 38.7055 148.285 38.6415 148.301 38.5615C148.333 38.4655 148.333 38.4175 148.301 38.4175C148.301 38.4175 148.341 38.3455 148.421 38.2015C148.517 38.0415 148.589 37.9375 148.637 37.8895C148.765 37.6655 148.861 37.4415 148.925 37.2175C148.989 36.9775 149.005 36.7775 148.973 36.6175C148.909 36.5375 148.837 36.5135 148.757 36.5455C148.677 36.5775 148.637 36.5935 148.637 36.5935C148.573 36.6095 148.477 36.6415 148.349 36.6895C148.237 36.7215 148.133 36.7695 148.037 36.8335C147.669 37.0895 147.397 37.2175 147.221 37.2175C147.061 37.2175 146.901 37.0255 146.741 36.6415C146.677 36.4655 146.653 36.2975 146.669 36.1375C146.685 35.9775 146.749 35.8495 146.861 35.7535C146.989 35.6415 147.149 35.5295 147.341 35.4175C147.533 35.2895 147.661 35.2015 147.725 35.1535C147.901 35.0415 148.149 34.9215 148.469 34.7935C148.789 34.6655 148.981 34.5935 149.045 34.5775C149.461 34.4495 149.813 34.4495 150.101 34.5775C150.389 34.6895 150.605 34.9135 150.749 35.2495C150.973 35.5215 151.085 35.8095 151.085 36.1135C151.085 36.4175 150.973 36.7935 150.749 37.2415L150.509 37.6015C150.429 37.7615 150.413 37.8415 150.461 37.8415C150.525 37.8415 150.597 37.7855 150.677 37.6735C150.725 37.6095 150.821 37.5135 150.965 37.3855C151.109 37.2575 151.205 37.1935 151.253 37.1935C151.253 37.1935 151.269 37.1855 151.301 37.1695C151.349 37.1535 151.373 37.0895 151.373 36.9775C151.421 36.9295 151.469 36.8815 151.517 36.8335C151.581 36.7855 151.613 36.7615 151.613 36.7615C151.677 36.7615 151.757 36.7295 151.853 36.6655C151.965 36.5855 152.149 36.4415 152.405 36.2335C152.581 36.1055 152.741 36.0415 152.885 36.0415C153.253 35.9295 153.549 36.0495 153.773 36.4015C154.013 36.7535 154.133 37.2095 154.133 37.7695L153.629 39.0655L154.493 38.0095C154.589 37.8815 154.685 37.7695 154.781 37.6735C154.893 37.5775 154.989 37.4975 155.069 37.4335C155.101 37.3215 155.149 37.2575 155.213 37.2415C155.277 37.2255 155.309 37.2175 155.309 37.2175C155.309 37.2175 155.325 37.2175 155.357 37.2175C155.389 37.2015 155.405 37.1695 155.405 37.1215C155.485 37.0575 155.573 37.0015 155.669 36.9535C155.765 36.8895 155.829 36.8255 155.861 36.7615C156.133 36.6495 156.461 36.6335 156.845 36.7135C157.229 36.7775 157.501 36.9775 157.661 37.3135C157.773 37.5055 157.877 37.6735 157.973 37.8175C158.069 37.9615 158.117 38.1775 158.117 38.4655C158.085 38.7055 158.053 38.8735 158.021 38.9695C158.005 39.0655 157.989 39.1695 157.973 39.2815C157.957 39.3775 157.933 39.5535 157.901 39.8095C157.837 39.9375 157.797 40.0735 157.781 40.2175C157.781 40.3615 157.781 40.4975 157.781 40.6255C157.781 40.8335 157.789 40.9775 157.805 41.0575C157.821 41.1215 157.885 41.1535 157.997 41.1535C158.221 41.1055 158.405 41.0335 158.549 40.9375C158.709 40.8255 158.885 40.6815 159.077 40.5055C159.317 40.2815 159.525 40.2495 159.701 40.4095C159.893 40.5535 160.013 40.7215 160.061 40.9135C160.093 40.9775 160.061 41.1215 159.965 41.3455C159.869 41.5695 159.757 41.7855 159.629 41.9935C159.501 42.2015 159.397 42.3055 159.317 42.3055C159.269 42.3055 159.173 42.3695 159.029 42.4975C158.885 42.6255 158.773 42.7135 158.693 42.7615C158.581 42.8735 158.469 42.9775 158.357 43.0735C158.261 43.1695 158.149 43.2175 158.021 43.2175C157.957 43.2175 157.877 43.2415 157.781 43.2895C157.701 43.3215 157.605 43.3375 157.493 43.3375C157.333 43.3855 157.085 43.3615 156.749 43.2655C156.429 43.1695 156.221 42.9455 156.125 42.5935C156.061 42.4175 155.965 42.1935 155.837 41.9215C155.725 41.6495 155.701 41.3135 155.765 40.9135C155.829 40.6255 155.869 40.3615 155.885 40.1215C155.901 39.8815 155.933 39.7135 155.981 39.6175C155.981 39.5695 155.981 39.4575 155.981 39.2815C155.981 39.0895 155.957 38.9935 155.909 38.9935C155.845 38.9935 155.725 39.0735 155.549 39.2335C155.373 39.3935 155.165 39.6095 154.925 39.8815C154.685 40.1375 154.437 40.4175 154.181 40.7215C153.941 41.0255 153.725 41.3295 153.533 41.6335C153.389 41.8095 153.261 42.0255 153.149 42.2815C153.037 42.5375 152.957 42.6815 152.909 42.7135C152.797 42.8415 152.605 42.8575 152.333 42.7615C152.077 42.6655 151.885 42.5135 151.757 42.3055C151.709 42.2095 151.653 42.1535 151.589 42.1375C151.525 42.1055 151.469 42.0575 151.421 41.9935C151.389 41.9135 151.389 41.7615 151.421 41.5375C151.469 41.3135 151.573 40.9535 151.733 40.4575C151.909 39.9135 152.061 39.4255 152.189 38.9935C152.333 38.5455 152.405 38.3215 152.405 38.3215C152.405 38.2575 152.285 38.3215 152.045 38.5135C151.805 38.6895 151.525 38.9135 151.205 39.1855C151.061 39.3615 150.869 39.5855 150.629 39.8575C150.405 40.1295 150.141 40.4495 149.837 40.8175C149.549 41.1855 149.221 41.6175 148.853 42.1135C148.389 42.7695 148.037 43.1695 147.797 43.3135C147.573 43.4575 147.373 43.4175 147.197 43.1935ZM162.564 49.7935C162.5 49.8095 162.404 49.7855 162.276 49.7215C162.164 49.6575 162.068 49.5455 161.988 49.3855C161.908 49.2255 161.884 49.0175 161.916 48.7615C161.852 48.5375 161.86 48.2575 161.94 47.9215C162.036 47.6015 162.236 47.1215 162.54 46.4815C162.7 46.2255 162.844 45.9215 162.972 45.5695C163.116 45.2175 163.276 44.8655 163.452 44.5135C163.532 44.3695 163.668 44.1215 163.86 43.7695C164.068 43.4175 164.292 43.0015 164.532 42.5215C164.788 42.0255 165.02 41.5135 165.228 40.9855C164.812 41.4175 164.452 41.8255 164.148 42.2095C163.86 42.5775 163.596 42.8735 163.356 43.0975C163.132 43.3055 162.892 43.4015 162.636 43.3855C162.428 43.3375 162.18 43.2015 161.892 42.9775C161.604 42.7535 161.42 42.5055 161.34 42.2335C161.276 41.8815 161.252 41.4335 161.268 40.8895C161.3 40.3455 161.404 39.5215 161.58 38.4175C161.708 37.8735 161.764 37.4575 161.748 37.1695C161.748 36.8655 161.708 36.6415 161.628 36.4975C161.548 36.3535 161.444 36.2255 161.316 36.1135C161.108 35.9215 161.092 35.7135 161.268 35.4895C161.444 35.2655 161.644 35.0975 161.868 34.9855C162.204 34.9055 162.468 34.8895 162.66 34.9375C162.868 34.9695 163.076 35.1055 163.284 35.3455C163.412 35.5535 163.54 35.7775 163.668 36.0175C163.796 36.2575 163.86 36.6015 163.86 37.0495C163.86 37.2415 163.852 37.4575 163.836 37.6975C163.82 37.9215 163.804 38.1295 163.788 38.3215C163.772 38.5135 163.756 38.6655 163.74 38.7775C163.58 39.3695 163.436 39.8815 163.308 40.3135C163.18 40.7455 163.156 40.9615 163.236 40.9615C163.556 40.7055 163.828 40.4575 164.052 40.2175C164.292 39.9775 164.548 39.6895 164.82 39.3535C165.092 39.0175 165.428 38.5775 165.828 38.0335C165.972 37.7615 166.116 37.4975 166.26 37.2415C166.404 36.9855 166.524 36.7215 166.62 36.4495C166.716 36.2415 166.844 36.0255 167.004 35.8015C167.164 35.5615 167.276 35.4335 167.34 35.4175C167.42 35.3855 167.532 35.3935 167.676 35.4415C167.82 35.4895 167.956 35.5455 168.084 35.6095C168.228 35.6575 168.3 35.6975 168.3 35.7295C168.316 35.7455 168.396 35.7615 168.54 35.7775C168.684 35.7935 168.828 35.8095 168.972 35.8255C169.116 35.8255 169.188 35.8495 169.188 35.8975C169.188 35.9295 169.14 36.0495 169.044 36.2575C168.964 36.4655 168.868 36.6975 168.756 36.9535C168.644 37.2095 168.54 37.4415 168.444 37.6495C168.364 37.8415 168.332 37.9535 168.348 37.9855C168.38 38.0175 168.356 38.1375 168.276 38.3455C168.196 38.5375 168.1 38.7535 167.988 38.9935C167.892 39.2335 167.804 39.4495 167.724 39.6415C167.564 40.1695 167.38 40.6975 167.172 41.2255C166.964 41.7375 166.716 42.2495 166.428 42.7615C166.332 42.9535 166.188 43.2495 165.996 43.6495C165.82 44.0495 165.644 44.4415 165.468 44.8255C165.308 45.2255 165.18 45.5295 165.084 45.7375C165.02 45.8655 164.924 46.0655 164.796 46.3375C164.684 46.6255 164.556 46.9375 164.412 47.2735C164.284 47.6095 164.156 47.9215 164.028 48.2095C163.9 48.5135 163.804 48.7455 163.74 48.9055C163.708 49.2095 163.636 49.4335 163.524 49.5775C163.38 49.7215 163.18 49.7935 162.924 49.7935C162.684 49.7935 162.564 49.7935 162.564 49.7935Z" fill="#EA2667"/>
<path d="M67.7527 107.91C68.2081 107.218 68.0164 106.288 67.3244 105.832L56.0478 98.4101C55.3558 97.9547 54.4256 98.1464 53.9702 98.8384C53.5147 99.5304 53.7065 100.461 54.3984 100.916L64.4221 107.514L57.8246 117.537C57.3692 118.229 57.5609 119.159 58.2529 119.615C58.9449 120.07 59.8751 119.879 60.3305 119.187L67.7527 107.91ZM23.6773 46.8289C7.64528 57.3409 5.99062 75.5356 14.5945 89.6151C23.2028 103.702 41.9878 113.67 66.8026 108.554L66.1969 105.616C42.5111 110.499 25.046 100.965 17.1544 88.0507C9.25829 75.1295 10.8539 58.8245 25.3223 49.3377L23.6773 46.8289Z" fill="#1F1A3D"/>
</svg>
