<svg width="141" height="119" viewBox="0 0 141 119" fill="none" xmlns="http://www.w3.org/2000/svg">
<path d="M43.376 21.272C43.088 21.288 42.848 21.152 42.656 20.864C42.464 20.576 42.376 20.336 42.392 20.144C42.408 19.888 42.48 19.52 42.608 19.04C42.736 18.56 42.88 18.072 43.04 17.576C43.2 17.08 43.344 16.688 43.472 16.4C43.536 16.144 43.592 15.92 43.64 15.728C43.704 15.52 43.744 15.384 43.76 15.32C43.808 15.256 43.88 15.088 43.976 14.816C44.088 14.544 44.176 14.28 44.24 14.024C44.272 13.896 44.336 13.656 44.432 13.304C44.544 12.936 44.672 12.512 44.816 12.032C44.976 11.552 45.128 11.08 45.272 10.616C45.432 10.152 45.568 9.744 45.68 9.392C45.792 9.04 45.864 8.808 45.896 8.696C46.024 8.504 46.12 8.32 46.184 8.144C46.248 7.968 46.288 7.848 46.304 7.784C46.4 7.72 46.456 7.64 46.472 7.544C46.488 7.432 46.496 7.344 46.496 7.28C46.496 7.2 46.52 7.136 46.568 7.088C46.632 7.04 46.664 6.984 46.664 6.92C46.728 6.872 46.768 6.864 46.784 6.896C46.8 6.928 46.848 6.904 46.928 6.824L47.048 6.008L49.184 5.984C49.152 6.176 49.104 6.416 49.04 6.704C48.976 6.976 48.824 7.344 48.584 7.808C48.504 8.128 48.408 8.416 48.296 8.672C48.2 8.928 48.16 9.096 48.176 9.176C48.144 9.208 48.072 9.368 47.96 9.656C47.864 9.944 47.744 10.296 47.6 10.712C47.472 11.128 47.336 11.544 47.192 11.96C47.064 12.376 46.944 12.744 46.832 13.064C46.736 13.368 46.672 13.56 46.64 13.64C46.512 13.896 46.368 14.272 46.208 14.768C46.048 15.264 45.808 15.936 45.488 16.784C45.36 17.04 45.2 17.424 45.008 17.936C44.832 18.448 44.688 18.912 44.576 19.328C44.4 19.952 44.24 20.4 44.096 20.672C43.968 20.944 43.848 21.104 43.736 21.152C43.624 21.216 43.504 21.256 43.376 21.272ZM43.592 7.16C42.936 7.224 42.488 7.144 42.248 6.92C42.024 6.696 41.944 6.456 42.008 6.2C42.056 6.008 42.168 5.848 42.344 5.72C42.536 5.576 42.88 5.456 43.376 5.36C43.552 5.328 43.776 5.288 44.048 5.24C44.336 5.192 44.608 5.144 44.864 5.096C45.392 5.032 45.824 4.976 46.16 4.928C46.512 4.88 46.872 4.84 47.24 4.808C47.608 4.776 48.072 4.744 48.632 4.712C49.096 4.68 49.488 4.656 49.808 4.64C50.144 4.608 50.312 4.592 50.312 4.592C50.36 4.592 50.528 4.608 50.816 4.64C51.104 4.672 51.416 4.712 51.752 4.76C52.088 4.808 52.336 4.864 52.496 4.928C52.864 5.008 53.16 5.152 53.384 5.36C53.608 5.568 53.752 5.808 53.816 6.08C53.864 6.272 53.864 6.424 53.816 6.536C53.768 6.632 53.68 6.712 53.552 6.776C53.184 6.888 52.88 6.984 52.64 7.064C52.416 7.128 52.192 7.12 51.968 7.04C51.888 6.96 51.792 6.888 51.68 6.824C51.584 6.76 51.408 6.712 51.152 6.68C50.912 6.632 50.528 6.592 50 6.56C49.552 6.608 49.16 6.632 48.824 6.632C48.488 6.632 48.32 6.672 48.32 6.752L46.904 6.824L45.728 6.944C45.568 6.96 45.344 6.984 45.056 7.016C44.768 7.032 44.488 7.056 44.216 7.088C43.944 7.104 43.736 7.128 43.592 7.16ZM52.7969 19.088C52.6849 19.104 52.5569 19.064 52.4129 18.968C52.2849 18.856 52.1649 18.76 52.0529 18.68C51.8929 18.488 51.7809 18.32 51.7169 18.176C51.6529 18.032 51.6209 17.872 51.6209 17.696C51.6209 17.52 51.6369 17.312 51.6689 17.072C51.7489 16.816 51.8449 16.472 51.9569 16.04C52.0689 15.608 52.2049 15.144 52.3649 14.648C52.3969 14.456 52.4529 14.232 52.5329 13.976C52.6289 13.704 52.7249 13.448 52.8209 13.208C52.9169 12.952 52.9889 12.76 53.0369 12.632C53.1489 12.232 53.2609 11.848 53.3729 11.48C53.5009 11.112 53.6529 10.688 53.8289 10.208C54.0049 9.728 54.2209 9.12 54.4769 8.384C54.8289 7.424 55.0929 6.704 55.2689 6.224C55.4449 5.744 55.5729 5.4 55.6529 5.192C55.7329 4.984 55.7889 4.816 55.8209 4.688C55.8209 4.56 55.9089 4.44 56.0849 4.328C56.2769 4.2 56.4449 4.136 56.5889 4.136C56.8129 4.152 57.0289 4.288 57.2369 4.544C57.4449 4.784 57.5889 5.08 57.6689 5.432C57.7489 5.768 57.6929 6.096 57.5009 6.416C57.2449 6.992 56.9889 7.64 56.7329 8.36C56.4929 9.064 56.2529 9.768 56.0129 10.472C55.7729 11.176 55.5329 11.824 55.2929 12.416C55.2769 12.496 55.2209 12.632 55.1249 12.824C55.0449 13.016 54.9729 13.176 54.9089 13.304C54.8449 13.432 54.7809 13.552 54.7169 13.664C54.6689 13.776 54.6449 13.832 54.6449 13.832C54.6289 13.928 54.5969 14.064 54.5489 14.24C54.5009 14.416 54.4529 14.568 54.4049 14.696C54.3889 14.776 54.3649 14.88 54.3329 15.008C54.3009 15.136 54.2769 15.264 54.2609 15.392C54.3409 15.296 54.4529 15.184 54.5969 15.056C54.7409 14.912 54.9249 14.736 55.1489 14.528C55.4049 14.304 55.6289 14.112 55.8209 13.952C56.0129 13.792 56.2049 13.648 56.3969 13.52C56.5729 13.392 56.7329 13.272 56.8769 13.16C57.0369 13.048 57.1169 12.992 57.1169 12.992C57.1489 12.944 57.1809 12.888 57.2129 12.824C57.2609 12.76 57.3089 12.72 57.3569 12.704C57.3889 12.672 57.4449 12.632 57.5249 12.584C57.6049 12.52 57.6849 12.456 57.7649 12.392C57.9089 12.296 58.0609 12.216 58.2209 12.152C58.3809 12.088 58.5489 12.04 58.7249 12.008C58.9009 11.976 59.0689 11.96 59.2289 11.96C59.4209 11.96 59.6209 12.04 59.8289 12.2C60.0369 12.344 60.2289 12.552 60.4049 12.824C60.5649 13.032 60.6609 13.28 60.6929 13.568C60.7409 13.84 60.7489 14.208 60.7169 14.672C60.7169 14.8 60.6769 15.04 60.5969 15.392C60.5329 15.744 60.4849 16.008 60.4529 16.184L60.2369 17H60.4289C60.6049 16.936 60.7729 16.928 60.9329 16.976C61.1089 17.024 61.1969 17.048 61.1969 17.048C61.2769 17.096 61.3489 17.152 61.4129 17.216C61.4929 17.28 61.5649 17.328 61.6289 17.36C61.7249 17.488 61.7089 17.672 61.5809 17.912C61.4529 18.152 61.3089 18.32 61.1489 18.416C60.7649 18.672 60.4209 18.832 60.1169 18.896C59.8289 18.96 59.5249 18.904 59.2049 18.728C58.9009 18.52 58.6929 18.272 58.5809 17.984C58.4849 17.696 58.4449 17.304 58.4609 16.808C58.5249 16.104 58.5649 15.6 58.5809 15.296C58.5969 14.976 58.5169 14.816 58.3409 14.816C58.1489 14.816 57.8849 14.912 57.5489 15.104C57.2289 15.28 56.8689 15.528 56.4689 15.848C56.0689 16.152 55.6689 16.496 55.2689 16.88C54.8849 17.248 54.5409 17.624 54.2369 18.008C54.0449 18.248 53.8369 18.488 53.6129 18.728C53.3889 18.952 53.1169 19.072 52.7969 19.088ZM63.2767 19.592C63.1487 19.464 63.0527 19.272 62.9887 19.016C62.9407 18.76 62.9247 18.512 62.9407 18.272C62.9567 18.016 62.9967 17.824 63.0607 17.696C63.0607 17.568 63.0767 17.472 63.1087 17.408C63.1567 17.328 63.1727 17.256 63.1567 17.192C63.1407 17.128 63.1567 17.016 63.2047 16.856C63.2527 16.696 63.3007 16.544 63.3487 16.4C63.4607 16.144 63.5887 15.816 63.7327 15.416C63.8767 15 64.0207 14.584 64.1647 14.168C64.3087 13.736 64.4287 13.368 64.5247 13.064C64.6207 12.744 64.6767 12.552 64.6927 12.488C64.6927 12.296 64.8207 12.192 65.0767 12.176C65.2687 12.112 65.5007 12.192 65.7727 12.416C66.0447 12.64 66.2607 12.88 66.4207 13.136C66.5487 13.264 66.5967 13.432 66.5647 13.64C66.5327 13.848 66.4287 14.144 66.2527 14.528C66.1887 14.656 66.1087 14.872 66.0127 15.176C65.9327 15.464 65.8767 15.704 65.8447 15.896C65.7807 16.024 65.7007 16.208 65.6047 16.448C65.5247 16.672 65.4527 16.888 65.3887 17.096C65.3567 17.176 65.3247 17.328 65.2927 17.552C65.2607 17.76 65.2207 17.976 65.1727 18.2C65.1247 18.424 65.0607 18.6 64.9807 18.728C64.8367 19.384 64.5807 19.768 64.2127 19.88C63.8607 19.992 63.5487 19.896 63.2767 19.592ZM65.8687 9.968C65.6927 9.84 65.5567 9.688 65.4607 9.512C65.3807 9.32 65.3327 9.152 65.3167 9.008C65.3167 8.864 65.3327 8.776 65.3647 8.744C65.5247 8.568 65.6607 8.336 65.7727 8.048C65.9007 7.76 66.0367 7.496 66.1807 7.256C66.2127 7.208 66.2527 7.144 66.3007 7.064C66.3647 6.968 66.4287 6.912 66.4927 6.896C66.6847 6.768 66.9487 6.776 67.2847 6.92C67.6367 7.064 67.8927 7.264 68.0527 7.52C68.1967 7.824 68.2367 8.136 68.1727 8.456C68.1247 8.776 67.9567 9.112 67.6687 9.464C67.4287 9.784 67.1247 9.992 66.7567 10.088C66.3887 10.168 66.0927 10.128 65.8687 9.968ZM70.1716 20.144C69.6596 20.144 69.1876 20.032 68.7556 19.808C68.3396 19.568 68.0036 19.28 67.7476 18.944C67.4916 18.592 67.3636 18.256 67.3636 17.936C67.3636 17.792 67.3876 17.688 67.4356 17.624C67.4996 17.56 67.5876 17.528 67.6996 17.528C67.7796 17.544 67.8756 17.584 67.9876 17.648C68.0996 17.712 68.2116 17.784 68.3236 17.864C68.5796 18.04 68.8596 18.152 69.1636 18.2C69.4676 18.248 69.7396 18.232 69.9796 18.152C70.2196 18.056 70.3556 17.912 70.3876 17.72C70.3876 17.656 70.3556 17.52 70.2916 17.312C70.2276 17.104 70.1476 16.904 70.0516 16.712C69.6516 16.12 69.4036 15.56 69.3076 15.032C69.2116 14.488 69.1476 13.944 69.1156 13.4C69.1156 13.176 69.2196 12.928 69.4276 12.656C69.6356 12.368 69.8916 12.088 70.1956 11.816C70.5316 11.528 70.8996 11.256 71.2996 11C71.7156 10.744 72.1236 10.528 72.5236 10.352C72.9236 10.176 73.2596 10.072 73.5316 10.04C73.8196 10.04 74.1236 10.056 74.4436 10.088C74.7796 10.104 75.0036 10.16 75.1156 10.256C75.3396 10.432 75.5476 10.72 75.7396 11.12C75.9316 11.52 76.0276 11.856 76.0276 12.128C76.0276 12.256 75.9556 12.416 75.8116 12.608C75.6836 12.784 75.5636 12.984 75.4516 13.208C75.3876 13.32 75.3316 13.44 75.2836 13.568C75.2356 13.696 75.1796 13.824 75.1156 13.952C75.0196 14.176 74.8436 14.272 74.5876 14.24C74.3476 14.192 74.1236 14.064 73.9156 13.856C73.7076 13.632 73.6036 13.376 73.6036 13.088C73.6036 12.848 73.6756 12.64 73.8196 12.464C73.9636 12.288 74.0356 12.168 74.0356 12.104C74.0356 12.072 74.0196 12.048 73.9876 12.032C73.9556 12.016 73.8996 12.008 73.8196 12.008C73.7076 12.008 73.5236 12.056 73.2676 12.152C73.0276 12.232 72.7716 12.352 72.4996 12.512C72.2276 12.672 71.9796 12.864 71.7556 13.088C71.5956 13.264 71.4596 13.456 71.3476 13.664C71.2516 13.856 71.2036 14.064 71.2036 14.288C71.2036 14.512 71.2436 14.776 71.3236 15.08C71.4196 15.368 71.5236 15.608 71.6356 15.8C71.6676 15.832 71.7156 15.92 71.7796 16.064C71.8596 16.192 71.9476 16.352 72.0436 16.544C72.6356 17.76 72.7316 18.664 72.3316 19.256C71.9476 19.848 71.2276 20.144 70.1716 20.144ZM83.8228 19.976C83.4388 19.976 83.1028 19.776 82.8148 19.376C82.5428 18.96 82.3748 18.464 82.3108 17.888C82.3268 17.76 82.3428 17.576 82.3588 17.336C82.3908 17.096 82.4228 16.848 82.4548 16.592C82.5188 16.288 82.6068 15.896 82.7188 15.416C82.8307 14.936 82.9507 14.456 83.0788 13.976C83.2068 13.48 83.3188 13.056 83.4148 12.704C83.5108 12.336 83.5668 12.12 83.5828 12.056C83.6788 11.832 83.8948 11.776 84.2308 11.888C84.5668 12 84.8548 12.24 85.0948 12.608C85.1908 12.736 85.2468 12.888 85.2628 13.064C85.2948 13.24 85.2708 13.496 85.1908 13.832C85.1268 14.168 84.9988 14.664 84.8068 15.32C84.6308 15.96 84.4948 16.48 84.3988 16.88C84.3188 17.264 84.2868 17.672 84.3028 18.104C84.2388 18.84 84.1748 19.344 84.1108 19.616C84.0468 19.872 83.9508 19.992 83.8228 19.976ZM86.0308 10.016C85.9668 10.064 85.9028 10.088 85.8388 10.088C85.7908 10.072 85.7028 10.024 85.5748 9.944C85.4628 9.928 85.3188 9.856 85.1428 9.728C84.9828 9.584 84.8388 9.44 84.7108 9.296C84.5988 9.152 84.5428 9.064 84.5428 9.032C84.5268 8.872 84.5348 8.616 84.5668 8.264C84.6148 7.912 84.7028 7.584 84.8308 7.28C84.9748 6.96 85.1668 6.792 85.4068 6.776C85.4708 6.776 85.6068 6.808 85.8148 6.872C86.0388 6.936 86.2708 7.016 86.5108 7.112C86.6388 7.352 86.7588 7.664 86.8708 8.048C86.9828 8.432 86.9908 8.808 86.8948 9.176C86.8148 9.528 86.5268 9.808 86.0308 10.016ZM89.2057 20.168C88.3577 20.168 87.7337 19.896 87.3337 19.352C87.2217 19.096 87.1657 18.84 87.1657 18.584C87.1817 18.312 87.2457 18.12 87.3577 18.008C87.4697 17.88 87.6057 17.904 87.7657 18.08C87.9737 18.208 88.2697 18.272 88.6537 18.272C88.8457 18.272 89.0137 18.272 89.1577 18.272C89.3177 18.256 89.5017 18.24 89.7097 18.224C90.0777 18.192 90.3097 18.08 90.4057 17.888C90.5177 17.696 90.4937 17.536 90.3337 17.408H90.3577C89.9257 17.296 89.5017 17.136 89.0857 16.928C88.6697 16.72 88.3177 16.488 88.0297 16.232C87.7417 15.96 87.5737 15.704 87.5257 15.464C87.3977 14.936 87.4297 14.392 87.6217 13.832C87.8137 13.272 88.0937 12.784 88.4617 12.368C88.6057 12.272 88.8057 12.136 89.0617 11.96C89.3177 11.768 89.5017 11.664 89.6137 11.648V11.672C89.9177 11.352 90.2617 11.096 90.6457 10.904C91.0297 10.696 91.4777 10.504 91.9897 10.328L92.3737 10.28C92.5657 10.248 92.7337 10.232 92.8777 10.232C92.8617 10.232 92.9017 10.248 92.9977 10.28C93.0937 10.312 93.1737 10.336 93.2377 10.352C93.3337 10.4 93.4297 10.424 93.5257 10.424C93.7497 10.456 93.9657 10.576 94.1737 10.784C94.3977 10.976 94.5737 11.208 94.7017 11.48C94.8457 11.736 94.9017 11.976 94.8697 12.2C94.8217 12.568 94.6857 12.936 94.4617 13.304C94.2377 13.656 93.9977 13.856 93.7417 13.904C93.7737 13.888 93.7417 13.856 93.6457 13.808C93.5497 13.76 93.4617 13.712 93.3817 13.664L93.2857 13.712C93.2857 13.712 93.2777 13.688 93.2617 13.64C93.2617 13.592 93.2457 13.536 93.2137 13.472C93.1497 13.36 93.1017 13.24 93.0697 13.112C93.0537 12.984 93.0537 12.84 93.0697 12.68C93.1017 12.504 93.1097 12.4 93.0937 12.368C93.0777 12.336 92.9817 12.312 92.8057 12.296C92.5977 12.248 92.3337 12.272 92.0137 12.368C91.6937 12.448 91.3977 12.592 91.1257 12.8C90.8057 13.008 90.5657 13.176 90.4057 13.304C90.2617 13.432 90.1497 13.56 90.0697 13.688C89.9897 13.8 89.9017 13.968 89.8057 14.192C89.7417 14.304 89.6857 14.408 89.6377 14.504C89.5897 14.584 89.5657 14.664 89.5657 14.744C89.5657 14.904 89.7017 15.072 89.9737 15.248C90.2457 15.408 90.6537 15.6 91.1977 15.824C91.6297 16 91.9097 16.24 92.0377 16.544C92.1817 16.848 92.3097 17.136 92.4217 17.408C92.4537 17.472 92.4857 17.592 92.5177 17.768C92.5657 17.928 92.5737 18.024 92.5417 18.056C92.5737 18.088 92.5897 18.12 92.5897 18.152V18.128C92.7177 18.368 92.6937 18.624 92.5177 18.896C92.3577 19.152 92.1017 19.392 91.7497 19.616C91.3977 19.824 90.9977 19.976 90.5497 20.072H90.5737C90.3337 20.104 90.0937 20.128 89.8537 20.144C89.6297 20.16 89.4137 20.168 89.2057 20.168ZM102.737 20.024C102.561 19.992 102.369 19.888 102.161 19.712C101.953 19.52 101.761 19.312 101.585 19.088C101.425 18.848 101.321 18.648 101.273 18.488C101.273 18.456 101.249 18.416 101.201 18.368C101.169 18.32 101.153 18.296 101.153 18.296C101.089 18.248 101.049 18.04 101.033 17.672C101.033 17.288 101.057 16.864 101.105 16.4C101.153 15.936 101.209 15.568 101.273 15.296C101.353 15.04 101.473 14.696 101.633 14.264C101.793 13.816 101.929 13.416 102.041 13.064L102.689 11.672L101.729 11.408C101.617 11.376 101.521 11.312 101.441 11.216C101.377 11.12 101.345 11.04 101.345 10.976C101.345 10.848 101.417 10.664 101.561 10.424C101.705 10.184 101.809 10.064 101.873 10.064C101.953 10.08 102.097 10.088 102.305 10.088C102.529 10.088 102.745 10.08 102.953 10.064C103.161 10.048 103.289 10.032 103.337 10.016C103.401 9.984 103.465 9.944 103.529 9.896C103.593 9.832 103.641 9.744 103.673 9.632C103.753 9.456 103.825 9.32 103.889 9.224C103.953 9.128 104.041 8.984 104.153 8.792C104.265 8.584 104.353 8.408 104.417 8.264C104.497 8.12 104.617 7.92 104.777 7.664C104.857 7.552 104.945 7.416 105.041 7.256C105.137 7.096 105.257 6.96 105.401 6.848C105.545 6.72 105.777 6.632 106.097 6.584C106.433 6.52 106.721 6.592 106.961 6.8C107.089 6.96 107.161 7.112 107.177 7.256C107.193 7.4 107.129 7.584 106.985 7.808C106.857 8.08 106.705 8.328 106.529 8.552C106.369 8.76 106.217 9 106.073 9.272C105.817 9.624 105.769 9.824 105.929 9.872C106.089 9.92 106.537 9.888 107.273 9.776C107.737 9.696 108.073 9.744 108.281 9.92C108.489 10.096 108.609 10.32 108.641 10.592C108.689 10.976 108.649 11.208 108.521 11.288C108.393 11.368 108.025 11.408 107.417 11.408C107.033 11.472 106.705 11.512 106.433 11.528C106.161 11.528 105.961 11.528 105.833 11.528C105.625 11.544 105.489 11.552 105.425 11.552C105.361 11.552 105.265 11.568 105.137 11.6C105.009 11.632 104.913 11.688 104.849 11.768C104.801 11.832 104.745 11.928 104.681 12.056C104.617 12.12 104.521 12.288 104.393 12.56C104.265 12.832 104.105 13.128 103.913 13.448C103.689 14.12 103.497 14.768 103.337 15.392C103.193 16 103.065 16.608 102.953 17.216C102.905 17.52 102.913 17.744 102.977 17.888C103.057 18.016 103.265 18.096 103.601 18.128C103.777 18.144 104.033 18.144 104.369 18.128C104.705 18.096 104.985 18.048 105.209 17.984C105.385 17.904 105.569 17.824 105.761 17.744C105.953 17.648 106.129 17.552 106.289 17.456C106.433 17.376 106.577 17.296 106.721 17.216C106.865 17.12 106.937 17.072 106.937 17.072C107.017 16.944 107.129 16.968 107.273 17.144C107.433 17.304 107.545 17.48 107.609 17.672C107.609 17.864 107.569 18.096 107.489 18.368C107.409 18.624 107.113 18.896 106.601 19.184C105.881 19.632 105.161 19.904 104.441 20C103.721 20.096 103.153 20.104 102.737 20.024ZM110.898 19.496C110.85 19.512 110.746 19.504 110.586 19.472C110.442 19.44 110.29 19.4 110.13 19.352C109.986 19.304 109.898 19.264 109.866 19.232C109.802 19.168 109.714 19.056 109.602 18.896C109.49 18.72 109.426 18.488 109.41 18.2C109.41 17.912 109.546 17.568 109.818 17.168C109.898 17.008 109.994 16.768 110.106 16.448C110.218 16.128 110.33 15.792 110.442 15.44C110.57 15.072 110.682 14.744 110.778 14.456C110.89 14.168 110.97 13.968 111.018 13.856C111.05 13.584 111.034 13.392 110.97 13.28C110.922 13.152 110.786 13.08 110.562 13.064C110.402 13.064 110.274 13.008 110.178 12.896C110.098 12.784 110.058 12.584 110.058 12.296C110.09 12.072 110.146 11.88 110.226 11.72C110.322 11.544 110.45 11.4 110.61 11.288C110.77 11.208 110.97 11.152 111.21 11.12C111.466 11.088 111.714 11.08 111.954 11.096C112.194 11.112 112.362 11.168 112.458 11.264C112.57 11.328 112.658 11.472 112.722 11.696C112.802 11.904 112.866 12.12 112.914 12.344C112.962 12.568 112.994 12.736 113.01 12.848C113.17 12.72 113.346 12.544 113.538 12.32C113.746 12.08 113.954 11.856 114.162 11.648C114.418 11.472 114.722 11.296 115.074 11.12C115.426 10.928 115.682 10.832 115.842 10.832C116.018 10.832 116.234 10.92 116.49 11.096C116.746 11.256 116.906 11.4 116.97 11.528C117.13 11.8 117.242 12.088 117.306 12.392C117.386 12.68 117.338 12.936 117.162 13.16C117.002 13.368 116.778 13.576 116.49 13.784C116.202 13.976 115.842 14.032 115.41 13.952C115.314 13.92 115.21 13.8 115.098 13.592C115.002 13.384 114.946 13.232 114.93 13.136C114.93 13.088 114.858 13.136 114.714 13.28C114.586 13.408 114.426 13.568 114.234 13.76C114.058 13.952 113.89 14.128 113.73 14.288C113.458 14.624 113.17 15.08 112.866 15.656C112.562 16.232 112.202 16.928 111.786 17.744C111.594 18.144 111.434 18.528 111.306 18.896C111.178 19.248 111.042 19.448 110.898 19.496ZM119.307 19.16C119.003 18.888 118.739 18.608 118.515 18.32C118.291 18.016 118.139 17.552 118.059 16.928C118.027 16.64 118.059 16.24 118.155 15.728C118.251 15.216 118.395 14.68 118.587 14.12C118.779 13.544 118.987 13.016 119.211 12.536C119.435 12.056 119.659 11.704 119.883 11.48C120.075 11.24 120.315 11.048 120.603 10.904C120.907 10.76 121.219 10.76 121.539 10.904C121.715 11.112 121.803 11.4 121.803 11.768C121.819 12.12 121.731 12.448 121.539 12.752C121.219 13.184 120.939 13.728 120.699 14.384C120.475 15.024 120.323 15.6 120.243 16.112C120.131 16.48 120.083 16.768 120.099 16.976C120.115 17.168 120.227 17.288 120.435 17.336C120.739 17.416 121.051 17.328 121.371 17.072C121.707 16.816 122.027 16.44 122.331 15.944C122.651 15.448 122.931 14.88 123.171 14.24C123.267 14.016 123.339 13.752 123.387 13.448C123.451 13.144 123.515 12.92 123.579 12.776C123.659 12.456 123.795 12.208 123.987 12.032C124.195 11.84 124.411 11.72 124.635 11.672C124.859 11.624 125.027 11.648 125.139 11.744C125.283 11.808 125.435 11.912 125.595 12.056C125.755 12.2 125.819 12.456 125.787 12.824C125.787 13.416 125.659 13.92 125.403 14.336C125.147 14.752 124.931 15.192 124.755 15.656C124.611 15.992 124.379 16.384 124.059 16.832C123.739 17.28 123.395 17.688 123.027 18.056C122.675 18.424 122.347 18.672 122.043 18.8C121.595 19.088 121.139 19.264 120.675 19.328C120.211 19.376 119.755 19.32 119.307 19.16ZM131.141 19.52C130.661 19.792 130.149 19.952 129.605 20C129.077 20.032 128.581 19.96 128.117 19.784C127.653 19.592 127.277 19.312 126.989 18.944C126.829 18.736 126.677 18.408 126.533 17.96C126.389 17.496 126.365 16.872 126.461 16.088C126.557 15.352 126.781 14.608 127.133 13.856C127.501 13.104 127.949 12.44 128.477 11.864C129.005 11.288 129.581 10.896 130.205 10.688C130.429 10.608 130.653 10.552 130.877 10.52C131.117 10.472 131.429 10.464 131.813 10.496C132.181 10.544 132.509 10.64 132.797 10.784C133.085 10.912 133.293 11.056 133.421 11.216C133.677 11.472 133.845 11.72 133.925 11.96C134.005 12.2 134.037 12.432 134.021 12.656C133.941 13.168 133.709 13.72 133.325 14.312C132.957 14.904 132.437 15.344 131.765 15.632C131.493 15.744 131.173 15.816 130.805 15.848C130.437 15.88 129.933 15.832 129.293 15.704C128.909 15.624 128.653 15.664 128.525 15.824C128.413 15.984 128.365 16.296 128.381 16.76C128.413 17.048 128.477 17.304 128.573 17.528C128.685 17.736 128.885 17.88 129.173 17.96C129.541 18.024 129.805 18.032 129.965 17.984C130.125 17.92 130.325 17.832 130.565 17.72C130.693 17.64 130.813 17.552 130.925 17.456C131.053 17.36 131.173 17.264 131.285 17.168C131.413 17.072 131.517 17 131.597 16.952C131.677 16.888 131.757 16.848 131.837 16.832C131.917 16.816 131.997 16.808 132.077 16.808C132.253 16.824 132.421 16.92 132.581 17.096C132.741 17.272 132.845 17.44 132.893 17.6C132.893 17.728 132.813 17.912 132.653 18.152C132.493 18.376 132.277 18.616 132.005 18.872C131.749 19.112 131.461 19.328 131.141 19.52ZM130.829 14.168C130.941 14.12 131.101 14.008 131.309 13.832C131.533 13.656 131.733 13.472 131.909 13.28C132.085 13.072 132.173 12.912 132.173 12.8C132.173 12.624 132.053 12.472 131.813 12.344C131.589 12.216 131.293 12.192 130.925 12.272C130.797 12.304 130.645 12.392 130.469 12.536C130.293 12.68 130.117 12.848 129.941 13.04C129.765 13.216 129.613 13.392 129.485 13.568C129.357 13.728 129.269 13.856 129.221 13.952C129.285 14.032 129.413 14.096 129.605 14.144C129.797 14.192 130.005 14.216 130.229 14.216C130.469 14.216 130.669 14.2 130.829 14.168Z" fill="#EA2667"/>
<path d="M67.7527 101.91C68.2081 101.218 68.0164 100.288 67.3244 99.8323L56.0478 92.4101C55.3558 91.9547 54.4256 92.1464 53.9702 92.8384C53.5147 93.5304 53.7065 94.4606 54.3984 94.916L64.4221 101.514L57.8246 111.537C57.3692 112.229 57.5609 113.159 58.2529 113.615C58.9449 114.07 59.8751 113.879 60.3305 113.187L67.7527 101.91ZM23.6773 40.8289C7.64528 51.3409 5.99062 69.5356 14.5945 83.6151C23.2028 97.7018 41.9878 107.67 66.8026 102.554L66.1969 99.6161C42.5111 104.499 25.046 94.9646 17.1544 82.0507C9.25829 69.1295 10.8539 52.8245 25.3223 43.3377L23.6773 40.8289Z" fill="#1F1A3D"/>
</svg>
