<svg width="117" height="28" viewBox="0 0 117 28" fill="none" xmlns="http://www.w3.org/2000/svg">
<path fill-rule="evenodd" clip-rule="evenodd" d="M0.417969 9.72218H5.99912V17.7873C5.99912 19.5093 6.84267 20.595 8.64495 20.595C10.2854 20.595 11.2341 19.1955 11.2341 17.6671V9.72218H16.6783V18.9533C16.6783 20.867 15.8092 22.7565 14.2174 23.8671C12.6012 24.9846 10.5263 25.2579 8.60448 25.2579C4.39917 25.2579 0.418591 23.7781 0.418591 18.9533V9.72218H0.417969ZM18.254 24.8078V9.72218H23.7461V11.4834C25.1537 10.0198 26.7294 9.19177 28.8043 9.19177C32.0933 9.19177 34.4813 11.0893 34.4813 14.4828V24.8084H28.9811V16.9357C28.9811 15.1838 28.4258 13.7277 26.4156 13.7277C24.421 13.7277 23.7455 15.4328 23.7455 17.1778V24.809H18.254V24.8078ZM36.1784 24.8078V9.72218H41.7589V24.8078H36.1784ZM55.2683 19.6369V24.2369C53.9976 24.9603 52.5104 25.2268 51.0548 25.2268C46.7045 25.2268 43.1422 21.7685 43.1422 17.3938C43.1422 12.8586 46.6808 9.16811 51.264 9.16811C52.6878 9.16811 54.0468 9.48188 55.2689 10.1972V14.7648C54.4085 14.2581 53.4672 13.8073 52.4462 13.8073C50.4846 13.8073 49.0446 15.2386 49.0446 17.2015C49.0446 19.0666 50.3956 20.4892 52.2931 20.4892C53.3545 20.4892 54.3357 20.1038 55.2683 19.6369ZM61.5965 18.6078C61.5965 20.1997 62.2881 21.4784 64.0736 21.4784C65.1755 21.4784 65.907 21.0115 66.3969 20.0714H71.5915C71.0773 21.6546 70.3937 23.0628 68.9712 24.0271C67.4988 25.0412 65.7296 25.3868 63.969 25.3868C61.2516 25.3868 58.5976 24.189 57.2629 21.7436C56.5389 20.4082 56.0888 18.8326 56.0888 17.3054C56.0888 15.0854 56.9012 12.5766 58.5578 11.0569C60.093 9.64934 62.2894 9.04672 64.3475 9.04672C69.3727 9.04672 71.9457 12.2311 71.9457 17.0147C71.9457 17.5464 71.8822 18.0762 71.8094 18.6078H61.5965ZM72.9511 24.8078V10.2289C72.9511 7.99336 73.0713 5.4764 74.7534 3.79614C76.1442 2.40537 78.3075 2.02686 80.197 2.02686H81.6282V5.99125H80.7672C78.7172 5.99125 78.508 7.25377 78.508 9.03924V9.92326H81.4346V14.057H78.508V24.8084H72.9511V24.8078ZM97.2193 27.3409L96.7294 26.8666C97.5816 25.8369 98.8124 25.106 100.018 24.55C99.3422 24.2693 98.6431 24.0358 97.9041 24.0196L97.7105 24.2444C96.9541 25.1527 95.9973 25.426 94.8312 25.426C94.0032 25.426 93.0464 25.3457 92.2582 25.0805L91.4147 24.8072L91.1009 24.598V24.5581C91.1009 24.3091 92.2184 24.1311 92.3946 24.0999L93.6982 23.8422C94.7613 23.6214 95.844 23.5082 96.9298 23.5042C98.2577 23.5042 99.5682 23.7706 100.815 24.212C102.117 23.7862 103.476 23.5042 104.85 23.5042C106.33 23.5042 107.785 23.6978 109.209 24.0669C109.362 24.1068 110.415 24.2929 110.415 24.5737C110.415 25.0724 107.191 25.4422 106.757 25.4422C105.727 25.4422 104.336 25.0966 103.91 24.0439C103.838 24.0439 103.757 24.0352 103.677 24.0352C103.001 24.0352 102.238 24.2842 101.618 24.542C102.744 25.0636 103.846 25.7553 104.714 26.648L104.883 26.8255L104.409 27.2837L104.151 27.0658L103.676 26.6399C103.291 26.2863 101.337 24.9111 100.862 24.8781C100.436 24.8464 98.8274 25.9321 98.4582 26.2135C98.0156 26.5603 97.6146 26.9469 97.2193 27.3409ZM91.8156 18.8089L92.3068 19.3001C92.8858 19.8791 95.2496 22.4676 95.2496 23.2639C95.2496 23.4413 94.9358 23.4326 94.8157 23.4326C93.7225 23.4326 92.7413 22.6276 92.2184 21.7193C91.722 20.8647 91.461 19.8937 91.462 18.9054C91.462 18.8251 91.462 18.6477 91.5753 18.6477C91.6712 18.6483 91.7602 18.7529 91.8156 18.8089ZM87.2561 21.1167C87.2729 21.0208 87.3849 20.9878 87.4652 20.9878C88.2459 20.9878 93.489 22.919 93.489 23.4892C93.489 23.9076 92.0808 23.8428 91.8803 23.8428C90.7299 23.8428 89.6684 23.3286 88.7688 22.6363C88.5839 22.4919 87.2243 21.3987 87.2561 21.1167ZM89.5651 18.327C89.5651 18.0693 89.7257 15.8661 90.0395 15.8661C90.3532 15.8661 90.939 18.3501 91.0119 18.6396C91.2528 19.645 91.4141 20.6261 91.4141 21.6633C91.4141 21.7523 91.3972 21.921 91.2765 21.921C90.8743 21.921 90.1434 20.6417 89.9903 20.3441C89.6684 19.7253 89.5651 19.0181 89.5651 18.327ZM85.4395 16.8634C85.4395 16.8074 85.455 16.7346 85.5198 16.7346C86.2836 16.7346 90.2642 20.5707 90.2642 21.3744C90.2642 21.4703 90.2082 21.5033 90.1198 21.5033C88.9612 21.5033 87.5138 20.257 86.8066 19.4445C86.4125 18.9863 85.4395 17.5065 85.4395 16.8634ZM89.3148 17.7555L89.0826 18.6638C89.0583 18.7529 89.0023 18.9932 88.8809 18.9932C88.4227 18.9932 88.1973 16.9344 88.1973 16.541C88.1973 15.8331 88.391 15.1097 88.6487 14.4579C88.7203 14.2817 89.1542 13.0914 89.4281 13.0914C89.6933 13.0914 89.6616 13.6542 89.6616 13.8067C89.6616 15.1097 89.6367 16.4936 89.3148 17.7555ZM85.9381 13.4456L86.6372 14.5625C87.0643 15.2541 88.0928 17.1766 88.0928 18.012C88.0928 18.0768 88.0685 18.1739 87.9882 18.1739C87.8033 18.1739 87.6346 18.0538 87.4982 17.9317L86.8869 17.3858C85.7937 16.4046 85.1263 14.4106 85.1263 12.9545C85.1263 12.8661 85.1581 12.6967 85.2707 12.6967C85.5515 12.6973 85.818 13.252 85.9381 13.4456ZM89.4362 10.6709C89.4922 10.6709 89.501 10.7195 89.501 10.7674C89.501 11.4827 88.1973 15.769 87.6271 15.769C87.3538 15.769 87.3781 14.9983 87.3781 14.8364C87.3781 13.5982 87.8363 12.5367 88.5671 11.5637C88.6798 11.4192 89.2028 10.6709 89.4362 10.6709ZM85.6405 10.5825C85.6405 10.3491 85.7364 8.72486 85.9873 8.72486C86.2363 8.72486 86.5974 10.2289 86.6466 10.4219C86.9603 11.5799 87.177 12.8343 87.177 14.0402C87.177 14.1684 87.21 14.6266 86.9846 14.6266C86.7182 14.6266 86.2195 13.5253 86.1311 13.2838C85.8005 12.4402 85.6405 11.4915 85.6405 10.5825ZM88.0037 11.9901L87.6825 12.3363C87.6178 12.4004 87.5138 12.5212 87.4092 12.5212C87.3046 12.5212 87.3046 12.3923 87.3046 12.3201C87.3046 11.2985 87.7628 10.3821 88.3978 9.61012C88.6555 9.29636 89.6684 8.17079 90.0868 8.17079C90.1441 8.17079 90.1758 8.20316 90.1758 8.2511C90.1758 9.08656 88.607 11.3302 88.0037 11.9901ZM87.4254 5.74161C87.7547 5.75779 87.7634 7.94481 87.7634 8.15398C87.7634 8.43537 87.5785 11.2256 87.1919 11.2256C86.7505 11.2256 86.6304 8.98197 86.6304 8.68439C86.6304 8.02511 86.735 7.38949 86.9354 6.76258C86.984 6.61815 87.1919 5.72604 87.4254 5.74161ZM90.3607 5.79825L90.6259 5.62145C90.6502 5.61336 90.6745 5.58908 90.6987 5.58908C90.7548 5.59717 90.7791 5.66939 90.7791 5.71795C90.7791 6.28073 89.7905 7.73625 89.4686 8.17017C89.2837 8.41172 88.4071 9.50491 88.0616 9.50491C87.9813 9.50491 87.924 9.43269 87.924 9.35986C87.924 8.09795 89.3634 6.45753 90.3607 5.79825ZM90.4093 4.05325L90.1671 4.72872C89.8459 5.64573 89.2588 6.62625 88.5839 7.32599L88.3661 7.55135C88.31 7.6161 88.2372 7.69579 88.1494 7.69579C88.0118 7.69579 87.9875 7.51898 87.9875 7.41439C87.9875 6.48181 88.526 5.55671 89.1137 4.86505C89.2986 4.63969 90.0706 3.70711 90.3844 3.70711C90.4404 3.70711 90.4491 3.79552 90.4491 3.83598C90.4491 3.90882 90.4335 3.98104 90.4093 4.05325ZM106.741 23.4569C106.62 23.4569 106.499 23.4083 106.499 23.272C106.499 22.6444 109.828 18.6159 110.279 18.6159C110.375 18.6159 110.384 18.7523 110.384 18.8164C110.384 20.8602 109.04 23.4569 106.741 23.4569ZM108.598 23.135L109.323 22.7571C110.223 22.2914 113.367 21.0053 114.389 21.0053C114.445 21.0053 114.549 21.0295 114.549 21.1011C114.549 21.4547 112.804 22.7658 112.531 22.9432C111.654 23.5222 110.65 23.8758 109.596 23.8758C109.388 23.8758 108.222 23.8833 108.222 23.4979C108.221 23.3199 108.462 23.1991 108.598 23.135ZM110.938 21.5276L110.616 21.8326C110.569 21.8812 110.504 21.9459 110.431 21.9528C110.302 21.9615 110.326 21.6876 110.326 21.6234V21.5033C110.326 20.1038 110.76 18.6813 111.195 17.3621C111.236 17.2245 111.638 15.891 111.871 15.891C112.024 15.891 112.065 16.2926 112.08 16.3965L112.217 17.209C112.265 17.5152 112.281 17.8278 112.281 18.1415C112.281 19.4047 111.855 20.6336 110.938 21.5276ZM116.101 16.912L116.326 16.8074C116.35 16.7987 116.382 16.7744 116.422 16.7744C116.47 16.7744 116.511 16.8304 116.511 16.879C116.508 16.9209 116.497 16.9617 116.478 16.9992L116.221 17.5781C115.698 18.7442 114.693 20.0073 113.591 20.6909C113.206 20.9243 112.111 21.5344 111.653 21.5344C111.565 21.5344 111.509 21.4859 111.509 21.3981C111.509 20.9237 113.053 19.4115 113.399 19.066C114.074 18.3831 115.225 17.3372 116.101 16.912ZM112.354 13.9437L112.386 13.4052C112.395 13.3411 112.419 13.0833 112.53 13.092C112.619 13.1001 112.683 13.2284 112.724 13.2931L113.062 13.9038C113.496 14.7001 113.713 15.6569 113.713 16.5652C113.713 16.8473 113.391 19.0579 113.006 19.0579C112.53 19.0579 112.314 15.4322 112.314 15.1583C112.314 14.7561 112.33 14.3465 112.354 13.9437ZM114.549 15.19L114.484 15.5523C114.468 15.6239 114.452 15.7528 114.356 15.7528C113.914 15.7528 112.843 12.3836 112.723 11.8855C112.715 11.8613 112.37 10.6952 112.643 10.6952C113.061 10.6952 113.953 12.3033 114.114 12.6737C114.396 13.2931 114.597 13.9524 114.597 14.6447C114.597 14.8289 114.582 15.0138 114.549 15.19ZM116.398 9.41651L116.447 10.1318C116.462 10.2607 116.462 10.3815 116.462 10.5016C116.462 11.2898 116.302 12.19 116.053 12.9383C115.964 13.1792 115.313 14.6434 114.959 14.6434C114.822 14.6434 114.806 14.3944 114.806 14.3054C114.806 12.9619 115.128 11.7075 115.514 10.4375C115.563 10.2843 115.964 8.82135 116.173 8.82135C116.351 8.82198 116.391 9.31192 116.398 9.41651ZM114.324 17.9566L113.946 18.1745C113.905 18.202 113.858 18.2183 113.81 18.2218C113.754 18.2218 113.745 18.1341 113.745 18.0942C113.745 17.3465 116.277 12.6818 116.832 12.6818C116.889 12.6818 116.889 12.7783 116.889 12.8187C116.889 13.7196 116.632 14.6602 116.302 15.4969C115.957 16.3803 115.152 17.4822 114.324 17.9566ZM114.71 12.0623V12.3356C114.71 12.4079 114.71 12.5124 114.621 12.5124C114.493 12.5124 114.388 12.3437 114.316 12.2628L113.777 11.6197C113.327 11.0812 111.936 9.05481 111.936 8.32331C111.936 8.27475 111.96 8.21063 112.016 8.21063C112.129 8.21063 112.241 8.29094 112.321 8.35506L112.861 8.77341C113.777 9.48125 114.733 10.8558 114.71 12.0623ZM111.557 6.27264L111.461 5.95078C111.446 5.89475 111.422 5.83001 111.422 5.77398C111.422 5.73351 111.453 5.70923 111.493 5.70923C112.025 5.70923 113.15 7.0197 113.455 7.45424C113.793 7.9448 114.188 8.61217 114.188 9.22289C114.188 9.29511 114.203 9.55285 114.083 9.55285C113.391 9.55347 111.742 6.90764 111.557 6.27264ZM112.065 3.86026L112.627 4.37511C113.375 5.05867 114.211 6.20851 114.211 7.27805C114.211 7.38264 114.244 7.75244 114.09 7.75244C113.48 7.75244 112.314 5.40481 112.121 4.9298C112.112 4.91361 111.646 3.73139 111.88 3.75567C111.951 3.75567 112.016 3.8117 112.065 3.86026ZM115.128 10.872L114.991 11.1696C114.967 11.2182 114.943 11.2742 114.878 11.2742C114.564 11.2742 114.388 8.90166 114.388 8.6128C114.388 8.35506 114.582 5.77398 114.798 5.77398C114.902 5.77398 114.982 6.11949 115.007 6.19171L115.24 6.84289C115.465 7.46233 115.522 8.23367 115.522 8.89357C115.523 9.56156 115.394 10.2613 115.128 10.872Z" fill="black"/>
<path fill-rule="evenodd" clip-rule="evenodd" d="M90.2483 12.0139C90.2483 8.86128 91.5264 5.71741 93.9071 3.6188C95.8525 1.88998 98.4498 0.819824 101.064 0.819824C107.014 0.819824 111.751 5.75726 111.751 11.6596C111.751 17.6417 106.845 22.6844 100.838 22.6844C94.9915 22.6844 90.2483 17.8198 90.2483 12.0139ZM38.9603 1.84143C40.7134 1.84143 42.1608 3.31313 42.1608 5.05814C42.1608 6.80314 40.7215 8.29041 38.9603 8.29041C37.2078 8.29041 35.7598 6.81123 35.7598 5.05814C35.7598 3.31313 37.2072 1.84143 38.9603 1.84143Z" fill="black"/>
<path fill-rule="evenodd" clip-rule="evenodd" d="M61.6768 15.3732H66.735C66.6547 13.9021 65.9954 12.6719 64.3543 12.6719C62.6093 12.6719 61.9021 13.7894 61.6768 15.3732ZM103.998 2.21C104.167 2.04938 104.336 1.88814 104.514 1.72752L104.184 1.63912C103.541 1.46232 102.914 1.32535 102.246 1.26123L102.439 1.36582L102.834 1.54262C103.243 1.71942 103.621 1.97654 103.998 2.21ZM101.385 5.53129C102.142 5.47464 102.865 5.38624 103.589 5.1534C103.348 4.59062 103.083 4.05149 102.729 3.54536C102.294 3.64995 101.868 3.72216 101.418 3.73835L101.385 5.53129ZM101.377 8.0881C102.19 8.07938 102.978 7.9032 103.79 7.87083C103.998 7.85464 104.417 7.82227 104.417 7.53341C104.417 7.47738 104.401 7.42882 104.394 7.38089L104.28 6.92269C104.176 6.46449 103.991 6.03805 103.806 5.61222C103.01 5.85315 102.197 5.94965 101.369 6.01439L101.377 8.0881ZM104.031 5.04072C104.61 4.85155 105.162 4.58653 105.672 4.25258C105.182 3.70536 104.659 3.18304 104.031 2.79706C103.764 3.01416 103.469 3.1954 103.155 3.33619L103.323 3.63376L103.653 4.19655C103.806 4.46175 103.918 4.75124 104.031 5.04072ZM106.098 4.03531C106.484 3.78719 106.842 3.49878 107.167 3.17494C106.539 2.60407 105.728 2.21809 104.932 1.92051C104.763 2.12159 104.57 2.2903 104.385 2.46711C105.028 2.88546 105.599 3.46443 106.098 4.03531ZM106.412 4.41319C106.958 5.04881 107.449 5.74856 107.834 6.49624C108.382 6.18248 108.92 5.83634 109.394 5.41861C108.896 4.70268 108.284 3.99484 107.569 3.48871C107.344 3.70598 107.102 3.89897 106.846 4.09196L106.412 4.41319Z" fill="white"/>
<path fill-rule="evenodd" clip-rule="evenodd" d="M97.3481 1.87451C93.3682 3.42653 90.5449 7.56835 90.5449 11.8297C90.5449 17.5715 95.1375 22.3159 100.91 22.3159C106.966 22.3159 111.461 17.2894 111.461 11.3796C111.461 9.37748 110.753 7.47932 109.699 5.80653L109.273 6.11221C108.871 6.3936 108.461 6.6588 108.027 6.89226C108.116 7.07716 108.212 7.28633 108.212 7.49551C108.212 7.57582 108.187 7.75262 108.074 7.75262C107.857 7.75262 107.657 7.28633 107.584 7.12572C107.286 7.22221 106.965 7.38345 106.643 7.38345C106.571 7.38345 106.426 7.3268 106.426 7.2303C106.426 6.97257 107.181 6.74783 107.374 6.65943C107.004 5.91984 106.586 5.26056 106.016 4.65731C105.444 4.97917 104.865 5.26056 104.247 5.4853C104.374 5.79906 104.503 6.10474 104.608 6.42659L104.808 7.03732C104.848 7.17428 104.897 7.31871 104.897 7.46376C104.897 8.05082 104.392 8.26809 103.9 8.32412L102.734 8.46855C102.284 8.52458 101.826 8.54886 101.367 8.55695L101.375 9.27226C101.375 9.42479 101.375 9.68252 101.15 9.68252C100.941 9.68252 100.885 9.50572 100.877 9.32082L100.861 8.63727C100.645 8.63727 99.9927 8.66154 99.9927 8.32412C99.9927 8.15541 100.178 8.10685 100.315 8.10685C100.443 8.10685 100.572 8.11494 100.709 8.11494H100.91L100.894 6.08046L100.218 6.04808C100.125 5.84001 100.009 5.64307 99.8726 5.46102L100.934 5.53386V3.7322C100.491 3.70792 100.082 3.62014 99.6547 3.49874C99.5183 3.68364 99.1087 4.52035 98.8995 4.52035C98.7949 4.52035 98.7308 4.40767 98.7308 4.31117C98.7308 3.96566 99.0116 3.56349 99.1965 3.28957C98.8659 3.14863 98.5553 2.96486 98.2726 2.74297C97.9906 2.91978 96.9534 3.79633 96.8246 3.79633C96.72 3.79633 96.6727 3.65937 96.6727 3.57096C96.6727 3.22545 97.6208 2.66266 97.886 2.48586C97.6949 2.29287 97.5175 2.08369 97.3481 1.87451ZM99.9056 1.31982H99.8408C99.166 1.31982 98.5546 1.48854 97.9196 1.72199C98.0485 1.8907 98.1848 2.03576 98.3455 2.164C98.8441 1.82658 99.3596 1.56947 99.9056 1.31982Z" fill="white"/>
<path fill-rule="evenodd" clip-rule="evenodd" d="M100.501 1.57373C99.834 1.76672 99.2625 2.0643 98.668 2.4341C98.9332 2.60281 99.2065 2.74786 99.4872 2.8761L99.8097 2.4341L100.219 1.93543L100.501 1.57373ZM99.9454 3.05353C100.268 3.15749 100.589 3.23843 100.927 3.30255L100.96 1.87068C100.878 1.83146 100.026 2.94085 99.9454 3.05353ZM101.45 1.90368L101.441 3.28636C101.774 3.24543 102.105 3.18368 102.431 3.10147C102.141 2.65946 101.844 2.25791 101.45 1.90368ZM102.945 2.90101C103.167 2.77906 103.381 2.64479 103.588 2.49884C103.089 2.14523 102.616 1.88812 102.037 1.68641C102.286 2.00018 102.527 2.31394 102.751 2.63518L102.945 2.90101Z" fill="white"/>
<path fill-rule="evenodd" clip-rule="evenodd" d="M91.8159 10.3021C91.6795 10.3824 91.5426 10.4627 91.4062 10.5511C91.5196 9.11181 92.2187 6.73928 93.4003 5.84717C93.32 6.09619 93.2639 6.33773 93.2397 6.59485C92.492 7.70485 92.0493 8.99166 91.8159 10.3021ZM107.561 18.8584L107.449 18.5447C108.221 17.8213 108.864 16.936 109.281 15.9561L109.869 15.4649C109.379 16.7511 108.711 18.046 107.561 18.8584Z" fill="black"/>
<path fill-rule="evenodd" clip-rule="evenodd" d="M107.216 19.2674C105.414 20.6987 103.324 21.64 101 21.64C95.3234 21.64 91.2295 17.1533 91.2295 11.5883C91.2295 10.1247 93.7552 10.1166 93.7552 8.75758C93.7552 8.06593 93.4819 7.40665 93.4819 6.72309C93.4819 5.17108 94.8969 3.94092 96.3929 3.94092C97.9368 3.94092 100.091 5.29185 100.091 6.99701C100.091 8.01799 99.2965 8.49238 99.2965 9.09563C99.2965 9.28862 99.3282 9.48161 99.3282 9.6746C99.3282 9.88377 99.0232 9.92361 98.9989 10.149L98.9833 10.2697L98.8458 10.4789L98.7256 10.6962C98.6696 10.7846 98.3402 11.0342 98.2357 11.1469C98.0508 11.348 97.7843 11.3885 97.5197 11.3885C97.351 11.3885 97.1742 11.3804 97.013 11.3399L96.5716 11.2198C96.4978 11.2033 96.4224 11.1951 96.3468 11.1955C96.1047 11.1955 95.8239 11.3642 95.8239 11.63C95.8239 12.0639 96.0648 12.4904 96.0486 12.9324L96.0244 14.099L96.0399 14.1794L96.1688 14.5647L96.2647 14.8953C96.4104 15.4338 97.2545 15.3939 97.8086 15.61L98.283 15.7874C98.3477 15.8104 98.4274 15.859 98.5009 15.859C98.7904 15.859 99.1284 15.3118 99.6109 15.3118C99.7958 15.3118 99.8032 15.5938 99.9645 15.5782L100.423 15.5384C100.519 15.5216 100.591 15.9082 100.591 15.9885C100.591 16.6633 100.125 17.5324 99.3687 17.5324C99.0549 17.5324 98.814 17.2834 98.5251 17.2834C98.405 17.2834 97.511 17.5324 97.2632 17.5729C96.9096 17.6289 96.5554 17.6849 96.2018 17.6849C95.9285 17.6849 95.5257 17.6936 95.2922 17.5486L95.1074 17.4284C95.0756 17.4129 95.0426 17.3886 95.0028 17.3886C94.7133 17.3886 94.5688 18.1207 94.5688 18.3125C94.5688 19.1977 95.695 19.527 96.3867 19.527C96.8281 19.527 97.2863 19.4623 97.6972 19.2849L98.9435 18.7389C99.8431 18.3448 101.371 18.1761 101.629 18.0385C101.854 17.9184 102.031 17.7092 102.031 17.444C102.03 17.3331 102.017 17.2226 101.991 17.1147L101.879 16.672L101.79 16.1335L101.717 15.5465C101.556 14.1314 99.8761 14.0592 99.8761 13.0052C99.8761 12.5713 100.334 12.3217 100.35 11.9114C100.359 11.7427 100.382 11.63 100.544 11.5497L100.705 11.4775C100.929 11.3729 100.705 10.8742 100.994 10.7697L101.147 10.7136C101.493 10.5929 101.179 9.87755 101.67 9.8128L102.064 9.75677L102.539 9.66028C103.118 9.5395 103.086 8.96053 103.769 8.66295L104.484 8.34919L104.751 8.18048L105.063 7.85115C105.345 7.56976 105.82 7.51311 106.197 7.51311C108.843 7.51311 110.781 9.57187 110.781 12.1611C110.781 14.1794 109.148 16.7449 106.929 16.7449C106.784 16.7449 106.639 16.7281 106.495 16.7281C106.133 16.7281 106.108 17.1302 106.108 17.4129C106.108 18.3455 107.235 18.9885 107.235 19.0047C107.235 19.085 107.219 19.1654 107.219 19.2457V19.2674H107.216Z" fill="black"/>
</svg>
