<svg width="32" height="32" viewBox="0 0 32 32" xmlns="http://www.w3.org/2000/svg" xmlns:xlink="http://www.w3.org/1999/xlink">
    <defs>
        <path id="a" d="M0 32h32V0H0z"/>
    </defs>
    <g fill="none" fill-rule="evenodd">
        <path d="M16 0c8.837 0 16 7.163 16 16 0 8.836-7.163 16-16 16-8.836 0-16-7.164-16-16C0 7.163 7.164 0 16 0" fill="silver"/>
        <mask id="b" fill="#fff">
            <use xlink:href="#a"/>
        </mask>
        <path d="M8.93 22.663H12.2v-9.842H8.93v9.842zm1.657-14.587c-1.12 0-1.852.736-1.852 1.7 0 .946.712 1.702 1.809 1.702h.021c1.142 0 1.851-.756 1.851-1.701-.021-.965-.71-1.7-1.829-1.7zM24 17.02v5.645h-3.273v-5.267c0-1.322-.472-2.225-1.657-2.225-.904 0-1.442.608-1.678 1.197-.087.21-.109.502-.109.797v5.497H14.01s.045-8.919 0-9.842h3.274v1.395c-.007.01-.017.022-.022.032h.021v-.032c.435-.67 1.211-1.627 2.95-1.627 2.153 0 3.767 1.407 3.767 4.43z" fill="#F1F2F2" mask="url(#b)"/>
    </g>
</svg>
