<svg width="163" height="50" viewBox="0 0 163 50" xmlns="http://www.w3.org/2000/svg">
    <g fill-rule="nonzero" fill="none">
        <g>
            <ellipse fill="#32FF14" cx="25.407" cy="25.027" rx="25.269" ry="24.918"/>
            <path d="m12.759 28.152 2.755-2.717 6.752 4.402-1.075 1.06a5.846 5.846 0 0 0 0 8.315c2.315 2.283 6.118 2.283 8.432 0a5.846 5.846 0 0 0 0-8.315l-1.074-1.06 6.751-4.402 2.783 2.744 2.839-2.799L25.38 10.054 9.893 25.326l2.866 2.826zm12.62-12.473 6.973 6.875-6.972 4.566-6.972-4.566 6.972-6.875zm-1.35 20.734a1.884 1.884 0 0 1 0-2.717l1.378-1.359 1.378 1.359c.772.76.772 1.956 0 2.717-.772.734-2.012.734-2.756 0z" fill="#14499C"/>
        </g>
        <g fill="#0046A0">
            <path d="M64.158 33.744h-3.595V22.911c0-4.465 2.373-6.714 7.081-6.714 2.548 0 4.293.831 5.234 2.527.942-1.696 2.686-2.527 5.234-2.527 4.884 0 7.048 2.284 7.048 6.714v10.833h-3.592V22.911c0-2.353-.767-3.392-3.454-3.392-2.688 0-3.524 1.039-3.524 3.392v10.833H71.1V22.911c0-2.353-.766-3.392-3.454-3.392s-3.49 1.039-3.49 3.392l.002 10.833zM87.396 26.871v-3.04c0-4.95 2.563-7.634 7.86-7.634 5.434 0 7.792 2.545 7.792 7.634v3.042c0 4.915-2.563 7.634-7.791 7.634-5.469.003-7.861-2.544-7.861-7.636zm11.925-3.115c0-3.155-.91-4.507-4.067-4.507-3.156 0-4.131 1.352-4.131 4.507v3.23c0 3.117.91 4.47 4.131 4.47 3.156 0 4.067-1.316 4.067-4.47v-3.23zM105.284 33.744V16.197h3.727v17.547h-3.727zm11.162-16.784h4.533l-6.19 6.7c-.455.438-.702.845-.702 1.218 0 .304.21.71.668 1.185l6.927 7.681h-4.534l-5.24-5.855c-.95-1.047-1.406-2.063-1.406-3.112 0-1.083.28-1.692 1.406-2.877l4.538-4.94zM135.844 28.852c0 3.924-2.213 5.655-7.253 5.655-4.595 0-6.91-1.803-6.91-5.443 0-3.782 2.452-5.342 6.946-5.342h3.744v-1.728c0-2.085-1.323-2.686-4.018-2.686-2.077 0-3.675.212-4.835.671V16.8c1.157-.39 2.69-.602 4.63-.602 4.938 0 7.696 1.59 7.696 5.8v6.855zm-3.727-2.737h-3.887c-2.44 0-3.567.762-3.567 2.706 0 2.02 1.342 2.634 3.462 2.634 2.648 0 3.99-.57 3.99-2.973l.002-2.367zM141.041 33.744h-3.707V22.911c0-4.465 2.445-6.714 7.296-6.714 2.625 0 4.422.831 5.392 2.527.97-1.696 2.768-2.527 5.393-2.527 5.032 0 7.261 2.284 7.261 6.714v10.833h-3.696V22.911c0-2.353-.79-3.392-3.56-3.392-2.768 0-3.63 1.039-3.63 3.392v10.833h-3.59V22.911c0-2.353-.79-3.392-3.56-3.392-2.769 0-3.594 1.039-3.594 3.392l-.005 10.833z"/>
        </g>
    </g>
</svg>
