<?xml version="1.0" encoding="UTF-8"?>
<svg width="32px" height="32px" viewBox="0 0 32 32" version="1.1" xmlns="http://www.w3.org/2000/svg" xmlns:xlink="http://www.w3.org/1999/xlink">
    <title>3842A180-8A20-44AE-AFD9-9A89085FEF84</title>
    <g id="v2" stroke="none" stroke-width="1" fill="none" fill-rule="evenodd">
        <g id="Mokam_retailer" transform="translate(-961.000000, -26.000000)">
            <g id="Group-2" transform="translate(961.000000, 26.000000)">
                <circle id="Oval" fill="#32FF14" cx="16" cy="16" r="16"></circle>
                <g id="Icon/Standard/Devices/Phone" transform="translate(8.000000, 8.999999)" fill="#0046A0">
                    <path d="M2.70432071,7.60843876 C2.71932071,7.62906376 2.73307071,7.65031376 2.74557071,7.67343876 C3.25932071,8.60468876 3.96119571,9.52093876 4.83182071,10.3971888 C5.63369571,11.1928138 6.51057071,11.8590638 7.43682071,12.3728138 C10.9149457,14.3221888 11.9343207,13.8959388 12.2093207,13.6215638 L13.0324457,12.7890638 C13.0549457,12.7665638 13.0786957,12.7465638 13.1030707,12.7271888 L13.5624457,12.2684388 C13.7030707,12.1278138 13.8705707,11.9203138 13.8705707,11.7290638 C13.8705707,11.5371888 13.7030707,11.3296888 13.5624457,11.1890638 L11.9718207,9.59906376 C11.8311957,9.45781376 11.6236957,9.29031376 11.4324457,9.29031376 C11.2411957,9.29031376 11.0336957,9.45781376 10.8936957,9.59843876 C10.8718207,9.62031376 10.8486957,9.63968876 10.8249457,9.65781376 L9.81119571,10.6709388 C9.62494571,10.8571888 9.34182071,10.9065638 9.10244571,10.7946888 C7.03994571,9.82031376 5.43682071,8.21406376 4.33807071,6.01906376 C4.21807071,5.77843876 4.26494571,5.48718876 4.45557071,5.29781376 L5.52869571,4.22531376 C5.66869571,4.08468876 5.83682071,3.87656376 5.83682071,3.68531376 C5.83682071,3.49343876 5.66869571,3.28593876 5.52869571,3.14531376 L3.93807071,1.55468876 C3.79744571,1.41468876 3.58994571,1.24656376 3.39807071,1.24656376 C3.20619571,1.24656376 2.99869571,1.41468876 2.85807071,1.55468876 C2.83682071,1.57656376 2.81432071,1.59593876 2.79057071,1.61406376 L2.35182071,2.05218876 C2.34494571,2.05968876 2.33807071,2.06656376 2.33119571,2.07343876 L1.49494571,2.90906376 C1.22807071,3.18093876 0.806820708,4.18843876 2.70432071,7.60843876 M11.4461957,15.1215638 C10.3211957,15.1215638 8.80494571,14.5728138 6.82807071,13.4640638 C5.80369571,12.8959388 4.83369571,12.1609388 3.94807071,11.2809388 C3.01494571,10.3421888 2.25744571,9.35781376 1.69244571,8.35093876 C1.67744571,8.33156376 1.66494571,8.31093876 1.65244571,8.28906376 C-0.127554292,5.10218876 -0.459429292,3.11343876 0.608070708,2.02906376 L1.44744571,1.18906376 C1.44807071,1.18906376 1.44869571,1.18843876 1.44869571,1.18781376 L1.46557071,1.17093876 L1.96494571,0.670938758 C1.98807071,0.647813758 2.01369571,0.626563758 2.03994571,0.607188758 C2.91869571,-0.222811242 3.94932071,-0.202186242 4.82182071,0.670938758 L6.41244571,2.26156376 C6.85932071,2.70843876 7.08682071,3.18781376 7.08682071,3.68531376 C7.08682071,4.18281376 6.85932071,4.66156376 6.41244571,5.10906376 L5.66432071,5.85593876 C6.54807071,7.45531376 7.74994571,8.66718876 9.24682071,9.46843876 L9.99994571,8.71531376 C10.0230707,8.69156376 10.0480707,8.67031376 10.0743207,8.65156376 C10.9524457,7.81906376 11.9830707,7.84093876 12.8561957,8.71531376 L14.4461957,10.3053138 C14.8936957,10.7521888 15.1205707,11.2315638 15.1205707,11.7290638 C15.1205707,12.2265638 14.8936957,12.7053138 14.4461957,13.1521888 L13.9461957,13.6521888 L13.9455707,13.6515638 C13.9268207,13.6709388 13.9055707,13.6890638 13.8836957,13.7059388 L13.0943207,14.5040638 C12.6811957,14.9146888 12.1374457,15.1215638 11.4461957,15.1215638" id="Fill-1"></path>
                </g>
            </g>
        </g>
    </g>
</svg>