<svg width="32" height="32" viewBox="0 0 32 32" xmlns="http://www.w3.org/2000/svg">
    <g fill="none" fill-rule="evenodd">
        <path d="M16 0c8.836 0 16 7.164 16 16s-7.164 16-16 16S0 24.836 0 16 7.164 0 16 0" fill="silver"/>
        <path d="M13.746 19.376v-6.75l5.63 3.37-5.63 3.38zm11.06-6.53c-.12-.82-.32-1.4-.57-1.84-.49-.87-1.02-1.03-2.1-1.09-1.08-.07-3.79-.1-6.13-.1-2.36 0-5.07.03-6.14.1-1.08.06-1.61.22-2.1 1.09-.51.87-.77 2.36-.77 4.99v.01c0 1.31.07 2.34.19 3.15.13.81.32 1.4.58 1.83.49.87 1.02 1.03 2.09 1.1 1.08.06 3.79.1 6.15.1 2.34 0 5.05-.04 6.13-.1 1.08-.07 1.61-.23 2.1-1.1.51-.86.76-2.36.76-4.98v-.01c0-1.31-.06-2.35-.19-3.15z" fill="#FFF"/>
    </g>
</svg>
