<svg xmlns="http://www.w3.org/2000/svg" width="222.057" height="47.128" viewBox="0 0 222.057 47.128">
  <g id="Group_163803" data-name="Group 163803" transform="translate(-1031.944 -102.311)">
    <g id="Logo" transform="translate(1031.944 102.311)">
      <path id="Path_83915" data-name="Path 83915" d="M-666.078-558.178a4.5,4.5,0,0,1,.456-.045q4.851,0,9.7,0c.15,0,.3.019.442.028.1.625.158,1.228.3,1.807a5.893,5.893,0,0,0,3.931,4.312,11,11,0,0,0,7.681-.066,4.209,4.209,0,0,0,2.753-5.023,2.949,2.949,0,0,0-1.6-2.115,33.245,33.245,0,0,0-3.911-1.6c-3.073-1.021-6.186-1.928-9.256-2.954a15.832,15.832,0,0,1-5.363-2.989c-3.1-2.667-4.117-6.136-3.84-10.018.379-5.315,3.385-8.868,8.23-10.905a21.884,21.884,0,0,1,16.458-.283,13.553,13.553,0,0,1,8.9,10.268c.236,1.019.344,2.067.518,3.144h-10.853c-.088-.567-.135-1.135-.269-1.683a5.022,5.022,0,0,0-3.767-3.864,9.437,9.437,0,0,0-6.041.249,3.868,3.868,0,0,0-2.678,4.622,3.094,3.094,0,0,0,1.7,2.274,25.438,25.438,0,0,0,3.414,1.336c3.123.98,6.28,1.855,9.395,2.858a17.045,17.045,0,0,1,5.468,2.916,10.513,10.513,0,0,1,4.073,7.46,14.718,14.718,0,0,1-1.6,8.681,12.819,12.819,0,0,1-7.8,6.146,25.413,25.413,0,0,1-17.184-.492c-5.136-2.021-8.014-5.915-8.962-11.22-.121-.675-.205-1.356-.306-2.035Z" transform="translate(666.078 589.496)" fill="#d2b162"/>
      <path id="Path_83916" data-name="Path 83916" d="M413.678-555.361v-25.124H423.5v40.9h-.488c-2.994,0-5.989-.007-8.983.008a.8.8,0,0,1-.764-.391q-8.425-12.105-16.869-24.2c-.1-.14-.2-.276-.37-.507v25.056h-9.85v-40.9h.526c2.926,0,5.852.008,8.777-.009a.921.921,0,0,1,.89.433q8.429,12.157,16.885,24.3c.106.152.213.3.319.455Z" transform="translate(-278.137 583.624)" fill="#d2b162"/>
      <path id="Path_83917" data-name="Path 83917" d="M1073.98-570.338h-.552c-3.371,0-6.741-.009-10.112.012a.644.644,0,0,1-.724-.5,12.525,12.525,0,0,0-6.653-7.287c-7.122-3.214-16.239-.491-18.6,8.643a14.243,14.243,0,0,0,2.181,12.444c2.655,3.65,6.416,5.221,10.949,5.11a13.849,13.849,0,0,0,6.657-1.765,12.345,12.345,0,0,0,5.846-7.5.789.789,0,0,1,.93-.686c3.2.028,6.4.014,9.6.014h.656c-.139.7-.225,1.359-.4,1.992-2.555,9.32-8.637,15.091-18.289,17.125a25.676,25.676,0,0,1-14.49-1.015c-7.418-2.771-12.234-7.973-14.233-15.463a23.081,23.081,0,0,1,4.118-21.04,21.987,21.987,0,0,1,12.681-8,26.665,26.665,0,0,1,16.885,1.242,22.152,22.152,0,0,1,13.236,15.15c.122.434.209.878.31,1.318A1.233,1.233,0,0,1,1073.98-570.338Z" transform="translate(-852.103 589.217)" fill="#d2b162"/>
      <path id="Path_83918" data-name="Path 83918" d="M-108.517-580.5-126-560.824l17.72,21.221h0l-12.468.035L-137.3-560.824l17.174-19.689Z" transform="translate(191.597 583.616)" fill="#d2b162"/>
      <path id="Path_83919" data-name="Path 83919" d="M184.22-580.254H194.6v40.713H184.22Z" transform="translate(-96.917 583.446)" fill="#d2b162"/>
      <path id="Path_83920" data-name="Path 83920" d="M850.08-539.443v-40.668h10.4v40.668Z" transform="translate(-694.41 583.353)" fill="#d2b162"/>
      <rect id="Rectangle_147748" data-name="Rectangle 147748" width="10.396" height="10.195" transform="translate(43.973 3.276)" fill="#d2b162"/>
      <rect id="Rectangle_147749" data-name="Rectangle 147749" width="10.396" height="10.195" transform="translate(43.973 33.852)" fill="#d2b162"/>
    </g>
  </g>
</svg>
