<svg xmlns="http://www.w3.org/2000/svg" width="8.59" height="8.596" viewBox="0 0 8.59 8.596">
  <g id="Group_163783" data-name="Group 163783" transform="translate(-345.469 -249.551)">
    <path id="Path_83936" data-name="Path 83936" d="M9.059-4.031a16.713,16.713,0,0,0-1.69.791,4.611,4.611,0,0,0-.981.7,4.479,4.479,0,0,0-.7.973,16.732,16.732,0,0,0-.8,1.717h-.24A17.433,17.433,0,0,0,3.838-1.57a4.616,4.616,0,0,0-.691-.973,4.611,4.611,0,0,0-.981-.7,16.5,16.5,0,0,0-1.7-.791v-.24a16.293,16.293,0,0,0,1.7-.791,4.458,4.458,0,0,0,.976-.7,4.616,4.616,0,0,0,.691-.973,17.433,17.433,0,0,0,.809-1.717h.24a16.732,16.732,0,0,0,.8,1.717,4.479,4.479,0,0,0,.7.973,4.312,4.312,0,0,0,.97.7,16.293,16.293,0,0,0,1.7.791Z" transform="translate(345 258)" fill="#ff7979"/>
  </g>
</svg>
