<svg xmlns="http://www.w3.org/2000/svg" width="19.446" height="22.569" viewBox="0 0 19.446 22.569">
  <g id="Group_163764" data-name="Group 163764" transform="translate(0 0)">
    <path id="Path_83318" data-name="Path 83318" d="M13.723,12.153a4.867,4.867,0,1,0-3.436-1.426A4.857,4.857,0,0,0,13.723,12.153Zm0-7.292a2.436,2.436,0,1,1-1.717.713A2.427,2.427,0,0,1,13.723,4.861ZM23.09,17.955a13.169,13.169,0,0,0-6.877-3.638l-2.49,3.077-2.49-3.077a13.169,13.169,0,0,0-6.877,3.638L4,18.311V25H23.446V18.311Zm-2.075,4.614H6.431V19.335a10.723,10.723,0,0,1,3.893-2.278l1.509,1.867,1.89,2.335,1.89-2.335,1.509-1.867a10.723,10.723,0,0,1,3.893,2.278Z" transform="translate(-4 -2.431)" fill="#fff"/>
  </g>
</svg>
