<svg xmlns="http://www.w3.org/2000/svg" width="20.446" height="23.571" viewBox="0 0 20.446 23.571">
  <g id="Group_163767" data-name="Group 163767" transform="translate(0.5 0.503)">
    <path id="Union_5" data-name="Union 5" d="M14120.724,7730.568v-6.689l.354-.354a13.183,13.183,0,0,1,6.877-3.638l2.491,3.077,2.488-3.077a13.169,13.169,0,0,1,6.877,3.638l.358.354v6.689Zm17.016-2.431V7724.9a10.745,10.745,0,0,0-3.893-2.278l-1.512,1.867-.888,1.1v2.547Zm-14.585-3.233v3.233h6.292v-2.545l-.892-1.1-1.508-1.867A10.745,10.745,0,0,0,14123.154,7724.9Zm11.132,2.594v-1h-1v-1h1v-1h1v1h1v1h-1v1Zm-7.274-11.2a4.853,4.853,0,1,1,3.435,1.427A4.846,4.846,0,0,1,14127.012,7716.3Zm1.718-5.153a2.429,2.429,0,1,0,4.1,2.193,2.469,2.469,0,0,0-.138-1.405,2.429,2.429,0,0,0-3.964-.788Z" transform="translate(-14120.724 -7708)" fill="#fff" stroke="rgba(0,0,0,0)" stroke-miterlimit="10" stroke-width="1"/>
  </g>
</svg>
