<svg width="120" height="56" viewBox="0 0 120 56" fill="none" xmlns="http://www.w3.org/2000/svg">
<path d="M38.594 9.79594C37.7876 11.2617 37.1791 12.8096 36.9153 14.4534C36.712 15.7188 36.6718 17.005 36.7958 18.2807C36.9641 20.0615 37.4694 21.7943 38.2849 23.3874C39.2005 25.1725 40.441 26.7722 41.943 28.1051C43.0378 29.0877 44.2655 29.9121 45.5902 30.5544C46.9638 31.2201 48.3801 31.7626 49.909 31.9242C50.9832 32.0393 52.0671 32.1899 53.1399 32.1488C54.8756 32.0903 56.5865 31.721 58.191 31.0585C60.5039 30.1105 62.5679 28.646 64.2242 26.7777C66.1054 24.6834 67.3521 22.0998 67.8194 19.3271C68.2868 16.5543 67.9556 13.7063 66.8644 11.1137C65.8709 8.7902 64.3451 6.73121 62.4094 5.10192C60.4738 3.47262 58.1821 2.31837 55.7183 1.73175C55.0878 1.58792 54.4339 1.55778 53.7952 1.47011C53.7249 1.4519 53.6571 1.42523 53.5932 1.39066H51.4036C51.1 1.44409 50.7992 1.51395 50.4928 1.54682C48.2798 1.78106 46.2825 2.60296 44.3992 3.73855C44.3421 3.77077 44.2834 3.80003 44.2233 3.82622C44.722 4.17005 45.2234 4.51114 45.7179 4.86044C46.4637 5.39869 47.3079 5.78631 48.2029 6.00151C49.0683 6.20562 49.9392 6.38781 50.8129 6.55767C52.3762 6.86177 53.8652 7.30833 55.151 8.31927C58.0357 10.5877 60.8518 12.9411 63.5305 15.4424C63.7623 15.6478 63.9714 15.8774 64.1541 16.1273C64.5786 16.7492 64.4124 17.5437 63.7791 18.0766C63.2763 18.4999 62.8629 18.4396 62.2145 17.8779C60.8477 16.6944 59.474 15.5191 58.1044 14.3383C57.8874 14.1506 57.6662 14.0575 57.4272 14.289C57.2198 14.489 57.2486 14.8054 57.4904 15.0383C57.5783 15.1218 57.6745 15.1958 57.7651 15.2753C59.8284 17.0542 61.8889 18.835 63.9467 20.6176C64.1726 20.8089 64.3668 21.0345 64.5223 21.2861C64.8451 21.8272 64.6803 22.3532 64.3698 22.8436C64.274 23.0178 64.1227 23.1551 63.9398 23.2337C63.7569 23.3124 63.5529 23.3279 63.3601 23.2778C63.0509 23.1943 62.7629 23.0463 62.5153 22.8436C60.5826 21.2642 58.669 19.6683 56.7459 18.0779C56.6524 17.9999 56.559 17.8821 56.4546 17.8684C56.287 17.8464 56.0425 17.8355 55.9532 17.9327C55.8507 18.0913 55.8152 18.2838 55.8543 18.4683C55.8736 18.5875 56.0343 18.6916 56.1469 18.7848C58.3599 20.5957 60.5839 22.3943 62.7832 24.223C63.0798 24.4724 63.3034 24.7971 63.4302 25.1627C63.7242 26.0778 63.0002 26.8736 62.0565 26.6887C61.7181 26.608 61.4022 26.4526 61.132 26.2339C58.8668 24.4874 56.6153 22.723 54.3598 20.9655C54.0424 20.719 53.7306 20.7025 53.5768 20.9395C53.3625 21.2696 53.6743 21.3957 53.8597 21.5409C54.9587 22.4052 56.0769 23.26 57.1868 24.1175C57.9135 24.6778 58.647 25.2298 59.3668 25.7969C59.8435 26.1723 60.0207 26.7051 59.8586 27.1887C59.7755 27.4481 59.6086 27.6728 59.384 27.8277C59.1593 27.9826 58.8896 28.059 58.6168 28.0448C58.2046 28.0233 57.8046 27.8975 57.4547 27.6791C56.2664 26.8572 55.1469 25.9408 53.9477 25.1422C52.9861 24.5024 52.2896 23.7477 52.1976 22.5532C52.1955 22.5398 52.1914 22.5269 52.1852 22.5148C52.0354 22.1521 51.9851 21.7561 52.0394 21.3676C52.0937 20.9791 52.2507 20.612 52.4943 20.3039C53.5232 18.8998 53.7856 17.1876 54.3419 15.5944C54.3953 15.4245 54.3811 15.2406 54.3024 15.0807C54.2236 14.9209 54.0863 14.7973 53.9188 14.7356C53.7432 14.6778 53.5526 14.6845 53.3816 14.7546C53.2105 14.8247 53.0702 14.9535 52.9861 15.1177C52.8185 15.4383 52.6962 15.7835 52.5479 16.115C52.4866 16.2268 52.4192 16.3352 52.3459 16.4396C52.2828 16.2287 52.2402 16.1068 52.2086 15.9807C51.8803 14.5931 51.5561 13.2055 51.2264 11.8178C51.1275 11.3986 50.8349 11.1918 50.4722 11.2699C50.0794 11.3534 49.8967 11.6658 49.9928 12.0918C50.0423 12.3151 50.0945 12.5383 50.1467 12.7603C50.3143 13.4534 50.486 14.1452 50.6426 14.841C50.6604 14.9219 50.5917 15.0218 50.5629 15.115C50.4775 15.0694 50.3985 15.0128 50.328 14.9465C50.2903 14.8751 50.2674 14.7968 50.2607 14.7164C49.9956 13.6205 49.7401 12.5178 49.4585 11.4288C49.4131 11.2507 49.2826 11.0055 49.1398 10.9617C49.0243 10.9257 48.9028 10.9132 48.7825 10.925C48.6621 10.9368 48.5454 10.9725 48.4392 11.0302C48.2936 11.1329 48.1974 11.4576 48.2386 11.6493C48.4845 12.7931 48.7881 13.926 49.045 15.0657C49.0752 15.2027 48.9818 15.3616 48.9461 15.5095C48.8458 15.3931 48.6892 15.2917 48.6548 15.1575C48.3897 14.1561 48.1534 13.1479 47.8993 12.1438C47.7908 11.7164 47.4611 11.5151 47.0875 11.6219C46.7138 11.7288 46.5723 12.0055 46.6822 12.4438C46.9652 13.5794 47.2592 14.7123 47.5284 15.8506C47.56 15.9876 47.4707 16.1451 47.4364 16.2931C47.3347 16.178 47.1768 16.078 47.1397 15.9451C46.935 15.2205 46.7633 14.4862 46.5737 13.7534C46.4432 13.252 46.1369 13.0233 45.7564 13.1246C45.3759 13.226 45.2509 13.5424 45.3772 14.0424C45.7729 15.5931 46.1905 17.1396 46.5572 18.6998C46.7756 19.6245 47.1397 20.4614 47.7771 21.1655C48.5051 21.971 48.8994 22.9217 49.0958 23.9778C49.1826 24.4316 49.095 24.9014 48.8504 25.2937C48.6059 25.6861 48.2222 25.9723 47.7757 26.0956C46.8539 26.3421 46.0531 25.8723 45.7426 24.9093C45.0888 22.8737 44.428 20.8395 43.7796 18.8012C43.2837 17.2369 42.829 15.6602 42.3098 14.1041C41.6669 12.1753 40.241 10.885 38.594 9.79594Z" fill="#DA2230"/>
<path d="M115.367 36.4768C115.323 36.3302 115.266 36.1878 115.237 36.0385C115.147 35.5522 115.003 35.3631 114.516 35.3536C114.087 35.3576 113.661 35.4184 113.248 35.5344C113.111 35.5686 113.012 35.8083 112.948 35.9631C112.905 36.1356 112.883 36.3128 112.884 36.4905C112.61 36.3357 112.376 36.1974 112.137 36.0645C109.593 34.6563 106.791 35.5056 105.591 38.1549C104.475 40.6206 104.536 43.1438 105.748 45.5643C106.616 47.2957 108.037 48.33 110.07 48.167C110.846 48.1067 111.605 47.8286 112.405 47.6409C112.416 48.1793 112.883 48.2135 113.339 48.2204C113.821 48.23 114.304 48.2108 114.784 48.1628C115.041 48.1354 115.177 47.9533 115.215 47.6629C115.345 46.6718 115.255 45.6644 114.95 44.7122C114.919 44.6319 114.87 44.56 114.805 44.5024C114.741 44.4448 114.664 44.4032 114.581 44.3807C114.086 44.3451 113.588 44.3451 113.093 44.3807C112.715 44.4068 112.544 44.6328 112.651 45.0273C112.662 45.0752 112.661 45.1251 112.649 45.1727C112.637 45.2204 112.613 45.2644 112.581 45.3013C111.757 45.8341 110.903 46.2259 109.886 46.0423C109.241 45.9206 108.67 45.553 108.293 45.0177C107.449 43.904 107.26 42.6191 107.318 41.2712C107.366 40.1439 107.663 39.1233 108.554 38.3507C109.103 37.8586 109.819 37.5935 110.557 37.6095C111.294 37.6255 111.998 37.9215 112.524 38.437C112.644 38.5442 112.723 38.6895 112.747 38.848C112.769 39.4466 112.762 40.0466 112.747 40.6466C112.747 40.8397 112.619 40.9205 112.399 40.9342C111.942 40.9562 111.489 41.0356 111.026 41.0712C110.737 41.0945 110.638 41.2781 110.588 41.5178C110.461 42.1287 110.759 42.6274 111.392 42.815C112.217 43.0602 113.053 42.941 113.875 42.763C114.895 42.5411 114.954 42.4671 115.132 41.4383C115.207 40.9954 115.281 40.5534 115.356 40.1123L115.367 36.4768ZM43.7838 48.4409C44.3333 48.2943 44.4817 47.9163 44.4487 47.3916C44.4185 46.8944 44.4569 46.3944 44.4322 45.8971C44.391 45.0602 44.0572 44.7396 43.2124 44.7287C42.9437 44.7322 42.6764 44.7667 42.4156 44.8314C42.2967 44.8545 42.1891 44.917 42.1103 45.0088C42.0315 45.1005 41.9861 45.2162 41.9816 45.3369C41.9629 45.4198 41.9251 45.4973 41.8712 45.5631C41.8173 45.629 41.7488 45.6814 41.6711 45.7163C40.6856 46.0209 39.6296 46.0127 38.649 45.693C37.5981 45.352 37.4745 44.3328 37.6874 43.5876C37.8248 43.1123 38.2231 42.9137 38.6682 42.863C39.579 42.7589 40.4966 42.7095 41.4087 42.6109C41.8648 42.5663 42.3165 42.4843 42.7591 42.3657C44.1891 41.9685 44.8828 40.9274 44.733 39.4521C44.6234 38.4214 44.172 37.4566 43.4504 36.7105C42.7289 35.9644 41.7783 35.4796 40.7494 35.333C39.6504 35.1755 38.5968 35.233 37.675 35.8494C37.5377 35.6262 37.4553 35.3536 37.2739 35.2426C37.0926 35.1316 36.7835 35.1289 36.5308 35.1056C36.3558 35.0892 36.1796 35.0892 36.0046 35.1056C35.3989 35.1536 35.1461 35.3056 35.0554 35.896C34.9428 36.5688 34.9087 37.2523 34.9538 37.9329C35.0225 38.7795 35.2697 38.9932 36.1324 39.0288C36.5637 39.0494 37.0088 38.9151 37.4374 38.8096C37.5267 38.7877 37.6201 38.5891 37.627 38.4672C37.6448 38.1521 37.811 37.9891 38.0803 37.8713C39.2534 37.3604 40.3812 37.3357 41.4321 38.1658C41.5792 38.2851 41.71 38.4233 41.8208 38.5768C42.3772 39.3384 42.1505 40.063 41.2356 40.2589C40.5296 40.411 39.7878 40.3959 39.0707 40.5123C38.3763 40.6008 37.6909 40.7498 37.0225 40.9575C35.4675 41.489 34.7546 42.9794 35.1516 44.7232C35.789 47.5231 38.807 48.9697 41.5186 47.7656C41.656 47.7053 41.7865 47.6423 41.9568 47.5629C41.9869 47.7674 42.0764 47.9587 42.2144 48.1131C42.3523 48.2674 42.5326 48.3781 42.733 48.4313L43.7838 48.4409Z" fill="#2A2A2A"/>
<path d="M29.4348 1.39272V1.45847C29.7589 1.45847 30.0818 1.47217 30.4046 1.47217H35.6163L35.6754 1.39546L29.4348 1.39272Z" fill="#EFE7DA"/>
<path d="M35.6175 1.47142H30.4058C30.083 1.47142 29.7601 1.46183 29.436 1.45772H27.6241V12.6342L18.6539 13.5931V1.781H10.6618V31.8433H18.6292V21.512L27.4826 20.6011V31.7611L35.4499 31.9214V28.6626C35.4829 23.4097 35.5173 18.1587 35.553 12.9095C35.574 9.09407 35.5956 5.28137 35.6175 1.47142Z" fill="#029B8B"/>
<path d="M100.893 24.3846C100.942 23.412 100.99 22.4545 101.044 21.4093L112.267 21.6189C112.278 21.4655 112.289 21.3751 112.291 21.2847C112.319 20.4135 112.338 19.5423 112.375 18.6724C112.42 17.5903 112.478 16.5095 112.536 15.4273C112.569 14.8314 112.611 14.2355 112.65 13.6273C112.528 13.6095 112.477 13.5972 112.425 13.5958C111.025 13.5675 109.625 13.5401 108.224 13.5136C106.54 13.4849 104.856 13.4671 103.171 13.4273C102.637 13.4164 102.104 13.3534 101.533 13.3109C101.595 12.1109 101.658 10.8973 101.721 9.66989C101.815 9.68965 101.911 9.70384 102.007 9.71236C103.177 9.74113 104.342 9.76031 105.519 9.79729C106.955 9.84249 108.391 9.90413 109.827 9.95756C110.539 9.98495 111.25 10.0028 111.96 10.0411C112.784 10.085 113.617 10.148 114.445 10.1987C114.55 10.1987 114.654 10.1904 114.779 10.185V2.11802H113.175C111.572 2.09336 109.969 2.06642 108.367 2.0372C107.183 2.01391 105.998 1.98377 104.814 1.95638L101.222 1.87556L97.7111 1.79611L94.0364 1.71392C93.9458 1.71392 93.8551 1.692 93.7246 1.67693C93.6985 2.17007 93.6628 2.67417 93.6477 3.18375C93.6147 4.33714 93.5955 5.49191 93.5639 6.64531C93.5419 7.43433 93.5103 8.22472 93.4842 9.01511C93.4293 10.5941 93.3748 12.1735 93.3208 13.7534L93.2411 16.0423C93.1861 17.6487 93.1316 19.2555 93.0776 20.8628L92.9979 23.1518C92.943 24.7316 92.8885 26.3115 92.8345 27.8914C92.8084 28.6544 92.7878 29.4187 92.7521 30.1804C92.726 30.742 92.6779 31.3009 92.6367 31.9146C92.8633 31.9625 93.0927 31.9969 93.3235 32.0173C94.7782 32.0516 96.233 32.0707 97.6877 32.1036C98.5119 32.1214 99.3265 32.157 100.147 32.1831L105.229 32.3447L107.688 32.4242C109.382 32.4789 111.076 32.5283 112.771 32.5913C113.11 32.6036 113.448 32.668 113.805 32.7104C113.996 29.9708 114.183 27.301 114.372 24.5887H113.936C112.463 24.5887 110.99 24.5969 109.518 24.5887C107.01 24.5695 104.501 24.5417 101.993 24.5052C101.621 24.4928 101.251 24.423 100.893 24.3846Z" fill="#E5BA21"/>
<path d="M77.2443 9.63279C77.2814 9.15198 77.3364 8.71637 77.3432 8.28077C77.379 6.37396 77.3982 4.46579 77.4325 2.55898C77.4325 2.26995 77.4971 1.98228 77.5342 1.66311H69.4555C69.4391 1.69188 69.4171 1.71379 69.4157 1.73708C69.3836 2.92975 69.3539 4.12287 69.3264 5.31645C69.2962 6.61916 69.2742 7.91913 69.2426 9.22184C69.2206 10.1465 69.1904 11.0697 69.1629 11.9944C69.1355 12.9469 69.1085 13.8984 69.0819 14.8491C69.0558 15.76 69.0269 16.671 69.0008 17.5888C68.9734 18.5394 68.9464 19.491 68.9198 20.4435C68.8937 21.3681 68.8649 22.2928 68.8388 23.2174C68.8113 24.1818 68.7843 25.1466 68.7577 26.1119C68.7316 27.0091 68.7783 27.9187 68.6492 28.8008C68.5695 29.3488 68.8278 29.4857 69.1987 29.6611C71.0642 30.5969 73.0372 31.3025 75.0739 31.7624C76.688 32.1195 78.3472 32.2295 79.9944 32.0884C82.7926 31.8597 85.3738 30.946 87.6211 29.2433C89.7462 27.6324 91.2628 25.5762 91.8342 22.9352C92.1062 21.6113 92.1244 20.2481 91.8878 18.9175C91.6424 17.4598 91.0864 16.0716 90.2573 14.8464C89.183 13.2245 87.7571 11.993 86.0497 11.0588C84.8054 10.3719 83.4533 9.90035 82.0509 9.66429C80.5989 9.4232 79.1249 9.35745 77.6551 9.6369C77.5183 9.64602 77.3809 9.64465 77.2443 9.63279ZM77.1358 16.9641C77.6578 16.8682 78.21 16.7011 78.7678 16.6806C80.1419 16.613 81.4891 17.0778 82.5275 17.9778C83.7377 18.9983 84.2364 20.238 83.8504 21.8024C83.5482 23.0256 82.8091 23.8982 81.7432 24.542C80.25 25.4338 78.721 25.4831 77.1702 24.7365C77.1096 24.6977 77.0587 24.6458 77.0211 24.5846C76.9835 24.5234 76.9603 24.4545 76.9531 24.3831C76.9531 23.9968 77.0136 23.6119 77.0204 23.2256C77.0548 21.1955 77.0781 19.1668 77.107 17.1367C77.1133 17.0787 77.123 17.0211 77.1358 16.9641Z" fill="#8AB03F"/>
<path d="M38.5947 9.79923C40.2431 10.8951 41.6676 12.1786 42.3132 14.1142C42.8325 15.6703 43.2872 17.247 43.7831 18.8113C44.4315 20.8497 45.0922 22.8839 45.7461 24.9194C46.0565 25.8783 46.8574 26.3523 47.7791 26.1057C48.2256 25.9825 48.6093 25.6962 48.8539 25.3039C49.0985 24.9115 49.186 24.4417 49.0992 23.9879C48.9028 22.9318 48.5086 21.9811 47.7805 21.1757C47.1431 20.4688 46.7791 19.6319 46.5607 18.71C46.1939 17.1525 45.7763 15.6059 45.3807 14.0526C45.2543 13.5526 45.3807 13.2307 45.7598 13.1348C46.1389 13.0389 46.4467 13.2622 46.5772 13.7635C46.7667 14.4923 46.9384 15.2265 47.1431 15.9552C47.1802 16.0922 47.3382 16.1881 47.4398 16.3032C47.4742 16.1552 47.5635 15.9936 47.5319 15.8607C47.2571 14.7224 46.9686 13.5896 46.6857 12.454C46.5758 12.0129 46.7159 11.7362 47.0909 11.6321C47.4659 11.528 47.7942 11.7266 47.9028 12.154C48.1569 13.1581 48.3932 14.1662 48.6583 15.1676C48.6926 15.3046 48.8492 15.4032 48.9495 15.5196C48.9852 15.3717 49.0786 15.2101 49.0484 15.0758C48.7874 13.9361 48.4879 12.8033 48.2421 11.6595C48.2008 11.4677 48.297 11.143 48.4426 11.0403C48.5488 10.9827 48.6656 10.9469 48.7859 10.9351C48.9063 10.9234 49.0278 10.9358 49.1432 10.9718C49.2806 11.0156 49.4179 11.2608 49.4619 11.4389C49.7435 12.5348 49.999 13.6306 50.2641 14.7265C50.2709 14.8069 50.2938 14.8852 50.3314 14.9566C50.4019 15.0229 50.4809 15.0795 50.5663 15.1251C50.5952 15.0334 50.6639 14.9334 50.646 14.8512C50.4894 14.1553 50.3177 13.4635 50.1501 12.7704C50.0979 12.5485 50.0457 12.3252 49.9963 12.1019C49.9001 11.6718 50.0828 11.3595 50.4757 11.28C50.8383 11.2033 51.1309 11.4101 51.2298 11.8279C51.5595 13.2156 51.8837 14.6032 52.212 15.9909C52.2409 16.1169 52.2834 16.2388 52.3494 16.4498C52.4227 16.3453 52.4901 16.237 52.5513 16.1251C52.6997 15.7936 52.826 15.4484 52.9895 15.1279C53.0737 14.9636 53.2139 14.8348 53.385 14.7647C53.5561 14.6947 53.7466 14.6879 53.9222 14.7457C54.0898 14.8075 54.2271 14.931 54.3058 15.0909C54.3845 15.2507 54.3987 15.4346 54.3453 15.6046C53.789 17.1977 53.5211 18.91 52.4977 20.314C52.2541 20.6221 52.0971 20.9892 52.0428 21.3777C51.9885 21.7663 52.0388 22.1622 52.1887 22.525C52.1948 22.537 52.199 22.5499 52.201 22.5633C52.2931 23.7578 52.9881 24.5126 53.9511 25.1523C55.1503 25.9509 56.2699 26.8714 57.4581 27.6892C57.8079 27.9047 58.2068 28.0282 58.6175 28.0481C58.8904 28.0643 59.1609 27.9899 59.3868 27.8365C59.6127 27.683 59.7813 27.4593 59.8662 27.2002C60.0283 26.7166 59.8511 26.1838 59.3744 25.8084C58.6546 25.2413 57.921 24.6893 57.1944 24.129C56.0844 23.2715 54.9717 22.4167 53.8673 21.5524C53.6818 21.4072 53.37 21.2784 53.5843 20.951C53.7382 20.714 54.05 20.7305 54.3673 20.977C56.6229 22.7345 58.8744 24.4989 61.1396 26.2454C61.4098 26.4641 61.7257 26.6195 62.0641 26.7002C63.0064 26.8851 63.7304 26.0893 63.4378 25.1742C63.311 24.8086 63.0874 24.4839 62.7908 24.2345C60.5929 22.4058 58.3675 20.6072 56.1545 18.7963C56.0418 18.7031 55.8797 18.599 55.8619 18.4798C55.8227 18.2953 55.8583 18.1028 55.9608 17.9442C56.0473 17.847 56.2946 17.8579 56.4622 17.8799C56.5666 17.8936 56.66 18.0168 56.7534 18.0894C58.6766 19.6798 60.5997 21.2757 62.5229 22.8551C62.7705 23.0578 63.0585 23.2058 63.3677 23.2893C63.5605 23.3394 63.7645 23.3239 63.9474 23.2452C64.1303 23.1666 64.2816 23.0293 64.3774 22.8551C64.6878 22.3647 64.8527 21.8387 64.5298 21.2976C64.3744 21.046 64.1802 20.8204 63.9543 20.6291C61.8974 18.841 59.8369 17.0602 57.7727 15.2868C57.6806 15.2073 57.5845 15.1333 57.4979 15.0498C57.2562 14.8169 57.2232 14.5019 57.4348 14.3005C57.6738 14.069 57.8949 14.1635 58.112 14.3498C59.4857 15.5306 60.8594 16.7059 62.222 17.8894C62.8704 18.4511 63.2839 18.5114 63.7867 18.0881C64.4199 17.5552 64.5862 16.7607 64.1617 16.1388C63.979 15.8889 63.7699 15.6593 63.538 15.4539C60.8539 12.9485 58.0433 10.5951 55.1586 8.33077C53.8728 7.31984 52.3837 6.87327 50.8205 6.56917C49.9468 6.39931 49.0759 6.21712 48.2105 6.01302C47.3155 5.79782 46.4713 5.41019 45.7255 4.87195C45.2309 4.52127 44.7295 4.18703 44.2309 3.83773C44.1569 3.80607 44.0848 3.76993 44.0152 3.72951C43.2611 3.23774 43.349 3.38431 42.9383 3.90485C41.5371 5.68563 40.1291 7.45271 38.7403 9.2376C38.6249 9.37458 38.6372 9.60882 38.5947 9.79923Z" fill="#EFE7DA"/>
<path d="M94.797 45.247L99.5939 41.1211C99.6562 42.4489 99.7189 43.8068 99.7821 45.1949C99.7258 45.1949 99.6447 45.2141 99.5513 45.2182C99.1694 45.2388 98.8892 45.4168 98.8329 45.8004C98.7569 46.2067 98.7365 46.6215 98.7724 47.0332C98.802 47.1533 98.857 47.2657 98.9338 47.3628C99.0106 47.46 99.1073 47.5395 99.2175 47.5962C100.248 48.0798 101.33 48.0784 102.417 47.8113C102.589 47.7651 102.745 47.6735 102.869 47.5463C102.994 47.419 103.081 47.2607 103.123 47.088C103.158 47 103.182 46.908 103.194 46.8141C103.292 45.4949 103.145 45.3525 102.016 45.2442C102.376 42.8717 102.2 40.4978 102.016 38.1389C102.047 38.117 102.06 38.1006 102.069 38.1019C103.009 38.217 103.336 37.7472 103.146 36.7321C102.966 35.7732 102.745 35.5157 101.782 35.4595C101.057 35.4207 100.329 35.4574 99.6118 35.5691C98.9854 35.665 98.7876 35.9705 98.7395 36.6047C98.7214 36.7923 98.715 36.9808 98.7202 37.1691C98.7491 37.8417 98.9524 38.0663 99.6049 38.1814L94.8533 42.495C94.786 40.9882 94.7228 39.5649 94.6596 38.1307C94.6679 38.1307 94.6898 38.1019 94.7132 38.1006C95.6885 38.0745 95.8382 37.917 95.7545 36.9417C95.7203 36.6759 95.6642 36.4134 95.5869 36.1568C95.5475 35.9844 95.4551 35.8287 95.3226 35.7113C95.1901 35.5939 95.0241 35.5207 94.8478 35.502C93.871 35.3513 92.8727 35.4225 91.9274 35.7102C91.5647 35.813 91.4631 36.1376 91.3861 36.4513C91.3456 36.6495 91.3276 36.8517 91.3326 37.054C91.3202 37.8513 91.5991 38.1499 92.4521 38.1882C92.1849 40.5093 92.1849 42.8533 92.4521 45.1744C91.5743 45.2757 91.4727 45.3922 91.4562 46.2702C91.4301 47.5606 91.5936 47.7675 92.8862 47.8743C93.5286 47.9339 94.1752 47.9339 94.8176 47.8743C95.4193 47.8113 95.6995 47.436 95.7531 46.8346C95.7684 46.6602 95.7721 46.4849 95.7641 46.31C95.7311 45.4442 95.6198 45.3237 94.797 45.247ZM79.9983 37.5211C79.5395 38.6293 77.8224 39.4786 76.0009 39.469V37.7978C77.3539 37.7184 77.2372 37.4526 77.2207 36.3225C77.2207 35.6623 77.1712 35.5746 76.5187 35.5458C75.2137 35.4883 73.9087 35.502 72.5969 35.4979C72.1848 35.4979 71.9966 35.7431 72.0007 36.1458V36.8732C72.0131 37.5157 72.1175 37.6403 72.7535 37.7472C72.9436 37.7698 73.1348 37.7827 73.3263 37.7855C73.3263 38.928 73.3112 40.0676 73.3263 41.2101C73.3414 42.3525 73.395 43.495 73.4321 44.6484C73.2384 44.6484 73.02 44.6401 72.8002 44.6484C72.2507 44.6744 71.8743 44.9319 71.8235 45.4703C71.7768 46.1235 71.7809 46.7793 71.8358 47.4319C71.8345 47.5174 71.8513 47.6023 71.885 47.681C71.9188 47.7597 71.9688 47.8304 72.0317 47.8886C72.0947 47.9467 72.1693 47.991 72.2505 48.0185C72.3318 48.046 72.418 48.0562 72.5035 48.0483C73.27 48.0401 74.0365 48.0287 74.803 48.014C75.1821 48.0072 75.3648 47.8182 75.3319 47.4319C75.3328 47.3292 75.3406 47.2267 75.3552 47.125C76.1094 47.3647 76.8361 47.6045 77.5682 47.8264C77.8909 47.9215 78.2183 48.0001 78.549 48.062C79.6068 48.2716 80.4914 47.9346 81.1247 47.0894C81.9198 46.0667 82.2849 44.7757 82.1426 43.4895C82.0203 42.3375 81.2813 41.5813 80.4228 40.9115C80.1906 40.7306 79.9378 40.5772 79.6974 40.4128C80.4626 39.8197 81.2209 39.2375 81.9709 38.6444C82.2253 38.4439 82.4684 38.2294 82.6989 38.0019C82.9654 37.7376 83.1756 37.4266 83.6482 37.4883C83.7855 37.5061 84.0603 37.2677 84.0891 37.1157C84.1468 36.7219 84.1468 36.3218 84.0891 35.928C84.0726 35.8006 83.8487 35.6267 83.6976 35.602C82.4329 35.3705 81.1366 35.3705 79.8719 35.602C79.5257 35.6705 79.3719 35.8951 79.2936 36.1965C79.1906 36.5951 79.1178 37.0184 79.4186 37.3472C79.5395 37.48 79.8046 37.4705 79.9983 37.5211ZM75.7124 43.2306C75.7014 42.1443 76.3017 41.5525 77.3155 41.6498C78.6795 41.7868 79.7963 43.2758 79.5244 44.6059C79.3348 45.5388 78.5518 46.025 77.6218 45.7894C76.5503 45.5182 75.7234 44.41 75.7124 43.2306ZM60.6389 38.3691C60.3807 40.7553 60.3299 43.1292 60.7983 45.5374L60.4054 45.4812C59.7721 45.3908 59.5015 45.5949 59.4328 46.2333C59.4075 46.4474 59.4033 46.6635 59.4205 46.8784C59.4672 47.4264 59.676 47.6812 60.2158 47.7921C62.2586 48.1971 64.3482 48.3142 66.4235 48.1401C67.5609 48.0551 68.686 47.8058 69.8165 47.6319C69.9177 47.629 70.0136 47.5863 70.0834 47.5132C70.1531 47.44 70.191 47.3424 70.1888 47.2415C70.2094 46.6798 70.3056 46.1072 70.2286 45.5593C70.1119 44.7292 69.6723 44.4634 68.8549 44.673C68.4841 44.7675 68.1393 44.9758 67.7958 45.1579C67.753 45.1918 67.7192 45.2356 67.6972 45.2855C67.6751 45.3354 67.6656 45.3899 67.6695 45.4442C67.7903 45.8935 67.5211 45.9922 67.1777 46.0086C66.37 46.0346 65.5609 46.0497 64.7518 46.0456C64.3671 46.0456 63.9825 45.9867 63.558 45.9524V42.8018H65.1226C65.2985 43.5046 65.2985 43.5155 66.021 43.4991C67.0499 43.4758 67.131 43.5566 67.2903 42.306C67.3309 41.8121 67.3096 41.3152 67.2271 40.8265C67.1749 40.395 66.8906 40.1731 66.4386 40.1909H65.9936C65.3314 40.1909 65.3067 40.2183 65.0883 40.843L63.3643 40.7485C63.2929 39.8142 63.2091 38.8923 63.1693 37.9704C63.1693 37.854 63.3657 37.6609 63.5072 37.6184C64.4102 37.3319 65.3618 37.2294 66.3054 37.317C66.6667 37.354 67.0211 37.4431 67.381 37.4992C67.6241 37.5362 67.7574 37.6458 67.6722 37.9102C67.587 38.1745 67.7148 38.2773 67.9126 38.3869C68.4525 38.6896 69.0115 38.9348 69.6393 38.743C69.8097 38.6914 69.9559 38.5806 70.0514 38.4307C70.4635 37.6485 70.3083 36.8321 70.1284 36.0267C70.1064 35.9308 69.947 35.8267 69.833 35.7993C69.1022 35.6171 68.3755 35.376 67.6351 35.3034C65.2804 35.0557 62.9022 35.1494 60.5744 35.5815C60.132 35.665 59.6526 35.7102 59.4754 36.2664C59.3752 36.567 59.3365 36.8846 59.3618 37.2004C59.387 37.5162 59.4757 37.8237 59.6224 38.1047C59.6876 38.1892 59.7831 38.2452 59.8889 38.2608C60.1293 38.3102 60.3683 38.3321 60.6389 38.3691ZM26.8504 35.2609C25.2143 35.2705 23.8558 35.6595 22.7692 36.7458C21.5713 37.943 21.2389 39.4416 21.5136 41.0348C22.0205 44.0484 23.5549 46.362 26.4658 47.5853C27.7297 48.1369 29.151 48.2137 30.4673 47.8017C32.1047 47.2921 32.9152 46.0319 33.2284 44.4607C33.749 41.8813 33.0979 39.5293 31.499 37.4746C30.3052 35.9513 28.6444 35.2801 26.8504 35.2609ZM24.1319 40.5389C24.1319 39.8635 24.239 39.2225 24.6264 38.654C25.3806 37.5485 26.8875 37.2842 28.2049 38.0266C29.8849 38.969 31.1294 41.4334 30.8822 43.3457C30.7063 44.7347 29.7928 45.5374 28.3903 45.5292C27.5591 45.529 26.7551 45.2338 26.1224 44.6963C24.8173 43.6169 24.2061 42.2032 24.1319 40.5389ZM14.31 43.3032H15.8321C15.9914 43.9196 16.0216 43.9443 16.6563 43.9881C17.5753 44.058 17.905 43.8388 17.9558 42.9361C17.9915 42.3142 17.8734 41.6827 17.8033 41.0567C17.7731 40.7827 17.5808 40.6375 17.3033 40.6224C17.0876 40.6101 16.872 40.5978 16.6563 40.5964C16.0395 40.5964 15.9557 40.6553 15.7579 41.2224H14.2468V37.8759H14.7798C15.3513 37.8759 15.4282 37.8252 15.4667 37.2458C15.4962 36.7756 15.499 36.304 15.4749 35.8335C15.4646 35.766 15.4383 35.702 15.3981 35.6467C15.358 35.5915 15.3052 35.5465 15.2441 35.5157C14.8499 35.3897 14.4405 35.228 14.0367 35.2267C13.1076 35.2216 12.179 35.2674 11.255 35.3637C10.6505 35.428 10.5887 35.5376 10.5283 36.1349C10.4802 36.602 10.4843 37.0746 10.4555 37.5444C10.4404 37.7841 10.5448 37.8883 10.7783 37.8992C11.086 37.9115 11.3937 37.9348 11.6025 37.9485C11.652 40.4868 11.7014 43.0087 11.7509 45.5374C11.6011 45.51 11.4047 45.4812 11.2096 45.4388C10.8387 45.3579 10.6038 45.5251 10.5901 45.8757C10.5729 46.3956 10.5977 46.916 10.6643 47.4319C10.6808 47.5688 10.8992 47.7442 11.0503 47.7729C11.8745 47.9318 12.6987 48.1264 13.5229 48.1675C15.8043 48.2881 18.0919 48.1344 20.3364 47.7099C21.0741 47.573 20.9381 47.7469 21.0823 46.91C21.1853 46.3031 21.1977 45.7072 20.9449 45.1292C20.8295 44.8648 20.6702 44.7045 20.3652 44.7264C19.9641 44.7552 19.552 44.7456 19.1688 44.8456C18.8295 44.9347 18.5808 45.1771 18.6948 45.6045C18.8006 45.999 18.4627 45.9935 18.2553 46.0059C17.5025 46.0511 16.7442 46.0579 15.9914 46.073C15.8444 46.073 15.6961 46.0483 15.5477 46.0374C14.6397 45.9716 14.8073 46.1018 14.615 45.2223C14.4817 44.5908 14.4117 43.9498 14.31 43.3032ZM53.2732 45.9483C53.3309 43.3457 53.4917 40.7868 53.2032 38.1965C53.3743 38.153 53.5483 38.1219 53.7238 38.1033C54.1648 38.0814 54.3365 37.8499 54.3172 37.4266C54.3008 37.0499 54.3172 36.6732 54.298 36.2965C54.3 36.1317 54.2423 35.9718 54.1356 35.846C54.0288 35.7202 53.8802 35.637 53.7169 35.6116C52.5961 35.3452 51.4282 35.3452 50.3074 35.6116C50.1382 35.6403 49.9852 35.7294 49.8768 35.8621C49.7684 35.9949 49.712 36.1624 49.7181 36.3335C49.7058 36.7444 49.7181 37.1417 49.7099 37.5458C49.703 37.8937 49.883 38.054 50.2127 38.0937C50.4119 38.117 50.6097 38.1581 50.8143 38.1924C50.53 40.7663 50.6866 43.332 50.7457 45.9566C50.1357 45.91 49.5464 45.884 48.9599 45.8072C48.8349 45.7908 48.6851 45.6141 48.6316 45.4785C48.273 44.5689 47.5161 44.2018 46.571 44.5004C45.7468 44.7593 45.6987 44.7744 45.6905 45.6415C45.6905 46.2428 45.7894 46.8442 45.8485 47.4456C45.8677 47.6497 45.9762 47.7195 46.1919 47.7373C49.911 48.0301 53.6474 48.0324 57.3668 47.7442C57.5948 47.7264 57.8243 47.7209 58.0894 47.7072C58.3471 46.8301 58.4044 45.9066 58.257 45.0045C58.2508 44.9591 58.2354 44.9154 58.2118 44.8761C58.1882 44.8368 58.1568 44.8026 58.1196 44.7758C57.4492 44.4497 56.772 44.2278 56.0316 44.5963C55.8686 44.6769 55.7269 44.7947 55.6181 44.9401C55.5093 45.0856 55.4363 45.2545 55.4052 45.4333C55.3882 45.5523 55.3269 45.6607 55.2335 45.7368C55.1401 45.8129 55.0215 45.8513 54.9011 45.8442C54.3791 45.8757 53.8543 45.9113 53.2732 45.9483ZM88.2981 38.143C88.622 38.109 88.9433 38.0531 89.2597 37.9759C89.325 37.944 89.3812 37.8961 89.423 37.8367C89.4648 37.7773 89.4908 37.7083 89.4987 37.6362C89.4163 37.0129 89.2981 36.3938 89.1745 35.776C89.1566 35.7303 89.1279 35.6897 89.0908 35.6575C89.0537 35.6253 89.0094 35.6025 88.9616 35.591C87.8049 35.4938 86.6483 35.4226 85.4944 35.6527C85.1977 35.7116 85.0356 35.8595 85.026 36.1609C85.0122 36.617 85.004 37.0732 84.9944 37.5307C84.9944 37.854 85.1317 38.0239 85.4669 38.054C85.6771 38.0745 85.879 38.1266 86.1249 38.1704C85.8543 40.5092 85.8543 42.8712 86.1249 45.21C85.8502 45.262 85.6235 45.3237 85.3873 45.347C85.3333 45.3464 85.2798 45.3573 85.2304 45.379C85.181 45.4007 85.1369 45.4326 85.1009 45.4727C85.0648 45.5127 85.0378 45.56 85.0216 45.6113C85.0053 45.6626 85.0003 45.7168 85.0067 45.7703C85.0067 46.2538 85.0163 46.7291 85.026 47.2195C85.0205 47.2909 85.0298 47.3627 85.0533 47.4304C85.0768 47.4981 85.114 47.5602 85.1625 47.613C85.211 47.6658 85.27 47.7081 85.3355 47.7372C85.4011 47.7664 85.472 47.7818 85.5439 47.7825C86.401 47.8442 87.2651 47.9442 88.1195 47.9003C89.2185 47.8455 89.2102 47.7921 89.4149 46.7154C89.4563 46.5178 89.4861 46.3179 89.5042 46.1168C89.5523 45.4525 89.4424 45.3319 88.7583 45.2949C88.6127 45.2853 88.4657 45.2949 88.2953 45.2949C88.6594 42.8827 88.4931 40.5128 88.2981 38.143Z" fill="#2A2A2A"/>
</svg>
