<svg width="120" height="56" fill="none" xmlns="http://www.w3.org/2000/svg"><path d="M38.594 9.796c-.806 1.466-1.415 3.014-1.679 4.657a14.987 14.987 0 0 0-.12 3.828c.17 1.78.674 3.513 1.49 5.106a16.181 16.181 0 0 0 3.658 4.718 15.743 15.743 0 0 0 3.647 2.45c1.374.665 2.79 1.208 4.319 1.37 1.074.114 2.158.265 3.23.224a14.516 14.516 0 0 0 5.052-1.09 16.348 16.348 0 0 0 6.033-4.281 14.82 14.82 0 0 0 2.64-15.664 16.166 16.166 0 0 0-4.455-6.012 16.226 16.226 0 0 0-6.69-3.37c-.631-.144-1.285-.174-1.924-.262a.897.897 0 0 1-.202-.08h-2.19c-.303.054-.604.124-.91.157-2.213.234-4.21 1.056-6.094 2.192a1.913 1.913 0 0 1-.176.087c.499.344 1 .685 1.495 1.034.746.539 1.59.926 2.485 1.142.865.204 1.736.386 2.61.556 1.563.304 3.052.75 4.338 1.761 2.885 2.269 5.7 4.622 8.38 7.123.231.206.44.435.623.685.425.622.258 1.417-.375 1.95-.503.423-.916.363-1.565-.2-1.366-1.183-2.74-2.358-4.11-3.539-.217-.187-.438-.28-.677-.049-.207.2-.178.516.063.75.088.083.184.157.275.236a3479 3479 0 0 1 6.182 5.343c.226.19.42.417.575.668.323.541.158 1.067-.152 1.558a.893.893 0 0 1-1.01.434 2.267 2.267 0 0 1-.845-.434c-1.932-1.58-3.846-3.176-5.77-4.766-.093-.078-.186-.196-.29-.21-.168-.022-.413-.032-.502.065a.714.714 0 0 0-.099.535c.02.12.18.224.293.317 2.213 1.81 4.437 3.61 6.636 5.438.297.25.52.574.647.94.294.915-.43 1.71-1.373 1.526a2.328 2.328 0 0 1-.925-.455c-2.265-1.747-4.517-3.511-6.772-5.269-.318-.246-.63-.262-.783-.026-.215.33.097.457.283.602 1.099.864 2.217 1.719 3.327 2.576.727.56 1.46 1.113 2.18 1.68.477.375.654.908.492 1.392a1.234 1.234 0 0 1-1.242.856 2.434 2.434 0 0 1-1.162-.366c-1.189-.822-2.308-1.738-3.507-2.537-.962-.64-1.658-1.394-1.75-2.589a.127.127 0 0 0-.013-.038 2.205 2.205 0 0 1 .31-2.211c1.028-1.404 1.29-3.116 1.847-4.71a.693.693 0 0 0-.423-.858.777.777 0 0 0-.933.382c-.167.32-.29.665-.438.997-.061.112-.129.22-.202.325-.063-.211-.106-.333-.137-.46-.329-1.387-.653-2.774-.983-4.162-.099-.42-.391-.626-.754-.548-.393.083-.575.396-.48.822.05.223.102.446.155.668.167.693.339 1.385.496 2.081.017.08-.051.18-.08.274a1.097 1.097 0 0 1-.235-.168.6.6 0 0 1-.067-.23c-.265-1.097-.52-2.2-.803-3.288-.045-.178-.175-.424-.318-.467a.904.904 0 0 0-.7.068c-.146.103-.243.428-.201.62.245 1.143.55 2.276.806 3.416.03.137-.063.296-.099.443-.1-.116-.257-.217-.291-.351-.265-1.002-.502-2.01-.756-3.014-.108-.428-.438-.629-.812-.522-.373.107-.515.383-.405.822.283 1.135.577 2.268.846 3.407.032.137-.057.294-.092.442-.101-.115-.26-.215-.296-.348-.205-.725-.377-1.459-.566-2.192-.13-.501-.437-.73-.818-.628-.38.101-.505.417-.379.917.396 1.551.813 3.098 1.18 4.658.219.925.583 1.761 1.22 2.466.728.805 1.122 1.756 1.319 2.812a1.835 1.835 0 0 1-1.32 2.118c-.922.246-1.723-.224-2.033-1.187-.654-2.035-1.315-4.07-1.963-6.108-.496-1.564-.951-3.14-1.47-4.697-.643-1.929-2.069-3.219-3.716-4.308z" fill="#DA2230"/><path d="M115.367 36.477c-.044-.147-.101-.29-.13-.438-.09-.487-.234-.676-.721-.685a4.855 4.855 0 0 0-1.268.18c-.137.035-.236.274-.3.43-.043.172-.065.349-.064.526-.274-.154-.508-.293-.747-.425-2.544-1.409-5.346-.56-6.546 2.09-1.116 2.466-1.055 4.989.157 7.41.868 1.73 2.289 2.765 4.322 2.602.776-.06 1.535-.338 2.335-.526.011.538.478.573.934.58.482.009.965-.01 1.445-.058.257-.028.393-.21.431-.5a6.78 6.78 0 0 0-.265-2.95.538.538 0 0 0-.369-.332 10.38 10.38 0 0 0-1.488 0c-.378.026-.549.252-.442.646a.31.31 0 0 1-.07.274c-.824.533-1.678.925-2.695.741a2.519 2.519 0 0 1-1.593-1.024c-.844-1.114-1.033-2.399-.975-3.747.048-1.127.345-2.148 1.236-2.92a2.906 2.906 0 0 1 3.97.086.69.69 0 0 1 .223.411 29.15 29.15 0 0 1 0 1.799c0 .193-.128.273-.348.287-.457.022-.91.102-1.373.137-.289.023-.388.207-.438.447-.127.61.171 1.11.804 1.297.825.245 1.661.126 2.483-.052 1.02-.222 1.079-.296 1.257-1.325l.224-1.326.011-3.635zM43.784 48.44c.55-.147.698-.525.665-1.05-.03-.497.008-.997-.017-1.494-.041-.837-.375-1.157-1.22-1.168a3.498 3.498 0 0 0-.796.102.537.537 0 0 0-.434.506.547.547 0 0 1-.31.38 4.994 4.994 0 0 1-3.023-.024c-1.05-.341-1.175-1.36-.962-2.105.138-.476.536-.674.981-.725.911-.104 1.829-.154 2.74-.252a8.361 8.361 0 0 0 1.351-.245c1.43-.398 2.124-1.439 1.974-2.914a4.651 4.651 0 0 0-1.283-2.741 4.675 4.675 0 0 0-2.7-1.378c-1.1-.157-2.153-.1-3.075.516-.137-.223-.22-.495-.401-.606-.181-.111-.49-.114-.743-.137a2.82 2.82 0 0 0-.526 0c-.606.048-.859.2-.95.79a8.81 8.81 0 0 0-.101 2.037c.069.846.316 1.06 1.178 1.096.432.02.877-.114 1.305-.22.09-.021.183-.22.19-.342.018-.315.184-.478.453-.596 1.173-.51 2.301-.535 3.352.295.147.12.278.257.389.41.556.762.33 1.487-.585 1.683-.706.152-1.448.137-2.165.253-.695.089-1.38.238-2.048.446-1.556.531-2.268 2.021-1.871 3.765.637 2.8 3.655 4.247 6.367 3.043.137-.06.267-.124.438-.203a1.056 1.056 0 0 0 .776.868l1.05.01z" fill="#2A2A2A"/><path d="M29.435 1.393v.065c.324 0 .647.014.97.014h5.211l.06-.077-6.241-.002z" fill="#EFE7DA"/><path d="M35.617 1.471h-5.211c-.323 0-.646-.01-.97-.013h-1.812v11.176l-8.97.96V1.78h-7.992v30.062h7.967V21.512l8.854-.91v11.16l7.967.16v-3.26c.033-5.252.067-10.503.103-15.752l.065-11.439z" fill="#029B8B"/><path d="m100.893 24.385.151-2.976 11.223.21c.011-.154.022-.244.024-.334.028-.872.047-1.743.084-2.613.045-1.082.103-2.163.161-3.245.033-.596.075-1.191.114-1.8-.122-.018-.173-.03-.225-.031-1.4-.028-2.8-.056-4.201-.082-1.684-.03-3.368-.047-5.053-.087-.534-.01-1.067-.074-1.638-.116l.188-3.641c.094.02.19.034.286.042 1.17.03 2.335.048 3.512.085 1.436.045 2.872.107 4.308.16.712.028 1.423.046 2.133.084.824.044 1.657.107 2.485.158.105 0 .209-.009.334-.014V2.118h-1.604c-1.603-.025-3.206-.052-4.808-.08-1.184-.024-2.369-.054-3.553-.082l-3.592-.08-3.51-.08-3.676-.082c-.09 0-.18-.022-.311-.037-.026.493-.062.997-.077 1.507-.033 1.153-.052 2.308-.084 3.461-.022.79-.054 1.58-.08 2.37-.055 1.58-.11 3.159-.163 4.738l-.08 2.29c-.055 1.606-.11 3.213-.163 4.82l-.08 2.289c-.055 1.58-.11 3.16-.163 4.74-.027.762-.047 1.527-.083 2.288-.026.562-.074 1.12-.115 1.735.226.047.456.082.686.102 1.455.035 2.91.054 4.365.087.824.017 1.638.053 2.459.08l5.082.16 2.459.08c1.694.055 3.388.104 5.083.167.339.013.677.077 1.034.12l.567-8.122h-.436c-1.473 0-2.946.008-4.418 0-2.508-.02-5.017-.047-7.525-.084-.372-.012-.742-.082-1.1-.12z" fill="#E5BA21"/><path d="M77.244 9.633c.037-.481.092-.917.1-1.352.035-1.907.054-3.815.089-5.722 0-.29.064-.577.101-.896h-8.079c-.016.029-.038.05-.04.074a924.702 924.702 0 0 0-.089 3.58c-.03 1.302-.052 2.602-.083 3.905-.022.925-.053 1.848-.08 2.772l-.081 2.855c-.026.911-.055 1.822-.081 2.74-.028.95-.055 1.902-.081 2.855l-.081 2.773-.081 2.895c-.026.897.02 1.807-.109 2.689-.08.548.179.685.55.86a25.755 25.755 0 0 0 5.875 2.101c1.614.358 3.273.468 4.92.326 2.799-.228 5.38-1.142 7.627-2.845 2.125-1.61 3.642-3.667 4.213-6.308.272-1.324.29-2.687.054-4.017a10.321 10.321 0 0 0-1.63-4.072c-1.075-1.621-2.5-2.853-4.208-3.787a12.603 12.603 0 0 0-4-1.395c-1.451-.24-2.925-.307-4.395-.027-.137.009-.274.008-.41-.004zm-.108 7.331c.522-.096 1.074-.263 1.632-.283a5.34 5.34 0 0 1 3.76 1.297c1.21 1.02 1.708 2.26 1.322 3.824-.302 1.224-1.04 2.096-2.107 2.74-1.493.892-3.022.941-4.573.194a.476.476 0 0 1-.217-.353c0-.386.06-.771.067-1.157.035-2.03.058-4.06.087-6.09.006-.057.016-.115.029-.172z" fill="#8AB03F"/><path d="M38.595 9.8c1.648 1.095 3.073 2.379 3.718 4.314.52 1.556.974 3.133 1.47 4.697.648 2.039 1.31 4.073 1.963 6.108.31.96 1.111 1.433 2.033 1.187a1.836 1.836 0 0 0 1.32-2.118c-.196-1.056-.59-2.007-1.318-2.812-.638-.707-1.002-1.544-1.22-2.466-.367-1.558-.785-3.104-1.18-4.657-.127-.5 0-.822.379-.918.379-.096.687.127.817.629.19.728.361 1.463.566 2.191.037.137.195.233.297.348.034-.148.123-.31.092-.442-.275-1.139-.563-2.271-.846-3.407-.11-.441.03-.718.405-.822.375-.104.703.095.812.522.254 1.004.49 2.012.755 3.014.035.137.191.235.291.352.036-.148.13-.31.1-.444-.262-1.14-.561-2.273-.807-3.417-.041-.191.055-.516.2-.619a.906.906 0 0 1 .701-.068c.138.044.275.289.319.467.281 1.096.537 2.192.802 3.287.007.08.03.16.067.23.07.067.15.123.235.17.03-.093.098-.193.08-.275-.157-.696-.328-1.388-.496-2.08a51.551 51.551 0 0 1-.154-.67c-.096-.43.087-.742.48-.821.362-.077.655.13.754.548.33 1.388.654 2.775.982 4.163.029.126.071.248.137.459.074-.105.141-.213.202-.325.149-.331.275-.677.438-.997a.774.774 0 0 1 .933-.382.695.695 0 0 1 .423.859c-.556 1.593-.824 3.305-1.847 4.709a2.208 2.208 0 0 0-.31 2.211c.007.012.011.025.013.038.092 1.195.787 1.95 1.75 2.59 1.2.798 2.319 1.718 3.507 2.536.35.216.749.34 1.16.36a1.239 1.239 0 0 0 1.248-.849c.162-.483-.015-1.016-.492-1.392-.72-.567-1.453-1.119-2.18-1.679-1.11-.858-2.222-1.712-3.327-2.577-.185-.145-.497-.274-.283-.601.154-.237.466-.22.783.026 2.256 1.758 4.507 3.522 6.773 5.268.27.22.586.374.924.455.942.185 1.666-.61 1.374-1.526a2.147 2.147 0 0 0-.647-.94c-2.198-1.828-4.423-3.627-6.636-5.438-.113-.093-.275-.197-.293-.316a.713.713 0 0 1 .099-.536c.086-.097.334-.086.501-.064.105.014.198.137.291.21 1.924 1.59 3.847 3.186 5.77 4.765.247.203.535.35.845.434a.896.896 0 0 0 1.01-.434c.31-.49.475-1.016.152-1.557a2.813 2.813 0 0 0-.576-.669 1399.833 1399.833 0 0 0-6.181-5.342c-.092-.08-.189-.154-.275-.237-.242-.233-.275-.548-.063-.75.239-.231.46-.136.677.05 1.374 1.18 2.747 2.356 4.11 3.54.648.561 1.062.621 1.565.198.633-.533.8-1.327.375-1.95a4.324 4.324 0 0 0-.624-.684c-2.684-2.506-5.495-4.859-8.38-7.123-1.285-1.011-2.774-1.458-4.337-1.762a67.41 67.41 0 0 1-2.61-.556 7.071 7.071 0 0 1-2.486-1.141c-.494-.35-.995-.685-1.494-1.034a1.982 1.982 0 0 1-.216-.108c-.754-.492-.666-.346-1.077.175-1.4 1.78-2.809 3.548-4.198 5.333-.115.137-.103.37-.145.561z" fill="#EFE7DA"/><path d="m94.797 45.247 4.797-4.126c.062 1.328.125 2.686.188 4.074-.056 0-.137.02-.23.023-.383.02-.663.199-.72.582a4.554 4.554 0 0 0-.06 1.233.865.865 0 0 0 .445.563c1.031.484 2.113.482 3.2.215a.99.99 0 0 0 .706-.723c.035-.088.059-.18.071-.274.098-1.32-.049-1.462-1.178-1.57.36-2.372.184-4.746 0-7.105.031-.022.044-.038.053-.037.94.115 1.267-.355 1.077-1.37-.18-.959-.401-1.216-1.364-1.273a10.472 10.472 0 0 0-2.17.11c-.627.096-.824.401-.872 1.036a4.565 4.565 0 0 0-.02.564c.03.673.232.897.885 1.012l-4.752 4.314-.193-4.364c.008 0 .03-.03.053-.03.976-.026 1.125-.184 1.041-1.16a4.88 4.88 0 0 0-.167-.784.847.847 0 0 0-.74-.655 6.583 6.583 0 0 0-2.92.208c-.362.103-.464.428-.54.741-.041.199-.06.4-.054.603-.013.797.266 1.096 1.12 1.134a30.544 30.544 0 0 0 0 6.986c-.879.102-.98.218-.997 1.096-.026 1.29.138 1.497 1.43 1.604.643.06 1.29.06 1.932 0 .601-.063.882-.438.935-1.04.015-.174.02-.35.011-.524-.033-.866-.144-.986-.967-1.063zm-14.799-7.726c-.459 1.108-2.176 1.958-3.997 1.948v-1.671c1.353-.08 1.236-.345 1.22-1.476 0-.66-.05-.747-.702-.776-1.305-.058-2.61-.044-3.922-.048-.412 0-.6.245-.596.648v.727c.012.643.117.767.752.874.19.023.382.036.573.038 0 1.143-.015 2.283 0 3.425s.069 2.285.106 3.438c-.194 0-.412-.008-.632 0-.55.026-.926.284-.977.822-.046.654-.042 1.31.013 1.962a.61.61 0 0 0 .668.616c.766-.008 1.532-.02 2.299-.034.38-.007.562-.196.529-.582 0-.103.009-.205.023-.307.754.24 1.481.48 2.213.701.323.096.65.174.981.236 1.058.21 1.942-.127 2.576-.973a4.974 4.974 0 0 0 1.018-3.6c-.123-1.151-.862-1.908-1.72-2.578-.232-.18-.485-.334-.726-.498.766-.593 1.524-1.175 2.274-1.769.254-.2.497-.415.728-.642.266-.264.477-.575.95-.514.136.018.411-.22.44-.372a4.096 4.096 0 0 0 0-1.188c-.016-.127-.24-.301-.391-.326a10.624 10.624 0 0 0-3.826 0c-.346.069-.5.293-.578.595-.103.398-.176.821.125 1.15.12.133.386.123.58.174zm-4.286 5.71c-.01-1.087.59-1.678 1.603-1.581 1.365.137 2.481 1.626 2.21 2.956-.19.933-.973 1.419-1.903 1.183-1.072-.27-1.899-1.379-1.91-2.558zM60.64 38.369c-.258 2.386-.31 4.76.16 7.168l-.394-.056c-.633-.09-.904.114-.972.752-.026.214-.03.43-.013.645.047.548.256.803.796.914 2.043.405 4.132.522 6.208.348 1.137-.085 2.262-.334 3.392-.508a.384.384 0 0 0 .373-.39c.02-.562.117-1.135.04-1.683-.117-.83-.557-1.096-1.374-.886-.37.094-.716.303-1.06.485a.335.335 0 0 0-.126.286c.121.45-.148.548-.491.565-.808.026-1.617.04-2.426.037-.385 0-.77-.06-1.194-.094v-3.15h1.565c.175.703.175.714.898.697 1.029-.023 1.11.058 1.27-1.193.04-.494.019-.99-.064-1.48-.052-.431-.336-.653-.788-.635h-.445c-.663 0-.687.027-.906.652l-1.724-.095c-.071-.934-.155-1.856-.195-2.778 0-.116.197-.31.338-.352a7.087 7.087 0 0 1 2.798-.301c.362.037.716.126 1.076.182.243.037.376.147.291.411-.085.265.043.367.24.477.54.303 1.1.548 1.727.356a.744.744 0 0 0 .412-.312c.412-.782.257-1.599.077-2.404-.022-.096-.181-.2-.295-.228-.73-.182-1.457-.423-2.198-.496a24.592 24.592 0 0 0-7.06.279c-.443.083-.922.128-1.1.684a2.358 2.358 0 0 0 .147 1.839c.066.084.161.14.267.156.24.05.48.071.75.108zM26.85 35.261c-1.636.01-2.994.398-4.08 1.485-1.199 1.197-1.531 2.696-1.256 4.289.506 3.013 2.04 5.327 4.952 6.55a5.728 5.728 0 0 0 4.001.217c1.638-.51 2.448-1.77 2.761-3.341.521-2.58-.13-4.932-1.729-6.986-1.194-1.524-2.855-2.195-4.649-2.214zm-2.718 5.278c0-.675.107-1.317.494-1.885.755-1.106 2.261-1.37 3.579-.627 1.68.942 2.924 3.406 2.677 5.319-.176 1.389-1.09 2.191-2.492 2.183a3.504 3.504 0 0 1-2.268-.833c-1.305-1.08-1.916-2.493-1.99-4.157zm-9.822 2.764h1.522c.16.617.19.641.824.685.92.07 1.249-.15 1.3-1.052.035-.622-.083-1.253-.153-1.88-.03-.273-.222-.418-.5-.434-.215-.012-.431-.024-.647-.026-.616 0-.7.06-.898.626h-1.511v-3.346h.533c.571 0 .648-.05.687-.63.03-.47.032-.942.008-1.413a.427.427 0 0 0-.23-.317c-.395-.126-.804-.288-1.208-.29-.93-.004-1.858.041-2.782.138-.605.064-.666.174-.727.77-.048.468-.044.94-.072 1.41-.016.24.089.344.322.355.308.012.616.036.824.05l.149 7.588c-.15-.027-.346-.056-.541-.098-.371-.081-.606.086-.62.437a9.66 9.66 0 0 0 .074 1.556c.017.137.235.312.386.34.824.16 1.649.354 2.473.395 2.281.121 4.569-.033 6.813-.457.738-.137.602.037.746-.8.103-.607.116-1.203-.137-1.78-.116-.265-.275-.425-.58-.404-.4.03-.813.02-1.196.12-.34.089-.588.331-.474.759.106.394-.232.389-.44.4-.752.046-1.51.053-2.264.068-.147 0-.295-.025-.443-.036-.908-.065-.74.065-.933-.815-.133-.631-.203-1.272-.305-1.919zm38.963 2.645c.058-2.602.219-5.161-.07-7.752.171-.043.345-.074.52-.093.442-.022.614-.253.594-.676-.016-.377 0-.754-.019-1.13a.684.684 0 0 0-.581-.685 7.373 7.373 0 0 0-3.41 0 .71.71 0 0 0-.589.721c-.012.411 0 .809-.008 1.213-.007.348.173.508.503.548.199.023.397.064.601.098-.284 2.574-.127 5.14-.068 7.765-.61-.047-1.2-.073-1.786-.15-.125-.016-.275-.193-.328-.329-.359-.91-1.116-1.276-2.061-.978-.824.26-.872.274-.88 1.142 0 .6.098 1.202.157 1.804.02.204.128.273.344.291 3.719.293 7.455.295 11.175.007.228-.018.457-.023.722-.037.258-.877.315-1.8.168-2.703a.338.338 0 0 0-.137-.228c-.67-.326-1.348-.548-2.088-.18a1.157 1.157 0 0 0-.627.837.479.479 0 0 1-.504.411c-.522.032-1.047.067-1.628.104zm35.025-7.805a7.25 7.25 0 0 0 .962-.167.431.431 0 0 0 .239-.34c-.083-.623-.2-1.242-.325-1.86a.303.303 0 0 0-.212-.185c-1.157-.097-2.314-.168-3.468.062-.296.059-.458.206-.468.508-.014.456-.022.912-.032 1.37 0 .323.138.493.473.523.21.02.412.073.658.116-.27 2.34-.27 4.701 0 7.04-.275.052-.501.114-.738.137a.38.38 0 0 0-.38.423c0 .484.01.96.019 1.45a.521.521 0 0 0 .518.563c.857.061 1.721.161 2.576.117 1.099-.054 1.09-.108 1.295-1.185.041-.197.071-.397.09-.598.047-.664-.063-.785-.747-.822-.145-.01-.292 0-.463 0 .364-2.412.198-4.782.003-7.152z" fill="#2A2A2A"/></svg>