<svg width="24" height="24" viewBox="0 0 24 24" xmlns="http://www.w3.org/2000/svg">
    <path d="M12.313 0c2.943 0 5.645 1.333 7.415 3.657a9.37 9.37 0 0 1 0 11.31l-6.621 8.64a.997.997 0 0 1-1.588 0L4.9 14.97a9.371 9.371 0 0 1-.002-11.313C6.668 1.333 9.369 0 12.313 0zm0 2C10 2 7.878 3.046 6.49 4.868a7.362 7.362 0 0 0 0 8.888l5.822 7.6 5.825-7.603a7.36 7.36 0 0 0-.002-8.885C16.748 3.045 14.626 2 12.313 2zm0 3.289a3.825 3.825 0 0 1 3.821 3.822 3.825 3.825 0 0 1-3.82 3.82 3.825 3.825 0 0 1-3.822-3.82 3.825 3.825 0 0 1 3.821-3.822zm0 2a1.824 1.824 0 0 0-1.82 1.822c0 1.004.816 1.82 1.82 1.82a1.823 1.823 0 0 0 1.821-1.82 1.824 1.824 0 0 0-1.82-1.822z" fill="#448AFF" fill-rule="evenodd"/>
</svg>
