<svg width="22" height="23" fill="none" xmlns="http://www.w3.org/2000/svg"><path opacity=".4" fill-rule="evenodd" clip-rule="evenodd" d="M11.219.531C5.264.531.438 5.361.438 11.321c0 4.57 2.841 8.475 6.85 10.047-.093-.853-.178-2.163.04-3.096.194-.842 1.263-5.362 1.263-5.362s-.322-.647-.322-1.602c0-1.501.867-2.62 1.95-2.62.92 0 1.364.69 1.364 1.52 0 .925-.589 2.309-.893 3.592-.254 1.075.539 1.95 1.596 1.95 1.917 0 3.39-2.023 3.39-4.942 0-2.583-1.854-4.39-4.503-4.39-3.067 0-4.868 2.304-4.868 4.683 0 .927.356 1.922.802 2.463.088.107.1.2.075.31-.082.34-.264 1.073-.3 1.223-.047.197-.156.24-.361.145-1.346-.628-2.187-2.599-2.187-4.18 0-3.404 2.47-6.53 7.123-6.53 3.74 0 6.646 2.667 6.646 6.231 0 3.719-2.343 6.712-5.594 6.712-1.093 0-2.12-.569-2.472-1.24 0 0-.54 2.06-.671 2.565-.244.937-.901 2.111-1.34 2.828a10.72 10.72 0 0 0 3.193.482c5.954 0 10.78-4.83 10.78-10.79C22 5.36 17.174.532 11.22.532z" fill="#fff"/></svg>