<svg width="121" height="121" viewBox="0 0 121 121" fill="none" xmlns="http://www.w3.org/2000/svg">
<path fill-rule="evenodd" clip-rule="evenodd" d="M75.6937 39.8286C75.4857 40.8048 73.3324 42.4085 75.6937 42.6874C78.1254 42.6177 80.0708 44.8489 82.4321 45.6159C84.0993 43.036 85.4198 49.381 87.9903 48.3352C89.1706 47.5682 85.9757 45.1975 88.337 43.9424C89.6574 43.6635 90.9766 44.918 91.0464 45.9645C91.2555 48.0562 88.8238 47.5682 89.7963 48.8232C91.6726 50.5657 95.9097 52.7272 95.4235 53.9823C95.3544 54.2612 94.9373 54.1915 94.7294 54.2612C95.3544 54.819 95.0064 55.3071 94.7985 55.6557C93.7563 57.3988 90.7687 58.5842 90.8384 58.7236C91.1167 59.5603 92.1588 62.0001 91.7417 62.2796C91.3937 62.698 90.2825 62.2093 89.7963 61.7909L88.893 60.8851C87.9212 61.931 88.5462 63.7438 89.1021 64.7891C90.1443 67.2986 91.3944 68.6931 93.1306 70.9243C94.5202 72.5977 93.3398 74.2705 92.1589 74.6198C88.1988 75.736 86.3237 71.0644 84.2394 68.624C82.0157 71.2736 81.1827 77.4785 75.9726 75.8051C74.9304 75.1776 75.7634 73.8522 75.9726 73.1555C78.0569 69.3897 80.3485 65.5561 80.5576 61.0233L80.4176 60.8845C77.2918 61.0233 74.3745 63.0454 71.179 61.9304C69.4414 65.1377 62.0088 66.602 64.1622 70.7849C65.5517 73.5739 67.2189 75.8051 69.7203 77.8271C71.1796 79.1513 70.5533 81.3825 69.0262 81.3825C65.0662 82.2896 62.3568 77.758 59.6475 75.5959C57.6329 77.8962 58.3974 82.9862 54.4374 83.5446C53.3255 83.7538 51.7971 83.963 51.2418 82.7777C50.4773 81.7318 56.7296 70.4375 55.0624 68.972C51.2418 69.1812 46.5179 71.9702 43.8783 70.2271C43.9474 69.9488 43.7395 69.6699 44.0178 69.5304L36.8616 66.3224L36.3754 66.8111C36.3754 71.5519 38.9453 75.6657 40.196 80.1281C39.64 81.5226 38.0426 80.5464 37.2781 80.3373C34.3602 78.5244 34.9852 74.8987 33.1101 72.5977C31.1646 74.4797 29.6369 77.5489 26.5105 76.5017C25.8157 76.0834 25.2598 75.736 25.0518 74.8981C24.5656 72.4589 27.6217 71.4828 28.3171 69.5298C29.0816 67.9261 30.5402 66.1133 29.4284 64.1616C28.6639 65.1377 27.5526 66.1133 26.094 65.4166C25.3295 64.9292 27.3447 62.8362 27.6914 61.3726C26.2019 60.2813 24.9691 58.8774 24.0794 57.2594C24.6353 56.7016 24.6353 56.9108 24.3571 56.7016C24.3571 56.7016 23.1761 56.1438 23.2452 55.7951C23.3149 55.2373 26.7881 53.6337 30.4008 51.682C31.5811 49.5902 28.1777 50.8453 29.5672 48.3352C30.1922 47.1498 32.2068 46.1737 33.318 46.6617C35.3326 47.7076 31.0949 51.0544 32.8318 51.4031C35.0549 50.7755 35.7497 45.0587 37.9722 47.9168C39.3617 46.592 41.5151 46.592 42.8349 45.058C43.3211 44.2213 40.8204 43.8727 41.9316 42.5479C42.6961 41.8507 44.1547 41.0837 44.6409 41.5021C45.9608 42.8268 42.9738 44.4996 44.7101 45.337C45.266 45.6856 47.1417 43.9424 48.253 43.036C48.3918 42.8966 48.4615 42.6874 49.0175 42.8268C49.7116 42.1296 53.5328 42.4782 55.6862 42.5479C57.2837 41.5718 54.7835 39.6892 57.0751 39.5504C58.187 39.4109 59.6456 39.4806 59.6456 39.9687C59.7851 41.7119 56.7975 41.921 57.7002 42.688C61.0339 43.6642 65.4808 43.9431 65.8288 43.9431C66.1058 43.9431 66.2446 43.1761 66.4538 42.8972C66.7308 42.688 72.9831 42.4091 72.9831 42.4091C73.7482 41.0146 70.0658 39.9687 73.6785 38.9228C74.5824 38.713 75.5549 38.7828 75.6937 39.8286V39.8286ZM81.8071 45.6152C80.557 45.0574 77.8471 43.1748 75.416 43.0354C72.8455 42.8959 75.5548 40.3858 75.068 39.6886C74.3739 38.8519 73.3317 39.2005 72.8455 39.9675C72.4975 40.4556 73.8179 41.4317 73.7488 42.2684C73.6797 43.5235 66.4544 42.4079 66.3853 43.5235C66.3853 44.4996 72.5672 43.5235 73.0534 44.0115C74.5127 45.4061 69.1638 51.5419 70.552 51.8905C71.8034 52.3089 73.887 47.3584 74.3041 47.3584C74.7904 47.3584 76.0404 49.9382 76.8747 51.1235C77.2214 51.7511 78.1247 52.4483 78.68 51.5419C78.888 51.1235 77.5688 49.7988 77.0826 48.8226C76.5266 47.4281 74.8601 45.5455 76.3175 44.3602C77.0129 43.9418 80.7643 46.3125 81.5979 46.5217C82.015 46.6611 83.0572 46.2428 81.8071 45.6152ZM82.7104 46.4519C81.113 48.2648 77.5694 44.2207 76.6661 44.9877C75.6937 46.173 79.3754 50.5651 79.3754 51.5419C79.3754 52.5181 77.8471 52.5181 77.3609 52.3089C75.9029 51.6116 75.2075 50.0079 74.3054 48.7529C74.3054 48.7529 72.429 51.6813 72.0817 52.3089C71.7349 52.8667 69.7894 52.7272 69.3723 51.6813C69.1644 50.9841 73.4021 45.5455 72.4981 44.4299C72.1514 44.151 66.2459 44.4299 66.2459 44.4996C66.2459 45.3363 59.0218 44.918 58.6047 44.9877C56.729 45.2666 57.2849 49.1009 57.6323 51.1229C57.7717 51.8899 56.9382 52.5872 55.9651 52.3083C54.0203 51.7504 54.1591 49.4495 54.1591 47.7064C52.4919 48.7523 50.755 51.2624 48.5325 50.9835C48.1154 50.844 47.6989 50.3559 47.8377 49.7284C47.9772 49.3101 54.2288 45.6843 54.1591 44.3596C54.0203 43.4531 49.2964 44.3596 49.1575 43.8715C49.0187 44.4293 47.3515 45.6843 46.4482 46.521C45.8232 47.4275 45.6146 46.8697 45.6837 47.7761C45.6837 52.0991 50.2682 52.5174 48.0457 54.2606C45.6146 56.0734 44.0863 51.0532 43.5303 51.1229C43.1829 51.1229 42.2105 54.4697 41.3769 55.3064C40.821 55.934 39.8486 56.2826 39.2933 55.5156C38.7373 55.0275 42.7665 48.5437 42.2111 47.8464C41.5164 47.0097 39.0156 49.3107 37.8346 48.8923C36.9319 50.7749 35.9589 52.4477 34.8476 54.6098L37.7655 56.7016C39.8498 58.8631 36.0983 59.6998 35.9595 61.2331C35.751 62.7677 43.1145 64.7206 45.1988 68.4155C48.2555 65.9047 51.7287 66.3231 55.3413 64.1622C55.8275 62.0001 53.3959 62.4888 52.632 61.0239C52.0069 58.8631 54.1603 58.0264 55.5499 57.4686C57.0085 56.9805 59.3013 56.5621 60.2047 58.375C61.5238 60.6056 57.2868 62.2802 59.6487 63.8827C62.4969 64.7206 65.1365 63.1169 67.2208 61.0943C68.2629 60.2576 69.8604 60.4668 70.5545 61.0239C73.5421 57.8172 81.0457 57.8172 81.601 56.2135C81.9478 53.8428 80.5589 54.7493 80.0727 53.4942C79.7247 52.6575 79.9326 51.8208 80.4194 51.1235C80.9754 50.5657 83.7544 49.4501 85.2822 50.0777C84.0296 48.1253 82.7104 46.3822 82.7104 46.4519V46.4519ZM57.1461 39.9681C56.0342 40.247 57.3546 41.9901 56.4513 42.5479C55.4092 43.036 50.4767 42.7571 50.1991 42.7571C49.574 42.7571 49.4352 43.5241 49.9911 43.5938C50.6162 43.6635 55.0624 43.3846 55.0624 44.3608C53.6729 47.1498 47.0041 49.7988 48.6713 50.4269C50.5471 51.0544 54.0209 46.2434 54.7848 46.5223C55.1321 46.592 54.4374 48.5443 55.0624 50.2875C55.6184 51.9609 56.6599 51.8911 56.9382 51.6122C57.2855 51.3333 56.3131 48.0562 56.7993 45.7553C57.2855 43.4544 65.1353 45.1975 65.2044 44.3608C65.2747 43.7333 57.5632 44.0819 57.1467 42.8966C56.5217 41.3626 59.5087 41.3626 59.1613 40.1773C58.8824 39.6892 57.8409 39.6892 57.1461 39.9681ZM88.3364 44.6391C87.7805 46.5217 89.6568 48.8923 87.5034 49.1712C85.6271 49.3804 83.8908 44.2904 83.2657 45.6152C82.7795 46.5914 84.9329 48.6134 86.0442 49.8685C87.3646 51.4024 85.7659 53.9817 84.5158 55.5156C84.0987 56.0037 86.3225 57.8166 87.4343 55.3762C87.4343 55.3762 88.1982 57.0496 89.3785 55.6551C89.3785 54.1211 88.4765 51.5419 89.5877 51.3321C90.4898 51.1229 93.6853 54.1908 94.2425 53.4239C94.7985 52.6569 91.1167 50.4954 89.3094 49.2403C88.8232 48.9614 88.8232 47.7761 89.1015 47.6366C92.297 46.0336 88.6844 44.1516 88.3364 44.6391V44.6391ZM30.1231 48.474C29.7757 49.5896 31.0955 49.8685 31.3732 51.0538C31.5811 52.4483 28.6639 53.1456 26.9967 53.9823C26.0243 54.5401 23.6623 55.5162 24.2873 56.0043C26.1631 56.2832 28.3856 53.9823 30.6087 54.4006C31.0949 54.3309 29.9837 57.7468 29.3586 59.2117C29.6363 59.6998 30.1922 59.9089 30.5396 60.1872C31.4429 59.63 31.0258 57.9566 31.5811 57.8869C32.2759 57.7475 32.2759 60.7457 33.318 60.5365C34.7767 60.1181 29.9139 55.1676 34.0128 54.4013C34.0128 54.3315 35.5412 51.0544 37.1386 48.6838C37.9722 47.5682 36.7912 47.6379 36.5136 47.6379C35.4714 49.1719 33.874 52.5187 32.6233 52.0306C30.1225 51.1242 34.1516 48.1266 32.7627 47.1504C31.7206 47.1498 30.7482 47.5675 30.1231 48.474V48.474ZM82.9881 50.9841C78.0563 52.3089 82.5019 53.7725 82.6413 55.7951C82.2933 58.5835 72.1514 59.909 72.2211 61.0239C72.2211 61.8619 77.9162 60.1181 80.8347 59.9781C82.2242 59.909 82.571 61.3035 82.2242 62.4888C80.9729 65.9041 79.2366 69.1812 77.6391 72.3886C77.4312 73.2253 76.2496 74.1323 77.222 74.8981C79.8616 76.5017 82.9184 65.9744 84.2388 65.9041C85.4889 65.835 85.4889 71.2032 89.7957 73.2956C90.4898 73.6436 92.1582 74.0614 92.505 72.8773C90.4904 69.3206 86.9481 65.4857 86.6007 61.9304C87.712 58.3744 92.0188 57.3982 94.3813 54.9578C92.7142 53.2844 89.5883 57.2588 87.3652 57.5377C85.8369 57.7468 85.0717 57.3982 83.8914 56.3523C83.2664 54.9578 84.4473 53.9119 84.9335 52.7963C85.7659 51.4024 85.2106 50.4263 82.9881 50.9841V50.9841ZM89.9345 52.1694C89.5186 52.3786 89.7957 54.8887 90.0746 55.5162C90.9766 54.7499 91.8799 54.052 92.853 53.7731C91.3931 53.0759 90.0739 52.03 89.9345 52.1694V52.1694ZM29.4284 55.0979L26.5105 56.4221L28.8033 58.5138C29.1507 57.4686 29.9146 56.2135 29.4284 55.0979ZM33.5272 55.5162C32.9022 55.7951 33.3878 57.8869 34.0831 58.7933C34.8476 59.6998 34.3608 60.8851 33.8055 61.7218C30.5402 62.3493 28.7342 59.4906 26.5111 57.4686C26.0946 57.1199 23.9412 56.6319 25.7466 58.6539C27.1361 60.7457 28.4559 60.8851 30.1231 62.9078C31.9291 65.2081 31.1646 67.5794 29.9146 69.5311C28.8724 71.5531 24.8433 74.2027 26.3019 75.5972C28.3165 76.6431 29.6363 74.5513 30.9567 73.2969C31.9291 72.3898 32.1377 70.3678 33.1101 70.2987C34.2911 70.1586 34.9161 76.7831 37.3478 79.5018C37.6958 79.7801 38.6682 80.0596 39.0847 79.6419L35.8194 69.8803C35.4721 68.4858 34.4299 66.4638 35.8194 65.2087C38.8064 65.487 43.3218 69.2528 43.8777 68.2766C44.5027 67.3005 36.2365 63.605 35.5412 62.35C33.5963 59.2123 37.4169 59.7004 36.8616 57.4692C36.4445 56.0741 34.7082 54.9584 33.5272 55.5162V55.5162ZM54.0894 59.9781C54.0203 62.1402 58.1876 61.6521 56.6593 64.7897C56.3816 65.4864 45.614 68.2063 45.6837 69.5304C45.7528 70.7855 52.9084 67.7176 55.2703 67.857C59.7857 68.2754 53.8808 77.4785 52.6307 82.1501C53.1169 82.7777 53.8117 82.3593 54.4368 82.4994C56.5204 81.5232 56.3822 79.1519 57.3546 77.4094C57.702 76.4333 58.9521 73.714 59.7863 73.6436C60.689 73.6436 62.843 79.1519 67.1498 80.4773C68.6091 81.0345 70.0683 80.1978 69.6512 79.5703C65.9004 76.2932 61.6627 70.8558 61.8706 69.5304C62.7048 65.4173 70.2763 63.4643 69.6512 61.7909C68.817 59.4906 62.7048 67.857 58.3974 64.5799C56.0355 62.7671 59.7869 61.1634 58.7448 58.723C57.9797 57.4686 54.1585 58.2355 54.0894 59.9781V59.9781ZM90.3516 58.9328L89.1712 60.0484C89.4483 60.8148 90.9075 61.8619 91.1167 61.6527C91.324 61.5126 90.8378 59.4906 90.3516 58.9328ZM32.4851 61.2331L31.86 59.8392L31.1653 60.7457L32.4851 61.2331ZM28.1085 61.931C27.6921 62.8368 26.6499 63.953 27.0664 64.9292C27.6223 65.4166 28.6639 63.813 29.0119 63.4637C29.3592 63.1163 28.1783 62.6276 28.1085 61.931ZM43.1132 45.5455C42.9047 45.8941 40.1953 46.8703 38.5979 47.7761C37.0004 48.6134 38.3893 48.8226 39.0144 48.4036C39.6394 47.9853 42.2099 46.7302 42.7658 47.4275C43.5303 48.4734 40.5427 52.5872 39.9868 54.5395C39.5006 56.3523 41.0986 54.9578 41.3072 54.6092C41.446 54.2606 43.2527 50.6348 43.3909 50.2862C43.4606 49.8679 43.808 49.8679 43.8771 50.2165C44.0165 51.3321 45.7528 53.633 46.3081 54.1205C46.8641 54.6086 47.5588 53.9113 47.8365 53.7719C48.045 53.7021 48.601 53.7719 46.8641 52.0287C45.1969 50.2159 45.1272 48.5425 45.0581 47.5663C44.9883 46.6599 49.5734 43.9412 48.8089 43.313C48.4615 42.9644 46.6555 44.847 45.4048 45.4745C44.1541 46.0323 43.8074 45.4048 43.6679 44.7076C43.4594 43.9412 45.3351 42.3369 44.3627 41.8488C43.4594 41.4305 41.7231 42.9644 42.2784 43.5222C43.5303 44.6391 43.2527 45.1969 43.1132 45.5455V45.5455Z" fill="#E4B7A3"/>
<path fill-rule="evenodd" clip-rule="evenodd" d="M20.8839 44.4974L23.107 41.9873C24.1491 40.6632 25.1216 40.6632 26.1637 41.4992C26.7197 42.057 26.8585 42.7543 26.5111 43.6607C27.5532 43.9396 28.6645 44.2883 29.6369 44.4974L28.2474 46.1708C26.9973 45.6828 25.7466 45.1947 24.4965 44.7763C24.6445 44.6974 24.7655 44.576 24.8439 44.4277C25.2604 44.0094 25.469 43.4516 24.9834 43.0332C24.4274 42.5451 24.0109 43.0332 23.8715 43.2424L23.1767 44.0094L27.2059 47.4259L25.9558 48.8204L20.8839 44.4974V44.4974ZM30.7482 38.5017L31.6515 39.6173L29.5672 41.221L30.3317 42.1971L32.7627 40.1751L33.6654 41.2907L29.706 44.5672L25.5381 39.4081L29.4981 36.131L30.4008 37.2466L27.9697 39.2686L28.6639 40.1751L30.7482 38.5017V38.5017ZM32.8325 39.7567C33.4575 39.7567 34.0134 39.6173 34.4996 39.2686C34.7773 39.1292 35.1944 38.7806 34.9859 38.4319C34.5694 37.665 32.1377 38.3622 31.235 36.898C30.8876 36.2007 30.8876 35.0851 32.3469 34.1787C32.8331 33.8998 33.3884 33.6906 33.8752 33.4814L34.8476 34.7365C34.3614 34.8062 33.8752 34.9457 33.5278 35.1548C33.2502 35.2943 32.9028 35.7126 33.0416 35.9915C33.5278 36.8283 35.8201 35.9915 36.7234 37.4558C37.2096 38.2228 37.1399 39.3384 35.6115 40.3145C35.1253 40.5934 34.5003 40.8723 33.8746 41.0815L32.8325 39.7567V39.7567ZM38.6676 32.575C39.7789 32.0869 40.6822 32.7842 41.0993 33.6906C41.5158 34.6668 41.3072 35.7824 40.2657 36.2705C39.1538 36.7585 38.2511 36.0613 37.834 35.1548C37.4169 34.1787 37.5557 33.0631 38.6676 32.575V32.575ZM40.821 37.5952C42.8356 36.6888 43.808 34.9457 42.9047 32.9243C42.002 30.9022 40.1262 30.3444 38.0419 31.2508C36.0274 32.1573 35.1241 33.9004 35.9577 35.9224C36.8616 37.9439 38.7367 38.5017 40.821 37.5952V37.5952ZM44.433 29.0887L45.4055 32.7145C45.6831 33.6209 46.0305 34.1083 46.9338 33.8992C47.7674 33.69 47.9062 33.0625 47.6286 32.0863L46.6562 28.4606L48.5319 27.9028L49.7122 32.2955C50.1985 33.8294 49.0872 34.8056 47.2812 35.2937C45.5443 35.7817 44.0856 35.5028 43.6692 33.9689L42.4882 29.5762L44.433 29.0887V29.0887ZM49.5043 27.7639L52.8387 27.2759C54.5059 26.997 55.2697 27.6245 55.4086 28.8796C55.5474 29.7163 55.1309 30.3438 54.2973 30.7621C54.9224 31.6686 55.5474 32.6447 56.1033 33.4814L54.0197 33.8301C53.3946 32.6447 52.769 31.4594 52.0742 30.3438C52.2827 30.3438 52.4222 30.3438 52.5604 30.2741C53.1163 30.2043 53.6717 29.9254 53.6026 29.2979C53.4637 28.6006 52.8387 28.6704 52.5604 28.7401L51.588 28.8796L52.4216 34.0392L50.5465 34.3181L49.5043 27.7639Z" fill="#C82E37"/>
<path fill-rule="evenodd" clip-rule="evenodd" d="M61.2449 33.2031C60.689 33.2728 59.8554 33.4123 59.508 33.482C57.2849 33.5517 55.6874 32.4361 55.5486 30.2049C55.4789 27.9737 56.9381 26.7186 59.1606 26.5792C59.7166 26.5094 60.2725 26.5792 60.8278 26.6489L61.1061 28.1829C60.5495 28.0434 60.0633 27.9737 59.5771 28.0434C58.0488 28.1131 57.4928 29.2287 57.5625 30.1352C57.6316 31.1113 58.2573 32.0875 59.4383 32.0178C60.2028 31.948 60.7587 31.8086 61.314 31.6691L61.2449 33.2031ZM66.3859 29.3682L66.3162 30.8324L63.6753 30.693V31.948L66.8018 32.0875L66.7321 33.482L61.5923 33.2728L61.87 26.5792L67.0103 26.8581L66.9412 28.2526L63.8154 28.1131L63.7457 29.2985L66.3859 29.3682V29.3682ZM74.6515 34.7371C74.0956 34.6673 73.2632 34.6673 72.9152 34.5976C70.7618 34.1792 69.4414 32.6453 69.8585 30.4844C70.2756 28.3229 72.0119 27.3468 74.2356 27.8349C74.7916 27.9046 75.3469 28.1138 75.8331 28.3229L75.693 29.8569C75.2068 29.578 74.791 29.3688 74.3047 29.2991C72.7764 29.0202 72.0113 29.9963 71.8033 30.833C71.6645 31.8789 72.0113 32.9248 73.1929 33.134C73.9567 33.2734 74.5121 33.2734 75.068 33.2037L74.6515 34.7371V34.7371ZM80.557 32.3664L80.2096 33.6912L77.6391 32.9242L77.2911 34.1095L80.2787 35.016L79.8616 36.3407L74.9995 34.8765L76.945 28.5321L81.8071 29.9957L81.39 31.3909L78.4024 30.4838L78.0562 31.5994L80.557 32.3664V32.3664ZM82.8492 30.3443L84.9335 31.3205L85.35 36.271H85.4197L87.156 32.2967L88.7535 32.9939L86.0448 39.06L83.8914 38.1536L83.4045 33.2728V33.2031L81.6682 37.1077L80.0708 36.4105L82.8492 30.3443V30.3443ZM89.1706 33.2728L94.1728 36.4105L93.4083 37.5958L91.7411 36.5499L88.9627 41.0123L87.2949 39.8967L90.0739 35.504L88.4073 34.4582L89.1706 33.2728ZM96.3262 41.7096L95.4228 42.7549L93.4083 41.0821L92.6444 41.9879L95.0057 44.0099L94.1024 45.1255L90.2127 41.7793L94.5195 36.6894L98.4092 40.0362L97.5071 41.1518L95.0755 39.06L94.3116 39.9665L96.3262 41.7096V41.7096ZM99.4514 41.0821L101.536 43.7316C102.648 44.9867 102.439 45.9622 101.467 46.7996C100.842 47.2876 100.078 47.2179 99.3132 46.7298C98.8269 47.7757 98.271 48.7519 97.8539 49.728L96.5347 48.0546C97.2289 46.8693 97.9243 45.7537 98.5493 44.5683C98.6184 44.7775 98.6881 44.917 98.8263 44.9867C99.1743 45.405 99.6605 45.7537 100.216 45.3353C100.772 44.917 100.355 44.4289 100.147 44.2197L99.5908 43.4527L95.4919 46.7298L94.3116 45.2656L99.4514 41.0821Z" fill="#C82E37"/>
<path fill-rule="evenodd" clip-rule="evenodd" d="M21.1622 38.2244C21.6484 38.085 22.0649 37.8758 22.4123 37.5272C22.6202 37.3877 22.8985 37.0391 22.69 36.7602C22.2038 36.2024 20.328 37.1785 19.3556 36.1327C18.9385 35.6446 18.7306 34.7382 19.7721 33.762C20.1188 33.4221 20.5174 33.1397 20.9531 32.9253L21.9255 33.762C21.5781 33.9014 21.161 34.1106 20.8833 34.3198C20.7445 34.529 20.4668 34.8776 20.6754 35.0868C21.2313 35.7143 22.9682 34.5987 23.9407 35.6446C24.4269 36.2024 24.5657 37.1785 23.5242 38.1547C23.1071 38.5033 22.6906 38.7822 22.2044 39.0611L21.1622 38.2244Z" fill="#0C0E0F"/>
<path fill-rule="evenodd" clip-rule="evenodd" d="M25.0518 33.0624L24.6353 31.4587V31.3889L26.0242 32.3645L25.0518 33.0624V33.0624ZM25.8854 35.9211L25.3991 34.2477L26.9966 33.0624L28.3855 34.0385L29.775 32.9926C28.1078 31.9467 26.3012 30.9009 24.7038 29.855L23.1063 31.0397C23.5925 33.0617 24.0787 35.014 24.4261 37.0361L25.8854 35.9211Z" fill="#0C0E0F"/>
<path fill-rule="evenodd" clip-rule="evenodd" d="M26.7191 28.3931L28.3863 27.417L31.9292 29.5081H31.9989L30.1923 26.4402L31.443 25.6738L34.222 30.4843L32.5542 31.4604L29.0113 29.4384L30.7482 32.5063L29.4981 33.2036L26.7191 28.3931V28.3931ZM31.7904 25.464L36.3057 23.4426L36.7919 24.5576L35.3333 25.1858L37.1393 29.1601L35.6109 29.8574L33.8049 25.883L32.2766 26.5796L31.7904 25.464V25.464ZM38.9453 25.464L39.015 23.7209L40.1269 25.0457L38.9453 25.464ZM38.9453 28.3931L39.015 26.65L40.8211 26.0225L41.8632 27.2775L43.5304 26.7197C42.2106 25.2555 40.8211 23.7215 39.5704 22.2573L37.6952 22.9545C37.5558 24.9766 37.4867 26.9986 37.2781 29.02L38.9453 28.3931V28.3931ZM49.4353 25.2555C49.0188 25.3949 48.3931 25.6738 48.1148 25.7436C46.3088 26.1613 44.8502 25.3949 44.4331 23.6518C44.0166 21.8389 44.989 20.5141 46.795 20.0958C47.2812 20.0261 47.7675 19.9563 48.1846 19.9563L48.601 21.2114C48.1871 21.1417 47.7643 21.1417 47.3503 21.2114C46.1003 21.56 45.822 22.5362 46.0305 23.2334C46.2385 24.0701 46.8641 24.7674 47.8366 24.5582C48.4622 24.4188 48.8787 24.2096 49.2952 24.0004L49.4353 25.2555V25.2555ZM49.0188 19.7472L50.6853 19.4683L51.3801 23.7906L53.7421 23.4426L53.9506 24.6273L49.9215 25.2555L49.0188 19.7472Z" fill="#0C0E0F"/>
<path fill-rule="evenodd" clip-rule="evenodd" d="M55.6177 21.6975L56.1736 20.0241L56.8684 21.5581L55.6177 21.6975V21.6975ZM54.8538 24.4865L55.3401 22.8828L57.2849 22.7434L57.9797 24.2774L59.7166 24.1379C58.8225 22.3552 57.9424 20.5655 57.0763 18.769L55.1315 18.9085C54.4367 20.8608 53.8117 22.8131 53.0472 24.6957L54.8538 24.4865V24.4865Z" fill="#0C0E0F"/>
<path fill-rule="evenodd" clip-rule="evenodd" d="M59.3689 18.6323H62.2177C63.5368 18.6323 64.0928 19.1901 64.0928 20.3057C64.0928 20.9333 63.6757 21.4213 62.9815 21.7002C63.3263 22.5251 63.6969 23.339 64.0928 24.1406H62.3559C62.0079 23.0941 61.592 22.0489 61.1755 21.0727H61.5926C62.0085 21.0727 62.4947 20.9333 62.4947 20.3755C62.4947 19.8177 62.0079 19.8177 61.7999 19.8177H60.9657V24.1406L59.3683 24.2104V18.6323H59.3689V18.6323ZM64.6481 18.7021L66.3159 18.7718L66.0376 24.2801L64.3704 24.2104L64.6481 18.7021ZM66.5238 18.7718L71.4557 19.2599L71.3168 20.4452L69.7194 20.236L69.2332 24.6281L67.6351 24.4189L68.0522 20.0966L66.4547 19.9571L66.5238 18.7718V18.7718ZM72.707 22.3278L73.6091 20.8635H73.6794L73.9564 22.537L72.707 22.3278V22.3278ZM71.2477 24.8379L72.151 23.3737L74.0262 23.7223L74.3742 25.3957L76.1105 25.6746C75.6272 23.7371 75.2103 21.7836 74.8604 19.8177L72.9149 19.469C71.8037 21.2122 70.6924 22.885 69.5114 24.5584L71.2477 24.8379V24.8379ZM79.0283 26.5113C79.0974 26.0232 78.8192 22.3975 78.6803 20.5846L80.3475 21.0727L80.4166 25.4654L83.126 21.9791L84.7234 22.4672C83.8904 23.3737 81.6679 26.0929 80.8337 27.0691L79.0283 26.5113ZM85.0714 25.6049L86.2518 24.3498L86.1827 26.0929L85.0714 25.6049ZM83.0569 27.8361L84.2385 26.581L86.0438 27.2783L85.9747 28.9517L87.6419 29.5792C87.6419 27.6269 87.5728 25.5351 87.6419 23.6526L85.7656 22.8856C84.3076 24.3498 82.918 25.814 81.3897 27.1388L83.0569 27.8361V27.8361Z" fill="#0C0E0F"/>
<path fill-rule="evenodd" clip-rule="evenodd" d="M89.7265 24.5581L91.2548 25.3251L89.3093 29.2297L91.4627 30.2762L90.9068 31.3215L87.2948 29.5086L89.7265 24.5581V24.5581ZM93.8944 26.6499L95.284 27.5563L93.0602 31.2518L95.1445 32.5068L94.5195 33.5527L91.0456 31.3918L93.8944 26.6499V26.6499ZM99.7296 33.2041L99.0354 34.1802L97.2288 32.8554L96.6729 33.6224L98.7572 35.2261L98.0624 36.2023L94.5886 33.6224L97.9242 29.1606L101.328 31.7398L100.633 32.6463L98.5492 31.1123L97.9242 31.8793L99.7296 33.2041ZM100.633 35.505L101.536 31.8096L102.856 33.0646L102.161 35.1564L104.246 34.3894L105.565 35.5747L101.814 36.7601L100.355 38.294L99.1743 37.1784L100.633 35.505V35.505ZM12.8946 86.1244C12.3387 86.1244 12.1307 86.1935 12.1307 86.8211V90.5165C12.1307 90.8658 12.2696 90.8658 12.9643 90.8658C14.215 90.8658 14.7012 90.7954 15.1875 89.8199H15.396L14.9789 91.144H10.6024V91.004C11.1583 91.004 11.2972 90.9349 11.2972 90.3073V86.8211C11.2972 86.1935 11.1583 86.1935 10.6024 86.1244V85.9844H12.8946V86.1244V86.1244ZM16.2987 91.004C16.9935 91.004 17.1323 90.8651 17.1323 90.3073V86.8211C17.1323 86.2633 16.9935 86.1244 16.2987 86.1244V85.9844H18.7304V86.1244C18.1744 86.1244 17.9659 86.1935 17.9659 86.8211V90.3073C17.9659 90.9349 18.1047 91.004 18.7304 91.004V91.144H16.2987V91.004ZM25.7465 86.1244C25.1906 86.1935 24.9826 86.1935 24.9826 87.0993V91.2138H24.8432L21.2312 86.9605V90.0284C21.2312 90.7942 21.37 91.0034 21.9957 91.0034V91.1434H20.0502V91.0034C20.6752 91.0034 20.8838 90.8645 20.8838 90.0284V86.5422C20.5364 86.1929 20.3976 86.1238 20.0502 86.1238V85.9837H21.4397L24.5655 89.7483V87.0987C24.5655 86.1929 24.357 86.1929 23.801 86.1238V85.9837H25.7459V86.1244H25.7465V86.1244ZM29.9145 85.9844H31.9988V86.1244C31.5126 86.1935 31.3737 86.1935 30.8178 86.752L29.2197 88.2162L31.1652 90.1679C31.6514 90.7257 31.9297 91.0046 32.4159 91.0046V91.1447H29.9151V91.0046C30.4013 91.0046 30.5401 91.0046 30.5401 90.7954C30.5401 90.5862 29.7065 89.7495 29.4283 89.4713L28.5947 88.7043L28.3861 88.8444V90.3086C28.3861 90.8664 28.4558 91.0052 29.0809 91.0052V91.1453H26.788V91.0052C27.4828 91.0052 27.5525 90.8664 27.5525 90.2395V86.8229C27.5525 86.1954 27.3446 86.1954 26.788 86.1263V85.9862H29.15V86.1263C28.5249 86.1954 28.3855 86.2651 28.3855 86.8229V88.4266C30.1915 86.8229 30.4698 86.6138 30.4698 86.3355C30.4698 86.1263 30.331 86.1263 29.9138 86.1263V85.9844H29.9145V85.9844ZM33.2495 91.004C33.9442 91.004 34.0133 90.8651 34.0133 90.3073V86.8211C34.0133 86.2633 33.9442 86.1244 33.2495 86.1244V85.9844H35.6805V86.1244C35.0555 86.1244 34.8469 86.1935 34.8469 86.8211V90.3073C34.8469 90.9349 35.0549 91.004 35.6805 91.004V91.144H33.2495V91.004ZM42.6269 86.1244C42.1407 86.1935 41.8624 86.1935 41.8624 87.0993V91.2138H41.7236L38.1807 86.9605V90.0284C38.1807 90.7942 38.3195 91.0034 38.9445 91.0034V91.1434H36.9997V91.0034C37.6247 91.0034 37.7642 90.8645 37.7642 90.0284V86.5422C37.4865 86.1929 37.3471 86.1238 36.9997 86.1238V85.9837H38.3886L41.5144 89.7483V87.0987C41.5144 86.1929 41.3065 86.1929 40.7499 86.1238V85.9837H42.6257V86.1244H42.6269V86.1244ZM48.8101 88.4945C48.4627 88.5636 48.2541 88.5636 48.2541 89.122V90.7257C48.2541 90.7948 47.1423 91.2835 46.3087 91.2835C45.4751 91.2835 44.5724 91.004 44.0164 90.4468C43.5993 89.9581 43.3217 89.5397 43.3217 88.4939C43.3217 87.1697 44.3638 85.8443 46.1001 85.8443C46.9337 85.8443 47.2811 86.1238 47.5587 86.1238C47.6285 86.1238 47.9061 86.0535 47.9061 85.8443H48.1141L48.1838 87.5177H47.9759C47.7673 86.9605 47.3502 86.1935 46.2389 86.1935C45.4744 86.1935 44.2244 86.681 44.2244 88.6339C44.2244 90.0982 45.1277 90.9342 46.3778 90.9342C46.9337 90.9342 47.4896 90.7942 47.4896 90.5159V89.1917C47.4896 88.563 47.2811 88.563 46.7251 88.4939V88.355H48.8094V88.4945H48.8101V88.4945ZM60.4106 86.1244C60.0633 86.1244 59.9244 86.2633 59.7159 86.8211L57.9099 91.2144H57.771L55.7565 86.9611C55.4091 86.2633 55.2703 86.1244 54.9229 86.1244V85.9844H57.0763V86.1244C56.5901 86.1244 56.4512 86.1935 56.4512 86.4027C56.4512 86.5428 56.5901 86.8211 56.7986 87.2394L58.0487 89.889L59.2297 87.0302C59.2297 86.9611 59.3685 86.6119 59.3685 86.4724C59.3685 86.1942 59.0908 86.1244 58.7435 86.1244V85.9844H60.4106V86.1244ZM63.1194 91.004C62.2173 91.004 61.3831 90.3073 61.3831 88.5636C61.3831 86.752 62.2864 86.1244 63.1194 86.1244C63.9536 86.1244 64.8569 86.752 64.8569 88.5636C64.8575 90.3073 64.0233 91.004 63.1194 91.004ZM63.1194 91.2835C64.5786 91.2835 65.8299 90.2376 65.8299 88.5636C65.8299 86.752 64.4404 85.8449 63.1194 85.8449C61.8002 85.8449 60.4797 86.752 60.4797 88.5636C60.4804 90.2376 61.662 91.2835 63.1194 91.2835ZM68.7472 86.1244C68.1913 86.1244 67.9833 86.1935 67.9833 86.8211V90.5165C67.9833 90.8658 68.1221 90.8658 68.8163 90.8658C70.0676 90.8658 70.5526 90.7954 71.0388 89.8199H71.248L70.8309 91.144H66.455V91.004C67.0109 91.004 67.1491 90.9349 67.1491 90.3073V86.8211C67.1491 86.1935 66.9412 86.1935 66.455 86.1244V85.9844H68.7472V86.1244V86.1244ZM76.9449 86.1244C76.3186 86.1935 76.1798 86.3336 76.1798 87.0993V89.1917C76.1798 89.8193 76.1798 91.2829 74.0955 91.2829C72.0809 91.2829 72.0809 89.7483 72.0809 89.2608V86.8204C72.0809 86.2626 71.9421 86.1929 71.3171 86.1238V85.9837H73.6093V86.1238C72.9843 86.1929 72.9152 86.2626 72.9152 86.8204V89.3299C72.9152 89.8186 72.9152 90.9336 74.3047 90.9336C74.9297 90.9336 75.4159 90.6553 75.6239 90.3061C75.7627 90.166 75.833 89.8877 75.833 89.2602V87.0981C75.833 86.2614 75.6239 86.1232 75.0679 86.1232V85.9831H76.9443V86.1244H76.9449ZM83.1262 86.1244C82.5703 86.1935 82.3623 86.1935 82.3623 87.0993V91.2138H82.2235L78.6108 86.9605V90.0284C78.6108 90.7942 78.7497 91.0034 79.3747 91.0034V91.1434H77.4305V91.0034C78.0555 91.0034 78.2635 90.8645 78.2635 90.0284V86.5422C77.9155 86.1929 77.7773 86.1238 77.4305 86.1238V85.9837H78.8188L81.9446 89.7483V87.0987C81.9446 86.1929 81.7367 86.1929 81.1807 86.1238V85.9837H83.125V86.1244H83.1262V86.1244ZM87.5731 91.1434H85.2105V91.0034C85.9756 91.0034 85.9756 90.7942 85.9756 90.2376V86.3336H85.5585C84.6552 86.3336 84.4472 86.4724 84.2393 87.3085H84.0301L84.0992 85.9844H88.6843L88.7534 87.3085H88.5455C88.4067 86.4718 88.1284 86.3336 87.2251 86.3336H86.8092V90.3073C86.8092 90.8651 86.8783 91.004 87.5731 91.004V91.1434V91.1434ZM94.4504 91.1434H90.0745V91.0034C90.6304 91.0034 90.7686 90.9342 90.7686 90.3067V86.8204C90.7686 86.1929 90.6298 86.1929 90.0745 86.1238V85.9837H94.3813L94.4504 87.0987H94.2424C94.1024 86.4021 93.8944 86.262 92.9911 86.262H91.8799C91.741 86.262 91.6028 86.262 91.6028 86.5415V88.2841H92.8529C93.6168 88.2841 93.6859 88.0749 93.7562 87.5171H93.9642V89.3299H93.7562C93.6859 88.7024 93.547 88.6333 92.8529 88.6333L91.6028 88.563V90.5159C91.6028 90.8651 91.6028 90.8651 92.8529 90.8651C93.8253 90.8651 94.2424 90.656 94.5892 89.8193H94.8675L94.4504 91.1434V91.1434ZM100.078 91.1434H95.7004V91.0034C96.2564 91.0034 96.3958 90.9342 96.3958 90.3067V86.8204C96.3958 86.1929 96.1867 86.1929 95.7004 86.1238V85.9837H100.007L100.078 87.0987H99.8684C99.7296 86.4021 99.5216 86.262 98.6183 86.262H97.5071C97.3682 86.262 97.2288 86.262 97.2288 86.5415V88.2841H98.4801C99.244 88.2841 99.3131 88.0749 99.3822 87.5171H99.5914V89.3299H99.3822C99.3131 88.7024 99.1743 88.6333 98.4801 88.6333L97.2288 88.563V90.5159C97.2288 90.8651 97.2288 90.8651 98.4801 90.8651C99.4519 90.8651 99.8684 90.656 100.216 89.8193H100.493L100.078 91.1434V91.1434ZM102.994 86.5428C102.994 86.3336 103.063 86.2633 103.48 86.2633C103.828 86.2633 104.87 86.2633 104.87 87.3091C104.87 88.4254 103.69 88.4945 102.994 88.4945V86.5428H102.994ZM106.676 91.004C106.329 91.004 106.12 90.8651 105.982 90.656L104.315 88.6339C104.732 88.5636 105.773 88.4247 105.773 87.3085C105.773 86.1244 104.453 85.9844 103.69 85.9844H101.466V86.1244C102.022 86.1935 102.161 86.2633 102.161 86.8211V90.2376C102.161 90.7948 102.092 91.0034 101.466 91.0034V91.1434H103.69V91.0034C103.063 91.0034 102.994 90.8645 102.994 90.3067V88.7721H103.411L105.357 91.1434H106.676V91.004ZM110.845 87.5177H110.637C110.498 86.8902 109.941 86.1935 109.108 86.1935C108.691 86.1935 108.274 86.4027 108.274 86.8902C108.274 88.0755 110.983 88.2156 110.983 89.8193C110.983 90.5159 110.498 91.2835 109.316 91.2835C108.691 91.2835 108.274 91.004 108.066 91.004C107.857 91.004 107.788 91.144 107.788 91.2835H107.58L107.372 89.6101H107.58C107.719 89.9581 108.136 91.0034 109.247 91.0034C109.872 91.0034 110.22 90.5159 110.22 90.0975C110.22 89.6792 110.081 89.4009 108.9 88.703C108.135 88.2847 107.58 87.9361 107.58 87.1697C107.58 86.333 108.344 85.8443 109.108 85.8443C109.594 85.8443 110.012 86.1238 110.22 86.1238C110.427 86.1238 110.498 85.914 110.498 85.8449H110.637L110.845 87.5177V87.5177ZM14.1453 98.4646H11.8531V98.3245C12.5479 98.3245 12.6176 98.1153 12.6176 97.5588V93.7239H12.2011C11.2978 93.7239 11.0892 93.8627 10.8807 94.7H10.7418V93.4437H15.2572V94.7H15.1184C14.9098 93.8621 14.7012 93.7239 13.7986 93.7239H13.3814V97.6279C13.3814 98.1857 13.5203 98.3245 14.1459 98.3245V98.4646H14.1453V98.4646ZM15.5348 98.3251C16.1599 98.3251 16.2296 98.116 16.2296 97.5594V94.2823C16.2296 93.6535 16.0908 93.5844 15.5348 93.5844V93.4444H17.758V93.5844C17.1329 93.5844 17.0632 93.7245 17.0632 94.2823V95.7465H19.4251V94.2823C19.4251 93.6535 19.2863 93.5844 18.7304 93.5844V93.4444H20.9535V93.5844C20.3285 93.5844 20.2587 93.7245 20.2587 94.2823V97.6285C20.2587 98.116 20.3285 98.256 20.9535 98.3251V98.4652H18.7304V98.3251C19.4251 98.3251 19.4251 98.116 19.4251 97.5594V96.0939H17.0632V97.6285C17.0632 98.116 17.1329 98.256 17.758 98.3251V98.4652H15.5348V98.3251V98.3251ZM23.0372 94.0022C23.0372 93.7239 23.1063 93.7239 23.5234 93.7239C23.8708 93.7239 24.9123 93.7239 24.9123 94.7698C24.9123 95.8156 23.7313 95.8156 23.0366 95.8847V94.0022H23.0372ZM26.6492 98.3251C26.3715 98.3251 26.163 98.1863 25.9544 97.9771L24.357 96.0242C24.7735 95.9551 25.7459 95.7459 25.7459 94.7691C25.7459 93.5838 24.4958 93.4437 23.801 93.4437H21.5779V93.5838C22.1339 93.6529 22.2727 93.6529 22.2727 94.2817V97.5588C22.2727 98.116 22.2036 98.2554 21.5779 98.3245V98.4646H23.801V98.3245C23.176 98.3245 23.0366 98.1153 23.0366 97.6279V96.1637L23.5228 96.0933L25.3985 98.4646H26.6486V98.3251H26.6492V98.3251ZM29.2197 98.3251C28.317 98.3251 27.5525 97.6285 27.5525 95.9551C27.5525 94.2113 28.3861 93.5838 29.2197 93.5838C30.0533 93.5838 30.8875 94.2113 30.8875 95.9551C30.8875 97.6285 30.123 98.3251 29.2197 98.3251ZM29.2197 98.6047C30.679 98.6047 31.7902 97.5588 31.7902 95.9551C31.7902 94.2113 30.5401 93.3055 29.2197 93.3055C27.8999 93.3055 26.6498 94.2113 26.6498 95.9551C26.6492 97.5588 27.8302 98.6047 29.2197 98.6047ZM37.6254 93.5838C37.0003 93.6529 36.8615 93.7239 36.8615 94.56V96.5117C36.8615 97.1404 36.8615 98.604 34.8469 98.604C32.8324 98.604 32.8324 97.0695 32.8324 96.6511V94.2811C32.8324 93.6523 32.7633 93.5832 32.1376 93.5832V93.4431H34.3607V93.5832C33.7357 93.5832 33.6659 93.7233 33.6659 94.2811V96.7202C33.6659 97.2089 33.6659 98.2548 35.0555 98.2548C35.6805 98.2548 36.0976 97.9765 36.3753 97.6273C36.445 97.4872 36.5141 97.2089 36.5141 96.5814V94.5593C36.5141 93.7226 36.3062 93.5832 35.7496 93.5832V93.4431H37.6254V93.5838ZM42.9046 95.8847C42.5572 95.9551 42.3486 95.9551 42.3486 96.5123V98.0469C42.3486 98.116 41.3071 98.6047 40.4729 98.6047C39.6393 98.6047 38.8057 98.3251 38.2504 97.768C37.7642 97.3496 37.5556 96.8609 37.5556 95.8847C37.5556 94.5606 38.5978 93.3055 40.265 93.3055C41.0295 93.3055 41.4459 93.5838 41.6545 93.5838C41.7236 93.5838 42.0019 93.5147 42.071 93.3055H42.2098L42.2789 94.9092H42.1401C41.8624 94.3514 41.515 93.6529 40.4032 93.6529C39.6387 93.6529 38.4577 94.0725 38.4577 96.0242C38.4577 97.4187 39.2913 98.2554 40.5414 98.2554C41.0282 98.2554 41.5835 98.1153 41.5835 97.8371V96.582C41.5835 95.9545 41.4447 95.9545 40.8888 95.8841V95.7453H42.9027V95.8847H42.9046V95.8847ZM43.1131 98.3251C43.8079 98.3251 43.8079 98.116 43.8079 97.5594V94.2823C43.8079 93.6535 43.7382 93.5844 43.1131 93.5844V93.4444H45.3362V93.5844C44.7112 93.5844 44.6415 93.7245 44.6415 94.2823V95.7465H47.0034V94.2823C47.0034 93.6535 46.9343 93.5844 46.3087 93.5844V93.4444H48.5318V93.5844C47.9067 93.5844 47.837 93.7245 47.837 94.2823V97.6285C47.837 98.116 47.9067 98.256 48.5318 98.3251V98.4652H46.3087V98.3251C47.0034 98.3251 47.0034 98.116 47.0034 97.5594V96.0939H44.6415V97.6285C44.6415 98.116 44.7106 98.256 45.3362 98.3251V98.4652H43.1131V98.3251ZM51.5188 98.3251C50.6161 98.3251 49.8516 97.6285 49.8516 95.9551C49.8516 94.2113 50.6852 93.5838 51.5188 93.5838C52.2833 93.5838 53.186 94.2113 53.186 95.9551C53.186 97.6285 52.353 98.3251 51.5188 98.3251ZM51.5188 98.6047C52.9083 98.6047 54.0893 97.5588 54.0893 95.9551C54.0893 94.2113 52.7695 93.3055 51.5188 93.3055C50.199 93.3055 48.9489 94.2113 48.9489 95.9551C48.9489 97.5588 50.0601 98.6047 51.5188 98.6047ZM59.9244 93.5838C59.2994 93.6529 59.1599 93.7239 59.1599 94.56V96.5117C59.1599 97.1404 59.1599 98.604 57.0756 98.604C55.1308 98.604 55.1308 97.0695 55.1308 96.6511V94.2811C55.1308 93.6523 55.0611 93.5832 54.436 93.5832V93.4431H56.6585V93.5832C56.0335 93.5832 55.9638 93.7233 55.9638 94.2811V96.7202C55.9638 97.2089 55.9638 98.2548 57.3533 98.2548C57.9092 98.2548 58.3954 97.9765 58.6034 97.6273C58.7428 97.4872 58.8119 97.2089 58.8119 96.5814V94.5593C58.8119 93.7226 58.6034 93.5832 58.0474 93.5832V93.4431H59.9232V93.5838H59.9244ZM63.5365 98.4646H61.2442V98.3245C61.9384 98.3245 62.0081 98.1153 62.0081 97.5588V93.7239H61.5922C60.6883 93.7239 60.4797 93.8627 60.3415 94.7H60.133L60.2027 93.4437H64.6483V94.7H64.5095C64.3016 93.8621 64.0924 93.7239 63.2594 93.7239H62.7732V97.6279C62.7732 98.1857 62.912 98.3245 63.5371 98.3245V98.4646H63.5365ZM70.5526 98.4646H68.2604V98.3245C68.9557 98.3245 68.9557 98.1153 68.9557 97.5588V93.7239H68.5386C67.7044 93.7239 67.4965 93.8627 67.2873 94.7H67.1485V93.4437H71.5953L71.6645 94.7H71.4553C71.3164 93.8621 71.1085 93.7239 70.2052 93.7239H69.7881V97.6279C69.7881 98.1857 69.8572 98.3245 70.552 98.3245V98.4646H70.5526V98.4646ZM71.9421 98.3251C72.5671 98.3251 72.6375 98.116 72.6375 97.5594V94.2823C72.6375 93.6535 72.4974 93.5844 71.9421 93.5844V93.4444H74.0955V93.5844C73.5396 93.5844 73.4014 93.7245 73.4014 94.2823V95.7465H75.833V94.2823C75.833 93.6535 75.693 93.5844 75.1376 93.5844V93.4444H77.291V93.5844C76.7351 93.5844 76.5969 93.7245 76.5969 94.2823V97.6285C76.5969 98.116 76.7357 98.256 77.291 98.3251V98.4652H75.1376V98.3251C75.7627 98.3251 75.833 98.116 75.833 97.5594V96.0939H73.4014V97.6285C73.4014 98.116 73.5402 98.256 74.0955 98.3251V98.4652H71.9421V98.3251ZM82.2241 98.4646H77.9161V98.3245C78.4733 98.3245 78.6115 98.2554 78.6115 97.6279V94.2817C78.6115 93.6529 78.4726 93.5838 77.9161 93.5838V93.4437H82.155V94.4909H81.9458C81.8767 93.8621 81.6688 93.7239 80.7655 93.7239H79.7233C79.5154 93.7239 79.4451 93.7239 79.4451 94.0022V95.6756H80.6267C81.3905 95.6756 81.4596 95.4664 81.5287 94.9098H81.7379V96.7215H81.5287C81.4596 96.0939 81.3208 96.0248 80.6267 95.9557H79.4451V97.8377C79.4451 98.1869 79.4451 98.1869 80.6267 98.1869C81.5991 98.1869 82.015 97.9778 82.363 97.2108H82.5709L82.2241 98.4646ZM88.8922 93.5838C88.4764 93.5838 88.4073 93.7239 88.1284 94.2817L86.3921 98.5337H86.252L84.3078 94.3508C84.0295 93.6529 83.8907 93.5838 83.4736 93.5838V93.4437H85.627V93.5838C85.1408 93.5838 85.0019 93.5838 85.0019 93.8621C85.0019 93.9324 85.1408 94.2817 85.3499 94.6291L86.5303 97.2095L87.7106 94.4205C87.7106 94.4205 87.8507 94.0725 87.8507 93.9331C87.8507 93.5838 87.5724 93.5838 87.2935 93.5838V93.4437H88.891V93.5838H88.8922V93.5838ZM89.0323 96.5123L89.9344 94.4211L90.9068 96.5123H89.0323V96.5123ZM92.922 98.3251C92.574 98.3251 92.4358 98.1863 92.2279 97.6285L90.2824 93.3062H90.0745L88.477 97.0707C88.2678 97.42 88.0599 97.9778 87.852 98.1869C87.7119 98.3258 87.5737 98.3258 87.4349 98.3258V98.4658H89.0323V98.3258C88.8922 98.3258 88.4764 98.3258 88.4764 97.9778C88.4764 97.9074 88.5455 97.8377 88.5455 97.6982L88.8922 96.7924H90.9765L91.3245 97.5594C91.3936 97.6285 91.4634 97.9074 91.4634 98.0469C91.4634 98.3251 91.1863 98.3251 90.9074 98.3251V98.4652H92.922V98.3251V98.3251Z" fill="#0C0E0F"/>
<path fill-rule="evenodd" clip-rule="evenodd" d="M94.9371 93.581C94.3811 93.581 94.1732 93.6501 94.1732 94.2789V97.8342C94.1732 98.1835 94.312 98.1835 95.0062 98.1835C96.1865 98.1835 96.6734 98.1131 97.1596 97.1376H97.3688L96.9517 98.4618H92.714V98.3217C93.2002 98.3217 93.4081 98.2526 93.4081 97.6251V94.2789C93.4081 93.6501 93.2002 93.581 92.714 93.581V93.4409H94.9365V93.581H94.9371V93.581Z" fill="#0C0E0F"/>
<path fill-rule="evenodd" clip-rule="evenodd" d="M99.3124 93.581C98.7565 93.581 98.6183 93.6501 98.6183 94.2789V97.8342C98.6183 98.1835 98.7571 98.1835 99.3822 98.1835C100.564 98.1835 101.051 98.1131 101.536 97.1376H101.745L101.328 98.4618H97.0899V98.3217C97.5761 98.3217 97.7841 98.2526 97.7841 97.6251V94.2789C97.7841 93.6501 97.5761 93.581 97.0899 93.581V93.4409H99.3124V93.581V93.581Z" fill="#0C0E0F"/>
<path fill-rule="evenodd" clip-rule="evenodd" d="M105.773 98.4618H101.466V98.3217C101.952 98.3217 102.161 98.2526 102.161 97.6251V94.2789C102.161 93.6501 101.952 93.581 101.466 93.581V93.4409H105.704V94.488H105.496C105.357 93.8593 105.148 93.7211 104.315 93.7211H103.204C103.064 93.7211 102.995 93.7211 102.995 93.9993V95.6727H104.175C104.871 95.6727 104.94 95.4636 105.079 94.907H105.217V96.7186H105.079C104.94 96.0911 104.871 96.022 104.175 95.9529H102.995V97.8349C102.995 98.1841 102.995 98.1841 104.175 98.1841C105.148 98.1841 105.565 97.9749 105.913 97.208H106.121L105.773 98.4618V98.4618ZM111.331 93.581C111.054 93.581 110.775 93.6501 110.22 94.4177L109.039 96.1615V97.6257C109.039 98.1835 109.178 98.3223 109.872 98.3223V98.4624H107.442V98.3223C108.206 98.3223 108.275 98.1131 108.275 97.5566V96.2312L107.233 94.7669C106.4 93.6507 106.331 93.5816 105.913 93.5816V93.4415H108.136V93.5816C107.788 93.5816 107.58 93.5816 107.58 93.7908C107.58 93.8599 107.649 94 107.719 94.14L108.9 95.8134L110.012 94.0709C110.081 94.0006 110.151 93.9309 110.151 93.7914C110.151 93.5822 109.872 93.5822 109.595 93.5822V93.4422H111.331V93.581ZM5.60092 101.53H115.013H5.60092Z" fill="#0C0E0F"/>
<path fill-rule="evenodd" clip-rule="evenodd" d="M75.6937 39.8286C75.4857 40.8048 73.3324 42.4085 75.6937 42.6874C78.1254 42.6177 80.0708 44.8489 82.4321 45.6159C84.0993 43.036 85.4198 49.381 87.9903 48.3352C89.1706 47.5682 85.9757 45.1975 88.337 43.9424C89.6574 43.6635 90.9766 44.918 91.0464 45.9645C91.2555 48.0562 88.8238 47.5682 89.7963 48.8232C91.6726 50.5657 95.9097 52.7272 95.4235 53.9823C95.3544 54.2612 94.9373 54.1915 94.7294 54.2612C95.3544 54.819 95.0064 55.3071 94.7985 55.6557C93.7563 57.3988 90.7687 58.5842 90.8384 58.7236C91.1167 59.5603 92.1588 62.0001 91.7417 62.2796C91.3937 62.698 90.2825 62.2093 89.7963 61.7909L88.893 60.8851C87.9212 61.931 88.5462 63.7438 89.1021 64.7891C90.1443 67.2986 91.3944 68.6931 93.1306 70.9243C94.5202 72.5977 93.3398 74.2705 92.1589 74.6198C88.1988 75.736 86.3237 71.0644 84.2394 68.624C82.0157 71.2736 81.1827 77.4785 75.9726 75.8051C74.9304 75.1776 75.7634 73.8522 75.9726 73.1555C78.0569 69.3897 80.3485 65.5561 80.5576 61.0233L80.4176 60.8845C77.2918 61.0233 74.3745 63.0454 71.179 61.9304C69.4414 65.1377 62.0088 66.602 64.1622 70.7849C65.5517 73.5739 67.2189 75.8051 69.7203 77.8271C71.1796 79.1513 70.5533 81.3825 69.0262 81.3825C65.0662 82.2896 62.3568 77.758 59.6475 75.5959C57.6329 77.8962 58.3974 82.9862 54.4374 83.5446C53.3255 83.7538 51.7971 83.963 51.2418 82.7777C50.4773 81.7318 56.7296 70.4375 55.0624 68.972C51.2418 69.1812 46.5179 71.9702 43.8783 70.2271C43.9474 69.9488 43.7395 69.6699 44.0178 69.5304L36.8616 66.3224L36.3754 66.8111C36.3754 71.5519 38.9453 75.6657 40.196 80.1281C39.64 81.5226 38.0426 80.5464 37.2781 80.3373C34.3602 78.5244 34.9852 74.8987 33.1101 72.5977C31.1646 74.4797 29.6369 77.5489 26.5105 76.5017C25.8157 76.0834 25.2598 75.736 25.0518 74.8981C24.5656 72.4589 27.6217 71.4828 28.3171 69.5298C29.0816 67.9261 30.5402 66.1133 29.4284 64.1616C28.6639 65.1377 27.5526 66.1133 26.094 65.4166C25.3295 64.9292 27.3447 62.8362 27.6914 61.3726C26.2019 60.2813 24.9691 58.8774 24.0794 57.2594C24.6353 56.7016 24.6353 56.9108 24.3571 56.7016C24.3571 56.7016 23.1761 56.1438 23.2452 55.7951C23.3149 55.2373 26.7881 53.6337 30.4008 51.682C31.5811 49.5902 28.1777 50.8453 29.5672 48.3352C30.1922 47.1498 32.2068 46.1737 33.318 46.6617C35.3326 47.7076 31.0949 51.0544 32.8318 51.4031C35.0549 50.7755 35.7497 45.0587 37.9722 47.9168C39.3617 46.592 41.5151 46.592 42.8349 45.058C43.3211 44.2213 40.8204 43.8727 41.9316 42.5479C42.6961 41.8507 44.1547 41.0837 44.6409 41.5021C45.9608 42.8268 42.9738 44.4996 44.7101 45.337C45.266 45.6856 47.1417 43.9424 48.253 43.036C48.3918 42.8966 48.4615 42.6874 49.0175 42.8268C49.7116 42.1296 53.5328 42.4782 55.6862 42.5479C57.2837 41.5718 54.7835 39.6892 57.0751 39.5504C58.187 39.4109 59.6456 39.4806 59.6456 39.9687C59.7851 41.7119 56.7975 41.921 57.7002 42.688C61.0339 43.6642 65.4808 43.9431 65.8288 43.9431C66.1058 43.9431 66.2446 43.1761 66.4538 42.8972C66.7308 42.688 72.9831 42.4091 72.9831 42.4091C73.7482 41.0146 70.0658 39.9687 73.6785 38.9228C74.5824 38.713 75.5549 38.7828 75.6937 39.8286V39.8286ZM81.8071 45.6152C80.557 45.0574 77.8471 43.1748 75.416 43.0354C72.8455 42.8959 75.5548 40.3858 75.068 39.6886C74.3739 38.8519 73.3317 39.2005 72.8455 39.9675C72.4975 40.4556 73.8179 41.4317 73.7488 42.2684C73.6797 43.5235 66.4544 42.4079 66.3853 43.5235C66.3853 44.4996 72.5672 43.5235 73.0534 44.0115C74.5127 45.4061 69.1638 51.5419 70.552 51.8905C71.8034 52.3089 73.887 47.3584 74.3041 47.3584C74.7904 47.3584 76.0404 49.9382 76.8747 51.1235C77.2214 51.7511 78.1247 52.4483 78.68 51.5419C78.888 51.1235 77.5688 49.7988 77.0826 48.8226C76.5266 47.4281 74.8601 45.5455 76.3175 44.3602C77.0129 43.9418 80.7643 46.3125 81.5979 46.5217C82.015 46.6611 83.0572 46.2428 81.8071 45.6152ZM82.7104 46.4519C81.113 48.2648 77.5694 44.2207 76.6661 44.9877C75.6937 46.173 79.3754 50.5651 79.3754 51.5419C79.3754 52.5181 77.8471 52.5181 77.3609 52.3089C75.9029 51.6116 75.2075 50.0079 74.3054 48.7529C74.3054 48.7529 72.429 51.6813 72.0817 52.3089C71.7349 52.8667 69.7894 52.7272 69.3723 51.6813C69.1644 50.9841 73.4021 45.5455 72.4981 44.4299C72.1514 44.151 66.2459 44.4299 66.2459 44.4996C66.2459 45.3363 59.0218 44.918 58.6047 44.9877C56.729 45.2666 57.2849 49.1009 57.6323 51.1229C57.7717 51.8899 56.9382 52.5872 55.9651 52.3083C54.0203 51.7504 54.1591 49.4495 54.1591 47.7064C52.4919 48.7523 50.755 51.2624 48.5325 50.9835C48.1154 50.844 47.6989 50.3559 47.8377 49.7284C47.9772 49.3101 54.2288 45.6843 54.1591 44.3596C54.0203 43.4531 49.2964 44.3596 49.1575 43.8715C49.0187 44.4293 47.3515 45.6843 46.4482 46.521C45.8232 47.4275 45.6146 46.8697 45.6837 47.7761C45.6837 52.0991 50.2682 52.5174 48.0457 54.2606C45.6146 56.0734 44.0863 51.0532 43.5303 51.1229C43.1829 51.1229 42.2105 54.4697 41.3769 55.3064C40.821 55.934 39.8486 56.2826 39.2933 55.5156C38.7373 55.0275 42.7665 48.5437 42.2111 47.8464C41.5164 47.0097 39.0156 49.3107 37.8346 48.8923C36.9319 50.7749 35.9589 52.4477 34.8476 54.6098L37.7655 56.7016C39.8498 58.8631 36.0983 59.6998 35.9595 61.2331C35.751 62.7677 43.1145 64.7206 45.1988 68.4155C48.2555 65.9047 51.7287 66.3231 55.3413 64.1622C55.8275 62.0001 53.3959 62.4888 52.632 61.0239C52.0069 58.8631 54.1603 58.0264 55.5499 57.4686C57.0085 56.9805 59.3013 56.5621 60.2047 58.375C61.5238 60.6056 57.2868 62.2802 59.6487 63.8827C62.4969 64.7206 65.1365 63.1169 67.2208 61.0943C68.2629 60.2576 69.8604 60.4668 70.5545 61.0239C73.5421 57.8172 81.0457 57.8172 81.601 56.2135C81.9478 53.8428 80.5589 54.7493 80.0727 53.4942C79.7247 52.6575 79.9326 51.8208 80.4194 51.1235C80.9754 50.5657 83.7544 49.4501 85.2822 50.0777C84.0296 48.1253 82.7104 46.3822 82.7104 46.4519V46.4519ZM57.1461 39.9681C56.0342 40.247 57.3546 41.9901 56.4513 42.5479C55.4092 43.036 50.4767 42.7571 50.1991 42.7571C49.574 42.7571 49.4352 43.5241 49.9911 43.5938C50.6162 43.6635 55.0624 43.3846 55.0624 44.3608C53.6729 47.1498 47.0041 49.7988 48.6713 50.4269C50.5471 51.0544 54.0209 46.2434 54.7848 46.5223C55.1321 46.592 54.4374 48.5443 55.0624 50.2875C55.6184 51.9609 56.6599 51.8911 56.9382 51.6122C57.2855 51.3333 56.3131 48.0562 56.7993 45.7553C57.2855 43.4544 65.1353 45.1975 65.2044 44.3608C65.2747 43.7333 57.5632 44.0819 57.1467 42.8966C56.5217 41.3626 59.5087 41.3626 59.1613 40.1773C58.8824 39.6892 57.8409 39.6892 57.1461 39.9681ZM88.3364 44.6391C87.7805 46.5217 89.6568 48.8923 87.5034 49.1712C85.6271 49.3804 83.8908 44.2904 83.2657 45.6152C82.7795 46.5914 84.9329 48.6134 86.0442 49.8685C87.3646 51.4024 85.7659 53.9817 84.5158 55.5156C84.0987 56.0037 86.3225 57.8166 87.4343 55.3762C87.4343 55.3762 88.1982 57.0496 89.3785 55.6551C89.3785 54.1211 88.4765 51.5419 89.5877 51.3321C90.4898 51.1229 93.6853 54.1908 94.2425 53.4239C94.7985 52.6569 91.1167 50.4954 89.3094 49.2403C88.8232 48.9614 88.8232 47.7761 89.1015 47.6366C92.297 46.0336 88.6844 44.1516 88.3364 44.6391V44.6391ZM30.1231 48.474C29.7757 49.5896 31.0955 49.8685 31.3732 51.0538C31.5811 52.4483 28.6639 53.1456 26.9967 53.9823C26.0243 54.5401 23.6623 55.5162 24.2873 56.0043C26.1631 56.2832 28.3856 53.9823 30.6087 54.4006C31.0949 54.3309 29.9837 57.7468 29.3586 59.2117C29.6363 59.6998 30.1922 59.9089 30.5396 60.1872C31.4429 59.63 31.0258 57.9566 31.5811 57.8869C32.2759 57.7475 32.2759 60.7457 33.318 60.5365C34.7767 60.1181 29.9139 55.1676 34.0128 54.4013C34.0128 54.3315 35.5412 51.0544 37.1386 48.6838C37.9722 47.5682 36.7912 47.6379 36.5136 47.6379C35.4714 49.1719 33.874 52.5187 32.6233 52.0306C30.1225 51.1242 34.1516 48.1266 32.7627 47.1504C31.7206 47.1498 30.7482 47.5675 30.1231 48.474V48.474ZM82.9881 50.9841C78.0563 52.3089 82.5019 53.7725 82.6413 55.7951C82.2933 58.5835 72.1514 59.909 72.2211 61.0239C72.2211 61.8619 77.9162 60.1181 80.8347 59.9781C82.2242 59.909 82.571 61.3035 82.2242 62.4888C80.9729 65.9041 79.2366 69.1812 77.6391 72.3886C77.4312 73.2253 76.2496 74.1323 77.222 74.8981C79.8616 76.5017 82.9184 65.9744 84.2388 65.9041C85.4889 65.835 85.4889 71.2032 89.7957 73.2956C90.4898 73.6436 92.1582 74.0614 92.505 72.8773C90.4904 69.3206 86.9481 65.4857 86.6007 61.9304C87.712 58.3744 92.0188 57.3982 94.3813 54.9578C92.7142 53.2844 89.5883 57.2588 87.3652 57.5377C85.8369 57.7468 85.0717 57.3982 83.8914 56.3523C83.2664 54.9578 84.4473 53.9119 84.9335 52.7963C85.7659 51.4024 85.2106 50.4263 82.9881 50.9841V50.9841ZM89.9345 52.1694C89.5186 52.3786 89.7957 54.8887 90.0746 55.5162C90.9766 54.7499 91.8799 54.052 92.853 53.7731C91.3931 53.0759 90.0739 52.03 89.9345 52.1694V52.1694ZM29.4284 55.0979L26.5105 56.4221L28.8033 58.5138C29.1507 57.4686 29.9146 56.2135 29.4284 55.0979ZM33.5272 55.5162C32.9022 55.7951 33.3878 57.8869 34.0831 58.7933C34.8476 59.6998 34.3608 60.8851 33.8055 61.7218C30.5402 62.3493 28.7342 59.4906 26.5111 57.4686C26.0946 57.1199 23.9412 56.6319 25.7466 58.6539C27.1361 60.7457 28.4559 60.8851 30.1231 62.9078C31.9291 65.2081 31.1646 67.5794 29.9146 69.5311C28.8724 71.5531 24.8433 74.2027 26.3019 75.5972C28.3165 76.6431 29.6363 74.5513 30.9567 73.2969C31.9291 72.3898 32.1377 70.3678 33.1101 70.2987C34.2911 70.1586 34.9161 76.7831 37.3478 79.5018C37.6958 79.7801 38.6682 80.0596 39.0847 79.6419L35.8194 69.8803C35.4721 68.4858 34.4299 66.4638 35.8194 65.2087C38.8064 65.487 43.3218 69.2528 43.8777 68.2766C44.5027 67.3005 36.2365 63.605 35.5412 62.35C33.5963 59.2123 37.4169 59.7004 36.8616 57.4692C36.4445 56.0741 34.7082 54.9584 33.5272 55.5162V55.5162ZM54.0894 59.9781C54.0203 62.1402 58.1876 61.6521 56.6593 64.7897C56.3816 65.4864 45.614 68.2063 45.6837 69.5304C45.7528 70.7855 52.9084 67.7176 55.2703 67.857C59.7857 68.2754 53.8808 77.4785 52.6307 82.1501C53.1169 82.7777 53.8117 82.3593 54.4368 82.4994C56.5204 81.5232 56.3822 79.1519 57.3546 77.4094C57.702 76.4333 58.9521 73.714 59.7863 73.6436C60.689 73.6436 62.843 79.1519 67.1498 80.4773C68.6091 81.0345 70.0683 80.1978 69.6512 79.5703C65.9004 76.2932 61.6627 70.8558 61.8706 69.5304C62.7048 65.4173 70.2763 63.4643 69.6512 61.7909C68.817 59.4906 62.7048 67.857 58.3974 64.5799C56.0355 62.7671 59.7869 61.1634 58.7448 58.723C57.9797 57.4686 54.1585 58.2355 54.0894 59.9781V59.9781ZM90.3516 58.9328L89.1712 60.0484C89.4483 60.8148 90.9075 61.8619 91.1167 61.6527C91.324 61.5126 90.8378 59.4906 90.3516 58.9328ZM32.4851 61.2331L31.86 59.8392L31.1653 60.7457L32.4851 61.2331ZM28.1085 61.931C27.6921 62.8368 26.6499 63.953 27.0664 64.9292C27.6223 65.4166 28.6639 63.813 29.0119 63.4637C29.3592 63.1163 28.1783 62.6276 28.1085 61.931ZM43.1132 45.5455C42.9047 45.8941 40.1953 46.8703 38.5979 47.7761C37.0004 48.6134 38.3893 48.8226 39.0144 48.4036C39.6394 47.9853 42.2099 46.7302 42.7658 47.4275C43.5303 48.4734 40.5427 52.5872 39.9868 54.5395C39.5006 56.3523 41.0986 54.9578 41.3072 54.6092C41.446 54.2606 43.2527 50.6348 43.3909 50.2862C43.4606 49.8679 43.808 49.8679 43.8771 50.2165C44.0165 51.3321 45.7528 53.633 46.3081 54.1205C46.8641 54.6086 47.5588 53.9113 47.8365 53.7719C48.045 53.7021 48.601 53.7719 46.8641 52.0287C45.1969 50.2159 45.1272 48.5425 45.0581 47.5663C44.9883 46.6599 49.5734 43.9412 48.8089 43.313C48.4615 42.9644 46.6555 44.847 45.4048 45.4745C44.1541 46.0323 43.8074 45.4048 43.6679 44.7076C43.4594 43.9412 45.3351 42.3369 44.3627 41.8488C43.4594 41.4305 41.7231 42.9644 42.2784 43.5222C43.5303 44.6391 43.2527 45.1969 43.1132 45.5455V45.5455Z" fill="#E4B7A3"/>
<path fill-rule="evenodd" clip-rule="evenodd" d="M20.8839 44.4974L23.107 41.9873C24.1491 40.6632 25.1216 40.6632 26.1637 41.4992C26.7197 42.057 26.8585 42.7543 26.5111 43.6607C27.5532 43.9396 28.6645 44.2883 29.6369 44.4974L28.2474 46.1708C26.9973 45.6828 25.7466 45.1947 24.4965 44.7763C24.6445 44.6974 24.7655 44.576 24.8439 44.4277C25.2604 44.0094 25.469 43.4516 24.9834 43.0332C24.4274 42.5451 24.0109 43.0332 23.8715 43.2424L23.1767 44.0094L27.2059 47.4259L25.9558 48.8204L20.8839 44.4974V44.4974ZM30.7482 38.5017L31.6515 39.6173L29.5672 41.221L30.3317 42.1971L32.7627 40.1751L33.6654 41.2907L29.706 44.5672L25.5381 39.4081L29.4981 36.131L30.4008 37.2466L27.9697 39.2686L28.6639 40.1751L30.7482 38.5017V38.5017ZM32.8325 39.7567C33.4575 39.7567 34.0134 39.6173 34.4996 39.2686C34.7773 39.1292 35.1944 38.7806 34.9859 38.4319C34.5694 37.665 32.1377 38.3622 31.235 36.898C30.8876 36.2007 30.8876 35.0851 32.3469 34.1787C32.8331 33.8998 33.3884 33.6906 33.8752 33.4814L34.8476 34.7365C34.3614 34.8062 33.8752 34.9457 33.5278 35.1548C33.2502 35.2943 32.9028 35.7126 33.0416 35.9915C33.5278 36.8283 35.8201 35.9915 36.7234 37.4558C37.2096 38.2228 37.1399 39.3384 35.6115 40.3145C35.1253 40.5934 34.5003 40.8723 33.8746 41.0815L32.8325 39.7567V39.7567ZM38.6676 32.575C39.7789 32.0869 40.6822 32.7842 41.0993 33.6906C41.5158 34.6668 41.3072 35.7824 40.2657 36.2705C39.1538 36.7585 38.2511 36.0613 37.834 35.1548C37.4169 34.1787 37.5557 33.0631 38.6676 32.575V32.575ZM40.821 37.5952C42.8356 36.6888 43.808 34.9457 42.9047 32.9243C42.002 30.9022 40.1262 30.3444 38.0419 31.2508C36.0274 32.1573 35.1241 33.9004 35.9577 35.9224C36.8616 37.9439 38.7367 38.5017 40.821 37.5952V37.5952ZM44.433 29.0887L45.4055 32.7145C45.6831 33.6209 46.0305 34.1083 46.9338 33.8992C47.7674 33.69 47.9062 33.0625 47.6286 32.0863L46.6562 28.4606L48.5319 27.9028L49.7122 32.2955C50.1985 33.8294 49.0872 34.8056 47.2812 35.2937C45.5443 35.7817 44.0856 35.5028 43.6692 33.9689L42.4882 29.5762L44.433 29.0887V29.0887ZM49.5043 27.7639L52.8387 27.2759C54.5059 26.997 55.2697 27.6245 55.4086 28.8796C55.5474 29.7163 55.1309 30.3438 54.2973 30.7621C54.9224 31.6686 55.5474 32.6447 56.1033 33.4814L54.0197 33.8301C53.3946 32.6447 52.769 31.4594 52.0742 30.3438C52.2827 30.3438 52.4222 30.3438 52.5604 30.2741C53.1163 30.2043 53.6717 29.9254 53.6026 29.2979C53.4637 28.6006 52.8387 28.6704 52.5604 28.7401L51.588 28.8796L52.4216 34.0392L50.5465 34.3181L49.5043 27.7639Z" fill="#C82E37"/>
<path fill-rule="evenodd" clip-rule="evenodd" d="M61.2449 33.2031C60.689 33.2728 59.8554 33.4123 59.508 33.482C57.2849 33.5517 55.6874 32.4361 55.5486 30.2049C55.4789 27.9737 56.9381 26.7186 59.1606 26.5792C59.7166 26.5094 60.2725 26.5792 60.8278 26.6489L61.1061 28.1829C60.5495 28.0434 60.0633 27.9737 59.5771 28.0434C58.0488 28.1131 57.4928 29.2287 57.5625 30.1352C57.6316 31.1113 58.2573 32.0875 59.4383 32.0178C60.2028 31.948 60.7587 31.8086 61.314 31.6691L61.2449 33.2031ZM66.3859 29.3682L66.3162 30.8324L63.6753 30.693V31.948L66.8018 32.0875L66.7321 33.482L61.5923 33.2728L61.87 26.5792L67.0103 26.8581L66.9412 28.2526L63.8154 28.1131L63.7457 29.2985L66.3859 29.3682V29.3682ZM74.6515 34.7371C74.0956 34.6673 73.2632 34.6673 72.9152 34.5976C70.7618 34.1792 69.4414 32.6453 69.8585 30.4844C70.2756 28.3229 72.0119 27.3468 74.2356 27.8349C74.7916 27.9046 75.3469 28.1138 75.8331 28.3229L75.693 29.8569C75.2068 29.578 74.791 29.3688 74.3047 29.2991C72.7764 29.0202 72.0113 29.9963 71.8033 30.833C71.6645 31.8789 72.0113 32.9248 73.1929 33.134C73.9567 33.2734 74.5121 33.2734 75.068 33.2037L74.6515 34.7371V34.7371ZM80.557 32.3664L80.2096 33.6912L77.6391 32.9242L77.2911 34.1095L80.2787 35.016L79.8616 36.3407L74.9995 34.8765L76.945 28.5321L81.8071 29.9957L81.39 31.3909L78.4024 30.4838L78.0562 31.5994L80.557 32.3664V32.3664ZM82.8492 30.3443L84.9335 31.3205L85.35 36.271H85.4197L87.156 32.2967L88.7535 32.9939L86.0448 39.06L83.8914 38.1536L83.4045 33.2728V33.2031L81.6682 37.1077L80.0708 36.4105L82.8492 30.3443V30.3443ZM89.1706 33.2728L94.1728 36.4105L93.4083 37.5958L91.7411 36.5499L88.9627 41.0123L87.2949 39.8967L90.0739 35.504L88.4073 34.4582L89.1706 33.2728ZM96.3262 41.7096L95.4228 42.7549L93.4083 41.0821L92.6444 41.9879L95.0057 44.0099L94.1024 45.1255L90.2127 41.7793L94.5195 36.6894L98.4092 40.0362L97.5071 41.1518L95.0755 39.06L94.3116 39.9665L96.3262 41.7096V41.7096ZM99.4514 41.0821L101.536 43.7316C102.648 44.9867 102.439 45.9622 101.467 46.7996C100.842 47.2876 100.078 47.2179 99.3132 46.7298C98.8269 47.7757 98.271 48.7519 97.8539 49.728L96.5347 48.0546C97.2289 46.8693 97.9243 45.7537 98.5493 44.5683C98.6184 44.7775 98.6881 44.917 98.8263 44.9867C99.1743 45.405 99.6605 45.7537 100.216 45.3353C100.772 44.917 100.355 44.4289 100.147 44.2197L99.5908 43.4527L95.4919 46.7298L94.3116 45.2656L99.4514 41.0821Z" fill="#C82E37"/>
<path fill-rule="evenodd" clip-rule="evenodd" d="M21.1622 38.2244C21.6484 38.085 22.0649 37.8758 22.4123 37.5272C22.6202 37.3877 22.8985 37.0391 22.69 36.7602C22.2038 36.2024 20.328 37.1785 19.3556 36.1327C18.9385 35.6446 18.7306 34.7382 19.7721 33.762C20.1188 33.4221 20.5174 33.1397 20.9531 32.9253L21.9255 33.762C21.5781 33.9014 21.161 34.1106 20.8833 34.3198C20.7445 34.529 20.4668 34.8776 20.6754 35.0868C21.2313 35.7143 22.9682 34.5987 23.9407 35.6446C24.4269 36.2024 24.5657 37.1785 23.5242 38.1547C23.1071 38.5033 22.6906 38.7822 22.2044 39.0611L21.1622 38.2244Z" fill="#0C0E0F"/>
<path fill-rule="evenodd" clip-rule="evenodd" d="M25.0518 33.0624L24.6353 31.4587V31.3889L26.0242 32.3645L25.0518 33.0624V33.0624ZM25.8854 35.9211L25.3991 34.2477L26.9966 33.0624L28.3855 34.0385L29.775 32.9926C28.1078 31.9467 26.3012 30.9009 24.7038 29.855L23.1063 31.0397C23.5925 33.0617 24.0787 35.014 24.4261 37.0361L25.8854 35.9211Z" fill="#0C0E0F"/>
<path fill-rule="evenodd" clip-rule="evenodd" d="M26.7191 28.3931L28.3863 27.417L31.9292 29.5081H31.9989L30.1923 26.4402L31.443 25.6738L34.222 30.4843L32.5542 31.4604L29.0113 29.4384L30.7482 32.5063L29.4981 33.2036L26.7191 28.3931V28.3931ZM31.7904 25.464L36.3057 23.4426L36.7919 24.5576L35.3333 25.1858L37.1393 29.1601L35.6109 29.8574L33.8049 25.883L32.2766 26.5796L31.7904 25.464V25.464ZM38.9453 25.464L39.015 23.7209L40.1269 25.0457L38.9453 25.464ZM38.9453 28.3931L39.015 26.65L40.8211 26.0225L41.8632 27.2775L43.5304 26.7197C42.2106 25.2555 40.8211 23.7215 39.5704 22.2573L37.6952 22.9545C37.5558 24.9766 37.4867 26.9986 37.2781 29.02L38.9453 28.3931V28.3931ZM49.4353 25.2555C49.0188 25.3949 48.3931 25.6738 48.1148 25.7436C46.3088 26.1613 44.8502 25.3949 44.4331 23.6518C44.0166 21.8389 44.989 20.5141 46.795 20.0958C47.2812 20.0261 47.7675 19.9563 48.1846 19.9563L48.601 21.2114C48.1871 21.1417 47.7643 21.1417 47.3503 21.2114C46.1003 21.56 45.822 22.5362 46.0305 23.2334C46.2385 24.0701 46.8641 24.7674 47.8366 24.5582C48.4622 24.4188 48.8787 24.2096 49.2952 24.0004L49.4353 25.2555V25.2555ZM49.0188 19.7472L50.6853 19.4683L51.3801 23.7906L53.7421 23.4426L53.9506 24.6273L49.9215 25.2555L49.0188 19.7472Z" fill="#0C0E0F"/>
<path fill-rule="evenodd" clip-rule="evenodd" d="M55.6177 21.6975L56.1736 20.0241L56.8684 21.5581L55.6177 21.6975V21.6975ZM54.8538 24.4865L55.3401 22.8828L57.2849 22.7434L57.9797 24.2774L59.7166 24.1379C58.8225 22.3552 57.9424 20.5655 57.0763 18.769L55.1315 18.9085C54.4367 20.8608 53.8117 22.8131 53.0472 24.6957L54.8538 24.4865V24.4865Z" fill="#0C0E0F"/>
<path fill-rule="evenodd" clip-rule="evenodd" d="M59.3689 18.6323H62.2177C63.5368 18.6323 64.0928 19.1901 64.0928 20.3057C64.0928 20.9333 63.6757 21.4213 62.9815 21.7002C63.3263 22.5251 63.6969 23.339 64.0928 24.1406H62.3559C62.0079 23.0941 61.592 22.0489 61.1755 21.0727H61.5926C62.0085 21.0727 62.4947 20.9333 62.4947 20.3755C62.4947 19.8177 62.0079 19.8177 61.7999 19.8177H60.9657V24.1406L59.3683 24.2104V18.6323H59.3689V18.6323ZM64.6481 18.7021L66.3159 18.7718L66.0376 24.2801L64.3704 24.2104L64.6481 18.7021ZM66.5238 18.7718L71.4557 19.2599L71.3168 20.4452L69.7194 20.236L69.2332 24.6281L67.6351 24.4189L68.0522 20.0966L66.4547 19.9571L66.5238 18.7718V18.7718ZM72.707 22.3278L73.6091 20.8635H73.6794L73.9564 22.537L72.707 22.3278V22.3278ZM71.2477 24.8379L72.151 23.3737L74.0262 23.7223L74.3742 25.3957L76.1105 25.6746C75.6272 23.7371 75.2103 21.7836 74.8604 19.8177L72.9149 19.469C71.8037 21.2122 70.6924 22.885 69.5114 24.5584L71.2477 24.8379V24.8379ZM79.0283 26.5113C79.0974 26.0232 78.8192 22.3975 78.6803 20.5846L80.3475 21.0727L80.4166 25.4654L83.126 21.9791L84.7234 22.4672C83.8904 23.3737 81.6679 26.0929 80.8337 27.0691L79.0283 26.5113ZM85.0714 25.6049L86.2518 24.3498L86.1827 26.0929L85.0714 25.6049ZM83.0569 27.8361L84.2385 26.581L86.0438 27.2783L85.9747 28.9517L87.6419 29.5792C87.6419 27.6269 87.5728 25.5351 87.6419 23.6526L85.7656 22.8856C84.3076 24.3498 82.918 25.814 81.3897 27.1388L83.0569 27.8361V27.8361Z" fill="#0C0E0F"/>
<path fill-rule="evenodd" clip-rule="evenodd" d="M89.7265 24.5581L91.2548 25.3251L89.3093 29.2297L91.4627 30.2762L90.9068 31.3215L87.2948 29.5086L89.7265 24.5581V24.5581ZM93.8944 26.6499L95.284 27.5563L93.0602 31.2518L95.1445 32.5068L94.5195 33.5527L91.0456 31.3918L93.8944 26.6499V26.6499ZM99.7296 33.2041L99.0354 34.1802L97.2288 32.8554L96.6729 33.6224L98.7572 35.2261L98.0624 36.2023L94.5886 33.6224L97.9242 29.1606L101.328 31.7398L100.633 32.6463L98.5492 31.1123L97.9242 31.8793L99.7296 33.2041ZM100.633 35.505L101.536 31.8096L102.856 33.0646L102.161 35.1564L104.246 34.3894L105.565 35.5747L101.814 36.7601L100.355 38.294L99.1743 37.1784L100.633 35.505V35.505ZM12.8946 86.1244C12.3387 86.1244 12.1307 86.1935 12.1307 86.8211V90.5165C12.1307 90.8658 12.2696 90.8658 12.9643 90.8658C14.215 90.8658 14.7012 90.7954 15.1875 89.8199H15.396L14.9789 91.144H10.6024V91.004C11.1583 91.004 11.2972 90.9349 11.2972 90.3073V86.8211C11.2972 86.1935 11.1583 86.1935 10.6024 86.1244V85.9844H12.8946V86.1244V86.1244ZM16.2987 91.004C16.9935 91.004 17.1323 90.8651 17.1323 90.3073V86.8211C17.1323 86.2633 16.9935 86.1244 16.2987 86.1244V85.9844H18.7304V86.1244C18.1744 86.1244 17.9659 86.1935 17.9659 86.8211V90.3073C17.9659 90.9349 18.1047 91.004 18.7304 91.004V91.144H16.2987V91.004ZM25.7465 86.1244C25.1906 86.1935 24.9826 86.1935 24.9826 87.0993V91.2138H24.8432L21.2312 86.9605V90.0284C21.2312 90.7942 21.37 91.0034 21.9957 91.0034V91.1434H20.0502V91.0034C20.6752 91.0034 20.8838 90.8645 20.8838 90.0284V86.5422C20.5364 86.1929 20.3976 86.1238 20.0502 86.1238V85.9837H21.4397L24.5655 89.7483V87.0987C24.5655 86.1929 24.357 86.1929 23.801 86.1238V85.9837H25.7459V86.1244H25.7465V86.1244ZM29.9145 85.9844H31.9988V86.1244C31.5126 86.1935 31.3737 86.1935 30.8178 86.752L29.2197 88.2162L31.1652 90.1679C31.6514 90.7257 31.9297 91.0046 32.4159 91.0046V91.1447H29.9151V91.0046C30.4013 91.0046 30.5401 91.0046 30.5401 90.7954C30.5401 90.5862 29.7065 89.7495 29.4283 89.4713L28.5947 88.7043L28.3861 88.8444V90.3086C28.3861 90.8664 28.4558 91.0052 29.0809 91.0052V91.1453H26.788V91.0052C27.4828 91.0052 27.5525 90.8664 27.5525 90.2395V86.8229C27.5525 86.1954 27.3446 86.1954 26.788 86.1263V85.9862H29.15V86.1263C28.5249 86.1954 28.3855 86.2651 28.3855 86.8229V88.4266C30.1915 86.8229 30.4698 86.6138 30.4698 86.3355C30.4698 86.1263 30.331 86.1263 29.9138 86.1263V85.9844H29.9145V85.9844ZM33.2495 91.004C33.9442 91.004 34.0133 90.8651 34.0133 90.3073V86.8211C34.0133 86.2633 33.9442 86.1244 33.2495 86.1244V85.9844H35.6805V86.1244C35.0555 86.1244 34.8469 86.1935 34.8469 86.8211V90.3073C34.8469 90.9349 35.0549 91.004 35.6805 91.004V91.144H33.2495V91.004ZM42.6269 86.1244C42.1407 86.1935 41.8624 86.1935 41.8624 87.0993V91.2138H41.7236L38.1807 86.9605V90.0284C38.1807 90.7942 38.3195 91.0034 38.9445 91.0034V91.1434H36.9997V91.0034C37.6247 91.0034 37.7642 90.8645 37.7642 90.0284V86.5422C37.4865 86.1929 37.3471 86.1238 36.9997 86.1238V85.9837H38.3886L41.5144 89.7483V87.0987C41.5144 86.1929 41.3065 86.1929 40.7499 86.1238V85.9837H42.6257V86.1244H42.6269V86.1244ZM48.8101 88.4945C48.4627 88.5636 48.2541 88.5636 48.2541 89.122V90.7257C48.2541 90.7948 47.1423 91.2835 46.3087 91.2835C45.4751 91.2835 44.5724 91.004 44.0164 90.4468C43.5993 89.9581 43.3217 89.5397 43.3217 88.4939C43.3217 87.1697 44.3638 85.8443 46.1001 85.8443C46.9337 85.8443 47.2811 86.1238 47.5587 86.1238C47.6285 86.1238 47.9061 86.0535 47.9061 85.8443H48.1141L48.1838 87.5177H47.9759C47.7673 86.9605 47.3502 86.1935 46.2389 86.1935C45.4744 86.1935 44.2244 86.681 44.2244 88.6339C44.2244 90.0982 45.1277 90.9342 46.3778 90.9342C46.9337 90.9342 47.4896 90.7942 47.4896 90.5159V89.1917C47.4896 88.563 47.2811 88.563 46.7251 88.4939V88.355H48.8094V88.4945H48.8101V88.4945ZM60.4106 86.1244C60.0633 86.1244 59.9244 86.2633 59.7159 86.8211L57.9099 91.2144H57.771L55.7565 86.9611C55.4091 86.2633 55.2703 86.1244 54.9229 86.1244V85.9844H57.0763V86.1244C56.5901 86.1244 56.4512 86.1935 56.4512 86.4027C56.4512 86.5428 56.5901 86.8211 56.7986 87.2394L58.0487 89.889L59.2297 87.0302C59.2297 86.9611 59.3685 86.6119 59.3685 86.4724C59.3685 86.1942 59.0908 86.1244 58.7435 86.1244V85.9844H60.4106V86.1244ZM63.1194 91.004C62.2173 91.004 61.3831 90.3073 61.3831 88.5636C61.3831 86.752 62.2864 86.1244 63.1194 86.1244C63.9536 86.1244 64.8569 86.752 64.8569 88.5636C64.8575 90.3073 64.0233 91.004 63.1194 91.004ZM63.1194 91.2835C64.5786 91.2835 65.8299 90.2376 65.8299 88.5636C65.8299 86.752 64.4404 85.8449 63.1194 85.8449C61.8002 85.8449 60.4797 86.752 60.4797 88.5636C60.4804 90.2376 61.662 91.2835 63.1194 91.2835ZM68.7472 86.1244C68.1913 86.1244 67.9833 86.1935 67.9833 86.8211V90.5165C67.9833 90.8658 68.1221 90.8658 68.8163 90.8658C70.0676 90.8658 70.5526 90.7954 71.0388 89.8199H71.248L70.8309 91.144H66.455V91.004C67.0109 91.004 67.1491 90.9349 67.1491 90.3073V86.8211C67.1491 86.1935 66.9412 86.1935 66.455 86.1244V85.9844H68.7472V86.1244V86.1244ZM76.9449 86.1244C76.3186 86.1935 76.1798 86.3336 76.1798 87.0993V89.1917C76.1798 89.8193 76.1798 91.2829 74.0955 91.2829C72.0809 91.2829 72.0809 89.7483 72.0809 89.2608V86.8204C72.0809 86.2626 71.9421 86.1929 71.3171 86.1238V85.9837H73.6093V86.1238C72.9843 86.1929 72.9152 86.2626 72.9152 86.8204V89.3299C72.9152 89.8186 72.9152 90.9336 74.3047 90.9336C74.9297 90.9336 75.4159 90.6553 75.6239 90.3061C75.7627 90.166 75.833 89.8877 75.833 89.2602V87.0981C75.833 86.2614 75.6239 86.1232 75.0679 86.1232V85.9831H76.9443V86.1244H76.9449ZM83.1262 86.1244C82.5703 86.1935 82.3623 86.1935 82.3623 87.0993V91.2138H82.2235L78.6108 86.9605V90.0284C78.6108 90.7942 78.7497 91.0034 79.3747 91.0034V91.1434H77.4305V91.0034C78.0555 91.0034 78.2635 90.8645 78.2635 90.0284V86.5422C77.9155 86.1929 77.7773 86.1238 77.4305 86.1238V85.9837H78.8188L81.9446 89.7483V87.0987C81.9446 86.1929 81.7367 86.1929 81.1807 86.1238V85.9837H83.125V86.1244H83.1262V86.1244ZM87.5731 91.1434H85.2105V91.0034C85.9756 91.0034 85.9756 90.7942 85.9756 90.2376V86.3336H85.5585C84.6552 86.3336 84.4472 86.4724 84.2393 87.3085H84.0301L84.0992 85.9844H88.6843L88.7534 87.3085H88.5455C88.4067 86.4718 88.1284 86.3336 87.2251 86.3336H86.8092V90.3073C86.8092 90.8651 86.8783 91.004 87.5731 91.004V91.1434V91.1434ZM94.4504 91.1434H90.0745V91.0034C90.6304 91.0034 90.7686 90.9342 90.7686 90.3067V86.8204C90.7686 86.1929 90.6298 86.1929 90.0745 86.1238V85.9837H94.3813L94.4504 87.0987H94.2424C94.1024 86.4021 93.8944 86.262 92.9911 86.262H91.8799C91.741 86.262 91.6028 86.262 91.6028 86.5415V88.2841H92.8529C93.6168 88.2841 93.6859 88.0749 93.7562 87.5171H93.9642V89.3299H93.7562C93.6859 88.7024 93.547 88.6333 92.8529 88.6333L91.6028 88.563V90.5159C91.6028 90.8651 91.6028 90.8651 92.8529 90.8651C93.8253 90.8651 94.2424 90.656 94.5892 89.8193H94.8675L94.4504 91.1434V91.1434ZM100.078 91.1434H95.7004V91.0034C96.2564 91.0034 96.3958 90.9342 96.3958 90.3067V86.8204C96.3958 86.1929 96.1867 86.1929 95.7004 86.1238V85.9837H100.007L100.078 87.0987H99.8684C99.7296 86.4021 99.5216 86.262 98.6183 86.262H97.5071C97.3682 86.262 97.2288 86.262 97.2288 86.5415V88.2841H98.4801C99.244 88.2841 99.3131 88.0749 99.3822 87.5171H99.5914V89.3299H99.3822C99.3131 88.7024 99.1743 88.6333 98.4801 88.6333L97.2288 88.563V90.5159C97.2288 90.8651 97.2288 90.8651 98.4801 90.8651C99.4519 90.8651 99.8684 90.656 100.216 89.8193H100.493L100.078 91.1434V91.1434ZM102.994 86.5428C102.994 86.3336 103.063 86.2633 103.48 86.2633C103.828 86.2633 104.87 86.2633 104.87 87.3091C104.87 88.4254 103.69 88.4945 102.994 88.4945V86.5428H102.994ZM106.676 91.004C106.329 91.004 106.12 90.8651 105.982 90.656L104.315 88.6339C104.732 88.5636 105.773 88.4247 105.773 87.3085C105.773 86.1244 104.453 85.9844 103.69 85.9844H101.466V86.1244C102.022 86.1935 102.161 86.2633 102.161 86.8211V90.2376C102.161 90.7948 102.092 91.0034 101.466 91.0034V91.1434H103.69V91.0034C103.063 91.0034 102.994 90.8645 102.994 90.3067V88.7721H103.411L105.357 91.1434H106.676V91.004ZM110.845 87.5177H110.637C110.498 86.8902 109.941 86.1935 109.108 86.1935C108.691 86.1935 108.274 86.4027 108.274 86.8902C108.274 88.0755 110.983 88.2156 110.983 89.8193C110.983 90.5159 110.498 91.2835 109.316 91.2835C108.691 91.2835 108.274 91.004 108.066 91.004C107.857 91.004 107.788 91.144 107.788 91.2835H107.58L107.372 89.6101H107.58C107.719 89.9581 108.136 91.0034 109.247 91.0034C109.872 91.0034 110.22 90.5159 110.22 90.0975C110.22 89.6792 110.081 89.4009 108.9 88.703C108.135 88.2847 107.58 87.9361 107.58 87.1697C107.58 86.333 108.344 85.8443 109.108 85.8443C109.594 85.8443 110.012 86.1238 110.22 86.1238C110.427 86.1238 110.498 85.914 110.498 85.8449H110.637L110.845 87.5177V87.5177ZM14.1453 98.4646H11.8531V98.3245C12.5479 98.3245 12.6176 98.1153 12.6176 97.5588V93.7239H12.2011C11.2978 93.7239 11.0892 93.8627 10.8807 94.7H10.7418V93.4437H15.2572V94.7H15.1184C14.9098 93.8621 14.7012 93.7239 13.7986 93.7239H13.3814V97.6279C13.3814 98.1857 13.5203 98.3245 14.1459 98.3245V98.4646H14.1453V98.4646ZM15.5348 98.3251C16.1599 98.3251 16.2296 98.116 16.2296 97.5594V94.2823C16.2296 93.6535 16.0908 93.5844 15.5348 93.5844V93.4444H17.758V93.5844C17.1329 93.5844 17.0632 93.7245 17.0632 94.2823V95.7465H19.4251V94.2823C19.4251 93.6535 19.2863 93.5844 18.7304 93.5844V93.4444H20.9535V93.5844C20.3285 93.5844 20.2587 93.7245 20.2587 94.2823V97.6285C20.2587 98.116 20.3285 98.256 20.9535 98.3251V98.4652H18.7304V98.3251C19.4251 98.3251 19.4251 98.116 19.4251 97.5594V96.0939H17.0632V97.6285C17.0632 98.116 17.1329 98.256 17.758 98.3251V98.4652H15.5348V98.3251V98.3251ZM23.0372 94.0022C23.0372 93.7239 23.1063 93.7239 23.5234 93.7239C23.8708 93.7239 24.9123 93.7239 24.9123 94.7698C24.9123 95.8156 23.7313 95.8156 23.0366 95.8847V94.0022H23.0372ZM26.6492 98.3251C26.3715 98.3251 26.163 98.1863 25.9544 97.9771L24.357 96.0242C24.7735 95.9551 25.7459 95.7459 25.7459 94.7691C25.7459 93.5838 24.4958 93.4437 23.801 93.4437H21.5779V93.5838C22.1339 93.6529 22.2727 93.6529 22.2727 94.2817V97.5588C22.2727 98.116 22.2036 98.2554 21.5779 98.3245V98.4646H23.801V98.3245C23.176 98.3245 23.0366 98.1153 23.0366 97.6279V96.1637L23.5228 96.0933L25.3985 98.4646H26.6486V98.3251H26.6492V98.3251ZM29.2197 98.3251C28.317 98.3251 27.5525 97.6285 27.5525 95.9551C27.5525 94.2113 28.3861 93.5838 29.2197 93.5838C30.0533 93.5838 30.8875 94.2113 30.8875 95.9551C30.8875 97.6285 30.123 98.3251 29.2197 98.3251ZM29.2197 98.6047C30.679 98.6047 31.7902 97.5588 31.7902 95.9551C31.7902 94.2113 30.5401 93.3055 29.2197 93.3055C27.8999 93.3055 26.6498 94.2113 26.6498 95.9551C26.6492 97.5588 27.8302 98.6047 29.2197 98.6047ZM37.6254 93.5838C37.0003 93.6529 36.8615 93.7239 36.8615 94.56V96.5117C36.8615 97.1404 36.8615 98.604 34.8469 98.604C32.8324 98.604 32.8324 97.0695 32.8324 96.6511V94.2811C32.8324 93.6523 32.7633 93.5832 32.1376 93.5832V93.4431H34.3607V93.5832C33.7357 93.5832 33.6659 93.7233 33.6659 94.2811V96.7202C33.6659 97.2089 33.6659 98.2548 35.0555 98.2548C35.6805 98.2548 36.0976 97.9765 36.3753 97.6273C36.445 97.4872 36.5141 97.2089 36.5141 96.5814V94.5593C36.5141 93.7226 36.3062 93.5832 35.7496 93.5832V93.4431H37.6254V93.5838ZM42.9046 95.8847C42.5572 95.9551 42.3486 95.9551 42.3486 96.5123V98.0469C42.3486 98.116 41.3071 98.6047 40.4729 98.6047C39.6393 98.6047 38.8057 98.3251 38.2504 97.768C37.7642 97.3496 37.5556 96.8609 37.5556 95.8847C37.5556 94.5606 38.5978 93.3055 40.265 93.3055C41.0295 93.3055 41.4459 93.5838 41.6545 93.5838C41.7236 93.5838 42.0019 93.5147 42.071 93.3055H42.2098L42.2789 94.9092H42.1401C41.8624 94.3514 41.515 93.6529 40.4032 93.6529C39.6387 93.6529 38.4577 94.0725 38.4577 96.0242C38.4577 97.4187 39.2913 98.2554 40.5414 98.2554C41.0282 98.2554 41.5835 98.1153 41.5835 97.8371V96.582C41.5835 95.9545 41.4447 95.9545 40.8888 95.8841V95.7453H42.9027V95.8847H42.9046V95.8847ZM43.1131 98.3251C43.8079 98.3251 43.8079 98.116 43.8079 97.5594V94.2823C43.8079 93.6535 43.7382 93.5844 43.1131 93.5844V93.4444H45.3362V93.5844C44.7112 93.5844 44.6415 93.7245 44.6415 94.2823V95.7465H47.0034V94.2823C47.0034 93.6535 46.9343 93.5844 46.3087 93.5844V93.4444H48.5318V93.5844C47.9067 93.5844 47.837 93.7245 47.837 94.2823V97.6285C47.837 98.116 47.9067 98.256 48.5318 98.3251V98.4652H46.3087V98.3251C47.0034 98.3251 47.0034 98.116 47.0034 97.5594V96.0939H44.6415V97.6285C44.6415 98.116 44.7106 98.256 45.3362 98.3251V98.4652H43.1131V98.3251ZM51.5188 98.3251C50.6161 98.3251 49.8516 97.6285 49.8516 95.9551C49.8516 94.2113 50.6852 93.5838 51.5188 93.5838C52.2833 93.5838 53.186 94.2113 53.186 95.9551C53.186 97.6285 52.353 98.3251 51.5188 98.3251ZM51.5188 98.6047C52.9083 98.6047 54.0893 97.5588 54.0893 95.9551C54.0893 94.2113 52.7695 93.3055 51.5188 93.3055C50.199 93.3055 48.9489 94.2113 48.9489 95.9551C48.9489 97.5588 50.0601 98.6047 51.5188 98.6047ZM59.9244 93.5838C59.2994 93.6529 59.1599 93.7239 59.1599 94.56V96.5117C59.1599 97.1404 59.1599 98.604 57.0756 98.604C55.1308 98.604 55.1308 97.0695 55.1308 96.6511V94.2811C55.1308 93.6523 55.0611 93.5832 54.436 93.5832V93.4431H56.6585V93.5832C56.0335 93.5832 55.9638 93.7233 55.9638 94.2811V96.7202C55.9638 97.2089 55.9638 98.2548 57.3533 98.2548C57.9092 98.2548 58.3954 97.9765 58.6034 97.6273C58.7428 97.4872 58.8119 97.2089 58.8119 96.5814V94.5593C58.8119 93.7226 58.6034 93.5832 58.0474 93.5832V93.4431H59.9232V93.5838H59.9244ZM63.5365 98.4646H61.2442V98.3245C61.9384 98.3245 62.0081 98.1153 62.0081 97.5588V93.7239H61.5922C60.6883 93.7239 60.4797 93.8627 60.3415 94.7H60.133L60.2027 93.4437H64.6483V94.7H64.5095C64.3016 93.8621 64.0924 93.7239 63.2594 93.7239H62.7732V97.6279C62.7732 98.1857 62.912 98.3245 63.5371 98.3245V98.4646H63.5365ZM70.5526 98.4646H68.2604V98.3245C68.9557 98.3245 68.9557 98.1153 68.9557 97.5588V93.7239H68.5386C67.7044 93.7239 67.4965 93.8627 67.2873 94.7H67.1485V93.4437H71.5953L71.6645 94.7H71.4553C71.3164 93.8621 71.1085 93.7239 70.2052 93.7239H69.7881V97.6279C69.7881 98.1857 69.8572 98.3245 70.552 98.3245V98.4646H70.5526V98.4646ZM71.9421 98.3251C72.5671 98.3251 72.6375 98.116 72.6375 97.5594V94.2823C72.6375 93.6535 72.4974 93.5844 71.9421 93.5844V93.4444H74.0955V93.5844C73.5396 93.5844 73.4014 93.7245 73.4014 94.2823V95.7465H75.833V94.2823C75.833 93.6535 75.693 93.5844 75.1376 93.5844V93.4444H77.291V93.5844C76.7351 93.5844 76.5969 93.7245 76.5969 94.2823V97.6285C76.5969 98.116 76.7357 98.256 77.291 98.3251V98.4652H75.1376V98.3251C75.7627 98.3251 75.833 98.116 75.833 97.5594V96.0939H73.4014V97.6285C73.4014 98.116 73.5402 98.256 74.0955 98.3251V98.4652H71.9421V98.3251ZM82.2241 98.4646H77.9161V98.3245C78.4733 98.3245 78.6115 98.2554 78.6115 97.6279V94.2817C78.6115 93.6529 78.4726 93.5838 77.9161 93.5838V93.4437H82.155V94.4909H81.9458C81.8767 93.8621 81.6688 93.7239 80.7655 93.7239H79.7233C79.5154 93.7239 79.4451 93.7239 79.4451 94.0022V95.6756H80.6267C81.3905 95.6756 81.4596 95.4664 81.5287 94.9098H81.7379V96.7215H81.5287C81.4596 96.0939 81.3208 96.0248 80.6267 95.9557H79.4451V97.8377C79.4451 98.1869 79.4451 98.1869 80.6267 98.1869C81.5991 98.1869 82.015 97.9778 82.363 97.2108H82.5709L82.2241 98.4646ZM88.8922 93.5838C88.4764 93.5838 88.4073 93.7239 88.1284 94.2817L86.3921 98.5337H86.252L84.3078 94.3508C84.0295 93.6529 83.8907 93.5838 83.4736 93.5838V93.4437H85.627V93.5838C85.1408 93.5838 85.0019 93.5838 85.0019 93.8621C85.0019 93.9324 85.1408 94.2817 85.3499 94.6291L86.5303 97.2095L87.7106 94.4205C87.7106 94.4205 87.8507 94.0725 87.8507 93.9331C87.8507 93.5838 87.5724 93.5838 87.2935 93.5838V93.4437H88.891V93.5838H88.8922V93.5838ZM89.0323 96.5123L89.9344 94.4211L90.9068 96.5123H89.0323V96.5123ZM92.922 98.3251C92.574 98.3251 92.4358 98.1863 92.2279 97.6285L90.2824 93.3062H90.0745L88.477 97.0707C88.2678 97.42 88.0599 97.9778 87.852 98.1869C87.7119 98.3258 87.5737 98.3258 87.4349 98.3258V98.4658H89.0323V98.3258C88.8922 98.3258 88.4764 98.3258 88.4764 97.9778C88.4764 97.9074 88.5455 97.8377 88.5455 97.6982L88.8922 96.7924H90.9765L91.3245 97.5594C91.3936 97.6285 91.4634 97.9074 91.4634 98.0469C91.4634 98.3251 91.1863 98.3251 90.9074 98.3251V98.4652H92.922V98.3251V98.3251Z" fill="#0C0E0F"/>
<path fill-rule="evenodd" clip-rule="evenodd" d="M94.9371 93.581C94.3811 93.581 94.1732 93.6501 94.1732 94.2789V97.8342C94.1732 98.1835 94.312 98.1835 95.0062 98.1835C96.1865 98.1835 96.6734 98.1131 97.1596 97.1376H97.3688L96.9517 98.4618H92.714V98.3217C93.2002 98.3217 93.4081 98.2526 93.4081 97.6251V94.2789C93.4081 93.6501 93.2002 93.581 92.714 93.581V93.4409H94.9365V93.581H94.9371V93.581Z" fill="#0C0E0F"/>
<path fill-rule="evenodd" clip-rule="evenodd" d="M99.3124 93.581C98.7565 93.581 98.6183 93.6501 98.6183 94.2789V97.8342C98.6183 98.1835 98.7571 98.1835 99.3822 98.1835C100.564 98.1835 101.051 98.1131 101.536 97.1376H101.745L101.328 98.4618H97.0899V98.3217C97.5761 98.3217 97.7841 98.2526 97.7841 97.6251V94.2789C97.7841 93.6501 97.5761 93.581 97.0899 93.581V93.4409H99.3124V93.581V93.581Z" fill="#0C0E0F"/>
<path fill-rule="evenodd" clip-rule="evenodd" d="M105.773 98.4618H101.466V98.3217C101.952 98.3217 102.161 98.2526 102.161 97.6251V94.2789C102.161 93.6501 101.952 93.581 101.466 93.581V93.4409H105.704V94.488H105.496C105.357 93.8593 105.148 93.7211 104.315 93.7211H103.204C103.064 93.7211 102.995 93.7211 102.995 93.9993V95.6727H104.175C104.871 95.6727 104.94 95.4636 105.079 94.907H105.217V96.7186H105.079C104.94 96.0911 104.871 96.022 104.175 95.9529H102.995V97.8349C102.995 98.1841 102.995 98.1841 104.175 98.1841C105.148 98.1841 105.565 97.9749 105.913 97.208H106.121L105.773 98.4618V98.4618ZM111.331 93.581C111.054 93.581 110.775 93.6501 110.22 94.4177L109.039 96.1615V97.6257C109.039 98.1835 109.178 98.3223 109.872 98.3223V98.4624H107.442V98.3223C108.206 98.3223 108.275 98.1131 108.275 97.5566V96.2312L107.233 94.7669C106.4 93.6507 106.331 93.5816 105.913 93.5816V93.4415H108.136V93.5816C107.788 93.5816 107.58 93.5816 107.58 93.7908C107.58 93.8599 107.649 94 107.719 94.14L108.9 95.8134L110.012 94.0709C110.081 94.0006 110.151 93.9309 110.151 93.7914C110.151 93.5822 109.872 93.5822 109.595 93.5822V93.4422H111.331V93.581ZM5.60092 101.53H115.013H5.60092Z" fill="#0C0E0F"/>
<path d="M5.60092 101.531H115.013" stroke="#0C0E0F" stroke-miterlimit="2.613"/>
</svg>
