<svg width="343" height="647" viewBox="0 0 343 647" fill="none" xmlns="http://www.w3.org/2000/svg">
<path fill-rule="evenodd" clip-rule="evenodd" d="M621.341 446.187C585.25 492.761 515.982 491.168 468.548 526.122C413.545 566.653 392.633 670.83 324.57 664.873C256.322 658.899 260.221 545.103 206.062 503.147C146.729 457.182 28.7038 487.576 4.15585 416.649C-19.5261 348.224 85.2264 301.747 113.251 234.983C141.11 168.613 110.422 76.7656 166.015 31.0434C221.59 -14.6642 306.573 0.682258 376.24 18.6891C438.038 34.662 479.594 85.6425 529.791 125.068C582.902 166.782 659.55 190.803 678.066 255.749C696.681 321.044 662.931 392.518 621.341 446.187Z" fill="#FFF7F9"/>
</svg>
