<svg width="149" height="99" viewBox="0 0 149 99" fill="none" xmlns="http://www.w3.org/2000/svg">
<path d="M46.072 21.5695C45.864 21.5855 45.672 21.5375 45.496 21.4255C45.336 21.3295 45.224 21.2015 45.16 21.0415C45.096 20.9615 44.992 20.7855 44.848 20.5135C44.704 20.2575 44.616 20.0335 44.584 19.8415C44.536 19.3295 44.504 18.8335 44.488 18.3535C44.488 17.8735 44.512 17.2015 44.56 16.3375C44.608 15.6335 44.704 15.0095 44.848 14.4655C44.992 13.9055 45.136 13.4335 45.28 13.0495C45.424 12.6495 45.536 12.3535 45.616 12.1615C45.696 11.9535 45.712 11.8495 45.664 11.8495C45.6 11.8495 45.528 11.9135 45.448 12.0415C45.384 12.1535 45.304 12.3055 45.208 12.4975C45.128 12.6895 45.032 12.8975 44.92 13.1215C44.824 13.3455 44.72 13.5615 44.608 13.7695C44.384 14.2655 44.12 14.7935 43.816 15.3535C43.528 15.8975 43.232 16.4255 42.928 16.9375C42.624 17.4495 42.36 17.8975 42.136 18.2815C41.992 18.4415 41.824 18.6735 41.632 18.9775C41.44 19.2655 41.232 19.5695 41.008 19.8895C40.784 20.2095 40.552 20.4735 40.312 20.6815C39.96 21.0175 39.6 21.2175 39.232 21.2815C38.864 21.3615 38.52 21.3215 38.2 21.1615C38.04 21.1455 37.872 21.0575 37.696 20.8975C37.52 20.7535 37.376 20.5695 37.264 20.3455C37.168 20.1215 37.144 19.9135 37.192 19.7215C37.176 19.4975 37.176 19.1535 37.192 18.6895C37.224 18.2095 37.272 17.6895 37.336 17.1295C37.4 16.5535 37.464 16.0015 37.528 15.4735C37.608 14.9455 37.68 14.5055 37.744 14.1535C37.888 13.1295 38.08 12.0815 38.32 11.0095C38.576 9.93754 38.808 8.85754 39.016 7.76954C39.144 7.44954 39.256 7.08954 39.352 6.68954C39.464 6.27354 39.576 5.88954 39.688 5.53754C39.704 5.18554 39.832 4.96954 40.072 4.88954C40.312 4.79354 40.568 4.77754 40.84 4.84154C41.128 4.90554 41.328 5.01754 41.44 5.17754C41.6 5.33754 41.752 5.58554 41.896 5.92154C42.04 6.25754 42 6.68154 41.776 7.19354C41.456 7.97754 41.144 8.93754 40.84 10.0735C40.552 11.1935 40.288 12.5535 40.048 14.1535C39.984 14.5375 39.912 14.9695 39.832 15.4495C39.768 15.9135 39.704 16.3615 39.64 16.7935C39.592 17.2255 39.552 17.5855 39.52 17.8735C39.504 18.1455 39.512 18.2895 39.544 18.3055C39.672 18.3375 39.808 18.2655 39.952 18.0895C40.112 17.9135 40.28 17.6335 40.456 17.2495C41.112 16.1615 41.728 15.0815 42.304 14.0095C42.896 12.9375 43.488 11.8175 44.08 10.6495C44.352 10.1855 44.624 9.68154 44.896 9.13754C45.184 8.57754 45.456 8.06554 45.712 7.60154C45.984 7.12154 46.248 6.65754 46.504 6.20954C46.76 5.76154 46.984 5.38554 47.176 5.08154C47.368 4.76154 47.512 4.58554 47.608 4.55354C48.04 4.55354 48.36 4.66554 48.568 4.88954C48.792 5.11354 48.968 5.38554 49.096 5.70554C49.128 5.78554 49.144 5.92154 49.144 6.11354C49.16 6.30554 49.136 6.47354 49.072 6.61754C49.056 6.72954 48.984 6.96154 48.856 7.31354C48.744 7.66554 48.64 8.05754 48.544 8.48954C48.384 8.92154 48.24 9.35354 48.112 9.78554C48 10.2015 47.92 10.5455 47.872 10.8175C47.744 11.5055 47.584 12.2575 47.392 13.0735C47.2 13.8895 47.032 14.7055 46.888 15.5215C46.76 16.3215 46.688 17.0335 46.672 17.6575C46.656 18.1055 46.656 18.4015 46.672 18.5455C46.704 18.6735 46.752 18.8095 46.816 18.9535C46.848 19.0815 46.92 19.1135 47.032 19.0495C47.144 18.9855 47.256 18.8735 47.368 18.7135C47.592 18.3775 47.76 18.0895 47.872 17.8495C48 17.6095 48.128 17.3535 48.256 17.0815C48.384 16.7935 48.56 16.4335 48.784 16.0015C49.184 15.2655 49.592 14.4575 50.008 13.5775C50.44 12.6975 50.848 11.8255 51.232 10.9615C51.632 10.0975 51.976 9.32954 52.264 8.65754C52.568 7.79354 52.824 7.09754 53.032 6.56954C53.24 6.02554 53.432 5.60954 53.608 5.32154C53.784 5.03354 53.952 4.84154 54.112 4.74554C54.192 4.68154 54.36 4.64954 54.616 4.64954C54.888 4.64954 55.096 4.71354 55.24 4.84154C55.304 4.90554 55.416 5.00954 55.576 5.15354C55.736 5.29754 55.808 5.46554 55.792 5.65754C55.712 5.91354 55.56 6.32954 55.336 6.90554C55.128 7.48154 54.88 8.12154 54.592 8.82554C54.32 9.51354 54.048 10.1775 53.776 10.8175C53.52 11.4415 53.304 11.9375 53.128 12.3055C52.952 12.6415 52.784 12.9295 52.624 13.1695C52.464 13.4095 52.384 13.5935 52.384 13.7215C52.384 13.7855 52.304 13.9855 52.144 14.3215C51.984 14.6415 51.776 15.0335 51.52 15.4975C51.28 15.9615 51.016 16.4415 50.728 16.9375C50.44 17.4335 50.168 17.8895 49.912 18.3055C49.656 18.7215 49.44 19.0415 49.264 19.2655C48.864 19.7615 48.432 20.1775 47.968 20.5135C47.52 20.8655 47.12 21.1295 46.768 21.3055C46.416 21.4815 46.184 21.5695 46.072 21.5695ZM58.5398 19.6015C58.0598 19.8735 57.5478 20.0335 57.0038 20.0815C56.4758 20.1135 55.9798 20.0415 55.5158 19.8655C55.0518 19.6735 54.6758 19.3935 54.3878 19.0255C54.2278 18.8175 54.0758 18.4895 53.9318 18.0415C53.7878 17.5775 53.7638 16.9535 53.8598 16.1695C53.9558 15.4335 54.1798 14.6895 54.5318 13.9375C54.8998 13.1855 55.3478 12.5215 55.8758 11.9455C56.4038 11.3695 56.9798 10.9775 57.6038 10.7695C57.8278 10.6895 58.0518 10.6335 58.2758 10.6015C58.5158 10.5535 58.8278 10.5455 59.2118 10.5775C59.5798 10.6255 59.9078 10.7215 60.1958 10.8655C60.4838 10.9935 60.6918 11.1375 60.8198 11.2975C61.0758 11.5535 61.2438 11.8015 61.3238 12.0415C61.4038 12.2815 61.4358 12.5135 61.4198 12.7375C61.3398 13.2495 61.1078 13.8015 60.7238 14.3935C60.3558 14.9855 59.8358 15.4255 59.1638 15.7135C58.8918 15.8255 58.5718 15.8975 58.2038 15.9295C57.8358 15.9615 57.3318 15.9135 56.6918 15.7855C56.3078 15.7055 56.0518 15.7455 55.9238 15.9055C55.8118 16.0655 55.7638 16.3775 55.7798 16.8415C55.8118 17.1295 55.8758 17.3855 55.9718 17.6095C56.0838 17.8175 56.2838 17.9615 56.5718 18.0415C56.9398 18.1055 57.2038 18.1135 57.3638 18.0655C57.5238 18.0015 57.7238 17.9135 57.9638 17.8015C58.0918 17.7215 58.2118 17.6335 58.3238 17.5375C58.4518 17.4415 58.5718 17.3455 58.6838 17.2495C58.8118 17.1535 58.9158 17.0815 58.9958 17.0335C59.0758 16.9695 59.1558 16.9295 59.2358 16.9135C59.3158 16.8975 59.3958 16.8895 59.4758 16.8895C59.6518 16.9055 59.8198 17.0015 59.9798 17.1775C60.1398 17.3535 60.2438 17.5215 60.2918 17.6815C60.2918 17.8095 60.2118 17.9935 60.0518 18.2335C59.8918 18.4575 59.6758 18.6975 59.4038 18.9535C59.1478 19.1935 58.8598 19.4095 58.5398 19.6015ZM58.2278 14.2495C58.3398 14.2015 58.4998 14.0895 58.7078 13.9135C58.9318 13.7375 59.1318 13.5535 59.3078 13.3615C59.4838 13.1535 59.5718 12.9935 59.5718 12.8815C59.5718 12.7055 59.4518 12.5535 59.2118 12.4255C58.9878 12.2975 58.6918 12.2735 58.3238 12.3535C58.1958 12.3855 58.0438 12.4735 57.8678 12.6175C57.6918 12.7615 57.5158 12.9295 57.3398 13.1215C57.1638 13.2975 57.0118 13.4735 56.8838 13.6495C56.7558 13.8095 56.6678 13.9375 56.6198 14.0335C56.6838 14.1135 56.8118 14.1775 57.0038 14.2255C57.1958 14.2735 57.4038 14.2975 57.6278 14.2975C57.8678 14.2975 58.0678 14.2815 58.2278 14.2495ZM69.4399 20.1055C69.2639 20.0735 69.0719 19.9695 68.8639 19.7935C68.6559 19.6015 68.4639 19.3935 68.2879 19.1695C68.1279 18.9295 68.0239 18.7295 67.9759 18.5695C67.9759 18.5375 67.9519 18.4975 67.9039 18.4495C67.8719 18.4015 67.8559 18.3775 67.8559 18.3775C67.7919 18.3295 67.7519 18.1215 67.7359 17.7535C67.7359 17.3695 67.7599 16.9455 67.8079 16.4815C67.8559 16.0175 67.9119 15.6495 67.9759 15.3775C68.0559 15.1215 68.1759 14.7775 68.3359 14.3455C68.4959 13.8975 68.6319 13.4975 68.7439 13.1455L69.3919 11.7535L68.4319 11.4895C68.3199 11.4575 68.2239 11.3935 68.1439 11.2975C68.0799 11.2015 68.0479 11.1215 68.0479 11.0575C68.0479 10.9295 68.1199 10.7455 68.2639 10.5055C68.4079 10.2655 68.5119 10.1455 68.5759 10.1455C68.6559 10.1615 68.7999 10.1695 69.0079 10.1695C69.2319 10.1695 69.4479 10.1615 69.6559 10.1455C69.8639 10.1295 69.9919 10.1135 70.0399 10.0975C70.1039 10.0655 70.1679 10.0255 70.2319 9.97754C70.2959 9.91354 70.3439 9.82554 70.3759 9.71354C70.4559 9.53754 70.5279 9.40154 70.5919 9.30554C70.6559 9.20954 70.7439 9.06554 70.8559 8.87354C70.9679 8.66554 71.0559 8.48954 71.1199 8.34554C71.1999 8.20154 71.3199 8.00154 71.4799 7.74554C71.5599 7.63354 71.6479 7.49754 71.7439 7.33754C71.8399 7.17754 71.9599 7.04154 72.1039 6.92954C72.2479 6.80154 72.4799 6.71354 72.7999 6.66554C73.1359 6.60154 73.4239 6.67354 73.6639 6.88154C73.7919 7.04154 73.8639 7.19354 73.8799 7.33754C73.8959 7.48154 73.8319 7.66554 73.6879 7.88954C73.5599 8.16154 73.4079 8.40954 73.2319 8.63354C73.0719 8.84154 72.9199 9.08154 72.7759 9.35354C72.5199 9.70554 72.4719 9.90554 72.6319 9.95354C72.7919 10.0015 73.2399 9.96954 73.9759 9.85754C74.4399 9.77754 74.7759 9.82554 74.9839 10.0015C75.1919 10.1775 75.3119 10.4015 75.3439 10.6735C75.3919 11.0575 75.3519 11.2895 75.2239 11.3695C75.0959 11.4495 74.7279 11.4895 74.1199 11.4895C73.7359 11.5535 73.4079 11.5935 73.1359 11.6095C72.8639 11.6095 72.6639 11.6095 72.5359 11.6095C72.3279 11.6255 72.1919 11.6335 72.1279 11.6335C72.0639 11.6335 71.9679 11.6495 71.8399 11.6815C71.7119 11.7135 71.6159 11.7695 71.5519 11.8495C71.5039 11.9135 71.4479 12.0095 71.3839 12.1375C71.3199 12.2015 71.2239 12.3695 71.0959 12.6415C70.9679 12.9135 70.8079 13.2095 70.6159 13.5295C70.3919 14.2015 70.1999 14.8495 70.0399 15.4735C69.8959 16.0815 69.7679 16.6895 69.6559 17.2975C69.6079 17.6015 69.6159 17.8255 69.6799 17.9695C69.7599 18.0975 69.9679 18.1775 70.3039 18.2095C70.4799 18.2255 70.7359 18.2255 71.0719 18.2095C71.4079 18.1775 71.6879 18.1295 71.9119 18.0655C72.0879 17.9855 72.2719 17.9055 72.4639 17.8255C72.6559 17.7295 72.8319 17.6335 72.9919 17.5375C73.1359 17.4575 73.2799 17.3775 73.4239 17.2975C73.5679 17.2015 73.6399 17.1535 73.6399 17.1535C73.7199 17.0255 73.8319 17.0495 73.9759 17.2255C74.1359 17.3855 74.2479 17.5615 74.3119 17.7535C74.3119 17.9455 74.2719 18.1775 74.1919 18.4495C74.1119 18.7055 73.8159 18.9775 73.3039 19.2655C72.5839 19.7135 71.8639 19.9855 71.1439 20.0815C70.4239 20.1775 69.8559 20.1855 69.4399 20.1055ZM83.3853 19.6975C82.9853 19.8895 82.5933 19.9615 82.2093 19.9135C81.8413 19.8495 81.5293 19.6495 81.2733 19.3135C81.0333 18.9615 80.9133 18.4495 80.9133 17.7775C80.9133 17.6015 80.9213 17.3935 80.9373 17.1535C80.9693 16.8975 81.0173 16.6335 81.0813 16.3615C81.1453 16.0735 81.2253 15.7855 81.3213 15.4975C81.3693 15.3535 81.4333 15.2095 81.5133 15.0655C81.6093 14.9215 81.6253 14.8495 81.5613 14.8495C81.4973 14.8495 81.4173 14.8895 81.3213 14.9695C81.2413 15.0495 81.1773 15.1135 81.1293 15.1615C80.7293 15.5135 80.3613 15.8815 80.0253 16.2655C79.7053 16.6335 79.4173 17.0015 79.1613 17.3695C78.9213 17.7215 78.7293 18.0495 78.5853 18.3535C78.4573 18.6575 78.3933 18.9135 78.3933 19.1215C78.3933 19.3615 78.2733 19.5295 78.0333 19.6255C77.7933 19.7215 77.5853 19.7135 77.4093 19.6015C77.1053 19.4255 76.8253 19.1535 76.5693 18.7855C76.3293 18.4175 76.2333 17.9375 76.2812 17.3455C76.3293 16.5935 76.3933 15.9215 76.4733 15.3295C76.5533 14.7375 76.6813 14.0975 76.8573 13.4095C77.0493 12.7055 77.2973 11.8495 77.6013 10.8415C77.8093 10.2815 78.0013 9.75354 78.1773 9.25754C78.3533 8.74554 78.5053 8.31354 78.6333 7.96154C78.7773 7.60954 78.8653 7.39354 78.8973 7.31354C78.9773 7.23354 79.0813 7.04154 79.2093 6.73754C79.3373 6.41754 79.4493 6.09754 79.5453 5.77754C79.6573 5.45754 79.7133 5.26554 79.7133 5.20154C79.7133 5.07354 79.7373 4.96154 79.7853 4.86554C79.8493 4.76954 79.9053 4.68154 79.9533 4.60154C80.0493 4.37754 80.1293 4.22554 80.1933 4.14554C80.2733 4.04954 80.3453 4.00154 80.4093 4.00154C80.4893 4.00154 80.6173 4.04154 80.7933 4.12154C80.9853 4.20154 81.1613 4.30554 81.3213 4.43354C81.4973 4.54554 81.6013 4.66554 81.6333 4.79354C81.7453 5.01754 81.8093 5.24954 81.8253 5.48954C81.8413 5.71354 81.7853 5.99354 81.6573 6.32954C81.5293 6.66554 81.3053 7.12954 80.9853 7.72154C80.7293 8.21754 80.4973 8.72954 80.2893 9.25754C80.0813 9.78554 79.8813 10.3375 79.6893 10.9135C79.6093 11.1535 79.5053 11.4735 79.3773 11.8735C79.2493 12.2575 79.1213 12.6575 78.9933 13.0735C78.8813 13.4735 78.7853 13.8335 78.7053 14.1535C78.6253 14.4735 78.5853 14.6815 78.5853 14.7775C78.5853 14.8895 78.6493 14.9455 78.7773 14.9455C78.9053 14.9295 79.0333 14.8335 79.1613 14.6575C79.2253 14.5295 79.3293 14.4095 79.4733 14.2975C79.6173 14.1695 79.7453 14.0415 79.8573 13.9135C79.9853 13.7535 80.1373 13.5695 80.3133 13.3615C80.5053 13.1375 80.7053 12.9295 80.9133 12.7375C81.1373 12.5295 81.3373 12.3615 81.5133 12.2335C81.7053 12.1055 81.8653 12.0415 81.9933 12.0415C82.2973 12.0415 82.5533 12.1295 82.7613 12.3055C82.9693 12.4815 83.1453 12.7535 83.2893 13.1215C83.3373 13.1695 83.3853 13.2335 83.4333 13.3135C83.4813 13.3775 83.5133 13.4255 83.5293 13.4575C83.6093 13.5215 83.6493 13.7775 83.6493 14.2255C83.6493 14.6575 83.5213 15.2575 83.2653 16.0255C83.1213 16.6175 83.0333 17.0575 83.0013 17.3455C82.9853 17.6335 83.0413 17.7775 83.1693 17.7775C83.1693 17.7775 83.2493 17.7295 83.4093 17.6335C83.5853 17.5375 83.7693 17.4335 83.9613 17.3215C84.4253 17.0175 84.7613 16.9215 84.9693 17.0335C85.1773 17.1455 85.2812 17.2895 85.2812 17.4655C85.2812 17.6095 85.2253 17.7775 85.1133 17.9695C85.0173 18.1615 84.9693 18.2895 84.9693 18.3535C84.9693 18.3535 84.9693 18.3615 84.9693 18.3775C84.9693 18.3775 84.9693 18.4095 84.9693 18.4735C84.9693 18.5055 84.8653 18.6175 84.6573 18.8095C84.4493 19.0015 84.2173 19.1935 83.9613 19.3855C83.7213 19.5615 83.5293 19.6655 83.3853 19.6975ZM88.4946 20.0575C88.1106 20.0575 87.7746 19.8575 87.4866 19.4575C87.2146 19.0415 87.0466 18.5455 86.9826 17.9695C86.9986 17.8415 87.0146 17.6575 87.0306 17.4175C87.0626 17.1775 87.0946 16.9295 87.1266 16.6735C87.1906 16.3695 87.2786 15.9775 87.3906 15.4975C87.5026 15.0175 87.6226 14.5375 87.7506 14.0575C87.8786 13.5615 87.9906 13.1375 88.0866 12.7855C88.1826 12.4175 88.2386 12.2015 88.2546 12.1375C88.3506 11.9135 88.5666 11.8575 88.9026 11.9695C89.2386 12.0815 89.5266 12.3215 89.7666 12.6895C89.8626 12.8175 89.9186 12.9695 89.9346 13.1455C89.9666 13.3215 89.9426 13.5775 89.8626 13.9135C89.7986 14.2495 89.6706 14.7455 89.4786 15.4015C89.3026 16.0415 89.1666 16.5615 89.0706 16.9615C88.9906 17.3455 88.9586 17.7535 88.9746 18.1855C88.9106 18.9215 88.8466 19.4255 88.7826 19.6975C88.7186 19.9535 88.6226 20.0735 88.4946 20.0575ZM90.7026 10.0975C90.6386 10.1455 90.5746 10.1695 90.5106 10.1695C90.4626 10.1535 90.3746 10.1055 90.2466 10.0255C90.1346 10.0095 89.9906 9.93754 89.8146 9.80954C89.6546 9.66554 89.5106 9.52154 89.3826 9.37754C89.2706 9.23354 89.2146 9.14554 89.2146 9.11354C89.1986 8.95354 89.2066 8.69754 89.2386 8.34554C89.2866 7.99354 89.3746 7.66554 89.5026 7.36154C89.6466 7.04154 89.8386 6.87354 90.0786 6.85754C90.1426 6.85754 90.2786 6.88954 90.4866 6.95354C90.7106 7.01754 90.9426 7.09754 91.1826 7.19354C91.3106 7.43354 91.4306 7.74554 91.5426 8.12954C91.6546 8.51354 91.6626 8.88954 91.5666 9.25754C91.4866 9.60954 91.1986 9.88954 90.7026 10.0975ZM92.7496 19.2655C92.6856 19.2655 92.5336 19.2095 92.2936 19.0975C92.0536 18.9695 91.9016 18.8735 91.8376 18.8095C91.7256 18.6815 91.6536 18.5455 91.6216 18.4015C91.5896 18.2415 91.5736 17.9375 91.5736 17.4895C91.5736 16.9775 91.6776 16.4015 91.8856 15.7615C92.0936 15.1055 92.4456 14.2335 92.9416 13.1455L93.9256 11.1535C94.0056 11.0415 94.0776 10.9455 94.1416 10.8655C94.2056 10.7695 94.2776 10.6815 94.3576 10.6015C94.3896 10.6015 94.4296 10.6015 94.4776 10.6015C94.5416 10.6015 94.5896 10.6095 94.6216 10.6255C94.7656 10.6415 94.9896 10.7295 95.2936 10.8895C95.6136 11.0495 95.8056 11.2895 95.8696 11.6095C95.8696 11.8175 95.8376 12.0655 95.7736 12.3535C95.7096 12.6255 95.5176 12.9855 95.1976 13.4335C95.0696 13.5935 94.9416 13.8255 94.8136 14.1295C94.7016 14.4335 94.5976 14.7215 94.5016 14.9935C94.4856 15.0255 94.4376 15.1055 94.3576 15.2335C94.2936 15.3455 94.2296 15.4655 94.1656 15.5935C94.1016 15.7055 94.0696 15.7775 94.0696 15.8095L93.9736 16.0255L95.0056 15.0175C95.7256 14.2975 96.3336 13.7855 96.8296 13.4815C97.3256 13.1775 97.7416 13.0495 98.0776 13.0975C98.4296 13.1455 98.7096 13.3455 98.9176 13.6975C99.0296 13.8575 99.1096 14.0335 99.1576 14.2255C99.2056 14.4015 99.2376 14.6095 99.2536 14.8495C99.2696 15.0895 99.2616 15.3935 99.2296 15.7615V17.1295C99.5336 17.0495 99.7656 16.9855 99.9256 16.9375C100.086 16.8735 100.246 16.8175 100.406 16.7695C100.534 16.7375 100.662 16.7055 100.79 16.6735C100.934 16.6415 101.11 16.6175 101.318 16.6015C101.302 16.8095 101.214 17.0655 101.054 17.3695C100.894 17.6735 100.694 17.9775 100.454 18.2815C100.23 18.5855 99.9816 18.8415 99.7096 19.0495C99.4536 19.2575 99.2136 19.3615 98.9896 19.3615C98.7816 19.3615 98.5416 19.2975 98.2696 19.1695C97.9976 19.0255 97.7656 18.7535 97.5736 18.3535C97.5096 18.1455 97.4456 17.9055 97.3816 17.6335C97.3176 17.3615 97.2856 17.0735 97.2856 16.7695V15.7135C97.2856 15.6175 97.2776 15.5535 97.2616 15.5215C97.2616 15.4735 97.2536 15.4495 97.2376 15.4495C97.1736 15.4495 96.9656 15.6175 96.6136 15.9535C96.2776 16.2895 95.9336 16.6415 95.5816 17.0095C94.8456 17.7775 94.2296 18.3455 93.7336 18.7135C93.2536 19.0815 92.9256 19.2655 92.7496 19.2655ZM103.189 20.1535C103.061 20.1055 102.893 19.9775 102.685 19.7695C102.477 19.5455 102.293 19.3055 102.133 19.0495C101.973 18.7775 101.893 18.5535 101.893 18.3775C101.973 18.2015 102.077 17.8895 102.205 17.4415C102.349 16.9935 102.509 16.4895 102.685 15.9295C102.813 15.7535 102.909 15.5535 102.973 15.3295C103.053 15.0895 103.125 14.8735 103.189 14.6815C103.317 14.3935 103.461 14.0655 103.621 13.6975C103.781 13.3295 103.933 12.9535 104.077 12.5695C104.237 12.1855 104.381 11.8495 104.509 11.5615C104.733 11.0815 104.917 10.6655 105.061 10.3135C105.221 9.94554 105.373 9.58554 105.517 9.23354C105.677 8.88154 105.845 8.48954 106.021 8.05754C106.261 7.56154 106.477 7.07354 106.669 6.59354C106.877 6.09754 107.053 5.65754 107.197 5.27354C107.357 4.88954 107.453 4.61754 107.485 4.45754C107.469 4.32954 107.485 4.24154 107.533 4.19354C107.581 4.12954 107.645 4.08954 107.725 4.07354C107.805 4.02554 107.933 3.99354 108.109 3.97754C108.285 3.96154 108.405 3.95354 108.469 3.95354C108.661 3.98554 108.853 4.14554 109.045 4.43354C109.253 4.70554 109.357 4.93754 109.357 5.12954C109.357 5.38554 109.229 5.86554 108.973 6.56954C108.733 7.25754 108.381 8.07354 107.917 9.01754C107.357 10.2175 106.933 11.1455 106.645 11.8015C106.373 12.4575 106.189 12.9215 106.093 13.1935C105.997 13.4655 105.957 13.6415 105.973 13.7215C105.973 13.7215 106.037 13.6975 106.165 13.6495C106.293 13.6015 106.485 13.4895 106.741 13.3135C106.917 13.2015 107.117 13.0575 107.341 12.8815C107.565 12.7055 107.781 12.5455 107.989 12.4015C108.213 12.2575 108.389 12.1695 108.517 12.1375C108.597 12.0735 108.709 11.9935 108.853 11.8975C108.997 11.8015 109.133 11.7135 109.261 11.6335C109.565 11.4095 109.805 11.3375 109.981 11.4175C110.157 11.4975 110.317 11.6335 110.461 11.8255C110.637 12.0335 110.701 12.2575 110.653 12.4975C110.621 12.7215 110.373 13.0175 109.909 13.3855C109.557 13.6415 109.181 13.8895 108.781 14.1295C108.381 14.3535 108.013 14.5535 107.677 14.7295C107.357 14.9055 107.125 15.0495 106.981 15.1615C106.981 15.1615 107.053 15.2655 107.197 15.4735C107.341 15.6815 107.477 15.8815 107.605 16.0735C107.733 16.3295 107.893 16.6575 108.085 17.0575C108.277 17.4415 108.421 17.7135 108.517 17.8735C108.693 18.1295 108.869 18.2975 109.045 18.3775C109.237 18.4575 109.517 18.4335 109.885 18.3055C110.125 18.2415 110.325 18.2495 110.485 18.3295C110.661 18.3935 110.805 18.5055 110.917 18.6655C110.981 18.7935 111.013 18.9215 111.013 19.0495C111.013 19.1775 110.909 19.3295 110.701 19.5055C110.253 19.8095 109.813 20.0655 109.381 20.2735C108.965 20.4975 108.565 20.4815 108.181 20.2255C107.845 19.9695 107.525 19.6815 107.221 19.3615C106.933 19.0255 106.605 18.6175 106.237 18.1375C106.237 18.0735 106.189 17.9375 106.093 17.7295C105.997 17.5215 105.933 17.4015 105.901 17.3695C105.837 17.2415 105.765 17.1295 105.685 17.0335C105.621 16.9215 105.589 16.8655 105.589 16.8655C105.541 16.6895 105.477 16.5455 105.397 16.4335C105.333 16.3215 105.245 16.2575 105.133 16.2415C105.069 16.2895 104.997 16.3695 104.917 16.4815C104.837 16.5935 104.757 16.7295 104.677 16.8895C104.581 17.1295 104.485 17.3695 104.389 17.6095C104.293 17.8335 104.213 18.0815 104.149 18.3535C104.085 18.6095 104.045 18.9215 104.029 19.2895C104.045 19.4655 103.973 19.6575 103.813 19.8655C103.653 20.0575 103.445 20.1535 103.189 20.1535ZM118.05 19.2895C117.986 19.2895 117.85 19.2415 117.642 19.1455C117.434 19.0495 117.33 19.0015 117.33 19.0015C117.33 18.9375 117.306 18.8575 117.258 18.7615C117.226 18.6655 117.21 18.5855 117.21 18.5215C117.098 18.4575 116.986 18.3535 116.874 18.2095C116.762 18.0655 116.738 17.9055 116.802 17.7295C116.898 17.5535 117.026 17.2895 117.186 16.9375C117.362 16.5695 117.546 16.1615 117.738 15.7135C117.946 15.2495 118.138 14.8015 118.314 14.3695C118.49 13.9375 118.642 13.5695 118.77 13.2655C118.898 12.9455 118.97 12.7535 118.986 12.6895C118.986 12.6255 118.994 12.5135 119.01 12.3535C119.042 12.1935 119.146 12.0575 119.322 11.9455C119.53 11.8015 119.746 11.7935 119.97 11.9215C120.194 12.0495 120.386 12.2735 120.546 12.5935C120.706 12.8975 120.786 13.2575 120.786 13.6735C120.786 13.7855 120.706 14.0735 120.546 14.5375C120.386 14.9855 120.17 15.5215 119.898 16.1455C119.642 16.7695 119.354 17.4015 119.034 18.0415C118.794 18.5055 118.61 18.8335 118.482 19.0255C118.37 19.2015 118.226 19.2895 118.05 19.2895ZM121.314 10.0975C121.122 10.0975 120.89 10.0095 120.618 9.83354C120.362 9.65754 120.13 9.43354 119.922 9.16154C119.714 8.88954 119.61 8.60154 119.61 8.29754C119.61 8.21754 119.682 8.07354 119.826 7.86554C119.97 7.64154 120.106 7.42554 120.234 7.21754C120.378 7.00954 120.45 6.88954 120.45 6.85754C120.578 6.85754 120.73 6.88154 120.906 6.92954C121.082 6.97754 121.226 7.03354 121.338 7.09754C121.514 7.49754 121.746 7.84154 122.034 8.12954C122.322 8.40154 122.466 8.71354 122.466 9.06554C122.466 9.41754 122.378 9.68154 122.202 9.85754C122.026 10.0175 121.73 10.0975 121.314 10.0975ZM125.137 20.2255C124.913 20.1615 124.689 20.0495 124.465 19.8895C124.241 19.7295 124.009 19.5455 123.769 19.3375C123.577 19.0815 123.441 18.8495 123.361 18.6415C123.281 18.4175 123.233 18.1615 123.217 17.8735C123.217 17.5695 123.217 17.1855 123.217 16.7215C123.217 16.5295 123.249 16.2575 123.313 15.9055C123.393 15.5535 123.473 15.1855 123.553 14.8015C123.649 14.4175 123.737 14.0815 123.817 13.7935C123.897 13.4895 123.945 13.2895 123.961 13.1935C124.009 12.9855 123.929 12.8655 123.721 12.8335C123.513 12.8015 123.281 12.7935 123.025 12.8095C122.785 12.8095 122.625 12.7855 122.545 12.7375C122.481 12.7215 122.449 12.6415 122.449 12.4975C122.449 12.3375 122.449 12.2575 122.449 12.2575C122.449 12.1935 122.417 12.1535 122.353 12.1375C122.289 12.1055 122.233 12.0495 122.185 11.9695C122.153 11.9055 122.193 11.7855 122.305 11.6095C122.417 11.4335 122.561 11.3295 122.737 11.2975C122.881 11.2655 123.097 11.2415 123.385 11.2255C123.673 11.1935 123.961 11.1375 124.249 11.0575C124.553 10.9615 124.785 10.8175 124.945 10.6255C125.089 10.2735 125.249 9.89754 125.425 9.49754C125.601 9.08154 125.769 8.72154 125.929 8.41754C126.089 8.09754 126.201 7.89754 126.265 7.81754C126.537 7.67354 126.817 7.61754 127.105 7.64954C127.393 7.66554 127.617 7.80154 127.777 8.05754C127.857 8.16954 127.921 8.24954 127.969 8.29754C128.033 8.34554 128.057 8.41754 128.041 8.51354C128.041 8.60954 127.977 8.78554 127.849 9.04154C127.737 9.28154 127.545 9.65754 127.273 10.1695C127.193 10.3295 127.121 10.4735 127.057 10.6015C126.993 10.7135 126.961 10.7695 126.961 10.7695C127.025 10.7855 127.121 10.7935 127.249 10.7935C127.377 10.7935 127.537 10.7855 127.729 10.7695C127.905 10.7375 128.097 10.7135 128.305 10.6975C128.513 10.6655 128.697 10.6655 128.857 10.6975C129.225 10.6975 129.497 10.8015 129.673 11.0095C129.849 11.2175 129.945 11.4815 129.961 11.8015C129.993 11.9775 129.929 12.1295 129.769 12.2575C129.609 12.3855 129.313 12.4495 128.881 12.4495C128.737 12.4495 128.529 12.4575 128.257 12.4735C127.985 12.4895 127.705 12.5055 127.417 12.5215C127.129 12.5375 126.881 12.5615 126.673 12.5935C126.481 12.6095 126.385 12.6335 126.385 12.6655C126.337 12.6975 126.257 12.8255 126.145 13.0495C126.049 13.2575 125.945 13.5135 125.833 13.8175C125.737 14.1215 125.649 14.4095 125.569 14.6815C125.457 15.2255 125.377 15.7535 125.329 16.2655C125.281 16.7775 125.273 17.2255 125.305 17.6095C125.353 17.9775 125.449 18.2415 125.593 18.4015C125.737 18.5455 125.953 18.5455 126.241 18.4015C126.545 18.2415 126.825 18.0575 127.081 17.8495C127.369 17.6095 127.617 17.5375 127.825 17.6335C128.033 17.7135 128.161 17.8895 128.209 18.1615C128.273 18.4175 128.201 18.6975 127.993 19.0015C127.801 19.3055 127.529 19.5615 127.177 19.7695C126.825 19.9775 126.465 20.1215 126.097 20.2015C125.729 20.2975 125.409 20.3055 125.137 20.2255ZM135.847 19.6735C135.719 19.5455 135.623 19.3535 135.559 19.0975C135.511 18.8415 135.495 18.5935 135.511 18.3535C135.527 18.0975 135.567 17.9055 135.631 17.7775C135.631 17.6495 135.647 17.5535 135.679 17.4895C135.727 17.4095 135.743 17.3375 135.727 17.2735C135.711 17.2095 135.727 17.0975 135.775 16.9375C135.823 16.7775 135.871 16.6255 135.919 16.4815C136.031 16.2255 136.159 15.8975 136.303 15.4975C136.447 15.0815 136.591 14.6655 136.735 14.2495C136.879 13.8175 136.999 13.4495 137.095 13.1455C137.191 12.8255 137.247 12.6335 137.263 12.5695C137.263 12.3775 137.391 12.2735 137.647 12.2575C137.839 12.1935 138.071 12.2735 138.343 12.4975C138.615 12.7215 138.831 12.9615 138.991 13.2175C139.119 13.3455 139.167 13.5135 139.135 13.7215C139.103 13.9295 138.999 14.2255 138.823 14.6095C138.759 14.7375 138.679 14.9535 138.583 15.2575C138.503 15.5455 138.447 15.7855 138.415 15.9775C138.351 16.1055 138.271 16.2895 138.175 16.5295C138.095 16.7535 138.023 16.9695 137.959 17.1775C137.927 17.2575 137.895 17.4095 137.863 17.6335C137.831 17.8415 137.791 18.0575 137.743 18.2815C137.695 18.5055 137.631 18.6815 137.551 18.8095C137.407 19.4655 137.151 19.8495 136.783 19.9615C136.431 20.0735 136.119 19.9775 135.847 19.6735ZM138.439 10.0495C138.263 9.92154 138.127 9.76954 138.031 9.59354C137.951 9.40154 137.903 9.23354 137.887 9.08954C137.887 8.94554 137.903 8.85754 137.935 8.82554C138.095 8.64954 138.231 8.41754 138.343 8.12954C138.471 7.84154 138.607 7.57754 138.751 7.33754C138.783 7.28954 138.823 7.22554 138.871 7.14554C138.935 7.04954 138.999 6.99354 139.063 6.97754C139.255 6.84954 139.519 6.85754 139.855 7.00154C140.207 7.14554 140.463 7.34554 140.623 7.60154C140.767 7.90554 140.807 8.21754 140.743 8.53754C140.695 8.85754 140.527 9.19354 140.239 9.54554C139.999 9.86554 139.695 10.0735 139.327 10.1695C138.959 10.2495 138.663 10.2095 138.439 10.0495ZM142.862 20.2495C142.014 20.2495 141.39 19.9775 140.99 19.4335C140.878 19.1775 140.822 18.9215 140.822 18.6655C140.838 18.3935 140.902 18.2015 141.014 18.0895C141.126 17.9615 141.262 17.9855 141.422 18.1615C141.63 18.2895 141.926 18.3535 142.31 18.3535C142.502 18.3535 142.67 18.3535 142.814 18.3535C142.974 18.3375 143.158 18.3215 143.366 18.3055C143.734 18.2735 143.966 18.1615 144.062 17.9695C144.174 17.7775 144.15 17.6175 143.99 17.4895H144.014C143.582 17.3775 143.158 17.2175 142.742 17.0095C142.326 16.8015 141.974 16.5695 141.686 16.3135C141.398 16.0415 141.23 15.7855 141.182 15.5455C141.054 15.0175 141.086 14.4735 141.278 13.9135C141.47 13.3535 141.75 12.8655 142.118 12.4495C142.262 12.3535 142.462 12.2175 142.718 12.0415C142.974 11.8495 143.158 11.7455 143.27 11.7295V11.7535C143.574 11.4335 143.918 11.1775 144.302 10.9855C144.686 10.7775 145.134 10.5855 145.646 10.4095L146.03 10.3615C146.222 10.3295 146.39 10.3135 146.534 10.3135C146.518 10.3135 146.558 10.3295 146.654 10.3615C146.75 10.3935 146.83 10.4175 146.894 10.4335C146.99 10.4815 147.086 10.5055 147.182 10.5055C147.406 10.5375 147.622 10.6575 147.83 10.8655C148.054 11.0575 148.23 11.2895 148.358 11.5615C148.502 11.8175 148.558 12.0575 148.526 12.2815C148.478 12.6495 148.342 13.0175 148.118 13.3855C147.894 13.7375 147.654 13.9375 147.398 13.9855C147.43 13.9695 147.398 13.9375 147.302 13.8895C147.206 13.8415 147.118 13.7935 147.038 13.7455L146.942 13.7935C146.942 13.7935 146.934 13.7695 146.918 13.7215C146.918 13.6735 146.902 13.6175 146.87 13.5535C146.806 13.4415 146.758 13.3215 146.726 13.1935C146.71 13.0655 146.71 12.9215 146.726 12.7615C146.758 12.5855 146.766 12.4815 146.75 12.4495C146.734 12.4175 146.638 12.3935 146.462 12.3775C146.254 12.3295 145.99 12.3535 145.67 12.4495C145.35 12.5295 145.054 12.6735 144.782 12.8815C144.462 13.0895 144.222 13.2575 144.062 13.3855C143.918 13.5135 143.806 13.6415 143.726 13.7695C143.646 13.8815 143.558 14.0495 143.462 14.2735C143.398 14.3855 143.342 14.4895 143.294 14.5855C143.246 14.6655 143.222 14.7455 143.222 14.8255C143.222 14.9855 143.358 15.1535 143.63 15.3295C143.902 15.4895 144.31 15.6815 144.854 15.9055C145.286 16.0815 145.566 16.3215 145.694 16.6255C145.838 16.9295 145.966 17.2175 146.078 17.4895C146.11 17.5535 146.142 17.6735 146.174 17.8495C146.222 18.0095 146.23 18.1055 146.198 18.1375C146.23 18.1695 146.246 18.2015 146.246 18.2335V18.2095C146.374 18.4495 146.35 18.7055 146.174 18.9775C146.014 19.2335 145.758 19.4735 145.406 19.6975C145.054 19.9055 144.654 20.0575 144.206 20.1535H144.23C143.99 20.1855 143.75 20.2095 143.51 20.2255C143.286 20.2415 143.07 20.2495 142.862 20.2495ZM35.464 49.6735C35.4 49.6735 35.304 49.6735 35.176 49.6735C35.064 49.6895 34.968 49.6255 34.888 49.4815C34.824 49.4015 34.728 49.2415 34.6 49.0015C34.472 48.7775 34.448 48.4575 34.528 48.0415C34.608 47.7695 34.672 47.4975 34.72 47.2255C34.768 46.9695 34.792 46.7775 34.792 46.6495C34.792 46.5855 34.808 46.4575 34.84 46.2655C34.888 46.0895 34.912 45.9615 34.912 45.8815C34.992 45.7535 35.056 45.5775 35.104 45.3535C35.152 45.1295 35.176 44.9295 35.176 44.7535C35.176 44.5615 35.272 44.3855 35.464 44.2255C35.464 44.0975 35.488 43.9375 35.536 43.7455C35.6 43.5535 35.632 43.4255 35.632 43.3615C35.68 43.1375 35.784 42.7455 35.944 42.1855C36.12 41.6095 36.328 40.9615 36.568 40.2415C36.824 39.5215 37.072 38.8175 37.312 38.1295C37.552 37.4415 37.768 36.8575 37.96 36.3775C38.152 35.9295 38.312 35.5135 38.44 35.1295C38.568 34.7455 38.632 34.4735 38.632 34.3135C38.632 34.2495 38.648 34.2015 38.68 34.1695C38.712 34.1215 38.784 34.0335 38.896 33.9055C39.056 33.7455 39.264 33.6895 39.52 33.7375C39.792 33.7695 40.016 33.8495 40.192 33.9775C40.32 34.1855 40.408 34.3775 40.456 34.5535C40.52 34.7135 40.52 34.9695 40.456 35.3215C40.456 35.5615 40.4 35.7855 40.288 35.9935C40.176 36.1855 40.072 36.3455 39.976 36.4735C39.896 36.5855 39.872 36.6335 39.904 36.6175C40.608 36.1855 41.24 35.9535 41.8 35.9215C42.376 35.8735 42.856 35.9695 43.24 36.2095C43.64 36.4335 43.944 36.7455 44.152 37.1455C44.36 37.5455 44.464 37.9775 44.464 38.4415C44.464 38.6335 44.4 38.8895 44.272 39.2095C44.144 39.5295 44 39.8335 43.84 40.1215C43.68 40.3935 43.552 40.5775 43.456 40.6735C43.392 40.6735 43.328 40.7295 43.264 40.8415C43.2 40.9375 43.136 41.0495 43.072 41.1775C42.944 41.3375 42.728 41.5215 42.424 41.7295C42.136 41.9215 41.84 42.0815 41.536 42.2095C41.232 42.3215 41.016 42.3535 40.888 42.3055C40.888 42.3055 40.864 42.3215 40.816 42.3535C40.784 42.3855 40.768 42.4415 40.768 42.5215C40.768 42.5535 40.656 42.6175 40.432 42.7135C40.208 42.8095 39.944 42.8975 39.64 42.9775C39.336 43.0575 39.056 43.0975 38.8 43.0975C38.464 43.0975 38.224 43.0335 38.08 42.9055C38.048 42.9375 38.008 42.9855 37.96 43.0495C37.928 43.1135 37.912 43.1695 37.912 43.2175C37.912 43.3135 37.872 43.4655 37.792 43.6735C37.728 43.8815 37.648 44.0655 37.552 44.2255C37.456 44.4015 37.368 44.4895 37.288 44.4895C37.288 44.4895 37.272 44.5135 37.24 44.5615C37.208 44.6095 37.224 44.6735 37.288 44.7535C37.288 44.7535 37.28 44.8415 37.264 45.0175C37.264 45.2095 37.224 45.3695 37.144 45.4975C37.144 45.6255 37.12 45.8175 37.072 46.0735C37.024 46.3295 36.968 46.5215 36.904 46.6495C36.904 46.8415 36.872 47.0255 36.808 47.2015C36.76 47.3935 36.704 47.4895 36.64 47.4895C36.576 47.5055 36.536 47.6015 36.52 47.7775C36.504 47.9695 36.496 48.1055 36.496 48.1855C36.48 48.5855 36.352 48.9295 36.112 49.2175C35.872 49.5215 35.656 49.6735 35.464 49.6735ZM38.536 41.2735C38.664 41.2735 38.896 41.2175 39.232 41.1055C39.568 40.9935 39.92 40.8575 40.288 40.6975C40.656 40.5215 40.944 40.3455 41.152 40.1695C41.568 39.8015 41.888 39.4415 42.112 39.0895C42.352 38.7375 42.336 38.3455 42.064 37.9135C41.936 37.6895 41.728 37.6015 41.44 37.6495C41.168 37.6815 40.864 37.8095 40.528 38.0335C40.192 38.2575 39.848 38.5375 39.496 38.8735C39.304 39.0815 39.128 39.3215 38.968 39.5935C38.808 39.8655 38.672 40.1295 38.56 40.3855C38.464 40.6415 38.408 40.8575 38.392 41.0335C38.376 41.1935 38.424 41.2735 38.536 41.2735ZM47.3903 43.5775C47.3423 43.5935 47.2383 43.5855 47.0783 43.5535C46.9343 43.5215 46.7823 43.4815 46.6223 43.4335C46.4783 43.3855 46.3903 43.3455 46.3583 43.3135C46.2943 43.2495 46.2063 43.1375 46.0943 42.9775C45.9823 42.8015 45.9183 42.5695 45.9023 42.2815C45.9023 41.9935 46.0383 41.6495 46.3103 41.2495C46.3903 41.0895 46.4863 40.8495 46.5983 40.5295C46.7103 40.2095 46.8223 39.8735 46.9343 39.5215C47.0623 39.1535 47.1743 38.8255 47.2703 38.5375C47.3823 38.2495 47.4623 38.0495 47.5103 37.9375C47.5423 37.6655 47.5263 37.4735 47.4623 37.3615C47.4143 37.2335 47.2783 37.1615 47.0543 37.1455C46.8943 37.1455 46.7663 37.0895 46.6703 36.9775C46.5903 36.8655 46.5503 36.6655 46.5503 36.3775C46.5823 36.1535 46.6383 35.9615 46.7183 35.8015C46.8143 35.6255 46.9423 35.4815 47.1023 35.3695C47.2623 35.2895 47.4623 35.2335 47.7023 35.2015C47.9583 35.1695 48.2063 35.1615 48.4463 35.1775C48.6863 35.1935 48.8543 35.2495 48.9503 35.3455C49.0623 35.4095 49.1503 35.5535 49.2143 35.7775C49.2943 35.9855 49.3583 36.2015 49.4063 36.4255C49.4543 36.6495 49.4863 36.8175 49.5023 36.9295C49.6623 36.8015 49.8383 36.6255 50.0303 36.4015C50.2383 36.1615 50.4463 35.9375 50.6543 35.7295C50.9103 35.5535 51.2143 35.3775 51.5663 35.2015C51.9183 35.0095 52.1743 34.9135 52.3343 34.9135C52.5103 34.9135 52.7263 35.0015 52.9823 35.1775C53.2383 35.3375 53.3983 35.4815 53.4623 35.6095C53.6223 35.8815 53.7343 36.1695 53.7983 36.4735C53.8783 36.7615 53.8303 37.0175 53.6543 37.2415C53.4943 37.4495 53.2703 37.6575 52.9823 37.8655C52.6943 38.0575 52.3343 38.1135 51.9023 38.0335C51.8063 38.0015 51.7023 37.8815 51.5903 37.6735C51.4943 37.4655 51.4383 37.3135 51.4223 37.2175C51.4223 37.1695 51.3503 37.2175 51.2063 37.3615C51.0783 37.4895 50.9183 37.6495 50.7263 37.8415C50.5503 38.0335 50.3823 38.2095 50.2223 38.3695C49.9503 38.7055 49.6623 39.1615 49.3583 39.7375C49.0543 40.3135 48.6943 41.0095 48.2783 41.8255C48.0863 42.2255 47.9263 42.6095 47.7983 42.9775C47.6703 43.3295 47.5343 43.5295 47.3903 43.5775ZM56.5428 44.5135C55.6628 44.5135 54.9828 44.2575 54.5028 43.7455C54.0388 43.2335 53.8068 42.4495 53.8068 41.3935C53.8068 40.8175 53.9108 40.1855 54.1188 39.4975C54.3428 38.8095 54.6308 38.1375 54.9828 37.4815C55.3508 36.8255 55.7508 36.2575 56.1828 35.7775C56.6148 35.2815 57.0468 34.9375 57.4788 34.7455C57.6388 34.6655 57.8068 34.6095 57.9828 34.5775C58.1748 34.5295 58.3588 34.5055 58.5348 34.5055C58.7268 34.5055 58.9348 34.5215 59.1588 34.5535C59.3988 34.5695 59.6228 34.6175 59.8308 34.6975C60.1988 34.8095 60.5188 35.0255 60.7908 35.3455C61.0788 35.6655 61.2228 36.1295 61.2228 36.7375C61.2228 36.8975 61.2068 37.0735 61.1748 37.2655C61.1428 37.4415 61.0868 37.6175 61.0068 37.7935C60.7988 38.3215 60.4788 38.8255 60.0468 39.3055C59.6308 39.7855 59.1908 40.1215 58.7268 40.3135C58.5988 40.3775 58.4708 40.4255 58.3428 40.4575C58.2308 40.4735 58.1108 40.4815 57.9828 40.4815C57.6468 40.4815 57.3428 40.4335 57.0708 40.3375C56.8148 40.2415 56.5748 40.1135 56.3508 39.9535L56.1588 39.7855L56.0388 40.0255C55.9268 40.3295 55.8468 40.5855 55.7988 40.7935C55.7668 41.0015 55.7508 41.1535 55.7508 41.2495C55.7508 41.4415 55.7588 41.6415 55.7748 41.8495C55.7908 42.0415 55.8388 42.2015 55.9188 42.3295C55.9828 42.4095 56.0628 42.4735 56.1588 42.5215C56.2708 42.5695 56.4068 42.5935 56.5668 42.5935C56.6628 42.5935 56.7508 42.5935 56.8308 42.5935C56.9268 42.5775 57.0068 42.5615 57.0708 42.5455C57.3588 42.4815 57.5908 42.3775 57.7668 42.2335C57.9588 42.0735 58.1588 41.9375 58.3668 41.8255L58.4628 41.7775L58.4388 41.7055C58.7108 41.5615 58.8948 41.4735 58.9908 41.4415C59.0868 41.3935 59.1588 41.3535 59.2068 41.3215C59.2708 41.2575 59.3428 41.2255 59.4228 41.2255C59.6468 41.1935 59.8628 41.2575 60.0708 41.4175C60.2948 41.5615 60.4068 41.7455 60.4068 41.9695C60.4068 42.0655 60.3348 42.2175 60.1908 42.4255C60.0628 42.6335 59.8948 42.8415 59.6868 43.0495C59.4948 43.2415 59.2948 43.3935 59.0868 43.5055C59.0388 43.5215 58.9908 43.5455 58.9428 43.5775C58.8948 43.5935 58.8468 43.6175 58.7988 43.6495H58.8228C58.6788 43.8415 58.5348 43.9375 58.3908 43.9375H58.1988C58.1348 44.0495 57.9268 44.1695 57.5748 44.2975C57.2228 44.4415 56.8788 44.5135 56.5428 44.5135ZM57.7908 38.7295C57.9348 38.7295 58.0628 38.7055 58.1748 38.6575C58.3028 38.6095 58.4228 38.5535 58.5348 38.4895C58.9188 38.2175 59.1668 37.8655 59.2788 37.4335C59.3908 37.0015 59.3508 36.6735 59.1588 36.4495C59.1268 36.4015 59.0868 36.3695 59.0388 36.3535C58.9908 36.3215 58.9348 36.3055 58.8708 36.3055C58.6948 36.3055 58.4948 36.3615 58.2708 36.4735C58.0628 36.5855 57.8548 36.7455 57.6468 36.9535C57.4388 37.1615 57.2468 37.4095 57.0708 37.6975L56.7588 38.2015C56.7908 38.1855 56.8148 38.1775 56.8308 38.1775C56.8628 38.1615 56.8868 38.1535 56.9028 38.1535C57.0468 38.1535 57.1428 38.2015 57.1908 38.2975C57.2388 38.3935 57.2948 38.4895 57.3588 38.5855C57.4388 38.6815 57.5828 38.7295 57.7908 38.7295ZM64.3664 45.5215C63.5824 45.5055 63.0784 45.2815 62.8544 44.8495C62.6464 44.4335 62.5904 43.9055 62.6864 43.2655C62.7824 42.9615 62.8384 42.6895 62.8544 42.4495C62.8864 42.1935 62.9584 42.0335 63.0704 41.9695C63.0704 41.9695 63.0784 41.9455 63.0944 41.8975C63.1264 41.8495 63.1184 41.8015 63.0704 41.7535C63.0704 41.5455 63.1424 41.2575 63.2864 40.8895C63.3184 40.7935 63.3584 40.6815 63.4064 40.5535C63.4704 40.4095 63.5024 40.3375 63.5024 40.3375C63.4224 40.2095 63.4224 40.1055 63.5024 40.0255C63.5824 39.9455 63.6624 39.8735 63.7424 39.8095C63.8384 39.7295 63.8464 39.6415 63.7664 39.5455C63.7344 39.4815 63.7744 39.3375 63.8864 39.1135C63.9984 38.8735 64.1264 38.6255 64.2704 38.3695C64.4144 38.1135 64.5104 37.9135 64.5584 37.7695C64.5584 37.7375 64.5984 37.6255 64.6784 37.4335C64.7584 37.2415 64.8544 37.0175 64.9664 36.7615C65.0784 36.5055 65.1824 36.2735 65.2784 36.0655C65.3904 35.8575 65.4624 35.7215 65.4944 35.6575C65.6544 35.5775 65.5904 35.5215 65.3024 35.4895C65.0144 35.4575 64.7104 35.4495 64.3904 35.4655C63.8944 35.4495 63.4944 35.4255 63.1904 35.3935C62.9024 35.3615 62.6624 35.2895 62.4704 35.1775C62.2784 34.9535 62.2544 34.6895 62.3984 34.3855C62.5424 34.0655 62.7744 33.8975 63.0944 33.8815C63.3024 33.8655 63.4624 33.8575 63.5744 33.8575C63.7024 33.8575 63.8624 33.8495 64.0544 33.8335C64.2624 33.8015 64.5824 33.7615 65.0144 33.7135L66.2384 33.6175L66.3104 33.2095C66.4384 33.0015 66.5264 32.8655 66.5744 32.8015C66.6224 32.7375 66.6544 32.6735 66.6704 32.6095C66.6864 32.5295 66.7104 32.3935 66.7424 32.2015C66.7424 32.2015 66.8144 32.0735 66.9584 31.8175C67.1024 31.5455 67.1904 31.2655 67.2224 30.9775C67.4144 30.6575 67.5824 30.3695 67.7264 30.1135C67.8704 29.8415 67.9584 29.6735 67.9904 29.6095C68.2624 29.2095 68.5264 28.9935 68.7824 28.9615C69.0544 28.9295 69.3104 28.9935 69.5504 29.1535C69.6944 29.2335 69.8304 29.3375 69.9584 29.4655C70.0864 29.5775 70.1664 29.7295 70.1984 29.9215C70.2304 30.0975 70.1584 30.3295 69.9824 30.6175C69.9504 30.6815 69.9024 30.8015 69.8384 30.9775C69.7744 31.1375 69.7264 31.2735 69.6944 31.3855C69.5984 31.4975 69.4784 31.6815 69.3344 31.9375C69.2064 32.1775 69.1184 32.4255 69.0704 32.6815C68.9424 32.9535 68.8624 33.1215 68.8304 33.1855C68.7984 33.2495 68.7504 33.2815 68.6864 33.2815C68.7184 33.4415 68.8144 33.5215 68.9744 33.5215C69.1344 33.5055 69.3984 33.4895 69.7664 33.4735C70.0704 33.4415 70.2784 33.4095 70.3904 33.3775C70.5184 33.3295 70.6624 33.3455 70.8224 33.4255C70.9024 33.5375 70.9424 33.7055 70.9424 33.9295C70.9584 34.1375 70.9344 34.3455 70.8704 34.5535C70.8064 34.7455 70.7184 34.8655 70.6064 34.9135C70.5264 34.9135 70.3584 34.9615 70.1024 35.0575C69.8624 35.1375 69.5584 35.1855 69.1904 35.2015L67.9184 35.3215L67.5104 36.1375C67.3984 36.3455 67.3024 36.5375 67.2224 36.7135C67.1424 36.8735 67.0864 36.9695 67.0544 37.0015C67.0544 37.0975 66.9984 37.2415 66.8864 37.4335C66.7904 37.6255 66.6864 37.8335 66.5744 38.0575C66.4784 38.3295 66.3664 38.5775 66.2384 38.8015C66.1264 39.0255 66.0704 39.1375 66.0704 39.1375C66.0064 39.1375 65.9744 39.1855 65.9744 39.2815C66.0544 39.4735 66.0304 39.6175 65.9024 39.7135C65.8224 39.7615 65.7504 39.8335 65.6864 39.9295C65.6384 40.0095 65.6144 40.0495 65.6144 40.0495C65.6784 40.1135 65.6864 40.1935 65.6384 40.2895C65.6064 40.3855 65.5584 40.4895 65.4944 40.6015C65.4944 40.7295 65.4544 40.9135 65.3744 41.1535C65.3104 41.3935 65.2384 41.6175 65.1584 41.8255C65.1744 42.1135 65.1904 42.2975 65.2064 42.3775C65.2224 42.4575 65.2624 42.4895 65.3264 42.4735C65.4064 42.4895 65.5184 42.4895 65.6624 42.4735C65.8064 42.4575 65.9104 42.4495 65.9744 42.4495C66.2144 42.3375 66.1024 42.8975 65.6384 44.1295C65.3824 44.5295 65.1264 44.8575 64.8704 45.1135C64.6144 45.3855 64.4464 45.5215 64.3664 45.5215ZM71.7837 44.1055C71.6077 44.0735 71.4157 43.9695 71.2077 43.7935C70.9997 43.6015 70.8077 43.3935 70.6317 43.1695C70.4717 42.9295 70.3677 42.7295 70.3197 42.5695C70.3197 42.5375 70.2957 42.4975 70.2477 42.4495C70.2157 42.4015 70.1997 42.3775 70.1997 42.3775C70.1357 42.3295 70.0957 42.1215 70.0797 41.7535C70.0797 41.3695 70.1037 40.9455 70.1517 40.4815C70.1997 40.0175 70.2557 39.6495 70.3197 39.3775C70.3997 39.1215 70.5197 38.7775 70.6797 38.3455C70.8397 37.8975 70.9757 37.4975 71.0877 37.1455L71.7357 35.7535L70.7757 35.4895C70.6637 35.4575 70.5677 35.3935 70.4877 35.2975C70.4237 35.2015 70.3917 35.1215 70.3917 35.0575C70.3917 34.9295 70.4637 34.7455 70.6077 34.5055C70.7517 34.2655 70.8557 34.1455 70.9197 34.1455C70.9997 34.1615 71.1437 34.1695 71.3517 34.1695C71.5757 34.1695 71.7917 34.1615 71.9997 34.1455C72.2077 34.1295 72.3357 34.1135 72.3837 34.0975C72.4477 34.0655 72.5117 34.0255 72.5757 33.9775C72.6397 33.9135 72.6877 33.8255 72.7197 33.7135C72.7997 33.5375 72.8717 33.4015 72.9357 33.3055C72.9997 33.2095 73.0877 33.0655 73.1997 32.8735C73.3117 32.6655 73.3997 32.4895 73.4637 32.3455C73.5437 32.2015 73.6637 32.0015 73.8237 31.7455C73.9037 31.6335 73.9917 31.4975 74.0877 31.3375C74.1837 31.1775 74.3037 31.0415 74.4477 30.9295C74.5917 30.8015 74.8237 30.7135 75.1437 30.6655C75.4797 30.6015 75.7677 30.6735 76.0077 30.8815C76.1357 31.0415 76.2077 31.1935 76.2237 31.3375C76.2397 31.4815 76.1757 31.6655 76.0317 31.8895C75.9037 32.1615 75.7517 32.4095 75.5757 32.6335C75.4157 32.8415 75.2637 33.0815 75.1197 33.3535C74.8637 33.7055 74.8157 33.9055 74.9757 33.9535C75.1357 34.0015 75.5837 33.9695 76.3197 33.8575C76.7837 33.7775 77.1197 33.8255 77.3277 34.0015C77.5357 34.1775 77.6557 34.4015 77.6877 34.6735C77.7357 35.0575 77.6957 35.2895 77.5677 35.3695C77.4397 35.4495 77.0717 35.4895 76.4637 35.4895C76.0797 35.5535 75.7517 35.5935 75.4797 35.6095C75.2077 35.6095 75.0077 35.6095 74.8797 35.6095C74.6717 35.6255 74.5357 35.6335 74.4717 35.6335C74.4077 35.6335 74.3117 35.6495 74.1837 35.6815C74.0557 35.7135 73.9597 35.7695 73.8957 35.8495C73.8477 35.9135 73.7917 36.0095 73.7277 36.1375C73.6637 36.2015 73.5677 36.3695 73.4397 36.6415C73.3117 36.9135 73.1517 37.2095 72.9597 37.5295C72.7357 38.2015 72.5437 38.8495 72.3837 39.4735C72.2397 40.0815 72.1117 40.6895 71.9997 41.2975C71.9517 41.6015 71.9597 41.8255 72.0237 41.9695C72.1037 42.0975 72.3117 42.1775 72.6477 42.2095C72.8237 42.2255 73.0797 42.2255 73.4157 42.2095C73.7517 42.1775 74.0317 42.1295 74.2557 42.0655C74.4317 41.9855 74.6157 41.9055 74.8077 41.8255C74.9997 41.7295 75.1757 41.6335 75.3357 41.5375C75.4797 41.4575 75.6237 41.3775 75.7677 41.2975C75.9117 41.2015 75.9837 41.1535 75.9837 41.1535C76.0637 41.0255 76.1757 41.0495 76.3197 41.2255C76.4797 41.3855 76.5917 41.5615 76.6557 41.7535C76.6557 41.9455 76.6157 42.1775 76.5357 42.4495C76.4557 42.7055 76.1597 42.9775 75.6477 43.2655C74.9277 43.7135 74.2077 43.9855 73.4877 44.0815C72.7677 44.1775 72.1997 44.1855 71.7837 44.1055ZM77.257 50.2495C76.905 50.3135 76.665 50.3215 76.537 50.2735C76.409 50.2255 76.233 50.1455 76.009 50.0335C75.833 49.9055 75.705 49.8095 75.625 49.7455C75.545 49.6815 75.489 49.6175 75.457 49.5535C75.297 49.2175 75.273 48.9695 75.385 48.8095C75.497 48.6495 75.657 48.5455 75.865 48.4975C76.089 48.4655 76.281 48.4495 76.441 48.4495C76.553 48.5135 76.737 48.5455 76.993 48.5455C77.265 48.5455 77.433 48.5135 77.497 48.4495C77.497 48.4495 77.569 48.4015 77.713 48.3055C77.873 48.2255 78.081 48.1615 78.337 48.1135C78.833 47.8735 79.225 47.6255 79.513 47.3695C79.801 47.1295 80.121 46.7135 80.473 46.1215C80.617 45.8975 80.769 45.6335 80.929 45.3295C81.089 45.0415 81.201 44.7535 81.265 44.4655C81.393 44.1455 81.537 43.7135 81.697 43.1695C81.873 42.6255 82.025 42.0895 82.153 41.5615C82.281 41.0175 82.353 40.6095 82.369 40.3375C82.465 39.4415 82.649 38.5775 82.921 37.7455C83.193 36.8975 83.409 36.0015 83.569 35.0575C83.665 34.8335 83.737 34.7055 83.785 34.6735C83.833 34.6255 83.937 34.6015 84.097 34.6015C84.273 34.6015 84.481 34.6575 84.721 34.7695C84.961 34.8655 85.137 35.0015 85.249 35.1775C85.409 35.4815 85.481 35.8415 85.465 36.2575C85.465 36.6575 85.361 37.0095 85.153 37.3135C84.993 37.5375 84.849 37.8895 84.721 38.3695C84.609 38.8335 84.497 39.4175 84.385 40.1215C84.305 40.4735 84.217 40.8895 84.121 41.3695C84.041 41.8335 83.953 42.3535 83.857 42.9295C83.793 43.0895 83.705 43.3375 83.593 43.6735C83.481 43.9935 83.409 44.2495 83.377 44.4415C83.361 44.5055 83.313 44.6335 83.233 44.8255C83.153 45.0175 83.073 45.2015 82.993 45.3775C82.913 45.5695 82.857 45.6975 82.825 45.7615C82.057 47.3135 81.169 48.4335 80.161 49.1215C79.169 49.8095 78.201 50.1855 77.257 50.2495ZM79.273 43.4575C79.097 43.4575 78.913 43.3615 78.721 43.1695C78.545 42.9775 78.425 42.8255 78.361 42.7135C78.297 42.5535 78.177 42.4015 78.001 42.2575C77.825 42.1135 77.673 41.9375 77.545 41.7295C77.417 41.5215 77.385 41.2655 77.449 40.9615C77.513 40.7535 77.609 40.4415 77.737 40.0255C77.865 39.5935 78.017 39.1215 78.193 38.6095C78.369 38.0815 78.545 37.5615 78.721 37.0495C78.913 36.5375 79.089 36.0815 79.249 35.6815C79.409 35.2815 79.545 35.0015 79.657 34.8415C79.753 34.7135 79.905 34.6175 80.113 34.5535C80.321 34.4895 80.529 34.4735 80.737 34.5055C80.945 34.5375 81.097 34.6335 81.193 34.7935C81.369 35.0175 81.465 35.2415 81.481 35.4655C81.513 35.6735 81.401 36.0095 81.145 36.4735C81.081 36.6495 81.001 36.8415 80.905 37.0495C80.809 37.2415 80.761 37.3695 80.761 37.4335C80.745 37.4655 80.713 37.5775 80.665 37.7695C80.633 37.9455 80.593 38.1135 80.545 38.2735C80.497 38.4335 80.449 38.5135 80.401 38.5135C80.337 38.5775 80.265 38.7455 80.185 39.0175C80.121 39.2895 80.057 39.5935 79.993 39.9295C79.945 40.2495 79.913 40.5375 79.897 40.7935C79.881 41.0335 79.905 41.1535 79.969 41.1535C80.465 41.1535 80.945 41.0015 81.409 40.6975C81.873 40.3775 82.377 39.8495 82.921 39.1135L83.137 41.3695C82.913 41.4815 82.705 41.6015 82.513 41.7295C82.321 41.8415 82.145 41.9775 81.985 42.1375C81.937 42.2015 81.825 42.2895 81.649 42.4015C81.473 42.5135 81.297 42.6175 81.121 42.7135C80.961 42.7935 80.857 42.8335 80.809 42.8335C80.809 42.8335 80.785 42.8415 80.737 42.8575C80.705 42.8575 80.689 42.8895 80.689 42.9535C80.689 42.9855 80.585 43.0495 80.377 43.1455C80.169 43.2255 79.953 43.2975 79.729 43.3615C79.505 43.4255 79.353 43.4575 79.273 43.4575ZM92.1852 44.8015C91.9772 44.7215 91.8092 44.5935 91.6812 44.4175C91.5532 44.2575 91.4812 44.0175 91.4652 43.6975C91.4492 43.4895 91.4572 43.1855 91.4892 42.7855C91.5212 42.3695 91.5772 41.9535 91.6572 41.5375C91.6572 41.5055 91.6572 41.4735 91.6572 41.4415C91.6732 41.3935 91.6812 41.3615 91.6812 41.3455C91.6972 41.2815 91.7132 41.1855 91.7292 41.0575C91.7452 40.9135 91.7612 40.8015 91.7772 40.7215C91.8092 40.6255 91.8252 40.6175 91.8252 40.6975L91.9692 40.0495C92.0332 39.7615 92.1052 39.4655 92.1852 39.1615C92.2652 38.8575 92.3372 38.5935 92.4012 38.3695C92.4812 38.1295 92.5292 37.9935 92.5452 37.9615C92.5452 37.9615 92.5692 37.8735 92.6172 37.6975C92.6812 37.5055 92.7452 37.3135 92.8092 37.1215C93.0652 36.3215 93.3052 35.6575 93.5292 35.1295C93.7692 34.6015 93.9772 34.2175 94.1532 33.9775C94.1692 33.9295 94.1932 33.8735 94.2252 33.8095C94.2572 33.7295 94.2812 33.6655 94.2972 33.6175C94.2972 33.4415 94.3052 33.3135 94.3212 33.2335C94.3532 33.1535 94.3932 33.0815 94.4412 33.0175C94.4732 32.9535 94.5212 32.8735 94.5852 32.7775C94.6492 32.6655 94.7212 32.5295 94.8012 32.3695L94.8972 32.1055C94.9932 31.8975 95.1132 31.6575 95.2572 31.3855C95.4012 31.0975 95.5052 30.8815 95.5692 30.7375C95.6172 30.5935 95.7132 30.4255 95.8572 30.2335C96.0012 30.0255 96.1612 29.8895 96.3372 29.8255L96.3132 29.8015C96.3932 29.6575 96.5452 29.5455 96.7692 29.4655C96.9932 29.3695 97.1772 29.3215 97.3212 29.3215C97.5452 29.3215 97.7132 29.3855 97.8252 29.5135C97.9532 29.6415 98.0172 29.8175 98.0172 30.0415C98.0172 30.2815 98.0092 30.4575 97.9932 30.5695C97.9932 30.6655 97.9372 30.7775 97.8252 30.9055H97.8492C97.8812 30.8735 97.8732 30.9215 97.8252 31.0495C97.7772 31.1775 97.7372 31.2655 97.7052 31.3135C97.6732 31.3935 97.6332 31.4815 97.5852 31.5775C97.5532 31.6735 97.5132 31.7455 97.4652 31.7935C97.4172 31.8575 97.2892 32.0815 97.0812 32.4655C96.8732 32.8335 96.6412 33.2735 96.3852 33.7855C96.1292 34.2815 95.8812 34.7695 95.6412 35.2495C95.4172 35.7135 95.2572 36.0735 95.1612 36.3295L95.0412 36.6895C95.0252 36.7535 95.0172 36.8015 95.0172 36.8335C94.9692 36.9455 94.9212 37.0575 94.8732 37.1695C94.8252 37.2815 94.7772 37.3775 94.7292 37.4575L94.3452 38.9455L94.2492 39.4495L94.0332 40.0015L93.8892 40.4575C93.8572 40.5535 93.8332 40.6575 93.8172 40.7695C93.8012 40.8815 93.7692 40.9615 93.7212 41.0095C93.7212 41.0255 93.7132 41.0495 93.6972 41.0815C93.6972 41.0975 93.6972 41.1135 93.6972 41.1295C93.6332 41.3855 93.5212 41.7455 93.3612 42.2095C93.2172 42.6735 93.1292 43.1855 93.0972 43.7455C93.0972 43.7615 93.0892 43.7775 93.0732 43.7935C93.0732 43.8095 93.0732 43.8255 93.0732 43.8415C93.0252 44.1775 92.9212 44.4335 92.7612 44.6095C92.6172 44.8015 92.4252 44.8655 92.1852 44.8015ZM97.6988 43.6495C97.5068 43.6975 97.2908 43.6415 97.0508 43.4815C96.8108 43.3215 96.5948 43.1215 96.4028 42.8815C96.2108 42.6415 96.0908 42.4255 96.0428 42.2335C95.9788 41.8975 95.9948 41.4895 96.0908 41.0095C96.2028 40.5135 96.3868 39.9935 96.6428 39.4495C96.8988 38.8895 97.2188 38.3455 97.6028 37.8175C97.9868 37.2735 98.4188 36.7855 98.8988 36.3535C99.3788 35.9215 99.8988 35.5855 100.459 35.3455C100.699 35.2175 100.867 35.1375 100.963 35.1055C101.059 35.0575 101.155 35.0575 101.251 35.1055C101.347 35.1375 101.515 35.2175 101.755 35.3455C101.979 35.4095 102.203 35.4895 102.427 35.5855C102.667 35.6655 102.875 35.8255 103.051 36.0655C103.179 36.3055 103.275 36.5455 103.339 36.7855C103.403 37.0255 103.459 37.2975 103.507 37.6015C103.635 38.0015 103.683 38.2655 103.651 38.3935C103.619 38.5055 103.571 38.5935 103.507 38.6575C103.379 38.8175 103.347 38.8975 103.411 38.8975C103.411 38.8975 103.403 38.9295 103.387 38.9935C103.387 39.0415 103.355 39.1215 103.291 39.2335C103.179 39.5855 103.091 39.9215 103.027 40.2415C102.979 40.5455 102.987 40.8175 103.051 41.0575C103.179 41.4095 103.347 41.6175 103.555 41.6815C103.779 41.7455 104.067 41.6015 104.419 41.2495C104.595 41.1215 104.795 41.0415 105.019 41.0095C105.243 40.9615 105.355 41.0015 105.355 41.1295C105.355 41.1295 105.379 41.1535 105.427 41.2015C105.475 41.2335 105.531 41.2495 105.595 41.2495C105.675 41.2495 105.707 41.3295 105.691 41.4895C105.675 41.6335 105.643 41.8015 105.595 41.9935C105.547 42.1855 105.483 42.3455 105.403 42.4735C105.163 42.7135 105.043 42.8735 105.043 42.9535C105.043 42.9535 105.011 42.9855 104.947 43.0495C104.899 43.0975 104.811 43.1775 104.683 43.2895C104.395 43.4655 104.027 43.5535 103.579 43.5535C103.147 43.5535 102.811 43.4655 102.571 43.2895C102.331 43.1135 102.091 42.8975 101.851 42.6415C101.627 42.3855 101.483 42.1455 101.419 41.9215L101.299 41.6815L100.603 42.1375C100.427 42.3135 100.299 42.4495 100.219 42.5455C100.139 42.6255 100.067 42.6975 100.003 42.7615C99.9548 42.8255 99.8988 42.8815 99.8348 42.9295C99.7868 42.9775 99.7308 43.0015 99.6668 43.0015C99.6028 43.0015 99.5468 43.0015 99.4988 43.0015C99.4508 43.0015 99.4268 43.0015 99.4268 43.0015C99.4268 43.0655 99.3148 43.1535 99.0908 43.2655C98.8668 43.3615 98.6188 43.4495 98.3468 43.5295C98.0748 43.6095 97.8588 43.6495 97.6988 43.6495ZM98.2028 41.6335C98.2988 41.6335 98.4428 41.5775 98.6348 41.4655C98.8428 41.3375 99.0668 41.1855 99.3068 41.0095C99.5468 40.8335 99.7628 40.6575 99.9548 40.4815C100.163 40.3055 100.315 40.1615 100.411 40.0495C100.475 39.9855 100.547 39.8815 100.627 39.7375C100.723 39.5935 100.827 39.4655 100.939 39.3535C101.307 38.9375 101.539 38.6095 101.635 38.3695C101.731 38.1135 101.691 37.8415 101.515 37.5535C101.451 37.3775 101.371 37.2815 101.275 37.2655C101.179 37.2495 100.979 37.3055 100.675 37.4335C100.483 37.5455 100.275 37.7295 100.051 37.9855C99.8268 38.2415 99.5948 38.5295 99.3548 38.8495C99.1308 39.1695 98.9228 39.4975 98.7308 39.8335C98.5388 40.1695 98.3788 40.4735 98.2508 40.7455C98.1388 41.0175 98.0828 41.2335 98.0828 41.3935C98.0828 41.4575 98.0988 41.5135 98.1308 41.5615C98.1788 41.6095 98.2028 41.6335 98.2028 41.6335ZM117.522 43.5055C117.41 43.4735 117.234 43.3695 116.994 43.1935C116.754 43.0175 116.538 42.7535 116.346 42.4015C116.17 42.0495 116.09 41.5935 116.106 41.0335C116.122 40.5535 116.154 40.2175 116.202 40.0255C116.266 39.8175 116.242 39.7055 116.13 39.6895C116.05 39.6735 115.89 39.7455 115.65 39.9055C115.41 40.0655 115.098 40.3215 114.714 40.6735C114.33 41.0255 113.866 41.4895 113.322 42.0655C113.13 42.2255 112.914 42.4255 112.674 42.6655C112.45 42.8895 112.218 43.0575 111.978 43.1695C111.754 43.2815 111.554 43.2575 111.378 43.0975L111.138 42.8815C111.026 42.7855 110.93 42.6575 110.85 42.4975C110.77 42.3375 110.746 42.2015 110.778 42.0895L111.45 40.2175C111.642 39.8015 111.77 39.4975 111.834 39.3055C111.914 39.1135 111.946 38.9935 111.93 38.9455C111.93 38.8975 111.89 38.8815 111.81 38.8975C111.714 38.9135 111.578 39.0015 111.402 39.1615C111.226 39.3055 111.106 39.4255 111.042 39.5215C110.978 39.5215 110.89 39.5855 110.778 39.7135C110.682 39.8415 110.586 39.9535 110.49 40.0495C110.394 40.1455 110.226 40.3295 109.986 40.6015C109.746 40.8575 109.49 41.1295 109.218 41.4175C109.01 41.6095 108.77 41.8655 108.498 42.1855C108.226 42.5055 107.986 42.7935 107.778 43.0495C107.57 43.3055 107.442 43.4335 107.394 43.4335C107.106 43.4175 106.842 43.3215 106.602 43.1455C106.378 42.9695 106.226 42.7535 106.146 42.4975C106.05 42.3215 106.042 42.0015 106.122 41.5375C106.202 41.0575 106.354 40.2975 106.578 39.2575C106.642 39.0175 106.698 38.8095 106.746 38.6335C106.81 38.4575 106.874 38.2815 106.938 38.1055C107.002 37.9295 107.074 37.7295 107.154 37.5055C107.25 37.2815 107.37 37.0095 107.514 36.6895C107.594 36.4655 107.626 36.2575 107.61 36.0655C107.594 35.8575 107.578 35.6895 107.562 35.5615C107.562 35.3215 107.634 35.1295 107.778 34.9855C107.938 34.8415 108.114 34.7455 108.306 34.6975C108.498 34.6335 108.65 34.6175 108.762 34.6495C109.21 34.6975 109.514 34.8575 109.674 35.1295C109.834 35.4015 109.922 35.6655 109.938 35.9215C109.954 36.1615 109.922 36.3775 109.842 36.5695C109.762 36.7615 109.698 36.9215 109.65 37.0495L109.386 37.6975C109.226 38.0655 109.106 38.3375 109.026 38.5135C108.962 38.6735 108.922 38.7855 108.906 38.8495C108.906 38.8975 108.906 38.9455 108.906 38.9935C108.922 39.0415 108.994 39.0175 109.122 38.9215C109.25 38.8255 109.402 38.6975 109.578 38.5375C109.77 38.3615 109.946 38.2095 110.105 38.0815C110.394 37.8415 110.698 37.6015 111.018 37.3615C111.354 37.1055 111.682 36.8815 112.002 36.6895C112.322 36.4975 112.586 36.3695 112.794 36.3055C113.066 36.3535 113.314 36.4895 113.538 36.7135C113.778 36.9375 113.93 37.1295 113.994 37.2895C114.074 37.5295 114.082 37.7455 114.018 37.9375C113.97 38.1295 113.93 38.3055 113.898 38.4655C113.882 38.5295 113.85 38.6495 113.802 38.8255C113.754 39.0015 113.706 39.1695 113.658 39.3295C113.61 39.4735 113.586 39.5455 113.586 39.5455C113.586 39.5455 113.634 39.4975 113.73 39.4015C113.826 39.3055 113.954 39.1935 114.114 39.0655C114.274 38.9215 114.434 38.7935 114.594 38.6815C115.394 38.0735 116.026 37.6895 116.49 37.5295C116.97 37.3535 117.378 37.4895 117.714 37.9375C117.906 38.1135 118.026 38.3535 118.074 38.6575C118.138 38.9615 118.17 39.3695 118.17 39.8815C118.186 40.0895 118.202 40.3215 118.218 40.5775C118.25 40.8335 118.282 41.0575 118.314 41.2495C118.362 41.4415 118.402 41.5615 118.434 41.6095C118.482 41.6735 118.57 41.7375 118.698 41.8015C118.826 41.8495 118.946 41.8895 119.058 41.9215C119.282 42.0335 119.402 42.2415 119.418 42.5455C119.45 42.8335 119.338 43.0575 119.082 43.2175C118.842 43.3615 118.586 43.4495 118.314 43.4815C118.058 43.5135 117.794 43.5215 117.522 43.5055ZM124.634 43.6015C124.154 43.8735 123.642 44.0335 123.098 44.0815C122.57 44.1135 122.074 44.0415 121.61 43.8655C121.146 43.6735 120.77 43.3935 120.482 43.0255C120.322 42.8175 120.17 42.4895 120.026 42.0415C119.882 41.5775 119.858 40.9535 119.954 40.1695C120.05 39.4335 120.274 38.6895 120.626 37.9375C120.994 37.1855 121.442 36.5215 121.97 35.9455C122.498 35.3695 123.074 34.9775 123.698 34.7695C123.922 34.6895 124.146 34.6335 124.37 34.6015C124.61 34.5535 124.922 34.5455 125.306 34.5775C125.674 34.6255 126.002 34.7215 126.29 34.8655C126.578 34.9935 126.786 35.1375 126.914 35.2975C127.17 35.5535 127.338 35.8015 127.418 36.0415C127.498 36.2815 127.53 36.5135 127.514 36.7375C127.434 37.2495 127.202 37.8015 126.818 38.3935C126.45 38.9855 125.93 39.4255 125.258 39.7135C124.986 39.8255 124.666 39.8975 124.298 39.9295C123.93 39.9615 123.426 39.9135 122.786 39.7855C122.402 39.7055 122.146 39.7455 122.018 39.9055C121.906 40.0655 121.858 40.3775 121.874 40.8415C121.906 41.1295 121.97 41.3855 122.066 41.6095C122.178 41.8175 122.378 41.9615 122.666 42.0415C123.034 42.1055 123.298 42.1135 123.458 42.0655C123.618 42.0015 123.818 41.9135 124.058 41.8015C124.186 41.7215 124.306 41.6335 124.418 41.5375C124.546 41.4415 124.666 41.3455 124.778 41.2495C124.906 41.1535 125.01 41.0815 125.09 41.0335C125.17 40.9695 125.25 40.9295 125.33 40.9135C125.41 40.8975 125.49 40.8895 125.57 40.8895C125.746 40.9055 125.914 41.0015 126.074 41.1775C126.234 41.3535 126.338 41.5215 126.386 41.6815C126.386 41.8095 126.306 41.9935 126.146 42.2335C125.986 42.4575 125.77 42.6975 125.498 42.9535C125.242 43.1935 124.954 43.4095 124.634 43.6015ZM124.322 38.2495C124.434 38.2015 124.594 38.0895 124.802 37.9135C125.026 37.7375 125.226 37.5535 125.402 37.3615C125.578 37.1535 125.666 36.9935 125.666 36.8815C125.666 36.7055 125.546 36.5535 125.306 36.4255C125.082 36.2975 124.786 36.2735 124.418 36.3535C124.29 36.3855 124.138 36.4735 123.962 36.6175C123.786 36.7615 123.61 36.9295 123.434 37.1215C123.258 37.2975 123.106 37.4735 122.978 37.6495C122.85 37.8095 122.762 37.9375 122.714 38.0335C122.778 38.1135 122.906 38.1775 123.098 38.2255C123.29 38.2735 123.498 38.2975 123.722 38.2975C123.962 38.2975 124.162 38.2815 124.322 38.2495Z" fill="#EA2667"/>
<path d="M34.541 96.5813C35.3692 96.5589 36.0224 95.8695 36 95.0413L35.6356 81.5462C35.6133 80.7181 34.9238 80.0649 34.0957 80.0873C33.2676 80.1096 32.6144 80.7991 32.6367 81.6272L32.9606 93.6228L20.965 93.9467C20.1369 93.9691 19.4837 94.6585 19.506 95.4867C19.5284 96.3148 20.2178 96.968 21.046 96.9456L34.541 96.5813ZM20.4543 37.1844C12.2561 40.3869 7.46888 44.5836 5.53741 49.6143C3.60761 54.6405 4.68794 60.0864 7.27558 65.4233C12.4195 76.0324 24.0292 87.2274 33.4689 96.1707L35.5322 93.9929C25.9715 84.9349 14.8311 74.1299 9.97501 64.1144C7.56262 59.139 6.83043 54.6163 8.33808 50.6896C9.84405 46.7672 13.7442 43.0264 21.5459 39.9787L20.4543 37.1844Z" fill="#1F1A3D"/>
</svg>
