<svg width="217" height="73" viewBox="0 0 217 73" fill="none" xmlns="http://www.w3.org/2000/svg">
<path d="M27.7107 44.5455C27.0707 44.3855 26.5507 44.0495 26.1507 43.5375C25.7667 43.0415 25.4547 42.4415 25.2147 41.7375C25.1987 41.5295 25.1907 41.2415 25.1907 40.8735C25.2067 40.5055 25.2307 40.1615 25.2627 39.8415C25.2947 39.5215 25.3267 39.3375 25.3587 39.2895C25.4067 39.2575 25.4307 39.1615 25.4307 39.0015C25.4147 38.9375 25.4227 38.8335 25.4547 38.6895C25.5027 38.5295 25.5507 38.3695 25.5987 38.2095C25.6787 38.0175 25.7187 37.8655 25.7187 37.7535C25.7187 37.6255 25.7107 37.5295 25.6947 37.4655C25.6947 37.4655 25.7187 37.4175 25.7667 37.3215C25.8147 37.2095 25.8707 37.1215 25.9347 37.0575C26.0307 36.9615 26.0707 36.8655 26.0547 36.7695C26.0547 36.6735 26.0547 36.6255 26.0547 36.6255C26.0387 36.5615 26.0547 36.4735 26.1027 36.3615C26.1507 36.2495 26.1987 36.1615 26.2467 36.0975C26.2787 36.0655 26.3187 36.0015 26.3667 35.9055C26.4307 35.7935 26.4627 35.7375 26.4627 35.7375C26.4627 35.6895 26.4947 35.5615 26.5587 35.3535C26.6387 35.1455 26.7267 34.9215 26.8227 34.6815C26.9187 34.4255 27.0067 34.1935 27.0867 33.9855C27.1827 33.7775 27.2547 33.6415 27.3027 33.5775V33.5295C27.3667 33.3695 27.4547 33.2015 27.5667 33.0255C27.5827 32.9455 27.6227 32.8175 27.6867 32.6415C27.7507 32.4495 27.8227 32.2655 27.9027 32.0895C28.0787 31.7055 28.2947 31.2735 28.5507 30.7935C28.8227 30.2975 29.1107 29.8095 29.4147 29.3295C29.7187 28.8335 30.0067 28.3935 30.2787 28.0095C30.5667 27.6095 30.8147 27.3135 31.0227 27.1215C31.2947 26.8175 31.5667 26.6015 31.8387 26.4735C32.1267 26.3295 32.3907 26.3775 32.6307 26.6175C32.7427 26.7295 32.8387 26.8975 32.9187 27.1215C32.9987 27.3295 33.0307 27.5295 33.0147 27.7215C33.0147 27.8975 32.9507 27.9935 32.8227 28.0095C32.7107 28.0735 32.5587 28.2575 32.3667 28.5615C32.1747 28.8495 31.9587 29.1935 31.7187 29.5935C31.4947 29.9935 31.2707 30.4095 31.0467 30.8415C30.8227 31.2575 30.6147 31.6335 30.4227 31.9695C30.2147 32.4335 30.0227 32.8415 29.8467 33.1935C29.6707 33.5295 29.5827 33.6975 29.5827 33.6975C29.5667 33.7455 29.5507 33.7855 29.5347 33.8175C29.5187 33.8495 29.5027 33.8815 29.4867 33.9135C29.2467 34.4095 29.0467 34.8655 28.8867 35.2815C28.7267 35.6815 28.5667 36.1055 28.4067 36.5535C28.3107 36.6655 28.2547 36.7775 28.2387 36.8895C28.2227 37.0015 28.2147 37.0575 28.2147 37.0575C28.1827 37.0415 28.1587 37.0815 28.1427 37.1775C28.1267 37.2575 28.0947 37.3535 28.0467 37.4655C27.9667 37.5295 27.9187 37.6335 27.9027 37.7775C27.8867 37.9055 27.8787 38.0335 27.8787 38.1615C27.7667 38.4495 27.6627 38.8015 27.5667 39.2175C27.4707 39.6175 27.3987 40.0095 27.3507 40.3935C27.3187 40.7615 27.3107 41.0495 27.3267 41.2575C27.3587 41.5295 27.4307 41.7615 27.5427 41.9535C27.6707 42.1295 27.8467 42.2735 28.0707 42.3855C28.2467 42.4655 28.4067 42.5375 28.5507 42.6015C28.6947 42.6495 28.8227 42.6735 28.9347 42.6735C29.0627 42.6895 29.2227 42.6895 29.4147 42.6735C29.6227 42.6415 29.9027 42.5935 30.2547 42.5295H30.2307C30.4387 42.4975 30.6547 42.4575 30.8787 42.4095C31.1187 42.3455 31.3427 42.2895 31.5507 42.2415C31.7427 42.2095 31.9267 42.1775 32.1027 42.1455C32.2787 42.0975 32.4147 42.0575 32.5107 42.0255C32.8627 41.9295 33.1427 41.8495 33.3507 41.7855C33.5747 41.7215 33.7267 41.7215 33.8067 41.7855C33.8867 41.8495 33.9747 41.9695 34.0707 42.1455C34.1667 42.3215 34.1907 42.4815 34.1427 42.6255C34.1107 42.7055 33.9507 42.8655 33.6627 43.1055C33.3747 43.3615 33.0467 43.6095 32.6787 43.8495C32.3107 44.1055 31.9747 44.2815 31.6707 44.3775C31.3507 44.5215 30.9187 44.6175 30.3747 44.6655C29.8467 44.7295 29.3347 44.7455 28.8387 44.7135C28.3427 44.6815 27.9667 44.6255 27.7107 44.5455ZM37.3054 42.9135C37.0974 42.9135 36.9294 42.8735 36.8014 42.7935C36.6894 42.7135 36.5454 42.6015 36.3694 42.4575C36.0654 42.1375 35.8174 41.7935 35.6254 41.4255C35.4494 41.0575 35.3854 40.7375 35.4334 40.4655C35.4814 40.3375 35.4974 40.2175 35.4814 40.1055C35.4814 39.9775 35.4814 39.9135 35.4814 39.9135C35.4014 39.8335 35.3774 39.7855 35.4094 39.7695C35.4414 39.7375 35.4734 39.6895 35.5054 39.6255C35.6014 39.6255 35.6334 39.5375 35.6014 39.3615C35.5694 39.2335 35.6174 38.9615 35.7454 38.5455C35.8894 38.1135 36.0814 37.7055 36.3214 37.3215C36.4174 37.1615 36.5614 36.9535 36.7534 36.6975C36.9454 36.4255 37.1534 36.1615 37.3774 35.9055C37.6174 35.6335 37.8334 35.4175 38.0254 35.2575C38.4254 34.9215 38.7934 34.6495 39.1294 34.4415C39.4814 34.2335 39.8334 34.0895 40.1854 34.0095C40.5374 33.9295 40.8974 33.8895 41.2654 33.8895C41.6494 33.8895 41.9614 34.0175 42.2014 34.2735C42.5694 34.4335 42.8254 34.6495 42.9694 34.9215C43.1294 35.1935 43.2334 35.5455 43.2814 35.9775C43.3294 36.4575 43.2814 37.0495 43.1374 37.7535C42.9934 38.4415 42.6014 39.2415 41.9614 40.1535C41.5614 40.7295 41.1694 41.1775 40.7854 41.4975C40.4014 41.8175 39.9774 42.1135 39.5134 42.3855C39.1774 42.6095 38.8174 42.7455 38.4334 42.7935C38.0494 42.8415 37.6734 42.8815 37.3054 42.9135ZM39.7534 39.9855C40.1054 39.6815 40.3534 39.3455 40.4974 38.9775C40.6574 38.6095 40.8254 38.1775 41.0014 37.6815C41.0654 37.5855 41.1054 37.4255 41.1214 37.2015C41.1534 36.9775 41.1614 36.7615 41.1454 36.5535C41.1294 36.3295 41.0734 36.2015 40.9774 36.1695C40.8334 36.0575 40.6894 36.0335 40.5454 36.0975C40.4014 36.1455 40.2174 36.2495 39.9934 36.4095C39.5134 36.8095 39.0654 37.2735 38.6494 37.8015C38.2494 38.3135 37.9694 38.9455 37.8094 39.6975C37.7614 40.0975 37.8014 40.4015 37.9294 40.6095C38.0734 40.8015 38.2974 40.8575 38.6014 40.7775C38.9214 40.6815 39.3054 40.4175 39.7534 39.9855ZM44.8248 42.4335C44.6808 42.3215 44.5208 42.1775 44.3448 42.0015C44.1848 41.8255 44.1288 41.5775 44.1768 41.2575C44.2248 40.8095 44.2888 40.4175 44.3688 40.0815C44.4488 39.7295 44.5448 39.3295 44.6568 38.8815C44.6888 38.6895 44.7688 38.3615 44.8968 37.8975C45.0408 37.4335 45.2088 36.9295 45.4008 36.3855C45.5928 35.8415 45.7928 35.3295 46.0008 34.8495C46.2088 34.3535 46.3928 33.9855 46.5528 33.7455C46.7288 33.5855 46.9848 33.5055 47.3208 33.5055C47.6728 33.5055 47.9128 33.5695 48.0408 33.6975C48.2168 33.8415 48.2728 34.0975 48.2088 34.4655C48.1448 34.8175 47.9208 35.3695 47.5368 36.1215C47.4568 36.3135 47.3528 36.5215 47.2248 36.7455C47.1128 36.9535 47.0328 37.1295 46.9848 37.2735C46.9368 37.4015 46.9528 37.4575 47.0328 37.4415C47.1288 37.2655 47.3048 37.0655 47.5608 36.8415C47.8168 36.6015 48.0888 36.3695 48.3768 36.1455C48.6648 35.9215 48.9368 35.7215 49.1928 35.5455C49.4488 35.3695 49.6248 35.2575 49.7208 35.2095C49.8488 35.1295 49.9928 35.0655 50.1528 35.0175C50.3288 34.9535 50.4488 34.9055 50.5128 34.8735C50.8808 34.6975 51.2808 34.6335 51.7128 34.6815C52.1608 34.7135 52.4328 34.8495 52.5288 35.0895C52.5448 35.2175 52.5928 35.3135 52.6728 35.3775C52.7688 35.4415 52.8168 35.4735 52.8168 35.4735C52.8808 35.4735 52.9128 35.4975 52.9128 35.5455C52.9288 35.5935 52.9368 35.6175 52.9368 35.6175C52.9368 35.7295 52.8248 35.8895 52.6008 36.0975C52.3928 36.3055 52.1608 36.4175 51.9048 36.4335C51.6968 36.4495 51.5128 36.4895 51.3528 36.5535C51.1928 36.6175 51.0008 36.6975 50.7768 36.7935C50.1688 37.1455 49.6168 37.4575 49.1208 37.7295C48.6408 38.0015 48.1448 38.4175 47.6328 38.9775C47.5208 39.1055 47.4008 39.2255 47.2728 39.3375C47.1448 39.4495 47.0168 39.6095 46.8888 39.8175C46.8088 39.8975 46.7288 40.0735 46.6488 40.3455C46.5688 40.6175 46.4968 40.8815 46.4328 41.1375C46.3848 41.3775 46.3608 41.5215 46.3608 41.5695C46.3608 41.5695 46.3368 41.6495 46.2888 41.8095C46.2408 41.9535 46.1608 42.0975 46.0488 42.2415C45.8568 42.4975 45.6648 42.6575 45.4728 42.7215C45.2968 42.7855 45.0808 42.6895 44.8248 42.4335ZM55.4412 43.5135C54.5612 43.5135 53.8812 43.2575 53.4012 42.7455C52.9372 42.2335 52.7052 41.4495 52.7052 40.3935C52.7052 39.8175 52.8092 39.1855 53.0172 38.4975C53.2412 37.8095 53.5292 37.1375 53.8812 36.4815C54.2492 35.8255 54.6492 35.2575 55.0812 34.7775C55.5132 34.2815 55.9452 33.9375 56.3772 33.7455C56.5372 33.6655 56.7052 33.6095 56.8812 33.5775C57.0732 33.5295 57.2572 33.5055 57.4332 33.5055C57.6252 33.5055 57.8332 33.5215 58.0572 33.5535C58.2972 33.5695 58.5212 33.6175 58.7292 33.6975C59.0972 33.8095 59.4172 34.0255 59.6892 34.3455C59.9772 34.6655 60.1212 35.1295 60.1212 35.7375C60.1212 35.8975 60.1052 36.0735 60.0732 36.2655C60.0412 36.4415 59.9852 36.6175 59.9052 36.7935C59.6972 37.3215 59.3772 37.8255 58.9452 38.3055C58.5292 38.7855 58.0892 39.1215 57.6252 39.3135C57.4972 39.3775 57.3692 39.4255 57.2412 39.4575C57.1292 39.4735 57.0092 39.4815 56.8812 39.4815C56.5452 39.4815 56.2412 39.4335 55.9692 39.3375C55.7132 39.2415 55.4732 39.1135 55.2492 38.9535L55.0572 38.7855L54.9372 39.0255C54.8252 39.3295 54.7452 39.5855 54.6972 39.7935C54.6652 40.0015 54.6492 40.1535 54.6492 40.2495C54.6492 40.4415 54.6572 40.6415 54.6732 40.8495C54.6892 41.0415 54.7372 41.2015 54.8172 41.3295C54.8812 41.4095 54.9612 41.4735 55.0572 41.5215C55.1692 41.5695 55.3052 41.5935 55.4652 41.5935C55.5612 41.5935 55.6492 41.5935 55.7292 41.5935C55.8252 41.5775 55.9052 41.5615 55.9692 41.5455C56.2572 41.4815 56.4892 41.3775 56.6652 41.2335C56.8572 41.0735 57.0572 40.9375 57.2652 40.8255L57.3612 40.7775L57.3372 40.7055C57.6092 40.5615 57.7932 40.4735 57.8892 40.4415C57.9852 40.3935 58.0572 40.3535 58.1052 40.3215C58.1692 40.2575 58.2412 40.2255 58.3212 40.2255C58.5452 40.1935 58.7612 40.2575 58.9692 40.4175C59.1932 40.5615 59.3052 40.7455 59.3052 40.9695C59.3052 41.0655 59.2332 41.2175 59.0892 41.4255C58.9612 41.6335 58.7932 41.8415 58.5852 42.0495C58.3932 42.2415 58.1932 42.3935 57.9852 42.5055C57.9372 42.5215 57.8892 42.5455 57.8412 42.5775C57.7932 42.5935 57.7452 42.6175 57.6972 42.6495H57.7212C57.5772 42.8415 57.4332 42.9375 57.2892 42.9375H57.0972C57.0332 43.0495 56.8252 43.1695 56.4732 43.2975C56.1212 43.4415 55.7772 43.5135 55.4412 43.5135ZM56.6892 37.7295C56.8332 37.7295 56.9612 37.7055 57.0732 37.6575C57.2012 37.6095 57.3212 37.5535 57.4332 37.4895C57.8172 37.2175 58.0652 36.8655 58.1772 36.4335C58.2892 36.0015 58.2492 35.6735 58.0572 35.4495C58.0252 35.4015 57.9852 35.3695 57.9372 35.3535C57.8892 35.3215 57.8332 35.3055 57.7692 35.3055C57.5932 35.3055 57.3932 35.3615 57.1692 35.4735C56.9612 35.5855 56.7532 35.7455 56.5452 35.9535C56.3372 36.1615 56.1452 36.4095 55.9692 36.6975L55.6572 37.2015C55.6892 37.1855 55.7132 37.1775 55.7292 37.1775C55.7612 37.1615 55.7852 37.1535 55.8012 37.1535C55.9452 37.1535 56.0412 37.2015 56.0892 37.2975C56.1372 37.3935 56.1932 37.4895 56.2572 37.5855C56.3372 37.6815 56.4812 37.7295 56.6892 37.7295ZM61.7048 42.1935C61.6568 42.1295 61.5528 42.0495 61.3928 41.9535C61.2328 41.8575 61.1528 41.7775 61.1528 41.7135C61.1528 41.6815 61.1448 41.6415 61.1288 41.5935C61.1288 41.5455 61.0968 41.5215 61.0328 41.5215C60.9848 41.4735 61.0088 41.2975 61.1048 40.9935C61.2168 40.6895 61.3608 40.3295 61.5368 39.9135C61.7288 39.4975 61.9288 39.0975 62.1368 38.7135C62.3448 38.3135 62.5208 37.9935 62.6648 37.7535C62.7448 37.7055 62.7928 37.6415 62.8088 37.5615C62.8408 37.4655 62.8408 37.4175 62.8088 37.4175C62.8088 37.4175 62.8488 37.3455 62.9288 37.2015C63.0248 37.0415 63.0968 36.9375 63.1448 36.8895C63.2728 36.6655 63.3688 36.4415 63.4328 36.2175C63.4968 35.9775 63.5128 35.7775 63.4808 35.6175C63.4168 35.5375 63.3448 35.5135 63.2648 35.5455C63.1848 35.5775 63.1448 35.5935 63.1448 35.5935C63.0808 35.6095 62.9848 35.6415 62.8568 35.6895C62.7448 35.7215 62.6408 35.7695 62.5448 35.8335C62.1768 36.0895 61.9048 36.2175 61.7288 36.2175C61.5688 36.2175 61.4088 36.0255 61.2488 35.6415C61.1848 35.4655 61.1608 35.2975 61.1768 35.1375C61.1928 34.9775 61.2568 34.8495 61.3688 34.7535C61.4968 34.6415 61.6568 34.5295 61.8488 34.4175C62.0408 34.2895 62.1688 34.2015 62.2328 34.1535C62.4088 34.0415 62.6568 33.9215 62.9768 33.7935C63.2968 33.6655 63.4888 33.5935 63.5528 33.5775C63.9688 33.4495 64.3208 33.4495 64.6088 33.5775C64.8968 33.6895 65.1128 33.9135 65.2568 34.2495C65.4808 34.5215 65.5928 34.8095 65.5928 35.1135C65.5928 35.4175 65.4808 35.7935 65.2568 36.2415L65.0168 36.6015C64.9368 36.7615 64.9208 36.8415 64.9688 36.8415C65.0328 36.8415 65.1048 36.7855 65.1848 36.6735C65.2328 36.6095 65.3288 36.5135 65.4728 36.3855C65.6168 36.2575 65.7128 36.1935 65.7608 36.1935C65.7608 36.1935 65.7768 36.1855 65.8088 36.1695C65.8568 36.1535 65.8808 36.0895 65.8808 35.9775C65.9288 35.9295 65.9768 35.8815 66.0248 35.8335C66.0888 35.7855 66.1208 35.7615 66.1208 35.7615C66.1848 35.7615 66.2648 35.7295 66.3608 35.6655C66.4728 35.5855 66.6568 35.4415 66.9128 35.2335C67.0888 35.1055 67.2488 35.0415 67.3928 35.0415C67.7608 34.9295 68.0568 35.0495 68.2808 35.4015C68.5208 35.7535 68.6408 36.2095 68.6408 36.7695L68.1368 38.0655L69.0008 37.0095C69.0968 36.8815 69.1928 36.7695 69.2888 36.6735C69.4008 36.5775 69.4968 36.4975 69.5768 36.4335C69.6088 36.3215 69.6568 36.2575 69.7208 36.2415C69.7848 36.2255 69.8168 36.2175 69.8168 36.2175C69.8168 36.2175 69.8328 36.2175 69.8648 36.2175C69.8968 36.2015 69.9128 36.1695 69.9128 36.1215C69.9928 36.0575 70.0808 36.0015 70.1768 35.9535C70.2728 35.8895 70.3368 35.8255 70.3688 35.7615C70.6408 35.6495 70.9688 35.6335 71.3528 35.7135C71.7368 35.7775 72.0088 35.9775 72.1688 36.3135C72.2808 36.5055 72.3848 36.6735 72.4808 36.8175C72.5768 36.9615 72.6248 37.1775 72.6248 37.4655C72.5928 37.7055 72.5608 37.8735 72.5288 37.9695C72.5128 38.0655 72.4968 38.1695 72.4808 38.2815C72.4648 38.3775 72.4408 38.5535 72.4088 38.8095C72.3448 38.9375 72.3048 39.0735 72.2888 39.2175C72.2888 39.3615 72.2888 39.4975 72.2888 39.6255C72.2888 39.8335 72.2968 39.9775 72.3128 40.0575C72.3288 40.1215 72.3928 40.1535 72.5048 40.1535C72.7288 40.1055 72.9128 40.0335 73.0568 39.9375C73.2168 39.8255 73.3928 39.6815 73.5848 39.5055C73.8248 39.2815 74.0328 39.2495 74.2088 39.4095C74.4008 39.5535 74.5208 39.7215 74.5688 39.9135C74.6008 39.9775 74.5688 40.1215 74.4728 40.3455C74.3768 40.5695 74.2648 40.7855 74.1368 40.9935C74.0088 41.2015 73.9048 41.3055 73.8248 41.3055C73.7768 41.3055 73.6808 41.3695 73.5368 41.4975C73.3928 41.6255 73.2808 41.7135 73.2008 41.7615C73.0888 41.8735 72.9768 41.9775 72.8648 42.0735C72.7688 42.1695 72.6568 42.2175 72.5288 42.2175C72.4648 42.2175 72.3848 42.2415 72.2888 42.2895C72.2088 42.3215 72.1128 42.3375 72.0008 42.3375C71.8408 42.3855 71.5928 42.3615 71.2568 42.2655C70.9368 42.1695 70.7288 41.9455 70.6328 41.5935C70.5688 41.4175 70.4728 41.1935 70.3448 40.9215C70.2328 40.6495 70.2088 40.3135 70.2728 39.9135C70.3368 39.6255 70.3768 39.3615 70.3928 39.1215C70.4088 38.8815 70.4408 38.7135 70.4888 38.6175C70.4888 38.5695 70.4888 38.4575 70.4888 38.2815C70.4888 38.0895 70.4648 37.9935 70.4168 37.9935C70.3528 37.9935 70.2328 38.0735 70.0568 38.2335C69.8808 38.3935 69.6728 38.6095 69.4328 38.8815C69.1928 39.1375 68.9448 39.4175 68.6888 39.7215C68.4488 40.0255 68.2328 40.3295 68.0408 40.6335C67.8968 40.8095 67.7688 41.0255 67.6568 41.2815C67.5448 41.5375 67.4648 41.6815 67.4168 41.7135C67.3048 41.8415 67.1128 41.8575 66.8408 41.7615C66.5848 41.6655 66.3928 41.5135 66.2648 41.3055C66.2168 41.2095 66.1608 41.1535 66.0968 41.1375C66.0328 41.1055 65.9768 41.0575 65.9288 40.9935C65.8968 40.9135 65.8968 40.7615 65.9288 40.5375C65.9768 40.3135 66.0808 39.9535 66.2408 39.4575C66.4168 38.9135 66.5688 38.4255 66.6968 37.9935C66.8408 37.5455 66.9128 37.3215 66.9128 37.3215C66.9128 37.2575 66.7928 37.3215 66.5528 37.5135C66.3128 37.6895 66.0328 37.9135 65.7128 38.1855C65.5688 38.3615 65.3768 38.5855 65.1368 38.8575C64.9128 39.1295 64.6488 39.4495 64.3448 39.8175C64.0568 40.1855 63.7288 40.6175 63.3608 41.1135C62.8968 41.7695 62.5448 42.1695 62.3048 42.3135C62.0808 42.4575 61.8808 42.4175 61.7048 42.1935ZM83.4846 44.0655C83.3726 43.8895 83.1806 43.7775 82.9086 43.7295C82.6366 43.6815 82.2206 43.6735 81.6606 43.7055C81.4366 43.7375 81.2046 43.7215 80.9646 43.6575C80.7246 43.5935 80.5326 43.4975 80.3886 43.3695C80.2446 43.2415 80.1886 43.1135 80.2206 42.9855C80.2366 42.7935 80.4606 42.5855 80.8926 42.3615C81.3246 42.1375 81.8846 42.0175 82.5726 42.0015L83.5806 41.9775L83.8206 41.4975C83.8846 41.3215 83.9326 41.1295 83.9646 40.9215C84.0126 40.7135 84.0926 40.4255 84.2046 40.0575C84.2686 39.8335 84.3646 39.5215 84.4926 39.1215C84.6206 38.7215 84.7566 38.2975 84.9006 37.8495C85.0446 37.3855 85.1726 36.9695 85.2846 36.6015C85.3966 36.2335 85.4686 35.9775 85.5006 35.8335C85.5646 35.6895 85.6526 35.4495 85.7646 35.1135C85.8766 34.7615 85.9806 34.4095 86.0766 34.0575C86.1886 33.6895 86.2606 33.4255 86.2926 33.2655C86.7086 32.0015 86.9806 31.1215 87.1086 30.6255C87.2366 30.1135 87.2686 29.8495 87.2046 29.8335C87.1406 29.8335 86.9886 29.8415 86.7486 29.8575C86.5086 29.8735 86.2446 29.8975 85.9566 29.9295C85.6686 29.9455 85.4126 29.9695 85.1886 30.0015C84.9646 30.0335 84.8286 30.0655 84.7806 30.0975C84.7006 30.2095 84.5646 30.1935 84.3726 30.0495C84.1806 29.8895 84.0606 29.7295 84.0126 29.5695C83.9966 29.4255 83.9966 29.2895 84.0126 29.1615C84.0286 29.0335 84.0766 28.9455 84.1566 28.8975C84.2686 28.8015 84.5006 28.6975 84.8526 28.5855C85.2046 28.4575 85.5966 28.3455 86.0286 28.2495C86.4766 28.1535 86.8846 28.0815 87.2526 28.0335C87.5246 28.0015 87.7966 27.9455 88.0686 27.8655C88.3406 27.7695 88.5566 27.6575 88.7166 27.5295C88.8606 27.4815 88.9966 27.4415 89.1246 27.4095C89.2686 27.3775 89.4126 27.3695 89.5566 27.3855C89.6846 27.4655 89.9006 27.5055 90.2046 27.5055C90.5246 27.5055 90.8606 27.4975 91.2126 27.4815C92.1086 27.4015 92.7326 27.4335 93.0846 27.5775C93.4526 27.7055 93.6926 27.8815 93.8046 28.1055C93.8846 28.4095 93.8686 28.6655 93.7566 28.8735C93.6446 29.0655 93.4526 29.1535 93.1806 29.1375C93.0366 29.1695 92.8366 29.2015 92.5806 29.2335C92.3246 29.2495 91.9886 29.2655 91.5726 29.2815C90.5166 29.3775 89.9486 29.4895 89.8686 29.6175C89.8046 29.6815 89.7486 29.7455 89.7006 29.8095C89.6686 29.8735 89.6206 29.9455 89.5566 30.0255C89.5726 30.0895 89.5326 30.2815 89.4366 30.6015C89.3566 30.9055 89.2526 31.2335 89.1246 31.5855C89.0606 31.7935 88.9646 32.0895 88.8366 32.4735C88.7086 32.8575 88.5726 33.2575 88.4286 33.6735C88.3006 34.0735 88.1806 34.4415 88.0686 34.7775C87.9566 35.0975 87.8766 35.3135 87.8286 35.4255C87.7646 35.5695 87.7086 35.7295 87.6606 35.9055C87.6286 36.0655 87.6046 36.1855 87.5886 36.2655C87.3646 37.0495 87.1726 37.7055 87.0126 38.2335C86.8686 38.7615 86.7406 39.2255 86.6286 39.6255C86.5166 40.0095 86.4126 40.3855 86.3166 40.7535C86.2206 41.1055 86.1086 41.5055 85.9806 41.9535C85.9806 41.9535 86.1166 41.9455 86.3886 41.9295C86.6606 41.8975 87.0046 41.8655 87.4206 41.8335C88.1726 41.7535 88.6846 41.7055 88.9566 41.6895C89.2286 41.6735 89.3886 41.6975 89.4366 41.7615C89.4846 41.8095 89.5326 41.9055 89.5806 42.0495C89.9006 42.4815 89.8766 42.8415 89.5086 43.1295C89.1566 43.4175 88.5326 43.5535 87.6366 43.5375C86.8046 43.5695 86.1886 43.5935 85.7886 43.6095C85.4046 43.6415 85.1566 43.6815 85.0446 43.7295C84.9326 43.7775 84.8766 43.8575 84.8766 43.9695C84.8926 44.2255 84.7326 44.3775 84.3966 44.4255C84.0766 44.4895 83.7726 44.3695 83.4846 44.0655ZM90.3289 48.9135C90.2169 48.8655 90.0409 48.7455 89.8009 48.5535C89.5769 48.3615 89.3689 48.1535 89.1769 47.9295C89.0009 47.7215 88.9129 47.5695 88.9129 47.4735C88.9129 47.3775 88.9529 47.1215 89.0329 46.7055C89.1129 46.3055 89.2169 45.8095 89.3449 45.2175C89.4889 44.6415 89.6409 44.0495 89.8009 43.4415C89.9769 42.8495 90.1529 42.3215 90.3289 41.8575C90.3609 41.7775 90.4649 41.5135 90.6409 41.0655C90.8329 40.6015 91.0169 40.0415 91.1929 39.3855C91.3209 38.9695 91.4889 38.4975 91.6969 37.9695C91.9049 37.4415 92.1209 36.9135 92.3449 36.3855C92.5689 35.8415 92.7529 35.3615 92.8969 34.9455C93.0409 34.5295 93.2009 34.1135 93.3769 33.6975C93.5529 33.2655 93.6489 33.0175 93.6649 32.9535C93.6969 32.8575 93.7849 32.7775 93.9289 32.7135C94.0889 32.6335 94.2489 32.5695 94.4089 32.5215C94.5689 32.4575 94.6729 32.4175 94.7209 32.4015C95.0089 32.3215 95.2569 32.4415 95.4649 32.7615C95.5449 32.9055 95.5609 33.1055 95.5129 33.3615C95.4809 33.6015 95.4009 33.8655 95.2729 34.1535L95.1049 34.6335L95.9689 34.4415C96.1129 34.4415 96.3129 34.4495 96.5689 34.4655C96.8249 34.4815 97.0729 34.4975 97.3129 34.5135C97.5689 34.5295 97.7449 34.5535 97.8409 34.5855C98.2249 34.6015 98.4889 34.6735 98.6329 34.8015C98.7929 34.9295 98.9289 35.0975 99.0409 35.3055C99.1209 35.3855 99.2169 35.4975 99.3289 35.6415C99.4409 35.7695 99.5049 35.8975 99.5209 36.0255C99.5849 36.2975 99.5609 36.6175 99.4489 36.9855C99.3529 37.3535 99.2009 37.7295 98.9929 38.1135C98.8009 38.4815 98.5689 38.8255 98.2969 39.1455C98.0409 39.4495 97.7929 39.6815 97.5529 39.8415C97.3929 39.9055 97.2489 39.9775 97.1209 40.0575C96.9929 40.1215 96.9289 40.1535 96.9289 40.1535C96.9129 40.2335 96.7449 40.3695 96.4249 40.5615C96.1209 40.7535 95.7609 40.9375 95.3449 41.1135C94.9449 41.2735 94.5849 41.3775 94.2649 41.4255C94.1529 41.4415 93.9929 41.4575 93.7849 41.4735C93.5769 41.4895 93.4169 41.4655 93.3049 41.4015C93.1289 41.3695 93.0089 41.3535 92.9449 41.3535C92.8809 41.3535 92.8489 41.3855 92.8489 41.4495C92.8329 41.4815 92.7209 41.7375 92.5129 42.2175C92.3049 42.6975 92.0889 43.3615 91.8649 44.2095C91.5609 45.1375 91.3129 45.8975 91.1209 46.4895C90.9289 47.0975 90.7769 47.5695 90.6649 47.9055C90.5689 48.2415 90.4969 48.4815 90.4489 48.6255C90.4009 48.7855 90.3609 48.8815 90.3289 48.9135ZM93.4249 39.3375C93.4729 39.4335 93.6409 39.4655 93.9289 39.4335C94.2169 39.3855 94.5449 39.2895 94.9129 39.1455C95.2809 39.0015 95.6089 38.8335 95.8969 38.6415C96.2009 38.4335 96.3769 38.2175 96.4249 37.9935C96.7769 37.5935 97.0249 37.3055 97.1689 37.1295C97.3129 36.9375 97.3049 36.7855 97.1449 36.6735C96.9689 36.4175 96.7129 36.2975 96.3769 36.3135C96.0569 36.3295 95.5449 36.5295 94.8409 36.9135C94.5689 37.0095 94.3849 37.0975 94.2889 37.1775C94.1929 37.2415 94.1129 37.3455 94.0489 37.4895C94.0009 37.6335 93.9049 37.8655 93.7609 38.1855C93.6169 38.5375 93.5209 38.8015 93.4729 38.9775C93.4249 39.1535 93.4089 39.2735 93.4249 39.3375ZM101.703 43.2255C101.159 43.0015 100.759 42.7695 100.503 42.5295C100.263 42.2735 100.167 42.0495 100.215 41.8575C100.247 41.7615 100.303 41.6735 100.383 41.5935C100.463 41.5135 100.639 41.4815 100.911 41.4975C101.199 41.4975 101.639 41.5695 102.231 41.7135C102.407 41.7135 102.583 41.7055 102.759 41.6895C102.935 41.6735 103.095 41.6495 103.239 41.6175C103.399 41.5855 103.527 41.5455 103.623 41.4975C103.703 41.4655 103.727 41.4255 103.695 41.3775C103.663 41.3135 103.607 41.2495 103.527 41.1855C103.463 41.1055 103.391 41.0575 103.311 41.0415C103.231 41.0095 103.159 40.9935 103.095 40.9935C103.063 40.9135 102.991 40.8335 102.879 40.7535C102.783 40.6735 102.663 40.5855 102.519 40.4895C102.167 40.2015 101.847 39.9455 101.559 39.7215C101.271 39.4975 101.159 39.3295 101.223 39.2175C101.223 39.1535 101.223 39.1215 101.223 39.1215C101.223 39.1055 101.223 39.0975 101.223 39.0975C101.111 39.0975 101.007 38.9455 100.911 38.6415C100.815 38.3215 100.767 38.0335 100.767 37.7775C100.767 37.4575 100.831 37.1375 100.959 36.8175C101.103 36.4975 101.279 36.1935 101.487 35.9055C101.711 35.6175 101.935 35.3615 102.159 35.1375C102.463 34.8495 102.783 34.5695 103.119 34.2975C103.471 34.0095 103.847 33.7535 104.247 33.5295C104.663 33.3055 105.119 33.1295 105.615 33.0015C105.839 32.9535 106.095 32.9295 106.383 32.9295C106.671 32.9295 106.879 32.9695 107.007 33.0495C107.135 32.9695 107.295 32.9935 107.487 33.1215C107.679 33.2335 107.871 33.3935 108.063 33.6015C108.255 33.8095 108.399 34.0175 108.495 34.2255C108.495 34.4175 108.487 34.6575 108.471 34.9455C108.471 35.2175 108.455 35.4575 108.423 35.6655C108.391 35.8735 108.319 35.9775 108.207 35.9775C108.207 35.9775 108.183 35.9855 108.135 36.0015C108.103 36.0015 108.087 36.0415 108.087 36.1215C108.087 36.2815 107.967 36.4655 107.727 36.6735C107.423 36.8815 107.135 37.0495 106.863 37.1775C106.591 37.3055 106.383 37.3135 106.239 37.2015C106.143 37.1375 106.055 37.0735 105.975 37.0095C105.895 36.9455 105.823 36.8655 105.759 36.7695C105.759 36.7695 105.735 36.7375 105.687 36.6735C105.655 36.5935 105.639 36.5215 105.639 36.4575C105.639 36.3935 105.663 36.3375 105.711 36.2895C105.759 36.2255 105.783 36.1935 105.783 36.1935C106.007 35.9855 106.175 35.7935 106.287 35.6175C106.415 35.4415 106.503 35.2895 106.551 35.1615C106.599 35.0175 106.623 34.9055 106.623 34.8255C106.623 34.7295 106.599 34.6735 106.551 34.6575C106.519 34.6255 106.439 34.6095 106.311 34.6095C106.231 34.6095 106.055 34.6735 105.783 34.8015C105.527 34.9295 105.255 35.0895 104.967 35.2815C104.679 35.4575 104.455 35.6175 104.295 35.7615C104.231 35.8735 104.183 35.9455 104.151 35.9775C104.135 36.0095 104.095 36.0255 104.031 36.0255C104.031 35.9615 103.991 35.9695 103.911 36.0495C103.831 36.1295 103.735 36.2415 103.623 36.3855C103.511 36.5295 103.399 36.6815 103.287 36.8415C103.175 37.0015 103.087 37.1295 103.023 37.2255C103.007 37.3695 102.967 37.5055 102.903 37.6335C102.855 37.7455 102.839 37.8655 102.855 37.9935C102.871 38.1535 102.951 38.3055 103.095 38.4495C103.239 38.5935 103.447 38.7775 103.719 39.0015C104.279 39.4175 104.695 39.7455 104.967 39.9855C105.255 40.2255 105.455 40.4175 105.567 40.5615C105.679 40.7055 105.751 40.8495 105.783 40.9935C106.055 41.4895 106.087 41.9215 105.879 42.2895C105.671 42.6415 105.351 42.9135 104.919 43.1055C104.759 43.1855 104.479 43.2575 104.079 43.3215C103.679 43.4015 103.255 43.4335 102.807 43.4175C102.375 43.4175 102.007 43.3535 101.703 43.2255ZM110.502 42.2415C110.198 41.9695 109.934 41.6895 109.71 41.4015C109.486 41.0975 109.334 40.6335 109.254 40.0095C109.222 39.7215 109.254 39.3215 109.35 38.8095C109.446 38.2975 109.59 37.7615 109.782 37.2015C109.974 36.6255 110.182 36.0975 110.406 35.6175C110.63 35.1375 110.854 34.7855 111.078 34.5615C111.27 34.3215 111.51 34.1295 111.798 33.9855C112.102 33.8415 112.414 33.8415 112.734 33.9855C112.91 34.1935 112.998 34.4815 112.998 34.8495C113.014 35.2015 112.926 35.5295 112.734 35.8335C112.414 36.2655 112.134 36.8095 111.894 37.4655C111.67 38.1055 111.518 38.6815 111.438 39.1935C111.326 39.5615 111.278 39.8495 111.294 40.0575C111.31 40.2495 111.422 40.3695 111.63 40.4175C111.934 40.4975 112.246 40.4095 112.566 40.1535C112.902 39.8975 113.222 39.5215 113.526 39.0255C113.846 38.5295 114.126 37.9615 114.366 37.3215C114.462 37.0975 114.534 36.8335 114.582 36.5295C114.646 36.2255 114.71 36.0015 114.774 35.8575C114.854 35.5375 114.99 35.2895 115.182 35.1135C115.39 34.9215 115.606 34.8015 115.83 34.7535C116.054 34.7055 116.222 34.7295 116.334 34.8255C116.478 34.8895 116.63 34.9935 116.79 35.1375C116.95 35.2815 117.014 35.5375 116.982 35.9055C116.982 36.4975 116.854 37.0015 116.598 37.4175C116.342 37.8335 116.126 38.2735 115.95 38.7375C115.806 39.0735 115.574 39.4655 115.254 39.9135C114.934 40.3615 114.59 40.7695 114.222 41.1375C113.87 41.5055 113.542 41.7535 113.238 41.8815C112.79 42.1695 112.334 42.3455 111.87 42.4095C111.406 42.4575 110.95 42.4015 110.502 42.2415ZM118.377 42.1935C118.329 42.1295 118.225 42.0495 118.065 41.9535C117.905 41.8575 117.825 41.7775 117.825 41.7135C117.825 41.6815 117.817 41.6415 117.801 41.5935C117.801 41.5455 117.769 41.5215 117.705 41.5215C117.657 41.4735 117.681 41.2975 117.777 40.9935C117.889 40.6895 118.033 40.3295 118.209 39.9135C118.401 39.4975 118.601 39.0975 118.809 38.7135C119.017 38.3135 119.193 37.9935 119.337 37.7535C119.417 37.7055 119.465 37.6415 119.481 37.5615C119.513 37.4655 119.513 37.4175 119.481 37.4175C119.481 37.4175 119.521 37.3455 119.601 37.2015C119.697 37.0415 119.769 36.9375 119.817 36.8895C119.945 36.6655 120.041 36.4415 120.105 36.2175C120.169 35.9775 120.185 35.7775 120.153 35.6175C120.089 35.5375 120.017 35.5135 119.937 35.5455C119.857 35.5775 119.817 35.5935 119.817 35.5935C119.753 35.6095 119.657 35.6415 119.529 35.6895C119.417 35.7215 119.313 35.7695 119.217 35.8335C118.849 36.0895 118.577 36.2175 118.401 36.2175C118.241 36.2175 118.081 36.0255 117.921 35.6415C117.857 35.4655 117.833 35.2975 117.849 35.1375C117.865 34.9775 117.929 34.8495 118.041 34.7535C118.169 34.6415 118.329 34.5295 118.521 34.4175C118.713 34.2895 118.841 34.2015 118.905 34.1535C119.081 34.0415 119.329 33.9215 119.649 33.7935C119.969 33.6655 120.161 33.5935 120.225 33.5775C120.641 33.4495 120.993 33.4495 121.281 33.5775C121.569 33.6895 121.785 33.9135 121.929 34.2495C122.153 34.5215 122.265 34.8095 122.265 35.1135C122.265 35.4175 122.153 35.7935 121.929 36.2415L121.689 36.6015C121.609 36.7615 121.593 36.8415 121.641 36.8415C121.705 36.8415 121.777 36.7855 121.857 36.6735C121.905 36.6095 122.001 36.5135 122.145 36.3855C122.289 36.2575 122.385 36.1935 122.433 36.1935C122.433 36.1935 122.449 36.1855 122.481 36.1695C122.529 36.1535 122.553 36.0895 122.553 35.9775C122.601 35.9295 122.649 35.8815 122.697 35.8335C122.761 35.7855 122.793 35.7615 122.793 35.7615C122.857 35.7615 122.937 35.7295 123.033 35.6655C123.145 35.5855 123.329 35.4415 123.585 35.2335C123.761 35.1055 123.921 35.0415 124.065 35.0415C124.433 34.9295 124.729 35.0495 124.953 35.4015C125.193 35.7535 125.313 36.2095 125.313 36.7695L124.809 38.0655L125.673 37.0095C125.769 36.8815 125.865 36.7695 125.961 36.6735C126.073 36.5775 126.169 36.4975 126.249 36.4335C126.281 36.3215 126.329 36.2575 126.393 36.2415C126.457 36.2255 126.489 36.2175 126.489 36.2175C126.489 36.2175 126.505 36.2175 126.537 36.2175C126.569 36.2015 126.585 36.1695 126.585 36.1215C126.665 36.0575 126.753 36.0015 126.849 35.9535C126.945 35.8895 127.009 35.8255 127.041 35.7615C127.313 35.6495 127.641 35.6335 128.025 35.7135C128.409 35.7775 128.681 35.9775 128.841 36.3135C128.953 36.5055 129.057 36.6735 129.153 36.8175C129.249 36.9615 129.297 37.1775 129.297 37.4655C129.265 37.7055 129.233 37.8735 129.201 37.9695C129.185 38.0655 129.169 38.1695 129.153 38.2815C129.137 38.3775 129.113 38.5535 129.081 38.8095C129.017 38.9375 128.977 39.0735 128.961 39.2175C128.961 39.3615 128.961 39.4975 128.961 39.6255C128.961 39.8335 128.969 39.9775 128.985 40.0575C129.001 40.1215 129.065 40.1535 129.177 40.1535C129.401 40.1055 129.585 40.0335 129.729 39.9375C129.889 39.8255 130.065 39.6815 130.257 39.5055C130.497 39.2815 130.705 39.2495 130.881 39.4095C131.073 39.5535 131.193 39.7215 131.241 39.9135C131.273 39.9775 131.241 40.1215 131.145 40.3455C131.049 40.5695 130.937 40.7855 130.809 40.9935C130.681 41.2015 130.577 41.3055 130.497 41.3055C130.449 41.3055 130.353 41.3695 130.209 41.4975C130.065 41.6255 129.953 41.7135 129.873 41.7615C129.761 41.8735 129.649 41.9775 129.537 42.0735C129.441 42.1695 129.329 42.2175 129.201 42.2175C129.137 42.2175 129.057 42.2415 128.961 42.2895C128.881 42.3215 128.785 42.3375 128.673 42.3375C128.513 42.3855 128.265 42.3615 127.929 42.2655C127.609 42.1695 127.401 41.9455 127.305 41.5935C127.241 41.4175 127.145 41.1935 127.017 40.9215C126.905 40.6495 126.881 40.3135 126.945 39.9135C127.009 39.6255 127.049 39.3615 127.065 39.1215C127.081 38.8815 127.113 38.7135 127.161 38.6175C127.161 38.5695 127.161 38.4575 127.161 38.2815C127.161 38.0895 127.137 37.9935 127.089 37.9935C127.025 37.9935 126.905 38.0735 126.729 38.2335C126.553 38.3935 126.345 38.6095 126.105 38.8815C125.865 39.1375 125.617 39.4175 125.361 39.7215C125.121 40.0255 124.905 40.3295 124.713 40.6335C124.569 40.8095 124.441 41.0255 124.329 41.2815C124.217 41.5375 124.137 41.6815 124.089 41.7135C123.977 41.8415 123.785 41.8575 123.513 41.7615C123.257 41.6655 123.065 41.5135 122.937 41.3055C122.889 41.2095 122.833 41.1535 122.769 41.1375C122.705 41.1055 122.649 41.0575 122.601 40.9935C122.569 40.9135 122.569 40.7615 122.601 40.5375C122.649 40.3135 122.753 39.9535 122.913 39.4575C123.089 38.9135 123.241 38.4255 123.369 37.9935C123.513 37.5455 123.585 37.3215 123.585 37.3215C123.585 37.2575 123.465 37.3215 123.225 37.5135C122.985 37.6895 122.705 37.9135 122.385 38.1855C122.241 38.3615 122.049 38.5855 121.809 38.8575C121.585 39.1295 121.321 39.4495 121.017 39.8175C120.729 40.1855 120.401 40.6175 120.033 41.1135C119.569 41.7695 119.217 42.1695 118.977 42.3135C118.753 42.4575 118.553 42.4175 118.377 42.1935ZM4.62044 66.6735C4.49244 66.5455 4.39644 66.3535 4.33244 66.0975C4.28444 65.8415 4.26844 65.5935 4.28444 65.3535C4.30044 65.0975 4.34044 64.9055 4.40444 64.7775C4.40444 64.6495 4.42044 64.5535 4.45244 64.4895C4.50044 64.4095 4.51644 64.3375 4.50044 64.2735C4.48444 64.2095 4.50044 64.0975 4.54844 63.9375C4.59644 63.7775 4.64444 63.6255 4.69244 63.4815C4.80444 63.2255 4.93244 62.8975 5.07644 62.4975C5.22044 62.0815 5.36444 61.6655 5.50844 61.2495C5.65244 60.8175 5.77244 60.4495 5.86844 60.1455C5.96444 59.8255 6.02044 59.6335 6.03644 59.5695C6.03644 59.3775 6.16444 59.2735 6.42044 59.2575C6.61244 59.1935 6.84444 59.2735 7.11644 59.4975C7.38844 59.7215 7.60444 59.9615 7.76444 60.2175C7.89244 60.3455 7.94044 60.5135 7.90844 60.7215C7.87644 60.9295 7.77244 61.2255 7.59644 61.6095C7.53244 61.7375 7.45244 61.9535 7.35644 62.2575C7.27644 62.5455 7.22044 62.7855 7.18844 62.9775C7.12444 63.1055 7.04444 63.2895 6.94844 63.5295C6.86844 63.7535 6.79644 63.9695 6.73244 64.1775C6.70044 64.2575 6.66844 64.4095 6.63644 64.6335C6.60444 64.8415 6.56444 65.0575 6.51644 65.2815C6.46844 65.5055 6.40444 65.6815 6.32444 65.8095C6.18044 66.4655 5.92444 66.8495 5.55644 66.9615C5.20444 67.0735 4.89244 66.9775 4.62044 66.6735ZM7.21244 57.0495C7.03644 56.9215 6.90044 56.7695 6.80444 56.5935C6.72444 56.4015 6.67644 56.2335 6.66044 56.0895C6.66044 55.9455 6.67644 55.8575 6.70844 55.8255C6.86844 55.6495 7.00444 55.4175 7.11644 55.1295C7.24444 54.8415 7.38044 54.5775 7.52444 54.3375C7.55644 54.2895 7.59644 54.2255 7.64444 54.1455C7.70844 54.0495 7.77244 53.9935 7.83644 53.9775C8.02844 53.8495 8.29244 53.8575 8.62844 54.0015C8.98044 54.1455 9.23644 54.3455 9.39644 54.6015C9.54044 54.9055 9.58044 55.2175 9.51644 55.5375C9.46844 55.8575 9.30044 56.1935 9.01244 56.5455C8.77244 56.8655 8.46844 57.0735 8.10044 57.1695C7.73244 57.2495 7.43644 57.2095 7.21244 57.0495ZM10.5314 67.2255C9.98738 67.0015 9.58738 66.7695 9.33138 66.5295C9.09138 66.2735 8.99538 66.0495 9.04338 65.8575C9.07538 65.7615 9.13138 65.6735 9.21138 65.5935C9.29138 65.5135 9.46738 65.4815 9.73938 65.4975C10.0274 65.4975 10.4674 65.5695 11.0594 65.7135C11.2354 65.7135 11.4114 65.7055 11.5874 65.6895C11.7634 65.6735 11.9234 65.6495 12.0674 65.6175C12.2274 65.5855 12.3554 65.5455 12.4514 65.4975C12.5314 65.4655 12.5554 65.4255 12.5234 65.3775C12.4914 65.3135 12.4354 65.2495 12.3554 65.1855C12.2914 65.1055 12.2194 65.0575 12.1394 65.0415C12.0594 65.0095 11.9874 64.9935 11.9234 64.9935C11.8914 64.9135 11.8194 64.8335 11.7074 64.7535C11.6114 64.6735 11.4914 64.5855 11.3474 64.4895C10.9954 64.2015 10.6754 63.9455 10.3874 63.7215C10.0994 63.4975 9.98738 63.3295 10.0514 63.2175C10.0514 63.1535 10.0514 63.1215 10.0514 63.1215C10.0514 63.1055 10.0514 63.0975 10.0514 63.0975C9.93938 63.0975 9.83538 62.9455 9.73938 62.6415C9.64338 62.3215 9.59538 62.0335 9.59538 61.7775C9.59538 61.4575 9.65938 61.1375 9.78738 60.8175C9.93138 60.4975 10.1074 60.1935 10.3154 59.9055C10.5394 59.6175 10.7634 59.3615 10.9874 59.1375C11.2914 58.8495 11.6114 58.5695 11.9474 58.2975C12.2994 58.0095 12.6754 57.7535 13.0754 57.5295C13.4914 57.3055 13.9474 57.1295 14.4434 57.0015C14.6674 56.9535 14.9234 56.9295 15.2114 56.9295C15.4994 56.9295 15.7074 56.9695 15.8354 57.0495C15.9634 56.9695 16.1234 56.9935 16.3154 57.1215C16.5074 57.2335 16.6994 57.3935 16.8914 57.6015C17.0834 57.8095 17.2274 58.0175 17.3234 58.2255C17.3234 58.4175 17.3154 58.6575 17.2994 58.9455C17.2994 59.2175 17.2834 59.4575 17.2514 59.6655C17.2194 59.8735 17.1474 59.9775 17.0354 59.9775C17.0354 59.9775 17.0114 59.9855 16.9634 60.0015C16.9314 60.0015 16.9154 60.0415 16.9154 60.1215C16.9154 60.2815 16.7954 60.4655 16.5554 60.6735C16.2514 60.8815 15.9634 61.0495 15.6914 61.1775C15.4194 61.3055 15.2114 61.3135 15.0674 61.2015C14.9714 61.1375 14.8834 61.0735 14.8034 61.0095C14.7234 60.9455 14.6514 60.8655 14.5874 60.7695C14.5874 60.7695 14.5634 60.7375 14.5154 60.6735C14.4834 60.5935 14.4674 60.5215 14.4674 60.4575C14.4674 60.3935 14.4914 60.3375 14.5394 60.2895C14.5874 60.2255 14.6114 60.1935 14.6114 60.1935C14.8354 59.9855 15.0034 59.7935 15.1154 59.6175C15.2434 59.4415 15.3314 59.2895 15.3794 59.1615C15.4274 59.0175 15.4514 58.9055 15.4514 58.8255C15.4514 58.7295 15.4274 58.6735 15.3794 58.6575C15.3474 58.6255 15.2674 58.6095 15.1394 58.6095C15.0594 58.6095 14.8834 58.6735 14.6114 58.8015C14.3554 58.9295 14.0834 59.0895 13.7954 59.2815C13.5074 59.4575 13.2834 59.6175 13.1234 59.7615C13.0594 59.8735 13.0114 59.9455 12.9794 59.9775C12.9634 60.0095 12.9234 60.0255 12.8594 60.0255C12.8594 59.9615 12.8194 59.9695 12.7394 60.0495C12.6594 60.1295 12.5634 60.2415 12.4514 60.3855C12.3394 60.5295 12.2274 60.6815 12.1154 60.8415C12.0034 61.0015 11.9154 61.1295 11.8514 61.2255C11.8354 61.3695 11.7954 61.5055 11.7314 61.6335C11.6834 61.7455 11.6674 61.8655 11.6834 61.9935C11.6994 62.1535 11.7794 62.3055 11.9234 62.4495C12.0674 62.5935 12.2754 62.7775 12.5474 63.0015C13.1074 63.4175 13.5234 63.7455 13.7954 63.9855C14.0834 64.2255 14.2834 64.4175 14.3954 64.5615C14.5074 64.7055 14.5794 64.8495 14.6114 64.9935C14.8834 65.4895 14.9154 65.9215 14.7074 66.2895C14.4994 66.6415 14.1794 66.9135 13.7474 67.1055C13.5874 67.1855 13.3074 67.2575 12.9074 67.3215C12.5074 67.4015 12.0834 67.4335 11.6354 67.4175C11.2034 67.4175 10.8354 67.3535 10.5314 67.2255ZM25.7185 67.2255C25.2065 67.2255 24.7345 67.1135 24.3025 66.8895C23.8865 66.6495 23.5505 66.3615 23.2945 66.0255C23.0385 65.6735 22.9105 65.3375 22.9105 65.0175C22.9105 64.8735 22.9345 64.7695 22.9825 64.7055C23.0465 64.6415 23.1345 64.6095 23.2465 64.6095C23.3265 64.6255 23.4225 64.6655 23.5345 64.7295C23.6465 64.7935 23.7585 64.8655 23.8705 64.9455C24.1265 65.1215 24.4065 65.2335 24.7105 65.2815C25.0145 65.3295 25.2865 65.3135 25.5265 65.2335C25.7665 65.1375 25.9025 64.9935 25.9345 64.8015C25.9345 64.7375 25.9025 64.6015 25.8385 64.3935C25.7745 64.1855 25.6945 63.9855 25.5985 63.7935C25.1985 63.2015 24.9505 62.6415 24.8545 62.1135C24.7585 61.5695 24.6945 61.0255 24.6625 60.4815C24.6625 60.2575 24.7665 60.0095 24.9745 59.7375C25.1825 59.4495 25.4385 59.1695 25.7425 58.8975C26.0785 58.6095 26.4465 58.3375 26.8465 58.0815C27.2625 57.8255 27.6705 57.6095 28.0705 57.4335C28.4705 57.2575 28.8065 57.1535 29.0785 57.1215C29.3665 57.1215 29.6705 57.1375 29.9905 57.1695C30.3265 57.1855 30.5505 57.2415 30.6625 57.3375C30.8865 57.5135 31.0945 57.8015 31.2865 58.2015C31.4785 58.6015 31.5745 58.9375 31.5745 59.2095C31.5745 59.3375 31.5025 59.4975 31.3585 59.6895C31.2305 59.8655 31.1105 60.0655 30.9985 60.2895C30.9345 60.4015 30.8785 60.5215 30.8305 60.6495C30.7825 60.7775 30.7265 60.9055 30.6625 61.0335C30.5665 61.2575 30.3905 61.3535 30.1345 61.3215C29.8945 61.2735 29.6705 61.1455 29.4625 60.9375C29.2545 60.7135 29.1505 60.4575 29.1505 60.1695C29.1505 59.9295 29.2225 59.7215 29.3665 59.5455C29.5105 59.3695 29.5825 59.2495 29.5825 59.1855C29.5825 59.1535 29.5665 59.1295 29.5345 59.1135C29.5025 59.0975 29.4465 59.0895 29.3665 59.0895C29.2545 59.0895 29.0705 59.1375 28.8145 59.2335C28.5745 59.3135 28.3185 59.4335 28.0465 59.5935C27.7745 59.7535 27.5265 59.9455 27.3025 60.1695C27.1425 60.3455 27.0065 60.5375 26.8945 60.7455C26.7985 60.9375 26.7505 61.1455 26.7505 61.3695C26.7505 61.5935 26.7905 61.8575 26.8705 62.1615C26.9665 62.4495 27.0705 62.6895 27.1825 62.8815C27.2145 62.9135 27.2625 63.0015 27.3265 63.1455C27.4065 63.2735 27.4945 63.4335 27.5905 63.6255C28.1825 64.8415 28.2785 65.7455 27.8785 66.3375C27.4945 66.9295 26.7745 67.2255 25.7185 67.2255ZM33.5571 67.0575C33.1731 67.0575 32.8371 66.8575 32.5491 66.4575C32.2771 66.0415 32.1091 65.5455 32.0451 64.9695C32.0611 64.8415 32.0771 64.6575 32.0931 64.4175C32.1251 64.1775 32.1571 63.9295 32.1891 63.6735C32.2531 63.3695 32.3411 62.9775 32.4531 62.4975C32.5651 62.0175 32.6851 61.5375 32.8131 61.0575C32.9411 60.5615 33.0531 60.1375 33.1491 59.7855C33.2451 59.4175 33.3011 59.2015 33.3171 59.1375C33.4131 58.9135 33.6291 58.8575 33.9651 58.9695C34.3011 59.0815 34.5891 59.3215 34.8291 59.6895C34.9251 59.8175 34.9811 59.9695 34.9971 60.1455C35.0291 60.3215 35.0051 60.5775 34.9251 60.9135C34.8611 61.2495 34.7331 61.7455 34.5411 62.4015C34.3651 63.0415 34.2291 63.5615 34.1331 63.9615C34.0531 64.3455 34.0211 64.7535 34.0371 65.1855C33.9731 65.9215 33.9091 66.4255 33.8451 66.6975C33.7811 66.9535 33.6851 67.0735 33.5571 67.0575ZM35.7651 57.0975C35.7011 57.1455 35.6371 57.1695 35.5731 57.1695C35.5251 57.1535 35.4371 57.1055 35.3091 57.0255C35.1971 57.0095 35.0531 56.9375 34.8771 56.8095C34.7171 56.6655 34.5731 56.5215 34.4451 56.3775C34.3331 56.2335 34.2771 56.1455 34.2771 56.1135C34.2611 55.9535 34.2691 55.6975 34.3011 55.3455C34.3491 54.9935 34.4371 54.6655 34.5651 54.3615C34.7091 54.0415 34.9011 53.8735 35.1411 53.8575C35.2051 53.8575 35.3411 53.8895 35.5491 53.9535C35.7731 54.0175 36.0051 54.0975 36.2451 54.1935C36.3731 54.4335 36.4931 54.7455 36.6051 55.1295C36.7171 55.5135 36.7251 55.8895 36.6291 56.2575C36.5491 56.6095 36.2611 56.8895 35.7651 57.0975ZM37.8121 66.2895C37.5081 66.1615 37.2601 65.9695 37.0681 65.7135C36.8921 65.4415 36.8041 65.1135 36.8041 64.7295C36.8041 64.5695 36.8361 64.2975 36.9001 63.9135C36.9641 63.5295 37.0521 63.0975 37.1641 62.6175C37.2761 62.1375 37.3881 61.6895 37.5001 61.2735C37.6601 60.9855 37.7641 60.6975 37.8121 60.4095C37.8761 60.1215 37.9081 59.9455 37.9081 59.8815C37.9401 59.6895 37.9961 59.4335 38.0761 59.1135C38.1561 58.7935 38.2361 58.5055 38.3161 58.2495C38.4121 57.9775 38.4761 57.8255 38.5081 57.7935C38.5881 57.7135 38.7241 57.6655 38.9161 57.6495C39.1081 57.6335 39.3001 57.6575 39.4921 57.7215C39.6841 57.7695 39.8121 57.8735 39.8761 58.0335C40.0521 58.2255 40.1481 58.5135 40.1641 58.8975C40.1961 59.2815 40.1241 59.7295 39.9481 60.2415C39.8041 60.5615 39.6601 60.9375 39.5161 61.3695C39.3721 61.8015 39.2441 62.2015 39.1321 62.5695C39.0361 62.9215 38.9801 63.1615 38.9641 63.2895L38.1001 63.2655C38.3721 63.0095 38.6281 62.7455 38.8681 62.4735C39.1081 62.1855 39.2841 61.9615 39.3961 61.8015C39.6681 61.4335 39.9001 61.1295 40.0921 60.8895C40.3001 60.6335 40.5641 60.3295 40.8841 59.9775C41.2041 59.6095 41.5481 59.3535 41.9161 59.2095C42.2841 59.0495 42.5561 58.9695 42.7321 58.9695C43.0841 59.0335 43.3961 59.2175 43.6681 59.5215C43.9561 59.8095 44.1321 60.2415 44.1961 60.8175C44.1961 61.0415 44.1721 61.3055 44.1241 61.6095C44.0921 61.9135 44.0761 62.0655 44.0761 62.0655C44.0761 62.0655 44.2041 61.9055 44.4601 61.5855C44.7321 61.2655 45.0921 60.9055 45.5401 60.5055C45.8441 60.2815 46.1401 60.1535 46.4281 60.1215C46.7161 60.0735 46.9721 60.1695 47.1961 60.4095C47.6121 60.6335 47.9161 61.0255 48.1081 61.5855C48.3001 62.1455 48.3641 62.7775 48.3001 63.4815C48.2521 63.8975 48.2521 64.2335 48.3001 64.4895C48.3641 64.7295 48.4281 64.9455 48.4921 65.1375C48.7001 65.4255 48.7321 65.6815 48.5881 65.9055C48.4441 66.1135 48.3161 66.2175 48.2041 66.2175C48.0441 66.2175 47.8041 66.1855 47.4841 66.1215C47.1641 66.0575 46.8681 65.9455 46.5961 65.7855C46.3401 65.6255 46.2121 65.4095 46.2121 65.1375V63.6495C46.2121 63.2975 46.1961 63.0415 46.1641 62.8815C46.1481 62.7055 46.1081 62.5935 46.0441 62.5455C45.8681 62.4495 45.6521 62.5215 45.3961 62.7615C45.1401 63.0015 44.8601 63.3455 44.5561 63.7935C44.2681 64.2255 43.9561 64.7135 43.6201 65.2575C43.3161 65.7535 43.0681 66.0575 42.8761 66.1695C42.6841 66.2655 42.5001 66.2575 42.3241 66.1455C41.9721 66.0335 41.7481 65.8815 41.6521 65.6895C41.5721 65.4815 41.5641 65.2495 41.6281 64.9935C41.7081 64.7215 41.8041 64.3695 41.9161 63.9375C42.0441 63.5055 42.1641 63.0895 42.2761 62.6895C42.3881 62.2735 42.4601 61.9695 42.4921 61.7775C42.4281 61.6495 42.3161 61.6095 42.1561 61.6575C42.0121 61.6895 41.8601 61.7615 41.7001 61.8735C41.5081 62.0015 41.3001 62.1375 41.0761 62.2815C40.8681 62.4255 40.6201 62.7295 40.3321 63.1935C40.1401 63.4975 39.9241 63.8335 39.6841 64.2015C39.4441 64.5535 39.2201 64.8735 39.0121 65.1615C38.8201 65.4495 38.6601 65.6495 38.5321 65.7615C38.4201 66.0495 38.3161 66.2335 38.2201 66.3135C38.1241 66.3775 37.9881 66.3695 37.8121 66.2895ZM49.2921 72.6735C49.2281 72.6735 49.1321 72.6735 49.0041 72.6735C48.8921 72.6895 48.7961 72.6255 48.7161 72.4815C48.6521 72.4015 48.5561 72.2415 48.4281 72.0015C48.3001 71.7775 48.2761 71.4575 48.3561 71.0415C48.4361 70.7695 48.5001 70.4975 48.5481 70.2255C48.5961 69.9695 48.6201 69.7775 48.6201 69.6495C48.6201 69.5855 48.6361 69.4575 48.6681 69.2655C48.7161 69.0895 48.7401 68.9615 48.7401 68.8815C48.8201 68.7535 48.8841 68.5775 48.9321 68.3535C48.9801 68.1295 49.0041 67.9295 49.0041 67.7535C49.0041 67.5615 49.1001 67.3855 49.2921 67.2255C49.2921 67.0975 49.3161 66.9375 49.3641 66.7455C49.4281 66.5535 49.4601 66.4255 49.4601 66.3615C49.5081 66.1375 49.6121 65.7455 49.7721 65.1855C49.9481 64.6095 50.1561 63.9615 50.3961 63.2415C50.6521 62.5215 50.9001 61.8175 51.1401 61.1295C51.3801 60.4415 51.5961 59.8575 51.7881 59.3775C51.9801 58.9295 52.1401 58.5135 52.2681 58.1295C52.3961 57.7455 52.4601 57.4735 52.4601 57.3135C52.4601 57.2495 52.4761 57.2015 52.5081 57.1695C52.5401 57.1215 52.6121 57.0335 52.7241 56.9055C52.8841 56.7455 53.0921 56.6895 53.3481 56.7375C53.6201 56.7695 53.8441 56.8495 54.0201 56.9775C54.1481 57.1855 54.2361 57.3775 54.2841 57.5535C54.3481 57.7135 54.3481 57.9695 54.2841 58.3215C54.2841 58.5615 54.2281 58.7855 54.1161 58.9935C54.0041 59.1855 53.9001 59.3455 53.8041 59.4735C53.7241 59.5855 53.7001 59.6335 53.7321 59.6175C54.4361 59.1855 55.0681 58.9535 55.6281 58.9215C56.2041 58.8735 56.6841 58.9695 57.0681 59.2095C57.4681 59.4335 57.7721 59.7455 57.9801 60.1455C58.1881 60.5455 58.2921 60.9775 58.2921 61.4415C58.2921 61.6335 58.2281 61.8895 58.1001 62.2095C57.9721 62.5295 57.8281 62.8335 57.6681 63.1215C57.5081 63.3935 57.3801 63.5775 57.2841 63.6735C57.2201 63.6735 57.1561 63.7295 57.0921 63.8415C57.0281 63.9375 56.9641 64.0495 56.9001 64.1775C56.7721 64.3375 56.5561 64.5215 56.2521 64.7295C55.9641 64.9215 55.6681 65.0815 55.3641 65.2095C55.0601 65.3215 54.8441 65.3535 54.7161 65.3055C54.7161 65.3055 54.6921 65.3215 54.6441 65.3535C54.6121 65.3855 54.5961 65.4415 54.5961 65.5215C54.5961 65.5535 54.4841 65.6175 54.2601 65.7135C54.0361 65.8095 53.7721 65.8975 53.4681 65.9775C53.1641 66.0575 52.8841 66.0975 52.6281 66.0975C52.2921 66.0975 52.0521 66.0335 51.9081 65.9055C51.8761 65.9375 51.8361 65.9855 51.7881 66.0495C51.7561 66.1135 51.7401 66.1695 51.7401 66.2175C51.7401 66.3135 51.7001 66.4655 51.6201 66.6735C51.5561 66.8815 51.4761 67.0655 51.3801 67.2255C51.2841 67.4015 51.1961 67.4895 51.1161 67.4895C51.1161 67.4895 51.1001 67.5135 51.0681 67.5615C51.0361 67.6095 51.0521 67.6735 51.1161 67.7535C51.1161 67.7535 51.1081 67.8415 51.0921 68.0175C51.0921 68.2095 51.0521 68.3695 50.9721 68.4975C50.9721 68.6255 50.9481 68.8175 50.9001 69.0735C50.8521 69.3295 50.7961 69.5215 50.7321 69.6495C50.7321 69.8415 50.7001 70.0255 50.6361 70.2015C50.5881 70.3935 50.5321 70.4895 50.4681 70.4895C50.4041 70.5055 50.3641 70.6015 50.3481 70.7775C50.3321 70.9695 50.3241 71.1055 50.3241 71.1855C50.3081 71.5855 50.1801 71.9295 49.9401 72.2175C49.7001 72.5215 49.4841 72.6735 49.2921 72.6735ZM52.3641 64.2735C52.4921 64.2735 52.7241 64.2175 53.0601 64.1055C53.3961 63.9935 53.7481 63.8575 54.1161 63.6975C54.4841 63.5215 54.7721 63.3455 54.9801 63.1695C55.3961 62.8015 55.7161 62.4415 55.9401 62.0895C56.1801 61.7375 56.1641 61.3455 55.8921 60.9135C55.7641 60.6895 55.5561 60.6015 55.2681 60.6495C54.9961 60.6815 54.6921 60.8095 54.3561 61.0335C54.0201 61.2575 53.6761 61.5375 53.3241 61.8735C53.1321 62.0815 52.9561 62.3215 52.7961 62.5935C52.6361 62.8655 52.5001 63.1295 52.3881 63.3855C52.2921 63.6415 52.2361 63.8575 52.2201 64.0335C52.2041 64.1935 52.2521 64.2735 52.3641 64.2735ZM59.9224 66.5055C59.7624 66.4095 59.5864 66.2735 59.3944 66.0975C59.2024 65.9055 59.1064 65.7215 59.1064 65.5455C59.1064 65.3055 59.1384 65.0095 59.2024 64.6575C59.2664 64.2895 59.3304 63.9775 59.3944 63.7215C59.4264 63.4335 59.4664 63.1455 59.5144 62.8575C59.5784 62.5535 59.6904 62.2735 59.8504 62.0175C60.0264 61.4095 60.2104 60.8095 60.4024 60.2175C60.5944 59.6095 60.7624 58.9855 60.9064 58.3455C61.1144 57.7535 61.2984 57.2335 61.4584 56.7855C61.6344 56.3215 61.8504 55.7375 62.1064 55.0335C62.2504 54.6335 62.3704 54.2095 62.4664 53.7615C62.5784 53.2975 62.7464 52.8815 62.9704 52.5135C63.0664 52.3695 63.1384 52.2495 63.1864 52.1535C63.2504 52.0415 63.3144 51.9375 63.3784 51.8415C63.3944 51.7775 63.4744 51.7215 63.6184 51.6735C63.7784 51.6255 63.9384 51.6015 64.0984 51.6015C64.2744 51.5855 64.3944 51.6175 64.4584 51.6975C64.5064 51.6815 64.5864 51.7455 64.6984 51.8895C64.8104 52.0175 64.9144 52.1695 65.0104 52.3455C65.1224 52.5055 65.1704 52.6335 65.1544 52.7295C65.1544 52.7935 65.1384 52.8815 65.1064 52.9935C65.0904 53.1055 65.0504 53.2095 64.9864 53.3055C64.9224 53.3695 64.8584 53.4655 64.7944 53.5935C64.7464 53.7055 64.6664 53.8655 64.5544 54.0735C64.4904 54.2815 64.4344 54.4975 64.3864 54.7215C64.3384 54.9295 64.2744 55.1215 64.1944 55.2975C64.1304 55.4895 64.0504 55.6735 63.9544 55.8495C63.8744 56.0255 63.8184 56.1695 63.7864 56.2815C63.6744 56.6495 63.5384 57.0095 63.3784 57.3615C63.2344 57.7135 63.1064 58.0895 62.9944 58.4895C62.8824 58.8735 62.7704 59.2735 62.6584 59.6895C62.5464 60.0895 62.3864 60.4735 62.1784 60.8415C62.0664 61.0175 61.9864 61.2415 61.9384 61.5135C61.8904 61.7855 61.8424 62.0575 61.7944 62.3295C61.6984 62.6175 61.6104 62.8895 61.5304 63.1455C61.4664 63.3855 61.4344 63.5375 61.4344 63.6015C61.3384 63.9535 61.2664 64.3055 61.2184 64.6575C61.1864 64.9935 61.1064 65.2895 60.9784 65.5455C60.9624 65.7055 60.9064 65.8815 60.8104 66.0735C60.7144 66.2655 60.5864 66.4095 60.4264 66.5055C60.2824 66.6015 60.1144 66.6015 59.9224 66.5055ZM64.9081 72.7935C64.8441 72.8095 64.7481 72.7855 64.6201 72.7215C64.5081 72.6575 64.4121 72.5455 64.3321 72.3855C64.2521 72.2255 64.2281 72.0175 64.2601 71.7615C64.1961 71.5375 64.2041 71.2575 64.2841 70.9215C64.3801 70.6015 64.5801 70.1215 64.8841 69.4815C65.0441 69.2255 65.1881 68.9215 65.3161 68.5695C65.4601 68.2175 65.6201 67.8655 65.7961 67.5135C65.8761 67.3695 66.0121 67.1215 66.2041 66.7695C66.4121 66.4175 66.6361 66.0015 66.8761 65.5215C67.1321 65.0255 67.3641 64.5135 67.5721 63.9855C67.1561 64.4175 66.7961 64.8255 66.4921 65.2095C66.2041 65.5775 65.9401 65.8735 65.7001 66.0975C65.4761 66.3055 65.2361 66.4015 64.9801 66.3855C64.7721 66.3375 64.5241 66.2015 64.2361 65.9775C63.9481 65.7535 63.7641 65.5055 63.6841 65.2335C63.6201 64.8815 63.5961 64.4335 63.6121 63.8895C63.6441 63.3455 63.7481 62.5215 63.9241 61.4175C64.0521 60.8735 64.1081 60.4575 64.0921 60.1695C64.0921 59.8655 64.0521 59.6415 63.9721 59.4975C63.8921 59.3535 63.7881 59.2255 63.6601 59.1135C63.4521 58.9215 63.4361 58.7135 63.6121 58.4895C63.7881 58.2655 63.9881 58.0975 64.2121 57.9855C64.5481 57.9055 64.8121 57.8895 65.0041 57.9375C65.2121 57.9695 65.4201 58.1055 65.6281 58.3455C65.7561 58.5535 65.8841 58.7775 66.0121 59.0175C66.1401 59.2575 66.2041 59.6015 66.2041 60.0495C66.2041 60.2415 66.1961 60.4575 66.1801 60.6975C66.1641 60.9215 66.1481 61.1295 66.1321 61.3215C66.1161 61.5135 66.1001 61.6655 66.0841 61.7775C65.9241 62.3695 65.7801 62.8815 65.6521 63.3135C65.5241 63.7455 65.5001 63.9615 65.5801 63.9615C65.9001 63.7055 66.1721 63.4575 66.3961 63.2175C66.6361 62.9775 66.8921 62.6895 67.1641 62.3535C67.4361 62.0175 67.7721 61.5775 68.1721 61.0335C68.3161 60.7615 68.4601 60.4975 68.6041 60.2415C68.7481 59.9855 68.8681 59.7215 68.9641 59.4495C69.0601 59.2415 69.1881 59.0255 69.3481 58.8015C69.5081 58.5615 69.6201 58.4335 69.6841 58.4175C69.7641 58.3855 69.8761 58.3935 70.0201 58.4415C70.1641 58.4895 70.3001 58.5455 70.4281 58.6095C70.5721 58.6575 70.6441 58.6975 70.6441 58.7295C70.6601 58.7455 70.7401 58.7615 70.8841 58.7775C71.0281 58.7935 71.1721 58.8095 71.3161 58.8255C71.4601 58.8255 71.5321 58.8495 71.5321 58.8975C71.5321 58.9295 71.4841 59.0495 71.3881 59.2575C71.3081 59.4655 71.2121 59.6975 71.1001 59.9535C70.9881 60.2095 70.8841 60.4415 70.7881 60.6495C70.7081 60.8415 70.6761 60.9535 70.6921 60.9855C70.7241 61.0175 70.7001 61.1375 70.6201 61.3455C70.5401 61.5375 70.4441 61.7535 70.3321 61.9935C70.2361 62.2335 70.1481 62.4495 70.0681 62.6415C69.9081 63.1695 69.7241 63.6975 69.5161 64.2255C69.3081 64.7375 69.0601 65.2495 68.7721 65.7615C68.6761 65.9535 68.5321 66.2495 68.3401 66.6495C68.1641 67.0495 67.9881 67.4415 67.8121 67.8255C67.6521 68.2255 67.5241 68.5295 67.4281 68.7375C67.3641 68.8655 67.2681 69.0655 67.1401 69.3375C67.0281 69.6255 66.9001 69.9375 66.7561 70.2735C66.6281 70.6095 66.5001 70.9215 66.3721 71.2095C66.2441 71.5135 66.1481 71.7455 66.0841 71.9055C66.0521 72.2095 65.9801 72.4335 65.8681 72.5775C65.7241 72.7215 65.5241 72.7935 65.2681 72.7935C65.0281 72.7935 64.9081 72.7935 64.9081 72.7935ZM84.1323 67.5375C83.9243 67.5855 83.7163 67.5295 83.5083 67.3695C83.3163 67.2255 83.1803 67.0655 83.1003 66.8895C83.0043 66.6335 82.9403 66.3935 82.9083 66.1695C82.8923 65.9295 82.8763 65.6575 82.8603 65.3535L82.8363 64.5375L81.8523 65.4255C81.3083 65.9375 80.7963 66.3055 80.3163 66.5295C79.8523 66.7375 79.4283 66.8415 79.0443 66.8415C78.8683 66.8095 78.6523 66.6975 78.3963 66.5055C78.1563 66.2975 77.9323 66.0735 77.7243 65.8335C77.5323 65.5775 77.3963 65.3695 77.3163 65.2095C77.2203 64.9855 77.1883 64.6735 77.2203 64.2735C77.2683 63.8735 77.3643 63.4335 77.5083 62.9535C77.6683 62.4735 77.8603 62.0015 78.0843 61.5375C78.3243 61.0735 78.5963 60.6735 78.9003 60.3375C79.4283 59.5375 80.0843 59.0415 80.8683 58.8495C81.6523 58.6415 82.3483 58.7055 82.9563 59.0415C83.2443 59.1855 83.4523 59.2415 83.5803 59.2095C83.7083 59.1775 83.7883 59.0735 83.8203 58.8975C83.8843 58.6415 83.9563 58.4015 84.0363 58.1775C84.1163 57.9535 84.2283 57.6175 84.3723 57.1695C84.7723 55.9535 85.1163 55.0015 85.4043 54.3135C85.7083 53.6255 85.9803 53.0255 86.2203 52.5135C86.3963 52.1455 86.5723 51.8895 86.7483 51.7455C86.9243 51.6015 87.0763 51.5375 87.2043 51.5535C87.3803 51.5535 87.5963 51.6175 87.8523 51.7455C88.1243 51.8735 88.3003 52.0495 88.3802 52.2735C88.4443 52.4175 88.4683 52.5695 88.4523 52.7295C88.4523 52.8895 88.4043 53.0575 88.3083 53.2335C88.1003 53.6175 87.8523 54.1295 87.5643 54.7695C87.2923 55.3935 87.0123 56.0815 86.7243 56.8335C86.4523 57.5855 86.1963 58.3295 85.9563 59.0655C85.7163 59.8015 85.5163 60.4495 85.3563 61.0095C85.2603 61.3615 85.1803 61.8095 85.1163 62.3535C85.0683 62.8975 85.0283 63.4575 84.9963 64.0335C84.9803 64.5935 84.9803 65.0975 84.9963 65.5455C85.0123 65.9775 85.0363 66.2575 85.0683 66.3855C85.1643 66.7055 85.1643 66.9455 85.0683 67.1055C84.9723 67.2655 84.8363 67.3695 84.6603 67.4175C84.4843 67.4815 84.3083 67.5215 84.1323 67.5375ZM80.1723 64.6335C80.3963 64.5535 80.5963 64.4575 80.7723 64.3455C80.9483 64.2335 81.1563 64.0895 81.3963 63.9135C81.8763 63.5455 82.2203 63.2255 82.4283 62.9535C82.6523 62.6815 82.8283 62.3455 82.9563 61.9455C83.0363 61.7055 83.0363 61.4975 82.9563 61.3215C82.8923 61.1455 82.7723 60.9775 82.5963 60.8175C82.4203 60.6735 82.1963 60.6175 81.9243 60.6495C81.6523 60.6655 81.3403 60.8335 80.9883 61.1535C80.6043 61.5055 80.2763 61.9135 80.0043 62.3775C79.7323 62.8415 79.5083 63.5055 79.3323 64.3695C79.3003 64.5295 79.3563 64.6415 79.5003 64.7055C79.6443 64.7695 79.8683 64.7455 80.1723 64.6335ZM92.6421 67.0335C92.4821 66.8735 92.3541 66.6575 92.2581 66.3855C92.1621 66.0975 92.0661 65.7695 91.9701 65.4015C91.9381 65.2735 91.9221 65.1295 91.9221 64.9695C91.9381 64.8095 91.9381 64.6815 91.9221 64.5855C91.8741 64.6975 91.7941 64.8415 91.6821 65.0175C91.5861 65.1935 91.4901 65.3215 91.3941 65.4015C91.3301 65.4655 91.1861 65.5935 90.9621 65.7855C90.7381 65.9615 90.5141 66.1055 90.2901 66.2175C89.7621 66.5535 89.2901 66.7135 88.8741 66.6975C88.4741 66.6655 88.1221 66.4575 87.8181 66.0735C87.5621 65.8655 87.3541 65.6015 87.1941 65.2815C87.0341 64.9615 87.0021 64.5775 87.0981 64.1295C87.1301 63.5695 87.2101 63.0255 87.3381 62.4975C87.4661 61.9535 87.7301 61.2335 88.1301 60.3375C88.4661 59.6815 88.7221 59.1695 88.8981 58.8015C89.0741 58.4335 89.1861 58.2175 89.2341 58.1535C89.4741 58.0735 89.7701 58.0815 90.1221 58.1775C90.4741 58.2575 90.6661 58.4095 90.6981 58.6335C90.7941 58.7935 90.7941 59.0975 90.6981 59.5455C90.6021 59.9775 90.4101 60.4735 90.1221 61.0335C89.8981 61.5775 89.6821 62.1055 89.4741 62.6175C89.2821 63.1295 89.1621 63.5615 89.1141 63.9135C89.0821 64.2655 89.1781 64.4815 89.4021 64.5615C89.5461 64.6415 89.7541 64.6335 90.0261 64.5375C90.3141 64.4415 90.6501 64.1535 91.0341 63.6735C91.4181 63.1935 91.8261 62.4335 92.2581 61.3935C92.3861 61.0735 92.4821 60.7935 92.5461 60.5535C92.6101 60.2975 92.6501 60.0175 92.6661 59.7135C92.6341 59.5215 92.6821 59.3215 92.8101 59.1135C92.9541 58.9055 93.1221 58.7455 93.3141 58.6335C93.3781 58.5535 93.4661 58.4815 93.5781 58.4175C93.6901 58.3375 93.7621 58.3375 93.7941 58.4175L94.1781 58.3935C94.2421 58.3775 94.3141 58.4415 94.3941 58.5855C94.4741 58.7295 94.5541 58.8335 94.6341 58.8975C94.8101 59.0415 94.8901 59.3535 94.8741 59.8335C94.8581 60.3135 94.6661 60.9855 94.2981 61.8495C93.9941 62.5055 93.7861 63.0015 93.6741 63.3375C93.5781 63.6735 93.5221 64.0015 93.5061 64.3215C93.5061 64.6095 93.5301 64.8575 93.5781 65.0655C93.6261 65.2575 93.7701 65.4575 94.0101 65.6655C94.1861 65.7775 94.2821 65.9695 94.2981 66.2415C94.3301 66.4975 94.3381 66.7215 94.3221 66.9135C94.2901 67.0575 94.1621 67.1535 93.9381 67.2015C93.7301 67.2655 93.4981 67.2815 93.2421 67.2495C93.0021 67.2175 92.8021 67.1455 92.6421 67.0335ZM96.5329 66.1935C96.4849 66.1295 96.3809 66.0495 96.2209 65.9535C96.0609 65.8575 95.9809 65.7775 95.9809 65.7135C95.9809 65.6815 95.9729 65.6415 95.9569 65.5935C95.9569 65.5455 95.9249 65.5215 95.8609 65.5215C95.8129 65.4735 95.8369 65.2975 95.9329 64.9935C96.0449 64.6895 96.1889 64.3295 96.3649 63.9135C96.5569 63.4975 96.7569 63.0975 96.9649 62.7135C97.1729 62.3135 97.3489 61.9935 97.4929 61.7535C97.5729 61.7055 97.6209 61.6415 97.6369 61.5615C97.6689 61.4655 97.6689 61.4175 97.6369 61.4175C97.6369 61.4175 97.6769 61.3455 97.7569 61.2015C97.8529 61.0415 97.9249 60.9375 97.9729 60.8895C98.1009 60.6655 98.1969 60.4415 98.2609 60.2175C98.3249 59.9775 98.3409 59.7775 98.3089 59.6175C98.2449 59.5375 98.1729 59.5135 98.0929 59.5455C98.0129 59.5775 97.9729 59.5935 97.9729 59.5935C97.9089 59.6095 97.8129 59.6415 97.6849 59.6895C97.5729 59.7215 97.4689 59.7695 97.3729 59.8335C97.0049 60.0895 96.7329 60.2175 96.5569 60.2175C96.3969 60.2175 96.2369 60.0255 96.0769 59.6415C96.0129 59.4655 95.9889 59.2975 96.0049 59.1375C96.0209 58.9775 96.0849 58.8495 96.1969 58.7535C96.3249 58.6415 96.4849 58.5295 96.6769 58.4175C96.8689 58.2895 96.9969 58.2015 97.0609 58.1535C97.2369 58.0415 97.4849 57.9215 97.8049 57.7935C98.1249 57.6655 98.3169 57.5935 98.3809 57.5775C98.7969 57.4495 99.1489 57.4495 99.4369 57.5775C99.7249 57.6895 99.9409 57.9135 100.085 58.2495C100.309 58.5215 100.421 58.8095 100.421 59.1135C100.421 59.4175 100.309 59.7935 100.085 60.2415L99.8449 60.6015C99.7649 60.7615 99.7489 60.8415 99.7969 60.8415C99.8609 60.8415 99.9329 60.7855 100.013 60.6735C100.061 60.6095 100.157 60.5135 100.301 60.3855C100.445 60.2575 100.541 60.1935 100.589 60.1935C100.589 60.1935 100.605 60.1855 100.637 60.1695C100.685 60.1535 100.709 60.0895 100.709 59.9775C100.757 59.9295 100.805 59.8815 100.853 59.8335C100.917 59.7855 100.949 59.7615 100.949 59.7615C101.013 59.7615 101.093 59.7295 101.189 59.6655C101.301 59.5855 101.485 59.4415 101.741 59.2335C101.917 59.1055 102.077 59.0415 102.221 59.0415C102.589 58.9295 102.885 59.0495 103.109 59.4015C103.349 59.7535 103.469 60.2095 103.469 60.7695L102.965 62.0655L103.829 61.0095C103.925 60.8815 104.021 60.7695 104.117 60.6735C104.229 60.5775 104.325 60.4975 104.405 60.4335C104.437 60.3215 104.485 60.2575 104.549 60.2415C104.613 60.2255 104.645 60.2175 104.645 60.2175C104.645 60.2175 104.661 60.2175 104.693 60.2175C104.725 60.2015 104.741 60.1695 104.741 60.1215C104.821 60.0575 104.909 60.0015 105.005 59.9535C105.101 59.8895 105.165 59.8255 105.197 59.7615C105.469 59.6495 105.797 59.6335 106.181 59.7135C106.565 59.7775 106.837 59.9775 106.997 60.3135C107.109 60.5055 107.213 60.6735 107.309 60.8175C107.405 60.9615 107.453 61.1775 107.453 61.4655C107.421 61.7055 107.389 61.8735 107.357 61.9695C107.341 62.0655 107.325 62.1695 107.309 62.2815C107.293 62.3775 107.269 62.5535 107.237 62.8095C107.173 62.9375 107.133 63.0735 107.117 63.2175C107.117 63.3615 107.117 63.4975 107.117 63.6255C107.117 63.8335 107.125 63.9775 107.141 64.0575C107.157 64.1215 107.221 64.1535 107.333 64.1535C107.557 64.1055 107.741 64.0335 107.885 63.9375C108.045 63.8255 108.221 63.6815 108.413 63.5055C108.653 63.2815 108.861 63.2495 109.037 63.4095C109.229 63.5535 109.349 63.7215 109.397 63.9135C109.429 63.9775 109.397 64.1215 109.301 64.3455C109.205 64.5695 109.093 64.7855 108.965 64.9935C108.837 65.2015 108.733 65.3055 108.653 65.3055C108.605 65.3055 108.509 65.3695 108.365 65.4975C108.221 65.6255 108.109 65.7135 108.029 65.7615C107.917 65.8735 107.805 65.9775 107.693 66.0735C107.597 66.1695 107.485 66.2175 107.357 66.2175C107.293 66.2175 107.213 66.2415 107.117 66.2895C107.037 66.3215 106.941 66.3375 106.829 66.3375C106.669 66.3855 106.421 66.3615 106.085 66.2655C105.765 66.1695 105.557 65.9455 105.461 65.5935C105.397 65.4175 105.301 65.1935 105.173 64.9215C105.061 64.6495 105.037 64.3135 105.101 63.9135C105.165 63.6255 105.205 63.3615 105.221 63.1215C105.237 62.8815 105.269 62.7135 105.317 62.6175C105.317 62.5695 105.317 62.4575 105.317 62.2815C105.317 62.0895 105.293 61.9935 105.245 61.9935C105.181 61.9935 105.061 62.0735 104.885 62.2335C104.709 62.3935 104.501 62.6095 104.261 62.8815C104.021 63.1375 103.773 63.4175 103.517 63.7215C103.277 64.0255 103.061 64.3295 102.869 64.6335C102.725 64.8095 102.597 65.0255 102.485 65.2815C102.373 65.5375 102.293 65.6815 102.245 65.7135C102.133 65.8415 101.941 65.8575 101.669 65.7615C101.413 65.6655 101.221 65.5135 101.093 65.3055C101.045 65.2095 100.989 65.1535 100.925 65.1375C100.861 65.1055 100.805 65.0575 100.757 64.9935C100.725 64.9135 100.725 64.7615 100.757 64.5375C100.805 64.3135 100.909 63.9535 101.069 63.4575C101.245 62.9135 101.397 62.4255 101.525 61.9935C101.669 61.5455 101.741 61.3215 101.741 61.3215C101.741 61.2575 101.621 61.3215 101.381 61.5135C101.141 61.6895 100.861 61.9135 100.541 62.1855C100.397 62.3615 100.205 62.5855 99.9649 62.8575C99.7409 63.1295 99.4769 63.4495 99.1729 63.8175C98.8849 64.1855 98.5569 64.6175 98.1889 65.1135C97.7249 65.7695 97.3729 66.1695 97.1329 66.3135C96.9089 66.4575 96.7089 66.4175 96.5329 66.1935ZM111.804 66.2895C111.5 66.1615 111.252 65.9695 111.06 65.7135C110.884 65.4415 110.796 65.1135 110.796 64.7295C110.796 64.5695 110.828 64.2975 110.892 63.9135C110.956 63.5295 111.044 63.0975 111.156 62.6175C111.268 62.1375 111.38 61.6895 111.492 61.2735C111.652 60.9855 111.756 60.6975 111.804 60.4095C111.868 60.1215 111.9 59.9455 111.9 59.8815C111.932 59.6895 111.988 59.4335 112.068 59.1135C112.148 58.7935 112.228 58.5055 112.308 58.2495C112.404 57.9775 112.468 57.8255 112.5 57.7935C112.58 57.7135 112.716 57.6655 112.908 57.6495C113.1 57.6335 113.292 57.6575 113.484 57.7215C113.676 57.7695 113.804 57.8735 113.868 58.0335C114.044 58.2255 114.14 58.5135 114.156 58.8975C114.188 59.2815 114.116 59.7295 113.94 60.2415C113.796 60.5615 113.652 60.9375 113.508 61.3695C113.364 61.8015 113.236 62.2015 113.124 62.5695C113.028 62.9215 112.972 63.1615 112.956 63.2895L112.092 63.2655C112.364 63.0095 112.62 62.7455 112.86 62.4735C113.1 62.1855 113.276 61.9615 113.388 61.8015C113.66 61.4335 113.892 61.1295 114.084 60.8895C114.292 60.6335 114.556 60.3295 114.876 59.9775C115.196 59.6095 115.54 59.3535 115.908 59.2095C116.276 59.0495 116.548 58.9695 116.724 58.9695C117.076 59.0335 117.388 59.2175 117.66 59.5215C117.948 59.8095 118.124 60.2415 118.188 60.8175C118.188 61.0415 118.164 61.3055 118.116 61.6095C118.084 61.9135 118.068 62.0655 118.068 62.0655C118.068 62.0655 118.196 61.9055 118.452 61.5855C118.724 61.2655 119.084 60.9055 119.532 60.5055C119.836 60.2815 120.132 60.1535 120.42 60.1215C120.708 60.0735 120.964 60.1695 121.188 60.4095C121.604 60.6335 121.908 61.0255 122.1 61.5855C122.292 62.1455 122.356 62.7775 122.292 63.4815C122.244 63.8975 122.244 64.2335 122.292 64.4895C122.356 64.7295 122.42 64.9455 122.484 65.1375C122.692 65.4255 122.724 65.6815 122.58 65.9055C122.436 66.1135 122.308 66.2175 122.196 66.2175C122.036 66.2175 121.796 66.1855 121.476 66.1215C121.156 66.0575 120.86 65.9455 120.588 65.7855C120.332 65.6255 120.204 65.4095 120.204 65.1375V63.6495C120.204 63.2975 120.188 63.0415 120.156 62.8815C120.14 62.7055 120.1 62.5935 120.036 62.5455C119.86 62.4495 119.644 62.5215 119.388 62.7615C119.132 63.0015 118.852 63.3455 118.548 63.7935C118.26 64.2255 117.948 64.7135 117.612 65.2575C117.308 65.7535 117.06 66.0575 116.868 66.1695C116.676 66.2655 116.492 66.2575 116.316 66.1455C115.964 66.0335 115.74 65.8815 115.644 65.6895C115.564 65.4815 115.556 65.2495 115.62 64.9935C115.7 64.7215 115.796 64.3695 115.908 63.9375C116.036 63.5055 116.156 63.0895 116.268 62.6895C116.38 62.2735 116.452 61.9695 116.484 61.7775C116.42 61.6495 116.308 61.6095 116.148 61.6575C116.004 61.6895 115.852 61.7615 115.692 61.8735C115.5 62.0015 115.292 62.1375 115.068 62.2815C114.86 62.4255 114.612 62.7295 114.324 63.1935C114.132 63.4975 113.916 63.8335 113.676 64.2015C113.436 64.5535 113.212 64.8735 113.004 65.1615C112.812 65.4495 112.652 65.6495 112.524 65.7615C112.412 66.0495 112.308 66.2335 112.212 66.3135C112.116 66.3775 111.98 66.3695 111.804 66.2895ZM123.884 72.0735C123.308 72.1855 122.756 72.2015 122.228 72.1215C121.7 72.0575 121.26 71.9215 120.908 71.7135C120.54 71.5055 120.316 71.2735 120.236 71.0175C120.14 70.6495 120.188 70.3775 120.38 70.2015C120.572 70.0255 120.804 69.9215 121.076 69.8895C121.332 69.8575 121.5 69.8895 121.58 69.9855C121.708 70.0655 121.908 70.1855 122.18 70.3455C122.468 70.5055 122.82 70.5455 123.236 70.4655C123.604 70.3855 123.932 70.2095 124.22 69.9375C124.508 69.6655 124.764 69.3775 124.988 69.0735C125.116 68.8815 125.332 68.5375 125.636 68.0415C125.94 67.5455 126.252 67.0015 126.572 66.4095C126.908 65.8015 127.188 65.2415 127.412 64.7295C127.46 64.6015 127.516 64.4495 127.58 64.2735C127.644 64.0975 127.724 63.9535 127.82 63.8415C127.916 63.6495 127.996 63.4735 128.06 63.3135C128.14 63.1375 128.188 63.0175 128.204 62.9535C128.22 62.8735 128.292 62.7135 128.42 62.4735C128.548 62.2335 128.668 61.9935 128.78 61.7535C128.86 61.5135 128.98 61.1615 129.14 60.6975C129.3 60.2335 129.46 59.8575 129.62 59.5695C129.812 59.2015 129.964 58.9055 130.076 58.6815C130.204 58.4415 130.34 58.2975 130.484 58.2495C130.628 58.1375 130.764 58.0815 130.892 58.0815C131.02 58.0815 131.172 58.1295 131.348 58.2255C131.54 58.4175 131.692 58.6095 131.804 58.8015C131.932 58.9775 131.98 59.2015 131.948 59.4735C131.932 59.7295 131.804 60.0815 131.564 60.5295C131.436 60.9135 131.292 61.2655 131.132 61.5855C130.988 61.8895 130.876 62.0895 130.796 62.1855C130.716 62.3775 130.62 62.5935 130.508 62.8335C130.412 63.0575 130.324 63.2655 130.244 63.4575C129.956 64.0975 129.708 64.6175 129.5 65.0175C129.292 65.4175 129.108 65.7855 128.948 66.1215C128.788 66.4575 128.62 66.8495 128.444 67.2975C128.076 67.8895 127.716 68.4495 127.364 68.9775C127.028 69.5215 126.668 70.0255 126.284 70.4895C126.124 70.6335 125.892 70.8175 125.588 71.0415C125.3 71.2815 124.996 71.4975 124.676 71.6895C124.372 71.8975 124.108 72.0255 123.884 72.0735ZM126.884 66.6495C126.644 66.6175 126.38 66.4575 126.092 66.1695C125.82 65.8815 125.588 65.5775 125.396 65.2575C125.22 64.9375 125.148 64.7135 125.18 64.5855C125.18 64.5055 125.18 64.4415 125.18 64.3935C125.18 64.3455 125.18 64.3215 125.18 64.3215C125.084 64.3215 125.004 64.1855 124.94 63.9135C124.892 63.6255 124.852 63.2655 124.82 62.8335C124.804 62.4015 124.796 61.9535 124.796 61.4895C124.812 61.0255 124.836 60.6015 124.868 60.2175C124.932 59.9455 124.964 59.6495 124.964 59.3295C124.964 58.9935 124.972 58.7295 124.988 58.5375C124.972 58.2815 125.02 58.0735 125.132 57.9135C125.26 57.7535 125.356 57.6495 125.42 57.6015C126.012 57.3455 126.444 57.4815 126.716 58.0095C126.988 58.5375 127.084 59.3775 127.004 60.5295C126.972 61.1695 126.956 61.7855 126.956 62.3775C126.956 62.9535 127.012 63.4495 127.124 63.8655C127.236 64.2815 127.428 64.5775 127.7 64.7535C127.812 64.8175 127.852 64.9535 127.82 65.1615C127.788 65.3695 127.716 65.5935 127.604 65.8335C127.492 66.0575 127.364 66.2575 127.22 66.4335C127.092 66.5935 126.98 66.6655 126.884 66.6495Z" fill="#EA2667"/>
<path d="M209.819 34.7944C209.425 35.523 208.515 35.7941 207.786 35.3999L195.913 28.976C195.184 28.5817 194.913 27.6715 195.307 26.9429C195.701 26.2143 196.612 25.9432 197.34 26.3374L207.894 32.0475L213.605 21.4932C213.999 20.7646 214.909 20.4935 215.638 20.8877C216.366 21.2819 216.637 22.1921 216.243 22.9207L209.819 34.7944ZM119.235 19.2719C128.909 4.10823 148.856 -1.68686 167.516 0.869415C186.209 3.4301 204.218 14.4484 209.938 33.6524L207.062 34.5088C201.782 16.78 185.041 6.29824 167.109 3.84166C149.144 1.38066 130.591 7.05103 121.765 20.8855L119.235 19.2719Z" fill="#1F1A3D"/>
</svg>
