<svg width="211" height="69" viewBox="0 0 211 69" fill="none" xmlns="http://www.w3.org/2000/svg">
<path d="M30.5228 45.04C30.2028 44.864 29.9868 44.656 29.8748 44.416C29.7628 44.176 29.7148 43.912 29.7308 43.624C29.7628 43.336 29.8188 43.04 29.8988 42.736C30.0268 42.224 30.1628 41.8 30.3068 41.464C30.4668 41.112 30.6188 40.752 30.7628 40.384C30.9228 40 31.0588 39.512 31.1708 38.92C31.4268 38.328 31.6508 37.768 31.8428 37.24C32.0508 36.712 32.2108 36.28 32.3228 35.944C32.4348 35.608 32.4908 35.44 32.4908 35.44C32.5068 35.376 32.5708 35.208 32.6828 34.936C32.8108 34.664 32.9628 34.336 33.1388 33.952C33.3308 33.552 33.5148 33.152 33.6908 32.752C33.9628 31.984 34.2188 31.336 34.4588 30.808C34.6988 30.264 34.9388 29.776 35.1788 29.344C35.4348 28.912 35.7068 28.48 35.9948 28.048C36.1868 27.712 36.4588 27.512 36.8108 27.448C37.1628 27.384 37.4988 27.424 37.8188 27.568C38.1388 27.696 38.3468 27.92 38.4428 28.24C38.5228 28.4 38.5868 28.584 38.6348 28.792C38.6988 29 38.7548 29.312 38.8028 29.728C38.8668 30.128 38.9068 30.712 38.9228 31.48C38.9548 32.392 38.9708 33.232 38.9708 34C38.9868 34.752 39.0188 35.448 39.0668 36.088C39.1308 36.728 39.2348 37.312 39.3788 37.84C39.4268 38.128 39.4748 38.48 39.5228 38.896C39.5708 39.296 39.6188 39.696 39.6668 40.096C39.7308 40.496 39.7948 40.832 39.8588 41.104C39.9228 41.36 39.9868 41.488 40.0508 41.488C40.1308 41.488 40.2188 41.424 40.3148 41.296C40.4268 41.152 40.5708 40.856 40.7468 40.408C40.9228 39.96 41.1468 39.272 41.4188 38.344C41.6908 37.416 42.0188 36.168 42.4028 34.6C42.4828 34.328 42.5868 33.888 42.7148 33.28C42.8588 32.672 42.9628 32.056 43.0268 31.432C43.1388 31.032 43.2508 30.592 43.3628 30.112C43.4748 29.632 43.5708 29.208 43.6508 28.84C43.7468 28.472 43.7948 28.264 43.7948 28.216C43.7948 28.104 43.7948 28.008 43.7948 27.928C43.8108 27.848 43.8108 27.768 43.7948 27.688C43.8748 27.688 43.9468 27.584 44.0108 27.376C44.0748 27.152 44.1068 26.96 44.1068 26.8C44.1068 26.528 44.1388 26.312 44.2028 26.152C44.2828 25.976 44.3628 25.848 44.4428 25.768C44.6188 25.448 44.8428 25.288 45.1148 25.288C45.4028 25.272 45.6668 25.352 45.9068 25.528C46.1468 25.688 46.2908 25.888 46.3388 26.128C46.3708 26.304 46.3228 26.704 46.1948 27.328C46.0828 27.936 45.9068 28.76 45.6668 29.8C45.6668 29.976 45.6188 30.264 45.5228 30.664C45.4268 31.064 45.3228 31.488 45.2108 31.936C45.1148 32.384 45.0428 32.768 44.9948 33.088C44.9308 33.504 44.8588 33.896 44.7788 34.264C44.6988 34.616 44.6188 34.784 44.5388 34.768C44.1228 36.576 43.6828 38.12 43.2188 39.4C42.7708 40.664 42.3708 41.696 42.0188 42.496C41.6348 43.376 41.1388 43.936 40.5308 44.176C39.9388 44.432 39.3868 44.232 38.8748 43.576C38.5708 43.16 38.3148 42.752 38.1068 42.352C37.8988 41.952 37.7308 41.48 37.6028 40.936C37.4748 40.392 37.3628 39.704 37.2668 38.872C37.1708 38.2 37.0828 37.544 37.0028 36.904C36.9388 36.248 36.8908 35.584 36.8588 34.912C36.8268 34.224 36.8188 33.496 36.8348 32.728C36.8508 31.816 36.8108 31.28 36.7148 31.12C36.6348 30.96 36.5148 31.048 36.3548 31.384C36.1948 31.72 36.0108 32.176 35.8028 32.752C35.6908 33.072 35.5548 33.44 35.3948 33.856C35.2508 34.256 35.0988 34.656 34.9388 35.056C34.7788 35.456 34.6428 35.8 34.5308 36.088C34.4188 36.376 34.3468 36.56 34.3148 36.64C34.2188 36.832 34.1068 37.088 33.9788 37.408C33.8508 37.712 33.7468 38.04 33.6668 38.392C33.0908 39.896 32.6588 41.192 32.3708 42.28C32.0988 43.352 31.8988 44.064 31.7708 44.416C31.6108 44.864 31.4588 45.136 31.3148 45.232C31.1868 45.328 30.9228 45.264 30.5228 45.04ZM46.7742 42.832C46.5662 42.832 46.3982 42.792 46.2702 42.712C46.1582 42.632 46.0142 42.52 45.8382 42.376C45.5342 42.056 45.2862 41.712 45.0942 41.344C44.9182 40.976 44.8542 40.656 44.9022 40.384C44.9502 40.256 44.9662 40.136 44.9502 40.024C44.9502 39.896 44.9502 39.832 44.9502 39.832C44.8702 39.752 44.8462 39.704 44.8782 39.688C44.9102 39.656 44.9422 39.608 44.9742 39.544C45.0702 39.544 45.1022 39.456 45.0702 39.28C45.0382 39.152 45.0862 38.88 45.2142 38.464C45.3582 38.032 45.5502 37.624 45.7902 37.24C45.8862 37.08 46.0302 36.872 46.2222 36.616C46.4142 36.344 46.6222 36.08 46.8462 35.824C47.0862 35.552 47.3022 35.336 47.4942 35.176C47.8942 34.84 48.2622 34.568 48.5982 34.36C48.9502 34.152 49.3022 34.008 49.6542 33.928C50.0062 33.848 50.3662 33.808 50.7342 33.808C51.1182 33.808 51.4302 33.936 51.6702 34.192C52.0382 34.352 52.2942 34.568 52.4382 34.84C52.5982 35.112 52.7022 35.464 52.7502 35.896C52.7982 36.376 52.7502 36.968 52.6062 37.672C52.4622 38.36 52.0702 39.16 51.4302 40.072C51.0302 40.648 50.6382 41.096 50.2542 41.416C49.8702 41.736 49.4462 42.032 48.9822 42.304C48.6462 42.528 48.2862 42.664 47.9022 42.712C47.5182 42.76 47.1422 42.8 46.7742 42.832ZM49.2222 39.904C49.5742 39.6 49.8222 39.264 49.9662 38.896C50.1262 38.528 50.2942 38.096 50.4702 37.6C50.5342 37.504 50.5742 37.344 50.5902 37.12C50.6222 36.896 50.6302 36.68 50.6142 36.472C50.5982 36.248 50.5422 36.12 50.4462 36.088C50.3022 35.976 50.1582 35.952 50.0142 36.016C49.8702 36.064 49.6862 36.168 49.4622 36.328C48.9822 36.728 48.5342 37.192 48.1182 37.72C47.7182 38.232 47.4382 38.864 47.2782 39.616C47.2302 40.016 47.2702 40.32 47.3982 40.528C47.5422 40.72 47.7662 40.776 48.0702 40.696C48.3902 40.6 48.7742 40.336 49.2222 39.904ZM62.554 43.096C62.09 43.176 61.626 43.136 61.162 42.976C60.714 42.816 60.338 42.56 60.034 42.208C59.746 41.84 59.602 41.4 59.602 40.888C59.554 40.408 59.594 39.84 59.722 39.184C59.866 38.512 60.074 37.84 60.346 37.168C60.634 36.496 60.962 35.928 61.33 35.464C61.65 35.08 61.97 34.728 62.29 34.408C62.61 34.088 62.898 33.872 63.154 33.76C63.378 33.664 63.65 33.592 63.97 33.544C64.306 33.48 64.538 33.448 64.666 33.448C64.922 33.512 65.202 33.616 65.506 33.76C65.826 33.904 65.986 34.072 65.986 34.264C65.986 34.264 66.002 34.288 66.034 34.336C66.082 34.368 66.106 34.384 66.106 34.384C66.202 34.384 66.306 34.504 66.418 34.744C66.546 34.968 66.642 35.232 66.706 35.536C66.77 35.824 66.754 36.056 66.658 36.232C66.594 36.536 66.466 36.832 66.274 37.12C66.098 37.408 65.946 37.552 65.818 37.552C65.754 37.552 65.69 37.56 65.626 37.576C65.578 37.576 65.554 37.616 65.554 37.696C65.554 37.776 65.466 37.816 65.29 37.816C65.13 37.816 64.962 37.784 64.786 37.72C64.61 37.656 64.498 37.56 64.45 37.432C64.45 37.352 64.466 37.248 64.498 37.12C64.53 36.992 64.578 36.776 64.642 36.472C64.738 36.024 64.746 35.728 64.666 35.584C64.586 35.424 64.386 35.408 64.066 35.536C63.666 35.76 63.338 36.024 63.082 36.328C62.826 36.616 62.594 37.024 62.386 37.552C62.194 38.08 61.978 38.816 61.738 39.76C61.642 40.128 61.626 40.416 61.69 40.624C61.77 40.832 61.834 40.944 61.882 40.96C62.106 41.024 62.346 41.04 62.602 41.008C62.874 40.96 63.098 40.888 63.274 40.792C63.53 40.664 63.754 40.528 63.946 40.384C64.154 40.224 64.378 40.056 64.618 39.88C64.698 39.832 64.77 39.744 64.834 39.616C64.898 39.472 64.994 39.368 65.122 39.304C65.25 39.112 65.41 39.016 65.602 39.016C65.81 39 66.01 38.992 66.202 38.992C66.33 39.024 66.466 39.104 66.61 39.232C66.754 39.36 66.858 39.488 66.922 39.616C67.002 39.728 66.994 39.808 66.898 39.856C66.834 39.856 66.794 39.88 66.778 39.928C66.778 39.96 66.778 39.976 66.778 39.976C66.81 40.04 66.738 40.184 66.562 40.408C66.402 40.632 66.194 40.872 65.938 41.128C65.682 41.384 65.434 41.608 65.194 41.8C64.97 41.976 64.81 42.064 64.714 42.064C64.554 42.064 64.474 42.112 64.474 42.208C64.474 42.24 64.354 42.32 64.114 42.448C63.89 42.576 63.626 42.704 63.322 42.832C63.034 42.96 62.778 43.048 62.554 43.096ZM70.8162 43.432C69.9362 43.432 69.2562 43.176 68.7762 42.664C68.3122 42.152 68.0802 41.368 68.0802 40.312C68.0802 39.736 68.1842 39.104 68.3922 38.416C68.6162 37.728 68.9042 37.056 69.2562 36.4C69.6242 35.744 70.0242 35.176 70.4562 34.696C70.8882 34.2 71.3202 33.856 71.7522 33.664C71.9122 33.584 72.0802 33.528 72.2562 33.496C72.4482 33.448 72.6322 33.424 72.8082 33.424C73.0002 33.424 73.2082 33.44 73.4322 33.472C73.6722 33.488 73.8962 33.536 74.1042 33.616C74.4722 33.728 74.7922 33.944 75.0642 34.264C75.3522 34.584 75.4962 35.048 75.4962 35.656C75.4962 35.816 75.4802 35.992 75.4482 36.184C75.4162 36.36 75.3602 36.536 75.2802 36.712C75.0722 37.24 74.7522 37.744 74.3202 38.224C73.9042 38.704 73.4642 39.04 73.0002 39.232C72.8722 39.296 72.7442 39.344 72.6162 39.376C72.5042 39.392 72.3842 39.4 72.2562 39.4C71.9202 39.4 71.6162 39.352 71.3442 39.256C71.0882 39.16 70.8482 39.032 70.6242 38.872L70.4322 38.704L70.3122 38.944C70.2002 39.248 70.1202 39.504 70.0722 39.712C70.0402 39.92 70.0242 40.072 70.0242 40.168C70.0242 40.36 70.0322 40.56 70.0482 40.768C70.0642 40.96 70.1122 41.12 70.1922 41.248C70.2562 41.328 70.3362 41.392 70.4322 41.44C70.5442 41.488 70.6802 41.512 70.8402 41.512C70.9362 41.512 71.0242 41.512 71.1042 41.512C71.2002 41.496 71.2802 41.48 71.3442 41.464C71.6322 41.4 71.8642 41.296 72.0402 41.152C72.2322 40.992 72.4322 40.856 72.6402 40.744L72.7362 40.696L72.7122 40.624C72.9842 40.48 73.1682 40.392 73.2642 40.36C73.3602 40.312 73.4322 40.272 73.4802 40.24C73.5442 40.176 73.6162 40.144 73.6962 40.144C73.9202 40.112 74.1362 40.176 74.3442 40.336C74.5682 40.48 74.6802 40.664 74.6802 40.888C74.6802 40.984 74.6082 41.136 74.4642 41.344C74.3362 41.552 74.1682 41.76 73.9602 41.968C73.7682 42.16 73.5682 42.312 73.3602 42.424C73.3122 42.44 73.2642 42.464 73.2162 42.496C73.1682 42.512 73.1202 42.536 73.0722 42.568H73.0962C72.9522 42.76 72.8082 42.856 72.6642 42.856H72.4722C72.4082 42.968 72.2002 43.088 71.8482 43.216C71.4962 43.36 71.1522 43.432 70.8162 43.432ZM72.0642 37.648C72.2082 37.648 72.3362 37.624 72.4482 37.576C72.5762 37.528 72.6962 37.472 72.8082 37.408C73.1922 37.136 73.4402 36.784 73.5522 36.352C73.6642 35.92 73.6242 35.592 73.4322 35.368C73.4002 35.32 73.3602 35.288 73.3122 35.272C73.2642 35.24 73.2082 35.224 73.1442 35.224C72.9682 35.224 72.7682 35.28 72.5442 35.392C72.3362 35.504 72.1282 35.664 71.9202 35.872C71.7122 36.08 71.5202 36.328 71.3442 36.616L71.0322 37.12C71.0642 37.104 71.0882 37.096 71.1042 37.096C71.1362 37.08 71.1602 37.072 71.1762 37.072C71.3202 37.072 71.4162 37.12 71.4642 37.216C71.5122 37.312 71.5682 37.408 71.6322 37.504C71.7122 37.6 71.8562 37.648 72.0642 37.648ZM78.3278 42.496C78.2798 42.512 78.1758 42.504 78.0158 42.472C77.8718 42.44 77.7198 42.4 77.5598 42.352C77.4158 42.304 77.3278 42.264 77.2958 42.232C77.2318 42.168 77.1438 42.056 77.0318 41.896C76.9198 41.72 76.8558 41.488 76.8398 41.2C76.8398 40.912 76.9758 40.568 77.2478 40.168C77.3278 40.008 77.4238 39.768 77.5358 39.448C77.6478 39.128 77.7598 38.792 77.8718 38.44C77.9998 38.072 78.1118 37.744 78.2078 37.456C78.3198 37.168 78.3998 36.968 78.4478 36.856C78.4798 36.584 78.4638 36.392 78.3998 36.28C78.3518 36.152 78.2158 36.08 77.9918 36.064C77.8318 36.064 77.7038 36.008 77.6078 35.896C77.5278 35.784 77.4878 35.584 77.4878 35.296C77.5198 35.072 77.5758 34.88 77.6558 34.72C77.7518 34.544 77.8798 34.4 78.0398 34.288C78.1998 34.208 78.3998 34.152 78.6398 34.12C78.8958 34.088 79.1438 34.08 79.3838 34.096C79.6238 34.112 79.7918 34.168 79.8878 34.264C79.9998 34.328 80.0878 34.472 80.1518 34.696C80.2318 34.904 80.2958 35.12 80.3438 35.344C80.3918 35.568 80.4238 35.736 80.4398 35.848C80.5998 35.72 80.7758 35.544 80.9678 35.32C81.1758 35.08 81.3838 34.856 81.5918 34.648C81.8478 34.472 82.1518 34.296 82.5038 34.12C82.8558 33.928 83.1118 33.832 83.2718 33.832C83.4478 33.832 83.6638 33.92 83.9198 34.096C84.1758 34.256 84.3358 34.4 84.3998 34.528C84.5598 34.8 84.6718 35.088 84.7358 35.392C84.8158 35.68 84.7678 35.936 84.5918 36.16C84.4318 36.368 84.2078 36.576 83.9198 36.784C83.6318 36.976 83.2718 37.032 82.8398 36.952C82.7438 36.92 82.6398 36.8 82.5278 36.592C82.4318 36.384 82.3758 36.232 82.3598 36.136C82.3598 36.088 82.2878 36.136 82.1438 36.28C82.0158 36.408 81.8558 36.568 81.6638 36.76C81.4878 36.952 81.3198 37.128 81.1598 37.288C80.8878 37.624 80.5998 38.08 80.2958 38.656C79.9918 39.232 79.6318 39.928 79.2158 40.744C79.0238 41.144 78.8638 41.528 78.7358 41.896C78.6078 42.248 78.4718 42.448 78.3278 42.496ZM87.2883 44.44C86.5043 44.424 86.0003 44.2 85.7763 43.768C85.5683 43.352 85.5123 42.824 85.6083 42.184C85.7043 41.88 85.7603 41.608 85.7763 41.368C85.8083 41.112 85.8803 40.952 85.9923 40.888C85.9923 40.888 86.0003 40.864 86.0163 40.816C86.0483 40.768 86.0403 40.72 85.9923 40.672C85.9923 40.464 86.0643 40.176 86.2083 39.808C86.2403 39.712 86.2803 39.6 86.3283 39.472C86.3923 39.328 86.4243 39.256 86.4243 39.256C86.3443 39.128 86.3443 39.024 86.4243 38.944C86.5043 38.864 86.5843 38.792 86.6643 38.728C86.7603 38.648 86.7683 38.56 86.6883 38.464C86.6563 38.4 86.6963 38.256 86.8083 38.032C86.9203 37.792 87.0483 37.544 87.1923 37.288C87.3363 37.032 87.4323 36.832 87.4803 36.688C87.4803 36.656 87.5203 36.544 87.6003 36.352C87.6803 36.16 87.7763 35.936 87.8883 35.68C88.0003 35.424 88.1043 35.192 88.2003 34.984C88.3123 34.776 88.3843 34.64 88.4163 34.576C88.5763 34.496 88.5123 34.44 88.2243 34.408C87.9363 34.376 87.6323 34.368 87.3123 34.384C86.8163 34.368 86.4163 34.344 86.1123 34.312C85.8243 34.28 85.5843 34.208 85.3923 34.096C85.2003 33.872 85.1763 33.608 85.3203 33.304C85.4643 32.984 85.6963 32.816 86.0163 32.8C86.2243 32.784 86.3843 32.776 86.4963 32.776C86.6243 32.776 86.7843 32.768 86.9763 32.752C87.1843 32.72 87.5043 32.68 87.9363 32.632L89.1603 32.536L89.2323 32.128C89.3603 31.92 89.4483 31.784 89.4963 31.72C89.5443 31.656 89.5763 31.592 89.5923 31.528C89.6083 31.448 89.6323 31.312 89.6643 31.12C89.6643 31.12 89.7363 30.992 89.8803 30.736C90.0243 30.464 90.1123 30.184 90.1443 29.896C90.3363 29.576 90.5043 29.288 90.6483 29.032C90.7923 28.76 90.8803 28.592 90.9123 28.528C91.1843 28.128 91.4483 27.912 91.7043 27.88C91.9763 27.848 92.2323 27.912 92.4723 28.072C92.6163 28.152 92.7523 28.256 92.8803 28.384C93.0083 28.496 93.0883 28.648 93.1203 28.84C93.1523 29.016 93.0803 29.248 92.9043 29.536C92.8723 29.6 92.8243 29.72 92.7603 29.896C92.6963 30.056 92.6483 30.192 92.6163 30.304C92.5203 30.416 92.4003 30.6 92.2563 30.856C92.1283 31.096 92.0403 31.344 91.9923 31.6C91.8643 31.872 91.7843 32.04 91.7523 32.104C91.7203 32.168 91.6723 32.2 91.6083 32.2C91.6403 32.36 91.7363 32.44 91.8963 32.44C92.0563 32.424 92.3203 32.408 92.6883 32.392C92.9923 32.36 93.2003 32.328 93.3123 32.296C93.4403 32.248 93.5843 32.264 93.7443 32.344C93.8243 32.456 93.8643 32.624 93.8643 32.848C93.8803 33.056 93.8563 33.264 93.7923 33.472C93.7283 33.664 93.6403 33.784 93.5283 33.832C93.4483 33.832 93.2803 33.88 93.0243 33.976C92.7843 34.056 92.4803 34.104 92.1123 34.12L90.8403 34.24L90.4323 35.056C90.3203 35.264 90.2243 35.456 90.1443 35.632C90.0643 35.792 90.0083 35.888 89.9763 35.92C89.9763 36.016 89.9203 36.16 89.8083 36.352C89.7123 36.544 89.6083 36.752 89.4963 36.976C89.4003 37.248 89.2883 37.496 89.1603 37.72C89.0483 37.944 88.9922 38.056 88.9922 38.056C88.9283 38.056 88.8963 38.104 88.8963 38.2C88.9763 38.392 88.9523 38.536 88.8242 38.632C88.7443 38.68 88.6723 38.752 88.6083 38.848C88.5603 38.928 88.5363 38.968 88.5363 38.968C88.6003 39.032 88.6083 39.112 88.5603 39.208C88.5283 39.304 88.4803 39.408 88.4163 39.52C88.4163 39.648 88.3763 39.832 88.2963 40.072C88.2323 40.312 88.1603 40.536 88.0803 40.744C88.0963 41.032 88.1123 41.216 88.1283 41.296C88.1443 41.376 88.1843 41.408 88.2483 41.392C88.3283 41.408 88.4403 41.408 88.5843 41.392C88.7283 41.376 88.8323 41.368 88.8963 41.368C89.1363 41.256 89.0243 41.816 88.5603 43.048C88.3043 43.448 88.0483 43.776 87.7923 44.032C87.5363 44.304 87.3683 44.44 87.2883 44.44ZM93.7456 42.208C93.6816 42.208 93.5456 42.16 93.3376 42.064C93.1296 41.968 93.0256 41.92 93.0256 41.92C93.0256 41.856 93.0016 41.776 92.9536 41.68C92.9216 41.584 92.9056 41.504 92.9056 41.44C92.7936 41.376 92.6816 41.272 92.5696 41.128C92.4576 40.984 92.4336 40.824 92.4976 40.648C92.5936 40.472 92.7216 40.208 92.8816 39.856C93.0576 39.488 93.2416 39.08 93.4336 38.632C93.6416 38.168 93.8336 37.72 94.0096 37.288C94.1856 36.856 94.3376 36.488 94.4656 36.184C94.5936 35.864 94.6656 35.672 94.6816 35.608C94.6816 35.544 94.6896 35.432 94.7056 35.272C94.7376 35.112 94.8416 34.976 95.0176 34.864C95.2256 34.72 95.4416 34.712 95.6656 34.84C95.8896 34.968 96.0816 35.192 96.2416 35.512C96.4016 35.816 96.4816 36.176 96.4816 36.592C96.4816 36.704 96.4016 36.992 96.2416 37.456C96.0816 37.904 95.8656 38.44 95.5936 39.064C95.3376 39.688 95.0496 40.32 94.7296 40.96C94.4896 41.424 94.3056 41.752 94.1776 41.944C94.0656 42.12 93.9216 42.208 93.7456 42.208ZM97.0096 33.016C96.8176 33.016 96.5856 32.928 96.3136 32.752C96.0576 32.576 95.8256 32.352 95.6176 32.08C95.4096 31.808 95.3056 31.52 95.3056 31.216C95.3056 31.136 95.3776 30.992 95.5216 30.784C95.6656 30.56 95.8016 30.344 95.9296 30.136C96.0736 29.928 96.1456 29.808 96.1456 29.776C96.2736 29.776 96.4256 29.8 96.6016 29.848C96.7776 29.896 96.9216 29.952 97.0336 30.016C97.2096 30.416 97.4416 30.76 97.7296 31.048C98.0176 31.32 98.1616 31.632 98.1616 31.984C98.1616 32.336 98.0736 32.6 97.8976 32.776C97.7216 32.936 97.4256 33.016 97.0096 33.016ZM98.5765 45.904C98.4325 45.904 98.2405 45.832 98.0005 45.688C97.7605 45.544 97.5445 45.368 97.3525 45.16C97.2245 45.016 97.1125 44.864 97.0165 44.704C96.9365 44.544 96.8965 44.384 96.8965 44.224C96.8965 44.048 96.9285 43.792 96.9925 43.456C97.0565 43.12 97.0885 42.92 97.0885 42.856C97.0885 42.712 97.1125 42.464 97.1605 42.112C97.2245 41.744 97.2885 41.376 97.3525 41.008C97.4325 40.624 97.4885 40.336 97.5205 40.144C97.5365 40.064 97.5445 40.008 97.5445 39.976C97.5605 39.944 97.5685 39.928 97.5685 39.928C97.6485 39.656 97.7125 39.408 97.7605 39.184C97.8245 38.944 97.8725 38.72 97.9045 38.512C98.0485 37.888 98.1445 37.424 98.1925 37.12C98.2565 36.8 98.3365 36.512 98.4325 36.256C98.4805 36.112 98.5365 35.976 98.6005 35.848C98.6485 35.736 98.7045 35.616 98.7685 35.488C98.8325 35.36 98.9125 35.216 99.0085 35.056C99.3285 34.16 99.5925 33.456 99.8005 32.944C100.009 32.416 100.217 31.952 100.425 31.552C100.441 31.52 100.449 31.488 100.449 31.456C100.465 31.424 100.481 31.4 100.497 31.384C100.657 30.952 100.865 30.52 101.121 30.088C101.393 29.656 101.713 29.224 102.081 28.792C102.465 28.36 102.897 27.928 103.377 27.496C103.713 27.336 104.041 27.192 104.361 27.064C104.697 26.936 105.017 26.872 105.321 26.872C105.641 26.872 105.929 26.944 106.185 27.088C106.441 27.216 106.657 27.368 106.833 27.544C107.041 27.736 107.193 27.944 107.289 28.168C107.401 28.376 107.457 28.544 107.457 28.672C107.393 28.928 107.265 29.224 107.073 29.56C106.897 29.88 106.697 30.184 106.473 30.472C106.249 30.76 106.041 31 105.849 31.192C105.673 31.384 105.553 31.48 105.489 31.48C105.329 31.48 105.225 31.408 105.177 31.264C105.145 31.104 105.089 30.936 105.009 30.76C104.977 30.696 104.937 30.632 104.889 30.568C104.857 30.504 104.817 30.448 104.769 30.4C104.769 30.32 104.801 30.184 104.865 29.992C104.945 29.784 104.985 29.6 104.985 29.44C104.985 29.344 104.953 29.248 104.889 29.152C104.841 29.056 104.769 29.048 104.673 29.128C104.529 29.224 104.393 29.32 104.265 29.416C104.153 29.496 104.041 29.584 103.929 29.68C103.817 29.776 103.697 29.904 103.569 30.064C103.457 30.208 103.321 30.392 103.161 30.616C103.097 30.712 103.033 30.808 102.969 30.904C102.905 30.984 102.857 31.064 102.825 31.144C102.729 31.288 102.657 31.416 102.609 31.528C102.577 31.624 102.545 31.712 102.513 31.792C102.481 31.888 102.457 31.952 102.441 31.984C102.425 32.016 102.401 32.032 102.368 32.032C102.385 32 102.353 32.072 102.273 32.248C102.209 32.424 102.121 32.624 102.009 32.848C101.945 33.008 101.873 33.16 101.793 33.304C101.713 33.448 101.633 33.56 101.553 33.64H101.577C101.577 33.64 101.537 33.736 101.457 33.928C101.393 34.104 101.321 34.288 101.241 34.48C101.161 34.672 101.121 34.784 101.121 34.816C101.121 34.896 101.257 34.912 101.529 34.864C101.817 34.816 102.129 34.76 102.465 34.696C102.817 34.616 103.089 34.576 103.281 34.576C103.409 34.576 103.521 34.6 103.617 34.648C103.729 34.68 103.817 34.728 103.881 34.792C104.025 34.92 104.129 35.096 104.193 35.32C104.273 35.528 104.313 35.744 104.313 35.968C104.313 36.096 104.193 36.208 103.953 36.304C103.713 36.384 103.345 36.488 102.849 36.616C102.417 36.712 102.049 36.792 101.745 36.856C101.457 36.92 101.217 36.976 101.025 37.024C100.833 37.072 100.673 37.136 100.545 37.216C100.433 37.28 100.345 37.36 100.281 37.456C100.233 37.536 100.193 37.64 100.161 37.768C100.161 37.832 100.153 37.888 100.137 37.936C100.137 37.968 100.129 38 100.113 38.032C100.097 38.096 100.065 38.224 100.017 38.416C99.9685 38.592 99.9125 38.8 99.8485 39.04C99.8005 39.28 99.7445 39.528 99.6805 39.784C99.6325 40.024 99.5845 40.256 99.5365 40.48C99.5205 40.64 99.4965 40.784 99.4645 40.912C99.4485 41.04 99.4405 41.136 99.4405 41.2C99.3765 41.28 99.3045 41.472 99.2245 41.776C99.1605 42.08 99.1205 42.32 99.1045 42.496C99.1045 42.528 99.1045 42.568 99.1045 42.616C99.1045 42.648 99.1045 42.68 99.1045 42.712C99.1045 42.776 99.0805 42.968 99.0325 43.288C99.0005 43.624 98.9845 43.968 98.9845 44.32L98.9125 45.016C98.8965 45.24 98.8645 45.44 98.8165 45.616C98.7845 45.808 98.7045 45.904 98.5765 45.904ZM105.729 42.856C105.473 42.856 105.233 42.728 105.009 42.472C104.785 42.216 104.673 41.864 104.673 41.416C104.673 41.08 104.705 40.76 104.769 40.456C104.849 40.152 104.945 39.768 105.057 39.304C105.169 39.032 105.289 38.688 105.417 38.272C105.561 37.84 105.697 37.416 105.825 37C105.969 36.568 106.089 36.2 106.185 35.896C106.281 35.576 106.337 35.392 106.353 35.344C106.369 35.264 106.409 35.2 106.473 35.152C106.537 35.104 106.625 35.08 106.737 35.08C106.897 35.08 107.081 35.152 107.289 35.296C107.497 35.44 107.681 35.624 107.841 35.848C108.017 36.056 108.121 36.256 108.153 36.448C108.153 36.608 108.137 36.736 108.105 36.832C108.089 36.928 108.049 37.056 107.984 37.216C107.921 37.36 107.833 37.6 107.721 37.936C107.609 38.256 107.465 38.72 107.289 39.328C107.129 39.92 106.929 40.72 106.689 41.728C106.593 42.128 106.473 42.416 106.329 42.592C106.185 42.768 105.985 42.856 105.729 42.856ZM106.953 32.128C106.953 31.952 107.025 31.704 107.169 31.384C107.313 31.048 107.489 30.744 107.697 30.472C107.905 30.184 108.105 30.04 108.297 30.04C108.393 30.04 108.481 30.048 108.561 30.064C108.657 30.08 108.745 30.104 108.825 30.136C109.161 30.264 109.417 30.52 109.593 30.904C109.785 31.288 109.817 31.704 109.689 32.152C109.561 32.584 109.193 32.96 108.585 33.28C108.521 33.312 108.457 33.328 108.393 33.328C108.345 33.328 108.281 33.328 108.201 33.328C107.913 33.328 107.673 33.256 107.481 33.112C107.305 32.952 107.169 32.776 107.073 32.584C106.993 32.392 106.953 32.24 106.953 32.128ZM113.36 42.52C112.88 42.792 112.368 42.952 111.824 43C111.296 43.032 110.8 42.96 110.336 42.784C109.872 42.592 109.496 42.312 109.208 41.944C109.048 41.736 108.896 41.408 108.752 40.96C108.608 40.496 108.584 39.872 108.68 39.088C108.776 38.352 109 37.608 109.352 36.856C109.72 36.104 110.168 35.44 110.696 34.864C111.224 34.288 111.8 33.896 112.424 33.688C112.648 33.608 112.872 33.552 113.096 33.52C113.336 33.472 113.648 33.464 114.032 33.496C114.4 33.544 114.728 33.64 115.016 33.784C115.304 33.912 115.512 34.056 115.64 34.216C115.896 34.472 116.064 34.72 116.144 34.96C116.224 35.2 116.256 35.432 116.24 35.656C116.16 36.168 115.928 36.72 115.544 37.312C115.176 37.904 114.656 38.344 113.984 38.632C113.712 38.744 113.392 38.816 113.024 38.848C112.656 38.88 112.152 38.832 111.512 38.704C111.128 38.624 110.872 38.664 110.744 38.824C110.632 38.984 110.584 39.296 110.6 39.76C110.632 40.048 110.696 40.304 110.792 40.528C110.904 40.736 111.104 40.88 111.392 40.96C111.76 41.024 112.024 41.032 112.184 40.984C112.344 40.92 112.544 40.832 112.784 40.72C112.912 40.64 113.032 40.552 113.144 40.456C113.272 40.36 113.392 40.264 113.504 40.168C113.632 40.072 113.736 40 113.816 39.952C113.896 39.888 113.976 39.848 114.056 39.832C114.136 39.816 114.216 39.808 114.296 39.808C114.472 39.824 114.64 39.92 114.8 40.096C114.96 40.272 115.064 40.44 115.112 40.6C115.112 40.728 115.032 40.912 114.872 41.152C114.712 41.376 114.496 41.616 114.224 41.872C113.968 42.112 113.68 42.328 113.36 42.52ZM113.048 37.168C113.16 37.12 113.32 37.008 113.528 36.832C113.752 36.656 113.952 36.472 114.128 36.28C114.304 36.072 114.392 35.912 114.392 35.8C114.392 35.624 114.272 35.472 114.032 35.344C113.808 35.216 113.512 35.192 113.144 35.272C113.016 35.304 112.864 35.392 112.688 35.536C112.512 35.68 112.336 35.848 112.16 36.04C111.984 36.216 111.832 36.392 111.704 36.568C111.576 36.728 111.488 36.856 111.44 36.952C111.504 37.032 111.632 37.096 111.824 37.144C112.016 37.192 112.224 37.216 112.448 37.216C112.688 37.216 112.888 37.2 113.048 37.168ZM123.32 43.456C123.112 43.504 122.904 43.448 122.696 43.288C122.504 43.144 122.368 42.984 122.288 42.808C122.192 42.552 122.128 42.312 122.096 42.088C122.08 41.848 122.064 41.576 122.048 41.272L122.024 40.456L121.04 41.344C120.496 41.856 119.984 42.224 119.504 42.448C119.04 42.656 118.616 42.76 118.232 42.76C118.056 42.728 117.84 42.616 117.584 42.424C117.344 42.216 117.12 41.992 116.912 41.752C116.72 41.496 116.584 41.288 116.504 41.128C116.408 40.904 116.376 40.592 116.408 40.192C116.456 39.792 116.552 39.352 116.696 38.872C116.856 38.392 117.048 37.92 117.272 37.456C117.512 36.992 117.784 36.592 118.088 36.256C118.616 35.456 119.272 34.96 120.056 34.768C120.84 34.56 121.536 34.624 122.144 34.96C122.432 35.104 122.64 35.16 122.768 35.128C122.896 35.096 122.976 34.992 123.008 34.816C123.072 34.56 123.144 34.32 123.224 34.096C123.304 33.872 123.416 33.536 123.56 33.088C123.96 31.872 124.304 30.92 124.592 30.232C124.896 29.544 125.168 28.944 125.408 28.432C125.584 28.064 125.76 27.808 125.936 27.664C126.112 27.52 126.264 27.456 126.392 27.472C126.568 27.472 126.784 27.536 127.04 27.664C127.312 27.792 127.488 27.968 127.568 28.192C127.632 28.336 127.656 28.488 127.64 28.648C127.64 28.808 127.592 28.976 127.496 29.152C127.288 29.536 127.04 30.048 126.752 30.688C126.48 31.312 126.2 32 125.912 32.752C125.64 33.504 125.384 34.248 125.144 34.984C124.904 35.72 124.704 36.368 124.544 36.928C124.448 37.28 124.368 37.728 124.304 38.272C124.256 38.816 124.216 39.376 124.184 39.952C124.168 40.512 124.168 41.016 124.184 41.464C124.2 41.896 124.224 42.176 124.256 42.304C124.352 42.624 124.352 42.864 124.256 43.024C124.16 43.184 124.024 43.288 123.848 43.336C123.672 43.4 123.496 43.44 123.32 43.456ZM119.36 40.552C119.584 40.472 119.784 40.376 119.96 40.264C120.136 40.152 120.344 40.008 120.584 39.832C121.064 39.464 121.408 39.144 121.616 38.872C121.84 38.6 122.016 38.264 122.144 37.864C122.224 37.624 122.224 37.416 122.144 37.24C122.08 37.064 121.96 36.896 121.784 36.736C121.608 36.592 121.384 36.536 121.112 36.568C120.84 36.584 120.528 36.752 120.176 37.072C119.792 37.424 119.464 37.832 119.192 38.296C118.92 38.76 118.696 39.424 118.52 40.288C118.488 40.448 118.544 40.56 118.688 40.624C118.832 40.688 119.056 40.664 119.36 40.552ZM13.6099 66.424C13.4499 66.328 13.2739 66.192 13.0819 66.016C12.8899 65.824 12.7939 65.64 12.7939 65.464C12.7939 65.224 12.8259 64.928 12.8899 64.576C12.9539 64.208 13.0179 63.896 13.0819 63.64C13.1139 63.352 13.1539 63.064 13.2019 62.776C13.2659 62.472 13.3779 62.192 13.5379 61.936C13.7139 61.328 13.8979 60.728 14.0899 60.136C14.2819 59.528 14.4499 58.904 14.5939 58.264C14.8019 57.672 14.9859 57.152 15.1459 56.704C15.3219 56.24 15.5379 55.656 15.7939 54.952C15.9379 54.552 16.0579 54.128 16.1539 53.68C16.2659 53.216 16.4339 52.8 16.6579 52.432C16.7539 52.288 16.8259 52.168 16.8739 52.072C16.9379 51.96 17.0019 51.856 17.0659 51.76C17.0819 51.696 17.1619 51.64 17.3059 51.592C17.4659 51.544 17.6259 51.52 17.7859 51.52C17.9619 51.504 18.0819 51.536 18.1459 51.616C18.1939 51.6 18.2739 51.664 18.3859 51.808C18.4979 51.936 18.6019 52.088 18.6979 52.264C18.8099 52.424 18.8579 52.552 18.8419 52.648C18.8419 52.712 18.8259 52.8 18.7939 52.912C18.7779 53.024 18.7379 53.128 18.6739 53.224C18.6099 53.288 18.5459 53.384 18.4819 53.512C18.4339 53.624 18.3539 53.784 18.2419 53.992C18.1779 54.2 18.1219 54.416 18.0739 54.64C18.0259 54.848 17.9619 55.04 17.8819 55.216C17.8179 55.408 17.7379 55.592 17.6419 55.768C17.5619 55.944 17.5059 56.088 17.4739 56.2C17.3619 56.568 17.2259 56.928 17.0659 57.28C16.9219 57.632 16.7939 58.008 16.6819 58.408C16.5699 58.792 16.4579 59.192 16.3459 59.608C16.2339 60.008 16.0739 60.392 15.8659 60.76C15.7539 60.936 15.6739 61.16 15.6259 61.432C15.5779 61.704 15.5299 61.976 15.4819 62.248C15.3859 62.536 15.2979 62.808 15.2179 63.064C15.1539 63.304 15.1219 63.456 15.1219 63.52C15.0259 63.872 14.9539 64.224 14.9059 64.576C14.8739 64.912 14.7939 65.208 14.6659 65.464C14.6499 65.624 14.5939 65.8 14.4979 65.992C14.4019 66.184 14.2739 66.328 14.1139 66.424C13.9699 66.52 13.8019 66.52 13.6099 66.424ZM19.6756 67.432C18.7956 67.432 18.1156 67.176 17.6356 66.664C17.1716 66.152 16.9396 65.368 16.9396 64.312C16.9396 63.736 17.0436 63.104 17.2516 62.416C17.4756 61.728 17.7636 61.056 18.1156 60.4C18.4836 59.744 18.8836 59.176 19.3156 58.696C19.7476 58.2 20.1796 57.856 20.6116 57.664C20.7716 57.584 20.9396 57.528 21.1156 57.496C21.3076 57.448 21.4916 57.424 21.6676 57.424C21.8596 57.424 22.0676 57.44 22.2916 57.472C22.5316 57.488 22.7556 57.536 22.9636 57.616C23.3316 57.728 23.6516 57.944 23.9236 58.264C24.2116 58.584 24.3556 59.048 24.3556 59.656C24.3556 59.816 24.3396 59.992 24.3076 60.184C24.2756 60.36 24.2196 60.536 24.1396 60.712C23.9316 61.24 23.6116 61.744 23.1796 62.224C22.7636 62.704 22.3236 63.04 21.8596 63.232C21.7316 63.296 21.6036 63.344 21.4756 63.376C21.3636 63.392 21.2436 63.4 21.1156 63.4C20.7796 63.4 20.4756 63.352 20.2036 63.256C19.9476 63.16 19.7076 63.032 19.4836 62.872L19.2916 62.704L19.1716 62.944C19.0596 63.248 18.9796 63.504 18.9316 63.712C18.8996 63.92 18.8836 64.072 18.8836 64.168C18.8836 64.36 18.8916 64.56 18.9076 64.768C18.9236 64.96 18.9716 65.12 19.0516 65.248C19.1156 65.328 19.1956 65.392 19.2916 65.44C19.4036 65.488 19.5396 65.512 19.6996 65.512C19.7956 65.512 19.8836 65.512 19.9636 65.512C20.0596 65.496 20.1396 65.48 20.2036 65.464C20.4916 65.4 20.7236 65.296 20.8996 65.152C21.0916 64.992 21.2916 64.856 21.4996 64.744L21.5956 64.696L21.5716 64.624C21.8436 64.48 22.0276 64.392 22.1236 64.36C22.2196 64.312 22.2916 64.272 22.3396 64.24C22.4036 64.176 22.4756 64.144 22.5556 64.144C22.7796 64.112 22.9956 64.176 23.2036 64.336C23.4276 64.48 23.5396 64.664 23.5396 64.888C23.5396 64.984 23.4676 65.136 23.3236 65.344C23.1956 65.552 23.0276 65.76 22.8196 65.968C22.6276 66.16 22.4276 66.312 22.2196 66.424C22.1716 66.44 22.1236 66.464 22.0756 66.496C22.0276 66.512 21.9796 66.536 21.9316 66.568H21.9556C21.8116 66.76 21.6676 66.856 21.5236 66.856H21.3316C21.2676 66.968 21.0596 67.088 20.7076 67.216C20.3556 67.36 20.0116 67.432 19.6756 67.432ZM20.9236 61.648C21.0676 61.648 21.1956 61.624 21.3076 61.576C21.4356 61.528 21.5556 61.472 21.6676 61.408C22.0516 61.136 22.2996 60.784 22.4116 60.352C22.5236 59.92 22.4836 59.592 22.2916 59.368C22.2596 59.32 22.2196 59.288 22.1716 59.272C22.1236 59.24 22.0676 59.224 22.0036 59.224C21.8276 59.224 21.6276 59.28 21.4036 59.392C21.1956 59.504 20.9876 59.664 20.7796 59.872C20.5716 60.08 20.3796 60.328 20.2036 60.616L19.8916 61.12C19.9236 61.104 19.9476 61.096 19.9636 61.096C19.9956 61.08 20.0196 61.072 20.0356 61.072C20.1796 61.072 20.2756 61.12 20.3236 61.216C20.3716 61.312 20.4276 61.408 20.4916 61.504C20.5716 61.6 20.7156 61.648 20.9236 61.648ZM27.4992 68.44C26.7152 68.424 26.2112 68.2 25.9872 67.768C25.7792 67.352 25.7232 66.824 25.8192 66.184C25.9152 65.88 25.9712 65.608 25.9872 65.368C26.0192 65.112 26.0912 64.952 26.2032 64.888C26.2032 64.888 26.2112 64.864 26.2272 64.816C26.2592 64.768 26.2512 64.72 26.2032 64.672C26.2032 64.464 26.2752 64.176 26.4192 63.808C26.4512 63.712 26.4912 63.6 26.5392 63.472C26.6032 63.328 26.6352 63.256 26.6352 63.256C26.5552 63.128 26.5552 63.024 26.6352 62.944C26.7152 62.864 26.7952 62.792 26.8752 62.728C26.9712 62.648 26.9792 62.56 26.8992 62.464C26.8672 62.4 26.9072 62.256 27.0192 62.032C27.1312 61.792 27.2592 61.544 27.4032 61.288C27.5472 61.032 27.6432 60.832 27.6912 60.688C27.6912 60.656 27.7312 60.544 27.8112 60.352C27.8912 60.16 27.9872 59.936 28.0992 59.68C28.2112 59.424 28.3152 59.192 28.4112 58.984C28.5232 58.776 28.5952 58.64 28.6272 58.576C28.7872 58.496 28.7232 58.44 28.4352 58.408C28.1472 58.376 27.8432 58.368 27.5232 58.384C27.0272 58.368 26.6272 58.344 26.3232 58.312C26.0352 58.28 25.7952 58.208 25.6032 58.096C25.4112 57.872 25.3872 57.608 25.5312 57.304C25.6752 56.984 25.9072 56.816 26.2272 56.8C26.4352 56.784 26.5952 56.776 26.7072 56.776C26.8352 56.776 26.9952 56.768 27.1872 56.752C27.3952 56.72 27.7152 56.68 28.1472 56.632L29.3712 56.536L29.4432 56.128C29.5712 55.92 29.6592 55.784 29.7072 55.72C29.7552 55.656 29.7872 55.592 29.8032 55.528C29.8192 55.448 29.8432 55.312 29.8752 55.12C29.8752 55.12 29.9472 54.992 30.0912 54.736C30.2352 54.464 30.3232 54.184 30.3552 53.896C30.5472 53.576 30.7152 53.288 30.8592 53.032C31.0032 52.76 31.0912 52.592 31.1232 52.528C31.3952 52.128 31.6592 51.912 31.9152 51.88C32.1872 51.848 32.4432 51.912 32.6832 52.072C32.8272 52.152 32.9632 52.256 33.0912 52.384C33.2192 52.496 33.2992 52.648 33.3312 52.84C33.3632 53.016 33.2912 53.248 33.1152 53.536C33.0832 53.6 33.0352 53.72 32.9712 53.896C32.9072 54.056 32.8592 54.192 32.8272 54.304C32.7312 54.416 32.6112 54.6 32.4672 54.856C32.3392 55.096 32.2512 55.344 32.2032 55.6C32.0752 55.872 31.9952 56.04 31.9632 56.104C31.9312 56.168 31.8832 56.2 31.8192 56.2C31.8512 56.36 31.9472 56.44 32.1072 56.44C32.2672 56.424 32.5312 56.408 32.8992 56.392C33.2032 56.36 33.4112 56.328 33.5232 56.296C33.6512 56.248 33.7952 56.264 33.9552 56.344C34.0352 56.456 34.0752 56.624 34.0752 56.848C34.0912 57.056 34.0672 57.264 34.0032 57.472C33.9392 57.664 33.8512 57.784 33.7392 57.832C33.6592 57.832 33.4912 57.88 33.2352 57.976C32.9952 58.056 32.6912 58.104 32.3232 58.12L31.0512 58.24L30.6432 59.056C30.5312 59.264 30.4352 59.456 30.3552 59.632C30.2752 59.792 30.2192 59.888 30.1872 59.92C30.1872 60.016 30.1312 60.16 30.0192 60.352C29.9232 60.544 29.8192 60.752 29.7072 60.976C29.6112 61.248 29.4992 61.496 29.3712 61.72C29.2592 61.944 29.2032 62.056 29.2032 62.056C29.1392 62.056 29.1072 62.104 29.1072 62.2C29.1872 62.392 29.1632 62.536 29.0352 62.632C28.9552 62.68 28.8832 62.752 28.8192 62.848C28.7712 62.928 28.7472 62.968 28.7472 62.968C28.8112 63.032 28.8192 63.112 28.7712 63.208C28.7392 63.304 28.6912 63.408 28.6272 63.52C28.6272 63.648 28.5872 63.832 28.5072 64.072C28.4432 64.312 28.3712 64.536 28.2912 64.744C28.3072 65.032 28.3232 65.216 28.3392 65.296C28.3552 65.376 28.3952 65.408 28.4592 65.392C28.5392 65.408 28.6512 65.408 28.7952 65.392C28.9392 65.376 29.0432 65.368 29.1072 65.368C29.3472 65.256 29.2352 65.816 28.7712 67.048C28.5152 67.448 28.2592 67.776 28.0032 68.032C27.7472 68.304 27.5792 68.44 27.4992 68.44ZM34.9165 67.024C34.7405 66.992 34.5485 66.888 34.3405 66.712C34.1325 66.52 33.9405 66.312 33.7645 66.088C33.6045 65.848 33.5005 65.648 33.4525 65.488C33.4525 65.456 33.4285 65.416 33.3805 65.368C33.3485 65.32 33.3325 65.296 33.3325 65.296C33.2685 65.248 33.2285 65.04 33.2125 64.672C33.2125 64.288 33.2365 63.864 33.2845 63.4C33.3325 62.936 33.3885 62.568 33.4525 62.296C33.5325 62.04 33.6525 61.696 33.8125 61.264C33.9725 60.816 34.1085 60.416 34.2205 60.064L34.8685 58.672L33.9085 58.408C33.7965 58.376 33.7005 58.312 33.6205 58.216C33.5565 58.12 33.5245 58.04 33.5245 57.976C33.5245 57.848 33.5965 57.664 33.7405 57.424C33.8845 57.184 33.9885 57.064 34.0525 57.064C34.1325 57.08 34.2765 57.088 34.4845 57.088C34.7085 57.088 34.9245 57.08 35.1325 57.064C35.3405 57.048 35.4685 57.032 35.5165 57.016C35.5805 56.984 35.6445 56.944 35.7085 56.896C35.7725 56.832 35.8205 56.744 35.8525 56.632C35.9325 56.456 36.0045 56.32 36.0685 56.224C36.1325 56.128 36.2205 55.984 36.3325 55.792C36.4445 55.584 36.5325 55.408 36.5965 55.264C36.6765 55.12 36.7965 54.92 36.9565 54.664C37.0365 54.552 37.1245 54.416 37.2205 54.256C37.3165 54.096 37.4365 53.96 37.5805 53.848C37.7245 53.72 37.9565 53.632 38.2765 53.584C38.6125 53.52 38.9005 53.592 39.1405 53.8C39.2685 53.96 39.3405 54.112 39.3565 54.256C39.3725 54.4 39.3085 54.584 39.1645 54.808C39.0365 55.08 38.8845 55.328 38.7085 55.552C38.5485 55.76 38.3965 56 38.2525 56.272C37.9965 56.624 37.9485 56.824 38.1085 56.872C38.2685 56.92 38.7165 56.888 39.4525 56.776C39.9165 56.696 40.2525 56.744 40.4605 56.92C40.6685 57.096 40.7885 57.32 40.8205 57.592C40.8685 57.976 40.8285 58.208 40.7005 58.288C40.5725 58.368 40.2045 58.408 39.5965 58.408C39.2125 58.472 38.8845 58.512 38.6125 58.528C38.3405 58.528 38.1405 58.528 38.0125 58.528C37.8045 58.544 37.6685 58.552 37.6045 58.552C37.5405 58.552 37.4445 58.568 37.3165 58.6C37.1885 58.632 37.0925 58.688 37.0285 58.768C36.9805 58.832 36.9245 58.928 36.8605 59.056C36.7965 59.12 36.7005 59.288 36.5725 59.56C36.4445 59.832 36.2845 60.128 36.0925 60.448C35.8685 61.12 35.6765 61.768 35.5165 62.392C35.3725 63 35.2445 63.608 35.1325 64.216C35.0845 64.52 35.0925 64.744 35.1565 64.888C35.2365 65.016 35.4445 65.096 35.7805 65.128C35.9565 65.144 36.2125 65.144 36.5485 65.128C36.8845 65.096 37.1645 65.048 37.3885 64.984C37.5645 64.904 37.7485 64.824 37.9405 64.744C38.1325 64.648 38.3085 64.552 38.4685 64.456C38.6125 64.376 38.7565 64.296 38.9005 64.216C39.0445 64.12 39.1165 64.072 39.1165 64.072C39.1965 63.944 39.3085 63.968 39.4525 64.144C39.6125 64.304 39.7245 64.48 39.7885 64.672C39.7885 64.864 39.7485 65.096 39.6685 65.368C39.5885 65.624 39.2925 65.896 38.7805 66.184C38.0605 66.632 37.3405 66.904 36.6205 67C35.9005 67.096 35.3325 67.104 34.9165 67.024ZM42.7658 66.784C42.1418 66.528 41.7098 66.112 41.4698 65.536C41.2298 64.96 41.1658 64.192 41.2778 63.232C41.3098 62.736 41.2938 62.408 41.2298 62.248C41.1658 62.072 41.0458 61.904 40.8698 61.744C40.8218 61.68 40.7098 61.576 40.5338 61.432C40.3578 61.272 40.2778 61.152 40.2938 61.072C40.2778 60.96 40.3018 60.824 40.3658 60.664C40.4298 60.488 40.4858 60.392 40.5338 60.376C40.6458 60.328 40.7578 60.272 40.8698 60.208C40.9978 60.144 41.0938 60.128 41.1578 60.16C41.2218 60.16 41.3178 60.2 41.4458 60.28C41.5898 60.36 41.6618 60.432 41.6618 60.496C41.7258 60.608 41.8218 60.56 41.9498 60.352C42.0938 60.144 42.2458 59.88 42.4058 59.56C42.5658 59.304 42.7658 59.064 43.0058 58.84C43.2458 58.616 43.4858 58.416 43.7258 58.24C43.9818 58.048 44.1978 57.904 44.3738 57.808C44.4538 57.776 44.6058 57.728 44.8298 57.664C45.0698 57.6 45.3178 57.552 45.5738 57.52C45.8298 57.472 46.0218 57.456 46.1498 57.472C46.4378 57.488 46.7418 57.608 47.0618 57.832C47.3818 58.056 47.6298 58.264 47.8058 58.456C48.0138 58.6 48.1498 58.824 48.2138 59.128C48.2938 59.416 48.3258 59.72 48.3098 60.04C48.2938 60.36 48.2298 60.632 48.1178 60.856C48.0698 61.016 47.9018 61.24 47.6138 61.528C47.3258 61.816 47.0058 62.096 46.6538 62.368C46.3178 62.624 46.0298 62.8 45.7898 62.896C45.5818 62.944 45.3338 62.984 45.0458 63.016C44.7578 63.032 44.4858 63.032 44.2298 63.016C43.9898 62.984 43.8218 62.944 43.7258 62.896C43.6138 62.832 43.5178 62.856 43.4378 62.968C43.3738 63.064 43.3178 63.336 43.2698 63.784C43.2538 63.96 43.2538 64.112 43.2698 64.24C43.3018 64.368 43.3338 64.464 43.3658 64.528C43.4778 64.72 43.5898 64.864 43.7018 64.96C43.8138 65.04 44.0218 65.064 44.3258 65.032C44.6298 65 44.9338 64.816 45.2378 64.48C45.5578 64.128 45.8458 63.848 46.1018 63.64C46.1658 63.528 46.3018 63.456 46.5098 63.424C46.7338 63.376 46.9978 63.392 47.3018 63.472C47.4778 63.584 47.5578 63.76 47.5418 64C47.5418 64.24 47.4138 64.592 47.1578 65.056C47.1098 65.168 46.9738 65.336 46.7498 65.56C46.5418 65.768 46.3098 65.984 46.0538 66.208C45.8138 66.416 45.6138 66.568 45.4538 66.664C44.9738 66.92 44.5018 67.04 44.0378 67.024C43.5738 67.008 43.1498 66.928 42.7658 66.784ZM44.5418 61.384C44.7818 61.32 44.9818 61.256 45.1418 61.192C45.3178 61.128 45.4858 61.024 45.6458 60.88C45.8058 60.736 45.9898 60.52 46.1978 60.232C46.2618 60.056 46.2938 59.904 46.2938 59.776C46.3098 59.648 46.3018 59.568 46.2698 59.536C46.1418 59.408 45.9978 59.368 45.8378 59.416C45.6938 59.448 45.5338 59.528 45.3578 59.656C45.2458 59.704 45.0858 59.808 44.8778 59.968C44.6858 60.112 44.4938 60.28 44.3018 60.472C44.1258 60.648 43.9818 60.816 43.8698 60.976C43.7738 61.12 43.7578 61.208 43.8218 61.24C43.7898 61.304 43.8778 61.344 44.0858 61.36C44.3098 61.376 44.4618 61.384 44.5418 61.384ZM51.0934 66.496C51.0454 66.512 50.9414 66.504 50.7814 66.472C50.6374 66.44 50.4854 66.4 50.3254 66.352C50.1814 66.304 50.0934 66.264 50.0614 66.232C49.9974 66.168 49.9094 66.056 49.7974 65.896C49.6854 65.72 49.6214 65.488 49.6054 65.2C49.6054 64.912 49.7414 64.568 50.0134 64.168C50.0934 64.008 50.1894 63.768 50.3014 63.448C50.4134 63.128 50.5254 62.792 50.6374 62.44C50.7654 62.072 50.8774 61.744 50.9734 61.456C51.0854 61.168 51.1654 60.968 51.2134 60.856C51.2454 60.584 51.2294 60.392 51.1654 60.28C51.1174 60.152 50.9814 60.08 50.7574 60.064C50.5974 60.064 50.4694 60.008 50.3734 59.896C50.2934 59.784 50.2534 59.584 50.2534 59.296C50.2854 59.072 50.3414 58.88 50.4214 58.72C50.5174 58.544 50.6454 58.4 50.8054 58.288C50.9654 58.208 51.1654 58.152 51.4054 58.12C51.6614 58.088 51.9094 58.08 52.1494 58.096C52.3894 58.112 52.5574 58.168 52.6534 58.264C52.7654 58.328 52.8534 58.472 52.9174 58.696C52.9974 58.904 53.0614 59.12 53.1094 59.344C53.1574 59.568 53.1894 59.736 53.2054 59.848C53.3654 59.72 53.5414 59.544 53.7334 59.32C53.9414 59.08 54.1494 58.856 54.3574 58.648C54.6134 58.472 54.9174 58.296 55.2694 58.12C55.6214 57.928 55.8774 57.832 56.0374 57.832C56.2134 57.832 56.4294 57.92 56.6854 58.096C56.9414 58.256 57.1014 58.4 57.1654 58.528C57.3254 58.8 57.4374 59.088 57.5014 59.392C57.5814 59.68 57.5334 59.936 57.3574 60.16C57.1974 60.368 56.9734 60.576 56.6854 60.784C56.3974 60.976 56.0374 61.032 55.6054 60.952C55.5094 60.92 55.4054 60.8 55.2934 60.592C55.1974 60.384 55.1414 60.232 55.1254 60.136C55.1254 60.088 55.0534 60.136 54.9094 60.28C54.7814 60.408 54.6214 60.568 54.4294 60.76C54.2534 60.952 54.0854 61.128 53.9254 61.288C53.6534 61.624 53.3654 62.08 53.0614 62.656C52.7574 63.232 52.3974 63.928 51.9814 64.744C51.7894 65.144 51.6294 65.528 51.5014 65.896C51.3734 66.248 51.2374 66.448 51.0934 66.496ZM60.1979 67.168C59.3499 67.168 58.7259 66.896 58.3259 66.352C58.2139 66.096 58.1579 65.84 58.1579 65.584C58.1739 65.312 58.2379 65.12 58.3499 65.008C58.4619 64.88 58.5979 64.904 58.7579 65.08C58.9659 65.208 59.2619 65.272 59.6459 65.272C59.8379 65.272 60.0059 65.272 60.1499 65.272C60.3099 65.256 60.4939 65.24 60.7019 65.224C61.0699 65.192 61.3019 65.08 61.3979 64.888C61.5099 64.696 61.4859 64.536 61.3259 64.408H61.3499C60.9179 64.296 60.4939 64.136 60.0779 63.928C59.6619 63.72 59.3099 63.488 59.0219 63.232C58.7339 62.96 58.5659 62.704 58.5179 62.464C58.3899 61.936 58.4219 61.392 58.6139 60.832C58.8059 60.272 59.0859 59.784 59.4539 59.368C59.5979 59.272 59.7979 59.136 60.0539 58.96C60.3099 58.768 60.4939 58.664 60.6059 58.648V58.672C60.9099 58.352 61.2539 58.096 61.6379 57.904C62.0219 57.696 62.4699 57.504 62.9819 57.328L63.3659 57.28C63.5579 57.248 63.7259 57.232 63.8699 57.232C63.8539 57.232 63.8939 57.248 63.9899 57.28C64.0859 57.312 64.1659 57.336 64.2299 57.352C64.3259 57.4 64.4219 57.424 64.5179 57.424C64.7419 57.456 64.9579 57.576 65.1659 57.784C65.3899 57.976 65.5659 58.208 65.6939 58.48C65.8379 58.736 65.8939 58.976 65.8619 59.2C65.8139 59.568 65.6779 59.936 65.4539 60.304C65.2299 60.656 64.9899 60.856 64.7339 60.904C64.7659 60.888 64.7339 60.856 64.6379 60.808C64.5419 60.76 64.4539 60.712 64.3739 60.664L64.2779 60.712C64.2779 60.712 64.2699 60.688 64.2539 60.64C64.2539 60.592 64.2379 60.536 64.2059 60.472C64.1419 60.36 64.0939 60.24 64.0619 60.112C64.0459 59.984 64.0459 59.84 64.0619 59.68C64.0939 59.504 64.1019 59.4 64.0859 59.368C64.0699 59.336 63.9739 59.312 63.7979 59.296C63.5899 59.248 63.3259 59.272 63.0059 59.368C62.6859 59.448 62.3899 59.592 62.1179 59.8C61.7979 60.008 61.5579 60.176 61.3979 60.304C61.2539 60.432 61.1419 60.56 61.0619 60.688C60.9819 60.8 60.8939 60.968 60.7979 61.192C60.7339 61.304 60.6779 61.408 60.6299 61.504C60.5819 61.584 60.5579 61.664 60.5579 61.744C60.5579 61.904 60.6939 62.072 60.9659 62.248C61.2379 62.408 61.6459 62.6 62.1899 62.824C62.6219 63 62.9019 63.24 63.0299 63.544C63.1739 63.848 63.3019 64.136 63.4139 64.408C63.4459 64.472 63.4779 64.592 63.5099 64.768C63.5579 64.928 63.5659 65.024 63.5339 65.056C63.5659 65.088 63.5819 65.12 63.5819 65.152V65.128C63.7099 65.368 63.6859 65.624 63.5099 65.896C63.3499 66.152 63.0939 66.392 62.7419 66.616C62.3899 66.824 61.9899 66.976 61.5419 67.072H61.5659C61.3259 67.104 61.0859 67.128 60.8459 67.144C60.6219 67.16 60.4059 67.168 60.1979 67.168ZM80.257 66.424C79.905 66.392 79.609 66.32 79.369 66.208C79.145 66.08 78.961 65.832 78.817 65.464C78.753 65.208 78.721 64.944 78.721 64.672C78.737 64.384 78.761 64.112 78.793 63.856C78.825 63.584 78.841 63.352 78.841 63.16C78.841 63.128 78.841 63.064 78.841 62.968C78.841 62.872 78.841 62.784 78.841 62.704C78.809 62.464 78.745 62.32 78.649 62.272C78.569 62.208 78.425 62.216 78.217 62.296C77.881 62.456 77.513 62.672 77.113 62.944C76.729 63.2 76.321 63.504 75.889 63.856C75.473 64.192 75.041 64.552 74.593 64.936C74.241 65.32 73.977 65.632 73.801 65.872C73.641 66.112 73.473 66.232 73.297 66.232C73.169 66.296 73.033 66.28 72.889 66.184C72.745 66.088 72.593 65.976 72.433 65.848C72.321 65.72 72.185 65.56 72.025 65.368C71.881 65.16 71.793 65.024 71.761 64.96C71.761 64.704 71.777 64.472 71.809 64.264C71.857 64.056 71.921 63.84 72.001 63.616C72.097 63.392 72.209 63.136 72.337 62.848C72.401 62.736 72.457 62.624 72.505 62.512C72.569 62.384 72.641 62.248 72.721 62.104C72.785 61.88 72.873 61.624 72.985 61.336C73.113 61.048 73.233 60.776 73.345 60.52C73.521 60.104 73.657 59.744 73.753 59.44C73.849 59.136 73.929 58.808 73.993 58.456C73.977 58.424 73.985 58.376 74.017 58.312C74.049 58.248 74.097 58.208 74.161 58.192H74.185H74.209C74.321 58.112 74.529 58.104 74.833 58.168C75.153 58.216 75.393 58.304 75.553 58.432C75.889 58.72 76.049 59.096 76.033 59.56C76.017 60.024 75.777 60.632 75.313 61.384C75.201 61.64 75.081 61.88 74.953 62.104C74.841 62.312 74.785 62.456 74.785 62.536C74.785 62.536 74.849 62.488 74.977 62.392C75.105 62.296 75.257 62.184 75.433 62.056C75.609 61.912 75.761 61.8 75.889 61.72C75.969 61.64 76.145 61.496 76.417 61.288C76.689 61.064 76.985 60.832 77.305 60.592C77.625 60.352 77.881 60.168 78.073 60.04C78.249 59.912 78.473 59.784 78.745 59.656C79.017 59.512 79.185 59.44 79.249 59.44C79.409 59.44 79.601 59.496 79.825 59.608C80.065 59.72 80.281 59.856 80.473 60.016C80.681 60.16 80.801 60.296 80.833 60.424C80.833 60.488 80.825 60.576 80.809 60.688C80.793 60.784 80.785 60.872 80.785 60.952C80.769 61.208 80.761 61.52 80.761 61.888C80.777 62.24 80.785 62.6 80.785 62.968C80.785 63.32 80.753 63.64 80.689 63.928C80.689 63.928 80.697 63.944 80.713 63.976C80.729 63.992 80.745 64.024 80.761 64.072C80.745 64.088 80.737 64.12 80.737 64.168C80.753 64.2 80.761 64.216 80.761 64.216C80.793 64.328 80.825 64.44 80.857 64.552C80.905 64.664 80.961 64.792 81.025 64.936C81.089 65.064 81.161 65.232 81.241 65.44C81.225 65.648 81.105 65.856 80.881 66.064C80.673 66.256 80.465 66.376 80.257 66.424ZM87.6726 66.52C87.1926 66.792 86.6806 66.952 86.1366 67C85.6086 67.032 85.1126 66.96 84.6486 66.784C84.1846 66.592 83.8086 66.312 83.5206 65.944C83.3606 65.736 83.2086 65.408 83.0646 64.96C82.9206 64.496 82.8966 63.872 82.9926 63.088C83.0886 62.352 83.3126 61.608 83.6646 60.856C84.0326 60.104 84.4806 59.44 85.0086 58.864C85.5366 58.288 86.1126 57.896 86.7366 57.688C86.9606 57.608 87.1846 57.552 87.4086 57.52C87.6486 57.472 87.9606 57.464 88.3446 57.496C88.7126 57.544 89.0406 57.64 89.3286 57.784C89.6166 57.912 89.8246 58.056 89.9526 58.216C90.2086 58.472 90.3766 58.72 90.4566 58.96C90.5366 59.2 90.5686 59.432 90.5526 59.656C90.4726 60.168 90.2406 60.72 89.8566 61.312C89.4886 61.904 88.9686 62.344 88.2966 62.632C88.0246 62.744 87.7046 62.816 87.3366 62.848C86.9686 62.88 86.4646 62.832 85.8246 62.704C85.4406 62.624 85.1846 62.664 85.0566 62.824C84.9446 62.984 84.8966 63.296 84.9126 63.76C84.9446 64.048 85.0086 64.304 85.1046 64.528C85.2166 64.736 85.4166 64.88 85.7046 64.96C86.0726 65.024 86.3366 65.032 86.4966 64.984C86.6566 64.92 86.8566 64.832 87.0966 64.72C87.2246 64.64 87.3446 64.552 87.4566 64.456C87.5846 64.36 87.7046 64.264 87.8166 64.168C87.9446 64.072 88.0486 64 88.1286 63.952C88.2086 63.888 88.2886 63.848 88.3686 63.832C88.4486 63.816 88.5286 63.808 88.6086 63.808C88.7846 63.824 88.9526 63.92 89.1126 64.096C89.2726 64.272 89.3766 64.44 89.4246 64.6C89.4246 64.728 89.3446 64.912 89.1846 65.152C89.0246 65.376 88.8086 65.616 88.5366 65.872C88.2806 66.112 87.9926 66.328 87.6726 66.52ZM87.3606 61.168C87.4726 61.12 87.6326 61.008 87.8406 60.832C88.0646 60.656 88.2646 60.472 88.4406 60.28C88.6166 60.072 88.7046 59.912 88.7046 59.8C88.7046 59.624 88.5846 59.472 88.3446 59.344C88.1206 59.216 87.8246 59.192 87.4566 59.272C87.3286 59.304 87.1766 59.392 87.0006 59.536C86.8246 59.68 86.6486 59.848 86.4726 60.04C86.2966 60.216 86.1446 60.392 86.0166 60.568C85.8886 60.728 85.8006 60.856 85.7526 60.952C85.8166 61.032 85.9446 61.096 86.1366 61.144C86.3286 61.192 86.5366 61.216 86.7606 61.216C87.0006 61.216 87.2006 61.2 87.3606 61.168ZM93.4803 67.432C92.6003 67.432 91.9203 67.176 91.4403 66.664C90.9763 66.152 90.7443 65.368 90.7443 64.312C90.7443 63.736 90.8483 63.104 91.0563 62.416C91.2803 61.728 91.5683 61.056 91.9203 60.4C92.2883 59.744 92.6883 59.176 93.1203 58.696C93.5523 58.2 93.9843 57.856 94.4163 57.664C94.5763 57.584 94.7443 57.528 94.9203 57.496C95.1123 57.448 95.2963 57.424 95.4723 57.424C95.6643 57.424 95.8723 57.44 96.0963 57.472C96.3363 57.488 96.5603 57.536 96.7683 57.616C97.1363 57.728 97.4563 57.944 97.7283 58.264C98.0163 58.584 98.1603 59.048 98.1603 59.656C98.1603 59.816 98.1443 59.992 98.1123 60.184C98.0803 60.36 98.0243 60.536 97.9443 60.712C97.7363 61.24 97.4163 61.744 96.9843 62.224C96.5683 62.704 96.1283 63.04 95.6643 63.232C95.5363 63.296 95.4083 63.344 95.2803 63.376C95.1683 63.392 95.0483 63.4 94.9203 63.4C94.5843 63.4 94.2803 63.352 94.0083 63.256C93.7523 63.16 93.5123 63.032 93.2883 62.872L93.0963 62.704L92.9763 62.944C92.8643 63.248 92.7843 63.504 92.7363 63.712C92.7043 63.92 92.6883 64.072 92.6883 64.168C92.6883 64.36 92.6963 64.56 92.7123 64.768C92.7283 64.96 92.7763 65.12 92.8563 65.248C92.9203 65.328 93.0003 65.392 93.0963 65.44C93.2083 65.488 93.3443 65.512 93.5043 65.512C93.6003 65.512 93.6883 65.512 93.7683 65.512C93.8643 65.496 93.9443 65.48 94.0083 65.464C94.2963 65.4 94.5283 65.296 94.7043 65.152C94.8963 64.992 95.0963 64.856 95.3043 64.744L95.4003 64.696L95.3763 64.624C95.6483 64.48 95.8323 64.392 95.9283 64.36C96.0243 64.312 96.0963 64.272 96.1443 64.24C96.2083 64.176 96.2803 64.144 96.3603 64.144C96.5843 64.112 96.8003 64.176 97.0083 64.336C97.2323 64.48 97.3443 64.664 97.3443 64.888C97.3443 64.984 97.2723 65.136 97.1283 65.344C97.0003 65.552 96.8323 65.76 96.6243 65.968C96.4323 66.16 96.2323 66.312 96.0243 66.424C95.9763 66.44 95.9283 66.464 95.8803 66.496C95.8323 66.512 95.7843 66.536 95.7363 66.568H95.7603C95.6163 66.76 95.4723 66.856 95.3283 66.856H95.1363C95.0723 66.968 94.8643 67.088 94.5123 67.216C94.1603 67.36 93.8163 67.432 93.4803 67.432ZM94.7283 61.648C94.8723 61.648 95.0003 61.624 95.1123 61.576C95.2403 61.528 95.3603 61.472 95.4723 61.408C95.8563 61.136 96.1043 60.784 96.2163 60.352C96.3283 59.92 96.2883 59.592 96.0963 59.368C96.0643 59.32 96.0243 59.288 95.9763 59.272C95.9283 59.24 95.8723 59.224 95.8083 59.224C95.6323 59.224 95.4323 59.28 95.2083 59.392C95.0003 59.504 94.7923 59.664 94.5843 59.872C94.3763 60.08 94.1843 60.328 94.0083 60.616L93.6963 61.12C93.7283 61.104 93.7523 61.096 93.7683 61.096C93.8003 61.08 93.8243 61.072 93.8403 61.072C93.9843 61.072 94.0803 61.12 94.1283 61.216C94.1763 61.312 94.2323 61.408 94.2963 61.504C94.3763 61.6 94.5203 61.648 94.7283 61.648ZM105.96 66.976C105.72 66.992 105.496 67 105.288 67C105.096 67 104.944 66.968 104.832 66.904C104.544 66.664 104.352 66.472 104.256 66.328C104.176 66.184 104.136 66.024 104.136 65.848C104.152 65.624 104.16 65.4 104.16 65.176C104.16 64.936 104.16 64.752 104.16 64.624C104.096 64.56 103.968 64.632 103.776 64.84C103.584 65.048 103.36 65.248 103.104 65.44C102.608 66 102.168 66.408 101.784 66.664C101.4 66.904 101.048 67.04 100.728 67.072C100.408 67.12 100.088 67.128 99.7679 67.096C99.4799 67.064 99.2239 66.92 98.9999 66.664C98.7919 66.408 98.6319 66.096 98.5199 65.728C98.4239 65.36 98.3919 65 98.4239 64.648C98.5039 63.992 98.6479 63.4 98.8559 62.872C99.0639 62.328 99.3759 61.76 99.7919 61.168C99.9839 60.912 100.24 60.632 100.56 60.328C100.896 60.024 101.256 59.744 101.64 59.488C102.024 59.216 102.368 59.024 102.672 58.912C103.136 58.704 103.52 58.608 103.824 58.624C104.144 58.64 104.456 58.688 104.76 58.768C104.984 58.88 105.16 58.936 105.288 58.936C105.432 58.936 105.536 58.856 105.6 58.696C105.696 58.568 105.768 58.408 105.816 58.216C105.864 58.024 105.944 57.84 106.056 57.664L106.584 56.104C106.76 55.672 106.968 55.176 107.208 54.616C107.448 54.056 107.72 53.432 108.024 52.744C108.392 52.12 108.704 51.792 108.96 51.76C109.232 51.728 109.512 51.872 109.8 52.192C109.992 52.384 110.096 52.624 110.112 52.912C110.144 53.184 110.072 53.504 109.896 53.872C109.784 54.048 109.664 54.272 109.536 54.544C109.408 54.8 109.256 55.104 109.08 55.456C108.904 55.872 108.72 56.288 108.528 56.704C108.352 57.12 108.168 57.576 107.976 58.072C107.912 58.328 107.824 58.624 107.712 58.96C107.616 59.296 107.536 59.6 107.472 59.872C107.424 60.128 107.368 60.368 107.304 60.592C107.256 60.8 107.2 60.904 107.136 60.904C107.008 61.016 106.888 61.256 106.776 61.624C106.664 61.976 106.568 62.352 106.488 62.752C106.424 63.152 106.368 63.48 106.32 63.736C106.288 63.928 106.264 64.2 106.248 64.552C106.232 64.888 106.224 65.216 106.224 65.536C106.224 65.84 106.224 66.048 106.224 66.16C106.224 66.464 106.2 66.68 106.152 66.808C106.12 66.92 106.056 66.976 105.96 66.976ZM100.536 65.08C100.904 65.08 101.248 64.928 101.568 64.624C101.904 64.304 102.272 63.968 102.672 63.616C102.912 63.376 103.16 63.112 103.416 62.824C103.672 62.52 103.904 62.224 104.112 61.936C104.336 61.648 104.512 61.4 104.64 61.192C104.768 60.984 104.832 60.848 104.832 60.784C104.832 60.704 104.768 60.632 104.64 60.568C104.528 60.504 104.392 60.456 104.232 60.424C104.072 60.376 103.928 60.368 103.8 60.4C103.416 60.512 103.104 60.68 102.864 60.904C102.64 61.128 102.312 61.48 101.88 61.96C101.448 62.488 101.104 62.992 100.848 63.472C100.592 63.952 100.432 64.344 100.368 64.648C100.32 64.936 100.376 65.08 100.536 65.08ZM110.336 66.784C109.712 66.528 109.28 66.112 109.04 65.536C108.8 64.96 108.736 64.192 108.848 63.232C108.88 62.736 108.864 62.408 108.8 62.248C108.736 62.072 108.616 61.904 108.44 61.744C108.392 61.68 108.28 61.576 108.104 61.432C107.928 61.272 107.848 61.152 107.864 61.072C107.848 60.96 107.872 60.824 107.936 60.664C108 60.488 108.056 60.392 108.104 60.376C108.216 60.328 108.328 60.272 108.44 60.208C108.568 60.144 108.664 60.128 108.728 60.16C108.792 60.16 108.888 60.2 109.016 60.28C109.16 60.36 109.232 60.432 109.232 60.496C109.296 60.608 109.392 60.56 109.52 60.352C109.664 60.144 109.816 59.88 109.976 59.56C110.136 59.304 110.336 59.064 110.576 58.84C110.816 58.616 111.056 58.416 111.296 58.24C111.552 58.048 111.768 57.904 111.944 57.808C112.024 57.776 112.176 57.728 112.4 57.664C112.64 57.6 112.888 57.552 113.144 57.52C113.4 57.472 113.592 57.456 113.72 57.472C114.008 57.488 114.312 57.608 114.632 57.832C114.952 58.056 115.2 58.264 115.376 58.456C115.584 58.6 115.72 58.824 115.784 59.128C115.864 59.416 115.896 59.72 115.88 60.04C115.864 60.36 115.8 60.632 115.688 60.856C115.64 61.016 115.472 61.24 115.184 61.528C114.896 61.816 114.576 62.096 114.224 62.368C113.888 62.624 113.6 62.8 113.36 62.896C113.152 62.944 112.904 62.984 112.616 63.016C112.328 63.032 112.056 63.032 111.8 63.016C111.56 62.984 111.392 62.944 111.296 62.896C111.184 62.832 111.088 62.856 111.008 62.968C110.944 63.064 110.888 63.336 110.84 63.784C110.824 63.96 110.824 64.112 110.84 64.24C110.872 64.368 110.904 64.464 110.936 64.528C111.048 64.72 111.16 64.864 111.272 64.96C111.384 65.04 111.592 65.064 111.896 65.032C112.2 65 112.504 64.816 112.808 64.48C113.128 64.128 113.416 63.848 113.672 63.64C113.736 63.528 113.872 63.456 114.08 63.424C114.304 63.376 114.568 63.392 114.872 63.472C115.048 63.584 115.128 63.76 115.112 64C115.112 64.24 114.984 64.592 114.728 65.056C114.68 65.168 114.544 65.336 114.32 65.56C114.112 65.768 113.88 65.984 113.624 66.208C113.384 66.416 113.184 66.568 113.024 66.664C112.544 66.92 112.072 67.04 111.608 67.024C111.144 67.008 110.72 66.928 110.336 66.784ZM112.112 61.384C112.352 61.32 112.552 61.256 112.712 61.192C112.888 61.128 113.056 61.024 113.216 60.88C113.376 60.736 113.56 60.52 113.768 60.232C113.832 60.056 113.864 59.904 113.864 59.776C113.88 59.648 113.872 59.568 113.84 59.536C113.712 59.408 113.568 59.368 113.408 59.416C113.264 59.448 113.104 59.528 112.928 59.656C112.816 59.704 112.656 59.808 112.448 59.968C112.256 60.112 112.064 60.28 111.872 60.472C111.696 60.648 111.552 60.816 111.44 60.976C111.344 61.12 111.328 61.208 111.392 61.24C111.36 61.304 111.448 61.344 111.656 61.36C111.88 61.376 112.032 61.384 112.112 61.384ZM122.912 67.288C122.736 67.352 122.536 67.384 122.312 67.384C122.104 67.4 121.864 67.304 121.592 67.096C121.432 66.92 121.32 66.736 121.256 66.544C121.208 66.352 121.184 66.056 121.184 65.656C121.216 65.416 121.28 65.072 121.376 64.624C121.472 64.16 121.576 63.68 121.688 63.184C121.816 62.672 121.928 62.216 122.024 61.816C122.136 61.4 122.224 61.12 122.288 60.976C122.4 60.592 122.424 60.352 122.36 60.256C122.296 60.16 122.104 60.104 121.784 60.088C121.416 60.072 121.032 60.248 120.632 60.616C120.232 60.984 119.776 61.568 119.264 62.368C118.88 62.96 118.648 63.448 118.568 63.832C118.488 64.2 118.48 64.456 118.544 64.6C118.576 64.664 118.632 64.704 118.712 64.72C118.808 64.72 118.92 64.696 119.048 64.648C119.192 64.6 119.344 64.536 119.504 64.456C119.616 64.392 119.752 64.328 119.912 64.264C120.088 64.184 120.256 64.112 120.416 64.048C120.512 64.048 120.576 64.104 120.608 64.216C120.656 64.328 120.68 64.464 120.68 64.624C120.68 64.688 120.696 64.808 120.728 64.984C120.776 65.16 120.856 65.28 120.968 65.344C121.032 65.408 120.896 65.544 120.56 65.752C120.24 65.944 119.824 66.184 119.312 66.472C118.832 66.584 118.472 66.64 118.232 66.64C118.008 66.64 117.76 66.536 117.488 66.328C117.04 66.056 116.752 65.552 116.624 64.816C116.512 64.08 116.608 63.264 116.912 62.368C117.216 61.648 117.552 61.032 117.92 60.52C118.304 59.992 118.704 59.512 119.12 59.08C119.184 59.016 119.384 58.888 119.72 58.696C120.056 58.504 120.4 58.352 120.752 58.24C121.152 58.112 121.488 58.064 121.76 58.096C122.048 58.112 122.32 58.208 122.576 58.384C122.864 58.448 123.056 58.44 123.152 58.36C123.264 58.28 123.392 58.056 123.536 57.688C123.824 56.888 124.128 56.08 124.448 55.264C124.768 54.432 125.104 53.592 125.456 52.744C125.616 52.44 125.712 52.208 125.744 52.048C125.792 51.872 125.848 51.752 125.912 51.688L126.584 51.472C126.76 51.424 126.96 51.504 127.184 51.712C127.424 51.92 127.576 52.12 127.64 52.312C127.64 52.456 127.576 52.776 127.448 53.272C127.32 53.752 127.112 54.328 126.824 55C126.568 55.592 126.312 56.192 126.056 56.8C125.816 57.392 125.584 58.024 125.36 58.696C125.184 59.192 125.024 59.592 124.88 59.896C124.736 60.2 124.64 60.464 124.592 60.688C124.496 61.104 124.376 61.48 124.232 61.816C124.104 62.136 124.016 62.36 123.968 62.488C123.76 63.096 123.6 63.6 123.488 64C123.376 64.384 123.304 64.72 123.272 65.008C123.24 65.28 123.232 65.552 123.248 65.824C123.264 66.08 123.296 66.376 123.344 66.712C123.344 66.776 123.296 66.872 123.2 67C123.12 67.112 123.024 67.208 122.912 67.288Z" fill="#EA2667"/>
<path d="M203.819 34.7944C203.425 35.523 202.515 35.7941 201.786 35.3999L189.913 28.976C189.184 28.5817 188.913 27.6715 189.307 26.9429C189.701 26.2143 190.612 25.9432 191.34 26.3374L201.894 32.0475L207.605 21.4932C207.999 20.7646 208.909 20.4935 209.638 20.8877C210.366 21.2819 210.637 22.1921 210.243 22.9207L203.819 34.7944ZM113.235 19.2719C122.909 4.10823 142.856 -1.68686 161.516 0.869415C180.209 3.4301 198.218 14.4484 203.938 33.6524L201.062 34.5088C195.782 16.78 179.041 6.29824 161.109 3.84166C143.144 1.38066 124.591 7.05103 115.765 20.8855L113.235 19.2719Z" fill="#1F1A3D"/>
</svg>
