<svg width="139" height="46" viewBox="0 0 139 46" fill="none" xmlns="http://www.w3.org/2000/svg">
<path d="M74.6372 13.5034C71.9838 13.5034 69.8756 13.8617 67.8022 14.6619C67.2017 14.8944 66.6841 15.3093 66.318 15.8516C65.9518 16.394 65.7544 17.0381 65.752 17.6986C65.7567 18.2155 65.8817 18.7236 66.1165 19.1805C66.3513 19.6374 66.689 20.0297 67.1014 20.3245C67.5138 20.6193 67.9888 20.808 68.4867 20.8748C68.9845 20.9415 69.4906 20.8845 69.9626 20.7083C71.2037 20.3238 72.4944 20.1355 73.7904 20.15C76.0001 20.15 77.2007 20.9561 77.4443 22.6103C76.0557 22.2059 74.6187 22.0049 73.1756 22.0131C67.5151 22.0131 64.1367 24.8258 64.1367 29.5375V29.6152C64.1367 33.9506 67.2744 36.8619 71.9432 36.8619C74.2631 36.8619 76.2089 36.1841 77.7865 34.8404C78.3113 35.8825 79.4278 36.7036 80.9763 36.7036C81.4446 36.7116 81.9097 36.6232 82.3443 36.4436C82.7789 36.264 83.1744 35.9969 83.5074 35.6579C83.8405 35.3188 84.1044 34.9148 84.2837 34.4693C84.4631 34.0239 84.5543 33.546 84.5519 33.0638V23.4046C84.5519 20.2276 83.7283 17.7702 82.1044 16.1011C80.4428 14.3783 77.9257 13.5034 74.6372 13.5034ZM77.569 27.6654V28.2417C77.569 30.0332 76.0204 31.2275 73.715 31.2275C73.135 31.2275 71.2443 31.0961 71.2443 29.4002V29.3196C71.2443 27.4176 73.3206 27.1339 74.5618 27.1339C75.5868 27.1262 76.6051 27.3062 77.569 27.6654Z" fill="#0618A3"/>
<path d="M106.716 13.5054C106.004 13.5047 105.308 13.7175 104.712 14.1179C104.116 14.5183 103.646 15.0888 103.361 15.7597C101.96 14.4519 100.075 13.3472 97.1316 13.3472C92.2163 13.3472 87.2314 17.0049 87.2314 24.0007V24.0814C87.2314 31.0772 92.2047 34.7349 97.1171 34.7349C99.5008 34.7349 101.365 34.0362 103.088 32.4448C102.821 35.2813 101.174 36.625 97.9639 36.625C96.0966 36.6441 94.2484 36.2362 92.5527 35.4306C92.167 35.2517 91.7499 35.1555 91.3269 35.148C90.9039 35.1405 90.4839 35.2218 90.0924 35.387C89.7009 35.5521 89.3462 35.7977 89.0499 36.1086C88.7537 36.4196 88.522 36.7895 88.3692 37.1957C88.2163 37.6018 88.1454 38.0358 88.1608 38.4711C88.1762 38.9065 88.2776 39.334 88.4588 39.7276C88.64 40.1213 88.8971 40.4728 89.2146 40.7607C89.5321 41.0487 89.9032 41.267 90.3053 41.4024C92.7883 42.4283 95.4422 42.9446 98.1176 42.9222C102.438 42.9222 105.515 41.9159 107.522 39.8497C109.398 37.9149 110.352 34.923 110.352 30.9578V17.2646C110.351 16.2707 109.968 15.3177 109.286 14.6135C108.605 13.9092 107.681 13.5109 106.716 13.5054ZM103.129 24.0007V24.0814C103.129 26.4969 101.313 28.2616 98.8107 28.2616C96.3081 28.2616 94.5362 26.5357 94.5362 24.0814V24.0007C94.5362 21.5852 96.3371 19.8205 98.8165 19.8205C101.296 19.8205 103.129 21.5852 103.129 24.0007Z" fill="#0618A3"/>
<path d="M123.984 22.1849L123.338 21.958C121.975 21.4832 120.281 20.892 120.281 20.3546V20.2889C120.281 19.7574 121.021 19.5663 121.714 19.5663C122.772 19.5663 124.205 20.0082 125.855 20.8353C126.284 21.0771 126.766 21.2005 127.256 21.1936C127.658 21.2004 128.057 21.1244 128.431 20.9702C128.804 20.8159 129.144 20.5865 129.43 20.2954C129.717 20.0043 129.944 19.6573 130.098 19.2747C130.252 18.8921 130.331 18.4817 130.329 18.0674C130.336 17.4545 130.171 16.8527 129.854 16.3338C129.537 15.8149 129.082 15.4009 128.543 15.1412C126.463 14.0424 124.164 13.4537 121.827 13.4214C116.958 13.4214 113.559 16.4968 113.559 20.904V20.9846C113.559 26.0606 118.072 27.4251 120.229 28.079L121.015 28.3209C122.465 28.7658 123.987 29.2166 123.987 29.8138V29.8914C123.987 30.5842 123.042 30.7305 122.247 30.7305C120.681 30.7305 118.837 30.0945 117.051 28.9389C116.585 28.6532 116.053 28.5045 115.511 28.509C115.111 28.5046 114.715 28.5824 114.345 28.7378C113.975 28.8932 113.639 29.123 113.357 29.4139C113.074 29.7048 112.851 30.0509 112.7 30.4318C112.549 30.8127 112.473 31.2208 112.478 31.6322C112.477 32.1703 112.609 32.6997 112.863 33.1701C113.117 33.6405 113.483 34.0362 113.928 34.3195C116.356 35.9587 119.193 36.8401 122.097 36.8575C127.493 36.8575 130.712 34.0149 130.712 29.2554V29.1748C130.712 24.496 126.339 22.9911 123.984 22.1849Z" fill="#0618A3"/>
<path d="M63.9664 8.30678H59.7674C59.153 8.29861 58.5541 8.10653 58.0438 7.75396C57.5335 7.40139 57.1339 6.90356 56.8936 6.32118C56.4895 5.39957 55.8325 4.6197 55.0035 4.07753C54.1745 3.53537 53.2097 3.25454 52.2277 3.26962C51.9382 3.27154 51.6513 3.32717 51.381 3.43384C50.685 3.70854 49.6178 4.43112 50.1775 6.19278C50.9808 8.71883 55.6061 9.64146 54.1416 14.8518C52.6772 20.0621 46.602 17.8078 46.602 12.7617C46.612 11.7933 46.5548 10.8254 46.4309 9.8654L45.3985 13.1499C45.304 13.4533 45.1176 13.7176 44.8668 13.9041C44.6159 14.0907 44.3136 14.1897 44.0042 14.1867C43.6948 14.1837 43.3944 14.0788 43.1469 13.8874C42.8995 13.696 42.7181 13.4282 42.6291 13.123L40.8341 8.64418C40.7558 8.44711 40.6862 8.24407 40.6108 8.04701C39.7756 5.74789 37.9371 4.38633 35.6433 4.38633H35.1764C32.8565 4.38633 30.8991 5.90017 30.1103 8.34261L28.1906 13.123C28.0953 13.4217 27.9108 13.6817 27.6634 13.8661C27.4161 14.0505 27.1185 14.1497 26.8132 14.1497C26.5078 14.1497 26.2102 14.0505 25.9629 13.8661C25.7156 13.6817 25.5311 13.4217 25.4357 13.123L23.5102 8.21123C23.1823 7.12394 22.5248 6.17342 21.6339 5.49904C20.7431 4.82466 19.6658 4.4619 18.5601 4.46397C16.4606 4.46397 14.4162 5.48215 13.5433 7.20798C12.6704 8.93381 11.6787 9.59667 11.6787 15.1325C11.6787 19.9099 10.191 24.1558 8.48881 24.5499C8.43407 24.564 8.38589 24.5975 8.35269 24.6445C8.31949 24.6915 8.30339 24.749 8.30719 24.807C8.31099 24.8649 8.33445 24.9197 8.37348 24.9617C8.41251 25.0036 8.46462 25.0302 8.52071 25.0366C9.95035 25.1859 12.3892 24.7858 14.654 21.2893C16.0169 19.1992 16.0778 17.757 15.8139 16.5119L21.2396 32.1877C22.1096 34.6421 24.0583 36.1679 26.3637 36.1679H32.8913C32.9583 36.1671 33.0246 36.1528 33.0862 36.1256C33.1478 36.0985 33.2037 36.0591 33.2505 36.0098C33.2974 35.9604 33.3343 35.902 33.3593 35.838C33.3842 35.7739 33.3967 35.7054 33.3959 35.6364C33.3944 34.8318 33.0836 34.0605 32.5316 33.4909C31.9796 32.9214 31.2311 32.6 30.4496 32.5968C30.8819 32.5967 31.3034 32.4582 31.6557 32.2003C32.008 31.9424 32.2736 31.578 32.4157 31.1576C32.7463 30.1812 33.1262 29.0526 33.1552 28.966L33.973 26.5146C34.0709 26.2202 34.2558 25.9647 34.5018 25.7838C34.7477 25.6029 35.0424 25.5056 35.3446 25.5056C35.6469 25.5056 35.9415 25.6029 36.1875 25.7838C36.4334 25.9647 36.6183 26.2202 36.7163 26.5146L38.6041 32.1639C39.4537 34.666 41.359 36.1619 43.6992 36.1619H50.4878C50.5551 36.1615 50.6216 36.1475 50.6836 36.1205C50.7455 36.0936 50.8017 36.0542 50.8489 36.0048C50.896 35.9555 50.9333 35.897 50.9584 35.8327C50.9835 35.7684 50.996 35.6997 50.9953 35.6304C50.9922 34.8248 50.6792 34.0532 50.1248 33.4846C49.5705 32.916 48.8199 32.5968 48.0374 32.5968C48.3996 32.5961 48.753 32.4813 49.05 32.2678C49.3471 32.0543 49.5735 31.7524 49.699 31.4025L50.6995 28.6107L53.9387 19.1305C54.1601 18.4941 54.5669 17.9435 55.1036 17.5539C55.6402 17.1644 56.2805 16.9548 56.9371 16.9538C58.9118 16.9521 60.8229 16.2349 62.3355 14.928C63.8482 13.621 64.866 11.8077 65.2105 9.80568C65.2395 9.62048 65.2291 9.431 65.1799 9.25037C65.1306 9.06975 65.0438 8.90232 64.9255 8.75971C64.8071 8.61709 64.66 8.50271 64.4944 8.42449C64.3288 8.34628 64.1486 8.30611 63.9664 8.30678ZM54.8231 8.43218C54.6511 8.43218 54.4829 8.37965 54.3398 8.28122C54.1967 8.18279 54.0852 8.0429 54.0194 7.87922C53.9535 7.71554 53.9363 7.53543 53.9699 7.36167C54.0034 7.18791 54.0863 7.0283 54.208 6.90303C54.3296 6.77775 54.4846 6.69244 54.6534 6.65788C54.8222 6.62331 54.9971 6.64105 55.156 6.70885C55.315 6.77665 55.4509 6.89146 55.5465 7.03877C55.6421 7.18607 55.6931 7.35926 55.6931 7.53642C55.6931 7.77399 55.6014 8.00183 55.4383 8.16982C55.2751 8.33781 55.0538 8.43218 54.8231 8.43218Z" fill="#0618A3"/>
</svg>
