<svg width="81" height="121" viewBox="0 0 81 121" fill="none" xmlns="http://www.w3.org/2000/svg">
<g clip-path="url(#clip0_797_1554)">
<path d="M28.4838 98.1895C27.7177 98.1895 27.079 98.5724 26.8234 99.2073L23.63 107.478L23.3744 108.369L23.1195 107.478L20.5648 99.462V99.335C20.3092 98.6988 19.6705 98.1895 18.9044 98.1895H14.8168C13.9225 98.3165 13.2838 98.9527 13.2838 99.9712C13.2838 100.225 13.4113 100.48 13.4113 100.733L13.9219 102.515L12.0058 107.476L11.6228 108.368L11.3672 107.476L8.93997 99.4607V99.3337H8.8125C8.68502 98.6975 8.04635 98.1882 7.27956 98.1882H3.19258C2.29831 98.3152 1.53217 98.9508 1.53217 99.9699C1.53217 100.224 1.66029 100.478 1.78712 100.732L7.79011 118.801C8.0457 119.563 8.68438 120.072 9.45117 120.072C10.2173 120.072 10.856 119.563 11.1116 118.928L15.3267 108.239L15.7098 107.222L15.9653 108.239L19.5418 118.801C19.6693 119.563 20.436 120.072 21.2022 120.072C21.969 120.072 22.6077 119.563 22.8632 118.928L30.0161 100.605C30.1436 100.352 30.1436 100.097 30.1436 99.8423C30.1442 98.9527 29.3774 98.1895 28.4838 98.1895ZM58.7563 98.1895C57.9901 98.1895 57.3502 98.5724 57.0959 99.2073L53.9025 107.478L53.6476 108.369L53.3926 107.478L50.8373 99.462V99.335C50.5823 98.6988 49.943 98.1895 49.1775 98.1895H45.0892C44.195 98.3165 43.5563 98.9527 43.5563 99.9712C43.5563 100.225 43.5563 100.48 43.6838 100.733L44.195 102.515L42.2783 107.476L41.8946 108.368L41.6397 107.476L39.2124 99.4607L39.085 99.3337C38.9575 98.6975 38.3188 98.1882 37.5527 98.1882H33.4651C32.5708 98.3152 31.8046 98.9508 31.8046 99.9699C31.8046 100.224 31.9328 100.478 32.0602 100.732L38.0639 118.801C38.3188 119.563 38.9581 120.072 39.7249 120.072C40.4904 120.072 41.1297 119.563 41.3847 118.928L45.6011 108.239L45.9842 107.222L46.2391 108.239L49.8168 118.801C49.9437 119.563 50.7111 120.072 51.4766 120.072C52.2427 120.072 52.8827 119.563 53.1376 118.928L60.2899 100.605C60.4173 100.352 60.4173 100.097 60.4173 99.8423C60.4167 98.9527 59.6499 98.1895 58.7563 98.1895ZM78.4263 98.1895H64.2474C63.3532 98.1895 62.7158 98.8257 62.7158 99.7166V118.421C62.8426 119.312 63.4813 119.948 64.3756 119.948H68.3344C69.2287 119.948 69.8673 119.312 69.8673 118.421V109.642H75.7435C76.5084 109.642 77.2758 108.879 77.2758 108.115C77.2758 107.224 76.5103 106.46 75.7435 106.46H69.8673V101.499H78.4257C79.3206 101.499 80.0861 100.736 80.0861 99.8448C80.0867 98.9534 79.3212 98.1895 78.4263 98.1895ZM56.4566 38.3869C59.0119 41.1864 59.2662 49.8388 65.7804 46.4031C69.6117 44.3675 69.6117 35.715 64.3756 32.5339C60.1592 30.1161 57.8607 33.4248 56.3278 37.4961C56.201 37.8777 56.201 38.1323 56.4566 38.3869ZM46.3659 36.9875C43.5563 39.1507 41.7678 45.3853 36.7865 43.222C32.6995 41.1864 32.3165 33.2971 39.3412 29.6075C44.195 27.3172 46.6222 31.7707 46.6222 36.4782C46.6215 36.6052 46.4941 36.8598 46.3659 36.9875ZM53.0082 52.6377C55.6904 52.3837 55.0517 49.8388 53.0082 49.3296C51.2197 48.6934 48.5375 48.3118 46.4941 48.4388C43.0451 48.4388 43.1732 51.1106 44.9605 51.6199C46.3659 52.0015 47.2589 52.1284 48.4088 53.6555C49.4312 55.6918 48.9206 53.0193 53.0082 52.6377ZM65.6535 8.35827C68.9744 2.75993 74.8499 3.77775 77.7883 6.57724C80.9823 9.63071 81.6203 13.1934 80.3436 15.6113C78.6825 18.9194 74.3406 22.8643 71.5303 19.047C70.2543 17.266 67.6983 15.2297 66.166 14.7205C63.9925 13.7026 63.61 11.7933 65.6535 8.35827Z" fill="#272728"/>
<path d="M79.066 32.9175C78.811 31.8996 78.2992 32.0266 78.2992 32.7905C78.5548 42.9693 72.4243 53.9127 59.396 54.0397C56.0751 54.0397 57.0975 59.257 50.9658 56.5845C46.6225 53.6581 44.0679 59.511 41.002 53.2765C40.2358 51.4948 39.2134 50.7316 37.9361 50.35C25.0352 47.1689 20.9476 29.4824 32.3162 15.2316C34.4878 16.6317 35.3814 16.8857 37.8086 14.5954C38.9585 13.4499 41.1295 12.1775 42.2787 11.7959C44.9608 10.7781 46.4944 9.63263 44.0666 4.4159C42.9489 1.95825 41.4263 0.649253 39.8038 0.0893555H35.4651C34.2246 0.457128 33.068 1.06231 32.0599 1.87102C28.7391 4.54289 26.5675 8.7418 30.6538 13.7046C19.1597 21.4662 17.1162 31.0088 17.3712 39.4066C17.6261 48.1861 15.4552 47.4229 18.2654 56.3293C18.5204 57.0931 17.8824 57.0931 17.4993 56.8392C5.49267 49.2045 -1.02151 25.7921 17.7549 12.9407C18.138 12.5591 18.0105 12.0499 16.4775 12.9407C0.255182 21.4662 -1.27711 38.0072 1.40505 49.2045C2.68239 54.5483 0.766377 55.5667 2.81051 62.6921C7.66428 77.4521 11.7513 78.7233 17.6268 79.1062C28.2286 79.1062 20.9476 73.2532 21.4588 66.0002C21.4588 65.4903 21.97 65.364 22.2249 66.2542C28.1004 79.2319 32.1881 91.066 47.5155 89.9206C56.3281 88.7758 51.4744 84.4492 50.8357 81.9037C44.3222 60.4012 60.1595 55.3115 55.6895 76.3054C52.7524 88.3935 62.0762 87.1205 68.7178 82.7946C75.4883 78.4693 83.9197 49.0769 79.066 32.9175ZM53.2636 58.4926C51.7306 62.3105 44.1947 61.0381 43.9391 57.2208C43.9391 57.0938 44.1947 57.0938 44.1947 57.2208C47.643 57.984 50.8357 58.3656 53.0073 58.3656C53.1361 58.3656 53.2636 58.2386 53.2636 58.4926Z" fill="#272728"/>
<path d="M20.1819 85.7226C20.181 86.7009 19.7906 87.639 19.0961 88.3309C18.4017 89.0227 17.4601 89.4119 16.478 89.4129C14.3064 89.4129 12.646 87.7582 12.646 85.7226C12.646 83.6863 14.3064 81.9059 16.478 81.9059C18.5215 81.9053 20.1819 83.6863 20.1819 85.7226ZM16.478 81.269C13.9233 81.269 11.8798 83.1783 11.8798 85.7219C11.8798 88.1405 13.9233 90.1748 16.478 90.1748C18.9052 90.1748 20.948 88.1392 20.948 85.7219C20.948 83.1777 18.9046 81.269 16.478 81.269Z" fill="#272728"/>
<path d="M17.7546 86.3589C17.6264 86.9952 17.1159 87.3774 16.6047 87.3774C15.7104 87.3774 15.0718 86.6142 15.0718 85.7227C15.0718 84.8319 15.5829 84.0693 16.4772 84.0693C17.1159 84.0693 17.6264 84.4509 17.7546 84.9602H18.3932C18.2651 83.9423 17.499 83.4331 16.4772 83.4331C15.1999 83.4331 14.3056 84.4509 14.3056 85.7227C14.3056 86.9952 15.1999 88.013 16.6047 88.013C17.499 88.013 18.1376 87.3774 18.3932 86.3589H17.7546ZM79.3213 91.5757C79.3206 92.5542 78.93 93.4925 78.2355 94.1844C77.5409 94.8763 76.599 95.2653 75.6167 95.266C73.4451 95.266 71.7853 93.612 71.7853 91.5757C71.7853 89.5388 73.4451 87.7577 75.6167 87.7577C77.6595 87.7577 79.3213 89.5394 79.3213 91.5757ZM75.6167 87.1221C73.0614 87.1221 71.0179 89.0314 71.0179 91.5757C71.0179 93.9936 73.0614 96.0286 75.6167 96.0286C78.0439 96.0286 80.0868 93.9923 80.0868 91.5757C80.0868 89.0308 78.0433 87.1221 75.6167 87.1221Z" fill="#272728"/>
<path d="M74.8502 91.8308H75.4882L76.6387 93.7401H77.4036L76.1269 91.8308C76.7656 91.7032 77.2761 91.4486 77.2761 90.6854C77.2761 89.7945 76.7656 89.4136 75.7438 89.4136H74.2109V93.7401H74.8489L74.8502 91.8308ZM74.8502 91.3222V90.0498H75.6163C76.1269 90.0498 76.6387 90.0498 76.6387 90.5597C76.6387 91.3222 76.1269 91.3222 75.6163 91.3222H74.8502Z" fill="#272728"/>
</g>
<defs>
<clipPath id="clip0_797_1554">
<rect width="80.6135" height="120" fill="white" transform="translate(0.346619 0.081543)"/>
</clipPath>
</defs>
</svg>
