<svg width="158" height="34" viewBox="0 0 158 34" fill="none" xmlns="http://www.w3.org/2000/svg">
<path fill-rule="evenodd" clip-rule="evenodd" d="M26.6111 6.86459L23.3713 1.269C22.3916 -0.423 19.9417 -0.423 18.962 1.269L15.7222 6.86459H26.6111ZM28.946 10.9016C28.4912 10.1169 27.6511 9.63351 26.7419 9.63351H15.5808C14.6714 9.63351 13.831 10.1172 13.3763 10.9023L0 34H6.41111L10.2667 27.3435L13.398 32.7341C13.8531 33.5176 14.6926 34 15.6008 34H26.724C27.6368 34 28.4798 33.5128 28.9332 32.723L34.5063 23.0166C34.9564 22.2326 34.9545 21.2691 34.5012 20.487L28.946 10.9016ZM25 28.4622H17.3444L13.4889 21.8057L17.3333 15.1714H25.0111L28.8556 21.8057L25 28.4622ZM36.5222 24.486L42 33.9557H35.5889L33.3333 30.0681L36.5222 24.486Z" fill="white"/>
<path d="M53 20.5874C53 18.5302 53.7315 16.7807 55.1944 15.3387C56.6574 13.8775 58.4324 13.1469 60.5196 13.1469C62.6067 13.1469 64.3818 13.8775 65.8447 15.3387C67.3272 16.7807 68.0684 18.5302 68.0684 20.5874C68.0684 22.6446 67.3272 24.4038 65.8447 25.865C64.3818 27.3069 62.6067 28.0279 60.5196 28.0279C59.0956 28.0279 57.8668 27.6626 56.8329 26.932V33.565H53V20.5874ZM57.857 23.2983C58.5787 24.0097 59.476 24.3654 60.5488 24.3654C61.6217 24.3654 62.5092 24.0097 63.2114 23.2983C63.9136 22.5677 64.2647 21.6641 64.2647 20.5874C64.2647 19.5108 63.9136 18.6168 63.2114 17.9054C62.5092 17.1748 61.6217 16.8095 60.5488 16.8095C59.476 16.8095 58.5787 17.1748 57.857 17.9054C57.1353 18.6168 56.7744 19.5108 56.7744 20.5874C56.7744 21.6641 57.1353 22.5677 57.857 23.2983Z" fill="white"/>
<path d="M71.7349 15.3387C73.2174 13.8775 75.0022 13.1469 77.0893 13.1469C79.1765 13.1469 80.9515 13.8775 82.4145 15.3387C83.897 16.7807 84.6382 18.5302 84.6382 20.5874C84.6382 22.6446 83.897 24.4038 82.4145 25.865C80.9515 27.3069 79.1765 28.0279 77.0893 28.0279C75.0022 28.0279 73.2174 27.3069 71.7349 25.865C70.272 24.4038 69.5405 22.6446 69.5405 20.5874C69.5405 18.5302 70.272 16.7807 71.7349 15.3387ZM79.7812 17.9054C79.079 17.1748 78.1914 16.8095 77.1186 16.8095C76.0458 16.8095 75.1485 17.1748 74.4268 17.9054C73.705 18.6168 73.3442 19.5108 73.3442 20.5874C73.3442 21.6641 73.705 22.5677 74.4268 23.2983C75.1485 24.0097 76.0458 24.3654 77.1186 24.3654C78.1914 24.3654 79.079 24.0097 79.7812 23.2983C80.4834 22.5677 80.8345 21.6641 80.8345 20.5874C80.8345 19.5108 80.4834 18.6168 79.7812 17.9054Z" fill="white"/>
<path d="M92.2574 28.0279C90.5019 28.0279 89.0097 27.5953 87.7808 26.7302C86.5714 25.865 85.9667 24.6634 85.9667 23.1253H89.5948C89.5948 23.5867 89.8484 23.9616 90.3556 24.25C90.8822 24.5384 91.5454 24.6826 92.3452 24.6826C93.1059 24.6826 93.6911 24.5576 94.1007 24.3077C94.5299 24.0385 94.7444 23.7021 94.7444 23.2983C94.7444 22.933 94.5299 22.6446 94.1007 22.4331C93.6716 22.2217 93.1352 22.0775 92.4915 22.0006C91.8673 21.9236 91.1748 21.8083 90.4141 21.6545C89.6729 21.4814 88.9804 21.27 88.3367 21.02C87.7125 20.7701 87.1858 20.3471 86.7567 19.7511C86.3276 19.1551 86.113 18.4053 86.113 17.5016C86.113 16.252 86.6884 15.2137 87.8393 14.387C89.0097 13.5603 90.4531 13.1469 92.1696 13.1469C93.9252 13.1469 95.3589 13.5699 96.4707 14.4159C97.5826 15.2426 98.1385 16.3962 98.1385 17.8766H94.5104C94.5104 17.4728 94.2665 17.1364 93.7789 16.8672C93.3107 16.598 92.7548 16.4634 92.1111 16.4634C91.4869 16.4634 90.9603 16.5884 90.5311 16.8384C90.1215 17.0883 89.9167 17.4055 89.9167 17.79C89.9167 18.1553 90.2093 18.4341 90.7945 18.6264C91.3796 18.8186 92.0916 18.9821 92.9304 19.1166C93.7886 19.232 94.6372 19.405 95.4759 19.6357C96.3147 19.8665 97.0266 20.299 97.6118 20.9335C98.2165 21.5487 98.5286 22.3658 98.5481 23.3848C98.5676 24.9229 97.9922 26.0861 96.8218 26.8744C95.671 27.6434 94.1495 28.0279 92.2574 28.0279Z" fill="white"/>
<path d="M107.624 17.0402H104.991V20.9912C104.991 22.1447 105.196 22.9715 105.605 23.4713C106.015 23.9712 106.688 24.2212 107.624 24.2212V27.8837C105.654 27.8837 104.084 27.3166 102.913 26.1822C101.763 25.0479 101.187 23.3175 101.187 20.9912V17.0402H99.022V13.3777H101.187V7.63867H104.991V13.3777H107.624V17.0402Z" fill="white"/>
<path d="M116.206 28.0279C114.119 28.0279 112.334 27.3069 110.852 25.865C109.389 24.4038 108.657 22.6446 108.657 20.5874C108.657 18.5302 109.389 16.7807 110.852 15.3387C112.334 13.8775 114.119 13.1469 116.206 13.1469C118.293 13.1469 120.068 13.8775 121.531 15.3387C122.994 16.7807 123.726 18.5302 123.726 20.5874V27.7972H119.922V26.2687C119.708 26.7494 119.239 27.1628 118.518 27.5088C117.796 27.8549 117.025 28.0279 116.206 28.0279ZM113.544 23.2983C114.265 24.0097 115.163 24.3654 116.235 24.3654C117.308 24.3654 118.196 24.0097 118.898 23.2983C119.6 22.5677 119.951 21.6641 119.951 20.5874C119.951 19.5108 119.6 18.6168 118.898 17.9054C118.196 17.1748 117.308 16.8095 116.235 16.8095C115.163 16.8095 114.265 17.1748 113.544 17.9054C112.822 18.6168 112.461 19.5108 112.461 20.5874C112.461 21.6641 112.822 22.5677 113.544 23.2983Z" fill="white"/>
<path d="M132.893 33.565C131.372 33.565 129.987 33.1517 128.738 32.325C127.49 31.5175 126.573 30.4408 125.988 29.095H130.611C131.313 29.6333 132.074 29.9025 132.893 29.9025C133.907 29.9025 134.766 29.6525 135.468 29.1527C136.189 28.6528 136.55 27.9702 136.55 27.1051V27.0762C135.419 27.7107 134.2 28.0279 132.893 28.0279C130.806 28.0279 129.021 27.3069 127.539 25.865C126.076 24.4038 125.344 22.6446 125.344 20.5874C125.344 18.5302 126.076 16.7807 127.539 15.3387C129.021 13.8775 130.806 13.1469 132.893 13.1469C134.98 13.1469 136.755 13.8775 138.218 15.3387C139.701 16.7807 140.442 18.5302 140.442 20.5874V26.1245C140.442 28.1817 139.701 29.9313 138.218 31.3733C136.755 32.8344 134.98 33.565 132.893 33.565ZM130.23 23.2983C130.952 24.0097 131.849 24.3654 132.922 24.3654C133.995 24.3654 134.883 24.0097 135.585 23.2983C136.287 22.5677 136.638 21.6641 136.638 20.5874C136.638 19.5108 136.287 18.6168 135.585 17.9054C134.883 17.1748 133.995 16.8095 132.922 16.8095C131.849 16.8095 130.952 17.1748 130.23 17.9054C129.509 18.6168 129.148 19.5108 129.148 20.5874C129.148 21.6641 129.509 22.5677 130.23 23.2983Z" fill="white"/>
<path d="M142.06 20.6163C142.06 18.5783 142.771 16.8287 144.195 15.3676C145.639 13.8871 147.404 13.1469 149.491 13.1469C151.442 13.1469 153.178 13.791 154.699 15.0792C156.24 16.3673 157.05 18.0977 157.128 20.2702C157.147 20.8854 157.108 21.4814 157.011 22.0582H146.156C146.331 22.7696 146.712 23.3368 147.297 23.7597C147.902 24.1635 148.633 24.3654 149.491 24.3654C150.467 24.3654 151.305 24.0866 152.008 23.529L156.543 23.5579C155.938 24.8845 155.012 25.9611 153.763 26.7878C152.515 27.6146 151.13 28.0279 149.608 28.0279C147.502 28.0279 145.717 27.3069 144.254 25.865C142.791 24.423 142.06 22.6735 142.06 20.6163ZM146.156 19.059H153.061C152.768 18.386 152.3 17.8477 151.656 17.444C151.032 17.021 150.35 16.8095 149.608 16.8095C147.95 16.8095 146.799 17.5593 146.156 19.059Z" fill="white"/>
</svg>
