<svg width="129" height="104" viewBox="0 0 129 104" fill="none" xmlns="http://www.w3.org/2000/svg">
<path fill-rule="evenodd" clip-rule="evenodd" d="M73.6191 11.7102L68.0651 2.16476C66.3856 -0.721588 62.1858 -0.721587 60.5064 2.16476L54.9524 11.7102H73.6191ZM77.6218 18.5969C76.8421 17.2582 75.4019 16.4336 73.8433 16.4336H54.71C53.1509 16.4336 51.7103 17.2587 50.9308 18.5981L28 58H38.9905L45.6 46.6448L50.968 55.8405C51.7482 57.1771 53.1872 58 54.7442 58H73.8125C75.3774 58 76.8224 57.1688 77.5998 55.8217L87.1536 39.2636C87.9253 37.9262 87.922 36.2827 87.1449 34.9483L77.6218 18.5969ZM70.8571 48.5531H57.7333L51.1238 37.1979L57.7143 25.8805H70.8762L77.4667 37.1979L70.8571 48.5531ZM90.6095 41.7702L100 57.9244H89.0095L85.1429 51.2927L90.6095 41.7702Z" fill="url(#paint0_linear_1526_10732)"/>
<path d="M0 86.9955C0 84.4543 0.903098 82.2931 2.7093 80.5118C4.51549 78.7068 6.70701 77.8043 9.28385 77.8043C11.8607 77.8043 14.0522 78.7068 15.8584 80.5118C17.6887 82.2931 18.6038 84.4543 18.6038 86.9955C18.6038 89.5368 17.6887 91.7099 15.8584 93.5149C14.0522 95.2961 11.8607 96.1867 9.28385 96.1867C7.52582 96.1867 6.00862 95.7355 4.73224 94.833V103.027H0V86.9955ZM5.99657 90.3443C6.88763 91.223 7.99543 91.6624 9.31998 91.6624C10.6445 91.6624 11.7403 91.223 12.6073 90.3443C13.4742 89.4418 13.9077 88.3255 13.9077 86.9955C13.9077 85.6655 13.4742 84.5612 12.6073 83.6824C11.7403 82.7799 10.6445 82.3287 9.31998 82.3287C7.99543 82.3287 6.88763 82.7799 5.99657 83.6824C5.10552 84.5612 4.65999 85.6655 4.65999 86.9955C4.65999 88.3255 5.10552 89.4418 5.99657 90.3443Z" fill="#080908"/>
<path d="M23.1306 80.5118C24.9609 78.7068 27.1645 77.8043 29.7413 77.8043C32.3181 77.8043 34.5097 78.7068 36.3159 80.5118C38.1461 82.2931 39.0613 84.4543 39.0613 86.9955C39.0613 89.5368 38.1461 91.7099 36.3159 93.5149C34.5097 95.2961 32.3181 96.1867 29.7413 96.1867C27.1645 96.1867 24.9609 95.2961 23.1306 93.5149C21.3244 91.7099 20.4213 89.5368 20.4213 86.9955C20.4213 84.4543 21.3244 82.2931 23.1306 80.5118ZM33.0647 83.6824C32.1977 82.7799 31.102 82.3287 29.7774 82.3287C28.4529 82.3287 27.3451 82.7799 26.454 83.6824C25.563 84.5612 25.1174 85.6655 25.1174 86.9955C25.1174 88.3255 25.563 89.4418 26.454 90.3443C27.3451 91.223 28.4529 91.6624 29.7774 91.6624C31.102 91.6624 32.1977 91.223 33.0647 90.3443C33.9317 89.4418 34.3652 88.3255 34.3652 86.9955C34.3652 85.6655 33.9317 84.5612 33.0647 83.6824Z" fill="#080908"/>
<path d="M48.4682 96.1867C46.3007 96.1867 44.4584 95.6524 42.9412 94.5836C41.4481 93.5149 40.7015 92.0305 40.7015 90.1305H45.1809C45.1809 90.7005 45.494 91.1636 46.1201 91.5199C46.7703 91.8761 47.5892 92.0543 48.5765 92.0543C49.5158 92.0543 50.2382 91.8999 50.744 91.5911C51.2738 91.2586 51.5387 90.843 51.5387 90.3443C51.5387 89.893 51.2738 89.5368 50.744 89.2755C50.2142 89.0143 49.5519 88.8361 48.7572 88.7411C47.9865 88.6461 47.1316 88.5036 46.1924 88.3136C45.2772 88.0999 44.4223 87.8387 43.6276 87.5299C42.8569 87.2212 42.2067 86.6987 41.6769 85.9624C41.147 85.2262 40.8821 84.2999 40.8821 83.1837C40.8821 81.6399 41.5926 80.3574 43.0135 79.3362C44.4584 78.315 46.2405 77.8043 48.3598 77.8043C50.5272 77.8043 52.2973 78.3268 53.67 79.3718C55.0427 80.3931 55.7291 81.8181 55.7291 83.6468H51.2497C51.2497 83.1481 50.9487 82.7324 50.3466 82.3999C49.7686 82.0674 49.0823 81.9012 48.2876 81.9012C47.5169 81.9012 46.8667 82.0556 46.3369 82.3643C45.8311 82.6731 45.5783 83.0649 45.5783 83.5399C45.5783 83.9912 45.9395 84.3355 46.662 84.573C47.3844 84.8105 48.2635 85.0124 49.299 85.1787C50.3587 85.3212 51.4062 85.5349 52.4418 85.8199C53.4774 86.1049 54.3564 86.6393 55.0789 87.423C55.8254 88.183 56.2107 89.1924 56.2348 90.4511C56.2589 92.3511 55.5485 93.788 54.1035 94.7617C52.6826 95.7117 50.8042 96.1867 48.4682 96.1867Z" fill="#080908"/>
<path d="M67.4403 82.6137H64.1891V87.4943C64.1891 88.9193 64.442 89.9405 64.9477 90.558C65.4535 91.1755 66.2843 91.4843 67.4403 91.4843V96.0086C65.0079 96.0086 63.0693 95.308 61.6243 93.9067C60.2035 92.5055 59.493 90.368 59.493 87.4943V82.6137H56.8199V78.0893H59.493V71H64.1891V78.0893H67.4403V82.6137Z" fill="#080908"/>
<path d="M78.0359 96.1867C75.459 96.1867 73.2555 95.2961 71.4252 93.5149C69.619 91.7099 68.7159 89.5368 68.7159 86.9955C68.7159 84.4543 69.619 82.2931 71.4252 80.5118C73.2555 78.7068 75.459 77.8043 78.0359 77.8043C80.6127 77.8043 82.8043 78.7068 84.6105 80.5118C86.4167 82.2931 87.3197 84.4543 87.3197 86.9955V95.9017H82.6236V94.0136C82.3587 94.6074 81.7807 95.118 80.8897 95.5455C79.9986 95.973 79.0474 96.1867 78.0359 96.1867ZM74.7486 90.3443C75.6397 91.223 76.7475 91.6624 78.072 91.6624C79.3966 91.6624 80.4923 91.223 81.3593 90.3443C82.2263 89.4418 82.6598 88.3255 82.6598 86.9955C82.6598 85.6655 82.2263 84.5612 81.3593 83.6824C80.4923 82.7799 79.3966 82.3287 78.072 82.3287C76.7475 82.3287 75.6397 82.7799 74.7486 83.6824C73.8576 84.5612 73.412 85.6655 73.412 86.9955C73.412 88.3255 73.8576 89.4418 74.7486 90.3443Z" fill="#080908"/>
<path d="M98.6378 103.027C96.7594 103.027 95.0495 102.516 93.5082 101.495C91.967 100.497 90.8351 99.1673 90.1126 97.5048H95.8202C96.6871 98.1698 97.6264 98.5023 98.6378 98.5023C99.8901 98.5023 100.95 98.1936 101.817 97.5761C102.708 96.9586 103.153 96.1155 103.153 95.0467V95.0111C101.757 95.7949 100.251 96.1867 98.6378 96.1867C96.061 96.1867 93.8574 95.2961 92.0272 93.5149C90.221 91.7099 89.3179 89.5368 89.3179 86.9955C89.3179 84.4543 90.221 82.2931 92.0272 80.5118C93.8574 78.7068 96.061 77.8043 98.6378 77.8043C101.215 77.8043 103.406 78.7068 105.212 80.5118C107.043 82.2931 107.958 84.4543 107.958 86.9955V93.8355C107.958 96.3767 107.043 98.538 105.212 100.319C103.406 102.124 101.215 103.027 98.6378 103.027ZM95.3506 90.3443C96.2416 91.223 97.3494 91.6624 98.6739 91.6624C99.9985 91.6624 101.094 91.223 101.961 90.3443C102.828 89.4418 103.262 88.3255 103.262 86.9955C103.262 85.6655 102.828 84.5612 101.961 83.6824C101.094 82.7799 99.9985 82.3287 98.6739 82.3287C97.3494 82.3287 96.2416 82.7799 95.3506 83.6824C94.4595 84.5612 94.014 85.6655 94.014 86.9955C94.014 88.3255 94.4595 89.4418 95.3506 90.3443Z" fill="#080908"/>
<path d="M109.955 87.0312C109.955 84.5137 110.834 82.3524 112.592 80.5474C114.374 78.7187 116.554 77.8043 119.131 77.8043C121.539 77.8043 123.682 78.6 125.561 80.1912C127.463 81.7824 128.463 83.9199 128.559 86.6037C128.583 87.3637 128.535 88.0999 128.414 88.8124H115.012C115.229 89.6911 115.699 90.3918 116.421 90.9143C117.168 91.413 118.071 91.6624 119.131 91.6624C120.335 91.6624 121.37 91.318 122.237 90.6293L127.836 90.6649C127.09 92.3036 125.946 93.6336 124.405 94.6549C122.863 95.6761 121.153 96.1867 119.275 96.1867C116.674 96.1867 114.471 95.2961 112.664 93.5149C110.858 91.7336 109.955 89.5724 109.955 87.0312ZM115.012 85.1074H123.538C123.176 84.2762 122.598 83.6112 121.804 83.1124C121.033 82.5899 120.19 82.3287 119.275 82.3287C117.228 82.3287 115.807 83.2549 115.012 85.1074Z" fill="#080908"/>
<defs>
<linearGradient id="paint0_linear_1526_10732" x1="64" y1="0" x2="64" y2="58" gradientUnits="userSpaceOnUse">
<stop stop-color="#798C7F"/>
<stop offset="1" stop-color="#3C423E"/>
</linearGradient>
</defs>
</svg>
